<svg width="27" height="33" viewBox="0 0 27 33" fill="none" xmlns="http://www.w3.org/2000/svg">
<path d="M0.469656 8.56667C0.469656 4.10606 4.04592 0.477312 8.44201 0.477312C11.2615 0.477312 13.7381 1.97415 15.156 4.22313L15.5602 3.9832C14.0613 1.59474 11.4341 0.00161552 8.44201 0.00161552C3.78738 0.00161552 0 3.84455 0 8.56667C0 13.2888 3.78738 17.1318 8.44201 17.1318C8.89201 17.1318 9.33219 17.0853 9.76337 17.0164C10.3459 20.1395 13.0451 22.5039 16.2925 22.5039C19.9661 22.5039 22.9435 19.4828 22.9435 15.7561C22.9435 12.2237 20.2664 9.32879 16.8603 9.03657C16.8685 8.87966 16.8832 8.72523 16.8832 8.56667C16.8832 7.15202 16.5379 5.81959 15.9357 4.64321L15.5308 4.8823C16.0912 5.98894 16.4144 7.24002 16.4144 8.56667C16.4144 8.71776 16.3988 8.86388 16.3906 9.01249C16.3579 9.01249 16.326 9.0075 16.2925 9.0075C16.1763 9.0075 16.0634 9.01912 15.9488 9.02493C15.9578 8.87301 15.9726 8.72191 15.9726 8.56667C15.9726 7.32055 15.6723 6.1475 15.1495 5.10728L13.5197 6.07116C13.8813 6.82663 14.0899 7.67006 14.0899 8.56667C14.0899 8.85806 14.0613 9.14118 14.0204 9.42012C11.9668 10.1797 10.3893 11.9331 9.8501 14.1107C9.4001 14.2277 8.92883 14.2975 8.44201 14.2975C5.32229 14.2975 2.79328 11.7313 2.79328 8.56667C2.79328 5.40199 5.32229 2.8367 8.44201 2.8367C10.4097 2.8367 12.1394 3.85787 13.1515 5.407L14.7764 4.44645C13.437 2.3303 11.1036 0.925606 8.44201 0.925606C4.28401 0.925606 0.911466 4.34682 0.911466 8.56667C0.911466 12.7865 4.28401 16.2077 8.44201 16.2077C8.85765 16.2077 9.26266 16.1654 9.6603 16.099C9.66766 16.2492 9.67502 16.3995 9.69302 16.5465C9.28393 16.6129 8.86829 16.6561 8.44201 16.6561C4.04592 16.6561 0.469656 13.0273 0.469656 8.56667Z" fill="#515151"/>
<path d="M8.44185 6.65676C9.01949 6.65676 9.53004 6.92574 9.87531 7.34166L11.519 6.37036C10.8375 5.38908 9.71413 4.74566 8.44185 4.74566C6.36204 4.74566 4.67578 6.45585 4.67578 8.56619C4.67578 10.6765 6.36204 12.3867 8.44185 12.3867C10.5217 12.3867 12.2063 10.6765 12.2063 8.56619C12.2063 8.02076 12.0926 7.50355 11.8897 7.03366L10.2329 8.01165C10.2869 8.18848 10.3229 8.37192 10.3229 8.56619C10.3229 9.62136 9.48176 10.4765 8.44185 10.4765C7.40195 10.4765 6.5584 9.62136 6.5584 8.56619C6.5584 7.51102 7.40195 6.65676 8.44185 6.65676Z" fill="#F4A72A"/>
<path d="M19.3229 3.91786C19.3974 3.95854 19.4882 3.95771 19.561 3.91288L19.8114 3.76593C19.849 3.74352 19.8711 3.70202 19.8711 3.65802C19.8703 3.61319 19.8474 3.57251 19.8081 3.55092L18.6716 2.91997L18.8009 2.84194L18.8573 2.76642L18.8443 2.67258L18.6872 2.40694C18.652 2.34966 18.5776 2.32973 18.5203 2.36377L18.3861 2.44347L18.3795 1.1409C18.3787 1.0969 18.3558 1.05705 18.3174 1.03547H18.1971L17.9484 1.18241C17.8731 1.22641 17.8273 1.30778 17.8273 1.39495L17.8355 2.76889L17.77 2.80874L17.7618 1.50618C17.7618 1.46218 17.7389 1.42065 17.7013 1.39989L17.5794 1.40074L17.3298 1.54684C17.2553 1.59167 17.2096 1.67222 17.2096 1.76022L17.2185 3.13336L17.1515 3.1732L17.1441 1.86979C17.1441 1.82662 17.1203 1.78594 17.0827 1.76436L16.9625 1.76521L16.7129 1.9113C16.6384 1.95613 16.5926 2.03752 16.5934 2.12469L16.5992 3.29522C16.5992 3.33839 16.5787 3.37826 16.5411 3.40151L15.5601 3.98013L15.1559 4.22006L14.7763 4.44338L13.1514 5.40393L11.5191 6.36777L9.87536 7.33907L8.69882 8.03394C8.51064 8.14519 8.45006 8.39423 8.56706 8.58102L8.58428 8.60928C8.68083 8.76203 8.87799 8.81102 9.03017 8.7197L10.2329 8.00905L11.8897 7.03107L13.5195 6.06808L15.1494 5.1042L15.5306 4.87923L15.9356 4.64014L16.915 4.06148L17.0328 4.05982L18.0891 4.64679C18.1627 4.68747 18.2535 4.68662 18.3255 4.64428L18.5759 4.49652C18.6143 4.47328 18.6373 4.43259 18.6365 4.38776C18.6365 4.34293 18.6119 4.3031 18.5735 4.28152L17.4362 3.64971L17.5 3.61238L18.7068 4.28152C18.7804 4.32385 18.8705 4.32217 18.9433 4.279L19.1936 4.13125C19.2321 4.108 19.2542 4.06647 19.2542 4.0233C19.2542 3.97847 19.2296 3.93695 19.1912 3.9162L18.0547 3.28444L18.1177 3.24706L19.3229 3.91786Z" fill="#F4A72A"/>
<path d="M15.5376 26.3359L14.7816 24.9255H14.7808L15.5376 26.3359Z" fill="#515151"/>
<path d="M18.7708 31.4702H13.8159L12.3816 23.8292C12.5231 23.8184 12.6638 23.8084 12.8062 23.8084H19.7796C19.9236 23.8084 20.0643 23.8184 20.2042 23.8292L18.7708 31.4702ZM12.4429 23.1384C8.99184 23.1384 6.19287 25.9777 6.19287 29.4811V32.5586H26.3946V29.4811C26.3946 25.9777 23.5956 23.1384 20.142 23.1384H12.4429Z" fill="#515151"/>
<path d="M14.7388 31.4727H17.8471L17.0771 26.3354H17.0493L17.8062 24.9249H14.7813L15.5373 26.3354H15.5095L14.7388 31.4727Z" fill="#F4A72A"/>
</svg>
