<svg width="15" height="15" viewBox="0 0 15 15" fill="none" xmlns="http://www.w3.org/2000/svg">
<path d="M7.99626 0.206364C7.86442 0.0746914 7.68571 0.000732422 7.49938 0.000732422C7.31305 0.000732422 7.13434 0.0746914 7.00251 0.206364L4.89313 2.31574C4.76893 2.44903 4.70132 2.62532 4.70453 2.80748C4.70774 2.98964 4.78154 3.16343 4.91036 3.29226C5.03919 3.42108 5.21298 3.49488 5.39514 3.49809C5.5773 3.5013 5.75359 3.43369 5.88688 3.30949L6.79626 2.40011V4.92199C6.79626 5.10847 6.87034 5.28731 7.0022 5.41917C7.13406 5.55103 7.3129 5.62511 7.49938 5.62511C7.68586 5.62511 7.8647 5.55103 7.99656 5.41917C8.12843 5.28731 8.20251 5.10847 8.20251 4.92199V2.40011L9.11188 3.30949C9.17625 3.37857 9.25388 3.43398 9.34013 3.47241C9.42638 3.51084 9.51948 3.5315 9.61389 3.53317C9.7083 3.53483 9.80208 3.51747 9.88963 3.4821C9.97718 3.44674 10.0567 3.3941 10.1235 3.32734C10.1902 3.26057 10.2429 3.18104 10.2782 3.09349C10.3136 3.00593 10.331 2.91216 10.3293 2.81775C10.3276 2.72334 10.307 2.63023 10.2686 2.54398C10.2301 2.45773 10.1747 2.38011 10.1056 2.31574L7.99626 0.206364ZM0.205631 7.00324C0.073959 7.13507 0 7.31378 0 7.50011C0 7.68644 0.073959 7.86515 0.205631 7.99699L2.31501 10.1064C2.44829 10.2306 2.62459 10.2982 2.80675 10.295C2.9889 10.2918 3.1627 10.218 3.29153 10.0891C3.42035 9.96031 3.49414 9.78651 3.49736 9.60435C3.50057 9.4222 3.43296 9.2459 3.30876 9.11261L2.39938 8.20324H4.92126C5.10774 8.20324 5.28658 8.12916 5.41844 7.9973C5.5503 7.86544 5.62438 7.68659 5.62438 7.50011C5.62438 7.31363 5.5503 7.13479 5.41844 7.00293C5.28658 6.87107 5.10774 6.79699 4.92126 6.79699H2.39938L3.30876 5.88761C3.43296 5.75432 3.50057 5.57803 3.49736 5.39587C3.49414 5.21372 3.42035 5.03992 3.29153 4.91109C3.1627 4.78227 2.9889 4.70848 2.80675 4.70526C2.62459 4.70205 2.44829 4.76966 2.31501 4.89386L0.205631 7.00324ZM7.99626 14.7939L10.1056 12.6845C10.1747 12.6201 10.2301 12.5425 10.2686 12.4562C10.307 12.37 10.3276 12.2769 10.3293 12.1825C10.331 12.0881 10.3136 11.9943 10.2782 11.9067C10.2429 11.8192 10.1902 11.7397 10.1235 11.6729C10.0567 11.6061 9.97718 11.5535 9.88963 11.5181C9.80208 11.4828 9.7083 11.4654 9.61389 11.4671C9.51948 11.4687 9.42638 11.4894 9.34013 11.5278C9.25388 11.5662 9.17625 11.6217 9.11188 11.6907L8.20251 12.6001V10.0782C8.20251 9.89176 8.12843 9.71292 7.99656 9.58105C7.8647 9.44919 7.68586 9.37511 7.49938 9.37511C7.3129 9.37511 7.13406 9.44919 7.0022 9.58105C6.87034 9.71292 6.79626 9.89176 6.79626 10.0782V12.6001L5.88688 11.6907C5.75359 11.5665 5.5773 11.4989 5.39514 11.5021C5.21298 11.5054 5.03919 11.5791 4.91036 11.708C4.78154 11.8368 4.70774 12.0106 4.70453 12.1927C4.70132 12.3749 4.76893 12.5512 4.89313 12.6845L7.00251 14.7939C7.13434 14.9255 7.31305 14.9995 7.49938 14.9995C7.68571 14.9995 7.86442 14.9255 7.99626 14.7939ZM12.6838 4.89386L14.7931 7.00324C14.9248 7.13507 14.9988 7.31378 14.9988 7.50011C14.9988 7.68644 14.9248 7.86515 14.7931 7.99699L12.6838 10.1064C12.6194 10.1754 12.5418 10.2309 12.4555 10.2693C12.3693 10.3077 12.2762 10.3284 12.1817 10.33C12.0873 10.3317 11.9936 10.3143 11.906 10.279C11.8185 10.2436 11.7389 10.191 11.6722 10.1242C11.6054 10.0574 11.5528 9.97791 11.5174 9.89036C11.482 9.80281 11.4647 9.70903 11.4663 9.61462C11.468 9.52022 11.4887 9.42711 11.5271 9.34086C11.5655 9.25461 11.6209 9.17698 11.69 9.11261L12.5994 8.20324H10.0775C9.89103 8.20324 9.71218 8.12916 9.58032 7.9973C9.44846 7.86544 9.37438 7.68659 9.37438 7.50011C9.37438 7.31363 9.44846 7.13479 9.58032 7.00293C9.71218 6.87107 9.89103 6.79699 10.0775 6.79699H12.5994L11.69 5.88761C11.5658 5.75432 11.4982 5.57803 11.5014 5.39587C11.5046 5.21372 11.5784 5.03992 11.7072 4.91109C11.8361 4.78227 12.0099 4.70848 12.192 4.70526C12.3742 4.70205 12.5505 4.76966 12.6838 4.89386Z" fill="#515151"/>
</svg>
