<svg width="21" height="22" viewBox="0 0 21 22" fill="none" xmlns="http://www.w3.org/2000/svg">
<path d="M19.5089 10.1992L10.7366 18.9896C9.66194 20.0665 8.20437 20.6715 6.68456 20.6715C5.16475 20.6715 3.70718 20.0665 2.63251 18.9896C1.55784 17.9127 0.954102 16.4521 0.954102 14.9292C0.954102 13.4062 1.55784 11.9456 2.63251 10.8687L11.4048 2.07829C12.1212 1.36036 13.0929 0.957031 14.1062 0.957031C15.1194 0.957031 16.0911 1.36036 16.8075 2.07829C17.524 2.79622 17.9265 3.76994 17.9265 4.78525C17.9265 5.80055 17.524 6.77427 16.8075 7.4922L8.0257 16.2826C7.84832 16.4604 7.63775 16.6014 7.406 16.6976C7.17425 16.7938 6.92586 16.8433 6.67501 16.8433C6.42417 16.8433 6.17578 16.7938 5.94403 16.6976C5.71228 16.6014 5.50171 16.4604 5.32433 16.2826C5.14696 16.1049 5.00626 15.8939 4.91026 15.6617C4.81427 15.4294 4.76486 15.1805 4.76486 14.9292C4.76486 14.6778 4.81427 14.4289 4.91026 14.1967C5.00626 13.9644 5.14696 13.7534 5.32433 13.5757L13.4284 5.46438" stroke="#010101" stroke-opacity="0.5" stroke-width="1.5" stroke-linecap="round" stroke-linejoin="round"/>
</svg>
