<svg width="36" height="27" viewBox="0 0 36 27" fill="none" xmlns="http://www.w3.org/2000/svg">
<path d="M1.67909 0.0942783C1.19431 0.224377 0.723856 0.541889 0.457067 0.917099C-0.034676 1.59549 0.000553336 0.642952 0.000553336 14.4789V26.9872H17.9815H35.9628V14.4789C35.9628 0.592421 35.998 1.58833 35.485 0.895227C35.2952 0.635408 35.0846 0.462322 34.7404 0.281694L34.2556 0.0290394L18.1286 0.0147114C5.5 0.00754547 1.93193 0.0218754 1.67909 0.0942783ZM30.9895 1.40054C31.0949 1.4801 31.2494 1.68185 31.3338 1.85531C31.5866 2.37495 31.4461 2.89459 30.9473 3.26979C30.7576 3.42139 30.7367 3.42139 21.7389 3.42139C12.7411 3.42139 12.7202 3.42139 12.5305 3.26979C12.1723 2.99565 12.0457 2.75732 12.0457 2.33875C12.0457 1.90584 12.1862 1.65319 12.5727 1.37866L12.8046 1.21991L21.8024 1.23424C30.6736 1.25611 30.8002 1.25611 30.9895 1.40054ZM3.3367 1.75425C3.46294 1.81194 3.60349 1.92017 3.64569 1.99974C3.86331 2.42548 3.58257 2.95266 3.14 2.95266C2.46551 2.95266 2.23395 2.07214 2.83101 1.76896C3.10477 1.63132 3.04863 1.63132 3.3367 1.75425ZM5.19101 1.73238C5.41597 1.81194 5.61964 2.10759 5.61964 2.36741C5.61964 2.44698 5.53523 2.60573 5.43688 2.72829C4.98037 3.28412 4.15872 2.74978 4.43248 2.07855C4.50257 1.89076 4.64312 1.78253 4.95909 1.65281C4.96643 1.65319 5.06441 1.68939 5.19101 1.73238ZM7.30514 1.91301C7.69156 2.29538 7.39652 2.95228 6.84166 2.95228C6.18844 2.95228 6.02 2.0284 6.62404 1.76142C6.89083 1.63848 7.07358 1.68185 7.30514 1.91301ZM29.2196 10.639V14.2116H17.9815H6.74331V10.639V7.06639H17.9815H29.2196V10.639ZM29.2196 19.733V23.3056H17.9815H6.74331V19.733V16.1604H17.9815H29.2196V19.733Z" fill="#515151"/>
<path d="M7.92019 10.6517L7.92019 10.6523L7.9391 12.9875H17.981H28.0229L28.0418 10.6523L28.0419 10.6517L28.0544 8.327H17.9814H7.90761L7.92019 10.6517Z" stroke="#F4A72A" stroke-width="0.5"/>
<path d="M8.53376 17.3804C8.27495 17.383 8.07334 17.3858 7.93507 17.3889C7.92948 17.5198 7.92444 17.7052 7.9202 17.9332C7.91147 18.4021 7.90625 19.0447 7.90625 19.7473V22.045H17.9814H28.0552L28.0426 19.7132L28.0426 19.7125L28.0237 17.3839L18.0093 17.3629C15.1894 17.3595 12.6191 17.3614 10.7512 17.3677C9.81722 17.3709 9.05929 17.3752 8.53376 17.3804Z" stroke="#F4A72A" stroke-width="0.5"/>
</svg>
