<svg width="19" height="19" viewBox="0 0 19 19" fill="none" xmlns="http://www.w3.org/2000/svg">
<path d="M12.0909 19H10.3636V17.2727H12.0909V19ZM15.5455 17.2727H13.8182V19H15.5455V17.2727ZM12.0909 13.8182H10.3636V15.5455H12.0909V13.8182ZM5.18182 17.2727H3.45455V19H5.18182V17.2727ZM5.18182 13.8182H3.45455V15.5455H5.18182V13.8182ZM15.5455 13.8182H13.8182V15.5455H15.5455V13.8182ZM12.0909 10.3636H10.3636V12.0909H12.0909V10.3636ZM15.5455 10.3636H13.8182V12.0909H15.5455V10.3636ZM17.2727 6.90909C17.7308 6.90909 18.1702 7.09107 18.4941 7.415C18.818 7.73892 19 8.17826 19 8.63636V19H17.2727V8.63636H8.63636V19H6.90909V12.0909H1.72727V19H0V12.0909C0 11.6328 0.18198 11.1935 0.505907 10.8695C0.829833 10.5456 1.26917 10.3636 1.72727 10.3636H6.90909V8.63636C6.90909 8.17826 7.09107 7.73892 7.415 7.415C7.73892 7.09107 8.17826 6.90909 8.63636 6.90909V5.18182C8.63636 4.72372 8.81834 4.28438 9.14227 3.96045C9.4662 3.63653 9.90554 3.45455 10.3636 3.45455H12.0909V0H13.8182V3.45455H15.5455C16.0036 3.45455 16.4429 3.63653 16.7668 3.96045C17.0907 4.28438 17.2727 4.72372 17.2727 5.18182V6.90909ZM15.5455 6.90909V5.18182H10.3636V6.90909H15.5455Z" fill="current"/>
</svg>
