<svg width="17" height="13" viewBox="0 0 17 13" fill="none" xmlns="http://www.w3.org/2000/svg">
<mask id="path-1-inside-1_2016_107341" fill="white">
<path d="M0.68 2.74114e-05C0.499653 2.74114e-05 0.326692 0.0685093 0.199167 0.190408C0.0716426 0.312306 0 0.477636 0 0.650026C0 0.822416 0.0716426 0.987746 0.199167 1.10964C0.326692 1.23154 0.499653 1.30002 0.68 1.30002H2.1896L3.97392 8.12501C4.12556 8.70351 4.66752 9.10001 5.29108 9.10001H13.7707C14.3847 9.10001 14.9063 8.71001 15.0674 8.14451L16.83 1.95002H15.4061L13.77 7.80001H5.2904L3.50676 0.975025C3.43308 0.695025 3.26324 0.446757 3.02442 0.269981C2.78561 0.0932043 2.49164 -0.0018544 2.1896 2.74114e-05H0.68ZM12.92 9.10001C11.8014 9.10001 10.88 9.98076 10.88 11.05C10.88 12.1193 11.8014 13 12.92 13C14.0386 13 14.96 12.1193 14.96 11.05C14.96 9.98076 14.0386 9.10001 12.92 9.10001ZM6.8 9.10001C5.6814 9.10001 4.76 9.98076 4.76 11.05C4.76 12.1193 5.6814 13 6.8 13C7.9186 13 8.84 12.1193 8.84 11.05C8.84 9.98076 7.9186 9.10001 6.8 9.10001ZM8.84 2.74114e-05V3.25002H6.8L9.52 5.85002L12.24 3.25002H10.2V2.74114e-05H8.84ZM6.8 10.4C7.18352 10.4 7.48 10.6834 7.48 11.05C7.48 11.4166 7.18352 11.7 6.8 11.7C6.41648 11.7 6.12 11.4166 6.12 11.05C6.12 10.6834 6.41648 10.4 6.8 10.4ZM12.92 10.4C13.3035 10.4 13.6 10.6834 13.6 11.05C13.6 11.4166 13.3035 11.7 12.92 11.7C12.5365 11.7 12.24 11.4166 12.24 11.05C12.24 10.6834 12.5365 10.4 12.92 10.4Z"/>
</mask>
<path d="M0 0.650026H-2H0ZM2.1896 1.30002L4.12456 0.794149L3.73394 -0.699975H2.1896V1.30002ZM3.97392 8.12501L2.03895 8.63089L2.03928 8.63213L3.97392 8.12501ZM15.0674 8.14451L16.9909 8.69266L16.9911 8.69186L15.0674 8.14451ZM16.83 1.95002L18.7536 2.49737L19.4785 -0.0499766H16.83V1.95002ZM15.4061 1.95002V-0.0499766H13.8887L13.48 1.41135L15.4061 1.95002ZM13.77 7.80001V9.80001H15.2874L15.6961 8.33869L13.77 7.80001ZM5.2904 7.80001L3.35539 8.30571L3.74591 9.80001H5.2904V7.80001ZM3.50676 0.975025L5.44177 0.469329L5.44092 0.466075L3.50676 0.975025ZM2.1896 2.74114e-05V2.00007L2.20206 1.99999L2.1896 2.74114e-05ZM8.84 2.74114e-05V-1.99997H6.84V2.74114e-05H8.84ZM8.84 3.25002V5.25002H10.84V3.25002H8.84ZM6.8 3.25002V1.25002H1.81325L5.41804 4.69577L6.8 3.25002ZM9.52 5.85002L8.13804 7.29576L9.52 8.61675L10.902 7.29576L9.52 5.85002ZM12.24 3.25002L13.622 4.69577L17.2267 1.25002H12.24V3.25002ZM10.2 3.25002H8.2V5.25002H10.2V3.25002ZM10.2 2.74114e-05H12.2V-1.99997H10.2V2.74114e-05ZM0.68 -1.99997C-0.00239275 -1.99997 -0.673987 -1.7417 -1.18279 -1.25534L1.58113 1.63615C1.32737 1.87872 1.0017 2.00003 0.68 2.00003V-1.99997ZM-1.18279 -1.25534C-1.69467 -0.766047 -2 -0.0826631 -2 0.650026H2C2 1.03793 1.83795 1.39066 1.58113 1.63615L-1.18279 -1.25534ZM-2 0.650026C-2 1.38272 -1.69467 2.0661 -1.18279 2.55539L1.58113 -0.336102C1.83795 -0.0906073 2 0.262118 2 0.650026H-2ZM-1.18279 2.55539C-0.673987 3.04175 -0.00239276 3.30002 0.68 3.30002V-0.699975C1.0017 -0.699975 1.32737 -0.578664 1.58113 -0.336102L-1.18279 2.55539ZM0.68 3.30002H2.1896V-0.699975H0.68V3.30002ZM0.254635 1.8059L2.03895 8.63089L5.90889 7.61913L4.12456 0.794149L0.254635 1.8059ZM2.03928 8.63213C2.43968 10.1596 3.83213 11.1 5.29108 11.1V7.10001C5.50291 7.10001 5.81144 7.24737 5.90856 7.61789L2.03928 8.63213ZM5.29108 11.1H13.7707V7.10001H5.29108V11.1ZM13.7707 11.1C15.2461 11.1 16.5761 10.1479 16.9909 8.69266L13.144 7.59636C13.2364 7.27217 13.5233 7.10001 13.7707 7.10001V11.1ZM16.9911 8.69186L18.7536 2.49737L14.9064 1.40268L13.1438 7.59716L16.9911 8.69186ZM16.83 -0.0499766H15.4061V3.95002H16.83V-0.0499766ZM13.48 1.41135L11.8439 7.26134L15.6961 8.33869L17.3322 2.4887L13.48 1.41135ZM13.77 5.80001H5.2904V9.80001H13.77V5.80001ZM7.22541 7.29432L5.44177 0.46933L1.57175 1.48072L3.35539 8.30571L7.22541 7.29432ZM5.44092 0.466075C5.24815 -0.266491 4.80862 -0.897629 4.21434 -1.33753L1.8345 1.87749C1.71785 1.79114 1.61801 1.65654 1.5726 1.48398L5.44092 0.466075ZM4.21434 -1.33753C3.62158 -1.77631 2.90414 -2.00446 2.17714 -1.99993L2.20206 1.99999C2.07914 2.00075 1.94964 1.96272 1.8345 1.87749L4.21434 -1.33753ZM2.1896 -1.99997H0.68V2.00003H2.1896V-1.99997ZM12.92 7.10001C10.7828 7.10001 8.88 8.7921 8.88 11.05H12.88C12.88 11.073 12.8745 11.0943 12.8681 11.1087C12.8625 11.1213 12.8586 11.1235 12.8625 11.1198C12.8719 11.1108 12.8911 11.1 12.92 11.1V7.10001ZM8.88 11.05C8.88 13.3079 10.7828 15 12.92 15V11C12.8911 11 12.8719 10.9892 12.8625 10.9802C12.8586 10.9765 12.8625 10.9787 12.8681 10.9913C12.8745 11.0057 12.88 11.027 12.88 11.05H8.88ZM12.92 15C15.0572 15 16.96 13.3079 16.96 11.05H12.96C12.96 11.027 12.9655 11.0057 12.9719 10.9913C12.9775 10.9787 12.9814 10.9765 12.9775 10.9802C12.9681 10.9892 12.9489 11 12.92 11V15ZM16.96 11.05C16.96 8.7921 15.0572 7.10001 12.92 7.10001V11.1C12.9489 11.1 12.9681 11.1108 12.9775 11.1198C12.9814 11.1235 12.9775 11.1213 12.9719 11.1087C12.9655 11.0943 12.96 11.073 12.96 11.05H16.96ZM6.8 7.10001C4.66284 7.10001 2.76 8.7921 2.76 11.05H6.76C6.76 11.073 6.75451 11.0943 6.7481 11.1087C6.74247 11.1213 6.73859 11.1235 6.74249 11.1198C6.7519 11.1108 6.77106 11.1 6.8 11.1V7.10001ZM2.76 11.05C2.76 13.3079 4.66284 15 6.8 15V11C6.77106 11 6.7519 10.9892 6.74249 10.9802C6.73859 10.9765 6.74247 10.9787 6.7481 10.9913C6.75451 11.0057 6.76 11.027 6.76 11.05H2.76ZM6.8 15C8.93716 15 10.84 13.3079 10.84 11.05H6.84C6.84 11.027 6.84549 11.0057 6.8519 10.9913C6.85753 10.9787 6.86141 10.9765 6.85751 10.9802C6.8481 10.9892 6.82894 11 6.8 11V15ZM10.84 11.05C10.84 8.7921 8.93716 7.10001 6.8 7.10001V11.1C6.82894 11.1 6.8481 11.1108 6.85751 11.1198C6.86141 11.1235 6.85753 11.1213 6.8519 11.1087C6.84549 11.0943 6.84 11.073 6.84 11.05H10.84ZM6.84 2.74114e-05V3.25002H10.84V2.74114e-05H6.84ZM8.84 1.25002H6.8V5.25002H8.84V1.25002ZM5.41804 4.69577L8.13804 7.29576L10.902 4.40427L8.18196 1.80427L5.41804 4.69577ZM10.902 7.29576L13.622 4.69577L10.858 1.80427L8.13804 4.40427L10.902 7.29576ZM12.24 1.25002H10.2V5.25002H12.24V1.25002ZM12.2 3.25002V2.74114e-05H8.2V3.25002H12.2ZM10.2 -1.99997H8.84V2.00003H10.2V-1.99997ZM6.8 12.4C6.16496 12.4 5.48 11.8721 5.48 11.05H9.48C9.48 9.49475 8.20208 8.40001 6.8 8.40001V12.4ZM5.48 11.05C5.48 10.2279 6.16496 9.7 6.8 9.7V13.7C8.20208 13.7 9.48 12.6053 9.48 11.05H5.48ZM6.8 9.7C7.43504 9.7 8.12 10.2279 8.12 11.05H4.12C4.12 12.6053 5.39792 13.7 6.8 13.7V9.7ZM8.12 11.05C8.12 11.8721 7.43504 12.4 6.8 12.4V8.40001C5.39792 8.40001 4.12 9.49475 4.12 11.05H8.12ZM12.92 12.4C12.285 12.4 11.6 11.8721 11.6 11.05H15.6C15.6 9.49475 14.3221 8.40001 12.92 8.40001V12.4ZM11.6 11.05C11.6 10.2279 12.285 9.7 12.92 9.7V13.7C14.3221 13.7 15.6 12.6053 15.6 11.05H11.6ZM12.92 9.7C13.555 9.7 14.24 10.2279 14.24 11.05H10.24C10.24 12.6053 11.5179 13.7 12.92 13.7V9.7ZM14.24 11.05C14.24 11.8721 13.555 12.4 12.92 12.4V8.40001C11.5179 8.40001 10.24 9.49475 10.24 11.05H14.24Z" fill="current" mask="url(#path-1-inside-1_2016_107341)"/>
</svg>
