<svg width="27" height="27" viewBox="0 0 27 27" fill="none" xmlns="http://www.w3.org/2000/svg">
<path d="M13.5 0C10.83 0 8.21987 0.791761 5.99981 2.27516C3.77974 3.75856 2.04941 5.86697 1.02763 8.33377C0.00584929 10.8006 -0.261496 13.515 0.259405 16.1337C0.780305 18.7525 2.06606 21.1579 3.95406 23.0459C5.84207 24.9339 8.24754 26.2197 10.8663 26.7406C13.485 27.2615 16.1994 26.9942 18.6662 25.9724C21.133 24.9506 23.2414 23.2203 24.7248 21.0002C26.2082 18.7801 27 16.17 27 13.5C27 9.91957 25.5777 6.4858 23.0459 3.95406C20.5142 1.42232 17.0804 0 13.5 0ZM1.68751 13.5C1.68831 10.6615 2.7163 7.91924 4.58157 5.77969L21.2203 22.4184C19.5091 23.8961 17.4098 24.8517 15.1716 25.1716C12.9334 25.4916 10.6504 25.1625 8.59376 24.2234C6.53707 23.2843 4.79309 21.7748 3.56889 19.874C2.34469 17.9731 1.69172 15.7609 1.68751 13.5ZM22.4184 21.2203L5.77969 4.58156C8.04378 2.68982 10.9338 1.71382 13.8813 1.8456C16.8287 1.97737 19.6202 3.20737 21.7064 5.29361C23.7926 7.37985 25.0226 10.1713 25.1544 13.1187C25.2862 16.0662 24.3102 18.9562 22.4184 21.2203Z" fill="#EB5757"/>
</svg>
