<svg width="36" height="28" viewBox="0 0 36 28" fill="none" xmlns="http://www.w3.org/2000/svg">
<circle cx="30.5" cy="5.5" r="4.5" fill="#F4A72A"/>
<path d="M30.6771 11.8391C31.3237 11.8391 31.9482 11.7397 32.5359 11.5628L31.1033 16.3707C30.9269 16.9639 30.2767 17.4465 29.6559 17.4465H14.1502C13.5331 17.4465 12.8792 16.9602 12.6992 16.3707L9.0698 4.46704C8.8898 3.87757 9.24612 3.39125 9.86694 3.39125H24.5424C24.3441 4.01757 24.2302 4.68072 24.2302 5.37336C24.2302 8.94336 27.1175 11.8391 30.6771 11.8391ZM31.0629 18.7876H12.8829C12.06 18.8318 11.4759 17.266 11.4759 17.266L6.87673 2.25283C6.81429 1.60441 6.27061 1.10704 5.62041 1.10704H1.26367C0.565714 1.10704 0 1.67072 0 2.37072C0 3.07072 0.565714 3.63809 1.26367 3.63809H4.47429L8.96327 17.4576C9.38939 18.9644 9.90735 19.9812 10.6494 20.5965L10.1094 21.7055C9.62082 22.4939 9.37469 23.0944 9.36367 23.7097C9.36 24.0191 9.44816 24.347 9.62449 24.6012C9.89633 24.9881 10.2784 25.1465 10.5649 25.2202C10.8624 25.2939 11.1159 25.2976 11.2996 25.2976H12.1739C12.2033 24.6676 12.4163 24.0891 12.758 23.6102H11.2959C11.2078 23.6139 11.1196 23.6065 11.0535 23.5955C11.0939 23.4223 11.2298 23.0649 11.5531 22.5602L11.5788 22.5197L12.1922 21.267C12.409 21.3002 12.6367 21.3186 12.8829 21.3186H31.0629C31.7571 21.3186 32.3229 20.7549 32.3229 20.0549C32.3229 19.3586 31.7571 18.7876 31.0629 18.7876ZM18.3894 25.2976H24.9355C24.9649 24.6676 25.178 24.0891 25.5233 23.6102H17.8053C18.1469 24.0891 18.3637 24.6676 18.3894 25.2976ZM31.4816 23.6102H30.5669C30.9122 24.0891 31.1253 24.6676 31.1547 25.2976H31.4816C31.9482 25.2976 32.3229 24.9181 32.3229 24.4539C32.3229 23.9897 31.9482 23.6102 31.4816 23.6102ZM36 5.37336C36 8.32072 33.6196 10.7155 30.6771 10.7155C27.7347 10.7155 25.3506 8.32072 25.3506 5.37336C25.3506 2.4223 27.7347 0.03125 30.6771 0.03125C33.6196 0.03125 36 2.4223 36 5.37336ZM33.8804 3.50546L33.2522 2.83493L29.8763 5.61651L28.3335 4.47441L27.709 5.14494L29.6155 7.36651L29.9498 7.76073L30.2988 7.38125L33.8804 3.50546Z" fill="#515151"/>
<path d="M12.7617 25.4375C12.7617 24.0412 13.8895 22.9102 15.2817 22.9102C16.674 22.9102 17.8017 24.0412 17.798 25.4375C17.798 26.8338 16.674 27.9649 15.2817 27.9649C13.8895 27.9649 12.7617 26.8302 12.7617 25.4375Z" fill="#F4A72A"/>
<path d="M25.5308 25.4375C25.5308 24.0412 26.6548 22.9102 28.0471 22.9102C29.4393 22.9102 30.5634 24.0412 30.5634 25.4375C30.5634 26.8338 29.4393 27.9649 28.0471 27.9649C26.6548 27.9649 25.5308 26.8302 25.5308 25.4375Z" fill="#F4A72A"/>
</svg>
