<svg width="33" height="25" viewBox="0 0 33 25" fill="none" xmlns="http://www.w3.org/2000/svg">
<path d="M22.2443 4.58789V1.41525C22.2432 0.633341 21.625 0.0010581 20.8605 -6.7234e-05H11.7074C10.944 0.0010581 10.3258 0.633341 10.3247 1.41525V4.58789H12.187V1.90575H20.382V4.58789H22.2443Z" fill="#F4A72A"/>
<path d="M32.5479 5.86857C32.4445 5.14629 31.8417 4.58828 31.1058 4.58828H22.2442H20.3819H16.8146H16.0941H12.1869H10.3246H1.46408C0.722676 4.58828 0.117675 5.15306 0.0197754 5.88208L14.0217 15.2109V14.9218H18.5471V15.1209L32.5479 5.86857Z" fill="#515151"/>
<path d="M0 6.43519V23.069C0 23.897 0.655593 24.5664 1.46409 24.5664H31.1058C31.9143 24.5664 32.5688 23.897 32.5688 23.069V6.42057L18.5471 15.6875V18.4146H14.0217V15.7787L0 6.43519Z" fill="#515151"/>
<path d="M14.6188 15.3639H18.0431V17.9032H14.6188V15.3639ZM14.0215 15.2109V18.415H18.5469V14.9218H14.0215V15.2109Z" fill="white"/>
<path d="M14.6191 17.9033H18.0434V15.3641H14.6191V17.9033Z" fill="#F4A72A"/>
</svg>
