<svg width="18" height="14" viewBox="0 0 18 14" fill="none" xmlns="http://www.w3.org/2000/svg">
<mask id="path-1-inside-1_1963_126053" fill="white">
<path d="M12.1344 3.06348V1.38937C12.1338 0.976783 11.7966 0.643146 11.3796 0.642553H6.38701C5.97061 0.643146 5.63341 0.976783 5.63281 1.38937V3.06348H6.64861V1.64819H11.1186V3.06348H12.1344Z"/>
</mask>
<path d="M12.1344 1.38937L13.1344 1.38792V1.38937H12.1344ZM11.3796 0.642553V-0.357448L11.381 -0.357446L11.3796 0.642553ZM6.38701 0.642553L6.38558 -0.357447H6.38701V0.642553ZM5.63281 1.38937H4.63281L4.63281 1.38792L5.63281 1.38937ZM5.63281 3.06348V4.06348H4.63281V3.06348H5.63281ZM6.64861 3.06348H7.64861V4.06348H6.64861V3.06348ZM6.64861 1.64819H5.64861V0.648193H6.64861V1.64819ZM11.1186 1.64819V0.648193H12.1186V1.64819H11.1186ZM11.1186 3.06348V4.06348H10.1186V3.06348H11.1186ZM11.1344 3.06348V1.38937H13.1344V3.06348H11.1344ZM11.1344 1.39082C11.1346 1.53935 11.254 1.64237 11.3782 1.64255L11.381 -0.357446C12.3392 -0.356082 13.133 0.41422 13.1344 1.38792L11.1344 1.39082ZM11.3796 1.64255H6.38701V-0.357447H11.3796V1.64255ZM6.38844 1.64255C6.51371 1.64237 6.6326 1.53883 6.63281 1.39082L4.63281 1.38792C4.63423 0.414735 5.42751 -0.356081 6.38558 -0.357446L6.38844 1.64255ZM6.63281 1.38937V3.06348H4.63281V1.38937H6.63281ZM5.63281 2.06348H6.64861V4.06348H5.63281V2.06348ZM5.64861 3.06348V1.64819H7.64861V3.06348H5.64861ZM6.64861 0.648193H11.1186V2.64819H6.64861V0.648193ZM12.1186 1.64819V3.06348H10.1186V1.64819H12.1186ZM11.1186 2.06348H12.1344V4.06348H11.1186V2.06348Z" fill="white" mask="url(#path-1-inside-1_1963_126053)"/>
<mask id="path-3-inside-2_1963_126053" fill="white">
<path d="M17.7504 3.73927C17.694 3.35814 17.3652 3.0637 16.9638 3.0637H12.1302H11.1144H9.16862H8.77561H6.64441H5.62862H0.795613C0.391213 3.0637 0.0612125 3.36171 0.0078125 3.7464L7.64522 8.66895V8.51639H10.1136V8.62144L17.7504 3.73927Z"/>
</mask>
<path d="M0.0078125 3.7464L-0.533941 4.58694L-1.07045 4.24114L-0.98269 3.6089L0.0078125 3.7464ZM7.64522 8.66895H8.64522V10.5032L7.10346 9.50948L7.64522 8.66895ZM7.64522 8.51639H6.64522V7.51639H7.64522V8.51639ZM10.1136 8.51639V7.51639H11.1136V8.51639H10.1136ZM10.1136 8.62144L10.6522 9.46398L9.11362 10.4476V8.62144H10.1136ZM16.7612 3.88566C16.7764 3.98822 16.8627 4.0637 16.9638 4.0637V2.0637C17.8677 2.0637 18.6117 2.72807 18.7396 3.59288L16.7612 3.88566ZM16.9638 4.0637H12.1302V2.0637H16.9638V4.0637ZM12.1302 4.0637H11.1144V2.0637H12.1302V4.0637ZM11.1144 4.0637H9.16862V2.0637H11.1144V4.0637ZM9.16862 4.0637H8.77561V2.0637H9.16862V4.0637ZM8.77561 4.0637H6.64441V2.0637H8.77561V4.0637ZM6.64441 4.0637H5.62862V2.0637H6.64441V4.0637ZM5.62862 4.0637H0.795613V2.0637H5.62862V4.0637ZM0.795613 4.0637C0.896954 4.0637 0.983992 3.98707 0.998315 3.88389L-0.98269 3.6089C-0.861567 2.73635 -0.114528 2.0637 0.795613 2.0637V4.0637ZM0.549566 2.90586L8.18697 7.82841L7.10346 9.50948L-0.533941 4.58694L0.549566 2.90586ZM6.64522 8.66895V8.51639H8.64522V8.66895H6.64522ZM7.64522 7.51639H10.1136V9.51639H7.64522V7.51639ZM11.1136 8.51639V8.62144H9.11362V8.51639H11.1136ZM9.57498 7.77889L17.2118 2.89673L18.2891 4.58181L10.6522 9.46398L9.57498 7.77889Z" fill="white" mask="url(#path-3-inside-2_1963_126053)"/>
<mask id="path-5-inside-3_1963_126053" fill="white">
<path d="M0 4.03818V12.8153C0 13.2522 0.357596 13.6055 0.798596 13.6055H16.9668C17.4078 13.6055 17.7648 13.2522 17.7648 12.8153V4.03047L10.1166 8.92035V10.3594H7.6482V8.96844L0 4.03818Z"/>
</mask>
<path d="M17.7648 4.03047L17.2261 3.18795L18.7648 2.20421V4.03047H17.7648ZM10.1166 8.92035H9.1166V8.37279L9.57793 8.07783L10.1166 8.92035ZM10.1166 10.3594H11.1166V11.3594H10.1166V10.3594ZM7.6482 10.3594V11.3594H6.6482V10.3594H7.6482ZM7.6482 8.96844L8.19001 8.12794L8.6482 8.4233V8.96844H7.6482ZM1 4.03818V12.8153H-1V4.03818H1ZM1 12.8153C1 12.6895 0.899345 12.6055 0.798596 12.6055V14.6055C-0.184152 14.6055 -1 13.815 -1 12.8153H1ZM0.798596 12.6055H16.9668V14.6055H0.798596V12.6055ZM16.9668 12.6055C16.8651 12.6055 16.7648 12.6904 16.7648 12.8153H18.7648C18.7648 13.814 17.9505 14.6055 16.9668 14.6055V12.6055ZM16.7648 12.8153V4.03047H18.7648V12.8153H16.7648ZM18.3035 4.87299L10.6553 9.76287L9.57793 8.07783L17.2261 3.18795L18.3035 4.87299ZM11.1166 8.92035V10.3594H9.1166V8.92035H11.1166ZM10.1166 11.3594H7.6482V9.35938H10.1166V11.3594ZM6.6482 10.3594V8.96844H8.6482V10.3594H6.6482ZM7.10639 9.80894L-0.541812 4.87868L0.541812 3.19768L8.19001 8.12794L7.10639 9.80894Z" fill="white" mask="url(#path-5-inside-3_1963_126053)"/>
</svg>
