<svg width="24" height="22" viewBox="0 0 24 22" fill="none" xmlns="http://www.w3.org/2000/svg">
<mask id="path-1-inside-1_2016_114465" fill="white">
<path d="M16.3915 4.08203V1.27265C16.3907 0.580276 15.9411 0.0203891 15.3851 0.019393H8.72825C8.17305 0.0203891 7.72346 0.580276 7.72266 1.27265V4.08203H9.07705V1.70699H15.0371V4.08203H16.3915Z"/>
</mask>
<path d="M16.3915 1.27265L17.3915 1.2715V1.27265H16.3915ZM15.3851 0.019393V-0.980609L15.3869 -0.980606L15.3851 0.019393ZM8.72825 0.019393L8.72646 -0.980607H8.72825V0.019393ZM7.72266 1.27265H6.72266L6.72266 1.2715L7.72266 1.27265ZM7.72266 4.08203V5.08203H6.72266V4.08203H7.72266ZM9.07705 4.08203H10.0771V5.08203H9.07705V4.08203ZM9.07705 1.70699H8.07705V0.706995H9.07705V1.70699ZM15.0371 1.70699V0.706995H16.0371V1.70699H15.0371ZM15.0371 4.08203V5.08203H14.0371V4.08203H15.0371ZM15.3915 4.08203V1.27265H17.3915V4.08203H15.3915ZM15.3915 1.27381C15.3913 1.1389 15.3467 1.05019 15.3167 1.01289C15.2884 0.977633 15.306 1.01925 15.3833 1.01939L15.3869 -0.980606C16.6868 -0.978276 17.3903 0.24298 17.3915 1.2715L15.3915 1.27381ZM15.3851 1.01939H8.72825V-0.980607H15.3851V1.01939ZM8.73005 1.01939C8.80818 1.01925 8.82589 0.977224 8.79744 1.01268C8.76743 1.05007 8.72281 1.13889 8.72266 1.27381L6.72266 1.2715C6.72384 0.243536 7.4269 -0.978274 8.72646 -0.980606L8.73005 1.01939ZM8.72266 1.27265V4.08203H6.72266V1.27265H8.72266ZM7.72266 3.08203H9.07705V5.08203H7.72266V3.08203ZM8.07705 4.08203V1.70699H10.0771V4.08203H8.07705ZM9.07705 0.706995H15.0371V2.70699H9.07705V0.706995ZM16.0371 1.70699V4.08203H14.0371V1.70699H16.0371ZM15.0371 3.08203H16.3915V5.08203H15.0371V3.08203Z" fill="#F4A72A" mask="url(#path-1-inside-1_2016_114465)"/>
<mask id="path-3-inside-2_2016_114465" fill="white">
<path d="M23.8834 5.21561C23.8082 4.57604 23.3698 4.08192 22.8346 4.08192H16.3898H15.0354H12.441H11.917H9.07536H7.72096H1.27696C0.737763 4.08192 0.297762 4.58202 0.226562 5.22758L10.4098 13.4883V13.2323H13.701V13.4086L23.8834 5.21561Z"/>
</mask>
<path d="M0.226562 5.22758L-0.403426 6.00418L-0.827237 5.66038L-0.76741 5.11795L0.226562 5.22758ZM10.4098 13.4883H11.4098V15.5871L9.77977 14.2649L10.4098 13.4883ZM10.4098 13.2323H9.40976V12.2323H10.4098V13.2323ZM13.701 13.2323V12.2323H14.701V13.2323H13.701ZM13.701 13.4086L14.3278 14.1877L12.701 15.4967V13.4086H13.701ZM22.8902 5.33239C22.8748 5.20121 22.8252 5.11845 22.7932 5.08343C22.7646 5.05215 22.7769 5.08192 22.8346 5.08192V3.08192C24.0507 3.08192 24.7649 4.14961 24.8765 5.09884L22.8902 5.33239ZM22.8346 5.08192H16.3898V3.08192H22.8346V5.08192ZM16.3898 5.08192H15.0354V3.08192H16.3898V5.08192ZM15.0354 5.08192H12.441V3.08192H15.0354V5.08192ZM12.441 5.08192H11.917V3.08192H12.441V5.08192ZM11.917 5.08192H9.07536V3.08192H11.917V5.08192ZM9.07536 5.08192H7.72096V3.08192H9.07536V5.08192ZM7.72096 5.08192H1.27696V3.08192H7.72096V5.08192ZM1.27696 5.08192C1.3344 5.08192 1.34639 5.052 1.31749 5.08392C1.2851 5.11969 1.23523 5.20398 1.22054 5.33721L-0.76741 5.11795C-0.661964 4.16189 0.0522055 3.08192 1.27696 3.08192V5.08192ZM0.856551 4.45097L11.0398 12.7117L9.77977 14.2649L-0.403426 6.00418L0.856551 4.45097ZM9.40976 13.4883V13.2323H11.4098V13.4883H9.40976ZM10.4098 12.2323H13.701V14.2323H10.4098V12.2323ZM14.701 13.2323V13.4086H12.701V13.2323H14.701ZM13.0741 12.6294L23.2565 4.4365L24.5102 5.99472L14.3278 14.1877L13.0741 12.6294Z" fill="#515151" mask="url(#path-3-inside-2_2016_114465)"/>
<mask id="path-5-inside-3_2016_114465" fill="white">
<path d="M0.210938 5.71824V20.4475C0.210938 21.1807 0.687732 21.7734 1.27573 21.7734H22.8333C23.4213 21.7734 23.8973 21.1807 23.8973 20.4475V5.7053L13.6997 13.9112V16.3261H10.4085V13.9919L0.210938 5.71824Z"/>
</mask>
<path d="M23.8973 5.7053L23.2704 4.92622L24.8973 3.61705V5.7053H23.8973ZM13.6997 13.9112H12.6997V13.4323L13.0728 13.1321L13.6997 13.9112ZM13.6997 16.3261H14.6997V17.3261H13.6997V16.3261ZM10.4085 16.3261V17.3261H9.40853V16.3261H10.4085ZM10.4085 13.9919L11.0386 13.2153L11.4085 13.5155V13.9919H10.4085ZM1.21094 5.71824V20.4475H-0.789062V5.71824H1.21094ZM1.21094 20.4475C1.21094 20.6021 1.26199 20.7088 1.30239 20.7591C1.34125 20.8074 1.33789 20.7734 1.27573 20.7734V22.7734C-0.0577612 22.7734 -0.789062 21.5176 -0.789062 20.4475H1.21094ZM1.27573 20.7734H22.8333V22.7734H1.27573V20.7734ZM22.8333 20.7734C22.771 20.7734 22.7673 20.8076 22.806 20.7595C22.8462 20.7093 22.8973 20.6025 22.8973 20.4475H24.8973C24.8973 21.5165 24.1677 22.7734 22.8333 22.7734V20.7734ZM22.8973 20.4475V5.7053H24.8973V20.4475H22.8973ZM24.5243 6.48438L14.3267 14.6903L13.0728 13.1321L23.2704 4.92622L24.5243 6.48438ZM14.6997 13.9112V16.3261H12.6997V13.9112H14.6997ZM13.6997 17.3261H10.4085V15.3261H13.6997V17.3261ZM9.40853 16.3261V13.9919H11.4085V16.3261H9.40853ZM9.77849 14.7684L-0.419109 6.4948L0.840984 4.94168L11.0386 13.2153L9.77849 14.7684Z" fill="#515151" mask="url(#path-5-inside-3_2016_114465)"/>
<path d="M10.8438 15.8711H13.3341V13.6226H10.8438V15.8711Z" fill="#F4A72A"/>
</svg>
