<svg width="24" height="28" viewBox="0 0 24 28" fill="none" xmlns="http://www.w3.org/2000/svg">
<g clip-path="url(#clip0_1878_106164)">
<path d="M11.0667 27.0667L8 24H2.66667C1.93333 24 1.30533 23.7391 0.782667 23.2173C0.260889 22.6947 0 22.0667 0 21.3333V2.66667C0 1.93333 0.260889 1.30533 0.782667 0.782667C1.30533 0.260889 1.93333 0 2.66667 0H21.3333C22.0667 0 22.6947 0.260889 23.2173 0.782667C23.7391 1.30533 24 1.93333 24 2.66667V21.3333C24 22.0667 23.7391 22.6947 23.2173 23.2173C22.6947 23.7391 22.0667 24 21.3333 24H16L12.9333 27.0667C12.6889 27.3111 12.3778 27.4333 12 27.4333C11.6222 27.4333 11.3111 27.3111 11.0667 27.0667ZM11.9333 19.7333C12.4 19.7333 12.7947 19.5724 13.1173 19.2507C13.4391 18.928 13.6 18.5333 13.6 18.0667C13.6 17.6 13.4391 17.2053 13.1173 16.8827C12.7947 16.5609 12.4 16.4 11.9333 16.4C11.4667 16.4 11.072 16.5609 10.7493 16.8827C10.4276 17.2053 10.2667 17.6 10.2667 18.0667C10.2667 18.5333 10.4276 18.928 10.7493 19.2507C11.072 19.5724 11.4667 19.7333 11.9333 19.7333ZM13.2667 13.4667C13.3333 13.1111 13.4502 12.8 13.6173 12.5333C13.7836 12.2667 14.1111 11.8889 14.6 11.4C15.4222 10.5778 15.9778 9.91111 16.2667 9.4C16.5556 8.88889 16.7 8.31111 16.7 7.66667C16.7 6.53333 16.2836 5.59422 15.4507 4.84933C14.6169 4.10533 13.5667 3.73333 12.3 3.73333C11.3444 3.73333 10.4942 3.92756 9.74933 4.316C9.00533 4.70533 8.43333 5.22222 8.03333 5.86667C7.83333 6.17778 7.77778 6.50533 7.86667 6.84933C7.95556 7.19422 8.15556 7.43333 8.46667 7.56667C8.77778 7.7 9.08356 7.70578 9.384 7.584C9.68356 7.46133 9.92222 7.25556 10.1 6.96667C10.3222 6.65556 10.6222 6.41689 11 6.25067C11.3778 6.08356 11.7667 6 12.1667 6C12.7889 6 13.2889 6.16667 13.6667 6.5C14.0444 6.83333 14.2333 7.25556 14.2333 7.76667C14.2333 8.18889 14.1058 8.61111 13.8507 9.03333C13.5947 9.45555 13.2 9.9 12.6667 10.3667C12.0889 10.8778 11.6444 11.4 11.3333 11.9333C11.0222 12.4667 10.8667 12.9667 10.8667 13.4333C10.8667 13.7444 10.9836 14.0111 11.2173 14.2333C11.4502 14.4556 11.7333 14.5667 12.0667 14.5667C12.3778 14.5667 12.6387 14.4613 12.8493 14.2507C13.0609 14.0391 13.2 13.7778 13.2667 13.4667Z" fill="white"/>
</g>
<defs>
<clipPath id="clip0_1878_106164">
<rect width="24" height="28" fill="white"/>
</clipPath>
</defs>
</svg>
