<svg width="18" height="18" viewBox="0 0 18 18" fill="none" xmlns="http://www.w3.org/2000/svg">
<g clip-path="url(#clip0_1879_118348)">
<path d="M6.0525 7.4583L5.57167 7.59542C5.58518 7.64281 5.58669 7.69412 5.56307 7.76321C5.47606 7.97486 5.4164 8.18946 5.3884 8.40613C5.36249 8.60276 5.35 8.80842 5.35 9.0225C5.35 9.48142 5.4428 9.9347 5.62205 10.3794L5.6223 10.38C5.80547 10.8327 6.07195 11.2341 6.41895 11.5811C6.78174 11.9439 7.19781 12.2166 7.66529 12.3928C8.12383 12.566 8.59843 12.6446 9.08535 12.6272L10.2333 12.5862L9.42105 11.7739L8.92605 11.2789C8.87851 11.2314 8.87 11.1987 8.87 11.16C8.87 11.1213 8.87851 11.0886 8.92605 11.0411C8.96866 10.9984 8.99316 10.9942 9.02425 10.9954C9.08516 10.9982 9.13116 11.0156 9.17752 11.0545L10.9024 12.7575L9.16621 14.4717L9.1662 14.4717L9.16395 14.4739C9.1164 14.5215 9.08372 14.53 9.045 14.53C9.00628 14.53 8.9736 14.5215 8.92605 14.4739C8.87851 14.4264 8.87 14.3937 8.87 14.355C8.87 14.3163 8.87851 14.2836 8.92605 14.2361L9.30855 13.8536L10.1313 13.0308L8.96815 13.0002C8.45904 12.9868 7.96284 12.8833 7.47703 12.688C7.00286 12.4968 6.57125 12.2091 6.18105 11.8189C5.79206 11.43 5.50003 10.9909 5.30087 10.4996C5.09882 10.0013 5 9.50238 5 9C5 8.72072 5.01731 8.46314 5.05078 8.22649C5.08136 8.01482 5.14604 7.79314 5.24941 7.56057L5.24953 7.56063L5.25404 7.54981C5.26598 7.52114 5.27903 7.49813 5.35015 7.47696C5.40701 7.46013 5.44529 7.46362 5.50515 7.50352C5.54066 7.5272 5.55916 7.55171 5.57181 7.5959L6.0525 7.4583ZM6.0525 7.4583C6.0075 7.3011 5.9175 7.1775 5.7825 7.0875C5.6025 6.9675 5.4111 6.9375 5.2083 6.9975L5.8842 8.4708C5.9064 8.2986 5.955 8.1225 6.03 7.9425C6.09 7.7775 6.0975 7.6161 6.0525 7.4583ZM12.5369 10.5248L12.5297 10.5215L12.5223 10.5185C12.4606 10.4927 12.4403 10.4659 12.4252 10.4271L12.4244 10.4251C12.4103 10.3892 12.3989 10.3294 12.4353 10.2192C12.5254 10.0153 12.5847 9.80185 12.6127 9.58033L12.6129 9.5787C12.6376 9.37855 12.65 9.17811 12.65 8.9775C12.65 8.51858 12.5572 8.0653 12.3779 7.62058L12.3777 7.61996C12.1945 7.16728 11.9281 6.76594 11.5811 6.41895C11.2278 6.06567 10.8062 5.79914 10.3234 5.61774L10.3228 5.61753C9.85271 5.44159 9.38094 5.35 8.91 5.35H7.70289L8.55645 6.20355L9.07395 6.72105C9.12149 6.7686 9.13 6.80127 9.13 6.84C9.13 6.87872 9.12149 6.9114 9.07395 6.95895C9.03138 7.00152 9.00751 7.00511 8.97665 7.00377L8.97498 7.0037C8.91422 7.00127 8.86863 6.9842 8.82247 6.94552L7.09761 5.2425L8.83379 3.5283L8.8338 3.52831L8.83605 3.52605C8.8836 3.47851 8.91628 3.47 8.955 3.47C8.99372 3.47 9.0264 3.47851 9.07395 3.52605L9.4275 3.1725L9.07395 3.52605C9.12594 3.57804 9.13996 3.61908 9.14213 3.66579C9.14329 3.69686 9.13904 3.72135 9.09645 3.76395L8.69145 4.16895L7.83789 5.0225H9.045C9.55196 5.0225 10.0502 5.1156 10.5426 5.30431C11.0211 5.48795 11.4535 5.7706 11.8414 6.15855C12.2283 6.54536 12.5157 6.98531 12.7079 7.48125C12.9041 7.98986 13 8.49523 13 9C13 9.25856 12.9796 9.51322 12.9389 9.76425C12.9012 9.99685 12.8315 10.2292 12.7281 10.4619L12.721 10.4778L12.7151 10.4941C12.7116 10.5037 12.7087 10.5088 12.7073 10.511C12.7067 10.512 12.7061 10.5127 12.7058 10.5132C12.7054 10.5137 12.7051 10.5139 12.705 10.514C12.7046 10.5144 12.7029 10.516 12.6986 10.5186C12.6942 10.5212 12.686 10.5255 12.6727 10.5302C12.6199 10.5485 12.5839 10.5462 12.5369 10.5248ZM5.6882 16.8318L5.68799 16.8317C4.64863 16.3835 3.74951 15.7774 2.98605 15.0139C2.22259 14.2505 1.61653 13.3514 1.16833 12.312L1.16824 12.3118C0.723644 11.2821 0.5 10.1799 0.5 9C0.5 7.82012 0.723644 6.71788 1.16824 5.6882L1.16833 5.68799C1.61653 4.64863 2.22259 3.74951 2.98605 2.98605C3.74956 2.22254 4.64876 1.61615 5.6882 1.16734C6.71787 0.723347 7.82011 0.5 9 0.5C10.18 0.5 11.2823 0.723378 12.312 1.16743C13.3514 1.61623 14.2505 2.2226 15.0139 2.98605C15.7774 3.74951 16.3835 4.64863 16.8317 5.68799L16.8318 5.6882C17.2764 6.71788 17.5 7.82012 17.5 9C17.5 10.1799 17.2764 11.2821 16.8318 12.3118L16.8317 12.312C16.3835 13.3514 15.7774 14.2505 15.0139 15.0139C14.2505 15.7774 13.3514 16.3835 12.312 16.8317L12.3118 16.8318C11.2821 17.2764 10.1799 17.5 9 17.5C7.82012 17.5 6.71788 17.2764 5.6882 16.8318ZM14.4502 14.4503L14.4503 14.4502C15.9469 12.953 16.7 11.1267 16.7 9C16.7 6.8733 15.9469 5.047 14.4503 3.54982L14.4502 3.54967C12.953 2.05314 11.1267 1.3 9 1.3C6.87329 1.3 5.04725 2.05314 3.55065 3.54975C2.05349 5.04691 1.3 6.87323 1.3 9C1.3 11.1268 2.05349 12.9531 3.55065 14.4503C5.04725 15.9469 6.87329 16.7 9 16.7C11.1267 16.7 12.953 15.9469 14.4502 14.4503Z" stroke="#515151"/>
</g>
<defs>
<clipPath id="clip0_1879_118348">
<rect width="18" height="18" fill="white"/>
</clipPath>
</defs>
</svg>
