<svg width="24" height="24" viewBox="0 0 24 24" fill="none" xmlns="http://www.w3.org/2000/svg">
<circle cx="12" cy="12" r="12" fill="#EB5757"/>
<path d="M16.4587 6.54125C16.2886 6.36975 16.0863 6.23362 15.8633 6.14072C15.6403 6.04783 15.4011 6 15.1596 6C14.918 6 14.6789 6.04783 14.4559 6.14072C14.2329 6.23362 14.0305 6.36975 13.8604 6.54125L11.5 8.91999L9.13956 6.54125C8.795 6.19669 8.32768 6.00312 7.84041 6.00312C7.35313 6.00312 6.88581 6.19669 6.54125 6.54125C6.19669 6.88581 6.00312 7.35313 6.00312 7.84041C6.00312 8.32768 6.19669 8.795 6.54125 9.13956L8.91999 11.5L6.54125 13.8604C6.36975 14.0305 6.23362 14.2329 6.14072 14.4559C6.04783 14.6789 6 14.918 6 15.1596C6 15.4011 6.04783 15.6403 6.14072 15.8633C6.23362 16.0863 6.36975 16.2886 6.54125 16.4587C6.71135 16.6303 6.91373 16.7664 7.13671 16.8593C7.35969 16.9522 7.59885 17 7.84041 17C8.08196 17 8.32113 16.9522 8.5441 16.8593C8.76708 16.7664 8.96946 16.6303 9.13956 16.4587L11.5 14.08L13.8604 16.4587C14.0305 16.6303 14.2329 16.7664 14.4559 16.8593C14.6789 16.9522 14.918 17 15.1596 17C15.4011 17 15.6403 16.9522 15.8633 16.8593C16.0863 16.7664 16.2886 16.6303 16.4587 16.4587C16.6303 16.2886 16.7664 16.0863 16.8593 15.8633C16.9522 15.6403 17 15.4011 17 15.1596C17 14.918 16.9522 14.6789 16.8593 14.4559C16.7664 14.2329 16.6303 14.0305 16.4587 13.8604L14.08 11.5L16.4587 9.13956C16.6303 8.96946 16.7664 8.76708 16.8593 8.5441C16.9522 8.32113 17 8.08196 17 7.84041C17 7.59885 16.9522 7.35969 16.8593 7.13671C16.7664 6.91373 16.6303 6.71135 16.4587 6.54125Z" fill="white"/>
</svg>
