<svg width="29" height="24" viewBox="0 0 29 24" fill="none" xmlns="http://www.w3.org/2000/svg">
<path d="M11.7994 0.0516281C11.1884 0.175568 10.5773 0.721325 10.402 1.30436C10.3598 1.44708 10.3234 1.75102 10.3293 1.98042L10.3352 2.40223L8.46574 3.54951C7.4432 4.18193 6.57822 4.69678 6.54807 4.69678C6.51792 4.69678 6.42716 4.6286 6.35444 4.54799C6.14869 4.32466 5.65265 4.12617 5.26539 4.12011C4.5092 4.10163 3.91619 4.46133 3.57742 5.13102C3.38379 5.5092 3.37167 5.56527 3.39591 6.03011C3.42015 6.6192 3.58333 7.00375 3.94635 7.34496C4.5633 7.91557 5.51932 8.00223 6.17264 7.53708L6.33611 7.42557L6.71716 7.72951C6.92882 7.89072 7.41896 8.26284 7.80622 8.56042L8.51392 9.09375L8.78618 8.73405L9.05845 8.37436L7.9756 7.54345C6.89867 6.72496 6.88655 6.7186 6.93503 6.52648C6.95927 6.42739 6.98351 6.15436 6.98351 5.93102V5.52799L8.88315 4.35587C10.4499 3.39466 10.8008 3.20254 10.8794 3.26436C11.4056 3.65496 11.8414 3.79769 12.3194 3.74193C13.7168 3.57436 14.4248 1.95587 13.608 0.802537C13.1906 0.212839 12.477 -0.0850391 11.7994 0.0516281Z" fill="white"/>
<path d="M18.0246 4.93849C17.4801 5.11213 17.0869 5.47182 16.8448 6.01758C16.7118 6.31516 16.6876 6.44546 16.7056 6.81152L16.7236 7.25182L15.6165 7.93394C14.8846 8.38667 14.5275 8.63485 14.5579 8.68425C14.5822 8.72758 14.6851 8.90122 14.7879 9.07485L14.9754 9.39728L16.0824 8.71516L17.1898 8.03303L17.3533 8.19425C17.8555 8.68425 18.9322 8.73364 19.5311 8.2997L19.7005 8.17576L22.568 10.0858C24.8608 11.6112 25.4295 12.0145 25.4174 12.1136C25.3267 12.8145 25.4295 13.3415 25.7562 13.7818C26.0891 14.2221 26.5186 14.4455 27.0992 14.4827C27.5045 14.5076 27.6133 14.4891 27.8976 14.3588C28.3514 14.1479 28.6358 13.8688 28.8353 13.4533C28.9746 13.1618 29.0047 13.0191 28.9988 12.6349C28.9988 12.083 28.8415 11.6921 28.4723 11.3139C27.8855 10.7124 26.845 10.607 26.2038 11.0845L25.9679 11.2582L23.1004 9.34819C20.4806 7.60546 20.2329 7.42576 20.2631 7.29546C20.2811 7.21485 20.2932 6.93576 20.2932 6.68152C20.2932 6.28455 20.2631 6.16667 20.1117 5.88152C19.8879 5.47213 19.555 5.16819 19.1317 5.00697C18.8051 4.88273 18.309 4.85182 18.0246 4.93849Z" fill="white"/>
<path d="M11.1338 8.17582C9.73641 8.45492 8.71979 9.92461 8.93766 11.351C9.12508 12.5913 10.0447 13.5401 11.2426 13.751C13.0577 14.061 14.6972 12.3804 14.3944 10.5201C14.1346 8.93855 12.6524 7.87189 11.1338 8.17582Z" fill="white"/>
<path d="M5.67713 11.965L3.52327 12.5232L3.13601 12.1262C2.82738 11.8099 2.67632 11.7044 2.39194 11.6178C1.46636 11.3202 0.413673 11.8411 0.111257 12.7402C-0.0158586 13.1123 0.00838202 13.7944 0.159738 14.1293C0.462154 14.8178 1.00668 15.1899 1.76287 15.2272C2.15604 15.2459 2.27724 15.2272 2.54921 15.1032C2.72451 15.0166 2.9545 14.8738 3.06358 14.7808C3.28736 14.5884 3.62614 13.9311 3.62614 13.6956C3.62614 13.6087 3.65038 13.5035 3.67462 13.4662C3.69886 13.429 4.73322 13.1375 5.97363 12.8214C8.1275 12.2756 8.23007 12.2384 8.19992 12.1144C8.17568 12.0399 8.13341 11.8538 8.09705 11.6865C8.04857 11.4756 8.00629 11.395 7.93387 11.4014C7.87918 11.4008 6.86285 11.655 5.67713 11.965Z" fill="white"/>
<path d="M14.7275 12.951C14.6066 13.1555 14.528 13.348 14.5522 13.3728C14.5824 13.4037 15.5204 14.0301 16.6396 14.7743L18.6723 16.1201L18.6179 16.3743C18.4848 16.9574 18.7027 17.658 19.1562 18.1046C20.0212 18.9604 21.4791 18.7125 22.0177 17.6146C22.2114 17.224 22.2536 16.5543 22.1144 16.1201C21.9752 15.7046 21.6062 15.2828 21.1888 15.0719C20.9045 14.9355 20.7593 14.9046 20.4146 14.9046C19.9851 14.9046 19.5254 15.0598 19.2895 15.2768C19.1925 15.3634 19.011 15.2519 17.1356 14.0116C16.0105 13.2674 15.0607 12.641 15.0243 12.6162C14.9815 12.5913 14.8606 12.7277 14.7275 12.951Z" fill="white"/>
<path d="M9.71212 14.8177C9.59712 15.134 9.08896 16.4798 8.59291 17.8128L7.69158 20.2316L7.32856 20.2749C6.80236 20.3371 6.39087 20.5416 6.08224 20.8889C5.75559 21.261 5.62256 21.6392 5.62256 22.185C5.62256 22.5198 5.65892 22.6686 5.80998 22.9789C6.02164 23.4131 6.23951 23.6301 6.7054 23.8471C6.98358 23.9774 7.08645 23.9959 7.52219 23.971C7.82461 23.9525 8.09096 23.9028 8.21186 23.8346C8.53852 23.661 8.88942 23.3013 9.05881 22.9665C9.19183 22.6998 9.22228 22.5695 9.22228 22.154C9.22228 21.5774 9.09517 21.2362 8.75048 20.858C8.62336 20.7277 8.5267 20.5977 8.5267 20.5789C8.5267 20.5601 9.02895 19.2022 9.63999 17.5649L10.7471 14.5943L10.3477 14.4207C10.1298 14.3277 9.94832 14.2471 9.9424 14.2471C9.9359 14.2471 9.83303 14.5077 9.71212 14.8177Z" fill="white"/>
</svg>
