<svg width="17" height="18" viewBox="0 0 17 18" fill="none" xmlns="http://www.w3.org/2000/svg">
<path d="M4.2501 10.2855V9.42836C4.2501 8.97371 4.07099 8.53767 3.75218 8.21618C3.43337 7.89469 3.00097 7.71408 2.5501 7.71408C2.09923 7.71408 1.66683 7.53346 1.34802 7.21197C1.0292 6.89048 0.850098 6.45445 0.850098 5.99979V2.57122C0.850098 2.11656 1.0292 1.68053 1.34802 1.35904C1.66683 1.03755 2.09923 0.856934 2.5501 0.856934H8.5001C8.95097 0.856934 9.38337 1.03755 9.70218 1.35904C10.021 1.68053 10.2001 2.11656 10.2001 2.57122V5.14265M8.5001 7.71408H14.4501C14.901 7.71408 15.3334 7.89469 15.6522 8.21618C15.971 8.53767 16.1501 8.97371 16.1501 9.42836V12.8569C16.1501 13.3116 15.971 13.7476 15.6522 14.0691C15.3334 14.3906 14.901 14.5712 14.4501 14.5712H13.9061C13.5995 14.5712 13.3055 14.694 13.0887 14.9126C12.8719 15.1313 12.7501 15.4278 12.7501 15.7369C12.7498 15.852 12.7158 15.9644 12.6522 16.06C12.5887 16.1556 12.4985 16.2301 12.3931 16.2741C12.2877 16.3181 12.1717 16.3296 12.0597 16.3072C11.9478 16.2849 11.8449 16.2296 11.7641 16.1484L10.6982 15.0735C10.3795 14.752 9.94713 14.5713 9.4963 14.5712H8.5001C8.04923 14.5712 7.61683 14.3906 7.29802 14.0691C6.9792 13.7476 6.8001 13.3116 6.8001 12.8569V9.42836C6.8001 8.97371 6.9792 8.53767 7.29802 8.21618C7.61683 7.89469 8.04923 7.71408 8.5001 7.71408Z" stroke="white" stroke-linecap="round" stroke-linejoin="round"/>
</svg>
