<svg width="15" height="14" viewBox="0 0 15 14" fill="none" xmlns="http://www.w3.org/2000/svg">
<path d="M14.5 7C14.5 10.5579 11.399 13.5 7.5 13.5C3.60096 13.5 0.5 10.5579 0.5 7C0.5 3.44208 3.60096 0.5 7.5 0.5C11.399 0.5 14.5 3.44208 14.5 7Z" stroke="white"/>
<path d="M9.85355 7.35355C10.0488 7.15829 10.0488 6.84171 9.85355 6.64645L6.67157 3.46447C6.47631 3.2692 6.15973 3.2692 5.96447 3.46447C5.7692 3.65973 5.7692 3.97631 5.96447 4.17157L8.79289 7L5.96447 9.82843C5.7692 10.0237 5.7692 10.3403 5.96447 10.5355C6.15973 10.7308 6.47631 10.7308 6.67157 10.5355L9.85355 7.35355ZM9 7.5H9.5V6.5H9V7.5Z" fill="white"/>
</svg>
