<svg width="22" height="22" viewBox="0 0 22 22" fill="none" xmlns="http://www.w3.org/2000/svg">
<path d="M0.733333 2.56641H0V21.6331C0 21.8531 0.146667 21.9997 0.366667 21.9997H12.8333V21.2664H0.733333V2.56641Z" fill="#515151"/>
<path d="M2.19989 0.733333H13.5666V3.66667C13.5666 3.88667 13.7132 4.03333 13.9332 4.03333H16.8666V5.13333H17.5999V3.66667C17.5999 3.63 17.5999 3.59333 17.5632 3.55667V3.52C17.5266 3.48333 17.5266 3.44667 17.4899 3.41L14.1899 0.11C14.1532 0.0733333 14.1166 0.0733333 14.0799 0.0366667H14.0432C14.0066 0.0366667 13.9699 0 13.9332 0H1.83322C1.61322 0 1.46655 0.146667 1.46655 0.366667V20.1667C1.46655 20.3867 1.61322 20.5333 1.83322 20.5333H14.2999V19.8H2.19989V0.733333ZM16.3532 3.3H14.2999V1.24667L16.3532 3.3Z" fill="#515151"/>
<path d="M9.16668 9.90039H8.43335V10.6337H9.16668V9.90039Z" fill="#515151"/>
<path d="M7.69989 9.90039H6.96655V10.6337H7.69989V9.90039Z" fill="#515151"/>
<path d="M6.23333 9.90039H5.5V10.6337H6.23333V9.90039Z" fill="#515151"/>
<path d="M4.76678 9.90039H4.03345V10.6337H4.76678V9.90039Z" fill="#515151"/>
<path d="M10.6332 9.90039H9.8999V10.6337H10.6332V9.90039Z" fill="#515151"/>
<path d="M4.03338 1.83301H3.30005V2.56634H4.03338V1.83301Z" fill="#515151"/>
<path d="M5.49993 1.83301H4.7666V2.56634H5.49993V1.83301Z" fill="#515151"/>
<path d="M5.49993 3.2998H4.7666V4.03314H5.49993V3.2998Z" fill="#515151"/>
<path d="M4.03338 3.2998H3.30005V4.03314H4.03338V3.2998Z" fill="#515151"/>
<path d="M9.16673 1.83301H6.2334V2.56634H9.16673V1.83301Z" fill="#515151"/>
<path d="M9.16673 3.2998H6.2334V4.03314H9.16673V3.2998Z" fill="#515151"/>
<path d="M12.8334 5.86621H3.30005V6.59954H12.8334V5.86621Z" fill="#515151"/>
<path d="M15.7667 7.7002H3.30005V8.43353H15.7667V7.7002Z" fill="#515151"/>
<path d="M15.7667 12.0996H3.30005V12.8329H15.7667V12.0996Z" fill="#515151"/>
<path d="M15.7667 13.9336H3.30005V14.6669H15.7667V13.9336Z" fill="#515151"/>
<path d="M11.3667 15.7666H3.30005V16.4999H11.3667V15.7666Z" fill="#515151"/>
<path d="M12.8334 15.7666H12.1001V16.4999H12.8334V15.7666Z" fill="#515151"/>
<path d="M14.3 15.7666H13.5667V16.4999H14.3V15.7666Z" fill="#515151"/>
<path d="M15.7668 15.7666H15.0334V16.4999H15.7668V15.7666Z" fill="#515151"/>
<path d="M20.5334 12.1001C19.8367 12.1001 19.2867 12.5768 19.1034 13.2001H17.6V10.6335H19.8C20.02 10.6335 20.1667 10.4868 20.1667 10.2668V4.36346C20.79 4.2168 21.2667 3.63013 21.2667 2.93346C21.2667 2.1268 20.6067 1.4668 19.8 1.4668C18.9934 1.4668 18.3334 2.1268 18.3334 2.93346C18.3334 3.63013 18.81 4.18013 19.4334 4.36346V9.90013H11.3667V10.6335H16.8667V17.6368C16.2434 17.7835 15.7667 18.3701 15.7667 19.0668C15.7667 19.8735 16.4267 20.5335 17.2334 20.5335C18.04 20.5335 18.7 19.8735 18.7 19.0668C18.7 18.3701 18.2234 17.8201 17.6 17.6368V13.9335H19.1034C19.25 14.5568 19.8367 15.0335 20.5334 15.0335C21.34 15.0335 22 14.3735 22 13.5668C22 12.7601 21.34 12.1001 20.5334 12.1001ZM19.0667 2.93346C19.0667 2.53013 19.3967 2.20013 19.8 2.20013C20.2034 2.20013 20.5334 2.53013 20.5334 2.93346C20.5334 3.3368 20.2034 3.6668 19.8 3.6668C19.3967 3.6668 19.0667 3.3368 19.0667 2.93346ZM17.9667 19.0668C17.9667 19.4701 17.6367 19.8001 17.2334 19.8001C16.83 19.8001 16.5 19.4701 16.5 19.0668C16.5 18.6635 16.83 18.3335 17.2334 18.3335C17.6367 18.3335 17.9667 18.6635 17.9667 19.0668ZM20.5334 14.3001C20.13 14.3001 19.8 13.9701 19.8 13.5668C19.8 13.1635 20.13 12.8335 20.5334 12.8335C20.9367 12.8335 21.2667 13.1635 21.2667 13.5668C21.2667 13.9701 20.9367 14.3001 20.5334 14.3001Z" fill="#515151"/>
<path d="M7.70005 17.5996H3.30005V18.3329H7.70005V17.5996Z" fill="#515151"/>
</svg>
