<svg width="18" height="18" viewBox="0 0 18 18" fill="none" xmlns="http://www.w3.org/2000/svg">
<g clip-path="url(#clip0_1999_103635)">
<path d="M7.12695 6.91797C8.99091 6.91797 10.502 5.40693 10.502 3.54297C10.502 1.67901 8.99091 0.167969 7.12695 0.167969C5.26299 0.167969 3.75195 1.67901 3.75195 3.54297C3.75195 5.40693 5.26299 6.91797 7.12695 6.91797Z" fill="#515151"/>
<path d="M8.1225 16.7752C7.93661 16.5914 7.81531 16.3522 7.77678 16.0936C7.73824 15.8351 7.78454 15.5709 7.90875 15.3409L8.20687 14.7784L7.59375 14.5927C7.34373 14.5145 7.12606 14.3568 6.97378 14.1436C6.82151 13.9304 6.74294 13.6734 6.75 13.4115V12.2584C6.74953 11.9976 6.83294 11.7437 6.98792 11.534C7.1429 11.3243 7.36122 11.17 7.61062 11.094L8.22375 10.9084L7.93125 10.3459C7.81068 10.1189 7.76481 9.85976 7.80016 9.60524C7.83551 9.35072 7.95028 9.11384 8.12813 8.92837C7.69538 8.87164 7.25956 8.84158 6.82312 8.83836C5.53406 8.80802 4.25417 9.0625 3.07476 9.58366C1.89535 10.1048 0.845467 10.8798 0 11.8534V16.2127C0 16.3619 0.0592632 16.505 0.164752 16.6105C0.270242 16.716 0.413316 16.7752 0.5625 16.7752H8.1225Z" fill="#515151"/>
<path d="M17.831 12.0717L16.706 11.7342C16.6281 11.4564 16.5186 11.1884 16.3798 10.9355L16.9423 9.88922C16.964 9.85039 16.972 9.80534 16.9648 9.76141C16.9577 9.71749 16.9358 9.67728 16.9029 9.64735L16.0873 8.8261C16.0559 8.79553 16.0158 8.77535 15.9725 8.76831C15.9293 8.76126 15.8849 8.76769 15.8454 8.78673L14.8048 9.34923C14.5486 9.21008 14.2792 9.09701 14.0004 9.01173L13.6573 7.88673C13.6422 7.84524 13.6146 7.80946 13.5783 7.78428C13.5421 7.7591 13.4989 7.74576 13.4548 7.7461H12.2848C12.2409 7.74732 12.1985 7.76202 12.1633 7.78818C12.1281 7.81434 12.1017 7.85071 12.0879 7.89235L11.7504 9.01735C11.4663 9.10002 11.1926 9.21516 10.9348 9.36047L9.91665 8.79797C9.87707 8.77694 9.83188 8.76888 9.78746 8.77493C9.74305 8.78099 9.70166 8.80086 9.66915 8.83173L8.84228 9.64172C8.80972 9.6731 8.78827 9.71423 8.78116 9.75888C8.77406 9.80354 8.78169 9.84929 8.8029 9.88922L9.3654 10.913C9.21472 11.167 9.09212 11.4368 8.99978 11.7174L7.87478 12.0605C7.83222 12.0728 7.79488 12.0987 7.76846 12.1343C7.74204 12.1698 7.72802 12.2131 7.72853 12.2574V13.4105C7.72802 13.4548 7.74204 13.498 7.76846 13.5336C7.79488 13.5691 7.83222 13.595 7.87478 13.6074L8.99978 13.9505C9.0841 14.226 9.19723 14.4918 9.33728 14.7436L8.77478 15.8124C8.75357 15.8523 8.74593 15.898 8.75304 15.9427C8.76014 15.9873 8.7816 16.0285 8.81415 16.0598L9.65228 16.8755C9.68478 16.9063 9.72617 16.9262 9.77059 16.9323C9.815 16.9383 9.8602 16.9303 9.89978 16.9092L10.9517 16.3467C11.202 16.4814 11.466 16.5888 11.7392 16.6673L12.0767 17.8205C12.0908 17.863 12.118 17.9 12.1543 17.9263C12.1907 17.9525 12.2343 17.9667 12.2792 17.9667H13.4323C13.4761 17.9655 13.5186 17.9508 13.5538 17.9246C13.589 17.8985 13.6153 17.8621 13.6292 17.8205L13.9667 16.6673C14.2366 16.5898 14.4969 16.4823 14.7429 16.3467L15.806 16.9092C15.8456 16.9303 15.8908 16.9383 15.9352 16.9323C15.9796 16.9262 16.021 16.9063 16.0535 16.8755L16.8748 16.0598C16.9056 16.0273 16.9255 15.986 16.9316 15.9415C16.9376 15.8971 16.9296 15.8519 16.9085 15.8124L16.346 14.7548C16.4806 14.5084 16.5881 14.2482 16.6667 13.9786L17.7917 13.6355C17.8339 13.6219 17.8711 13.5958 17.8982 13.5606C17.9253 13.5255 17.9411 13.4829 17.9435 13.4386V12.2742C17.9449 12.2334 17.9352 12.1931 17.9153 12.1574C17.8955 12.1217 17.8664 12.0921 17.831 12.0717ZM12.8642 14.7267C12.4923 14.7278 12.1285 14.6186 11.8188 14.4128C11.5092 14.2071 11.2675 13.914 11.1244 13.5708C10.9813 13.2277 10.9433 12.8497 11.0152 12.4849C11.0871 12.1201 11.2655 11.7848 11.5281 11.5215C11.7906 11.2582 12.1253 11.0787 12.4899 11.0057C12.8545 10.9328 13.2326 10.9697 13.5762 11.1117C13.9198 11.2537 14.2136 11.4945 14.4203 11.8036C14.6269 12.1127 14.7373 12.4762 14.7373 12.848C14.7373 13.3453 14.5401 13.8223 14.189 14.1745C13.8379 14.5266 13.3615 14.7252 12.8642 14.7267Z" fill="#F4A72A"/>
</g>
<defs>
<clipPath id="clip0_1999_103635">
<rect width="18" height="18" fill="white"/>
</clipPath>
</defs>
</svg>
