<svg width="32" height="38" viewBox="0 0 32 38" fill="none" xmlns="http://www.w3.org/2000/svg">
<g clip-path="url(#clip0_1879_118937)">
<path d="M2.0573 0C10.0186 0 17.9759 0 25.9372 0C26.0186 0.019368 26.1038 0.0426096 26.1852 0.0619776C27.2118 0.309888 27.9517 1.20856 27.975 2.26993C27.9905 3.10275 27.9827 3.93945 27.9827 4.77227C27.9827 4.842 27.9827 4.9156 27.9827 5.00469C28.0796 5.00469 28.1454 5.00469 28.2113 5.00469C28.7304 5.00469 29.2496 5.00082 29.7687 5.00856C30.2336 5.01244 30.6559 5.16351 31.0239 5.44628C31.6902 5.95372 31.9847 6.64322 31.9808 7.47217C31.9769 16.61 31.9808 25.7478 31.9808 34.8895C31.9808 35.1297 31.9847 35.3698 31.9808 35.6139C31.9614 36.958 30.9503 37.9613 29.6098 37.9651C28.7808 37.9651 27.9517 37.9651 27.1266 37.9651C20.5638 37.9651 14.0011 37.969 7.43842 37.9574C7.13624 37.9574 6.81081 37.9109 6.5435 37.7831C5.6021 37.3376 5.11009 36.5435 5.04035 35.5248C4.98612 34.7501 5.02486 33.9676 5.02098 33.189C5.02098 33.1193 5.01324 33.0457 5.00936 32.9605C4.91251 32.9605 4.8389 32.9605 4.76917 32.9605C3.92074 32.9605 3.07619 32.9604 2.22776 32.9566C1.84035 32.9566 1.48394 32.8442 1.15851 32.6389C0.372074 32.1392 0.0195312 31.4071 0.0195312 30.4852C0.0234053 21.1537 0.0195312 11.8261 0.0195312 2.4946C0.0195312 2.40938 0.0195312 2.32029 0.0234053 2.23507C0.0582721 1.22793 0.782728 0.325382 1.75512 0.0735984C1.85585 0.0503568 1.95658 0.0271152 2.0573 0ZM27.9827 6.99959C27.9827 7.10031 27.9827 7.1894 27.9827 7.28237C27.9827 14.9676 27.9827 22.6528 27.9827 30.338C27.9827 30.462 27.9789 30.5859 27.9789 30.7099C27.9634 31.8022 27.1808 32.9798 25.6621 32.9721C19.5333 32.945 13.4045 32.9605 7.27571 32.9605C7.19048 32.9605 7.10912 32.9605 7.01614 32.9605C7.01614 33.9753 7.01614 34.967 7.01614 35.9547C14.714 35.9547 22.3924 35.9547 30.0437 35.9547C30.0244 35.8347 29.9934 35.7262 29.9934 35.6177C29.9895 26.17 29.9934 16.7262 29.9934 7.27849C29.9934 7.1894 29.9934 7.09643 29.9934 6.99959C29.3115 6.99959 28.6607 6.99959 27.9827 6.99959ZM13.6835 11.981C11.0529 11.981 8.41856 11.981 5.78805 11.981C5.6021 11.981 5.41614 11.9888 5.23406 12.012C4.76529 12.0701 4.49798 12.318 4.48249 12.7519C4.47474 12.9378 4.51735 13.1392 4.59483 13.3058C4.81953 13.7939 5.22631 13.9914 5.76094 13.9876C11.0297 13.9837 16.3023 13.9837 21.5711 13.9837C21.6215 13.9837 21.6718 13.9837 21.7183 13.9798C22.2065 13.9604 22.5551 13.7203 22.745 13.2826C22.9735 12.7635 22.9193 12.0779 22.0205 12.0004C21.8617 11.9849 21.699 11.9772 21.5401 11.9772C18.9212 11.981 16.3023 11.981 13.6835 11.981ZM13.6641 18.9768C11.0258 18.9768 8.38757 18.9768 5.74931 18.9768C5.57885 18.9768 5.40452 18.9845 5.23406 19.0077C4.6142 19.1007 4.35464 19.5074 4.5251 20.1117C4.68394 20.6656 5.11784 20.9833 5.72994 20.9833C9.10428 20.9833 12.4747 20.9833 15.8491 20.9833C17.7784 20.9833 19.7038 20.9833 21.6331 20.9833C22.3111 20.9833 22.7953 20.5378 22.8573 19.8677C22.896 19.4532 22.6985 19.1511 22.2956 19.0542C22.0747 19 21.8462 18.9806 21.6176 18.9806C18.9638 18.9768 16.314 18.9768 13.6641 18.9768ZM13.85 25.9725C11.1808 25.9725 8.51154 25.9725 5.84229 25.9725C5.74931 25.9725 5.65634 25.9725 5.56336 25.9802C5.04035 26.019 4.61808 26.3831 4.50573 26.8944C4.37401 27.4909 4.65682 27.8899 5.26505 27.9558C5.41227 27.9713 5.55948 27.9829 5.71057 27.9829C10.9987 27.9829 16.2907 27.9829 21.5789 27.9829C21.7183 27.9829 21.8655 27.9674 21.9973 27.9248C22.5086 27.7543 22.8922 27.1617 22.8573 26.6232C22.8341 26.2746 22.683 26.0848 22.3382 26.0267C22.0825 25.9841 21.8229 25.9802 21.5634 25.9802C18.991 25.9725 16.4186 25.9725 13.85 25.9725ZM17.0927 4.99307C15.5856 4.99307 14.0786 4.98919 12.5716 4.99694C12.3508 4.99694 12.1261 5.01244 11.913 5.06279C11.483 5.16351 11.2854 5.48114 11.3358 5.92273C11.4171 6.58124 11.8897 6.99959 12.5716 7.00347C13.6718 7.00734 14.7682 7.00347 15.8684 7.00347C17.7706 7.00347 19.6728 7.00347 21.575 7.00347C22.0941 7.00347 22.497 6.80591 22.7372 6.32946C23.0781 5.64383 22.745 5.06279 21.9856 5.00469C21.8423 4.99307 21.7028 4.99307 21.5595 4.99307C20.0718 4.99307 18.5842 4.99307 17.0927 4.99307Z" fill="#515151"/>
</g>
<defs>
<clipPath id="clip0_1879_118937">
<rect width="32" height="38" fill="white"/>
</clipPath>
</defs>
</svg>
