<svg width="15" height="14" viewBox="0 0 15 14" fill="none" xmlns="http://www.w3.org/2000/svg">
<g clip-path="url(#clip0_1879_109783)">
<path d="M5.14452 8.50008C4.6383 8.50012 4.14343 8.35505 3.72251 8.08321C3.30159 7.81137 2.97352 7.42497 2.77979 6.97289C2.58606 6.5208 2.53538 6.02333 2.63415 5.54339C2.73292 5.06346 2.97671 4.62262 3.33469 4.27663L5.97572 1.72466C6.45572 1.26067 7.10673 1 7.78555 1C8.46437 1 9.11538 1.26067 9.59538 1.72466C10.0754 2.18865 10.345 2.81796 10.345 3.47414C10.345 4.13032 10.0754 4.75962 9.59538 5.22362L9.30934 5.49961L8.57745 4.79312L8.86555 4.51462C9.15049 4.23787 9.31029 3.86319 9.3099 3.47272C9.30951 3.08226 9.14897 2.70788 8.86348 2.43165C8.57291 2.16359 8.18669 2.01403 7.78503 2.01403C7.38338 2.01403 6.99716 2.16359 6.70658 2.43165L4.06659 4.98362C3.92486 5.12047 3.81243 5.28297 3.73572 5.46185C3.65901 5.64073 3.61953 5.83247 3.61953 6.02611C3.61953 6.21974 3.65901 6.41148 3.73572 6.59036C3.81243 6.76924 3.92486 6.93175 4.06659 7.06859C4.35716 7.33665 4.74338 7.48621 5.14503 7.48621C5.54669 7.48621 5.93291 7.33665 6.22348 7.06859L6.95486 7.77559C6.71763 8.00603 6.43549 8.18872 6.12474 8.31308C5.814 8.43744 5.48083 8.501 5.14452 8.50008Z" fill="#010101" fill-opacity="0.5"/>
<path d="M9.28319 7.50008C8.77697 7.50012 8.28211 7.35505 7.86118 7.08321C7.44026 6.81137 7.11219 6.42497 6.91846 5.97289C6.72474 5.5208 6.67405 5.02333 6.77282 4.54339C6.8716 4.06346 7.11539 3.62262 7.47336 3.27663L7.75939 3.00063L8.49077 3.70812L8.20526 3.98412C7.91931 4.26054 7.75867 4.63544 7.75867 5.02636C7.75867 5.41727 7.91931 5.79217 8.20526 6.06859C8.49583 6.33665 8.88205 6.48621 9.28371 6.48621C9.68536 6.48621 10.0716 6.33665 10.3622 6.06859L13.0027 3.51612C13.2881 3.23953 13.4484 2.8648 13.4484 2.47414C13.4484 2.08347 13.2881 1.70875 13.0027 1.43215C12.7121 1.16409 12.3259 1.01453 11.9242 1.01453C11.5226 1.01453 11.1363 1.16409 10.8458 1.43215L10.1144 0.724658C10.5944 0.260667 11.2454 0 11.9242 0C12.603 0 13.2541 0.260667 13.734 0.724658C14.214 1.18865 14.4837 1.81796 14.4837 2.47414C14.4837 3.13032 14.214 3.75962 13.734 4.22362L11.094 6.77509C10.8568 7.00558 10.5747 7.18833 10.264 7.31277C9.95322 7.43721 9.62005 7.50087 9.28371 7.50008H9.28319Z" fill="#010101" fill-opacity="0.5"/>
<path d="M11.3793 13.9999H1.03448C0.760205 13.9996 0.497239 13.8942 0.303295 13.7067C0.109352 13.5192 0.000273867 13.265 0 12.9999V2.99999C0.000273867 2.73486 0.109352 2.48066 0.303295 2.29318C0.497239 2.10571 0.760205 2.00026 1.03448 2H3.10345V2.99999H1.03448V12.9999H11.3793V7.99993H12.4138V12.9999C12.4135 13.265 12.3044 13.5192 12.1105 13.7067C11.9166 13.8942 11.6536 13.9996 11.3793 13.9999Z" fill="#010101" fill-opacity="0.5"/>
</g>
<defs>
<clipPath id="clip0_1879_109783">
<rect width="15" height="14" fill="white"/>
</clipPath>
</defs>
</svg>
