<svg width="20" height="22" viewBox="0 0 20 22" fill="none" xmlns="http://www.w3.org/2000/svg">
<path d="M9.08937 21.1694L9.08941 21.1695L9.09482 21.1802L9.08937 21.1694ZM9.08937 21.1694C8.86811 20.7293 8.41695 20.4524 7.92477 20.4524H7.91687C7.90801 20.4524 7.8988 20.451 7.89007 20.4485C7.8813 20.4459 7.87468 20.4425 7.87042 20.4397C7.87016 20.4395 7.86993 20.4394 7.8697 20.4392C7.86777 20.4303 7.86851 20.4257 7.86875 20.4243C7.86922 20.4216 7.87032 20.4187 7.87266 20.4156C7.87792 20.4086 7.88545 20.4048 7.89474 20.4048H12.1053C12.1146 20.4048 12.1221 20.4086 12.1273 20.4156C12.1296 20.4186 12.1307 20.4215 12.1311 20.4241C12.1314 20.4255 12.1321 20.4302 12.1301 20.4392C12.1299 20.4394 12.1297 20.4395 12.1294 20.4397C12.1251 20.4425 12.1185 20.4459 12.1097 20.4485C12.101 20.451 12.0918 20.4524 12.0829 20.4524H12.075C11.5828 20.4524 11.1317 20.7294 10.9105 21.1693L10.9104 21.1695L10.9049 21.1805L10.9048 21.1805M9.08937 21.1694L10.9048 21.1805M10.9048 21.1805C10.8069 21.3754 10.6058 21.5 10.3842 21.5H9.61583C9.39442 21.5 9.1932 21.3755 9.09495 21.1805L10.9048 21.1805ZM5.70322 10.0309C5.77964 10.0508 5.85523 10.0595 5.92767 10.0595C6.32408 10.0595 6.68858 9.79483 6.79369 9.39071L6.7938 9.39028C7.05444 8.38456 7.7886 7.5491 8.75622 7.15902C9.21393 6.97458 9.43622 6.45425 9.25054 5.99585L9.25016 5.99492C9.11849 5.67176 8.82063 5.46928 8.49697 5.44161C8.97147 5.2939 9.47632 5.21429 10 5.21429C12.7782 5.21429 15.0263 7.45512 15.0263 10.2143C15.0263 11.7672 14.3582 12.6831 13.5699 13.6273C13.5072 13.7024 13.4432 13.7782 13.3786 13.8547C12.6386 14.7308 11.8074 15.7148 11.6386 17.2336L11.5803 17.7581L12.1071 17.7881C12.1154 17.7885 12.1217 17.7918 12.1263 17.7965C12.1285 17.7989 12.1298 17.8011 12.1305 17.8027C12.131 17.8041 12.1316 17.806 12.1316 17.8095C12.1316 17.8202 12.122 17.8333 12.1053 17.8333H7.89474C7.87811 17.8333 7.86842 17.8203 7.86842 17.8095C7.86842 17.806 7.86901 17.8041 7.86957 17.8027C7.87026 17.801 7.87154 17.7988 7.87377 17.7965C7.87831 17.7918 7.8846 17.7885 7.89293 17.788L8.4197 17.758L8.36141 17.2336C8.19258 15.7148 7.36142 14.7308 6.62144 13.8547C6.55678 13.7782 6.49281 13.7025 6.43005 13.6273C5.64185 12.6831 4.97368 11.7672 4.97368 10.2143C4.97368 9.91681 4.99982 9.62537 5.04992 9.3421C5.11558 9.6677 5.36167 9.94255 5.70322 10.0309ZM5.70322 10.0309C5.70286 10.0308 5.7025 10.0307 5.70213 10.0306L5.82899 9.54693L5.70456 10.0312C5.70411 10.0311 5.70367 10.031 5.70322 10.0309ZM7.89474 19.0952H12.1052H12.1053C12.122 19.0952 12.1316 19.1084 12.1316 19.119C12.1316 19.1298 12.122 19.1429 12.1053 19.1429H7.89474C7.87811 19.1429 7.86842 19.1298 7.86842 19.119C7.86842 19.1082 7.87813 19.0952 7.89474 19.0952ZM7.87198 20.4476L7.87193 20.4475L7.87198 20.4476ZM4.77082 4.78333L4.77036 4.78287L3.2817 3.30126L3.28169 3.30125C3.27255 3.29215 3.27255 3.2785 3.28169 3.2694L3.28196 3.26913C3.28667 3.26444 3.29263 3.26158 3.30107 3.26158C3.30951 3.26158 3.3155 3.26444 3.32024 3.26916L3.32047 3.26939L4.80913 4.751L4.80917 4.75104C4.81825 4.76008 4.8183 4.77375 4.80913 4.78287L4.80867 4.78333C4.80577 4.78622 4.80322 4.78773 4.8007 4.78875C4.79784 4.78991 4.79409 4.79075 4.78974 4.79075C4.78543 4.79075 4.78168 4.78991 4.77879 4.78874C4.77626 4.78772 4.7737 4.7862 4.77082 4.78333ZM4.77036 15.1219L4.77059 15.1217C4.77534 15.1169 4.78132 15.1141 4.78974 15.1141C4.79817 15.1141 4.80415 15.1169 4.8089 15.1217L4.80913 15.1219C4.81828 15.131 4.81828 15.1447 4.80913 15.1538L5.16184 15.5082L4.80913 15.1538L3.32047 16.6354L3.32001 16.6358C3.31715 16.6387 3.31462 16.6402 3.3121 16.6412C3.30922 16.6424 3.30545 16.6432 3.30108 16.6432C3.29669 16.6432 3.29292 16.6424 3.29007 16.6412C3.28756 16.6402 3.28503 16.6387 3.28216 16.6358L3.28166 16.6353C3.27258 16.6263 3.27253 16.6126 3.28169 16.6035L2.92899 16.2491L3.2817 16.6035L4.77036 15.1219ZM15.1909 15.1538L15.1909 15.1537C15.1818 15.1447 15.1817 15.131 15.1909 15.1219C15.196 15.1168 15.2021 15.1141 15.2103 15.1141C15.2185 15.1141 15.2246 15.1168 15.2297 15.1219L16.7184 16.6035L16.7184 16.6035C16.7275 16.6126 16.7275 16.6262 16.7184 16.6354C16.7151 16.6386 16.7123 16.6402 16.7098 16.6412C16.707 16.6424 16.7033 16.6432 16.699 16.6432C16.6947 16.6432 16.691 16.6424 16.6881 16.6412C16.6867 16.6407 16.6852 16.6399 16.6836 16.6388C16.6824 16.6379 16.6811 16.6368 16.6797 16.6354L16.6796 16.6354L15.1909 15.1538ZM16.6796 3.2694L16.6796 3.26936C16.6846 3.26434 16.6907 3.26158 16.6989 3.26158C16.7071 3.26158 16.7133 3.26434 16.7183 3.2694C16.7275 3.2785 16.7275 3.29215 16.7183 3.30125L15.2296 4.78287C15.2263 4.78615 15.2235 4.78777 15.221 4.78878C15.2182 4.78993 15.2145 4.79075 15.2103 4.79075C15.2059 4.79075 15.2022 4.78991 15.1993 4.78875C15.1968 4.78773 15.1942 4.7862 15.1913 4.78326L15.1909 4.78287C15.1817 4.77376 15.1817 4.76011 15.1909 4.75101L16.6796 3.2694ZM10.0264 2.61905C10.0264 2.62979 10.0167 2.64286 10 2.64286C9.98335 2.64286 9.97368 2.62977 9.97368 2.61905V0.523809C9.97368 0.513088 9.98335 0.5 10 0.5C10.0167 0.5 10.0264 0.513063 10.0264 0.523809V2.61905ZM2.63158 9.92857C2.64821 9.92857 2.65789 9.94164 2.65789 9.95238C2.65789 9.96315 2.64822 9.97619 2.63158 9.97619H0.526316C0.509687 9.97619 0.5 9.96313 0.5 9.95238C0.5 9.94164 0.509687 9.92857 0.526316 9.92857H2.63158ZM17.3684 9.92857H19.4737C19.4903 9.92857 19.5 9.94163 19.5 9.95238C19.5 9.96313 19.4903 9.97619 19.4737 9.97619H17.3684C17.3518 9.97619 17.3421 9.96313 17.3421 9.95238C17.3421 9.94164 17.3518 9.92857 17.3684 9.92857Z" stroke="#515151"/>
</svg>
