<svg width="21" height="22" viewBox="0 0 21 22" fill="none" xmlns="http://www.w3.org/2000/svg">
<rect width="21" height="22" fill="#C8C8C8"/>
<rect width="1440" height="1031" transform="translate(-497 -116)" fill="white"/>
<mask id="path-2-inside-1_0_1" fill="white">
<path d="M0 0V16.9705H21V0H0ZM20.3226 16.2917H0.677419V0.678822H20.3226V16.2917Z"/>
</mask>
<path d="M0 0V-2H-2V0H0ZM0 16.9705H-2V18.9705H0V16.9705ZM21 16.9705V18.9705H23V16.9705H21ZM21 0H23V-2H21V0ZM20.3226 16.2917V18.2917H22.3226V16.2917H20.3226ZM0.677419 16.2917H-1.32258V18.2917H0.677419V16.2917ZM0.677419 0.678822V-1.32118H-1.32258V0.678822H0.677419ZM20.3226 0.678822H22.3226V-1.32118H20.3226V0.678822ZM-2 0V16.9705H2V0H-2ZM0 18.9705H21V14.9705H0V18.9705ZM23 16.9705V0H19V16.9705H23ZM21 -2H0V2H21V-2ZM20.3226 14.2917H0.677419V18.2917H20.3226V14.2917ZM2.67742 16.2917V0.678822H-1.32258V16.2917H2.67742ZM0.677419 2.67882H20.3226V-1.32118H0.677419V2.67882ZM18.3226 0.678822V16.2917H22.3226V0.678822H18.3226Z" fill="#515151" mask="url(#path-2-inside-1_0_1)"/>
<mask id="path-4-inside-2_0_1" fill="white">
<path d="M13.2064 1.35742H1.35156V8.82446H13.2064V1.35742ZM12.529 8.14564H2.02898V2.03624H12.529V8.14564Z"/>
</mask>
<path d="M13.2064 1.35742H15.2064V-0.642578H13.2064V1.35742ZM1.35156 1.35742V-0.642578H-0.648438V1.35742H1.35156ZM1.35156 8.82446H-0.648438V10.8245H1.35156V8.82446ZM13.2064 8.82446V10.8245H15.2064V8.82446H13.2064ZM12.529 8.14564V10.1456H14.529V8.14564H12.529ZM2.02898 8.14564H0.0289819V10.1456H2.02898V8.14564ZM2.02898 2.03624V0.0362437H0.0289819V2.03624H2.02898ZM12.529 2.03624H14.529V0.0362437H12.529V2.03624ZM13.2064 -0.642578H1.35156V3.35742H13.2064V-0.642578ZM-0.648438 1.35742V8.82446H3.35156V1.35742H-0.648438ZM1.35156 10.8245H13.2064V6.82446H1.35156V10.8245ZM15.2064 8.82446V1.35742H11.2064V8.82446H15.2064ZM12.529 6.14564H2.02898V10.1456H12.529V6.14564ZM4.02898 8.14564V2.03624H0.0289819V8.14564H4.02898ZM2.02898 4.03624H12.529V0.0362437H2.02898V4.03624ZM10.529 2.03624V8.14564H14.529V2.03624H10.529Z" fill="#515151" mask="url(#path-4-inside-2_0_1)"/>
<mask id="path-6-inside-3_0_1" fill="white">
<path d="M19.6487 1.35742H13.8906V2.03624H19.6487V1.35742Z"/>
</mask>
<path d="M13.8906 1.35742V-0.642578H11.8906V1.35742H13.8906ZM19.6487 1.35742H21.6487V-0.642578H19.6487V1.35742ZM19.6487 2.03624V4.03624H21.6487V2.03624H19.6487ZM13.8906 2.03624H11.8906V4.03624H13.8906V2.03624ZM13.8906 3.35742H19.6487V-0.642578H13.8906V3.35742ZM17.6487 1.35742V2.03624H21.6487V1.35742H17.6487ZM19.6487 0.0362437H13.8906V4.03624H19.6487V0.0362437ZM15.8906 2.03624V1.35742H11.8906V2.03624H15.8906Z" fill="#515151" mask="url(#path-6-inside-3_0_1)"/>
<mask id="path-8-inside-4_0_1" fill="white">
<path d="M19.6487 2.71533H13.8906V3.39415H19.6487V2.71533Z"/>
</mask>
<path d="M13.8906 2.71533V0.715332H11.8906V2.71533H13.8906ZM19.6487 2.71533H21.6487V0.715332H19.6487V2.71533ZM19.6487 3.39415V5.39415H21.6487V3.39415H19.6487ZM13.8906 3.39415H11.8906V5.39415H13.8906V3.39415ZM13.8906 4.71533H19.6487V0.715332H13.8906V4.71533ZM17.6487 2.71533V3.39415H21.6487V2.71533H17.6487ZM19.6487 1.39415H13.8906V5.39415H19.6487V1.39415ZM15.8906 3.39415V2.71533H11.8906V3.39415H15.8906Z" fill="#515151" mask="url(#path-8-inside-4_0_1)"/>
<mask id="path-10-inside-5_0_1" fill="white">
<path d="M19.6487 4.07275H13.8906V4.75158H19.6487V4.07275Z"/>
</mask>
<path d="M13.8906 4.07275V2.07275H11.8906V4.07275H13.8906ZM19.6487 4.07275H21.6487V2.07275H19.6487V4.07275ZM19.6487 4.75158V6.75158H21.6487V4.75158H19.6487ZM13.8906 4.75158H11.8906V6.75158H13.8906V4.75158ZM13.8906 6.07275H19.6487V2.07275H13.8906V6.07275ZM17.6487 4.07275V4.75158H21.6487V4.07275H17.6487ZM19.6487 2.75158H13.8906V6.75158H19.6487V2.75158ZM15.8906 4.75158V4.07275H11.8906V4.75158H15.8906Z" fill="#515151" mask="url(#path-10-inside-5_0_1)"/>
<mask id="path-12-inside-6_0_1" fill="white">
<path d="M19.6487 5.43066H13.8906V6.10949H19.6487V5.43066Z"/>
</mask>
<path d="M13.8906 5.43066V3.43066H11.8906V5.43066H13.8906ZM19.6487 5.43066H21.6487V3.43066H19.6487V5.43066ZM19.6487 6.10949V8.10949H21.6487V6.10949H19.6487ZM13.8906 6.10949H11.8906V8.10949H13.8906V6.10949ZM13.8906 7.43066H19.6487V3.43066H13.8906V7.43066ZM17.6487 5.43066V6.10949H21.6487V5.43066H17.6487ZM19.6487 4.10949H13.8906V8.10949H19.6487V4.10949ZM15.8906 6.10949V5.43066H11.8906V6.10949H15.8906Z" fill="#515151" mask="url(#path-12-inside-6_0_1)"/>
<mask id="path-14-inside-7_0_1" fill="white">
<path d="M19.6487 6.78809H13.8906V7.46691H19.6487V6.78809Z"/>
</mask>
<path d="M13.8906 6.78809V4.78809H11.8906V6.78809H13.8906ZM19.6487 6.78809H21.6487V4.78809H19.6487V6.78809ZM19.6487 7.46691V9.46691H21.6487V7.46691H19.6487ZM13.8906 7.46691H11.8906V9.46691H13.8906V7.46691ZM13.8906 8.78809H19.6487V4.78809H13.8906V8.78809ZM17.6487 6.78809V7.46691H21.6487V6.78809H17.6487ZM19.6487 5.46691H13.8906V9.46691H19.6487V5.46691ZM15.8906 7.46691V6.78809H11.8906V7.46691H15.8906Z" fill="#515151" mask="url(#path-14-inside-7_0_1)"/>
<mask id="path-16-inside-8_0_1" fill="white">
<path d="M19.6487 8.146H13.8906V8.82482H19.6487V8.146Z"/>
</mask>
<path d="M13.8906 8.146V6.146H11.8906V8.146H13.8906ZM19.6487 8.146H21.6487V6.146H19.6487V8.146ZM19.6487 8.82482V10.8248H21.6487V8.82482H19.6487ZM13.8906 8.82482H11.8906V10.8248H13.8906V8.82482ZM13.8906 10.146H19.6487V6.146H13.8906V10.146ZM17.6487 8.146V8.82482H21.6487V8.146H17.6487ZM19.6487 6.82482H13.8906V10.8248H19.6487V6.82482ZM15.8906 8.82482V8.146H11.8906V8.82482H15.8906Z" fill="#515151" mask="url(#path-16-inside-8_0_1)"/>
<mask id="path-18-inside-9_0_1" fill="white">
<path d="M7.10963 9.50342H1.35156V15.6128H7.10963V9.50342ZM6.43221 14.934H2.02898V10.1822H6.43221V14.934Z"/>
</mask>
<path d="M7.10963 9.50342H9.10963V7.50342H7.10963V9.50342ZM1.35156 9.50342V7.50342H-0.648438V9.50342H1.35156ZM1.35156 15.6128H-0.648438V17.6128H1.35156V15.6128ZM7.10963 15.6128V17.6128H9.10963V15.6128H7.10963ZM6.43221 14.934V16.934H8.43221V14.934H6.43221ZM2.02898 14.934H0.0289818V16.934H2.02898V14.934ZM2.02898 10.1822V8.18224H0.0289818V10.1822H2.02898ZM6.43221 10.1822H8.43221V8.18224H6.43221V10.1822ZM7.10963 7.50342H1.35156V11.5034H7.10963V7.50342ZM-0.648438 9.50342V15.6128H3.35156V9.50342H-0.648438ZM1.35156 17.6128H7.10963V13.6128H1.35156V17.6128ZM9.10963 15.6128V9.50342H5.10963V15.6128H9.10963ZM6.43221 12.934H2.02898V16.934H6.43221V12.934ZM4.02898 14.934V10.1822H0.0289818V14.934H4.02898ZM2.02898 12.1822H6.43221V8.18224H2.02898V12.1822ZM4.43221 10.1822V14.934H8.43221V10.1822H4.43221Z" fill="#515151" mask="url(#path-18-inside-9_0_1)"/>
<mask id="path-20-inside-10_0_1" fill="white">
<path d="M7.78906 15.6128H13.2084V9.50342H7.78906V15.6128ZM8.46648 10.1822H12.531V14.934H8.46648V10.1822Z"/>
</mask>
<path d="M7.78906 15.6128H5.78906V17.6128H7.78906V15.6128ZM13.2084 15.6128V17.6128H15.2084V15.6128H13.2084ZM13.2084 9.50342H15.2084V7.50342H13.2084V9.50342ZM7.78906 9.50342V7.50342H5.78906V9.50342H7.78906ZM8.46648 10.1822V8.18224H6.46648V10.1822H8.46648ZM12.531 10.1822H14.531V8.18224H12.531V10.1822ZM12.531 14.934V16.934H14.531V14.934H12.531ZM8.46648 14.934H6.46648V16.934H8.46648V14.934ZM7.78906 17.6128H13.2084V13.6128H7.78906V17.6128ZM15.2084 15.6128V9.50342H11.2084V15.6128H15.2084ZM13.2084 7.50342H7.78906V11.5034H13.2084V7.50342ZM5.78906 9.50342V15.6128H9.78906V9.50342H5.78906ZM8.46648 12.1822H12.531V8.18224H8.46648V12.1822ZM10.531 10.1822V14.934H14.531V10.1822H10.531ZM12.531 12.934H8.46648V16.934H12.531V12.934ZM10.4665 14.934V10.1822H6.46648V14.934H10.4665Z" fill="#515151" mask="url(#path-20-inside-10_0_1)"/>
<mask id="path-22-inside-11_0_1" fill="white">
<path d="M19.6487 9.50342H13.8906V15.6128H19.6487V9.50342ZM18.9713 14.934H14.568V10.1822H18.9713V14.934Z"/>
</mask>
<path d="M19.6487 9.50342H21.6487V7.50342H19.6487V9.50342ZM13.8906 9.50342V7.50342H11.8906V9.50342H13.8906ZM13.8906 15.6128H11.8906V17.6128H13.8906V15.6128ZM19.6487 15.6128V17.6128H21.6487V15.6128H19.6487ZM18.9713 14.934V16.934H20.9713V14.934H18.9713ZM14.568 14.934H12.568V16.934H14.568V14.934ZM14.568 10.1822V8.18224H12.568V10.1822H14.568ZM18.9713 10.1822H20.9713V8.18224H18.9713V10.1822ZM19.6487 7.50342H13.8906V11.5034H19.6487V7.50342ZM11.8906 9.50342V15.6128H15.8906V9.50342H11.8906ZM13.8906 17.6128H19.6487V13.6128H13.8906V17.6128ZM21.6487 15.6128V9.50342H17.6487V15.6128H21.6487ZM18.9713 12.934H14.568V16.934H18.9713V12.934ZM16.568 14.934V10.1822H12.568V14.934H16.568ZM14.568 12.1822H18.9713V8.18224H14.568V12.1822ZM16.9713 10.1822V14.934H20.9713V10.1822H16.9713Z" fill="#515151" mask="url(#path-22-inside-11_0_1)"/>
<mask id="path-24-inside-12_0_1" fill="white">
<path d="M7.11316 7.46709C8.42057 7.46709 9.48412 6.40134 9.48412 5.09121C9.48412 3.78108 8.42057 2.71533 7.11316 2.71533C5.80574 2.71533 4.74219 3.78108 4.74219 5.09121C4.74219 6.40134 5.80574 7.46709 7.11316 7.46709ZM7.11316 3.39415C8.04698 3.39415 8.8067 4.15545 8.8067 5.09121C8.8067 6.02696 8.04698 6.78826 7.11316 6.78826C6.17933 6.78826 5.41961 6.02696 5.41961 5.09121C5.41961 4.15545 6.17933 3.39415 7.11316 3.39415Z"/>
</mask>
<path d="M7.11316 9.46709C9.52904 9.46709 11.4841 7.502 11.4841 5.09121H7.48412C7.48412 5.30067 7.31211 5.46709 7.11316 5.46709V9.46709ZM11.4841 5.09121C11.4841 2.68042 9.52904 0.715332 7.11316 0.715332V4.71533C7.31211 4.71533 7.48412 4.88175 7.48412 5.09121H11.4841ZM7.11316 0.715332C4.69727 0.715332 2.74219 2.68042 2.74219 5.09121H6.74219C6.74219 4.88175 6.9142 4.71533 7.11316 4.71533V0.715332ZM2.74219 5.09121C2.74219 7.502 4.69727 9.46709 7.11316 9.46709V5.46709C6.9142 5.46709 6.74219 5.30067 6.74219 5.09121H2.74219ZM7.11316 5.39415C6.93851 5.39415 6.8067 5.25612 6.8067 5.09121H10.8067C10.8067 3.05479 9.15545 1.39415 7.11316 1.39415V5.39415ZM6.8067 5.09121C6.8067 4.9263 6.93851 4.78826 7.11316 4.78826V8.78826C9.15545 8.78826 10.8067 7.12763 10.8067 5.09121H6.8067ZM7.11316 4.78826C7.2878 4.78826 7.41961 4.9263 7.41961 5.09121H3.41961C3.41961 7.12763 5.07087 8.78826 7.11316 8.78826V4.78826ZM7.41961 5.09121C7.41961 5.25612 7.2878 5.39415 7.11316 5.39415V1.39415C5.07087 1.39415 3.41961 3.05479 3.41961 5.09121H7.41961Z" fill="#515151" mask="url(#path-24-inside-12_0_1)"/>
<mask id="path-26-inside-13_0_1" fill="white">
<path d="M19.3091 18.606H3.29965L0.335938 20.303L3.29965 22.0001H19.3091C20.2429 22.0001 21.0026 21.2388 21.0026 20.303C21.0026 19.3673 20.2429 18.606 19.3091 18.606ZM3.38974 21.2697L1.70161 20.303L3.38974 19.3364V21.2697ZM16.2607 21.3212H4.06716V19.2848H16.2607V21.3212ZM17.6156 21.3212H16.9381V19.2848H17.6156V21.3212ZM19.3091 21.3212H18.293V19.2848H19.3091C19.8693 19.2848 20.3252 19.7416 20.3252 20.303C20.3252 20.8644 19.8693 21.3212 19.3091 21.3212Z"/>
</mask>
<path d="M3.29965 18.606V16.606H2.76756L2.30582 16.8704L3.29965 18.606ZM0.335938 20.303L-0.657888 18.5674L-3.68891 20.303L-0.657888 22.0386L0.335938 20.303ZM3.29965 22.0001L2.30582 23.7357L2.76756 24.0001H3.29965V22.0001ZM3.38974 21.2697L2.39592 23.0053L5.38974 24.7196V21.2697H3.38974ZM1.70161 20.303L0.707789 18.5674L-2.32324 20.303L0.707789 22.0386L1.70161 20.303ZM3.38974 19.3364H5.38974V15.8865L2.39592 17.6008L3.38974 19.3364ZM16.2607 21.3212V23.3212H18.2607V21.3212H16.2607ZM4.06716 21.3212H2.06716V23.3212H4.06716V21.3212ZM4.06716 19.2848V17.2848H2.06716V19.2848H4.06716ZM16.2607 19.2848H18.2607V17.2848H16.2607V19.2848ZM17.6156 21.3212V23.3212H19.6156V21.3212H17.6156ZM16.9381 21.3212H14.9381V23.3212H16.9381V21.3212ZM16.9381 19.2848V17.2848H14.9381V19.2848H16.9381ZM17.6156 19.2848H19.6156V17.2848H17.6156V19.2848ZM18.293 21.3212H16.293V23.3212H18.293V21.3212ZM18.293 19.2848V17.2848H16.293V19.2848H18.293ZM19.3091 16.606H3.29965V20.606H19.3091V16.606ZM2.30582 16.8704L-0.657888 18.5674L1.32976 22.0386L4.29347 20.3416L2.30582 16.8704ZM-0.657888 22.0386L2.30582 23.7357L4.29347 20.2645L1.32976 18.5674L-0.657888 22.0386ZM3.29965 24.0001H19.3091V20.0001H3.29965V24.0001ZM19.3091 24.0001C21.3514 24.0001 23.0026 22.3394 23.0026 20.303H19.0026C19.0026 20.1381 19.1345 20.0001 19.3091 20.0001V24.0001ZM23.0026 20.303C23.0026 18.2666 21.3514 16.606 19.3091 16.606V20.606C19.1345 20.606 19.0026 20.4679 19.0026 20.303H23.0026ZM4.38357 19.5341L2.69544 18.5674L0.707789 22.0386L2.39592 23.0053L4.38357 19.5341ZM2.69544 22.0386L4.38357 21.072L2.39592 17.6008L0.707789 18.5674L2.69544 22.0386ZM1.38974 19.3364V21.2697H5.38974V19.3364H1.38974ZM16.2607 19.3212H4.06716V23.3212H16.2607V19.3212ZM6.06716 21.3212V19.2848H2.06716V21.3212H6.06716ZM4.06716 21.2848H16.2607V17.2848H4.06716V21.2848ZM14.2607 19.2848V21.3212H18.2607V19.2848H14.2607ZM17.6156 19.3212H16.9381V23.3212H17.6156V19.3212ZM18.9381 21.3212V19.2848H14.9381V21.3212H18.9381ZM16.9381 21.2848H17.6156V17.2848H16.9381V21.2848ZM15.6156 19.2848V21.3212H19.6156V19.2848H15.6156ZM19.3091 19.3212H18.293V23.3212H19.3091V19.3212ZM20.293 21.3212V19.2848H16.293V21.3212H20.293ZM18.293 21.2848H19.3091V17.2848H18.293V21.2848ZM19.3091 21.2848C18.7609 21.2848 18.3252 20.8423 18.3252 20.303H22.3252C22.3252 18.641 20.9778 17.2848 19.3091 17.2848V21.2848ZM18.3252 20.303C18.3252 19.7637 18.7609 19.3212 19.3091 19.3212V23.3212C20.9778 23.3212 22.3252 21.9651 22.3252 20.303H18.3252Z" fill="#515151" mask="url(#path-26-inside-13_0_1)"/>
</svg>
