<svg width="18" height="13" viewBox="0 0 18 13" fill="none" xmlns="http://www.w3.org/2000/svg">
<g clip-path="url(#clip0_1878_108280)">
<path d="M16.875 0H1.125C0.826631 0 0.540483 0.114137 0.329505 0.317301C0.118526 0.520465 0 0.796016 0 1.08333V11.9167C0 12.204 0.118526 12.4795 0.329505 12.6827C0.540483 12.8859 0.826631 13 1.125 13H16.875C17.1734 13 17.4595 12.8859 17.6705 12.6827C17.8815 12.4795 18 12.204 18 11.9167V1.08333C18 0.796016 17.8815 0.520465 17.6705 0.317301C17.4595 0.114137 17.1734 0 16.875 0ZM16.875 11.9167H1.125V1.08333H16.875V11.9167Z" fill="#515151"/>
<path d="M3.9375 4.33333H14.0625C14.2117 4.33333 14.3548 4.27627 14.4602 4.17468C14.5657 4.0731 14.625 3.93533 14.625 3.79167C14.625 3.64801 14.5657 3.51023 14.4602 3.40865C14.3548 3.30707 14.2117 3.25 14.0625 3.25H3.9375C3.78832 3.25 3.64524 3.30707 3.53975 3.40865C3.43426 3.51023 3.375 3.64801 3.375 3.79167C3.375 3.93533 3.43426 4.0731 3.53975 4.17468C3.64524 4.27627 3.78832 4.33333 3.9375 4.33333Z" fill="#515151"/>
<path d="M3.9375 6.5013H14.0625C14.2117 6.5013 14.3548 6.44423 14.4602 6.34265C14.5657 6.24107 14.625 6.10329 14.625 5.95964C14.625 5.81598 14.5657 5.6782 14.4602 5.57662C14.3548 5.47504 14.2117 5.41797 14.0625 5.41797H3.9375C3.78832 5.41797 3.64524 5.47504 3.53975 5.57662C3.43426 5.6782 3.375 5.81598 3.375 5.95964C3.375 6.10329 3.43426 6.24107 3.53975 6.34265C3.64524 6.44423 3.78832 6.5013 3.9375 6.5013Z" fill="#515151"/>
<path d="M3.9375 8.66536H9.5625C9.71168 8.66536 9.85476 8.6083 9.96025 8.50671C10.0657 8.40513 10.125 8.26736 10.125 8.1237C10.125 7.98004 10.0657 7.84226 9.96025 7.74068C9.85476 7.6391 9.71168 7.58203 9.5625 7.58203H3.9375C3.78832 7.58203 3.64524 7.6391 3.53975 7.74068C3.43426 7.84226 3.375 7.98004 3.375 8.1237C3.375 8.26736 3.43426 8.40513 3.53975 8.50671C3.64524 8.6083 3.78832 8.66536 3.9375 8.66536Z" fill="#515151"/>
</g>
<defs>
<clipPath id="clip0_1878_108280">
<rect width="18" height="13" fill="white"/>
</clipPath>
</defs>
</svg>
