<svg width="20" height="22" viewBox="0 0 20 22" fill="none" xmlns="http://www.w3.org/2000/svg">
<g clip-path="url(#clip0_545_90357)">
<path d="M19.5523 14.6127C19.2673 14.3675 18.8908 14.2658 18.5277 14.3302L10.9 15.6852L8.73346 13.4722C8.66154 13.3983 8.56385 13.3571 8.46154 13.3571H4.61538C4.61538 13.1402 4.44346 12.9642 4.23077 12.9642H2.69231H0V13.7499H2.30769V19.2499H0V20.0357H2.69231H4.23077C4.44346 20.0357 4.61538 19.8597 4.61538 19.6428H5.67846L9.79038 21.743C9.96846 21.8338 10.1608 21.8793 10.3531 21.8789C10.5715 21.8789 10.7904 21.8204 10.9862 21.7037L19.3769 16.7042C19.7612 16.4748 20 16.0497 20 15.5952C20 15.2153 19.8365 14.857 19.5523 14.6127ZM3.84615 19.2499H3.07692V13.7499H3.84615V19.2499ZM18.9888 16.0258L10.5985 21.0249C10.4562 21.1097 10.2827 21.1156 10.1346 21.0402L5.94154 18.8987C5.88808 18.8712 5.82885 18.8571 5.76923 18.8571H4.61538V14.1428H8.30231L11.3327 17.2377C11.4654 17.3737 11.5385 17.554 11.5385 17.7457C11.5385 18.1421 11.2231 18.4642 10.8354 18.4642C10.6504 18.4642 10.4692 18.3876 10.3381 18.2537L8.34885 16.2222L7.805 16.7777L9.79423 18.8092C10.0723 19.0936 10.4415 19.2499 10.8354 19.2499C11.6469 19.2499 12.3077 18.5754 12.3077 17.7457C12.3077 17.3442 12.1546 16.9667 11.8765 16.6822L11.5654 16.3644L18.6592 15.1041C18.8023 15.0786 18.9465 15.1191 19.0569 15.2137C19.1673 15.3088 19.2308 15.4479 19.2308 15.5952C19.2308 15.7716 19.1381 15.9366 18.9888 16.0258Z" fill="#515151"/>
<path d="M13.1744 4.0581L9.32812 8.37927L9.89756 8.90809L13.7439 4.58691L13.1744 4.0581Z" fill="#F4A72A"/>
<path d="M9.9976 6.48214C10.6338 6.48214 11.1514 5.95336 11.1514 5.30357C11.1514 4.65379 10.6338 4.125 9.9976 4.125C9.36144 4.125 8.84375 4.65379 8.84375 5.30357C8.84375 5.95336 9.36144 6.48214 9.9976 6.48214ZM9.9976 4.91071C10.2099 4.91071 10.3822 5.08711 10.3822 5.30357C10.3822 5.52004 10.2099 5.69643 9.9976 5.69643C9.78529 5.69643 9.61298 5.52004 9.61298 5.30357C9.61298 5.08711 9.78529 4.91071 9.9976 4.91071Z" fill="#F4A72A"/>
<path d="M11.9219 7.66075C11.9219 8.31053 12.4396 8.83932 13.0757 8.83932C13.7119 8.83932 14.2296 8.31053 14.2296 7.66075C14.2296 7.01096 13.7119 6.48218 13.0757 6.48218C12.4396 6.48218 11.9219 7.01096 11.9219 7.66075ZM13.4603 7.66075C13.4603 7.87721 13.288 8.05361 13.0757 8.05361C12.8634 8.05361 12.6911 7.87721 12.6911 7.66075C12.6911 7.44428 12.8634 7.26789 13.0757 7.26789C13.288 7.26789 13.4603 7.44428 13.4603 7.66075Z" fill="#F4A72A"/>
<path d="M11.261 14.806C11.3341 14.8842 11.4348 14.9286 11.5402 14.9286C11.6456 14.9286 11.7464 14.8842 11.8194 14.806L17.9187 8.24214C19.6656 6.36193 19.6656 3.30275 17.9187 1.42293C17.066 0.505214 15.931 0 14.7225 0C13.5202 0 12.391 0.499714 11.5402 1.408C10.6894 0.499714 9.56022 0 8.35791 0C7.14945 0 6.01445 0.505214 5.16175 1.42293C3.41483 3.30314 3.41483 6.36232 5.16175 8.24214L11.261 14.806ZM5.71983 1.96389C6.4256 1.20411 7.36252 0.785714 8.35791 0.785714C9.35368 0.785714 10.2902 1.20411 10.996 1.96389L11.261 2.2495C11.4068 2.40546 11.6733 2.40546 11.8191 2.2495L12.0841 1.96389C12.7902 1.20411 13.7271 0.785714 14.7225 0.785714C15.7179 0.785714 16.6544 1.20411 17.3602 1.96389C18.8302 3.54554 18.8302 6.11954 17.3602 7.70118L11.5402 13.9649L5.71983 7.70118C4.24983 6.11954 4.24983 3.54554 5.71983 1.96389Z" fill="#515151"/>
<path d="M10.3864 9.42859H9.61719V10.2143H10.3864V9.42859Z" fill="#F4A72A"/>
<path d="M11.9255 9.42859H11.1562V10.2143H11.9255V9.42859Z" fill="#F4A72A"/>
<path d="M13.4645 9.42859H12.6953V10.2143H13.4645V9.42859Z" fill="#F4A72A"/>
</g>
<defs>
<clipPath id="clip0_545_90357">
<rect width="20" height="22" fill="white"/>
</clipPath>
</defs>
</svg>
