<svg width="14" height="16" viewBox="0 0 14 16" fill="none" xmlns="http://www.w3.org/2000/svg">
<path d="M10.0066 10.2306C10.0253 10.3841 10.0463 10.5595 10.065 10.7499C10.1513 11.6037 10.2178 12.8187 10.0498 13.8387C9.96579 14.3464 9.81529 14.8622 9.53413 15.266C9.23429 15.6953 8.77929 15.9987 8.16563 15.9987C7.56363 15.9987 7.19729 15.5718 6.97096 15.2026C6.74696 14.8322 6.55096 14.3303 6.34913 13.8168L6.33396 13.7776C5.69579 12.1506 4.82313 9.95026 2.47579 8.40295C2.16222 8.19524 1.82892 8.01825 1.48063 7.87449C0.667459 7.54103 -0.0617072 6.65487 0.130793 5.64064L0.392126 4.26064C0.472569 3.83674 0.671516 3.44362 0.9664 3.12588C1.26128 2.80813 1.6403 2.57847 2.06046 2.46295L7.83546 0.876412C8.38047 0.726643 8.951 0.690499 9.51088 0.770272C10.0708 0.850045 10.6078 1.04399 11.0879 1.33982C11.568 1.63566 11.9807 2.02691 12.2999 2.48879C12.619 2.95067 12.8377 3.4731 12.942 4.02295L13.4716 6.8141C13.5505 7.23072 13.5355 7.6594 13.4279 8.06965C13.3202 8.4799 13.1224 8.86164 12.8486 9.18772C12.5748 9.5138 12.2318 9.7762 11.8438 9.95626C11.4558 10.1363 11.0325 10.2296 10.604 10.2295H10.0066V10.2306ZM11.7951 4.23526C11.7206 3.84255 11.5645 3.46942 11.3366 3.13953C11.1086 2.80964 10.8139 2.53018 10.471 2.31886C10.1281 2.10754 9.74461 1.96898 9.34474 1.91195C8.94488 1.85492 8.5374 1.88067 8.14813 1.98757L2.37313 3.5741C2.16268 3.63177 1.97282 3.74669 1.82514 3.90579C1.67747 4.0649 1.57791 4.2618 1.53779 4.4741L1.27646 5.85295C1.21463 6.17949 1.46546 6.6191 1.92746 6.80833C2.28913 6.95718 2.69629 7.16141 3.12329 7.44295C5.79146 9.20141 6.77263 11.7076 7.41196 13.3368L7.42129 13.3599C7.64296 13.9253 7.80513 14.3337 7.97196 14.6083C8.05246 14.741 8.11196 14.8045 8.14813 14.8333C8.154 14.8377 8.16025 14.8416 8.16679 14.8449C8.33246 14.8449 8.45263 14.7826 8.57396 14.6106C8.71163 14.411 8.82596 14.0903 8.89829 13.653C9.04063 12.7876 8.98813 11.6949 8.90413 10.8641C8.86944 10.518 8.82508 10.1728 8.77113 9.8291L8.76063 9.77141L8.75829 9.75641V9.75295C8.74367 9.67009 8.74753 9.58508 8.76962 9.50385C8.79172 9.42263 8.8315 9.34717 8.88618 9.28275C8.94087 9.21834 9.00913 9.16652 9.08619 9.13095C9.16325 9.09537 9.24725 9.07689 9.33229 9.0768H10.604C10.8612 9.07693 11.1154 9.02096 11.3483 8.91288C11.5812 8.80479 11.7871 8.64724 11.9514 8.45146C12.1158 8.25567 12.2344 8.02646 12.2989 7.78015C12.3635 7.53384 12.3723 7.27648 12.3248 7.02641L11.7951 4.23526Z" fill="#515151"/>
</svg>
