<svg width="10" height="10" viewBox="0 0 10 10" fill="none" xmlns="http://www.w3.org/2000/svg">
<path d="M5.79993 1.26007C5.86691 1.18784 5.919 1.10313 5.95324 1.01077C5.98747 0.918411 6.00318 0.820213 5.99947 0.721783C5.99575 0.623353 5.97269 0.526618 5.93159 0.437102C5.89049 0.347586 5.83216 0.267041 5.75993 0.200067C5.68771 0.133093 5.60299 0.0810008 5.51064 0.0467648C5.41828 0.0125289 5.32008 -0.00318029 5.22165 0.000534052C5.02286 0.00803551 4.83519 0.0941982 4.69993 0.240067L0.699933 4.49007C0.571312 4.62875 0.499843 4.81092 0.499843 5.00007C0.499843 5.18922 0.571312 5.37138 0.699933 5.51007L4.69993 9.76007C4.83519 9.90594 5.02286 9.9921 5.22165 9.9996C5.42044 10.0071 5.61406 9.93533 5.75993 9.80007C5.9058 9.66481 5.99196 9.47714 5.99947 9.27835C6.00697 9.07956 5.93519 8.88594 5.79993 8.74007L2.27393 5.00007L5.79993 1.26007ZM9.79993 1.26007C9.86691 1.18784 9.919 1.10313 9.95324 1.01077C9.98747 0.918411 10.0032 0.820213 9.99947 0.721783C9.99197 0.522994 9.9058 0.335328 9.75993 0.200067C9.61406 0.0648069 9.42044 -0.0069674 9.22165 0.000534052C9.02286 0.00803551 8.83519 0.0941982 8.69993 0.240067L4.69993 4.49007C4.57131 4.62875 4.49984 4.81092 4.49984 5.00007C4.49984 5.18922 4.57131 5.37138 4.69993 5.51007L8.69993 9.76007C8.76691 9.83229 8.84745 9.89062 8.93697 9.93172C9.02648 9.97282 9.12322 9.99589 9.22165 9.9996C9.32008 10.0033 9.41828 9.98761 9.51064 9.95337C9.60299 9.91913 9.68771 9.86704 9.75993 9.80007C9.83216 9.73309 9.89049 9.65255 9.93159 9.56303C9.97269 9.47352 9.99575 9.37678 9.99947 9.27835C10.0032 9.17992 9.98747 9.08172 9.95324 8.98936C9.919 8.89701 9.86691 8.81229 9.79993 8.74007L6.27293 5.00007L9.79993 1.26007Z" fill="#515151"/>
</svg>
