<svg width="9" height="8" viewBox="0 0 9 8" fill="none" xmlns="http://www.w3.org/2000/svg">
<path d="M0.980236 4.22429L4.20224 6.69286L7.42424 4.13286C7.5306 4.04892 7.66411 4.0025 7.80224 4.00144C7.89038 4.0013 7.97748 4.01966 8.05733 4.05522C8.13718 4.09077 8.20782 4.14264 8.26424 4.20715C8.31476 4.26489 8.35282 4.33156 8.37625 4.40333C8.39967 4.47511 8.408 4.55058 8.40076 4.62542C8.39351 4.70026 8.37084 4.77301 8.33402 4.83949C8.29721 4.90598 8.24699 4.96489 8.18624 5.01286L4.58624 7.87001C4.47888 7.95405 4.34421 8 4.20524 8C4.06626 8 3.9316 7.95405 3.82424 7.87001L0.224236 5.11001C0.1626 5.06285 0.111357 5.00456 0.0734529 4.93848C0.0355486 4.8724 0.0117302 4.79984 0.00336669 4.72497C-0.00499683 4.65009 0.00225947 4.57438 0.0247185 4.50219C0.0471775 4.43 0.0843963 4.36274 0.134236 4.30429C0.184179 4.24601 0.245714 4.1977 0.315309 4.16212C0.384904 4.12654 0.461191 4.1044 0.539792 4.09697C0.618393 4.08954 0.697761 4.09696 0.773344 4.11881C0.848926 4.14066 0.919235 4.1765 0.980236 4.22429Z" fill="#EB5757"/>
<path d="M4.58624 3.87001C4.47888 3.95405 4.34421 4 4.20524 4C4.06626 4 3.9316 3.95405 3.82424 3.87001L0.224236 1.11001C0.1626 1.06285 0.111357 1.00456 0.0734529 0.938481C0.0355486 0.872403 0.0117302 0.799841 0.00336669 0.724968C-0.00499683 0.650095 0.00225947 0.574386 0.0247185 0.502192C0.0471775 0.429998 0.0843963 0.362743 0.134236 0.304293C0.183749 0.245592 0.244956 0.196788 0.314338 0.160689C0.38372 0.12459 0.459909 0.101906 0.538526 0.0939405C0.617144 0.0859754 0.696638 0.0928867 0.772442 0.114276C0.848246 0.135666 0.918863 0.171111 0.980236 0.218578L4.20224 2.69286L7.42424 0.132864C7.5306 0.0489202 7.66411 0.00249863 7.80224 0.00143528C7.89038 0.0012989 7.97748 0.0196609 8.05733 0.0552158C8.13718 0.0907707 8.20782 0.142645 8.26424 0.20715C8.31476 0.264892 8.35282 0.331559 8.37625 0.403332C8.39967 0.475106 8.408 0.550576 8.40076 0.625419C8.39351 0.700263 8.37084 0.77301 8.33402 0.839494C8.29721 0.905978 8.24699 0.964893 8.18624 1.01286L4.58624 3.87001Z" fill="#EB5757"/>
</svg>
