<svg width="9" height="8" viewBox="0 0 9 8" fill="none" xmlns="http://www.w3.org/2000/svg">
<path d="M0.980236 3.77571L4.20224 1.30714L7.42424 3.86714C7.5306 3.95108 7.66411 3.9975 7.80224 3.99856C7.89038 3.9987 7.97748 3.98034 8.05733 3.94478C8.13718 3.90923 8.20782 3.85736 8.26424 3.79285C8.31476 3.73511 8.35282 3.66844 8.37625 3.59667C8.39967 3.52489 8.408 3.44942 8.40076 3.37458C8.39351 3.29974 8.37084 3.22699 8.33402 3.16051C8.29721 3.09402 8.24699 3.03511 8.18624 2.98714L4.58624 0.129993C4.47888 0.0459464 4.34421 0 4.20524 0C4.06626 0 3.9316 0.0459464 3.82424 0.129993L0.224236 2.88999C0.1626 2.93715 0.111357 2.99544 0.0734529 3.06152C0.0355486 3.1276 0.0117302 3.20016 0.00336669 3.27503C-0.00499683 3.34991 0.00225947 3.42562 0.0247185 3.49781C0.0471775 3.57 0.0843963 3.63726 0.134236 3.69571C0.184179 3.75399 0.245714 3.8023 0.315309 3.83788C0.384904 3.87346 0.461191 3.8956 0.539792 3.90303C0.618393 3.91046 0.697761 3.90304 0.773344 3.88119C0.848926 3.85934 0.919235 3.8235 0.980236 3.77571Z" fill="#219653"/>
<path d="M4.58624 4.12999C4.47888 4.04595 4.34421 4 4.20524 4C4.06626 4 3.9316 4.04595 3.82424 4.12999L0.224236 6.88999C0.1626 6.93715 0.111357 6.99544 0.0734529 7.06152C0.0355486 7.1276 0.0117302 7.20016 0.00336669 7.27503C-0.00499683 7.34991 0.00225947 7.42561 0.0247185 7.49781C0.0471775 7.57 0.0843963 7.63726 0.134236 7.69571C0.183749 7.75441 0.244956 7.80321 0.314338 7.83931C0.38372 7.87541 0.459909 7.89809 0.538526 7.90606C0.617144 7.91402 0.696638 7.90711 0.772442 7.88572C0.848246 7.86433 0.918863 7.82889 0.980236 7.78142L4.20224 5.30714L7.42424 7.86714C7.5306 7.95108 7.66411 7.9975 7.80224 7.99856C7.89038 7.9987 7.97748 7.98034 8.05733 7.94478C8.13718 7.90923 8.20782 7.85735 8.26424 7.79285C8.31476 7.73511 8.35282 7.66844 8.37625 7.59667C8.39967 7.52489 8.408 7.44942 8.40076 7.37458C8.39351 7.29974 8.37084 7.22699 8.33402 7.16051C8.29721 7.09402 8.24699 7.03511 8.18624 6.98714L4.58624 4.12999Z" fill="#219653"/>
</svg>
