<svg width="22" height="22" viewBox="0 0 22 22" fill="none" xmlns="http://www.w3.org/2000/svg">
<g clip-path="url(#clip0_545_90292)">
<path d="M21.6555 17.5908C21.8458 17.5908 22 17.4366 22 17.2463V5.1211C22 5.02975 21.9637 4.94218 21.8992 4.87751L18.2249 1.20321C18.1602 1.13863 18.0726 1.10236 17.9813 1.10236H10.2422V1.0334C10.2422 0.46359 9.77857 0 9.20876 0H1.0334C0.46359 0 0 0.46359 0 1.0334V12.1482C0 12.718 0.46359 13.1816 1.0334 13.1816H3.6743V21.6555C3.6743 21.8458 3.82847 22 4.01878 22H21.6555C21.8458 22 22 21.8458 22 21.6555V19.0835C22 18.8932 21.8458 18.739 21.6555 18.739C21.4653 18.739 21.311 18.8932 21.311 19.0835V21.311H4.36326V13.1816H9.20876C9.77857 13.1816 10.2422 12.718 10.2422 12.1482V6.22316C10.2422 6.0329 10.088 5.87868 9.89768 5.87868C9.70737 5.87868 9.5532 6.03286 9.5532 6.22316V12.1483C9.5532 12.3382 9.39868 12.4927 9.20872 12.4927H1.0334C0.843434 12.4927 0.688918 12.3382 0.688918 12.1483V1.0334C0.688918 0.843434 0.843434 0.688918 1.0334 0.688918H9.20876C9.39873 0.688918 9.55324 0.843434 9.55324 1.0334V4.38621C9.55324 4.57647 9.70741 4.73069 9.89772 4.73069C10.088 4.73069 10.2422 4.57652 10.2422 4.38621V1.79124H17.6379C17.6374 1.79884 17.6368 1.80645 17.6368 1.81418V5.12106C17.6368 5.31132 17.791 5.46554 17.9813 5.46554H21.2881C21.2959 5.46554 21.3035 5.46489 21.3111 5.46438V17.2464C21.3111 17.4366 21.4653 17.5908 21.6555 17.5908ZM18.3257 4.77662V2.27837L20.8239 4.77662H18.3257Z" fill="#515151"/>
<path d="M8.51595 15.7996H6.21948C6.02922 15.7996 5.875 15.9537 5.875 16.144C5.875 16.3343 6.02917 16.4885 6.21948 16.4885H8.51595C8.70621 16.4885 8.86043 16.3343 8.86043 16.144C8.86038 15.9538 8.70621 15.7996 8.51595 15.7996Z" fill="#515151"/>
<path d="M8.51595 17.6367H6.21948C6.02922 17.6367 5.875 17.7909 5.875 17.9812C5.875 18.1715 6.02917 18.3257 6.21948 18.3257H8.51595C8.70621 18.3257 8.86043 18.1715 8.86043 17.9812C8.86038 17.7909 8.70621 17.6367 8.51595 17.6367Z" fill="#515151"/>
<path d="M15.4101 10.6555C14.0022 10.6555 12.6899 11.2151 11.7148 12.2312C11.583 12.3685 11.5875 12.5865 11.7248 12.7183C11.8621 12.8501 12.0801 12.8455 12.2118 12.7083C13.0558 11.8288 14.1917 11.3445 15.4101 11.3445C17.854 11.3445 19.8423 13.3327 19.8423 15.7766C19.8423 18.2205 17.854 20.2088 15.4101 20.2088C12.9662 20.2088 10.978 18.2205 10.978 15.7766C10.978 15.0548 11.1459 14.3667 11.4771 13.7313C11.565 13.5625 11.4995 13.3545 11.3309 13.2666C11.1622 13.1788 10.9541 13.2441 10.8662 13.4128C10.4887 14.1372 10.2891 14.9546 10.2891 15.7766C10.2891 18.6004 12.5864 20.8977 15.4102 20.8977C18.2339 20.8977 20.5313 18.6004 20.5313 15.7766C20.5313 12.9528 18.2339 10.6555 15.4101 10.6555Z" fill="#F4A72A"/>
<path d="M16.1944 15.478L15.6606 15.4623V13.549H16.8777C17.068 13.549 17.2222 13.3948 17.2222 13.2045C17.2222 13.0142 17.068 12.86 16.8777 12.86H15.6606V12.4696C15.6606 12.2793 15.5064 12.1251 15.3161 12.1251C15.1258 12.1251 14.9716 12.2793 14.9716 12.4696V12.86H14.6271C14.0573 12.86 13.5938 13.3236 13.5938 13.8934V15.0876C13.5938 15.6555 14.0543 16.1179 14.6216 16.121L14.9716 16.1312V18.004H13.9382C13.748 18.004 13.5938 18.1582 13.5938 18.3485C13.5938 18.5388 13.7479 18.693 13.9382 18.693H14.9716V19.0834C14.9716 19.2737 15.1258 19.4279 15.3161 19.4279C15.5064 19.4279 15.6606 19.2737 15.6606 19.0834V18.693H16.1888C16.7586 18.693 17.2222 18.2294 17.2222 17.6596V16.5114C17.2222 15.9435 16.7616 15.4811 16.1944 15.478ZM14.9717 15.4421L14.6374 15.4322C14.634 15.4321 14.6306 15.4321 14.6272 15.4321C14.4373 15.4321 14.2828 15.2776 14.2828 15.0876V13.8935C14.2828 13.7035 14.4373 13.549 14.6272 13.549H14.9717L14.9717 15.4421ZM16.5333 17.6597C16.5333 17.8496 16.3788 18.0041 16.1888 18.0041H15.6606V16.1516L16.1787 16.1668C16.182 16.1669 16.1854 16.167 16.1888 16.167C16.3788 16.167 16.5333 16.3215 16.5333 16.5115V17.6597Z" fill="#F4A72A"/>
<path d="M8.79469 1.10229H1.44604C1.25578 1.10229 1.10156 1.25647 1.10156 1.44678V3.28395C1.10156 3.47421 1.25573 3.62843 1.44604 3.62843H8.79469C8.98495 3.62843 9.13917 3.47426 9.13917 3.28395V1.44678C9.13917 1.25651 8.985 1.10229 8.79469 1.10229ZM8.45021 2.93947H1.79052V1.79126H8.45025V2.93947H8.45021Z" fill="#515151"/>
<path d="M2.91579 4.04175H1.44604C1.25578 4.04175 1.10156 4.19592 1.10156 4.38623V5.85597C1.10156 6.04624 1.25573 6.20045 1.44604 6.20045H2.91579C3.10605 6.20045 3.26027 6.04628 3.26027 5.85597V4.38623C3.26023 4.19592 3.10605 4.04175 2.91579 4.04175ZM2.57131 5.51145H1.79052V4.73067H2.57131V5.51145Z" fill="#515151"/>
<path d="M5.85329 4.04175H4.38354C4.19328 4.04175 4.03906 4.19592 4.03906 4.38623V5.85597C4.03906 6.04624 4.19323 6.20045 4.38354 6.20045H5.85329C6.04355 6.20045 6.19777 6.04628 6.19777 5.85597V4.38623C6.19777 4.19592 6.04355 4.04175 5.85329 4.04175ZM5.50881 5.51145H4.72802V4.73067H5.50881V5.51145Z" fill="#515151"/>
<path d="M8.7986 4.04175H7.32886C7.13859 4.04175 6.98438 4.19592 6.98438 4.38623V5.85597C6.98438 6.04624 7.13855 6.20045 7.32886 6.20045H8.7986C8.98887 6.20045 9.14308 6.04628 9.14308 5.85597V4.38623C9.14308 4.19592 8.98891 4.04175 8.7986 4.04175ZM8.45412 5.51145H7.67334V4.73067H8.45412V5.51145Z" fill="#515151"/>
<path d="M2.91579 6.9812H1.44604C1.25578 6.9812 1.10156 7.13537 1.10156 7.32568V8.79543C1.10156 8.98569 1.25573 9.13991 1.44604 9.13991H2.91579C3.10605 9.13991 3.26027 8.98574 3.26027 8.79543V7.32568C3.26023 7.13537 3.10605 6.9812 2.91579 6.9812ZM2.57131 8.4509H1.79052V7.67012H2.57131V8.4509Z" fill="#515151"/>
<path d="M5.85329 6.9812H4.38354C4.19328 6.9812 4.03906 7.13537 4.03906 7.32568V8.79543C4.03906 8.98569 4.19323 9.13991 4.38354 9.13991H5.85329C6.04355 9.13991 6.19777 8.98574 6.19777 8.79543V7.32568C6.19777 7.13537 6.04355 6.9812 5.85329 6.9812ZM5.50881 8.4509H4.72802V7.67012H5.50881V8.4509Z" fill="#515151"/>
<path d="M2.91579 9.92065H1.44604C1.25578 9.92065 1.10156 10.0748 1.10156 10.2651V11.7349C1.10156 11.9251 1.25573 12.0794 1.44604 12.0794H2.91579C3.10605 12.0794 3.26027 11.9252 3.26027 11.7349V10.2651C3.26023 10.0748 3.10605 9.92065 2.91579 9.92065ZM2.57131 11.3904H1.79052V10.6096H2.57131V11.3904Z" fill="#515151"/>
<path d="M5.85329 9.92065H4.38354C4.19328 9.92065 4.03906 10.0748 4.03906 10.2651V11.7349C4.03906 11.9251 4.19323 12.0794 4.38354 12.0794H5.85329C6.04355 12.0794 6.19777 11.9252 6.19777 11.7349V10.2651C6.19777 10.0748 6.04355 9.92065 5.85329 9.92065ZM5.50881 11.3904H4.72802V10.6096H5.50881V11.3904Z" fill="#515151"/>
<path d="M8.7986 6.9812H7.32886C7.13859 6.9812 6.98438 7.13537 6.98438 7.32568V11.7349C6.98438 11.9251 7.13855 12.0794 7.32886 12.0794H8.7986C8.98887 12.0794 9.14308 11.9252 9.14308 11.7349V7.32568C9.14308 7.13537 8.98891 6.9812 8.7986 6.9812ZM8.45412 11.3904H7.67334V7.67016H8.45412V11.3904Z" fill="#515151"/>
<path d="M20.4249 8.12276L18.5485 6.34097C18.4106 6.20992 18.1926 6.21563 18.0616 6.35356C17.9305 6.49149 17.9362 6.70952 18.0742 6.84053L19.6941 8.3789L19.4082 8.66481L14.4557 3.71206C14.4075 3.66398 14.3463 3.63119 14.2796 3.61787L13.0032 3.36259L12.3887 2.68502C12.2609 2.54404 12.0429 2.53338 11.9021 2.66122C11.7612 2.789 11.7506 3.00681 11.8783 3.14779C11.8783 3.14779 12.5866 3.92282 12.6102 3.93833L12.835 5.06244C12.8483 5.12913 12.8811 5.19036 12.9292 5.23848L18.4178 10.7271C18.6193 10.9286 18.8839 11.0293 19.1485 11.0293C19.4131 11.0293 19.6777 10.9286 19.8792 10.7271H19.8792L19.9442 10.6622C20.347 10.2593 20.347 9.60363 19.9442 9.20076L19.8954 9.15203L20.4313 8.61617C20.5663 8.48107 20.5634 8.25424 20.4249 8.12276ZM13.4901 4.82516L13.3521 4.135L14.0422 4.27302L17.3622 7.59313L16.8102 8.14519L13.4901 4.82516ZM19.4571 10.175L19.3922 10.2399C19.2578 10.3741 19.0393 10.3743 18.905 10.2399L17.2974 8.63233L17.8495 8.08026L19.4571 9.68785C19.5914 9.82213 19.5913 10.0407 19.4571 10.175Z" fill="#515151"/>
</g>
<defs>
<clipPath id="clip0_545_90292">
<rect width="22" height="22" fill="white"/>
</clipPath>
</defs>
</svg>
