<svg width="15" height="15" viewBox="0 0 15 15" fill="none" xmlns="http://www.w3.org/2000/svg">
<path d="M7.5 0C3.36 0 0 3.36 0 7.5C0 11.64 3.36 15 7.5 15C11.64 15 15 11.64 15 7.5C15 3.36 11.64 0 7.5 0ZM6.75 13.4475C3.7875 13.08 1.5 10.56 1.5 7.5C1.5 7.035 1.56 6.5925 1.6575 6.1575L5.25 9.75V10.5C5.25 11.325 5.925 12 6.75 12V13.4475ZM11.925 11.5425C11.73 10.935 11.175 10.5 10.5 10.5H9.75V8.25C9.75 7.8375 9.4125 7.5 9 7.5H4.5V6H6C6.4125 6 6.75 5.6625 6.75 5.25V3.75H8.25C9.075 3.75 9.75 3.075 9.75 2.25V1.9425C11.9475 2.835 13.5 4.9875 13.5 7.5C13.5 9.06 12.9 10.4775 11.925 11.5425Z" fill="#515151"/>
</svg>
