<svg width="12" height="15" viewBox="0 0 12 15" fill="none" xmlns="http://www.w3.org/2000/svg">
<mask id="path-1-inside-1_1879_102397" fill="white">
<path d="M10.786 14.359H0.643308V0.64029H10.786V14.359ZM6.31175 0H0.321307C0.236725 0 0.153533 0.0332775 0.0945388 0.0934811C0.0348336 0.152977 0 0.23586 0 0.320146V9.15314V14.6799C0 14.7634 0.0348336 14.8463 0.0945388 14.9058C0.153533 14.9653 0.236725 15 0.321307 15H11.1073C11.1919 15 11.2751 14.9653 11.3355 14.9058C11.3952 14.8463 11.4286 14.7634 11.4286 14.6799V0.320146C11.4286 0.23586 11.3952 0.152977 11.3355 0.0934811C11.2751 0.0332775 11.1919 0 11.1073 0H6.31175Z"/>
</mask>
<path d="M10.786 14.359H11.786V15.359H10.786V14.359ZM0.643308 14.359V15.359H-0.356692V14.359H0.643308ZM0.643308 0.64029H-0.356692V-0.35971H0.643308V0.64029ZM10.786 0.64029V-0.35971H11.786V0.64029H10.786ZM0.0945388 0.0934811L0.808835 0.793426L0.800402 0.801829L0.0945388 0.0934811ZM0.0945388 14.9058L0.800415 14.1974L0.804631 14.2017L0.0945388 14.9058ZM11.3355 14.9058L12.0414 15.6142L12.0372 15.6183L11.3355 14.9058ZM11.3355 0.0934811L12.0414 -0.614867L11.3355 0.0934811ZM10.786 15.359H0.643308V13.359H10.786V15.359ZM-0.356692 14.359V0.64029H1.64331V14.359H-0.356692ZM0.643308 -0.35971H10.786V1.64029H0.643308V-0.35971ZM11.786 0.64029V14.359H9.78603V0.64029H11.786ZM6.31175 1H0.321307V-1H6.31175V1ZM0.321307 1C0.491453 1 0.670111 0.934893 0.808785 0.793376L-0.619707 -0.606414C-0.363045 -0.868339 -0.0180041 -1 0.321307 -1V1ZM0.800402 0.801829C0.926637 0.676038 1 0.504994 1 0.320146H-1C-1 -0.0332747 -0.85697 -0.370084 -0.611325 -0.614867L0.800402 0.801829ZM1 0.320146V9.15314H-1V0.320146H1ZM1 9.15314V14.6799H-1V9.15314H1ZM1 14.6799C1 14.4931 0.925754 14.3224 0.800402 14.1974L-0.611325 15.6141C-0.856087 15.3702 -1 15.0338 -1 14.6799H1ZM0.804631 14.2017C0.675182 14.0711 0.502454 14 0.321307 14V16C-0.0290054 16 -0.368115 15.8594 -0.615553 15.6099L0.804631 14.2017ZM0.321307 14H11.1073V16H0.321307V14ZM11.1073 14C10.924 14 10.7566 14.0724 10.6338 14.1933L12.0372 15.6183C11.7935 15.8582 11.4599 16 11.1073 16V14ZM10.6296 14.1974C10.4961 14.3306 10.4286 14.5047 10.4286 14.6799H12.4286C12.4286 15.0221 12.2943 15.362 12.0414 15.6141L10.6296 14.1974ZM10.4286 14.6799V0.320146H12.4286V14.6799H10.4286ZM10.4286 0.320146C10.4286 0.493333 10.4952 0.667873 10.6296 0.801829L12.0414 -0.614867C12.2952 -0.36192 12.4286 -0.0216131 12.4286 0.320146H10.4286ZM10.6296 0.801829C10.7619 0.933613 10.9348 1 11.1073 1V-1C11.449 -1 11.7883 -0.867059 12.0414 -0.614867L10.6296 0.801829ZM11.1073 1H6.31175V-1H11.1073V1Z" fill="#515151" mask="url(#path-1-inside-1_1879_102397)"/>
<mask id="path-3-inside-2_1879_102397" fill="white">
<path d="M2.13965 3.31934H10.202V2.35821H2.13965V3.31934Z"/>
</mask>
<path d="M2.13965 3.31934V4.31934H1.13965V3.31934H2.13965ZM10.202 3.31934H11.202V4.31934H10.202V3.31934ZM10.202 2.35821V1.35821H11.202V2.35821H10.202ZM2.13965 2.35821H1.13965V1.35821H2.13965V2.35821ZM2.13965 2.31934H10.202V4.31934H2.13965V2.31934ZM9.20196 3.31934V2.35821H11.202V3.31934H9.20196ZM10.202 3.35821H2.13965V1.35821H10.202V3.35821ZM3.13965 2.35821V3.31934H1.13965V2.35821H3.13965Z" fill="#F4A72A" mask="url(#path-3-inside-2_1879_102397)"/>
<mask id="path-5-inside-3_1879_102397" fill="white">
<path d="M1.22852 5.49316H10.2021V4.53204H1.22852V5.49316Z"/>
</mask>
<path d="M1.22852 5.49316V6.49316H0.228516V5.49316H1.22852ZM10.2021 5.49316H11.2021V6.49316H10.2021V5.49316ZM10.2021 4.53204V3.53204H11.2021V4.53204H10.2021ZM1.22852 4.53204H0.228516V3.53204H1.22852V4.53204ZM1.22852 4.49316H10.2021V6.49316H1.22852V4.49316ZM9.20206 5.49316V4.53204H11.2021V5.49316H9.20206ZM10.2021 5.53204H1.22852V3.53204H10.2021V5.53204ZM2.22852 4.53204V5.49316H0.228516V4.53204H2.22852Z" fill="#F4A72A" mask="url(#path-5-inside-3_1879_102397)"/>
<mask id="path-7-inside-4_1879_102397" fill="white">
<path d="M1.22852 7.66602H10.2021V6.70631H1.22852V7.66602Z"/>
</mask>
<path d="M1.22852 7.66602V8.66602H0.228516V7.66602H1.22852ZM10.2021 7.66602H11.2021V8.66602H10.2021V7.66602ZM10.2021 6.70631V5.70631H11.2021V6.70631H10.2021ZM1.22852 6.70631H0.228516V5.70631H1.22852V6.70631ZM1.22852 6.66602H10.2021V8.66602H1.22852V6.66602ZM9.20206 7.66602V6.70631H11.2021V7.66602H9.20206ZM10.2021 7.70631H1.22852V5.70631H10.2021V7.70631ZM2.22852 6.70631V7.66602H0.228516V6.70631H2.22852Z" fill="#F4A72A" mask="url(#path-7-inside-4_1879_102397)"/>
<mask id="path-9-inside-5_1879_102397" fill="white">
<path d="M1.22852 9.83984H10.2021V8.87941H1.22852V9.83984Z"/>
</mask>
<path d="M1.22852 9.83984V10.8398H0.228516V9.83984H1.22852ZM10.2021 9.83984H11.2021V10.8398H10.2021V9.83984ZM10.2021 8.87941V7.87941H11.2021V8.87941H10.2021ZM1.22852 8.87941H0.228516V7.87941H1.22852V8.87941ZM1.22852 8.83984H10.2021V10.8398H1.22852V8.83984ZM9.20206 9.83984V8.87941H11.2021V9.83984H9.20206ZM10.2021 9.87941H1.22852V7.87941H10.2021V9.87941ZM2.22852 8.87941V9.83984H0.228516V8.87941H2.22852Z" fill="#F4A72A" mask="url(#path-9-inside-5_1879_102397)"/>
<mask id="path-11-inside-6_1879_102397" fill="white">
<path d="M1.22852 12.0137H7.97166V11.054H1.22852V12.0137Z"/>
</mask>
<path d="M1.22852 12.0137V13.0137H0.228516V12.0137H1.22852ZM7.97166 12.0137H8.97166V13.0137H7.97166V12.0137ZM7.97166 11.054V10.054H8.97166V11.054H7.97166ZM1.22852 11.054H0.228516V10.054H1.22852V11.054ZM1.22852 11.0137H7.97166V13.0137H1.22852V11.0137ZM6.97166 12.0137V11.054H8.97166V12.0137H6.97166ZM7.97166 12.054H1.22852V10.054H7.97166V12.054ZM2.22852 11.054V12.0137H0.228516V11.054H2.22852Z" fill="#F4A72A" mask="url(#path-11-inside-6_1879_102397)"/>
</svg>
