<svg width="16" height="18" viewBox="0 0 16 18" fill="none" xmlns="http://www.w3.org/2000/svg">
<path d="M7.54222 3L8.00087 2.41952L8.45952 3H7.54222Z" stroke="#515151" stroke-width="3"/>
<mask id="path-2-inside-1_542_106961" fill="white">
<path d="M1.77778 17.9998H14.2222C15.2027 17.9998 16 17.1925 16 16.1998V8.0998C16 7.1071 15.2027 6.2998 14.2222 6.2998H10.6667V8.0998H14.2222V16.1998H1.77778V8.0998H5.33333V6.2998H1.77778C0.797333 6.2998 0 7.1071 0 8.0998V16.1998C0 17.1925 0.797333 17.9998 1.77778 17.9998Z"/>
</mask>
<path d="M10.6667 6.2998V3.2998H7.66667V6.2998H10.6667ZM10.6667 8.0998H7.66667V11.0998H10.6667V8.0998ZM14.2222 8.0998H17.2222V5.0998H14.2222V8.0998ZM14.2222 16.1998V19.1998H17.2222V16.1998H14.2222ZM1.77778 16.1998H-1.22222V19.1998H1.77778V16.1998ZM1.77778 8.0998V5.0998H-1.22222V8.0998H1.77778ZM5.33333 8.0998V11.0998H8.33333V8.0998H5.33333ZM5.33333 6.2998H8.33333V3.2998H5.33333V6.2998ZM1.77778 20.9998H14.2222V14.9998H1.77778V20.9998ZM14.2222 20.9998C16.8945 20.9998 19 18.8141 19 16.1998H13C13 15.5709 13.5108 14.9998 14.2222 14.9998V20.9998ZM19 16.1998V8.0998H13V16.1998H19ZM19 8.0998C19 5.48549 16.8945 3.2998 14.2222 3.2998V9.2998C13.5108 9.2998 13 8.72871 13 8.0998H19ZM14.2222 3.2998H10.6667V9.2998H14.2222V3.2998ZM7.66667 6.2998V8.0998H13.6667V6.2998H7.66667ZM10.6667 11.0998H14.2222V5.0998H10.6667V11.0998ZM11.2222 8.0998V16.1998H17.2222V8.0998H11.2222ZM14.2222 13.1998H1.77778V19.1998H14.2222V13.1998ZM4.77778 16.1998V8.0998H-1.22222V16.1998H4.77778ZM1.77778 11.0998H5.33333V5.0998H1.77778V11.0998ZM8.33333 8.0998V6.2998H2.33333V8.0998H8.33333ZM5.33333 3.2998H1.77778V9.2998H5.33333V3.2998ZM1.77778 3.2998C-0.894547 3.2998 -3 5.48549 -3 8.0998H3C3 8.72871 2.48921 9.2998 1.77778 9.2998V3.2998ZM-3 8.0998V16.1998H3V8.0998H-3ZM-3 16.1998C-3 18.8141 -0.894547 20.9998 1.77778 20.9998V14.9998C2.48921 14.9998 3 15.5709 3 16.1998H-3Z" fill="#515151" mask="url(#path-2-inside-1_542_106961)"/>
</svg>
