<svg width="22" height="15" viewBox="0 0 22 15" fill="none" xmlns="http://www.w3.org/2000/svg">
<path d="M11 0.85556C1.7875 0.85556 0 8.22223 0 8.22223C0 8.22223 3.025 14.1445 10.8625 14.1445C18.7 14.1445 22 8.36667 22 8.36667C22 8.36667 20.2125 0.85556 11 0.85556ZM7.2875 3.02223C7.975 2.58889 9.075 2.58889 9.075 2.58889C9.075 2.58889 8.3875 3.88889 8.3875 4.9C8.3875 5.91112 8.6625 6.48889 8.6625 6.48889L7.15 6.77778C7.15 6.77778 6.7375 6.05556 6.7375 5.04445C6.7375 3.88889 7.2875 3.02223 7.2875 3.02223ZM10.8625 12.7C5.225 12.7 2.3375 9.37778 1.5125 8.07778C1.925 7.06667 3.025 4.9 5.775 3.45556C5.6375 4.03334 5.5 4.61112 5.5 5.33334C5.5 8.51112 7.975 11.1111 11 11.1111C14.025 11.1111 16.5 8.51112 16.5 5.33334C16.5 4.61112 16.3625 4.03334 16.225 3.45556C18.975 4.75556 20.075 7.06667 20.4875 8.07778C19.525 9.37778 16.6375 12.7 10.8625 12.7Z" fill="#515151"/>
</svg>
