<svg width="20" height="22" viewBox="0 0 20 22" fill="none" xmlns="http://www.w3.org/2000/svg">
<mask id="path-1-inside-1_2016_115100" fill="white">
<path d="M17.5237 21.0599H4.57517V0.939093H17.5237V21.0599ZM11.8117 0H4.1641C4.05612 0 3.94991 0.0488052 3.8746 0.137106C3.79838 0.224365 3.75391 0.345926 3.75391 0.469545V13.4246V21.5305C3.75391 21.653 3.79838 21.7746 3.8746 21.8618C3.94991 21.9491 4.05612 22 4.1641 22H17.9339C18.0419 22 18.148 21.9491 18.2251 21.8618C18.3014 21.7746 18.344 21.653 18.344 21.5305V0.469545C18.344 0.345926 18.3014 0.224365 18.2251 0.137106C18.148 0.0488052 18.0419 0 17.9339 0H11.8117Z"/>
</mask>
<path d="M17.5237 21.0599H19.5237V23.0599H17.5237V21.0599ZM4.57517 21.0599V23.0599H2.57517V21.0599H4.57517ZM4.57517 0.939093H2.57517V-1.06091H4.57517V0.939093ZM17.5237 0.939093V-1.06091H19.5237V0.939093H17.5237ZM3.8746 0.137106L5.39627 1.435L5.38862 1.44396L5.38087 1.45283L3.8746 0.137106ZM3.8746 21.8618L5.3809 20.5461L5.38865 20.5551L3.8746 21.8618ZM18.2251 21.8618L19.7314 23.1776L19.7237 23.1864L18.2251 21.8618ZM18.2251 0.137106L19.7314 -1.17862L18.2251 0.137106ZM17.5237 23.0599H4.57517V19.0599H17.5237V23.0599ZM2.57517 21.0599V0.939093H6.57517V21.0599H2.57517ZM4.57517 -1.06091H17.5237V2.93909H4.57517V-1.06091ZM19.5237 0.939093V21.0599H15.5237V0.939093H19.5237ZM11.8117 2H4.1641V-2H11.8117V2ZM4.1641 2C4.66183 2 5.10488 1.77663 5.39627 1.435L2.35293 -1.16079C2.79495 -1.67902 3.4504 -2 4.1641 -2V2ZM5.38087 1.45283C5.6416 1.15434 5.75391 0.80068 5.75391 0.469545H1.75391C1.75391 -0.108826 1.95515 -0.705606 2.36832 -1.17862L5.38087 1.45283ZM5.75391 0.469545V13.4246H1.75391V0.469545H5.75391ZM5.75391 13.4246V21.5305H1.75391V13.4246H5.75391ZM5.75391 21.5305C5.75391 21.196 5.64019 20.843 5.38087 20.5461L2.36832 23.1776C1.95656 22.7062 1.75391 22.11 1.75391 21.5305H5.75391ZM5.38865 20.5551C5.116 20.2392 4.68477 20 4.1641 20V24C3.42747 24 2.78382 23.659 2.36055 23.1686L5.38865 20.5551ZM4.1641 20H17.9339V24H4.1641V20ZM17.9339 20C17.4098 20 16.9883 20.2412 16.7266 20.5373L19.7237 23.1864C19.3077 23.657 18.6739 24 17.9339 24V20ZM16.7189 20.5461C16.4464 20.858 16.344 21.2174 16.344 21.5305H20.344C20.344 22.0886 20.1563 22.6911 19.7314 23.1776L16.7189 20.5461ZM16.344 21.5305V0.469545H20.344V21.5305H16.344ZM16.344 0.469545C16.344 0.779253 16.445 1.13934 16.7189 1.45283L19.7314 -1.17862C20.1577 -0.690607 20.344 -0.0873985 20.344 0.469545H16.344ZM16.7189 1.45283C16.9998 1.77448 17.4323 2 17.9339 2V-2C18.6514 -2 19.2962 -1.67687 19.7314 -1.17862L16.7189 1.45283ZM17.9339 2H11.8117V-2H17.9339V2Z" fill="#515151" mask="url(#path-1-inside-1_2016_115100)"/>
<rect y="2" width="20" height="10" rx="2" fill="#F4A72A"/>
<path d="M1.52344 9.53125C1.52344 9.38542 1.57292 9.26302 1.67188 9.16406C1.77083 9.0625 1.90495 9.01172 2.07422 9.01172C2.24609 9.01172 2.38021 9.0625 2.47656 9.16406C2.57552 9.26302 2.625 9.38542 2.625 9.53125C2.625 9.67708 2.57552 9.79948 2.47656 9.89844C2.38021 9.9974 2.24609 10.0469 2.07422 10.0469C1.90495 10.0469 1.77083 9.9974 1.67188 9.89844C1.57292 9.79948 1.52344 9.67708 1.52344 9.53125ZM5.96484 7.87891H4.48438V7.10156H5.96484C6.22266 7.10156 6.43099 7.0599 6.58984 6.97656C6.7487 6.89323 6.86458 6.77865 6.9375 6.63281C7.01302 6.48438 7.05078 6.3151 7.05078 6.125C7.05078 5.94531 7.01302 5.77734 6.9375 5.62109C6.86458 5.46224 6.7487 5.33464 6.58984 5.23828C6.43099 5.14193 6.22266 5.09375 5.96484 5.09375H4.78516V10H3.80469V4.3125H5.96484C6.40495 4.3125 6.77865 4.39062 7.08594 4.54688C7.39583 4.70052 7.63151 4.91406 7.79297 5.1875C7.95443 5.45833 8.03516 5.76823 8.03516 6.11719C8.03516 6.48438 7.95443 6.79948 7.79297 7.0625C7.63151 7.32552 7.39583 7.52734 7.08594 7.66797C6.77865 7.80859 6.40495 7.87891 5.96484 7.87891ZM10.5664 10H9.35156L9.35938 9.22266H10.5664C10.918 9.22266 11.2122 9.14583 11.4492 8.99219C11.6888 8.83854 11.8685 8.61849 11.9883 8.33203C12.1107 8.04557 12.1719 7.70443 12.1719 7.30859V7C12.1719 6.69271 12.1367 6.42057 12.0664 6.18359C11.9987 5.94661 11.8971 5.7474 11.7617 5.58594C11.6289 5.42448 11.4648 5.30208 11.2695 5.21875C11.0768 5.13542 10.8542 5.09375 10.6016 5.09375H9.32812V4.3125H10.6016C10.9792 4.3125 11.3242 4.3763 11.6367 4.50391C11.9492 4.62891 12.2188 4.8099 12.4453 5.04688C12.6745 5.28385 12.8503 5.56771 12.9727 5.89844C13.0951 6.22917 13.1562 6.59896 13.1562 7.00781V7.30859C13.1562 7.71745 13.0951 8.08724 12.9727 8.41797C12.8503 8.7487 12.6745 9.03255 12.4453 9.26953C12.2161 9.50391 11.9427 9.6849 11.625 9.8125C11.3099 9.9375 10.957 10 10.5664 10ZM9.89453 4.3125V10H8.91406V4.3125H9.89453ZM15.1211 4.3125V10H14.1406V4.3125H15.1211ZM17.4414 6.80078V7.57812H14.8711V6.80078H17.4414ZM17.7656 4.3125V5.09375H14.8711V4.3125H17.7656Z" fill="white"/>
</svg>
