<svg width="14" height="16" viewBox="0 0 14 16" fill="none" xmlns="http://www.w3.org/2000/svg">
<path d="M0 9.77778C0 8.22222 0.364583 6.83704 1.09375 5.62222C1.82292 4.40741 2.625 3.38519 3.5 2.55556C4.375 1.72593 5.17708 1.09244 5.90625 0.655111L7 0V2.93333C7 3.48148 7.18229 3.91467 7.54688 4.23289C7.91146 4.5517 8.31979 4.71111 8.77187 4.71111C9.01979 4.71111 9.25692 4.65926 9.48325 4.55556C9.709 4.45185 9.91667 4.28148 10.1062 4.04444L10.5 3.55556C11.55 4.17778 12.3958 5.04059 13.0375 6.144C13.6792 7.248 14 8.45926 14 9.77778C14 11.0815 13.6865 12.2702 13.0594 13.344C12.4323 14.4184 11.6083 15.2667 10.5875 15.8889C10.8354 15.5333 11.0288 15.1443 11.1676 14.7218C11.3059 14.2999 11.375 13.8519 11.375 13.3778C11.375 12.7852 11.2656 12.2261 11.0469 11.7004C10.8281 11.1742 10.5146 10.7037 10.1062 10.2889L7 7.2L3.91563 10.2889C3.49271 10.7185 3.17188 11.1926 2.95312 11.7111C2.73438 12.2296 2.625 12.7852 2.625 13.3778C2.625 13.8519 2.69442 14.2999 2.83325 14.7218C2.9715 15.1443 3.16458 15.5333 3.4125 15.8889C2.39167 15.2667 1.56771 14.4184 0.940625 13.344C0.313542 12.2702 0 11.0815 0 9.77778ZM7 9.68889L8.85938 11.5333C9.10729 11.7852 9.29688 12.0667 9.42812 12.3778C9.55937 12.6889 9.625 13.0222 9.625 13.3778C9.625 14.1037 9.36979 14.7221 8.85938 15.2329C8.34896 15.7443 7.72917 16 7 16C6.27083 16 5.65104 15.7443 5.14062 15.2329C4.63021 14.7221 4.375 14.1037 4.375 13.3778C4.375 13.037 4.44063 12.7076 4.57188 12.3893C4.70313 12.0705 4.89271 11.7852 5.14062 11.5333L7 9.68889Z" fill="#F4A72A"/>
</svg>
