<svg width="18" height="18" viewBox="0 0 18 18" fill="none" xmlns="http://www.w3.org/2000/svg">
<path d="M0.206655 -1.90735e-06C0.151954 -1.90735e-06 0.0990679 0.0203152 0.0601698 0.0568619C0.0218796 0.0939884 0 0.144451 0 0.196661V17.8028C0 17.855 0.0218796 17.9054 0.0601698 17.9426C0.0990679 17.9785 0.151954 18 0.206655 18H1.74981C1.80451 18 1.85618 17.9797 1.89568 17.9426C1.93397 17.9049 1.95585 17.8556 1.95585 17.8028V0.196661C1.95585 0.143871 1.93397 0.0945683 1.89568 0.0568619C1.85618 0.0203152 1.80451 -1.90735e-06 1.74981 -1.90735e-06H0.206655Z" fill="#515151"/>
<path d="M3.52441 1.05978V9.46288L16.389 5.26133L3.52441 1.05978Z" stroke="#F4A72A"/>
</svg>
