<svg width="30" height="33" viewBox="0 0 30 33" fill="none" xmlns="http://www.w3.org/2000/svg">
<path d="M29.9701 30.1312C29.9501 29.9864 29.9169 29.8517 29.8703 29.7237C29.541 28.4441 28.7894 26.1072 28.4468 25.0633C28.4102 24.8815 28.3503 24.7064 28.2772 24.5414C28.2772 24.538 28.2772 24.538 28.2772 24.538C28.0676 24.0834 27.7284 23.7029 27.306 23.4504C27.2794 23.4335 27.2262 23.4032 27.1563 23.3662C27.1264 23.3527 27.0965 23.3359 27.0698 23.3224C26.2417 22.9251 23.6973 21.898 23.6973 21.898C22.4235 21.3424 21.1098 20.8642 19.7628 20.3793C19.52 21.3895 17.245 28.104 16.8825 29.0368L16.5965 22.8005C16.6929 22.6523 16.7594 22.4839 16.8326 22.3257L17.7805 20.4265C17.112 20.9922 16.1075 21.3491 14.9867 21.3491C13.8925 21.3491 12.9113 21.009 12.2395 20.4635L13.1707 22.3257C13.2472 22.4873 13.3137 22.6557 13.4069 22.8005L13.1208 29.0368C12.755 28.104 10.4734 21.3862 10.2373 20.376C8.89357 20.8609 7.5765 21.3357 6.30266 21.8947C6.30266 21.8947 3.75832 22.9284 2.93016 23.319C2.90022 23.3325 2.87029 23.346 2.84368 23.3628C2.77384 23.3965 2.7173 23.4268 2.69401 23.447C2.27494 23.7029 1.93237 24.0834 1.72284 24.538V24.5414C1.64634 24.7064 1.5898 24.8815 1.55322 25.0633C1.21064 26.1072 0.45898 28.4374 0.129712 29.7237C0.0831486 29.8551 0.0498892 29.9931 0.0299335 30.1312C0.00997788 30.2524 0 30.3837 0 30.5117C0 31.8856 1.09756 32.9968 2.45455 32.9968H4.79934C8.15521 32.9968 11.5078 33.0002 14.8636 32.9968C14.9102 32.9968 14.9501 32.9968 14.9967 32.9968C15.0432 32.9968 15.0831 32.9968 15.1297 32.9968C18.4856 32.9968 21.8381 32.9968 25.194 32.9968H27.5388C28.8958 32.9968 29.9933 31.8856 29.9933 30.5117C29.9967 30.3871 29.9867 30.2558 29.9701 30.1312Z" fill="white"/>
<path d="M21.4091 8.82918C21.4091 8.39143 21.4922 6.79867 21.4922 6.43163C21.4955 2.87908 18.6485 0 15.1397 0C15.1363 0 15.133 0 15.1263 0C15.123 0 15.1164 0 15.113 0C15.0698 0 15.0332 0 14.9933 0C14.9501 0 14.9135 0 14.8736 0C14.8703 0 14.8669 0 14.8603 0C14.8569 0 14.8536 0 14.847 0C11.3414 0 8.49442 2.88245 8.49442 6.435C8.49442 6.80204 8.57757 8.39143 8.57757 8.83255C8.42457 8.84265 7.00107 8.49582 7.15406 10.2199C7.48 13.8768 8.85695 13.1697 8.89686 13.1697C9.57535 15.3753 10.6297 16.7829 11.6607 17.6786C13.2705 19.0794 14.8337 19.2309 14.8603 19.2309C14.9068 19.2309 14.9467 19.2343 14.9933 19.2343C15.0365 19.2343 15.0798 19.2343 15.1263 19.2309C15.153 19.2309 16.7028 19.0794 18.3059 17.6954C19.3436 16.8031 20.4046 15.3888 21.0864 13.1697C21.1297 13.1697 22.5066 13.8768 22.8292 10.2199C22.9889 8.49245 21.5654 8.83592 21.4091 8.82918Z" fill="white"/>
</svg>
