<svg width="60" height="60" viewBox="0 0 60 60" fill="none" xmlns="http://www.w3.org/2000/svg">
<circle cx="30" cy="30" r="30" fill="#219653"/>
<path d="M30.5 16C22.4214 16 16 22.4214 16 30.5C16 32.7786 16.4143 34.85 17.2429 36.5071C17.2429 36.5071 17.8643 37.5429 18.9 37.3357C20.35 37.1286 20.1429 36.0929 20.1429 35.6786C19.3143 34.2286 18.9 32.3643 18.9 30.5C18.9 24.0786 24.0786 18.9 30.5 18.9C36.9214 18.9 42.1 24.0786 42.1 30.5C42.1 36.9214 36.9214 42.1 30.5 42.1C28.6357 42.1 26.7714 41.6857 25.1143 40.8571C24.9071 40.65 23.6643 40.65 23.25 41.4786C22.8357 42.3071 23.6643 43.3429 23.6643 43.3429C25.7357 44.3786 28.0143 45 30.5 45C38.5786 45 45 38.5786 45 30.5C45 22.4214 38.5786 16 30.5 16Z" fill="white"/>
<path d="M32.5712 33.6075C35.0569 32.9861 36.714 30.9146 36.714 28.2218C36.714 25.1146 34.2283 22.6289 31.1212 22.6289C28.014 22.6289 25.5283 25.1146 25.5283 28.2218H27.5997C27.5997 26.3575 29.0497 24.7003 31.1212 24.7003C32.9855 24.7003 34.6426 26.1503 34.6426 28.2218C34.6426 30.0861 33.1926 31.7432 31.1212 31.7432C30.7069 31.7432 30.0855 31.7432 29.6712 31.7432V35.2646H32.5712V33.6075Z" fill="white"/>
<path d="M29.6714 36.2998H32.5714V38.5784H29.6714V36.2998Z" fill="white"/>
</svg>
