<svg width="20" height="20" viewBox="0 0 20 20" fill="none" xmlns="http://www.w3.org/2000/svg">
<g clip-path="url(#clip0_491_83532)">
<path d="M17.7778 0H2.22222C1 0 0 1 0 2.22222V17.7778C0 19 1 20 2.22222 20H17.7778C19 20 20 19 20 17.7778V2.22222C20 1 19 0 17.7778 0ZM7.77778 8.33333H5V11.6667H6.11111V10H7.77778V11.8889C7.77778 12.6667 7.22222 13.3333 6.33333 13.3333H4.77778C3.88889 13.3333 3.33333 12.5556 3.33333 11.8889V8.22222C3.33333 7.44444 3.88889 6.66667 4.77778 6.66667H6.22222C7.22222 6.66667 7.77778 7.44445 7.77778 8.11111V8.33333ZM11.1111 13.3333H9.44444V6.66667H11.1111V13.3333ZM16.1111 8.33333H14.4444V9.44444H16.1111V11.1111H14.4444V13.3333H12.7778V6.66667H16.1111V8.33333Z" fill="#515151"/>
</g>
<defs>
<clipPath id="clip0_491_83532">
<rect width="20" height="20" fill="white"/>
</clipPath>
</defs>
</svg>
