<svg width="38" height="39" viewBox="0 0 38 39" fill="none" xmlns="http://www.w3.org/2000/svg">
<path d="M19 0.904785C8.512 0.904785 0 9.41679 0 19.9048C0 30.3928 8.512 38.9048 19 38.9048H28.5V35.1048H19C10.754 35.1048 3.8 28.1508 3.8 19.9048C3.8 11.6588 10.754 4.70479 19 4.70479C27.246 4.70479 34.2 11.6588 34.2 19.9048V22.6218C34.2 24.1228 32.851 25.6048 31.35 25.6048C29.849 25.6048 28.5 24.1228 28.5 22.6218V19.9048C28.5 14.6608 24.244 10.4048 19 10.4048C13.756 10.4048 9.5 14.6608 9.5 19.9048C9.5 25.1488 13.756 29.4048 19 29.4048C21.622 29.4048 24.016 28.3408 25.726 26.6118C26.961 28.3028 29.089 29.4048 31.35 29.4048C35.093 29.4048 38 26.3648 38 22.6218V19.9048C38 9.41679 29.488 0.904785 19 0.904785ZM19 25.6048C15.846 25.6048 13.3 23.0588 13.3 19.9048C13.3 16.7508 15.846 14.2048 19 14.2048C22.154 14.2048 24.7 16.7508 24.7 19.9048C24.7 23.0588 22.154 25.6048 19 25.6048Z" fill="#515151"/>
</svg>
