<svg width="25" height="18" viewBox="0 0 25 18" fill="none" xmlns="http://www.w3.org/2000/svg">
<path d="M0.0783171 0.0790176C0.00969397 0.148256 0 0.687229 0 5.28214C0 8.10132 0.0196431 10.4358 0.0392861 10.4654C0.0589292 10.4999 0.784447 10.9056 1.65206 11.3707C3.36279 12.2906 3.30896 12.2757 3.51968 11.984L3.61764 11.8505L3.87759 12.0679C4.02453 12.1866 4.14724 12.2906 4.15693 12.2955C4.16662 12.3004 4.12275 12.4044 4.06382 12.523C3.91177 12.81 3.90693 13.2898 4.05897 13.5814C4.25999 13.9721 4.66688 14.2442 5.06383 14.2442H5.27965L5.30898 14.5705C5.33832 14.986 5.5197 15.2977 5.85312 15.5054C6.07379 15.639 6.13246 15.6536 6.50517 15.6536C6.88757 15.6536 6.91206 15.6585 6.91206 15.7576C6.91206 15.9257 7.04931 16.2719 7.18171 16.45C7.25033 16.5391 7.42686 16.6726 7.57865 16.7468C7.99039 16.9496 8.35315 16.9298 8.83836 16.6775C8.858 16.6677 8.8728 16.7221 8.8728 16.8011C8.87764 17.3599 9.61311 17.9287 10.2062 17.8299C10.5297 17.7704 10.6866 17.6865 11.1718 17.2906L11.6325 16.9099L11.7601 16.999C13.2453 17.9882 13.5494 18.112 14.0639 17.929C14.4905 17.7807 14.7894 17.4144 14.8729 16.9545C14.8925 16.8508 14.9121 16.7666 14.9218 16.7666C14.9315 16.7666 15.0198 16.8011 15.1129 16.8407C15.2109 16.8803 15.3922 16.9148 15.5198 16.9148C16.167 16.9148 16.6767 16.4698 16.7502 15.8366L16.7747 15.6042L17.054 15.6191C17.2892 15.6341 17.3775 15.6143 17.6471 15.4709C18.0737 15.2482 18.2499 14.9713 18.2747 14.4866L18.2943 14.1502L18.554 14.0959C19.1275 13.9773 19.4951 13.5716 19.5443 13.0028L19.5737 12.7011L20.3385 12.0136L21.0982 11.331L21.3137 11.7019C21.6813 12.33 21.5245 12.3549 23.2941 11.4003C24.1372 10.9452 24.8676 10.5396 24.9166 10.495C24.9952 10.4258 25 10.1141 25 5.28703C25 0.573719 24.9952 0.148256 24.9166 0.0741272C24.8724 0.0296001 24.789 0 24.7304 0.00978088C24.5538 0.0442715 17.7548 5.3959 17.7155 5.53438C17.6958 5.59873 17.7058 5.69268 17.7351 5.7372C17.7793 5.81622 17.7106 5.85097 17.1224 6.08339C16.5685 6.30114 16.4313 6.33563 16.2645 6.31092C16.1565 6.29111 15.6861 6.1377 15.2252 5.96474C14.2496 5.59873 13.8282 5.48496 13.441 5.48007C13.1027 5.47518 12.8772 5.51971 12.632 5.64326C12.4654 5.73231 12.4114 5.7372 11.9213 5.68289C11.4361 5.62858 11.2889 5.63348 9.9751 5.78173C9.04371 5.88057 8.3085 5.93514 7.84753 5.93514H7.1465L7.22482 5.81159C7.33757 5.63837 7.32278 5.52486 7.17099 5.38123C6.8039 5.03968 0.318626 0 0.245156 0C0.196175 0 0.117603 0.0344906 0.0783171 0.0790176ZM3.51968 3.12084C5.15694 4.40676 6.54905 5.50478 6.61282 5.56424L6.72558 5.678L5.94623 6.97885C5.51485 7.69593 4.75515 8.95714 4.25999 9.77821C3.76483 10.6042 3.31381 11.3511 3.25998 11.4451L3.15692 11.6183L1.83828 10.9105L0.514801 10.1983L0.500005 5.49474C0.495158 2.90798 0.500005 0.791214 0.514801 0.791214C0.529342 0.791214 1.88242 1.83982 3.51968 3.12084ZM24.5002 5.49474L24.4855 10.1983L23.162 10.9105C22.4365 11.3012 21.8385 11.6129 21.8336 11.6077C21.8188 11.5879 18.9953 6.88928 18.6374 6.28596C18.3188 5.74184 18.2846 5.66771 18.3481 5.59847C18.4757 5.47492 24.4316 0.796104 24.4758 0.796104C24.4954 0.791214 24.5051 2.90798 24.5002 5.49474ZM13.9805 6.05868C14.1277 6.09832 14.5588 6.24169 14.9267 6.38016C15.2991 6.51864 15.7943 6.68671 16.0298 6.75595L16.4512 6.8795L17.2109 6.57784C17.6226 6.41465 17.9854 6.28107 18.0147 6.28107C18.054 6.28107 20.5147 10.3169 20.7696 10.8016C20.8234 10.9056 20.7793 10.955 20.103 11.5583L19.3777 12.2113L19.1377 11.9887C18.8385 11.7019 14.0981 7.76491 13.9415 7.66608C13.8336 7.59684 13.8091 7.60173 13.6621 7.6859C13.0445 8.06168 12.6032 8.16567 11.6425 8.17056C10.5935 8.17545 10.1473 8.0519 10.1473 7.77006C10.1473 7.59684 10.3139 7.43855 10.6376 7.30033C11.2404 7.0432 11.6376 6.84037 12.1769 6.50886C12.5055 6.30603 12.8387 6.1081 12.9172 6.06872C13.1029 5.96474 13.6177 5.95959 13.9805 6.05868ZM11.7649 6.15263C11.7649 6.20205 11.1374 6.55313 10.7698 6.70653C9.99041 7.0329 9.65699 7.35927 9.65699 7.78962C9.65699 8.00738 9.67663 8.04676 9.8677 8.22976C10.1274 8.482 10.4608 8.59577 11.1374 8.65522C12.0098 8.72935 12.8777 8.6107 13.5295 8.32371C13.7943 8.20994 13.8333 8.20505 13.9119 8.2694C13.956 8.31393 14.8777 9.07554 15.956 9.97074C18.8826 12.3943 18.9609 12.4587 19.015 12.6267C19.1425 12.983 19.0101 13.3786 18.7209 13.5317C18.515 13.6357 18.1719 13.6306 17.9905 13.5219C17.9071 13.4674 17.0198 12.8393 16.0198 12.1174C15.0198 11.3954 14.1522 10.782 14.0933 10.7473C14.0149 10.7028 13.9609 10.7028 13.8677 10.7473C13.7208 10.8214 13.6961 10.9501 13.7892 11.0984C13.8333 11.1576 14.7254 11.8255 15.7744 12.5771C17.2451 13.6306 17.6961 13.9816 17.7451 14.0954C17.8971 14.4614 17.7548 14.9015 17.4313 15.0549C17.2451 15.144 16.9509 15.1589 16.8137 15.0845C16.7647 15.0598 15.9509 14.4812 15.0047 13.7986C14.0586 13.1209 13.2399 12.5423 13.1813 12.5078C13.0195 12.4237 12.843 12.5228 12.843 12.6957C12.843 12.7747 12.8626 12.8589 12.8823 12.8885C12.9019 12.9181 13.6126 13.4375 14.4609 14.0457C15.3088 14.649 16.054 15.2032 16.1129 15.2724C16.2502 15.4356 16.304 15.7769 16.2257 15.9697C16.1129 16.2418 15.9119 16.3851 15.6032 16.4098C15.2746 16.4297 15.4121 16.5187 13.3825 15.0547C12.7256 14.5798 12.1374 14.194 12.0787 14.194C11.9366 14.194 11.8532 14.3077 11.8728 14.4758C11.8876 14.5945 12.0542 14.733 13.0639 15.4601C14.1522 16.2415 14.2453 16.3257 14.3336 16.5334C14.417 16.7362 14.4218 16.7856 14.3677 16.9735C14.2453 17.3691 13.8726 17.5817 13.4853 17.4631C13.3188 17.4137 12.2108 16.736 12.0736 16.6026C12.0295 16.5581 12.0394 16.4739 12.1177 16.2464C12.3774 15.465 11.9019 14.7281 11.0784 14.6539L10.7942 14.6243L10.7649 14.3572C10.7256 14.011 10.5932 13.749 10.358 13.5559C10.1669 13.3976 9.78939 13.2543 9.55903 13.2543C9.43658 13.2543 9.43147 13.2393 9.42663 12.9822C9.41183 12.4628 9.09831 12.0425 8.608 11.894C8.21105 11.7753 7.90697 11.8149 7.57865 12.0425C7.35798 12.1959 7.35314 12.1959 7.35314 12.0425C7.35314 11.721 7.059 11.3104 6.69139 11.1125C6.5493 11.0384 6.40721 11.0085 6.17659 11.0085C5.77965 11.0085 5.62761 11.0878 5.01 11.5923L4.54928 11.9681L4.26969 11.7514C4.11764 11.6327 3.96586 11.4991 3.93142 11.4595C3.87759 11.4003 4.12249 10.965 5.35312 8.91236L6.83834 6.44425L7.99039 6.41465C8.68657 6.39972 9.47076 6.3503 9.97561 6.28596C10.4363 6.23165 10.8874 6.17708 10.9805 6.1673C11.2404 6.1377 11.7649 6.12792 11.7649 6.15263ZM6.43629 11.5436C6.64701 11.6276 6.85288 11.8801 6.89216 12.0927C6.95109 12.4141 6.84318 12.5822 6.28909 13.0473C5.5146 13.6952 5.42148 13.7497 5.1174 13.7497C4.89673 13.7497 4.82811 13.725 4.68602 13.6015C4.39188 13.3394 4.33805 12.9289 4.56357 12.6419C4.69597 12.4687 5.67149 11.6726 5.8822 11.5637C6.08348 11.4546 6.22557 11.4497 6.43629 11.5436ZM8.55902 12.3943C8.91693 12.5675 9.07866 13.0669 8.87764 13.3835C8.79932 13.517 7.24038 14.8377 6.86793 15.0948C6.69139 15.2135 6.29445 15.2135 6.10823 15.09C5.81409 14.892 5.69649 14.4915 5.84343 14.1652C5.89725 14.0465 7.42176 12.7505 7.86309 12.444C8.0835 12.2955 8.31386 12.2757 8.55902 12.3943ZM9.90214 13.8434C10.2601 14.0313 10.4118 14.5309 10.206 14.8423C10.1325 14.9561 9.13249 15.8068 8.56871 16.242C8.2159 16.5092 7.69625 16.4052 7.49038 16.0243C7.36283 15.7919 7.39242 15.4258 7.55416 15.2477C7.72584 15.0647 9.14244 13.9075 9.29933 13.8233C9.4853 13.7248 9.69627 13.7297 9.90214 13.8434ZM11.3629 15.2333C11.7011 15.441 11.8335 15.9604 11.6129 16.2423C11.4266 16.4796 10.4315 17.261 10.2353 17.3205C9.98046 17.3946 9.71081 17.3107 9.51464 17.0881C9.38708 16.9395 9.3626 16.8703 9.3626 16.6677C9.3626 16.5342 9.38708 16.3661 9.42153 16.2968C9.4705 16.1831 10.4705 15.3275 10.7108 15.1939C10.8677 15.1046 11.1863 15.1244 11.3629 15.2333Z" fill="white"/>
</svg>
