<svg width="22" height="22" viewBox="0 0 22 22" fill="none" xmlns="http://www.w3.org/2000/svg">
<path d="M10.8963 5.29057L11.3625 4.09338C12.202 1.93793 14.0335 0.500015 16.0929 0.500015C18.8907 0.500015 21.2954 3.18646 21.2954 6.6546C21.2954 7.39534 21.1836 8.10482 20.9798 8.76272L10.8963 5.29057ZM10.8963 5.29057L10.4306 4.09314M10.8963 5.29057L10.4306 4.09314M10.4306 4.09314C9.59253 1.93789 7.7605 0.500015 5.70325 0.500015M10.4306 4.09314L5.70325 0.500015M1.78413 10.693L1.78362 10.6923C1.3604 10.1195 1.02402 9.45181 0.801971 8.71796L1.78413 10.693ZM1.78413 10.693C1.96457 10.9381 2.16006 11.1646 2.37064 11.3736L2.38436 11.3872M1.78413 10.693L2.38436 11.3872M2.38436 11.3872L2.39699 11.4018M2.38436 11.3872L2.39699 11.4018M2.39699 11.4018L10.9116 21.2694L19.6106 11.1858M2.39699 11.4018L19.6106 11.1858M19.6106 11.1858L19.7474 11.0256C20.2864 10.3946 20.7121 9.62572 20.9797 8.76286L19.6106 11.1858ZM5.70325 0.500015C2.90338 0.500015 0.5 3.18642 0.5 6.6546M5.70325 0.500015L0.5 6.6546M0.5 6.6546C0.5 7.37864 0.606599 8.07214 0.801964 8.71794L0.5 6.6546Z" stroke="#515151"/>
</svg>
