<svg width="18" height="18" viewBox="0 0 18 18" fill="none" xmlns="http://www.w3.org/2000/svg">
<mask id="path-1-inside-1_1032_146599" fill="white">
<path d="M17.134 11.699C17.1439 13.2169 16.0878 14.4603 14.7811 14.4711C13.4738 14.4826 12.4035 13.2563 12.3936 11.7384C12.385 10.2212 13.4404 8.97707 14.7472 8.96704C16.0545 8.95557 17.1254 10.1818 17.134 11.699ZM18 5.46894C18 2.45318 15.8872 0 13.2892 0C11.385 0 9.74132 1.32084 9.00002 3.21429C8.25932 1.32084 6.61559 0 4.71078 0C2.11343 0 0 2.45318 0 5.46894C0 6.10392 0.0944284 6.71453 0.267874 7.28357C0.464774 7.93001 0.762896 8.52197 1.14127 9.03153C1.30298 9.24868 1.4783 9.45222 1.66779 9.63855L8.85125 17.924C8.89507 17.9749 8.95372 18 9.01174 18C9.06976 18 9.12776 17.9749 9.1722 17.924L12.4059 14.1937C12.9942 14.9484 13.8435 15.4236 14.7867 15.4164C16.5427 15.4013 17.9605 13.7308 17.9482 11.6918C17.9414 10.614 17.5334 9.64859 16.8927 8.97706C17.2464 8.48972 17.5309 7.93288 17.721 7.32299C17.9019 6.7432 18 6.11897 18 5.46894Z"/>
</mask>
<path d="M14.7811 14.4711L14.7723 13.4711L14.7729 13.4711L14.7811 14.4711ZM12.3936 11.7384L11.3936 11.7449L11.3936 11.7441L12.3936 11.7384ZM14.7472 8.96704L14.7559 9.967L14.7548 9.96701L14.7472 8.96704ZM17.134 11.699L16.134 11.7055L16.134 11.7047L17.134 11.699ZM9.00002 3.21429L9.93119 3.57886L8.99963 5.95827L8.06874 3.57859L9.00002 3.21429ZM0.267874 7.28357L1.22443 6.99201L1.22448 6.99219L0.267874 7.28357ZM1.14127 9.03153L0.339236 9.62882L0.338403 9.62769L1.14127 9.03153ZM1.66779 9.63855L2.36893 8.92553L2.3973 8.95342L2.42336 8.98348L1.66779 9.63855ZM8.85125 17.924L9.60682 17.269L9.60896 17.2714L8.85125 17.924ZM9.1722 17.924L9.92781 18.5791L9.92538 18.5818L9.1722 17.924ZM12.4059 14.1937L11.6503 13.5387L12.447 12.6198L13.1946 13.579L12.4059 14.1937ZM14.7867 15.4164L14.7952 16.4163L14.7943 16.4164L14.7867 15.4164ZM17.9482 11.6918L18.9481 11.6855L18.9481 11.6858L17.9482 11.6918ZM16.8927 8.97706L16.1692 9.66737L15.5938 9.0643L16.0833 8.3897L16.8927 8.97706ZM17.721 7.32299L16.7663 7.0254L16.7664 7.02521L17.721 7.32299ZM18.134 11.6925C18.1465 13.6173 16.782 15.4547 14.7893 15.4711L14.7729 13.4711C15.3936 13.466 16.1413 12.8165 16.134 11.7055L18.134 11.6925ZM14.7899 15.4711C12.7931 15.4886 11.4062 13.669 11.3936 11.7449L13.3936 11.7319C13.4008 12.8436 14.1545 13.4766 14.7723 13.4711L14.7899 15.4711ZM11.3936 11.7441C11.3827 9.82149 12.7457 7.98237 14.7395 7.96706L14.7548 9.96701C14.1351 9.97176 13.3873 10.6209 13.3936 11.7327L11.3936 11.7441ZM14.7384 7.96707C16.7347 7.94956 18.123 9.76862 18.134 11.6933L16.134 11.7047C16.1277 10.595 15.3743 9.96157 14.7559 9.967L14.7384 7.96707ZM17 5.46894C17 2.86017 15.2 1 13.2892 1V-1C16.5744 -1 19 2.04619 19 5.46894H17ZM13.2892 1C11.88 1 10.5554 1.98458 9.93119 3.57886L8.06884 2.84972C8.92728 0.657095 10.89 -1 13.2892 -1V1ZM8.06874 3.57859C7.44522 1.98467 6.12068 1 4.71078 1V-1C7.11051 -1 9.07343 0.657 9.9313 2.84999L8.06874 3.57859ZM4.71078 1C2.80051 1 1 2.86026 1 5.46894H-1C-1 2.0461 1.42634 -1 4.71078 -1V1ZM1 5.46894C1 6.00463 1.07964 6.51701 1.22443 6.99201L-0.688679 7.57513C-0.890787 6.91205 -1 6.20321 -1 5.46894H1ZM1.22448 6.99219C1.38918 7.53291 1.63651 8.02109 1.94413 8.43536L0.338403 9.62769C-0.110714 9.02286 -0.459632 8.32711 -0.688735 7.57494L1.22448 6.99219ZM1.94329 8.43424C2.07711 8.61392 2.21908 8.77817 2.36893 8.92553L0.96665 10.3516C0.737515 10.1263 0.52886 9.88344 0.339237 9.62882L1.94329 8.43424ZM2.42336 8.98348L9.60682 17.269L8.09568 18.5791L0.912224 10.2936L2.42336 8.98348ZM9.60896 17.2714C9.46494 17.1042 9.24805 17 9.01174 17V19C8.65939 19 8.32521 18.8456 8.09354 18.5766L9.60896 17.2714ZM9.01174 17C8.77112 17 8.55783 17.1073 8.41902 17.2662L9.92538 18.5818C9.69768 18.8425 9.3684 19 9.01174 19V17ZM8.41659 17.269L11.6503 13.5387L13.1615 14.8488L9.9278 18.5791L8.41659 17.269ZM13.1946 13.579C13.6233 14.1289 14.1947 14.4209 14.7791 14.4164L14.7943 16.4164C13.4923 16.4263 12.3651 15.7679 11.6172 14.8085L13.1946 13.579ZM14.7781 14.4164C15.8483 14.4073 16.9581 13.3305 16.9482 11.6979L18.9481 11.6858C18.9629 14.131 17.2372 16.3954 14.7952 16.4163L14.7781 14.4164ZM16.9482 11.6981C16.9429 10.8671 16.6284 10.1487 16.1692 9.66737L17.6162 8.28676C18.4384 9.14849 18.9398 10.3608 18.9481 11.6855L16.9482 11.6981ZM16.0833 8.3897C16.3742 7.98892 16.6091 7.5297 16.7663 7.0254L18.6757 7.62058C18.4527 8.33606 18.1185 8.99052 17.702 9.56442L16.0833 8.3897ZM16.7664 7.02521C16.9171 6.54203 17 6.01821 17 5.46894H19C19 6.21973 18.8866 6.94437 18.6756 7.62077L16.7664 7.02521Z" fill="#F4A72A" mask="url(#path-1-inside-1_1032_146599)"/>
<path d="M15.2691 13.6602V12.3056H16.4363V11.1317H15.2691V9.7765H14.258V11.1317H13.0908V12.3056H14.258V13.6602H15.2691Z" fill="#F4A72A"/>
</svg>
