<svg width="29" height="38" viewBox="0 0 29 38" fill="none" xmlns="http://www.w3.org/2000/svg">
<path d="M19.0815 13.5104C19.0815 11.1291 17.032 9.19889 14.4977 9.19889C11.9635 9.19889 9.91406 11.1291 9.91406 13.5104C9.91406 15.1283 10.8616 16.5346 12.261 17.2731L12.3602 14.4116C12.3602 13.2417 13.3628 12.2917 14.6079 12.2917H14.7402C15.7208 12.2917 16.5141 13.0394 16.5141 13.9625V17.3789C18.0347 16.6778 19.0815 15.2102 19.0815 13.5104Z" fill="#219653"/>
<mask id="path-2-inside-1_1904_103289" fill="white">
<path d="M16.5171 13.9611C16.5171 13.0381 15.7238 12.2904 14.7431 12.2904H14.6109C13.3658 12.2904 12.3632 13.2403 12.3632 14.4102L12.2639 17.2717L12.0545 23.5756C12.0105 23.7705 11.9775 28.1535 11.9775 28.1535C11.5808 27.7749 11.151 27.3435 10.7544 26.9297C9.82882 25.9651 8.14304 25.3149 7.01915 25.1946C6.43516 25.1303 5.98338 25.206 5.67486 25.4196C5.58671 25.4881 5.48755 25.5659 5.3994 25.6488C4.81541 26.1861 4.38569 27.0531 4.79338 27.6889C4.95865 27.9669 5.2672 28.1514 5.58673 28.3443C6.00544 28.6026 6.7216 28.8827 7.2505 29.5257C8.15402 30.6054 10.2255 33.0209 11.5036 34.3101C11.7681 34.4656 12.3301 34.9925 12.5945 35.1263C13.3989 35.6107 14.06 36.067 14.2914 36.3139C14.4677 36.5068 15.5254 37.015 15.5254 37.015C16.3738 37.5232 17.9275 37.9981 19.7235 37.9981C21.5085 37.9981 23.1392 38.0988 24.3403 37.1042H24.3953L24.4285 37.0294C25.6515 35.9757 26.4118 34.5154 26.4118 32.9016C26.4118 32.5023 26.4118 31.0306 26.4118 30.7527V25.1841C26.4118 24.8056 26.3236 23.5372 25.1887 23.1565C24.6488 22.975 24.131 23.0435 23.6902 23.2219L23.591 23.226L23.558 23.2281C23.3596 22.5312 22.8748 22.0821 22.1476 21.9628C21.2661 21.8197 20.6601 22.0665 20.2854 22.3165C19.9218 21.5801 19.1946 21.1963 18.214 21.2741C17.4647 21.3332 16.9137 21.6755 16.5171 22.1277V17.3776V13.9611Z"/>
</mask>
<path d="M12.3632 14.4102H12.8632V14.4189L12.8629 14.4276L12.3632 14.4102ZM12.2639 17.2717L11.7642 17.2551L11.7642 17.2544L12.2639 17.2717ZM12.0545 23.5756L12.5543 23.5922L12.5527 23.6395L12.5422 23.6858L12.0545 23.5756ZM11.9775 28.1535L12.4775 28.1573L12.4688 29.3135L11.6323 28.5152L11.9775 28.1535ZM10.7544 26.9297L11.1151 26.5835L11.1153 26.5837L10.7544 26.9297ZM7.01915 25.1946L6.96593 25.6917L6.96442 25.6916L7.01915 25.1946ZM5.67486 25.4196L5.36819 25.0247L5.37898 25.0163L5.3902 25.0086L5.67486 25.4196ZM5.3994 25.6488L5.74212 26.0129L5.73792 26.0168L5.3994 25.6488ZM4.79338 27.6889L5.21427 27.419L5.21883 27.4261L5.22314 27.4334L4.79338 27.6889ZM5.58673 28.3443L5.84516 27.9163L5.84921 27.9188L5.58673 28.3443ZM7.2505 29.5257L6.86703 29.8466L6.86433 29.8433L7.2505 29.5257ZM11.5036 34.3101L11.2501 34.741L11.1942 34.7081L11.1486 34.6621L11.5036 34.3101ZM12.5945 35.1263L12.8202 34.6802L12.8367 34.6885L12.8524 34.698L12.5945 35.1263ZM14.2914 36.3139L14.6562 35.9719L14.6605 35.9766L14.2914 36.3139ZM15.5254 37.015L15.7419 36.5643L15.7626 36.5742L15.7823 36.586L15.5254 37.015ZM24.3403 37.1042L24.0213 36.7191L24.1601 36.6042H24.3403V37.1042ZM24.3953 37.1042L24.8524 37.3069L24.7206 37.6042H24.3953V37.1042ZM24.4285 37.0294L23.9714 36.8268L24.017 36.724L24.1021 36.6506L24.4285 37.0294ZM25.1887 23.1565L25.0297 23.6306L25.0294 23.6305L25.1887 23.1565ZM23.6902 23.2219L23.8778 23.6853L23.7976 23.7178L23.7111 23.7214L23.6902 23.2219ZM23.591 23.226L23.5589 22.7269L23.5701 22.7265L23.591 23.226ZM23.558 23.2281L23.5901 23.7271L23.1875 23.753L23.0771 23.365L23.558 23.2281ZM22.1476 21.9628L22.2278 21.4693L22.2285 21.4694L22.1476 21.9628ZM20.2854 22.3165L20.5629 22.7324L20.0892 23.0485L19.8371 22.5379L20.2854 22.3165ZM18.214 21.2741L18.2535 21.7725L18.2533 21.7725L18.214 21.2741ZM16.5171 22.1277L16.8929 22.4574L16.0171 23.4559V22.1277H16.5171ZM16.0171 13.9611C16.0171 13.3419 15.4762 12.7904 14.7431 12.7904V11.7904C15.9714 11.7904 17.0171 12.7342 17.0171 13.9611H16.0171ZM14.7431 12.7904H14.6109V11.7904H14.7431V12.7904ZM14.6109 12.7904C13.6146 12.7904 12.8632 13.543 12.8632 14.4102H11.8632C11.8632 12.9377 13.1169 11.7904 14.6109 11.7904V12.7904ZM12.8629 14.4276L12.7636 17.289L11.7642 17.2544L11.8635 14.3929L12.8629 14.4276ZM12.7637 17.2883L12.5543 23.5922L11.5548 23.559L11.7642 17.2551L12.7637 17.2883ZM12.5422 23.6858C12.5502 23.6506 12.5489 23.6347 12.5455 23.6901C12.5432 23.7268 12.5407 23.7791 12.5382 23.8467C12.5333 23.9813 12.5284 24.1654 12.5238 24.3837C12.5146 24.8198 12.5063 25.3841 12.4995 25.9438C12.4926 26.5031 12.4871 27.0565 12.4833 27.4702C12.4814 27.677 12.48 27.8488 12.479 27.9689C12.4785 28.0289 12.4781 28.0761 12.4779 28.1082C12.4777 28.1242 12.4776 28.1365 12.4776 28.1448C12.4776 28.1489 12.4775 28.152 12.4775 28.1541C12.4775 28.1552 12.4775 28.156 12.4775 28.1565C12.4775 28.1567 12.4775 28.1569 12.4775 28.1571C12.4775 28.1571 12.4775 28.1572 12.4775 28.1572C12.4775 28.1572 12.4775 28.1573 11.9775 28.1535C11.4775 28.1497 11.4775 28.1497 11.4775 28.1497C11.4775 28.1496 11.4775 28.1496 11.4775 28.1495C11.4775 28.1494 11.4775 28.1492 11.4775 28.1489C11.4775 28.1484 11.4775 28.1476 11.4775 28.1465C11.4776 28.1444 11.4776 28.1412 11.4776 28.1371C11.4777 28.1288 11.4778 28.1164 11.4779 28.1003C11.4782 28.0681 11.4785 28.0209 11.479 27.9607C11.48 27.8403 11.4815 27.6682 11.4834 27.461C11.4871 27.0468 11.4927 26.4923 11.4995 25.9315C11.5064 25.371 11.5147 24.8031 11.524 24.3625C11.5287 24.1425 11.5337 23.9522 11.5389 23.8098C11.5415 23.7389 11.5443 23.677 11.5474 23.6281C11.5493 23.5979 11.5534 23.5249 11.5669 23.4653L12.5422 23.6858ZM11.6323 28.5152C11.2294 28.1307 10.7944 27.694 10.3934 27.2757L11.1153 26.5837C11.5077 26.9931 11.9322 27.4191 12.3227 27.7918L11.6323 28.5152ZM10.3936 27.2759C9.99097 26.8563 9.4008 26.4853 8.75976 26.2032C8.12047 25.9219 7.46807 25.7455 6.96593 25.6917L7.07237 24.6974C7.69412 24.764 8.44655 24.9728 9.16252 25.2879C9.87673 25.6022 10.5922 26.0385 11.1151 26.5835L10.3936 27.2759ZM6.96442 25.6916C6.43584 25.6334 6.12626 25.7152 5.95952 25.8307L5.3902 25.0086C5.8405 24.6967 6.43448 24.6272 7.07387 24.6976L6.96442 25.6916ZM5.98153 25.8145C5.89218 25.8839 5.81072 25.9483 5.7421 26.0129L5.0567 25.2848C5.16437 25.1834 5.28125 25.0922 5.36819 25.0247L5.98153 25.8145ZM5.73792 26.0168C5.49338 26.2418 5.29262 26.5272 5.19551 26.7997C5.09937 27.0696 5.11993 27.2719 5.21427 27.419L4.37248 27.9588C4.05913 27.4702 4.09071 26.9211 4.25351 26.4641C4.41534 26.0099 4.72143 25.5932 5.06088 25.2809L5.73792 26.0168ZM5.22314 27.4334C5.31145 27.5819 5.49331 27.7039 5.84515 27.9163L5.32832 28.7724C5.04108 28.599 4.60585 28.3518 4.36361 27.9445L5.22314 27.4334ZM5.84921 27.9188C6.17126 28.1174 7.03729 28.4794 7.63666 29.2081L6.86433 29.8433C6.40592 29.286 5.83962 29.0877 5.32425 28.7699L5.84921 27.9188ZM7.63394 29.2048C8.53792 30.285 10.5971 32.6856 11.8587 33.958L11.1486 34.6621C9.8538 33.3562 7.77012 30.9257 6.86705 29.8466L7.63394 29.2048ZM11.7572 33.8791C11.9312 33.9815 12.1777 34.1867 12.3644 34.3383C12.5907 34.5222 12.7479 34.6435 12.8202 34.6802L12.3688 35.5725C12.1767 35.4753 11.9206 35.2662 11.7337 35.1144C11.5072 34.9303 11.3404 34.7942 11.2501 34.741L11.7572 33.8791ZM12.8524 34.698C13.2613 34.9442 13.6375 35.1855 13.9438 35.399C14.2394 35.6051 14.5013 35.8067 14.6562 35.9719L13.9266 36.6558C13.8501 36.5742 13.6657 36.4242 13.3719 36.2193C13.0886 36.0218 12.732 35.7928 12.3366 35.5546L12.8524 34.698ZM14.6605 35.9766C14.6477 35.9626 14.6827 35.9957 14.8169 36.0767C14.929 36.1443 15.0682 36.2209 15.2079 36.2945C15.3464 36.3677 15.4803 36.4353 15.5799 36.4848C15.6296 36.5095 15.6705 36.5295 15.6988 36.5433C15.7129 36.5502 15.7239 36.5556 15.7312 36.5591C15.7349 36.5609 15.7377 36.5622 15.7395 36.5631C15.7404 36.5635 15.7411 36.5639 15.7415 36.564C15.7417 36.5641 15.7418 36.5642 15.7419 36.5643C15.7419 36.5643 15.7419 36.5643 15.742 36.5643C15.742 36.5643 15.742 36.5643 15.742 36.5643C15.7419 36.5643 15.7419 36.5643 15.5254 37.015C15.3089 37.4656 15.3088 37.4656 15.3088 37.4656C15.3088 37.4656 15.3088 37.4656 15.3087 37.4656C15.3087 37.4656 15.3086 37.4655 15.3085 37.4655C15.3083 37.4654 15.3081 37.4653 15.3078 37.4651C15.3072 37.4648 15.3063 37.4644 15.3052 37.4639C15.303 37.4628 15.2998 37.4613 15.2957 37.4593C15.2875 37.4553 15.2756 37.4495 15.2604 37.4421C15.2302 37.4274 15.1871 37.4062 15.1348 37.3803C15.0306 37.3285 14.8891 37.257 14.7412 37.179C14.5943 37.1015 14.4361 37.0148 14.3003 36.9329C14.1866 36.8643 14.0232 36.7616 13.9223 36.6512L14.6605 35.9766ZM15.7823 36.586C16.5408 37.0404 18.0025 37.4981 19.7235 37.4981V38.4981C17.8525 38.4981 16.2068 38.006 15.2685 37.4439L15.7823 36.586ZM19.7235 37.4981C20.64 37.4981 21.4477 37.5221 22.1879 37.4281C22.9137 37.336 23.5192 37.135 24.0213 36.7191L24.6592 37.4893C23.9603 38.068 23.1499 38.314 22.3139 38.4202C21.4922 38.5245 20.592 38.4981 19.7235 38.4981V37.4981ZM24.3403 36.6042H24.3953V37.6042H24.3403V36.6042ZM23.9383 36.9015L23.9714 36.8268L24.8856 37.2321L24.8524 37.3069L23.9383 36.9015ZM24.1021 36.6506C25.2301 35.6788 25.9118 34.351 25.9118 32.9016H26.9118C26.9118 34.6799 26.073 36.2726 24.7548 37.4082L24.1021 36.6506ZM25.9118 32.9016C25.9118 32.9008 25.9118 32.9 25.9118 32.8992C25.9118 32.8985 25.9118 32.8977 25.9118 32.8969C25.9118 32.8961 25.9118 32.8953 25.9118 32.8945C25.9118 32.8937 25.9118 32.8929 25.9118 32.892C25.9118 32.8912 25.9118 32.8904 25.9118 32.8896C25.9118 32.8888 25.9118 32.888 25.9118 32.8871C25.9118 32.8863 25.9118 32.8855 25.9118 32.8846C25.9118 32.8838 25.9118 32.883 25.9118 32.8821C25.9118 32.8813 25.9118 32.8804 25.9118 32.8796C25.9118 32.8787 25.9118 32.8779 25.9118 32.877C25.9118 32.8761 25.9118 32.8753 25.9118 32.8744C25.9118 32.8735 25.9118 32.8727 25.9118 32.8718C25.9118 32.8709 25.9118 32.87 25.9118 32.8691C25.9118 32.8683 25.9118 32.8674 25.9118 32.8665C25.9118 32.8656 25.9118 32.8647 25.9118 32.8638C25.9118 32.8629 25.9118 32.862 25.9118 32.8611C25.9118 32.8602 25.9118 32.8593 25.9118 32.8584C25.9118 32.8574 25.9118 32.8565 25.9118 32.8556C25.9118 32.8547 25.9118 32.8538 25.9118 32.8528C25.9118 32.8519 25.9118 32.851 25.9118 32.85C25.9118 32.8491 25.9118 32.8482 25.9118 32.8472C25.9118 32.8463 25.9118 32.8453 25.9118 32.8444C25.9118 32.8434 25.9118 32.8425 25.9118 32.8415C25.9118 32.8405 25.9118 32.8396 25.9118 32.8386C25.9118 32.8376 25.9118 32.8367 25.9118 32.8357C25.9118 32.8347 25.9118 32.8338 25.9118 32.8328C25.9118 32.8318 25.9118 32.8308 25.9118 32.8298C25.9118 32.8288 25.9118 32.8278 25.9118 32.8268C25.9118 32.8258 25.9118 32.8248 25.9118 32.8238C25.9118 32.8228 25.9118 32.8218 25.9118 32.8208C25.9118 32.8198 25.9118 32.8188 25.9118 32.8178C25.9118 32.8168 25.9118 32.8157 25.9118 32.8147C25.9118 32.8137 25.9118 32.8127 25.9118 32.8116C25.9118 32.8106 25.9118 32.8096 25.9118 32.8085C25.9118 32.8075 25.9118 32.8064 25.9118 32.8054C25.9118 32.8044 25.9118 32.8033 25.9118 32.8023C25.9118 32.8012 25.9118 32.8001 25.9118 32.7991C25.9118 32.798 25.9118 32.797 25.9118 32.7959C25.9118 32.7948 25.9118 32.7938 25.9118 32.7927C25.9118 32.7916 25.9118 32.7905 25.9118 32.7895C25.9118 32.7884 25.9118 32.7873 25.9118 32.7862C25.9118 32.7851 25.9118 32.784 25.9118 32.7829C25.9118 32.7818 25.9118 32.7807 25.9118 32.7796C25.9118 32.7785 25.9118 32.7774 25.9118 32.7763C25.9118 32.7752 25.9118 32.7741 25.9118 32.773C25.9118 32.7719 25.9118 32.7708 25.9118 32.7697C25.9118 32.7685 25.9118 32.7674 25.9118 32.7663C25.9118 32.7652 25.9118 32.764 25.9118 32.7629C25.9118 32.7618 25.9118 32.7606 25.9118 32.7595C25.9118 32.7583 25.9118 32.7572 25.9118 32.756C25.9118 32.7549 25.9118 32.7538 25.9118 32.7526C25.9118 32.7514 25.9118 32.7503 25.9118 32.7491C25.9118 32.748 25.9118 32.7468 25.9118 32.7456C25.9118 32.7445 25.9118 32.7433 25.9118 32.7421C25.9118 32.741 25.9118 32.7398 25.9118 32.7386C25.9118 32.7374 25.9118 32.7362 25.9118 32.7351C25.9118 32.7339 25.9118 32.7327 25.9118 32.7315C25.9118 32.7303 25.9118 32.7291 25.9118 32.7279C25.9118 32.7267 25.9118 32.7255 25.9118 32.7243C25.9118 32.7231 25.9118 32.7219 25.9118 32.7207C25.9118 32.7195 25.9118 32.7183 25.9118 32.717C25.9118 32.7158 25.9118 32.7146 25.9118 32.7134C25.9118 32.7122 25.9118 32.7109 25.9118 32.7097C25.9118 32.7085 25.9118 32.7073 25.9118 32.706C25.9118 32.7048 25.9118 32.7035 25.9118 32.7023C25.9118 32.7011 25.9118 32.6998 25.9118 32.6986C25.9118 32.6973 25.9118 32.6961 25.9118 32.6948C25.9118 32.6936 25.9118 32.6923 25.9118 32.6911C25.9118 32.6898 25.9118 32.6885 25.9118 32.6873C25.9118 32.686 25.9118 32.6848 25.9118 32.6835C25.9118 32.6822 25.9118 32.6809 25.9118 32.6797C25.9118 32.6784 25.9118 32.6771 25.9118 32.6758C25.9118 32.6745 25.9118 32.6733 25.9118 32.672C25.9118 32.6707 25.9118 32.6694 25.9118 32.6681C25.9118 32.6668 25.9118 32.6655 25.9118 32.6642C25.9118 32.6629 25.9118 32.6616 25.9118 32.6603C25.9118 32.659 25.9118 32.6577 25.9118 32.6564C25.9118 32.6551 25.9118 32.6538 25.9118 32.6525C25.9118 32.6511 25.9118 32.6498 25.9118 32.6485C25.9118 32.6472 25.9118 32.6459 25.9118 32.6445C25.9118 32.6432 25.9118 32.6419 25.9118 32.6405C25.9118 32.6392 25.9118 32.6379 25.9118 32.6365C25.9118 32.6352 25.9118 32.6339 25.9118 32.6325C25.9118 32.6312 25.9118 32.6298 25.9118 32.6285C25.9118 32.6271 25.9118 32.6258 25.9118 32.6244C25.9118 32.6231 25.9118 32.6217 25.9118 32.6204C25.9118 32.619 25.9118 32.6176 25.9118 32.6163C25.9118 32.6149 25.9118 32.6135 25.9118 32.6122C25.9118 32.6108 25.9118 32.6094 25.9118 32.6081C25.9118 32.6067 25.9118 32.6053 25.9118 32.6039C25.9118 32.6026 25.9118 32.6012 25.9118 32.5998C25.9118 32.5984 25.9118 32.597 25.9118 32.5956C25.9118 32.5942 25.9118 32.5928 25.9118 32.5914C25.9118 32.5901 25.9118 32.5887 25.9118 32.5873C25.9118 32.5859 25.9118 32.5845 25.9118 32.583C25.9118 32.5816 25.9118 32.5802 25.9118 32.5788C25.9118 32.5774 25.9118 32.576 25.9118 32.5746C25.9118 32.5732 25.9118 32.5718 25.9118 32.5703C25.9118 32.5689 25.9118 32.5675 25.9118 32.5661C25.9118 32.5646 25.9118 32.5632 25.9118 32.5618C25.9118 32.5604 25.9118 32.5589 25.9118 32.5575C25.9118 32.5561 25.9118 32.5546 25.9118 32.5532C25.9118 32.5518 25.9118 32.5503 25.9118 32.5489C25.9118 32.5474 25.9118 32.546 25.9118 32.5445C25.9118 32.5431 25.9118 32.5416 25.9118 32.5402C25.9118 32.5387 25.9118 32.5373 25.9118 32.5358C25.9118 32.5344 25.9118 32.5329 25.9118 32.5314C25.9118 32.53 25.9118 32.5285 25.9118 32.527C25.9118 32.5256 25.9118 32.5241 25.9118 32.5226C25.9118 32.5212 25.9118 32.5197 25.9118 32.5182C25.9118 32.5167 25.9118 32.5153 25.9118 32.5138C25.9118 32.5123 25.9118 32.5108 25.9118 32.5093C25.9118 32.5078 25.9118 32.5064 25.9118 32.5049C25.9118 32.5034 25.9118 32.5019 25.9118 32.5004C25.9118 32.4989 25.9118 32.4974 25.9118 32.4959C25.9118 32.4944 25.9118 32.4929 25.9118 32.4914C25.9118 32.4899 25.9118 32.4884 25.9118 32.4869C25.9118 32.4854 25.9118 32.4839 25.9118 32.4824C25.9118 32.4809 25.9118 32.4794 25.9118 32.4778C25.9118 32.4763 25.9118 32.4748 25.9118 32.4733C25.9118 32.4718 25.9118 32.4703 25.9118 32.4687C25.9118 32.4672 25.9118 32.4657 25.9118 32.4642C25.9118 32.4626 25.9118 32.4611 25.9118 32.4596C25.9118 32.458 25.9118 32.4565 25.9118 32.455C25.9118 32.4534 25.9118 32.4519 25.9118 32.4504C25.9118 32.4488 25.9118 32.4473 25.9118 32.4457C25.9118 32.4442 25.9118 32.4427 25.9118 32.4411C25.9118 32.4396 25.9118 32.438 25.9118 32.4365C25.9118 32.4349 25.9118 32.4334 25.9118 32.4318C25.9118 32.4302 25.9118 32.4287 25.9118 32.4271C25.9118 32.4256 25.9118 32.424 25.9118 32.4225C25.9118 32.4209 25.9118 32.4193 25.9118 32.4178C25.9118 32.4162 25.9118 32.4146 25.9118 32.4131C25.9118 32.4115 25.9118 32.4099 25.9118 32.4083C25.9118 32.4068 25.9118 32.4052 25.9118 32.4036C25.9118 32.402 25.9118 32.4005 25.9118 32.3989C25.9118 32.3973 25.9118 32.3957 25.9118 32.3941C25.9118 32.3926 25.9118 32.391 25.9118 32.3894C25.9118 32.3878 25.9118 32.3862 25.9118 32.3846C25.9118 32.383 25.9118 32.3814 25.9118 32.3798C25.9118 32.3782 25.9118 32.3766 25.9118 32.375C25.9118 32.3735 25.9118 32.3719 25.9118 32.3702C25.9118 32.3686 25.9118 32.367 25.9118 32.3654C25.9118 32.3638 25.9118 32.3622 25.9118 32.3606C25.9118 32.359 25.9118 32.3574 25.9118 32.3558C25.9118 32.3542 25.9118 32.3526 25.9118 32.351C25.9118 32.3493 25.9118 32.3477 25.9118 32.3461C25.9118 32.3445 25.9118 32.3429 25.9118 32.3412C25.9118 32.3396 25.9118 32.338 25.9118 32.3364C25.9118 32.3348 25.9118 32.3331 25.9118 32.3315C25.9118 32.3299 25.9118 32.3282 25.9118 32.3266C25.9118 32.325 25.9118 32.3234 25.9118 32.3217C25.9118 32.3201 25.9118 32.3185 25.9118 32.3168C25.9118 32.3152 25.9118 32.3135 25.9118 32.3119C25.9118 32.3103 25.9118 32.3086 25.9118 32.307C25.9118 32.3053 25.9118 32.3037 25.9118 32.302C25.9118 32.3004 25.9118 32.2988 25.9118 32.2971C25.9118 32.2955 25.9118 32.2938 25.9118 32.2922C25.9118 32.2905 25.9118 32.2889 25.9118 32.2872C25.9118 32.2855 25.9118 32.2839 25.9118 32.2822C25.9118 32.2806 25.9118 32.2789 25.9118 32.2773C25.9118 32.2756 25.9118 32.2739 25.9118 32.2723C25.9118 32.2706 25.9118 32.269 25.9118 32.2673C25.9118 32.2656 25.9118 32.264 25.9118 32.2623C25.9118 32.2606 25.9118 32.259 25.9118 32.2573C25.9118 32.2556 25.9118 32.2539 25.9118 32.2523C25.9118 32.2506 25.9118 32.2489 25.9118 32.2472C25.9118 32.2456 25.9118 32.2439 25.9118 32.2422C25.9118 32.2405 25.9118 32.2389 25.9118 32.2372C25.9118 32.2355 25.9118 32.2338 25.9118 32.2321C25.9118 32.2305 25.9118 32.2288 25.9118 32.2271C25.9118 32.2254 25.9118 32.2237 25.9118 32.222C25.9118 32.2203 25.9118 32.2186 25.9118 32.217C25.9118 32.2153 25.9118 32.2136 25.9118 32.2119C25.9118 32.2102 25.9118 32.2085 25.9118 32.2068C25.9118 32.2051 25.9118 32.2034 25.9118 32.2017C25.9118 32.2 25.9118 32.1983 25.9118 32.1966C25.9118 32.1949 25.9118 32.1932 25.9118 32.1915C25.9118 32.1898 25.9118 32.1881 25.9118 32.1864C25.9118 32.1847 25.9118 32.183 25.9118 32.1813C25.9118 32.1796 25.9118 32.1779 25.9118 32.1762C25.9118 32.1745 25.9118 32.1728 25.9118 32.1711C25.9118 32.1693 25.9118 32.1676 25.9118 32.1659C25.9118 32.1642 25.9118 32.1625 25.9118 32.1608C25.9118 32.1591 25.9118 32.1574 25.9118 32.1556C25.9118 32.1539 25.9118 32.1522 25.9118 32.1505C25.9118 32.1488 25.9118 32.1471 25.9118 32.1453C25.9118 32.1436 25.9118 32.1419 25.9118 32.1402C25.9118 32.1385 25.9118 32.1367 25.9118 32.135C25.9118 32.1333 25.9118 32.1316 25.9118 32.1298C25.9118 32.1281 25.9118 32.1264 25.9118 32.1247C25.9118 32.1229 25.9118 32.1212 25.9118 32.1195C25.9118 32.1177 25.9118 32.116 25.9118 32.1143C25.9118 32.1126 25.9118 32.1108 25.9118 32.1091C25.9118 32.1074 25.9118 32.1056 25.9118 32.1039C25.9118 32.1022 25.9118 32.1004 25.9118 32.0987C25.9118 32.097 25.9118 32.0952 25.9118 32.0935C25.9118 32.0918 25.9118 32.09 25.9118 32.0883C25.9118 32.0865 25.9118 32.0848 25.9118 32.0831C25.9118 32.0813 25.9118 32.0796 25.9118 32.0778C25.9118 32.0761 25.9118 32.0744 25.9118 32.0726C25.9118 32.0709 25.9118 32.0691 25.9118 32.0674C25.9118 32.0656 25.9118 32.0639 25.9118 32.0622C25.9118 32.0604 25.9118 32.0587 25.9118 32.0569C25.9118 32.0552 25.9118 32.0534 25.9118 32.0517C25.9118 32.0499 25.9118 32.0482 25.9118 32.0464C25.9118 32.0447 25.9118 32.0429 25.9118 32.0412C25.9118 32.0394 25.9118 32.0377 25.9118 32.0359C25.9118 32.0342 25.9118 32.0324 25.9118 32.0307C25.9118 32.0289 25.9118 32.0272 25.9118 32.0254C25.9118 32.0237 25.9118 32.0219 25.9118 32.0202C25.9118 32.0184 25.9118 32.0166 25.9118 32.0149C25.9118 32.0131 25.9118 32.0114 25.9118 32.0096C25.9118 32.0079 25.9118 32.0061 25.9118 32.0044C25.9118 32.0026 25.9118 32.0008 25.9118 31.9991C25.9118 31.9973 25.9118 31.9956 25.9118 31.9938C25.9118 31.992 25.9118 31.9903 25.9118 31.9885C25.9118 31.9868 25.9118 31.985 25.9118 31.9832C25.9118 31.9815 25.9118 31.9797 25.9118 31.978C25.9118 31.9762 25.9118 31.9744 25.9118 31.9727C25.9118 31.9709 25.9118 31.9691 25.9118 31.9674C25.9118 31.9656 25.9118 31.9639 25.9118 31.9621C25.9118 31.9603 25.9118 31.9586 25.9118 31.9568C25.9118 31.955 25.9118 31.9533 25.9118 31.9515C25.9118 31.9497 25.9118 31.948 25.9118 31.9462C25.9118 31.9444 25.9118 31.9427 25.9118 31.9409C25.9118 31.9391 25.9118 31.9374 25.9118 31.9356C25.9118 31.9338 25.9118 31.9321 25.9118 31.9303C25.9118 31.9285 25.9118 31.9268 25.9118 31.925C25.9118 31.9232 25.9118 31.9215 25.9118 31.9197C25.9118 31.9179 25.9118 31.9162 25.9118 31.9144C25.9118 31.9126 25.9118 31.9108 25.9118 31.9091C25.9118 31.9073 25.9118 31.9055 25.9118 31.9038C25.9118 31.902 25.9118 31.9002 25.9118 31.8985C25.9118 31.8967 25.9118 31.8949 25.9118 31.8931C25.9118 31.8914 25.9118 31.8896 25.9118 31.8878C25.9118 31.8861 25.9118 31.8843 25.9118 31.8825C25.9118 31.8808 25.9118 31.879 25.9118 31.8772C25.9118 31.8754 25.9118 31.8737 25.9118 31.8719C25.9118 31.8701 25.9118 31.8684 25.9118 31.8666C25.9118 31.8648 25.9118 31.863 25.9118 31.8613C25.9118 31.8595 25.9118 31.8577 25.9118 31.856C25.9118 31.8542 25.9118 31.8524 25.9118 31.8507C25.9118 31.8489 25.9118 31.8471 25.9118 31.8453C25.9118 31.8436 25.9118 31.8418 25.9118 31.84C25.9118 31.8383 25.9118 31.8365 25.9118 31.8347C25.9118 31.8329 25.9118 31.8312 25.9118 31.8294C25.9118 31.8276 25.9118 31.8259 25.9118 31.8241C25.9118 31.8223 25.9118 31.8205 25.9118 31.8188C25.9118 31.817 25.9118 31.8152 25.9118 31.8135C25.9118 31.8117 25.9118 31.8099 25.9118 31.8082C25.9118 31.8064 25.9118 31.8046 25.9118 31.8028C25.9118 31.8011 25.9118 31.7993 25.9118 31.7975C25.9118 31.7958 25.9118 31.794 25.9118 31.7922C25.9118 31.7905 25.9118 31.7887 25.9118 31.7869C25.9118 31.7852 25.9118 31.7834 25.9118 31.7816C25.9118 31.7799 25.9118 31.7781 25.9118 31.7763C25.9118 31.7746 25.9118 31.7728 25.9118 31.771C25.9118 31.7693 25.9118 31.7675 25.9118 31.7657C25.9118 31.764 25.9118 31.7622 25.9118 31.7604C25.9118 31.7587 25.9118 31.7569 25.9118 31.7551C25.9118 31.7534 25.9118 31.7516 25.9118 31.7498C25.9118 31.7481 25.9118 31.7463 25.9118 31.7445C25.9118 31.7428 25.9118 31.741 25.9118 31.7392C25.9118 31.7375 25.9118 31.7357 25.9118 31.734C25.9118 31.7322 25.9118 31.7304 25.9118 31.7287C25.9118 31.7269 25.9118 31.7251 25.9118 31.7234C25.9118 31.7216 25.9118 31.7199 25.9118 31.7181C25.9118 31.7163 25.9118 31.7146 25.9118 31.7128C25.9118 31.7111 25.9118 31.7093 25.9118 31.7076C25.9118 31.7058 25.9118 31.704 25.9118 31.7023C25.9118 31.7005 25.9118 31.6988 25.9118 31.697C25.9118 31.6953 25.9118 31.6935 25.9118 31.6917C25.9118 31.69 25.9118 31.6882 25.9118 31.6865C25.9118 31.6847 25.9118 31.683 25.9118 31.6812C25.9118 31.6795 25.9118 31.6777 25.9118 31.676C25.9118 31.6742 25.9118 31.6725 25.9118 31.6707C25.9118 31.669 25.9118 31.6672 25.9118 31.6655C25.9118 31.6637 25.9118 31.662 25.9118 31.6602C25.9118 31.6585 25.9118 31.6567 25.9118 31.655C25.9118 31.6532 25.9118 31.6515 25.9118 31.6497C25.9118 31.648 25.9118 31.6462 25.9118 31.6445C25.9118 31.6427 25.9118 31.641 25.9118 31.6393C25.9118 31.6375 25.9118 31.6358 25.9118 31.634C25.9118 31.6323 25.9118 31.6306 25.9118 31.6288C25.9118 31.6271 25.9118 31.6253 25.9118 31.6236C25.9118 31.6219 25.9118 31.6201 25.9118 31.6184C25.9118 31.6166 25.9118 31.6149 25.9118 31.6132C25.9118 31.6114 25.9118 31.6097 25.9118 31.608C25.9118 31.6062 25.9118 31.6045 25.9118 31.6028C25.9118 31.601 25.9118 31.5993 25.9118 31.5976C25.9118 31.5958 25.9118 31.5941 25.9118 31.5924C25.9118 31.5906 25.9118 31.5889 25.9118 31.5872C25.9118 31.5855 25.9118 31.5837 25.9118 31.582C25.9118 31.5803 25.9118 31.5786 25.9118 31.5768C25.9118 31.5751 25.9118 31.5734 25.9118 31.5717C25.9118 31.5699 25.9118 31.5682 25.9118 31.5665C25.9118 31.5648 25.9118 31.5631 25.9118 31.5613C25.9118 31.5596 25.9118 31.5579 25.9118 31.5562C25.9118 31.5545 25.9118 31.5528 25.9118 31.551C25.9118 31.5493 25.9118 31.5476 25.9118 31.5459C25.9118 31.5442 25.9118 31.5425 25.9118 31.5408C25.9118 31.5391 25.9118 31.5373 25.9118 31.5356C25.9118 31.5339 25.9118 31.5322 25.9118 31.5305C25.9118 31.5288 25.9118 31.5271 25.9118 31.5254C25.9118 31.5237 25.9118 31.522 25.9118 31.5203C25.9118 31.5186 25.9118 31.5169 25.9118 31.5152C25.9118 31.5135 25.9118 31.5118 25.9118 31.5101C25.9118 31.5084 25.9118 31.5067 25.9118 31.505C25.9118 31.5033 25.9118 31.5016 25.9118 31.4999C25.9118 31.4982 25.9118 31.4965 25.9118 31.4948C25.9118 31.4931 25.9118 31.4914 25.9118 31.4898C25.9118 31.4881 25.9118 31.4864 25.9118 31.4847C25.9118 31.483 25.9118 31.4813 25.9118 31.4796C25.9118 31.478 25.9118 31.4763 25.9118 31.4746C25.9118 31.4729 25.9118 31.4712 25.9118 31.4695C25.9118 31.4679 25.9118 31.4662 25.9118 31.4645C25.9118 31.4628 25.9118 31.4612 25.9118 31.4595C25.9118 31.4578 25.9118 31.4561 25.9118 31.4545C25.9118 31.4528 25.9118 31.4511 25.9118 31.4495C25.9118 31.4478 25.9118 31.4461 25.9118 31.4445C25.9118 31.4428 25.9118 31.4411 25.9118 31.4395C25.9118 31.4378 25.9118 31.4361 25.9118 31.4345C25.9118 31.4328 25.9118 31.4312 25.9118 31.4295C25.9118 31.4278 25.9118 31.4262 25.9118 31.4245C25.9118 31.4229 25.9118 31.4212 25.9118 31.4196C25.9118 31.4179 25.9118 31.4163 25.9118 31.4146C25.9118 31.413 25.9118 31.4113 25.9118 31.4097C25.9118 31.408 25.9118 31.4064 25.9118 31.4047C25.9118 31.4031 25.9118 31.4014 25.9118 31.3998C25.9118 31.3982 25.9118 31.3965 25.9118 31.3949C25.9118 31.3932 25.9118 31.3916 25.9118 31.39C25.9118 31.3883 25.9118 31.3867 25.9118 31.3851C25.9118 31.3834 25.9118 31.3818 25.9118 31.3802C25.9118 31.3785 25.9118 31.3769 25.9118 31.3753C25.9118 31.3737 25.9118 31.372 25.9118 31.3704C25.9118 31.3688 25.9118 31.3672 25.9118 31.3656C25.9118 31.3639 25.9118 31.3623 25.9118 31.3607C25.9118 31.3591 25.9118 31.3575 25.9118 31.3559C25.9118 31.3542 25.9118 31.3526 25.9118 31.351C25.9118 31.3494 25.9118 31.3478 25.9118 31.3462C25.9118 31.3446 25.9118 31.343 25.9118 31.3414C25.9118 31.3398 25.9118 31.3382 25.9118 31.3366C25.9118 31.335 25.9118 31.3334 25.9118 31.3318C25.9118 31.3302 25.9118 31.3286 25.9118 31.327C25.9118 31.3254 25.9118 31.3238 25.9118 31.3222C25.9118 31.3206 25.9118 31.319 25.9118 31.3175C25.9118 31.3159 25.9118 31.3143 25.9118 31.3127C25.9118 31.3111 25.9118 31.3095 25.9118 31.308C25.9118 31.3064 25.9118 31.3048 25.9118 31.3032C25.9118 31.3017 25.9118 31.3001 25.9118 31.2985C25.9118 31.2969 25.9118 31.2954 25.9118 31.2938C25.9118 31.2922 25.9118 31.2907 25.9118 31.2891C25.9118 31.2875 25.9118 31.286 25.9118 31.2844C25.9118 31.2829 25.9118 31.2813 25.9118 31.2797C25.9118 31.2782 25.9118 31.2766 25.9118 31.2751C25.9118 31.2735 25.9118 31.272 25.9118 31.2704C25.9118 31.2689 25.9118 31.2673 25.9118 31.2658C25.9118 31.2642 25.9118 31.2627 25.9118 31.2612C25.9118 31.2596 25.9118 31.2581 25.9118 31.2565C25.9118 31.255 25.9118 31.2535 25.9118 31.2519C25.9118 31.2504 25.9118 31.2489 25.9118 31.2473C25.9118 31.2458 25.9118 31.2443 25.9118 31.2428C25.9118 31.2412 25.9118 31.2397 25.9118 31.2382C25.9118 31.2367 25.9118 31.2352 25.9118 31.2336C25.9118 31.2321 25.9118 31.2306 25.9118 31.2291C25.9118 31.2276 25.9118 31.2261 25.9118 31.2246C25.9118 31.2231 25.9118 31.2215 25.9118 31.22C25.9118 31.2185 25.9118 31.217 25.9118 31.2155C25.9118 31.214 25.9118 31.2125 25.9118 31.211C25.9118 31.2095 25.9118 31.2081 25.9118 31.2066C25.9118 31.2051 25.9118 31.2036 25.9118 31.2021C25.9118 31.2006 25.9118 31.1991 25.9118 31.1976C25.9118 31.1962 25.9118 31.1947 25.9118 31.1932C25.9118 31.1917 25.9118 31.1902 25.9118 31.1888C25.9118 31.1873 25.9118 31.1858 25.9118 31.1844C25.9118 31.1829 25.9118 31.1814 25.9118 31.18C25.9118 31.1785 25.9118 31.177 25.9118 31.1756C25.9118 31.1741 25.9118 31.1727 25.9118 31.1712C25.9118 31.1697 25.9118 31.1683 25.9118 31.1668C25.9118 31.1654 25.9118 31.1639 25.9118 31.1625C25.9118 31.161 25.9118 31.1596 25.9118 31.1582C25.9118 31.1567 25.9118 31.1553 25.9118 31.1538C25.9118 31.1524 25.9118 31.151 25.9118 31.1495C25.9118 31.1481 25.9118 31.1467 25.9118 31.1452C25.9118 31.1438 25.9118 31.1424 25.9118 31.141C25.9118 31.1396 25.9118 31.1381 25.9118 31.1367C25.9118 31.1353 25.9118 31.1339 25.9118 31.1325C25.9118 31.1311 25.9118 31.1296 25.9118 31.1282C25.9118 31.1268 25.9118 31.1254 25.9118 31.124C25.9118 31.1226 25.9118 31.1212 25.9118 31.1198C25.9118 31.1184 25.9118 31.117 25.9118 31.1156C25.9118 31.1142 25.9118 31.1129 25.9118 31.1115C25.9118 31.1101 25.9118 31.1087 25.9118 31.1073C25.9118 31.1059 25.9118 31.1045 25.9118 31.1032C25.9118 31.1018 25.9118 31.1004 25.9118 31.099C25.9118 31.0977 25.9118 31.0963 25.9118 31.0949C25.9118 31.0936 25.9118 31.0922 25.9118 31.0908C25.9118 31.0895 25.9118 31.0881 25.9118 31.0868C25.9118 31.0854 25.9118 31.0841 25.9118 31.0827C25.9118 31.0814 25.9118 31.08 25.9118 31.0787C25.9118 31.0773 25.9118 31.076 25.9118 31.0746C25.9118 31.0733 25.9118 31.072 25.9118 31.0706C25.9118 31.0693 25.9118 31.068 25.9118 31.0666C25.9118 31.0653 25.9118 31.064 25.9118 31.0626C25.9118 31.0613 25.9118 31.06 25.9118 31.0587C25.9118 31.0574 25.9118 31.056 25.9118 31.0547C25.9118 31.0534 25.9118 31.0521 25.9118 31.0508C25.9118 31.0495 25.9118 31.0482 25.9118 31.0469C25.9118 31.0456 25.9118 31.0443 25.9118 31.043C25.9118 31.0417 25.9118 31.0404 25.9118 31.0391C25.9118 31.0378 25.9118 31.0365 25.9118 31.0352C25.9118 31.034 25.9118 31.0327 25.9118 31.0314C25.9118 31.0301 25.9118 31.0288 25.9118 31.0276C25.9118 31.0263 25.9118 31.025 25.9118 31.0238C25.9118 31.0225 25.9118 31.0212 25.9118 31.02C25.9118 31.0187 25.9118 31.0174 25.9118 31.0162C25.9118 31.0149 25.9118 31.0137 25.9118 31.0124C25.9118 31.0112 25.9118 31.0099 25.9118 31.0087C25.9118 31.0074 25.9118 31.0062 25.9118 31.005C25.9118 31.0037 25.9118 31.0025 25.9118 31.0013C25.9118 31 25.9118 30.9988 25.9118 30.9976C25.9118 30.9964 25.9118 30.9951 25.9118 30.9939C25.9118 30.9927 25.9118 30.9915 25.9118 30.9903C25.9118 30.989 25.9118 30.9878 25.9118 30.9866C25.9118 30.9854 25.9118 30.9842 25.9118 30.983C25.9118 30.9818 25.9118 30.9806 25.9118 30.9794C25.9118 30.9782 25.9118 30.977 25.9118 30.9758C25.9118 30.9747 25.9118 30.9735 25.9118 30.9723C25.9118 30.9711 25.9118 30.9699 25.9118 30.9688C25.9118 30.9676 25.9118 30.9664 25.9118 30.9652C25.9118 30.9641 25.9118 30.9629 25.9118 30.9617C25.9118 30.9606 25.9118 30.9594 25.9118 30.9583C25.9118 30.9571 25.9118 30.9559 25.9118 30.9548C25.9118 30.9536 25.9118 30.9525 25.9118 30.9513C25.9118 30.9502 25.9118 30.9491 25.9118 30.9479C25.9118 30.9468 25.9118 30.9457 25.9118 30.9445C25.9118 30.9434 25.9118 30.9423 25.9118 30.9411C25.9118 30.94 25.9118 30.9389 25.9118 30.9378C25.9118 30.9367 25.9118 30.9355 25.9118 30.9344C25.9118 30.9333 25.9118 30.9322 25.9118 30.9311C25.9118 30.93 25.9118 30.9289 25.9118 30.9278C25.9118 30.9267 25.9118 30.9256 25.9118 30.9245C25.9118 30.9234 25.9118 30.9223 25.9118 30.9213C25.9118 30.9202 25.9118 30.9191 25.9118 30.918C25.9118 30.9169 25.9118 30.9159 25.9118 30.9148C25.9118 30.9137 25.9118 30.9127 25.9118 30.9116C25.9118 30.9105 25.9118 30.9095 25.9118 30.9084C25.9118 30.9074 25.9118 30.9063 25.9118 30.9053C25.9118 30.9042 25.9118 30.9032 25.9118 30.9021C25.9118 30.9011 25.9118 30.9 25.9118 30.899C25.9118 30.898 25.9118 30.8969 25.9118 30.8959C25.9118 30.8949 25.9118 30.8939 25.9118 30.8928C25.9118 30.8918 25.9118 30.8908 25.9118 30.8898C25.9118 30.8888 25.9118 30.8878 25.9118 30.8867C25.9118 30.8857 25.9118 30.8847 25.9118 30.8837C25.9118 30.8827 25.9118 30.8817 25.9118 30.8807C25.9118 30.8798 25.9118 30.8788 25.9118 30.8778C25.9118 30.8768 25.9118 30.8758 25.9118 30.8748C25.9118 30.8739 25.9118 30.8729 25.9118 30.8719C25.9118 30.8709 25.9118 30.87 25.9118 30.869C25.9118 30.868 25.9118 30.8671 25.9118 30.8661C25.9118 30.8652 25.9118 30.8642 25.9118 30.8633C25.9118 30.8623 25.9118 30.8614 25.9118 30.8604C25.9118 30.8595 25.9118 30.8586 25.9118 30.8576C25.9118 30.8567 25.9118 30.8558 25.9118 30.8548C25.9118 30.8539 25.9118 30.853 25.9118 30.8521C25.9118 30.8512 25.9118 30.8502 25.9118 30.8493C25.9118 30.8484 25.9118 30.8475 25.9118 30.8466C25.9118 30.8457 25.9118 30.8448 25.9118 30.8439C25.9118 30.843 25.9118 30.8421 25.9118 30.8412C25.9118 30.8403 25.9118 30.8395 25.9118 30.8386C25.9118 30.8377 25.9118 30.8368 25.9118 30.8359C25.9118 30.8351 25.9118 30.8342 25.9118 30.8333C25.9118 30.8325 25.9118 30.8316 25.9118 30.8308C25.9118 30.8299 25.9118 30.8291 25.9118 30.8282C25.9118 30.8274 25.9118 30.8265 25.9118 30.8257C25.9118 30.8248 25.9118 30.824 25.9118 30.8232C25.9118 30.8223 25.9118 30.8215 25.9118 30.8207C25.9118 30.8198 25.9118 30.819 25.9118 30.8182C25.9118 30.8174 25.9118 30.8166 25.9118 30.8158C25.9118 30.815 25.9118 30.8142 25.9118 30.8134C25.9118 30.8126 25.9118 30.8118 25.9118 30.811C25.9118 30.8102 25.9118 30.8094 25.9118 30.8086C25.9118 30.8078 25.9118 30.807 25.9118 30.8063C25.9118 30.8055 25.9118 30.8047 25.9118 30.8039C25.9118 30.8032 25.9118 30.8024 25.9118 30.8016C25.9118 30.8009 25.9118 30.8001 25.9118 30.7994C25.9118 30.7986 25.9118 30.7979 25.9118 30.7971C25.9118 30.7964 25.9118 30.7957 25.9118 30.7949C25.9118 30.7942 25.9118 30.7935 25.9118 30.7927C25.9118 30.792 25.9118 30.7913 25.9118 30.7906C25.9118 30.7898 25.9118 30.7891 25.9118 30.7884C25.9118 30.7877 25.9118 30.787 25.9118 30.7863C25.9118 30.7856 25.9118 30.7849 25.9118 30.7842C25.9118 30.7835 25.9118 30.7828 25.9118 30.7821C25.9118 30.7815 25.9118 30.7808 25.9118 30.7801C25.9118 30.7794 25.9118 30.7788 25.9118 30.7781C25.9118 30.7774 25.9118 30.7768 25.9118 30.7761C25.9118 30.7754 25.9118 30.7748 25.9118 30.7741C25.9118 30.7735 25.9118 30.7728 25.9118 30.7722C25.9118 30.7716 25.9118 30.7709 25.9118 30.7703C25.9118 30.7697 25.9118 30.769 25.9118 30.7684C25.9118 30.7678 25.9118 30.7672 25.9118 30.7665C25.9118 30.7659 25.9118 30.7653 25.9118 30.7647C25.9118 30.7641 25.9118 30.7635 25.9118 30.7629C25.9118 30.7623 25.9118 30.7617 25.9118 30.7611C25.9118 30.7605 25.9118 30.76 25.9118 30.7594C25.9118 30.7588 25.9118 30.7582 25.9118 30.7577C25.9118 30.7571 25.9118 30.7565 25.9118 30.756C25.9118 30.7554 25.9118 30.7548 25.9118 30.7543C25.9118 30.7537 25.9118 30.7532 25.9118 30.7527H26.9118C26.9118 30.7532 26.9118 30.7537 26.9118 30.7543C26.9118 30.7548 26.9118 30.7554 26.9118 30.756C26.9118 30.7565 26.9118 30.7571 26.9118 30.7577C26.9118 30.7582 26.9118 30.7588 26.9118 30.7594C26.9118 30.76 26.9118 30.7605 26.9118 30.7611C26.9118 30.7617 26.9118 30.7623 26.9118 30.7629C26.9118 30.7635 26.9118 30.7641 26.9118 30.7647C26.9118 30.7653 26.9118 30.7659 26.9118 30.7665C26.9118 30.7672 26.9118 30.7678 26.9118 30.7684C26.9118 30.769 26.9118 30.7697 26.9118 30.7703C26.9118 30.7709 26.9118 30.7716 26.9118 30.7722C26.9118 30.7728 26.9118 30.7735 26.9118 30.7741C26.9118 30.7748 26.9118 30.7754 26.9118 30.7761C26.9118 30.7768 26.9118 30.7774 26.9118 30.7781C26.9118 30.7788 26.9118 30.7794 26.9118 30.7801C26.9118 30.7808 26.9118 30.7815 26.9118 30.7821C26.9118 30.7828 26.9118 30.7835 26.9118 30.7842C26.9118 30.7849 26.9118 30.7856 26.9118 30.7863C26.9118 30.787 26.9118 30.7877 26.9118 30.7884C26.9118 30.7891 26.9118 30.7898 26.9118 30.7906C26.9118 30.7913 26.9118 30.792 26.9118 30.7927C26.9118 30.7935 26.9118 30.7942 26.9118 30.7949C26.9118 30.7957 26.9118 30.7964 26.9118 30.7971C26.9118 30.7979 26.9118 30.7986 26.9118 30.7994C26.9118 30.8001 26.9118 30.8009 26.9118 30.8016C26.9118 30.8024 26.9118 30.8032 26.9118 30.8039C26.9118 30.8047 26.9118 30.8055 26.9118 30.8063C26.9118 30.807 26.9118 30.8078 26.9118 30.8086C26.9118 30.8094 26.9118 30.8102 26.9118 30.811C26.9118 30.8118 26.9118 30.8126 26.9118 30.8134C26.9118 30.8142 26.9118 30.815 26.9118 30.8158C26.9118 30.8166 26.9118 30.8174 26.9118 30.8182C26.9118 30.819 26.9118 30.8198 26.9118 30.8207C26.9118 30.8215 26.9118 30.8223 26.9118 30.8232C26.9118 30.824 26.9118 30.8248 26.9118 30.8257C26.9118 30.8265 26.9118 30.8274 26.9118 30.8282C26.9118 30.8291 26.9118 30.8299 26.9118 30.8308C26.9118 30.8316 26.9118 30.8325 26.9118 30.8333C26.9118 30.8342 26.9118 30.8351 26.9118 30.8359C26.9118 30.8368 26.9118 30.8377 26.9118 30.8386C26.9118 30.8395 26.9118 30.8403 26.9118 30.8412C26.9118 30.8421 26.9118 30.843 26.9118 30.8439C26.9118 30.8448 26.9118 30.8457 26.9118 30.8466C26.9118 30.8475 26.9118 30.8484 26.9118 30.8493C26.9118 30.8502 26.9118 30.8512 26.9118 30.8521C26.9118 30.853 26.9118 30.8539 26.9118 30.8548C26.9118 30.8558 26.9118 30.8567 26.9118 30.8576C26.9118 30.8586 26.9118 30.8595 26.9118 30.8604C26.9118 30.8614 26.9118 30.8623 26.9118 30.8633C26.9118 30.8642 26.9118 30.8652 26.9118 30.8661C26.9118 30.8671 26.9118 30.868 26.9118 30.869C26.9118 30.87 26.9118 30.8709 26.9118 30.8719C26.9118 30.8729 26.9118 30.8739 26.9118 30.8748C26.9118 30.8758 26.9118 30.8768 26.9118 30.8778C26.9118 30.8788 26.9118 30.8798 26.9118 30.8807C26.9118 30.8817 26.9118 30.8827 26.9118 30.8837C26.9118 30.8847 26.9118 30.8857 26.9118 30.8867C26.9118 30.8878 26.9118 30.8888 26.9118 30.8898C26.9118 30.8908 26.9118 30.8918 26.9118 30.8928C26.9118 30.8939 26.9118 30.8949 26.9118 30.8959C26.9118 30.8969 26.9118 30.898 26.9118 30.899C26.9118 30.9 26.9118 30.9011 26.9118 30.9021C26.9118 30.9032 26.9118 30.9042 26.9118 30.9053C26.9118 30.9063 26.9118 30.9074 26.9118 30.9084C26.9118 30.9095 26.9118 30.9105 26.9118 30.9116C26.9118 30.9127 26.9118 30.9137 26.9118 30.9148C26.9118 30.9159 26.9118 30.9169 26.9118 30.918C26.9118 30.9191 26.9118 30.9202 26.9118 30.9213C26.9118 30.9223 26.9118 30.9234 26.9118 30.9245C26.9118 30.9256 26.9118 30.9267 26.9118 30.9278C26.9118 30.9289 26.9118 30.93 26.9118 30.9311C26.9118 30.9322 26.9118 30.9333 26.9118 30.9344C26.9118 30.9355 26.9118 30.9367 26.9118 30.9378C26.9118 30.9389 26.9118 30.94 26.9118 30.9411C26.9118 30.9423 26.9118 30.9434 26.9118 30.9445C26.9118 30.9457 26.9118 30.9468 26.9118 30.9479C26.9118 30.9491 26.9118 30.9502 26.9118 30.9513C26.9118 30.9525 26.9118 30.9536 26.9118 30.9548C26.9118 30.9559 26.9118 30.9571 26.9118 30.9583C26.9118 30.9594 26.9118 30.9606 26.9118 30.9617C26.9118 30.9629 26.9118 30.9641 26.9118 30.9652C26.9118 30.9664 26.9118 30.9676 26.9118 30.9688C26.9118 30.9699 26.9118 30.9711 26.9118 30.9723C26.9118 30.9735 26.9118 30.9747 26.9118 30.9758C26.9118 30.977 26.9118 30.9782 26.9118 30.9794C26.9118 30.9806 26.9118 30.9818 26.9118 30.983C26.9118 30.9842 26.9118 30.9854 26.9118 30.9866C26.9118 30.9878 26.9118 30.989 26.9118 30.9903C26.9118 30.9915 26.9118 30.9927 26.9118 30.9939C26.9118 30.9951 26.9118 30.9964 26.9118 30.9976C26.9118 30.9988 26.9118 31 26.9118 31.0013C26.9118 31.0025 26.9118 31.0037 26.9118 31.005C26.9118 31.0062 26.9118 31.0074 26.9118 31.0087C26.9118 31.0099 26.9118 31.0112 26.9118 31.0124C26.9118 31.0137 26.9118 31.0149 26.9118 31.0162C26.9118 31.0174 26.9118 31.0187 26.9118 31.02C26.9118 31.0212 26.9118 31.0225 26.9118 31.0238C26.9118 31.025 26.9118 31.0263 26.9118 31.0276C26.9118 31.0288 26.9118 31.0301 26.9118 31.0314C26.9118 31.0327 26.9118 31.034 26.9118 31.0352C26.9118 31.0365 26.9118 31.0378 26.9118 31.0391C26.9118 31.0404 26.9118 31.0417 26.9118 31.043C26.9118 31.0443 26.9118 31.0456 26.9118 31.0469C26.9118 31.0482 26.9118 31.0495 26.9118 31.0508C26.9118 31.0521 26.9118 31.0534 26.9118 31.0547C26.9118 31.056 26.9118 31.0574 26.9118 31.0587C26.9118 31.06 26.9118 31.0613 26.9118 31.0626C26.9118 31.064 26.9118 31.0653 26.9118 31.0666C26.9118 31.068 26.9118 31.0693 26.9118 31.0706C26.9118 31.072 26.9118 31.0733 26.9118 31.0746C26.9118 31.076 26.9118 31.0773 26.9118 31.0787C26.9118 31.08 26.9118 31.0814 26.9118 31.0827C26.9118 31.0841 26.9118 31.0854 26.9118 31.0868C26.9118 31.0881 26.9118 31.0895 26.9118 31.0908C26.9118 31.0922 26.9118 31.0936 26.9118 31.0949C26.9118 31.0963 26.9118 31.0977 26.9118 31.099C26.9118 31.1004 26.9118 31.1018 26.9118 31.1032C26.9118 31.1045 26.9118 31.1059 26.9118 31.1073C26.9118 31.1087 26.9118 31.1101 26.9118 31.1115C26.9118 31.1129 26.9118 31.1142 26.9118 31.1156C26.9118 31.117 26.9118 31.1184 26.9118 31.1198C26.9118 31.1212 26.9118 31.1226 26.9118 31.124C26.9118 31.1254 26.9118 31.1268 26.9118 31.1282C26.9118 31.1296 26.9118 31.1311 26.9118 31.1325C26.9118 31.1339 26.9118 31.1353 26.9118 31.1367C26.9118 31.1381 26.9118 31.1396 26.9118 31.141C26.9118 31.1424 26.9118 31.1438 26.9118 31.1452C26.9118 31.1467 26.9118 31.1481 26.9118 31.1495C26.9118 31.151 26.9118 31.1524 26.9118 31.1538C26.9118 31.1553 26.9118 31.1567 26.9118 31.1582C26.9118 31.1596 26.9118 31.161 26.9118 31.1625C26.9118 31.1639 26.9118 31.1654 26.9118 31.1668C26.9118 31.1683 26.9118 31.1697 26.9118 31.1712C26.9118 31.1727 26.9118 31.1741 26.9118 31.1756C26.9118 31.177 26.9118 31.1785 26.9118 31.18C26.9118 31.1814 26.9118 31.1829 26.9118 31.1844C26.9118 31.1858 26.9118 31.1873 26.9118 31.1888C26.9118 31.1902 26.9118 31.1917 26.9118 31.1932C26.9118 31.1947 26.9118 31.1962 26.9118 31.1976C26.9118 31.1991 26.9118 31.2006 26.9118 31.2021C26.9118 31.2036 26.9118 31.2051 26.9118 31.2066C26.9118 31.2081 26.9118 31.2095 26.9118 31.211C26.9118 31.2125 26.9118 31.214 26.9118 31.2155C26.9118 31.217 26.9118 31.2185 26.9118 31.22C26.9118 31.2215 26.9118 31.2231 26.9118 31.2246C26.9118 31.2261 26.9118 31.2276 26.9118 31.2291C26.9118 31.2306 26.9118 31.2321 26.9118 31.2336C26.9118 31.2352 26.9118 31.2367 26.9118 31.2382C26.9118 31.2397 26.9118 31.2412 26.9118 31.2428C26.9118 31.2443 26.9118 31.2458 26.9118 31.2473C26.9118 31.2489 26.9118 31.2504 26.9118 31.2519C26.9118 31.2535 26.9118 31.255 26.9118 31.2565C26.9118 31.2581 26.9118 31.2596 26.9118 31.2612C26.9118 31.2627 26.9118 31.2642 26.9118 31.2658C26.9118 31.2673 26.9118 31.2689 26.9118 31.2704C26.9118 31.272 26.9118 31.2735 26.9118 31.2751C26.9118 31.2766 26.9118 31.2782 26.9118 31.2797C26.9118 31.2813 26.9118 31.2829 26.9118 31.2844C26.9118 31.286 26.9118 31.2875 26.9118 31.2891C26.9118 31.2907 26.9118 31.2922 26.9118 31.2938C26.9118 31.2954 26.9118 31.2969 26.9118 31.2985C26.9118 31.3001 26.9118 31.3017 26.9118 31.3032C26.9118 31.3048 26.9118 31.3064 26.9118 31.308C26.9118 31.3095 26.9118 31.3111 26.9118 31.3127C26.9118 31.3143 26.9118 31.3159 26.9118 31.3175C26.9118 31.319 26.9118 31.3206 26.9118 31.3222C26.9118 31.3238 26.9118 31.3254 26.9118 31.327C26.9118 31.3286 26.9118 31.3302 26.9118 31.3318C26.9118 31.3334 26.9118 31.335 26.9118 31.3366C26.9118 31.3382 26.9118 31.3398 26.9118 31.3414C26.9118 31.343 26.9118 31.3446 26.9118 31.3462C26.9118 31.3478 26.9118 31.3494 26.9118 31.351C26.9118 31.3526 26.9118 31.3542 26.9118 31.3559C26.9118 31.3575 26.9118 31.3591 26.9118 31.3607C26.9118 31.3623 26.9118 31.3639 26.9118 31.3656C26.9118 31.3672 26.9118 31.3688 26.9118 31.3704C26.9118 31.372 26.9118 31.3737 26.9118 31.3753C26.9118 31.3769 26.9118 31.3785 26.9118 31.3802C26.9118 31.3818 26.9118 31.3834 26.9118 31.3851C26.9118 31.3867 26.9118 31.3883 26.9118 31.39C26.9118 31.3916 26.9118 31.3932 26.9118 31.3949C26.9118 31.3965 26.9118 31.3982 26.9118 31.3998C26.9118 31.4014 26.9118 31.4031 26.9118 31.4047C26.9118 31.4064 26.9118 31.408 26.9118 31.4097C26.9118 31.4113 26.9118 31.413 26.9118 31.4146C26.9118 31.4163 26.9118 31.4179 26.9118 31.4196C26.9118 31.4212 26.9118 31.4229 26.9118 31.4245C26.9118 31.4262 26.9118 31.4278 26.9118 31.4295C26.9118 31.4312 26.9118 31.4328 26.9118 31.4345C26.9118 31.4361 26.9118 31.4378 26.9118 31.4395C26.9118 31.4411 26.9118 31.4428 26.9118 31.4445C26.9118 31.4461 26.9118 31.4478 26.9118 31.4495C26.9118 31.4511 26.9118 31.4528 26.9118 31.4545C26.9118 31.4561 26.9118 31.4578 26.9118 31.4595C26.9118 31.4612 26.9118 31.4628 26.9118 31.4645C26.9118 31.4662 26.9118 31.4679 26.9118 31.4695C26.9118 31.4712 26.9118 31.4729 26.9118 31.4746C26.9118 31.4763 26.9118 31.478 26.9118 31.4796C26.9118 31.4813 26.9118 31.483 26.9118 31.4847C26.9118 31.4864 26.9118 31.4881 26.9118 31.4898C26.9118 31.4914 26.9118 31.4931 26.9118 31.4948C26.9118 31.4965 26.9118 31.4982 26.9118 31.4999C26.9118 31.5016 26.9118 31.5033 26.9118 31.505C26.9118 31.5067 26.9118 31.5084 26.9118 31.5101C26.9118 31.5118 26.9118 31.5135 26.9118 31.5152C26.9118 31.5169 26.9118 31.5186 26.9118 31.5203C26.9118 31.522 26.9118 31.5237 26.9118 31.5254C26.9118 31.5271 26.9118 31.5288 26.9118 31.5305C26.9118 31.5322 26.9118 31.5339 26.9118 31.5356C26.9118 31.5373 26.9118 31.5391 26.9118 31.5408C26.9118 31.5425 26.9118 31.5442 26.9118 31.5459C26.9118 31.5476 26.9118 31.5493 26.9118 31.551C26.9118 31.5528 26.9118 31.5545 26.9118 31.5562C26.9118 31.5579 26.9118 31.5596 26.9118 31.5613C26.9118 31.5631 26.9118 31.5648 26.9118 31.5665C26.9118 31.5682 26.9118 31.5699 26.9118 31.5717C26.9118 31.5734 26.9118 31.5751 26.9118 31.5768C26.9118 31.5786 26.9118 31.5803 26.9118 31.582C26.9118 31.5837 26.9118 31.5855 26.9118 31.5872C26.9118 31.5889 26.9118 31.5906 26.9118 31.5924C26.9118 31.5941 26.9118 31.5958 26.9118 31.5976C26.9118 31.5993 26.9118 31.601 26.9118 31.6028C26.9118 31.6045 26.9118 31.6062 26.9118 31.608C26.9118 31.6097 26.9118 31.6114 26.9118 31.6132C26.9118 31.6149 26.9118 31.6166 26.9118 31.6184C26.9118 31.6201 26.9118 31.6219 26.9118 31.6236C26.9118 31.6253 26.9118 31.6271 26.9118 31.6288C26.9118 31.6306 26.9118 31.6323 26.9118 31.634C26.9118 31.6358 26.9118 31.6375 26.9118 31.6393C26.9118 31.641 26.9118 31.6427 26.9118 31.6445C26.9118 31.6462 26.9118 31.648 26.9118 31.6497C26.9118 31.6515 26.9118 31.6532 26.9118 31.655C26.9118 31.6567 26.9118 31.6585 26.9118 31.6602C26.9118 31.662 26.9118 31.6637 26.9118 31.6655C26.9118 31.6672 26.9118 31.669 26.9118 31.6707C26.9118 31.6725 26.9118 31.6742 26.9118 31.676C26.9118 31.6777 26.9118 31.6795 26.9118 31.6812C26.9118 31.683 26.9118 31.6847 26.9118 31.6865C26.9118 31.6882 26.9118 31.69 26.9118 31.6917C26.9118 31.6935 26.9118 31.6953 26.9118 31.697C26.9118 31.6988 26.9118 31.7005 26.9118 31.7023C26.9118 31.704 26.9118 31.7058 26.9118 31.7076C26.9118 31.7093 26.9118 31.7111 26.9118 31.7128C26.9118 31.7146 26.9118 31.7163 26.9118 31.7181C26.9118 31.7199 26.9118 31.7216 26.9118 31.7234C26.9118 31.7251 26.9118 31.7269 26.9118 31.7287C26.9118 31.7304 26.9118 31.7322 26.9118 31.734C26.9118 31.7357 26.9118 31.7375 26.9118 31.7392C26.9118 31.741 26.9118 31.7428 26.9118 31.7445C26.9118 31.7463 26.9118 31.7481 26.9118 31.7498C26.9118 31.7516 26.9118 31.7534 26.9118 31.7551C26.9118 31.7569 26.9118 31.7587 26.9118 31.7604C26.9118 31.7622 26.9118 31.764 26.9118 31.7657C26.9118 31.7675 26.9118 31.7693 26.9118 31.771C26.9118 31.7728 26.9118 31.7746 26.9118 31.7763C26.9118 31.7781 26.9118 31.7799 26.9118 31.7816C26.9118 31.7834 26.9118 31.7852 26.9118 31.7869C26.9118 31.7887 26.9118 31.7905 26.9118 31.7922C26.9118 31.794 26.9118 31.7958 26.9118 31.7975C26.9118 31.7993 26.9118 31.8011 26.9118 31.8028C26.9118 31.8046 26.9118 31.8064 26.9118 31.8082C26.9118 31.8099 26.9118 31.8117 26.9118 31.8135C26.9118 31.8152 26.9118 31.817 26.9118 31.8188C26.9118 31.8205 26.9118 31.8223 26.9118 31.8241C26.9118 31.8259 26.9118 31.8276 26.9118 31.8294C26.9118 31.8312 26.9118 31.8329 26.9118 31.8347C26.9118 31.8365 26.9118 31.8383 26.9118 31.84C26.9118 31.8418 26.9118 31.8436 26.9118 31.8453C26.9118 31.8471 26.9118 31.8489 26.9118 31.8507C26.9118 31.8524 26.9118 31.8542 26.9118 31.856C26.9118 31.8577 26.9118 31.8595 26.9118 31.8613C26.9118 31.863 26.9118 31.8648 26.9118 31.8666C26.9118 31.8684 26.9118 31.8701 26.9118 31.8719C26.9118 31.8737 26.9118 31.8754 26.9118 31.8772C26.9118 31.879 26.9118 31.8808 26.9118 31.8825C26.9118 31.8843 26.9118 31.8861 26.9118 31.8878C26.9118 31.8896 26.9118 31.8914 26.9118 31.8931C26.9118 31.8949 26.9118 31.8967 26.9118 31.8985C26.9118 31.9002 26.9118 31.902 26.9118 31.9038C26.9118 31.9055 26.9118 31.9073 26.9118 31.9091C26.9118 31.9108 26.9118 31.9126 26.9118 31.9144C26.9118 31.9162 26.9118 31.9179 26.9118 31.9197C26.9118 31.9215 26.9118 31.9232 26.9118 31.925C26.9118 31.9268 26.9118 31.9285 26.9118 31.9303C26.9118 31.9321 26.9118 31.9338 26.9118 31.9356C26.9118 31.9374 26.9118 31.9391 26.9118 31.9409C26.9118 31.9427 26.9118 31.9444 26.9118 31.9462C26.9118 31.948 26.9118 31.9497 26.9118 31.9515C26.9118 31.9533 26.9118 31.955 26.9118 31.9568C26.9118 31.9586 26.9118 31.9603 26.9118 31.9621C26.9118 31.9639 26.9118 31.9656 26.9118 31.9674C26.9118 31.9691 26.9118 31.9709 26.9118 31.9727C26.9118 31.9744 26.9118 31.9762 26.9118 31.978C26.9118 31.9797 26.9118 31.9815 26.9118 31.9832C26.9118 31.985 26.9118 31.9868 26.9118 31.9885C26.9118 31.9903 26.9118 31.992 26.9118 31.9938C26.9118 31.9956 26.9118 31.9973 26.9118 31.9991C26.9118 32.0008 26.9118 32.0026 26.9118 32.0044C26.9118 32.0061 26.9118 32.0079 26.9118 32.0096C26.9118 32.0114 26.9118 32.0131 26.9118 32.0149C26.9118 32.0166 26.9118 32.0184 26.9118 32.0202C26.9118 32.0219 26.9118 32.0237 26.9118 32.0254C26.9118 32.0272 26.9118 32.0289 26.9118 32.0307C26.9118 32.0324 26.9118 32.0342 26.9118 32.0359C26.9118 32.0377 26.9118 32.0394 26.9118 32.0412C26.9118 32.0429 26.9118 32.0447 26.9118 32.0464C26.9118 32.0482 26.9118 32.0499 26.9118 32.0517C26.9118 32.0534 26.9118 32.0552 26.9118 32.0569C26.9118 32.0587 26.9118 32.0604 26.9118 32.0622C26.9118 32.0639 26.9118 32.0656 26.9118 32.0674C26.9118 32.0691 26.9118 32.0709 26.9118 32.0726C26.9118 32.0744 26.9118 32.0761 26.9118 32.0778C26.9118 32.0796 26.9118 32.0813 26.9118 32.0831C26.9118 32.0848 26.9118 32.0865 26.9118 32.0883C26.9118 32.09 26.9118 32.0918 26.9118 32.0935C26.9118 32.0952 26.9118 32.097 26.9118 32.0987C26.9118 32.1004 26.9118 32.1022 26.9118 32.1039C26.9118 32.1056 26.9118 32.1074 26.9118 32.1091C26.9118 32.1108 26.9118 32.1126 26.9118 32.1143C26.9118 32.116 26.9118 32.1177 26.9118 32.1195C26.9118 32.1212 26.9118 32.1229 26.9118 32.1247C26.9118 32.1264 26.9118 32.1281 26.9118 32.1298C26.9118 32.1316 26.9118 32.1333 26.9118 32.135C26.9118 32.1367 26.9118 32.1385 26.9118 32.1402C26.9118 32.1419 26.9118 32.1436 26.9118 32.1453C26.9118 32.1471 26.9118 32.1488 26.9118 32.1505C26.9118 32.1522 26.9118 32.1539 26.9118 32.1556C26.9118 32.1574 26.9118 32.1591 26.9118 32.1608C26.9118 32.1625 26.9118 32.1642 26.9118 32.1659C26.9118 32.1676 26.9118 32.1693 26.9118 32.1711C26.9118 32.1728 26.9118 32.1745 26.9118 32.1762C26.9118 32.1779 26.9118 32.1796 26.9118 32.1813C26.9118 32.183 26.9118 32.1847 26.9118 32.1864C26.9118 32.1881 26.9118 32.1898 26.9118 32.1915C26.9118 32.1932 26.9118 32.1949 26.9118 32.1966C26.9118 32.1983 26.9118 32.2 26.9118 32.2017C26.9118 32.2034 26.9118 32.2051 26.9118 32.2068C26.9118 32.2085 26.9118 32.2102 26.9118 32.2119C26.9118 32.2136 26.9118 32.2153 26.9118 32.217C26.9118 32.2186 26.9118 32.2203 26.9118 32.222C26.9118 32.2237 26.9118 32.2254 26.9118 32.2271C26.9118 32.2288 26.9118 32.2305 26.9118 32.2321C26.9118 32.2338 26.9118 32.2355 26.9118 32.2372C26.9118 32.2389 26.9118 32.2405 26.9118 32.2422C26.9118 32.2439 26.9118 32.2456 26.9118 32.2472C26.9118 32.2489 26.9118 32.2506 26.9118 32.2523C26.9118 32.2539 26.9118 32.2556 26.9118 32.2573C26.9118 32.259 26.9118 32.2606 26.9118 32.2623C26.9118 32.264 26.9118 32.2656 26.9118 32.2673C26.9118 32.269 26.9118 32.2706 26.9118 32.2723C26.9118 32.2739 26.9118 32.2756 26.9118 32.2773C26.9118 32.2789 26.9118 32.2806 26.9118 32.2822C26.9118 32.2839 26.9118 32.2855 26.9118 32.2872C26.9118 32.2889 26.9118 32.2905 26.9118 32.2922C26.9118 32.2938 26.9118 32.2955 26.9118 32.2971C26.9118 32.2988 26.9118 32.3004 26.9118 32.302C26.9118 32.3037 26.9118 32.3053 26.9118 32.307C26.9118 32.3086 26.9118 32.3103 26.9118 32.3119C26.9118 32.3135 26.9118 32.3152 26.9118 32.3168C26.9118 32.3185 26.9118 32.3201 26.9118 32.3217C26.9118 32.3234 26.9118 32.325 26.9118 32.3266C26.9118 32.3282 26.9118 32.3299 26.9118 32.3315C26.9118 32.3331 26.9118 32.3348 26.9118 32.3364C26.9118 32.338 26.9118 32.3396 26.9118 32.3412C26.9118 32.3429 26.9118 32.3445 26.9118 32.3461C26.9118 32.3477 26.9118 32.3493 26.9118 32.351C26.9118 32.3526 26.9118 32.3542 26.9118 32.3558C26.9118 32.3574 26.9118 32.359 26.9118 32.3606C26.9118 32.3622 26.9118 32.3638 26.9118 32.3654C26.9118 32.367 26.9118 32.3686 26.9118 32.3702C26.9118 32.3719 26.9118 32.3735 26.9118 32.375C26.9118 32.3766 26.9118 32.3782 26.9118 32.3798C26.9118 32.3814 26.9118 32.383 26.9118 32.3846C26.9118 32.3862 26.9118 32.3878 26.9118 32.3894C26.9118 32.391 26.9118 32.3926 26.9118 32.3941C26.9118 32.3957 26.9118 32.3973 26.9118 32.3989C26.9118 32.4005 26.9118 32.402 26.9118 32.4036C26.9118 32.4052 26.9118 32.4068 26.9118 32.4083C26.9118 32.4099 26.9118 32.4115 26.9118 32.4131C26.9118 32.4146 26.9118 32.4162 26.9118 32.4178C26.9118 32.4193 26.9118 32.4209 26.9118 32.4225C26.9118 32.424 26.9118 32.4256 26.9118 32.4271C26.9118 32.4287 26.9118 32.4302 26.9118 32.4318C26.9118 32.4334 26.9118 32.4349 26.9118 32.4365C26.9118 32.438 26.9118 32.4396 26.9118 32.4411C26.9118 32.4427 26.9118 32.4442 26.9118 32.4457C26.9118 32.4473 26.9118 32.4488 26.9118 32.4504C26.9118 32.4519 26.9118 32.4534 26.9118 32.455C26.9118 32.4565 26.9118 32.458 26.9118 32.4596C26.9118 32.4611 26.9118 32.4626 26.9118 32.4642C26.9118 32.4657 26.9118 32.4672 26.9118 32.4687C26.9118 32.4703 26.9118 32.4718 26.9118 32.4733C26.9118 32.4748 26.9118 32.4763 26.9118 32.4778C26.9118 32.4794 26.9118 32.4809 26.9118 32.4824C26.9118 32.4839 26.9118 32.4854 26.9118 32.4869C26.9118 32.4884 26.9118 32.4899 26.9118 32.4914C26.9118 32.4929 26.9118 32.4944 26.9118 32.4959C26.9118 32.4974 26.9118 32.4989 26.9118 32.5004C26.9118 32.5019 26.9118 32.5034 26.9118 32.5049C26.9118 32.5064 26.9118 32.5078 26.9118 32.5093C26.9118 32.5108 26.9118 32.5123 26.9118 32.5138C26.9118 32.5153 26.9118 32.5167 26.9118 32.5182C26.9118 32.5197 26.9118 32.5212 26.9118 32.5226C26.9118 32.5241 26.9118 32.5256 26.9118 32.527C26.9118 32.5285 26.9118 32.53 26.9118 32.5314C26.9118 32.5329 26.9118 32.5344 26.9118 32.5358C26.9118 32.5373 26.9118 32.5387 26.9118 32.5402C26.9118 32.5416 26.9118 32.5431 26.9118 32.5445C26.9118 32.546 26.9118 32.5474 26.9118 32.5489C26.9118 32.5503 26.9118 32.5518 26.9118 32.5532C26.9118 32.5546 26.9118 32.5561 26.9118 32.5575C26.9118 32.5589 26.9118 32.5604 26.9118 32.5618C26.9118 32.5632 26.9118 32.5646 26.9118 32.5661C26.9118 32.5675 26.9118 32.5689 26.9118 32.5703C26.9118 32.5718 26.9118 32.5732 26.9118 32.5746C26.9118 32.576 26.9118 32.5774 26.9118 32.5788C26.9118 32.5802 26.9118 32.5816 26.9118 32.583C26.9118 32.5845 26.9118 32.5859 26.9118 32.5873C26.9118 32.5887 26.9118 32.5901 26.9118 32.5914C26.9118 32.5928 26.9118 32.5942 26.9118 32.5956C26.9118 32.597 26.9118 32.5984 26.9118 32.5998C26.9118 32.6012 26.9118 32.6026 26.9118 32.6039C26.9118 32.6053 26.9118 32.6067 26.9118 32.6081C26.9118 32.6094 26.9118 32.6108 26.9118 32.6122C26.9118 32.6135 26.9118 32.6149 26.9118 32.6163C26.9118 32.6176 26.9118 32.619 26.9118 32.6204C26.9118 32.6217 26.9118 32.6231 26.9118 32.6244C26.9118 32.6258 26.9118 32.6271 26.9118 32.6285C26.9118 32.6298 26.9118 32.6312 26.9118 32.6325C26.9118 32.6339 26.9118 32.6352 26.9118 32.6365C26.9118 32.6379 26.9118 32.6392 26.9118 32.6405C26.9118 32.6419 26.9118 32.6432 26.9118 32.6445C26.9118 32.6459 26.9118 32.6472 26.9118 32.6485C26.9118 32.6498 26.9118 32.6511 26.9118 32.6525C26.9118 32.6538 26.9118 32.6551 26.9118 32.6564C26.9118 32.6577 26.9118 32.659 26.9118 32.6603C26.9118 32.6616 26.9118 32.6629 26.9118 32.6642C26.9118 32.6655 26.9118 32.6668 26.9118 32.6681C26.9118 32.6694 26.9118 32.6707 26.9118 32.672C26.9118 32.6733 26.9118 32.6745 26.9118 32.6758C26.9118 32.6771 26.9118 32.6784 26.9118 32.6797C26.9118 32.6809 26.9118 32.6822 26.9118 32.6835C26.9118 32.6848 26.9118 32.686 26.9118 32.6873C26.9118 32.6885 26.9118 32.6898 26.9118 32.6911C26.9118 32.6923 26.9118 32.6936 26.9118 32.6948C26.9118 32.6961 26.9118 32.6973 26.9118 32.6986C26.9118 32.6998 26.9118 32.7011 26.9118 32.7023C26.9118 32.7035 26.9118 32.7048 26.9118 32.706C26.9118 32.7073 26.9118 32.7085 26.9118 32.7097C26.9118 32.7109 26.9118 32.7122 26.9118 32.7134C26.9118 32.7146 26.9118 32.7158 26.9118 32.717C26.9118 32.7183 26.9118 32.7195 26.9118 32.7207C26.9118 32.7219 26.9118 32.7231 26.9118 32.7243C26.9118 32.7255 26.9118 32.7267 26.9118 32.7279C26.9118 32.7291 26.9118 32.7303 26.9118 32.7315C26.9118 32.7327 26.9118 32.7339 26.9118 32.7351C26.9118 32.7362 26.9118 32.7374 26.9118 32.7386C26.9118 32.7398 26.9118 32.741 26.9118 32.7421C26.9118 32.7433 26.9118 32.7445 26.9118 32.7456C26.9118 32.7468 26.9118 32.748 26.9118 32.7491C26.9118 32.7503 26.9118 32.7514 26.9118 32.7526C26.9118 32.7538 26.9118 32.7549 26.9118 32.756C26.9118 32.7572 26.9118 32.7583 26.9118 32.7595C26.9118 32.7606 26.9118 32.7618 26.9118 32.7629C26.9118 32.764 26.9118 32.7652 26.9118 32.7663C26.9118 32.7674 26.9118 32.7685 26.9118 32.7697C26.9118 32.7708 26.9118 32.7719 26.9118 32.773C26.9118 32.7741 26.9118 32.7752 26.9118 32.7763C26.9118 32.7774 26.9118 32.7785 26.9118 32.7796C26.9118 32.7807 26.9118 32.7818 26.9118 32.7829C26.9118 32.784 26.9118 32.7851 26.9118 32.7862C26.9118 32.7873 26.9118 32.7884 26.9118 32.7895C26.9118 32.7905 26.9118 32.7916 26.9118 32.7927C26.9118 32.7938 26.9118 32.7948 26.9118 32.7959C26.9118 32.797 26.9118 32.798 26.9118 32.7991C26.9118 32.8001 26.9118 32.8012 26.9118 32.8023C26.9118 32.8033 26.9118 32.8044 26.9118 32.8054C26.9118 32.8064 26.9118 32.8075 26.9118 32.8085C26.9118 32.8096 26.9118 32.8106 26.9118 32.8116C26.9118 32.8127 26.9118 32.8137 26.9118 32.8147C26.9118 32.8157 26.9118 32.8168 26.9118 32.8178C26.9118 32.8188 26.9118 32.8198 26.9118 32.8208C26.9118 32.8218 26.9118 32.8228 26.9118 32.8238C26.9118 32.8248 26.9118 32.8258 26.9118 32.8268C26.9118 32.8278 26.9118 32.8288 26.9118 32.8298C26.9118 32.8308 26.9118 32.8318 26.9118 32.8328C26.9118 32.8338 26.9118 32.8347 26.9118 32.8357C26.9118 32.8367 26.9118 32.8376 26.9118 32.8386C26.9118 32.8396 26.9118 32.8405 26.9118 32.8415C26.9118 32.8425 26.9118 32.8434 26.9118 32.8444C26.9118 32.8453 26.9118 32.8463 26.9118 32.8472C26.9118 32.8482 26.9118 32.8491 26.9118 32.85C26.9118 32.851 26.9118 32.8519 26.9118 32.8528C26.9118 32.8538 26.9118 32.8547 26.9118 32.8556C26.9118 32.8565 26.9118 32.8574 26.9118 32.8584C26.9118 32.8593 26.9118 32.8602 26.9118 32.8611C26.9118 32.862 26.9118 32.8629 26.9118 32.8638C26.9118 32.8647 26.9118 32.8656 26.9118 32.8665C26.9118 32.8674 26.9118 32.8683 26.9118 32.8691C26.9118 32.87 26.9118 32.8709 26.9118 32.8718C26.9118 32.8727 26.9118 32.8735 26.9118 32.8744C26.9118 32.8753 26.9118 32.8761 26.9118 32.877C26.9118 32.8779 26.9118 32.8787 26.9118 32.8796C26.9118 32.8804 26.9118 32.8813 26.9118 32.8821C26.9118 32.883 26.9118 32.8838 26.9118 32.8846C26.9118 32.8855 26.9118 32.8863 26.9118 32.8871C26.9118 32.888 26.9118 32.8888 26.9118 32.8896C26.9118 32.8904 26.9118 32.8912 26.9118 32.892C26.9118 32.8929 26.9118 32.8937 26.9118 32.8945C26.9118 32.8953 26.9118 32.8961 26.9118 32.8969C26.9118 32.8977 26.9118 32.8985 26.9118 32.8992C26.9118 32.9 26.9118 32.9008 26.9118 32.9016H25.9118ZM25.9118 30.7527V25.1841H26.9118V30.7527H25.9118ZM25.9118 25.1841C25.9118 25.0246 25.892 24.6844 25.7613 24.356C25.6351 24.0387 25.42 23.7615 25.0297 23.6306L25.3477 22.6825C26.0923 22.9322 26.4888 23.4795 26.6904 23.9863C26.8876 24.4818 26.9118 24.9651 26.9118 25.1841H25.9118ZM25.0294 23.6305C24.6258 23.4948 24.2328 23.5417 23.8778 23.6853L23.5026 22.7584C24.0291 22.5453 24.6718 22.4553 25.348 22.6826L25.0294 23.6305ZM23.7111 23.7214L23.6119 23.7256L23.5701 22.7265L23.6693 22.7223L23.7111 23.7214ZM23.6231 23.725L23.5901 23.7271L23.5259 22.7292L23.5589 22.7271L23.6231 23.725ZM23.0771 23.365C22.9302 22.8487 22.5971 22.5432 22.0667 22.4562L22.2285 21.4694C23.1526 21.6209 23.7891 22.2136 24.0389 23.0913L23.0771 23.365ZM22.0675 22.4563C21.3278 22.3362 20.8478 22.5424 20.5629 22.7324L20.0079 21.9006C20.4723 21.5907 21.2044 21.3031 22.2278 21.4693L22.0675 22.4563ZM19.8371 22.5379C19.5797 22.0165 19.0676 21.7079 18.2535 21.7725L18.1744 20.7756C19.3216 20.6846 20.264 21.1437 20.7338 22.0951L19.8371 22.5379ZM18.2533 21.7725C17.6508 21.8201 17.2155 22.0897 16.8929 22.4574L16.1412 21.798C16.6119 21.2613 17.2787 20.8463 18.1746 20.7756L18.2533 21.7725ZM16.0171 22.1277V17.3776H17.0171V22.1277H16.0171ZM16.0171 17.3776V13.9611H17.0171V17.3776H16.0171Z" fill="#219653" mask="url(#path-2-inside-1_1904_103289)"/>
<path d="M24.7247 20.6683L25.6283 21.6204C25.8046 21.806 26.1241 21.7946 26.2784 21.5944C28.0303 19.3034 29 16.5477 29 13.6478C29 6.12222 22.499 -6.86646e-05 14.4995 -6.86646e-05C13.9486 -6.86646e-05 13.3976 0.0289803 12.8467 0.0860233C6.16946 0.7861 0.803438 5.85564 0.0872305 12.1408C-0.309438 15.5603 0.660239 18.8978 2.72071 21.5944C2.87497 21.7956 3.18343 21.806 3.37074 21.6214L4.27429 20.6703C4.40651 20.5355 4.41751 20.3353 4.30732 20.186C2.84185 18.1843 2.08157 15.7936 2.1587 13.3066C2.34602 7.27137 7.50277 2.32319 13.9046 2.04213C20.9895 1.71439 26.8403 7.05669 26.8403 13.6478C26.8403 16.0063 26.08 18.2746 24.6917 20.184C24.5815 20.3343 24.5925 20.5335 24.7247 20.6683Z" fill="#219653"/>
<path d="M20.6485 16.3894L21.6071 17.3975C21.8055 17.6049 22.1691 17.5582 22.3013 17.3104C22.9073 16.1788 23.2269 14.9352 23.2269 13.6388C23.2269 9.77232 20.307 6.39224 16.2852 5.6009C15.1172 5.36754 13.8831 5.36754 12.7042 5.6009C8.6934 6.39224 5.77344 9.77232 5.77344 13.6388C5.77344 14.9363 6.09302 16.1788 6.69904 17.3104C6.83126 17.5582 7.19485 17.6049 7.39319 17.3975L8.35183 16.3894C8.46201 16.2763 8.48401 16.1156 8.41789 15.9755C8.09836 15.2361 7.93314 14.4426 7.93314 13.6388C7.93314 11.0542 9.66308 8.71862 12.2524 7.82874C13.6959 7.33195 15.3046 7.33195 16.748 7.82874C19.3374 8.71862 21.0673 11.0542 21.0673 13.6388C21.0673 14.4426 20.902 15.2361 20.5824 15.9755C20.5163 16.1166 20.5383 16.2774 20.6485 16.3894Z" fill="#219653"/>
</svg>
