<svg width="219" height="160" viewBox="0 0 219 160" fill="none" xmlns="http://www.w3.org/2000/svg">
<path d="M219 79.3004C219 123.097 208.664 129.907 163.12 129.907C142.504 90.7781 112.123 79.3004 80.6567 50.6062C80.6567 6.80977 90.9933 0 136.537 0C182.08 0 219 35.504 219 79.3004Z" fill="#F5F5F5"/>
<path d="M183.105 102.141H93.2151C90.6012 102.141 88.4824 100.276 88.4824 97.9752V18.8567C88.4824 16.5558 90.6012 14.6909 93.2151 14.6909H183.105C185.718 14.6909 187.838 16.5558 187.838 18.8567V97.9752C187.838 100.276 185.718 102.141 183.105 102.141Z" fill="#FAFAFF"/>
<path d="M99.5854 118.357H9.69589C7.08196 118.357 4.96289 116.493 4.96289 114.192V35.0734C4.96289 32.7732 7.08196 30.908 9.69589 30.908H99.5854C102.199 30.908 104.319 32.7732 104.319 35.0734V114.192C104.319 116.493 102.199 118.357 99.5854 118.357Z" fill="#F0F0FF"/>
<path d="M52.6951 95.4141H46.1426V84.972H52.6951V95.4141Z" fill="#3F4D79"/>
<path d="M74.6361 87.2402H24.2026C23.7413 87.2402 23.3672 86.9109 23.3672 86.5052V59.9874C23.3672 59.5817 23.7413 59.2523 24.2026 59.2523H74.6361C75.0975 59.2523 75.4716 59.5817 75.4716 59.9874V86.5052C75.4716 86.9109 75.0975 87.2402 74.6361 87.2402Z" fill="white"/>
<path d="M73.1822 83.3242H25.6768V61.1898H73.1822V83.3242Z" fill="white"/>
<path d="M25.7746 83.2372H73.0837V61.2758H25.7746V83.2372ZM73.2802 83.4102H25.5781V61.1028H73.2802V83.4102Z" fill="#3F4D79"/>
<path d="M50.686 85.3465C50.686 86.0631 50.0262 86.6436 49.2122 86.6436C48.3982 86.6436 47.7383 86.0631 47.7383 85.3465C47.7383 84.6298 48.3982 84.0494 49.2122 84.0494C50.0262 84.0494 50.686 84.6298 50.686 85.3465Z" fill="#3F4D79"/>
<path d="M62.8729 95.4141H35.5527V94.5429H62.8729V95.4141Z" fill="#3F4D79"/>
<path d="M155.179 97.6875H23.6357V95.3868H155.179V97.6875Z" fill="#FFB7D5"/>
<path d="M152.038 154.37H26.2441V97.6878H152.038V154.37Z" fill="#E6E6FF"/>
<path d="M111.866 110.639H145.366V102.346H111.866V110.639ZM145.784 111.007H111.448V101.978H145.784V111.007Z" fill="#3F4D79"/>
<path d="M130.221 106.274C130.221 107.055 129.502 107.687 128.616 107.687C127.73 107.687 127.012 107.055 127.012 106.274C127.012 105.494 127.73 104.862 128.616 104.862C129.502 104.862 130.221 105.494 130.221 106.274Z" fill="#3F4D79"/>
<path d="M111.866 121.321H145.366V113.028H111.866V121.321ZM145.784 121.688H111.448V112.66H145.784V121.688Z" fill="#3F4D79"/>
<path d="M130.221 116.956C130.221 117.736 129.502 118.368 128.616 118.368C127.73 118.368 127.012 117.736 127.012 116.956C127.012 116.176 127.73 115.544 128.616 115.544C129.502 115.544 130.221 116.176 130.221 116.956Z" fill="#3F4D79"/>
<path d="M111.866 132.003H145.366V123.711H111.866V132.003ZM145.784 132.371H111.448V123.343H145.784V132.371Z" fill="#3F4D79"/>
<path d="M130.221 127.639C130.221 128.419 129.502 129.051 128.616 129.051C127.73 129.051 127.012 128.419 127.012 127.639C127.012 126.859 127.73 126.227 128.616 126.227C129.502 126.227 130.221 126.859 130.221 127.639Z" fill="#3F4D79"/>
<path d="M31.1661 112.322H72.9203V102.346H31.1661V112.322ZM73.3384 112.69H30.748V101.978H73.3384V112.69Z" fill="#3F4D79"/>
<path d="M56.4811 104.434H47.6074V103.022H56.4811V104.434Z" fill="#3F4D79"/>
<path d="M31.1661 124.594H72.9203V114.617H31.1661V124.594ZM73.3384 124.962H30.748V114.249H73.3384V124.962Z" fill="#3F4D79"/>
<path d="M56.4811 116.704H47.6074V115.292H56.4811V116.704Z" fill="#3F4D79"/>
<path d="M51.3376 151.896H30.958V127.857H51.3376V151.896Z" fill="#FFB7D5"/>
<path d="M73.1307 151.896H52.751V127.857H73.1307V151.896Z" fill="#FFB7D5"/>
<path d="M49.4186 139.301C49.4186 139.954 48.8171 140.484 48.075 140.484C47.333 140.484 46.7314 139.954 46.7314 139.301C46.7314 138.648 47.333 138.119 48.075 138.119C48.8171 138.119 49.4186 138.648 49.4186 139.301Z" fill="#3F4D79"/>
<path d="M57.3268 139.301C57.3268 139.954 56.7253 140.484 55.9832 140.484C55.2411 140.484 54.6396 139.954 54.6396 139.301C54.6396 138.648 55.2411 138.119 55.9832 138.119C56.7253 138.119 57.3268 138.648 57.3268 139.301Z" fill="#3F4D79"/>
<path d="M163.273 156.48H13.4414V154.343H163.273V156.48Z" fill="#E6E6FF"/>
<path d="M77.3144 154.487H13.4414V154.199H77.3144V154.487Z" fill="#3F4D79"/>
<path d="M163.274 154.487H106.569V154.199H163.274V154.487Z" fill="#3F4D79"/>
<path d="M164.249 61.2393H118.535C116.806 61.2393 115.404 60.0048 115.404 58.4826V32.2257C115.404 30.7035 116.806 29.469 118.535 29.469H164.249C165.978 29.469 167.38 30.7035 167.38 32.2257V58.4826C167.38 60.0048 165.978 61.2393 164.249 61.2393Z" fill="white"/>
<path d="M118.535 29.5614C116.867 29.5614 115.509 30.7562 115.509 32.225V58.4832C115.509 59.952 116.867 61.1467 118.535 61.1467H164.25C165.918 61.1467 167.275 59.952 167.275 58.4832V32.225C167.275 30.7562 165.918 29.5614 164.25 29.5614H118.535ZM164.25 61.3311H118.535C116.751 61.3311 115.3 60.0535 115.3 58.4832V32.225C115.3 30.6547 116.751 29.3771 118.535 29.3771H164.25C166.034 29.3771 167.484 30.6547 167.484 32.225V58.4832C167.484 60.0535 166.034 61.3311 164.25 61.3311Z" fill="#3F4D79"/>
<path d="M167.38 33.8613H115.404V33.6771H167.38V33.8613Z" fill="#3F4D79"/>
<path d="M121.275 31.7535C121.275 32.2496 120.817 32.6514 120.254 32.6514C119.691 32.6514 119.234 32.2496 119.234 31.7535C119.234 31.2575 119.691 30.8557 120.254 30.8557C120.817 30.8557 121.275 31.2575 121.275 31.7535Z" fill="#F4A72A"/>
<path d="M123.968 31.7535C123.968 32.2496 123.511 32.6514 122.948 32.6514C122.384 32.6514 121.928 32.2496 121.928 31.7535C121.928 31.2575 122.384 30.8557 122.948 30.8557C123.511 30.8557 123.968 31.2575 123.968 31.7535Z" fill="#3F4D79"/>
<path d="M126.588 31.7535C126.588 32.2496 126.131 32.6514 125.568 32.6514C125.004 32.6514 124.548 32.2496 124.548 31.7535C124.548 31.2575 125.004 30.8557 125.568 30.8557C126.131 30.8557 126.588 31.2575 126.588 31.7535Z" fill="#3F4D79"/>
<path d="M148.84 43.0676C148.84 46.635 145.555 49.5264 141.502 49.5264C137.45 49.5264 134.164 46.635 134.164 43.0676C134.164 39.501 137.45 36.6087 141.502 36.6087C145.555 36.6087 148.84 39.501 148.84 43.0676Z" fill="#FFB7D5"/>
<path d="M150.888 43.1602H141.288V35.3831C141.288 35.3325 141.334 35.2911 141.393 35.2911C141.45 35.2911 141.497 35.3325 141.497 35.3831V42.9762H150.888C150.945 42.9762 150.992 43.0176 150.992 43.0682C150.992 43.1188 150.945 43.1602 150.888 43.1602Z" fill="#3F4D79"/>
<path d="M133.968 46.8008C133.931 46.8008 133.896 46.7833 133.877 46.7529C133.848 46.7088 133.866 46.6527 133.916 46.6278L141.328 42.9941L148.431 36.5454C148.471 36.5086 148.537 36.5077 148.578 36.5436C148.62 36.5785 148.621 36.6365 148.581 36.6733L141.456 43.1413L134.019 46.7888C134.002 46.7971 133.985 46.8008 133.968 46.8008Z" fill="#3F4D79"/>
<path d="M49.9103 72.1084H4.19633C2.46721 72.1084 1.06543 70.8748 1.06543 69.3532V43.0957C1.06543 41.5733 2.46721 40.3396 4.19633 40.3396H49.9103C51.6395 40.3396 53.0412 41.5733 53.0412 43.0957V69.3532C53.0412 70.8748 51.6395 72.1084 49.9103 72.1084Z" fill="white"/>
<path d="M4.19636 40.4314C2.52764 40.4314 1.16997 41.6264 1.16997 43.0955V69.353C1.16997 70.8212 2.52764 72.0162 4.19636 72.0162H49.9103C51.5791 72.0162 52.9367 70.8212 52.9367 69.353V43.0955C52.9367 41.6264 51.5791 40.4314 49.9103 40.4314H4.19636ZM49.9103 72.2002H4.19636C2.41236 72.2002 0.960938 70.9233 0.960938 69.353V43.0955C0.960938 41.5252 2.41236 40.2474 4.19636 40.2474H49.9103C51.6944 40.2474 53.1457 41.5252 53.1457 43.0955V69.353C53.1457 70.9233 51.6944 72.2002 49.9103 72.2002Z" fill="#3F4D79"/>
<path d="M53.0412 44.7314H1.06543V44.5475H53.0412V44.7314Z" fill="#3F4D79"/>
<path d="M6.93557 42.6236C6.93557 43.1195 6.47883 43.5215 5.91549 43.5215C5.35214 43.5215 4.89551 43.1195 4.89551 42.6236C4.89551 42.1278 5.35214 41.7258 5.91549 41.7258C6.47883 41.7258 6.93557 42.1278 6.93557 42.6236Z" fill="#F4A72A"/>
<path d="M9.63099 42.6236C9.63099 43.1195 9.17425 43.5215 8.6109 43.5215C8.04756 43.5215 7.59082 43.1195 7.59082 42.6236C7.59082 42.1278 8.04756 41.7258 8.6109 41.7258C9.17425 41.7258 9.63099 42.1278 9.63099 42.6236Z" fill="#3F4D79"/>
<path d="M12.2501 42.6236C12.2501 43.1195 11.7934 43.5215 11.23 43.5215C10.6667 43.5215 10.21 43.1195 10.21 42.6236C10.21 42.1278 10.6667 41.7258 11.23 41.7258C11.7934 41.7258 12.2501 42.1278 12.2501 42.6236Z" fill="#3F4D79"/>
<path d="M24.6948 68.4473H6.93555V49.3523H24.6948V68.4473Z" fill="#FFB7D5"/>
<path d="M40.7638 54.4971H13.6504V54.3131H40.7638V54.4971Z" fill="#3F4D79"/>
<path d="M40.7638 56.9414H13.6504V56.7574H40.7638V56.9414Z" fill="#3F4D79"/>
<path d="M40.7638 59.3857H13.6504V59.2018H40.7638V59.3857Z" fill="#3F4D79"/>
<path d="M45.2908 61.6279H27.0537V61.4439H45.2908V61.6279Z" fill="#3F4D79"/>
<path d="M45.2908 64.0713H27.0537V63.8873H45.2908V64.0713Z" fill="#3F4D79"/>
<path d="M45.2908 66.5156H27.0537V66.3316H45.2908V66.5156Z" fill="#3F4D79"/>
<path d="M52.8469 122.419H7.13286C5.40373 122.419 4.00195 121.185 4.00195 119.664V93.4063C4.00195 91.8838 5.40373 90.6502 7.13286 90.6502H52.8469C54.576 90.6502 55.9778 91.8838 55.9778 93.4063V119.664C55.9778 121.185 54.576 122.419 52.8469 122.419Z" fill="white"/>
<path d="M7.13288 90.742C5.46417 90.742 4.10649 91.937 4.10649 93.4061V119.664C4.10649 121.132 5.46417 122.327 7.13288 122.327H52.8469C54.5156 122.327 55.8733 121.132 55.8733 119.664V93.4061C55.8733 91.937 54.5156 90.742 52.8469 90.742H7.13288ZM52.8469 122.511H7.13288C5.34888 122.511 3.89746 121.234 3.89746 119.664V93.4061C3.89746 91.8358 5.34888 90.558 7.13288 90.558H52.8469C54.6309 90.558 56.0824 91.8358 56.0824 93.4061V119.664C56.0824 121.234 54.6309 122.511 52.8469 122.511Z" fill="#3F4D79"/>
<path d="M55.9778 95.042H4.00195V94.858H55.9778V95.042Z" fill="#3F4D79"/>
<path d="M9.8722 92.9342C9.8722 93.43 9.41556 93.832 8.85211 93.832C8.28877 93.832 7.83203 93.43 7.83203 92.9342C7.83203 92.4383 8.28877 92.0363 8.85211 92.0363C9.41556 92.0363 9.8722 92.4383 9.8722 92.9342Z" fill="#F4A72A"/>
<path d="M12.5665 92.9342C12.5665 93.43 12.1098 93.832 11.5464 93.832C10.9831 93.832 10.5264 93.43 10.5264 92.9342C10.5264 92.4383 10.9831 92.0363 11.5464 92.0363C12.1098 92.0363 12.5665 92.4383 12.5665 92.9342Z" fill="#3F4D79"/>
<path d="M15.1857 92.9342C15.1857 93.43 14.7289 93.832 14.1656 93.832C13.6022 93.832 13.1455 93.43 13.1455 92.9342C13.1455 92.4383 13.6022 92.0363 14.1656 92.0363C14.7289 92.0363 15.1857 92.4383 15.1857 92.9342Z" fill="#3F4D79"/>
<path d="M40.7635 113.434H19.46V100.953H40.7635V113.434Z" fill="#FFB7D5"/>
<path d="M27.5209 109.13C27.5033 109.13 27.4853 109.126 27.4688 109.118L23.77 107.239C23.7376 107.222 23.7178 107.192 23.7178 107.158C23.7178 107.126 23.7376 107.096 23.77 107.079L27.4688 105.2C27.5187 105.174 27.5826 105.189 27.6115 105.233C27.6404 105.277 27.6233 105.333 27.5733 105.359L24.0313 107.158L27.5733 108.959C27.6233 108.984 27.6404 109.041 27.6115 109.084C27.5922 109.114 27.5571 109.13 27.5209 109.13Z" fill="#3F4D79"/>
<path d="M32.0851 109.166C32.0489 109.166 32.0139 109.149 31.9945 109.12C31.9656 109.076 31.9828 109.02 32.0327 108.994L35.5747 107.195L32.0327 105.394C31.9828 105.369 31.9656 105.312 31.9945 105.268C32.0233 105.224 32.0872 105.209 32.1372 105.235L35.836 107.115C35.8684 107.131 35.8883 107.161 35.8883 107.195C35.8883 107.227 35.8684 107.257 35.836 107.274L32.1372 109.153C32.1208 109.161 32.1029 109.166 32.0851 109.166Z" fill="#3F4D79"/>
<path d="M29.3732 111.119C29.3675 111.119 29.3617 111.118 29.3558 111.117C29.2988 111.109 29.2605 111.062 29.27 111.012L30.7463 103.274C30.7558 103.224 30.8091 103.19 30.8667 103.199C30.9236 103.207 30.962 103.255 30.9525 103.304L29.4762 111.042C29.4676 111.087 29.4233 111.119 29.3732 111.119Z" fill="#3F4D79"/>
<path d="M181.783 84.332H136.069C134.34 84.332 132.938 83.0981 132.938 81.5762V55.3186C132.938 53.797 134.34 52.5627 136.069 52.5627H181.783C183.512 52.5627 184.913 53.797 184.913 55.3186V81.5762C184.913 83.0981 183.512 84.332 181.783 84.332Z" fill="white"/>
<path d="M136.068 52.6551C134.4 52.6551 133.042 53.8501 133.042 55.3195V81.577C133.042 83.0458 134.4 84.2408 136.068 84.2408H181.783C183.451 84.2408 184.809 83.0458 184.809 81.577V55.3195C184.809 53.8501 183.451 52.6551 181.783 52.6551H136.068ZM181.783 84.4248H136.068C134.284 84.4248 132.832 83.1473 132.832 81.577V55.3195C132.832 53.7496 134.284 52.4714 136.068 52.4714H181.783C183.565 52.4714 185.018 53.7496 185.018 55.3195V81.577C185.018 83.1473 183.565 84.4248 181.783 84.4248Z" fill="#3F4D79"/>
<path d="M184.913 56.9551H132.938V56.7715H184.913V56.9551Z" fill="#3F4D79"/>
<path d="M138.808 54.8473C138.808 55.3431 138.351 55.7451 137.788 55.7451C137.224 55.7451 136.768 55.3431 136.768 54.8473C136.768 54.3514 137.224 53.9494 137.788 53.9494C138.351 53.9494 138.808 54.3514 138.808 54.8473Z" fill="#F4A72A"/>
<path d="M141.502 54.8473C141.502 55.3431 141.045 55.7451 140.482 55.7451C139.919 55.7451 139.462 55.3431 139.462 54.8473C139.462 54.3514 139.919 53.9494 140.482 53.9494C141.045 53.9494 141.502 54.3514 141.502 54.8473Z" fill="#3F4D79"/>
<path d="M144.122 54.8473C144.122 55.3431 143.665 55.7451 143.102 55.7451C142.539 55.7451 142.082 55.3431 142.082 54.8473C142.082 54.3514 142.539 53.9494 143.102 53.9494C143.665 53.9494 144.122 54.3514 144.122 54.8473Z" fill="#3F4D79"/>
<path d="M170.159 74.7471H149.519V63.4076H170.159V74.7471Z" fill="#F4A72A"/>
<path d="M170.159 63.4079L159.839 69.0771L149.519 63.4079H170.159Z" fill="#3F4D79"/>
<path d="M172.697 63.0476C172.697 64.0463 171.777 64.8564 170.642 64.8564C169.507 64.8564 168.587 64.0463 168.587 63.0476C168.587 62.0489 169.507 61.2388 170.642 61.2388C171.777 61.2388 172.697 62.0489 172.697 63.0476Z" fill="#3F4D79"/>
<path d="M170.609 62.3162H170.602L170.216 62.5L170.158 62.2991L170.644 62.0702H170.9V64.0264H170.609V62.3162Z" fill="#F4A72A"/>
<path d="M178.642 146.221H132.927C131.199 146.221 129.797 144.987 129.797 143.465V117.207C129.797 115.686 131.199 114.452 132.927 114.452H178.642C180.37 114.452 181.772 115.686 181.772 117.207V143.465C181.772 144.987 180.37 146.221 178.642 146.221Z" fill="white"/>
<path d="M132.926 114.544C131.259 114.544 129.9 115.738 129.9 117.207V143.464C129.9 144.934 131.259 146.129 132.926 146.129H178.641C180.309 146.129 181.667 144.934 181.667 143.464V117.207C181.667 115.738 180.309 114.544 178.641 114.544H132.926ZM178.641 146.312H132.926C131.143 146.312 129.691 145.035 129.691 143.464V117.207C129.691 115.637 131.143 114.36 132.926 114.36H178.641C180.424 114.36 181.876 115.637 181.876 117.207V143.464C181.876 145.035 180.424 146.312 178.641 146.312Z" fill="#3F4D79"/>
<path d="M181.772 118.843H129.797V118.659H181.772V118.843Z" fill="#3F4D79"/>
<path d="M135.666 116.735C135.666 117.231 135.209 117.633 134.646 117.633C134.083 117.633 133.626 117.231 133.626 116.735C133.626 116.239 134.083 115.837 134.646 115.837C135.209 115.837 135.666 116.239 135.666 116.735Z" fill="#F4A72A"/>
<path d="M138.36 116.735C138.36 117.231 137.904 117.633 137.34 117.633C136.777 117.633 136.32 117.231 136.32 116.735C136.32 116.239 136.777 115.837 137.34 115.837C137.904 115.837 138.36 116.239 138.36 116.735Z" fill="#3F4D79"/>
<path d="M140.981 116.735C140.981 117.231 140.524 117.633 139.961 117.633C139.397 117.633 138.94 117.231 138.94 116.735C138.94 116.239 139.397 115.837 139.961 115.837C140.524 115.837 140.981 116.239 140.981 116.735Z" fill="#3F4D79"/>
<path d="M164.945 141.395H134.646V124.082H164.945V141.395Z" fill="#F0F0FF"/>
<path d="M146.473 129.542V135.31C146.473 136.167 147.54 136.692 148.37 136.243L153.97 133.211C154.781 132.772 154.755 131.727 153.922 131.319L148.322 128.583C147.492 128.179 146.473 128.707 146.473 129.542Z" fill="#FFB7D5"/>
<path d="M179.334 129.332H169.318V124.082H179.334V129.332Z" fill="#F0F0FF"/>
<path d="M179.334 135.363H169.318V130.113H179.334V135.363Z" fill="#F0F0FF"/>
<path d="M179.334 141.395H169.318V136.144H179.334V141.395Z" fill="#F0F0FF"/>
<path d="M78.8342 48.5361H33.1203C31.3911 48.5361 29.9893 47.3027 29.9893 45.7805V19.5227C29.9893 18.0004 31.3911 16.7671 33.1203 16.7671H78.8342C80.5634 16.7671 81.9652 18.0004 81.9652 19.5227V45.7805C81.9652 47.3027 80.5634 48.5361 78.8342 48.5361Z" fill="white"/>
<path d="M33.1202 16.8594C31.4514 16.8594 30.0938 18.054 30.0938 19.5236V45.7807C30.0938 47.2493 31.4514 48.445 33.1202 48.445H78.834C80.5027 48.445 81.8604 47.2493 81.8604 45.7807V19.5236C81.8604 18.054 80.5027 16.8594 78.834 16.8594H33.1202ZM78.834 48.6289H33.1202C31.3362 48.6289 29.8848 47.3514 29.8848 45.7807V19.5236C29.8848 17.9529 31.3362 16.6754 33.1202 16.6754H78.834C80.618 16.6754 82.0695 17.9529 82.0695 19.5236V45.7807C82.0695 47.3514 80.618 48.6289 78.834 48.6289Z" fill="#3F4D79"/>
<path d="M81.9651 21.1582H29.9893V20.9741H81.9651V21.1582Z" fill="#3F4D79"/>
<path d="M35.8593 19.0498C35.8593 19.5456 35.4028 19.9482 34.8393 19.9482C34.2759 19.9482 33.8193 19.5456 33.8193 19.0498C33.8193 18.5539 34.2759 18.1523 34.8393 18.1523C35.4028 18.1523 35.8593 18.5539 35.8593 19.0498Z" fill="#F4A72A"/>
<path d="M38.5549 19.0498C38.5549 19.5456 38.0981 19.9482 37.5346 19.9482C36.9713 19.9482 36.5146 19.5456 36.5146 19.0498C36.5146 18.5539 36.9713 18.1523 37.5346 18.1523C38.0981 18.1523 38.5549 18.5539 38.5549 19.0498Z" fill="#3F4D79"/>
<path d="M41.175 19.0498C41.175 19.5456 40.7183 19.9482 40.1549 19.9482C39.5916 19.9482 39.1348 19.5456 39.1348 19.0498C39.1348 18.5539 39.5916 18.1523 40.1549 18.1523C40.7183 18.1523 41.175 18.5539 41.175 19.0498Z" fill="#3F4D79"/>
<path d="M51.9531 26.7453L43.7881 31.1531H43.7882C44.9641 31.6807 45.4314 32.9475 44.8322 33.9828L44.1087 35.2315L46.5042 36.3067L48.8994 37.3809L49.6229 36.1321C50.2222 35.0968 51.6613 34.685 52.8372 35.2126L51.9531 26.7453Z" fill="white"/>
<path d="M44.2494 35.1929L48.8537 37.2581L49.5297 36.0912C50.126 35.0609 51.5249 34.6223 52.7165 35.0628L51.8645 26.9027L43.9951 31.1509C45.1024 31.7405 45.522 32.9948 44.9254 34.026L44.2494 35.1929ZM48.8995 37.4746C48.8832 37.4746 48.8668 37.4708 48.852 37.4642L44.0613 35.3154C44.0099 35.2917 43.9894 35.2366 44.0156 35.191L44.739 33.9424C45.3111 32.954 44.8633 31.7405 43.7407 31.2363C43.707 31.2211 43.6852 31.1917 43.6837 31.1585C43.6822 31.1252 43.7012 31.0939 43.7335 31.0758L51.8985 26.6682C51.9293 26.6511 51.9677 26.6502 51.9999 26.6644C52.0322 26.6787 52.0539 26.7062 52.0572 26.7385L52.9412 35.2053C52.9448 35.2385 52.9274 35.2717 52.8958 35.2898C52.8643 35.3088 52.8236 35.3107 52.7898 35.2955C51.6671 34.7922 50.2882 35.1863 49.716 36.1747L48.9927 37.4243C48.9801 37.4461 48.9581 37.4623 48.9318 37.4699C48.9211 37.4727 48.9103 37.4746 48.8995 37.4746Z" fill="#3F4D79"/>
<path d="M46.9137 40.7021L41.9717 38.4851L43.6677 35.5561L48.6097 37.7731L46.9137 40.7021Z" fill="white"/>
<path d="M42.1124 38.4454L46.868 40.5787L48.4691 37.8134L43.7134 35.6801L42.1124 38.4454ZM46.9137 40.7939C46.8977 40.7939 46.8815 40.7912 46.8662 40.7838L41.9242 38.5668C41.8728 38.5438 41.8524 38.4886 41.8786 38.4435L43.5746 35.5145C43.5871 35.4924 43.6091 35.4759 43.6354 35.4685C43.6617 35.4611 43.6904 35.463 43.7151 35.474L48.6572 37.691C48.6819 37.7021 48.7006 37.7214 48.7092 37.7444C48.7177 37.7683 48.7154 37.7931 48.7029 37.8152L47.0069 40.7443C46.9884 40.7756 46.9517 40.7939 46.9137 40.7939Z" fill="#3F4D79"/>
<path d="M49.4065 38.6523L42.5049 35.5559L43.2872 34.2054L50.1887 37.301L49.4065 38.6523Z" fill="#F4A72A"/>
<path d="M51.8698 26.8898L48.3525 32.9639L51.8698 26.8898Z" fill="white"/>
<path d="M48.3525 33.0566C48.3365 33.0566 48.3203 33.0538 48.3051 33.0462C48.2537 33.0234 48.2333 32.9684 48.2594 32.9229L51.7768 26.8484C51.803 26.8029 51.8659 26.7849 51.9173 26.8077C51.9688 26.8314 51.9892 26.8864 51.963 26.9319L48.4457 33.0064C48.4273 33.0386 48.3905 33.0566 48.3525 33.0566Z" fill="#3F4D79"/>
<path d="M48.1318 34.1524C48.0274 34.3327 47.7768 34.4045 47.572 34.3125C47.3672 34.2214 47.2859 34.0006 47.3902 33.8203C47.4946 33.64 47.7452 33.5682 47.95 33.6602C48.1548 33.7522 48.2361 33.9721 48.1318 34.1524Z" fill="#F4A72A"/>
<path d="M64.1089 145.084H26.4778C25.0543 145.084 23.9004 144.068 23.9004 142.815V121.201C23.9004 119.948 25.0543 118.932 26.4778 118.932H64.1089C65.5324 118.932 66.6863 119.948 66.6863 121.201V142.815C66.6863 144.068 65.5324 145.084 64.1089 145.084Z" fill="white"/>
<path d="M26.4788 119.024C25.1153 119.024 24.0059 120 24.0059 121.201V142.815C24.0059 144.016 25.1153 144.992 26.4788 144.992H64.1099C65.4735 144.992 66.5828 144.016 66.5828 142.815V121.201C66.5828 120 65.4735 119.024 64.1099 119.024H26.4788ZM64.1099 145.176H26.4788C25 145.176 23.7969 144.117 23.7969 142.815V121.201C23.7969 119.899 25 118.84 26.4788 118.84H64.1099C65.5887 118.84 66.7918 119.899 66.7918 121.201V142.815C66.7918 144.117 65.5887 145.176 64.1099 145.176Z" fill="#3F4D79"/>
<path d="M66.6863 122.563H23.9004V122.38H66.6863V122.563Z" fill="#3F4D79"/>
<path d="M28.7332 120.812C28.7332 121.221 28.3572 121.552 27.8935 121.552C27.4297 121.552 27.0537 121.221 27.0537 120.812C27.0537 120.405 27.4297 120.073 27.8935 120.073C28.3572 120.073 28.7332 120.405 28.7332 120.812Z" fill="#F4A72A"/>
<path d="M30.9509 120.812C30.9509 121.221 30.5749 121.552 30.1112 121.552C29.6474 121.552 29.2715 121.221 29.2715 120.812C29.2715 120.405 29.6474 120.073 30.1112 120.073C30.5749 120.073 30.9509 120.405 30.9509 120.812Z" fill="#3F4D79"/>
<path d="M33.1082 120.812C33.1082 121.221 32.7322 121.552 32.2685 121.552C31.8048 121.552 31.4287 121.221 31.4287 120.812C31.4287 120.405 31.8048 120.073 32.2685 120.073C32.7322 120.073 33.1082 120.405 33.1082 120.812Z" fill="#3F4D79"/>
<path d="M34.7041 130.144V125.708C34.7041 125.132 35.2349 124.664 35.8896 124.664H39.2469C39.9017 124.664 40.4325 125.132 40.4325 125.708C40.4325 126.227 40.9098 126.646 41.4985 126.646H47.9818C48.8232 126.646 49.5051 127.247 49.5051 127.987V130.144H34.7041Z" fill="#3F4D79"/>
<path d="M53.6432 140.526H36.1448C35.3492 140.526 34.7041 139.959 34.7041 139.259V128.949C34.7041 128.249 35.3492 127.681 36.1448 127.681H53.6432C54.4388 127.681 55.0838 128.249 55.0838 128.949V139.259C55.0838 139.959 54.4388 140.526 53.6432 140.526Z" fill="#F4A72A"/>
<path d="M48.8874 133.602H45.4647V130.589H44.3251V133.602H40.9023V134.605H44.3251V137.617H45.4647V134.605H48.8874V133.602Z" fill="white"/>
<path d="M101.193 52.0479H63.5215C62.0965 52.0479 60.9414 51.0315 60.9414 49.7776V28.1396C60.9414 26.8847 62.0965 25.8684 63.5215 25.8684H101.193C102.618 25.8684 103.773 26.8847 103.773 28.1396V49.7776C103.773 51.0315 102.618 52.0479 101.193 52.0479Z" fill="white"/>
<path d="M63.5215 25.961C62.1564 25.961 61.046 26.9379 61.046 28.1401V49.7773C61.046 50.9795 62.1564 51.9563 63.5215 51.9563H101.192C102.558 51.9563 103.669 50.9795 103.669 49.7773V28.1401C103.669 26.9379 102.558 25.961 101.192 25.961H63.5215ZM101.192 52.1406H63.5215C62.0412 52.1406 60.8369 51.0807 60.8369 49.7773V28.1401C60.8369 26.8367 62.0412 25.7768 63.5215 25.7768H101.192C102.673 25.7768 103.877 26.8367 103.877 28.1401V49.7773C103.877 51.0807 102.673 52.1406 101.192 52.1406Z" fill="#3F4D79"/>
<path d="M103.773 29.5039H60.9414V29.3201H103.773V29.5039Z" fill="#3F4D79"/>
<path d="M65.778 27.7514C65.778 28.1597 65.4015 28.4912 64.9373 28.4912C64.4732 28.4912 64.0967 28.1597 64.0967 27.7514C64.0967 27.3431 64.4732 27.0115 64.9373 27.0115C65.4015 27.0115 65.778 27.3431 65.778 27.7514Z" fill="#F4A72A"/>
<path d="M67.9995 27.7514C67.9995 28.1597 67.6232 28.4912 67.1589 28.4912C66.6947 28.4912 66.3184 28.1597 66.3184 27.7514C66.3184 27.3431 66.6947 27.0115 67.1589 27.0115C67.6232 27.0115 67.9995 27.3431 67.9995 27.7514Z" fill="#3F4D79"/>
<path d="M70.1578 27.7514C70.1578 28.1597 69.7814 28.4912 69.3172 28.4912C68.853 28.4912 68.4766 28.1597 68.4766 27.7514C68.4766 27.3431 68.853 27.0115 69.3172 27.0115C69.7814 27.0115 70.1578 27.3431 70.1578 27.7514Z" fill="#3F4D79"/>
<path d="M79.5465 43.6406H70.6172V32.3154H77.5381L79.5465 34.0062V43.6406Z" fill="#3F4D79"/>
<path d="M78.443 34.9541H71.7217V34.3138H78.443V34.9541Z" fill="white"/>
<path d="M78.443 36.2109H71.7217V35.5716H78.443V36.2109Z" fill="white"/>
<path d="M78.443 37.4688H71.7217V36.8294H78.443V37.4688Z" fill="white"/>
<path d="M78.443 38.6182H71.7217V37.9779H78.443V38.6182Z" fill="white"/>
<path d="M78.443 39.7676H71.7217V39.1273H78.443V39.7676Z" fill="white"/>
<path d="M78.443 40.917H71.7217V40.2776H78.443V40.917Z" fill="white"/>
<path d="M78.443 42.0674H71.7217V41.428H78.443V42.0674Z" fill="white"/>
<path d="M74.3101 46.666H65.3809V35.3399H72.3017L74.3101 37.0316V46.666Z" fill="#F4A72A"/>
<path d="M73.2058 37.9775H66.4844V37.3382H73.2058V37.9775Z" fill="white"/>
<path d="M73.2058 39.2354H66.4844V38.596H73.2058V39.2354Z" fill="white"/>
<path d="M73.2058 40.4932H66.4844V39.8538H73.2058V40.4932Z" fill="white"/>
<path d="M73.2058 41.6426H66.4844V41.0023H73.2058V41.6426Z" fill="white"/>
<path d="M73.2058 42.792H66.4844V42.1526H73.2058V42.792Z" fill="white"/>
<path d="M73.2058 43.9414H66.4844V43.3021H73.2058V43.9414Z" fill="white"/>
<path d="M73.2058 45.0918H66.4844V44.4515H73.2058V45.0918Z" fill="white"/>
<path d="M177.741 106.893H140.109C138.687 106.893 137.532 105.877 137.532 104.624V83.0091C137.532 81.7561 138.687 80.7405 140.109 80.7405H177.741C179.164 80.7405 180.318 81.7561 180.318 83.0091V104.624C180.318 105.877 179.164 106.893 177.741 106.893Z" fill="white"/>
<path d="M140.11 80.8323C138.746 80.8323 137.636 81.8088 137.636 83.0088V104.624C137.636 105.824 138.746 106.8 140.11 106.8H177.741C179.103 106.8 180.214 105.824 180.214 104.624V83.0088C180.214 81.8088 179.103 80.8323 177.741 80.8323H140.11ZM177.741 106.984H140.11C138.631 106.984 137.428 105.926 137.428 104.624V83.0088C137.428 81.7073 138.631 80.6484 140.11 80.6484H177.741C179.22 80.6484 180.422 81.7073 180.422 83.0088V104.624C180.422 105.926 179.22 106.984 177.741 106.984Z" fill="#3F4D79"/>
<path d="M180.318 84.3721H137.532V84.1881H180.318V84.3721Z" fill="#3F4D79"/>
<path d="M142.364 82.6197C142.364 83.0282 141.989 83.3594 141.525 83.3594C141.061 83.3594 140.686 83.0282 140.686 82.6197C140.686 82.2122 141.061 81.881 141.525 81.881C141.989 81.881 142.364 82.2122 142.364 82.6197Z" fill="#F4A72A"/>
<path d="M144.584 82.6197C144.584 83.0282 144.208 83.3594 143.744 83.3594C143.28 83.3594 142.904 83.0282 142.904 82.6197C142.904 82.2122 143.28 81.881 143.744 81.881C144.208 81.881 144.584 82.2122 144.584 82.6197Z" fill="#3F4D79"/>
<path d="M146.74 82.6197C146.74 83.0282 146.364 83.3594 145.901 83.3594C145.437 83.3594 145.061 83.0282 145.061 82.6197C145.061 82.2122 145.437 81.881 145.901 81.881C146.364 81.881 146.74 82.2122 146.74 82.6197Z" fill="#3F4D79"/>
<path d="M176.024 95.1729H142.903V93.379H176.024V95.1729Z" fill="#F0F0FF"/>
<path d="M161.893 95.1729H142.904V93.379H161.893V95.1729Z" fill="#F4A72A"/>
<path d="M161.893 96.6709H142.904V96.4869H161.893V96.6709Z" fill="#3F4D79"/>
<path d="M161.893 97.8223H142.904V97.6382H161.893V97.8223Z" fill="#3F4D79"/>
<path d="M161.893 98.9717H142.904V98.7877H161.893V98.9717Z" fill="#3F4D79"/>
<path d="M161.893 100.122H142.904V99.938H161.893V100.122Z" fill="#3F4D79"/>
<path d="M161.893 101.271H142.904V101.088H161.893V101.271Z" fill="#3F4D79"/>
<path d="M92.4525 149.299L93.136 150.806L90.3643 152.374L93.4778 153.777L97.9961 152.909L97.4265 147.997L92.4525 149.299Z" fill="#E57281"/>
<path d="M102.249 154.243H95.9365V147.37H102.249V154.243Z" fill="#E57281"/>
<path d="M96.6349 152.78C94.8152 153.047 91.8637 153.218 90.1089 151.958L80.945 155.623C79.6392 156.145 78.8008 157.292 78.8008 158.554H98.2309V153.966C98.2309 153.221 97.47 152.658 96.6349 152.78Z" fill="#3C4564"/>
<path d="M87.6088 155.288L86.8301 155.618L85.3555 152.926L86.1341 152.595L87.6088 155.288Z" fill="#F4A72A"/>
<path d="M85.3316 156.255L84.5528 156.585L83.0781 153.892L83.8569 153.562L85.3316 156.255Z" fill="#F4A72A"/>
<path d="M103.459 159.703H94.7842V155.847C94.7842 154.509 96.0154 153.426 97.5351 153.426H100.708C102.228 153.426 103.459 154.509 103.459 155.847V159.703Z" fill="#3F4D79"/>
<path d="M101.05 154.871H97.1934V154.161H101.05V154.871Z" fill="#F4A72A"/>
<path d="M101.05 155.966H97.1934V155.256H101.05V155.966Z" fill="#F4A72A"/>
<path d="M88.5376 120.428L90.1471 105.034C90.1983 104.537 91.024 104.537 91.0762 105.034L93.9316 132.35C93.9818 132.836 93.2011 132.981 93.0244 132.518L88.6075 120.955C88.5429 120.785 88.519 120.606 88.5376 120.428ZM101.821 78.7548C101.733 78.1109 101.111 77.6261 100.374 77.6261H98.083H83.1401H80.8582C80.1189 77.6261 79.4948 78.1127 79.4109 78.7594C79.4104 78.7631 79.4099 78.7668 79.4094 78.7704C79.3562 79.1807 79.3055 79.591 79.2565 80.0022C79.1903 80.5569 79.1273 81.1117 79.0667 81.6673C78.9908 82.3646 78.9188 83.0628 78.8502 83.7601C78.7678 84.5982 78.6904 85.4353 78.617 86.2743C78.5315 87.2494 78.4519 88.2245 78.377 89.2015C78.2919 90.3119 78.2134 91.4231 78.1405 92.5344C78.0591 93.7791 77.9849 95.0237 77.9175 96.2684C77.8429 97.6437 77.7767 99.019 77.7179 100.394C77.6538 101.898 77.5987 103.402 77.5521 104.907C77.5016 106.537 77.461 108.167 77.4298 109.798C77.3886 111.961 77.3695 114.189 77.3594 116.377C77.3499 118.492 77.0587 120.809 77.7652 122.862C78.137 123.941 78.7712 124.93 79.3115 125.947C80.1425 127.512 80.9429 129.09 81.766 130.659C82.6123 132.272 83.4642 133.881 84.3229 135.49C85.2169 137.163 86.1183 138.833 87.0283 140.501C87.958 142.204 88.8967 143.903 89.8461 145.598C90.4564 146.686 91.07 147.772 91.6898 148.856C92.0388 149.467 92.8708 149.728 93.5815 149.452L95.0416 148.885C95.2621 148.798 95.5067 148.875 95.6248 149.04C95.8537 149.357 96.4244 149.596 96.8518 149.596H101.362C102.138 149.596 102.778 149.059 102.818 148.376C105.206 107.266 102.532 83.9736 101.821 78.7548Z" fill="#3F4D79"/>
<path d="M93.9307 132.349L95.9353 147.369L93.0234 132.518L93.9307 132.349Z" fill="#3C4564"/>
<path d="M104.827 43.722C104.548 42.4921 103.322 41.6366 102.491 40.6164C102.342 40.4315 102.201 40.2328 102.16 40.0092C102.124 39.8096 102.171 39.6072 102.205 39.4076C102.354 38.5245 102.21 37.5447 101.525 36.8851C100.791 36.1768 99.6159 35.9873 98.5269 35.9514C98.2625 35.9422 97.9907 35.9385 97.7462 35.8475C97.3845 35.7122 97.1462 35.4087 96.8337 35.1989C96.2212 34.7877 95.3308 34.7757 94.6483 35.0904C93.9658 35.405 93.4881 36.0057 93.2718 36.6561C93.0847 37.22 93.0847 37.8207 93.1589 38.4214C91.4908 37.932 89.6764 37.8676 87.9156 37.9964C86.8767 38.0728 85.7891 38.2338 84.9777 38.8096C84.0838 39.4444 83.7235 40.4545 83.6407 41.4296C83.6209 41.6642 83.5689 42.0193 83.59 42.3274C83.5505 42.5804 83.5459 42.8601 83.557 43.1609C83.6008 44.3448 83.9939 45.5214 84.7036 46.5297C84.8102 46.6815 84.9258 46.8314 85.0812 46.9455C85.231 47.0559 85.4124 47.1285 85.5989 47.1801C85.8764 47.2564 86.1699 47.2877 86.46 47.2711C87.09 47.2343 87.6667 46.9786 88.2157 46.6934C88.4716 46.9758 88.7314 47.2537 89.005 47.5204C90.3045 48.7844 92.1681 49.8598 94.0661 49.5222C95.1959 49.3207 96.1617 48.6299 96.7835 47.7762C97.0961 47.3475 97.3291 46.8802 97.5026 46.3935C97.8956 46.7302 98.3189 47.0347 98.7924 47.2813C99.4383 47.6189 100.155 47.8396 100.882 48.0108C101.727 48.2095 102.672 48.3327 103.442 47.9666C104.026 47.6897 104.416 47.1653 104.619 46.6097C104.822 46.0541 104.859 45.4635 104.884 44.8812C104.901 44.4939 104.914 44.102 104.827 43.722Z" fill="#3F4D79"/>
<path d="M93.137 38.4135C93.137 38.4135 96.8964 40.5726 97.9123 43.0959L98.2436 43.1152C98.2436 43.1152 97.7378 39.1255 93.0889 37.776L93.137 38.4135Z" fill="#E6E6FF"/>
<path d="M92.7552 45.705C92.6214 45.7096 92.496 45.7372 92.3779 45.7749L92.3747 45.717C90.7045 45.5017 89.5831 45.1098 88.8286 44.6701C89.3096 45.0528 89.9573 45.453 90.8352 45.8403C90.9157 45.8752 90.9491 45.9626 90.9084 46.0334C90.8801 46.0822 90.8258 46.1116 90.7673 46.1135C90.7411 46.1144 90.714 46.1089 90.6889 46.0978C88.6512 45.2009 87.7794 44.223 87.4067 43.5266C87.2621 43.7483 87.09 43.9572 86.9093 44.1586C86.6093 44.4916 86.2863 44.8145 85.8956 45.0648C85.6812 45.2018 85.443 45.3131 85.1929 45.3895L84.8268 49.8815C84.8194 49.9726 84.8195 50.0646 84.8385 50.1538C84.963 50.7416 85.6118 51.1464 86.3011 51.0296L87.3685 50.8493L87.5757 55.9355L93.6895 55.7424L92.5524 47.8475C92.6465 47.8641 92.7426 47.8751 92.843 47.8715C93.5234 47.8503 94.0543 47.348 94.0303 46.7491C94.0052 46.1512 93.4345 45.6839 92.7552 45.705Z" fill="#E57281"/>
<path d="M86.3135 46.1075C86.3241 46.3688 86.2479 46.5822 86.1433 46.5859C86.0386 46.5887 85.9451 46.3808 85.9346 46.1195C85.9239 45.8592 86.0001 45.6448 86.1048 45.6411C86.2095 45.6384 86.3029 45.8472 86.3135 46.1075Z" fill="#2F3A5B"/>
<path d="M88.336 46.044C88.3466 46.3043 88.2704 46.5187 88.1658 46.5214C88.061 46.5251 87.9676 46.3163 87.957 46.056C87.9464 45.7947 88.0227 45.5813 88.1273 45.5776C88.2319 45.5739 88.3253 45.7827 88.336 46.044Z" fill="#2F3A5B"/>
<path d="M87.0078 45.9769L86.3243 48.1111C86.2722 48.2731 86.415 48.4331 86.6067 48.4276L86.8254 48.4202C86.9436 48.4166 87.0377 48.3319 87.0398 48.228L87.0849 45.987C87.0856 45.9466 87.0204 45.9383 87.0078 45.9769Z" fill="#2F3A5B"/>
<path d="M87.3682 50.85L89.5316 50.3781L87.4298 52.3633L87.3682 50.85Z" fill="#2F3A5B"/>
<path d="M92.517 47.4833C92.5776 47.4806 92.6246 47.4364 92.6226 47.3831L92.5839 46.4337C92.5818 46.385 92.6257 46.3436 92.6811 46.3417L93.0427 46.3298C93.1023 46.3279 93.1504 46.2838 93.1472 46.2304C93.1451 46.178 93.095 46.1366 93.0343 46.1375L92.6738 46.1495C92.4971 46.155 92.3592 46.2856 92.3654 46.4411L92.4041 47.3904C92.4062 47.4429 92.4574 47.4852 92.517 47.4833Z" fill="#2F3A5B"/>
<path d="M85.8847 49.8301C85.844 49.8301 85.8047 49.8108 85.7849 49.7767C85.7566 49.728 85.7782 49.6691 85.8332 49.6433C85.8757 49.624 86.8817 49.1751 87.5636 49.498C87.6181 49.5237 87.6385 49.5835 87.6092 49.6314C87.58 49.6792 87.512 49.6976 87.4575 49.6719C86.8801 49.3986 85.9452 49.8154 85.9358 49.819C85.9194 49.8264 85.9019 49.8301 85.8847 49.8301Z" fill="#2F3A5B"/>
<path d="M114.141 66.7334L102.69 56.5351C100.854 54.9022 98.3542 53.9823 95.7444 53.9823H86.7353C84.1236 53.9823 81.6207 54.9031 79.7861 56.5387L68.3525 66.7334L78.1343 75.366C77.9583 77.9087 77.981 77.5803 77.8049 80.1229C77.6933 81.7365 77.5817 83.3501 77.47 84.9627C77.4316 85.5174 77.1667 86.3518 77.3064 86.8605C77.6186 87.9975 79.4232 88.6801 80.5682 88.8853C82.0555 89.1511 83.5967 89.0223 85.1056 89.1668C87.8749 89.4326 90.414 90.6046 93.0939 91.2725C95.9911 91.9946 99.0774 92.1216 102.038 91.6404C102.506 91.5641 102.987 91.4666 103.359 91.2062C103.896 90.8309 104.093 90.1998 104.211 89.6065C104.408 88.612 104.459 87.5974 104.379 86.591C104.425 86.591 104.469 86.591 104.515 86.591L104.329 75.7018L114.141 66.7334Z" fill="#F4A72A"/>
<path d="M104.373 72.9326C104.255 72.9326 104.156 72.8517 104.149 72.7468L103.567 64.2715C103.559 64.1629 103.654 64.0691 103.777 64.0627C103.899 64.0572 104.007 64.139 104.014 64.2476L104.596 72.7229C104.604 72.8323 104.51 72.9253 104.386 72.9317C104.382 72.9326 104.377 72.9326 104.373 72.9326Z" fill="#3F4D79"/>
<path d="M78.1346 75.5625C78.1284 75.5625 78.1222 75.5625 78.1158 75.5616C77.9924 75.5533 77.9007 75.4576 77.9109 75.3491L78.9018 64.8729C78.912 64.7644 79.0208 64.6853 79.1437 64.6926C79.2672 64.7018 79.3588 64.7975 79.3486 64.9061L78.3579 75.3813C78.348 75.4852 78.25 75.5625 78.1346 75.5625Z" fill="#3F4D79"/>
<path d="M118.882 93.3809L117.445 93.6643L109.828 70.6771L104.33 75.7018L114.168 94.7332C114.367 95.1178 114.803 95.3652 115.283 95.3652H123.607C123.888 95.3652 123.987 95.0359 123.74 94.9145L121.236 93.6827C120.52 93.3313 119.682 93.2236 118.882 93.3809Z" fill="#E57281"/>
<path d="M121.488 95.4629C121.465 95.4629 121.442 95.4565 121.421 95.4436C121.372 95.4114 121.361 95.3497 121.398 95.3056L121.648 95.0075L120.563 94.4804C120.075 94.2431 119.501 94.1483 118.948 94.2136L117.856 94.3424C117.794 94.3507 117.739 94.3121 117.731 94.2578C117.722 94.2044 117.765 94.1548 117.827 94.1474L118.919 94.0186C119.519 93.9468 120.142 94.0499 120.672 94.3075L121.868 94.8898C121.897 94.9027 121.916 94.9266 121.924 94.9542C121.93 94.9827 121.924 95.0112 121.904 95.0342L121.578 95.4233C121.556 95.4491 121.522 95.4629 121.488 95.4629Z" fill="#3F4D79"/>
<path d="M100.863 76.0986H89.4316C88.9262 76.0986 88.5166 75.738 88.5166 75.2937H101.779C101.779 75.738 101.369 76.0986 100.863 76.0986Z" fill="#3F4D79"/>
<path d="M98.3593 71.077C97.5305 71.077 96.8595 71.6676 96.8595 72.3962C96.8595 71.6676 96.1885 71.077 95.3607 71.077C94.5319 71.077 93.8609 71.6676 93.8609 72.3962C93.8609 71.6676 93.1899 71.077 92.3621 71.077C91.5333 71.077 90.8623 71.6676 90.8623 72.3962V75.2939H93.8609H96.8595H99.858V72.3962C99.858 71.6676 99.187 71.077 98.3593 71.077Z" fill="white"/>
<path d="M93.1856 76.1475C92.8585 76.0389 91.4318 75.5624 90.487 75.2616L93.5744 74.9598C93.7354 74.9442 93.8723 74.8485 93.9277 74.7151L94.05 74.4198C94.0677 74.3784 94.0332 74.3334 93.9831 74.3315L89.6174 74.1797C89.4909 74.1751 89.3643 74.1788 89.2384 74.1898L74.2748 75.509L76.3285 73.7713L71.1153 69.1698L64.4214 77.4354L64.194 77.7159C62.778 79.4638 64.5369 81.8326 66.9246 81.3929L88.3177 77.2523C88.5655 77.2045 88.821 77.1962 89.0719 77.2284L92.1917 77.6258C92.1917 77.6258 95.5916 77.4804 95.5926 77.4804C96.1696 77.4565 96.6159 77.1419 96.8604 76.6966C95.7964 76.4749 94.6812 76.3774 93.6016 76.2211C93.5096 76.2073 93.4176 76.1944 93.3246 76.1806C93.2776 76.1741 93.2316 76.1631 93.1856 76.1475Z" fill="#E57281"/>
<path d="M96.1745 77.4434C96.1714 77.4434 96.1672 77.4434 96.164 77.4424L92.8665 77.1536C92.8592 77.1536 92.8509 77.1517 92.8435 77.1499L89.3977 76.1923C89.3387 76.1766 89.3059 76.1205 89.3246 76.069C89.3432 76.0166 89.4062 75.988 89.4655 76.0046L92.9 76.9586L96.186 77.2465C96.2477 77.252 96.2926 77.2998 96.2863 77.3541C96.2801 77.4056 96.232 77.4434 96.1745 77.4434Z" fill="#3F4D79"/>
</svg>
