<svg width="31" height="29" viewBox="0 0 31 29" fill="none" xmlns="http://www.w3.org/2000/svg">
<path d="M15.5 14.1284L15.5 27.6482" stroke="#F4A72A" stroke-linecap="round" stroke-linejoin="round"/>
<path fill-rule="evenodd" clip-rule="evenodd" d="M3.1001 14.1284H27.9001V24.0429C27.9001 25.0947 27.4646 26.1035 26.6895 26.8472C25.9143 27.5909 24.863 28.0088 23.7668 28.0088H7.23343C6.1372 28.0088 5.08587 27.5909 4.31072 26.8472C3.53557 26.1035 3.1001 25.0947 3.1001 24.0429V14.1284Z" stroke="#515151" stroke-linecap="round" stroke-linejoin="round"/>
<path fill-rule="evenodd" clip-rule="evenodd" d="M9.29987 8.17814H15.4999V4.21233C15.4999 1.23797 10.9139 0.680772 9.29987 2.22942C7.6858 3.77807 7.6858 6.62949 9.29987 8.17814ZM21.6999 8.17814H15.4999V4.21233C15.4999 1.23797 20.0858 0.680772 21.6999 2.22942C23.3139 3.77807 23.3139 6.62949 21.6999 8.17814ZM3.09987 8.17814H27.8999C28.448 8.17814 28.9736 8.38705 29.3612 8.75892C29.7488 9.13079 29.9665 9.63515 29.9665 10.161V12.144C29.9665 12.6699 29.7488 13.1742 29.3612 13.5461C28.9736 13.9179 28.448 14.1269 27.8999 14.1269H3.09987C2.55176 14.1269 2.02609 13.9179 1.63852 13.5461C1.25094 13.1742 1.0332 12.6699 1.0332 12.144V10.161C1.0332 9.63515 1.25094 9.13079 1.63852 8.75892C2.02609 8.38705 2.55176 8.17814 3.09987 8.17814V8.17814Z" stroke="#515151" stroke-linecap="round" stroke-linejoin="round"/>
</svg>
