<svg width="33" height="33" viewBox="0 0 33 33" fill="none" xmlns="http://www.w3.org/2000/svg">
<path d="M1.91602 7.74935C1.91602 6.20225 2.5306 4.71852 3.62456 3.62456C4.71852 2.5306 6.20225 1.91602 7.74935 1.91602H25.2494C26.7964 1.91602 28.2802 2.5306 29.3741 3.62456C30.4681 4.71852 31.0827 6.20225 31.0827 7.74935V25.2494C31.0827 26.7964 30.4681 28.2802 29.3741 29.3741C28.2802 30.4681 26.7964 31.0827 25.2494 31.0827H7.74935C6.20225 31.0827 4.71852 30.4681 3.62456 29.3741C2.5306 28.2802 1.91602 26.7964 1.91602 25.2494V7.74935Z" stroke="#515151" stroke-width="2" stroke-linecap="round" stroke-linejoin="round"/>
<path d="M11.3958 15.0417C13.4094 15.0417 15.0417 13.4094 15.0417 11.3958C15.0417 9.3823 13.4094 7.75 11.3958 7.75C9.3823 7.75 7.75 9.3823 7.75 11.3958C7.75 13.4094 9.3823 15.0417 11.3958 15.0417Z" stroke="#515151" stroke-width="2" stroke-linecap="round" stroke-linejoin="round"/>
<path d="M20.1838 17.4056L7.75 31.0833H25.444C26.9396 31.0833 28.374 30.4892 29.4316 29.4316C30.4892 28.374 31.0833 26.9396 31.0833 25.444V25.25C31.0833 24.5704 30.8281 24.3094 30.3688 23.8063L24.4917 17.3969C24.2178 17.0981 23.8846 16.8597 23.5134 16.6968C23.1422 16.534 22.7411 16.4503 22.3358 16.4512C21.9304 16.452 21.5297 16.5373 21.1592 16.7016C20.7887 16.866 20.4564 17.1057 20.1838 17.4056V17.4056Z" stroke="#515151" stroke-width="2" stroke-linecap="round" stroke-linejoin="round"/>
</svg>
