<svg width="21" height="10" viewBox="0 0 21 10" fill="none" xmlns="http://www.w3.org/2000/svg">
<path d="M20.9132 5.00004C20.9133 5.97165 20.6271 6.92146 20.091 7.72934C19.5548 8.53723 18.7926 9.1669 17.901 9.53873C17.0093 9.91056 16.0281 10.0078 15.0815 9.81827C14.1349 9.6287 13.2654 9.16079 12.5829 8.47372L12.5568 8.43863L7.32857 2.50881C7.00743 2.1848 6.6257 1.92806 6.20543 1.75341C5.78516 1.57876 5.33469 1.48966 4.88002 1.49127C3.95562 1.49127 3.06907 1.86094 2.41542 2.51896C1.76176 3.17699 1.39454 4.06946 1.39454 5.00004C1.39454 5.93062 1.76176 6.82309 2.41542 7.48112C3.06907 8.13914 3.95562 8.50881 4.88002 8.50881C5.33469 8.51041 5.78516 8.42132 6.20543 8.24667C6.6257 8.07202 7.00743 7.81527 7.32857 7.49127L8.06923 6.64916C8.19172 6.50957 8.36427 6.42469 8.54892 6.41317C8.73358 6.40166 8.91522 6.46446 9.05388 6.58776C9.19254 6.71106 9.27687 6.88476 9.2883 7.07066C9.29974 7.25655 9.23736 7.4394 9.11487 7.57899L8.35678 8.43863L8.33064 8.47372C7.87752 8.92992 7.33957 9.29181 6.7475 9.5387C6.15544 9.7856 5.52087 9.91267 4.88002 9.91267C4.23917 9.91267 3.6046 9.7856 3.01254 9.5387C2.42048 9.29181 1.88253 8.92992 1.4294 8.47372C0.746895 7.78673 0.282095 6.91141 0.0937829 5.95847C-0.0945293 5.00554 0.00210501 4.01779 0.371464 3.12014C0.740824 2.2225 1.36632 1.45528 2.16884 0.915515C2.97136 0.375751 3.91486 0.0876889 4.88002 0.087759C5.5212 0.0853018 6.15646 0.211223 6.74885 0.458195C7.34124 0.705168 7.87893 1.06826 8.33064 1.52636L8.35678 1.56144L13.585 7.49127C13.9061 7.81527 14.2879 8.07202 14.7081 8.24667C15.1284 8.42132 15.5789 8.51041 16.0335 8.50881C16.958 8.50881 17.8445 8.13914 18.4981 7.48112C19.1518 6.82309 19.519 5.93062 19.519 5.00004C19.519 4.06946 19.1518 3.17699 18.4981 2.51896C17.8445 1.86094 16.958 1.49127 16.0335 1.49127C15.5789 1.48966 15.1284 1.57876 14.7081 1.75341C14.2879 1.92806 13.9061 2.1848 13.585 2.50881L12.8443 3.35092C12.7218 3.4905 12.5493 3.57539 12.3646 3.58691C12.18 3.59842 11.9983 3.53562 11.8597 3.41232C11.721 3.28902 11.6367 3.11531 11.6253 2.92942C11.6138 2.74353 11.6762 2.56068 11.7987 2.42109L12.5568 1.56144L12.5829 1.52636C13.2654 0.839289 14.1349 0.371383 15.0815 0.181812C16.0281 -0.00775877 17.0093 0.0895216 17.901 0.46135C18.7926 0.833178 19.5548 1.46285 20.091 2.27074C20.6271 3.07862 20.9133 4.02843 20.9132 5.00004Z" fill="#515151"/>
</svg>
