<svg width="29" height="29" viewBox="0 0 29 29" fill="none" xmlns="http://www.w3.org/2000/svg">
<path d="M14.5 0C6.42143 0 0 6.42143 0 14.5C0 16.7786 0.414286 18.85 1.24286 20.5071C1.24286 20.5071 1.86429 21.5429 2.9 21.3357C4.35 21.1286 4.14286 20.0929 4.14286 19.6786C3.31429 18.2286 2.9 16.3643 2.9 14.5C2.9 8.07857 8.07857 2.9 14.5 2.9C20.9214 2.9 26.1 8.07857 26.1 14.5C26.1 20.9214 20.9214 26.1 14.5 26.1C12.6357 26.1 10.7714 25.6857 9.11429 24.8571C8.90714 24.65 7.66429 24.65 7.25 25.4786C6.83571 26.3071 7.66429 27.3429 7.66429 27.3429C9.73571 28.3786 12.0143 29 14.5 29C22.5786 29 29 22.5786 29 14.5C29 6.42143 22.5786 0 14.5 0Z" fill="white"/>
<path d="M16.5714 17.6075C19.0571 16.9861 20.7143 14.9146 20.7143 12.2218C20.7143 9.11462 18.2286 6.62891 15.1214 6.62891C12.0143 6.62891 9.52856 9.11462 9.52856 12.2218H11.6C11.6 10.3575 13.05 8.70034 15.1214 8.70034C16.9857 8.70034 18.6428 10.1503 18.6428 12.2218C18.6428 14.0861 17.1929 15.7432 15.1214 15.7432C14.7071 15.7432 14.0857 15.7432 13.6714 15.7432V19.2646H16.5714V17.6075Z" fill="white"/>
<path d="M13.6714 20.3008H16.5714V22.5794H13.6714V20.3008Z" fill="white"/>
</svg>
