<svg width="22" height="22" viewBox="0 0 22 22" fill="none" xmlns="http://www.w3.org/2000/svg">
<path d="M11.0014 21.3529C16.7191 21.3529 21.3543 16.7177 21.3543 10.9999C21.3543 5.28214 16.7191 0.646973 11.0014 0.646973C5.28361 0.646973 0.648438 5.28214 0.648438 10.9999C0.648438 16.7177 5.28361 21.3529 11.0014 21.3529Z" stroke="#F4A72A" stroke-linecap="round" stroke-linejoin="round"/>
<path fill-rule="evenodd" clip-rule="evenodd" d="M11 12.2941V5.82349V12.2941Z" fill="#F4A72A"/>
<path d="M11 12.2941V5.82349" stroke="#F4A72A" stroke-linecap="round" stroke-linejoin="round"/>
<path d="M11.0011 17.4706C11.7159 17.4706 12.2953 16.8912 12.2953 16.1764C12.2953 15.4617 11.7159 14.8823 11.0011 14.8823C10.2864 14.8823 9.70703 15.4617 9.70703 16.1764C9.70703 16.8912 10.2864 17.4706 11.0011 17.4706Z" fill="#F4A72A"/>
</svg>
