<svg width="3" height="11" viewBox="0 0 3 11" fill="none" xmlns="http://www.w3.org/2000/svg">
<path d="M2.916 3.73521L0.167946 4.08236L0.069544 4.54201L0.609554 4.6424C0.962361 4.72707 1.03196 4.85529 0.955161 5.2097L0.069544 9.40455C-0.163261 10.4896 0.195546 11 1.03916 11C1.69318 11 2.45279 10.6952 2.7972 10.2767L2.9028 9.77348C2.66279 9.98636 2.31239 10.071 2.07958 10.071C1.74958 10.071 1.62957 9.83759 1.71478 9.42633L2.916 3.73521ZM3 1.20959C3 1.53039 2.87357 1.83806 2.64852 2.0649C2.42347 2.29174 2.11824 2.41918 1.79998 2.41918C1.48171 2.41918 1.17648 2.29174 0.951433 2.0649C0.726385 1.83806 0.599954 1.53039 0.599954 1.20959C0.599954 0.888786 0.726385 0.581122 0.951433 0.35428C1.17648 0.127438 1.48171 0 1.79998 0C2.11824 0 2.42347 0.127438 2.64852 0.35428C2.87357 0.581122 3 0.888786 3 1.20959Z" fill="#F4A72A"/>
</svg>
