<svg width="20" height="20" viewBox="0 0 20 20" fill="none" xmlns="http://www.w3.org/2000/svg">
<path d="M6.7129 6.70379C7.58216 5.83587 8.7613 5.34814 9.99096 5.34814C11.2206 5.34814 12.3998 5.83587 13.269 6.70379C14.1383 7.57168 14.6265 8.74862 14.6265 9.97567C14.6265 11.2027 14.1383 12.3797 13.269 13.2475C12.3998 14.1155 11.2206 14.6032 9.99096 14.6032C8.7613 14.6032 7.58216 14.1155 6.7129 13.2475C5.84366 12.3797 5.35547 11.2027 5.35547 9.97567C5.35547 8.74862 5.84366 7.57168 6.7129 6.70379ZM7.27857 12.6838C7.99807 13.4022 8.97377 13.8057 9.99096 13.8057C11.0082 13.8057 11.9839 13.4022 12.7034 12.6838C13.4229 11.9654 13.8273 10.9909 13.8273 9.97456C13.8273 8.95823 13.4229 7.98369 12.7034 7.26528C11.9839 6.54689 11.0082 6.14344 9.99096 6.14344C8.97377 6.14344 7.99807 6.54689 7.27857 7.26528C6.55904 7.98369 6.15467 8.95823 6.15467 9.97456C6.15467 10.9909 6.55904 11.9654 7.27857 12.6838Z" stroke="white"/>
<path d="M16.0273 4.65925C16.0273 5.04257 15.7159 5.35464 15.3301 5.35464C14.9442 5.35464 14.6328 5.04257 14.6328 4.65925C14.6328 4.27593 14.9442 3.96387 15.3301 3.96387C15.7159 3.96387 16.0273 4.27594 16.0273 4.65925Z" stroke="white"/>
<path d="M14.0964 0.559407L14.0964 0.559539L14.1079 0.559775C14.8804 0.575612 15.6447 0.722075 16.3681 0.992924C16.9664 1.22435 17.5098 1.57778 17.9635 2.03061C18.4172 2.48345 18.7713 3.02574 19.0032 3.62281C19.2788 4.35469 19.4258 5.12855 19.4379 5.91033L19.438 5.92112L19.4387 5.93189C19.4998 6.97583 19.5 7.30448 19.5 10.0166C19.5 12.722 19.4856 13.052 19.4383 14.1083L19.4382 14.1083L19.4379 14.1206C19.4224 14.8927 19.2768 15.6541 19.0054 16.3761C18.7731 16.9731 18.4189 17.5154 17.9652 17.9684C17.5116 18.4213 16.9684 18.7751 16.3703 19.0071C15.6468 19.2774 14.8826 19.4234 14.1102 19.4391L14.101 19.4393L14.0917 19.4398C13.048 19.4998 12.7152 19.5 10 19.5C7.29153 19.5 6.96077 19.4856 5.90136 19.4395L5.90136 19.4395L5.89602 19.4393C5.12134 19.4138 4.3567 19.2566 3.63503 18.9744L3.63314 18.9736C3.03385 18.742 2.48958 18.3882 2.0351 17.9348C1.58128 17.482 1.22694 16.9398 0.994606 16.3429C0.723162 15.6196 0.5776 14.8583 0.562094 14.0862L0.561901 14.0766L0.561338 14.067C0.500156 13.0231 0.5 12.6933 0.5 9.98226C0.5 7.27685 0.514407 6.94689 0.561694 5.89063L0.561852 5.89063L0.562099 5.87806C0.5772 5.10718 0.723474 4.34447 0.994673 3.62254C1.2263 3.0254 1.58026 2.48306 2.03395 2.03024C2.48774 1.57733 3.0313 1.22397 3.62984 0.992849C4.35207 0.721272 5.11547 0.574807 5.88712 0.559785L5.89635 0.559606L5.90557 0.559085C6.94956 0.500145 7.28259 0.5 9.99778 0.5C12.7067 0.5 13.0373 0.513285 14.0964 0.559407ZM18.2411 16.0592C18.425 15.5613 18.5426 15.0423 18.5917 14.5153H18.6077L18.6292 14.0378C18.6775 12.9665 18.6775 12.6637 18.6775 9.97836V9.96341C18.6775 7.26402 18.6653 6.95471 18.6173 5.89483C18.6053 5.20927 18.4782 4.53058 18.2413 3.88698L18.2414 3.88696L18.2384 3.87921C18.0463 3.38285 17.7524 2.93212 17.3757 2.55594C16.9989 2.17976 16.5476 1.88644 16.0507 1.69474L16.0507 1.69471L16.0448 1.69253C15.4008 1.45326 14.7204 1.32611 14.0334 1.31655C12.9542 1.25538 12.6541 1.25538 9.97552 1.25538H9.9578C7.25428 1.25538 6.94433 1.26865 5.88356 1.31653C5.19645 1.32702 4.51609 1.45405 3.87155 1.69223L3.87154 1.6922L3.86638 1.69418C2.85861 2.07932 2.05951 2.87165 1.66944 3.87913L1.66939 3.87911L1.6667 3.88638C1.42675 4.53587 1.29953 5.22146 1.29048 5.91365C1.23145 6.99313 1.23145 7.2909 1.23145 9.96632V9.98337C1.23145 12.6812 1.24251 12.9918 1.29051 14.0508C1.30255 14.7364 1.42964 15.4151 1.66648 16.0587L1.66641 16.0587L1.66953 16.0668C1.86238 16.5641 2.15764 17.0155 2.53614 17.3916C2.91465 17.7678 3.36797 18.0604 3.86677 18.2505L3.87074 18.252C4.51443 18.4912 5.19438 18.6183 5.88103 18.628C6.96138 18.6892 7.26026 18.6892 9.94013 18.6892H9.9578C12.6593 18.6892 12.9711 18.677 14.031 18.628C14.7186 18.6182 15.3996 18.4911 16.0444 18.2522L16.0445 18.2522L16.0503 18.2499C16.5474 18.0586 16.9988 17.7656 17.3757 17.3895C17.7526 17.0134 18.0464 16.5627 18.2384 16.0664L18.2385 16.0664L18.2411 16.0592Z" stroke="white"/>
</svg>
