<svg width="22" height="22" viewBox="0 0 22 22" fill="none" xmlns="http://www.w3.org/2000/svg">
<path d="M14.5981 6.48242C15.0325 7.63584 15.2986 8.85769 15.3838 10.115H11.8672V6.90738C12.7936 6.85222 13.707 6.71048 14.5981 6.48242Z" stroke="#515151"/>
<path d="M15.564 4.33018C14.8687 2.98471 13.9594 1.74804 12.8613 0.665109C14.7841 1.01265 16.5267 1.88465 17.9346 3.12968C17.1849 3.6154 16.3902 4.01435 15.564 4.33018Z" stroke="#515151"/>
<path d="M11.8672 2.16321C12.6491 2.977 13.3133 3.88157 13.8477 4.85417C13.1996 5.00236 12.5379 5.09978 11.8672 5.14538V2.16321Z" stroke="#515151"/>
<path d="M21.4476 11.874C21.2783 13.9096 20.5272 15.7821 19.359 17.3237C18.4249 16.6641 17.4273 16.1307 16.3877 15.7154C16.809 14.4868 17.066 13.1968 17.1452 11.874H21.4476Z" stroke="#515151"/>
<path d="M4.04134 3.12947C5.44943 1.88465 7.19238 1.0126 9.11538 0.665084C8.01706 1.74818 7.10766 2.98482 6.41237 4.33006C5.58608 4.01399 4.79102 3.61517 4.04134 3.12947Z" stroke="#515151"/>
<path d="M10.1123 5.14513C9.44169 5.09964 8.78008 5.0021 8.13191 4.85384C8.66629 3.88153 9.33034 2.97689 10.1123 2.16309V5.14513Z" stroke="#515151"/>
<path d="M2.61899 17.3238C1.45058 15.7818 0.699538 13.9094 0.530038 11.8735H4.8327C4.91183 13.1961 5.16868 14.4863 5.5908 15.7158C4.55178 16.131 3.55427 16.6646 2.61899 17.3238Z" stroke="#515151"/>
<path d="M0.530041 10.1151C0.708668 7.97129 1.53368 6.00907 2.81101 4.42254C3.72267 5.04402 4.69359 5.54752 5.70331 5.94047C5.21242 7.26821 4.91803 8.67303 4.83253 10.1151H0.530041Z" stroke="#515151"/>
<path d="M10.1114 6.90737V10.115H6.59467C6.67964 8.85773 6.94576 7.63613 7.3802 6.48297C8.27091 6.71057 9.18448 6.85224 10.1114 6.90737Z" stroke="#515151"/>
<path d="M3.80882 18.6402C4.58282 18.1135 5.4064 17.6817 6.26451 17.3402C6.97778 18.8065 7.93995 20.1536 9.12522 21.3246C7.09033 20.9577 5.25765 20.0025 3.80882 18.6402Z" stroke="#515151"/>
<path d="M6.59479 11.8735H10.1114V14.7021C9.14141 14.7597 8.1869 14.912 7.25826 15.1584C6.89652 14.1078 6.67171 13.0052 6.59479 11.8735Z" stroke="#515151"/>
<path d="M15.7183 17.3402C16.5768 17.6817 17.4 18.1136 18.1728 18.6403C16.7249 20.0017 14.8934 20.9564 12.86 21.3238C14.0433 20.1555 15.0052 18.8081 15.7183 17.3402Z" stroke="#515151"/>
<path d="M16.2759 5.93882C17.2835 5.54624 18.2544 5.0433 19.1686 4.42153C20.4462 6.00811 21.2712 7.97048 21.4499 10.1149H17.1473C17.0616 8.67234 16.7671 7.26705 16.2759 5.93882Z" stroke="#515151"/>
<path d="M7.95401 16.7968C8.65802 16.625 9.3788 16.5136 10.1112 16.464V19.8251C9.24028 18.918 8.51613 17.8977 7.95401 16.7968Z" stroke="#515151"/>
<path d="M11.8672 14.7021V11.8735H15.3837C15.3066 13.0054 15.0819 14.1079 14.7211 15.1583C13.7922 14.912 12.8374 14.7597 11.8672 14.7021Z" stroke="#515151"/>
<path d="M14.0258 16.7969C13.4628 17.9006 12.738 18.9222 11.8672 19.8281V16.4642C12.6002 16.5138 13.3215 16.6252 14.0258 16.7969Z" stroke="#515151"/>
</svg>
