<svg width="38" height="38" viewBox="0 0 38 38" fill="none" xmlns="http://www.w3.org/2000/svg">
<path d="M25.7857 3.28499e-07C23.8784 -0.000437075 21.9975 0.445911 20.2937 1.30328C18.5899 2.16064 17.1107 3.40518 15.9745 4.93717C14.8383 6.46916 14.0767 8.24599 13.7509 10.1253C13.425 12.0046 13.5439 13.9341 14.098 15.7591L0 29.8571V38H8.14286L22.2409 23.902C23.9209 24.4119 25.6911 24.5537 27.4308 24.3177C29.1706 24.0816 30.839 23.4732 32.3224 22.5341C33.8058 21.5949 35.0692 20.3469 36.0267 18.8753C36.9842 17.4036 37.6131 15.7429 37.8707 14.0062C38.1282 12.2695 38.0084 10.4976 37.5192 8.81145C37.0301 7.12525 36.1832 5.56433 35.0363 4.23505C33.8893 2.90576 32.4693 1.83937 30.8729 1.10853C29.2766 0.377692 27.5414 -0.000406836 25.7857 3.28499e-07ZM25.7857 21.7143C24.8513 21.7138 23.9221 21.5757 23.028 21.3044L21.4714 20.8321L20.3219 21.9816L16.0048 26.2987L14.1333 24.4286L12.2143 26.3476L14.0858 28.2191L11.9334 30.3715L10.0619 28.5L8.14286 30.419L10.0144 32.2905L7.01914 35.2857H2.71429V30.9809L16.017 17.6781L17.1679 16.5286L16.6956 14.972C16.1155 13.0598 16.1532 11.0133 16.8033 9.12375C17.4533 7.23418 18.6827 5.59771 20.3165 4.44712C21.9503 3.29653 23.9052 2.69042 25.9034 2.715C27.9015 2.73959 29.841 3.39361 31.446 4.58405C33.0509 5.77448 34.2397 7.4407 34.8431 9.34569C35.4464 11.2507 35.4338 13.2974 34.8068 15.1948C34.1799 17.0922 32.9706 18.7436 31.351 19.914C29.7314 21.0845 27.784 21.7145 25.7857 21.7143Z" fill="#515151"/>
<path d="M27.142 13.5716C28.6411 13.5716 29.8563 12.3564 29.8563 10.8574C29.8563 9.35829 28.6411 8.14307 27.142 8.14307C25.643 8.14307 24.4277 9.35829 24.4277 10.8574C24.4277 12.3564 25.643 13.5716 27.142 13.5716Z" fill="#F4A72A"/>
</svg>
