<svg width="11" height="15" viewBox="0 0 11 15" fill="none" xmlns="http://www.w3.org/2000/svg">
<path d="M7.65659 14.352H5.30472L4.62389 10.6661C3.23387 10.7725 2.13672 11.9666 2.13672 13.4276V14.7725H10.825V13.4276C10.825 11.9666 9.72788 10.7725 8.33833 10.6661L7.65659 14.352Z" fill="current"/>
<path d="M5.74219 14.3516H7.21784L6.85164 11.873H6.83886L7.19844 11.193H5.76111L6.12068 11.873H6.10791L5.74219 14.3516Z" fill="current"/>
<path d="M3.76561 4.27901C3.19171 4.62877 2.44938 4.42585 2.12009 3.82439C1.81067 3.25951 1.99567 2.51708 2.53076 2.17561C3.10087 1.81171 3.84556 2.00341 4.18478 2.59463C4.52022 3.17853 4.33193 3.93267 3.76561 4.27901ZM5.20624 3.65658C5.24645 3.61902 5.28525 3.58486 5.31932 3.55852C5.47356 3.4395 5.9566 3.26194 6.05974 3.25364H6.06069C6.13308 3.25364 6.21352 3.30245 6.30862 3.38586C6.31524 3.21318 6.30908 3.0395 6.28921 2.86633L5.75744 2.73511C5.72952 2.59121 5.69026 2.4483 5.64011 2.30781L6.03043 1.91123C5.98264 1.8044 5.93011 1.6995 5.87144 1.59706C5.81278 1.49462 5.7489 1.39707 5.6803 1.30292L5.15562 1.46439C5.06052 1.35122 4.95785 1.24732 4.84856 1.15318L4.99333 0.609256C4.80598 0.471207 4.60539 0.355116 4.39628 0.262433L4.01968 0.673161C3.88342 0.624868 3.74431 0.587794 3.60332 0.562428L3.46422 0.0156012C3.2376 -0.00732613 3.00814 -0.00487852 2.7801 0.0243902L2.65188 0.572194C2.51231 0.600487 2.37416 0.640473 2.2379 0.692668L1.85278 0.291706C1.75059 0.339511 1.64745 0.393173 1.54809 0.454149C1.44874 0.514637 1.35364 0.580492 1.26328 0.650248L1.4194 1.19219C1.30963 1.29024 1.20792 1.39611 1.11755 1.50879L0.590492 1.35952C0.456126 1.55269 0.343542 1.75902 0.253649 1.97463L0.652011 2.3634C0.605173 2.5034 0.57015 2.6473 0.545074 2.79218L0.0151958 2.93609C-0.00704073 3.16975 -0.00516397 3.40683 0.02275 3.64244L0.554546 3.77318C0.581987 3.91757 0.621265 4.06001 0.670469 4.20098L0.281556 4.59756C0.327921 4.70439 0.38043 4.80878 0.43957 4.91073C0.49871 5.01365 0.562582 5.11219 0.629764 5.20536L1.15493 5.0444C1.2505 5.15757 1.35365 5.26145 1.46294 5.35511L1.31817 5.89951C1.50552 6.03756 1.70471 6.15366 1.9143 6.24586L2.29136 5.8356C2.42809 5.88438 2.56623 5.92048 2.7077 5.94536L2.84681 6.49219C2.94853 6.50243 3.05024 6.50684 3.15291 6.50684L3.15196 6.48976C3.15196 5.14878 4.01918 4.01805 5.20624 3.65658Z" fill="current"/>
<path d="M3.1552 7.76977C3.1552 7.61757 3.26829 7.49319 3.41495 7.4688C3.41543 7.52782 3.4173 7.58536 3.41872 7.64439C3.40689 7.74585 3.39744 7.84878 3.39744 7.95415C3.39744 8.07659 3.40737 8.1966 3.42156 8.31562C3.27111 8.29367 3.1552 8.16635 3.1552 8.01172V7.76977ZM3.87435 7.56391C3.88334 7.50439 3.89611 7.44635 3.90889 7.38879C4.27082 7.12391 4.73494 6.71124 4.91188 6.38636C4.91188 6.38636 7.84001 7.09368 8.90689 7.17514C8.93717 7.17709 8.96605 7.17806 8.99396 7.17854C9.03323 7.30342 9.06539 7.4322 9.08526 7.56391C9.10418 7.69171 9.11744 7.82147 9.11744 7.95415C9.11744 8.04878 9.11176 8.14293 9.10182 8.23464C9.08479 8.39269 9.05263 8.54585 9.00863 8.69415C8.68549 9.77707 7.67443 10.5698 6.4798 10.5698C5.28471 10.5698 4.27412 9.77707 3.95098 8.69415C3.90698 8.54585 3.87481 8.39269 3.8573 8.23464C3.84784 8.14293 3.84217 8.04878 3.84217 7.95415C3.84217 7.82147 3.85543 7.69171 3.87435 7.56391ZM9.57494 7.47611C9.70647 7.51221 9.80441 7.62831 9.80441 7.76977V8.01172C9.80441 8.16635 9.68803 8.29367 9.53805 8.31562C9.55271 8.1966 9.5617 8.07659 9.5617 7.95415C9.5617 7.8361 9.55128 7.72002 9.53661 7.60587C9.54986 7.56246 9.56359 7.51953 9.57494 7.47611ZM2.71094 7.76977V8.01172C2.71094 8.4244 3.0497 8.75953 3.46557 8.75953H3.51053C3.73715 9.5805 4.30109 10.2639 5.04389 10.6551C5.473 10.8805 5.96079 11.0098 6.4798 11.0098C6.99882 11.0098 7.48708 10.8805 7.91572 10.6551C8.65852 10.2639 9.22246 9.5805 9.44908 8.75953H9.49404C9.91038 8.75953 10.2487 8.4244 10.2487 8.01172V7.76977C10.2487 7.41221 9.99365 7.11366 9.65489 7.03952C9.66672 6.93269 9.67525 6.82343 9.67525 6.7127L9.67381 6.68147C9.67429 6.60245 9.67146 6.52001 9.66152 6.43171V6.43124C9.61469 5.92099 9.44296 5.44879 9.17612 5.04733C9.03891 4.84001 8.8752 4.65367 8.69353 4.48928C8.20527 4.04928 7.57366 3.77807 6.87865 3.7605L6.84363 3.73221C6.81382 3.69855 6.7807 3.69269 6.75894 3.69269C6.70642 3.69269 6.66999 3.72781 6.64066 3.75707H6.63073C6.57537 3.7 6.52475 3.65026 6.47696 3.60928C6.38187 3.52538 6.30144 3.47709 6.22952 3.47709H6.22858C6.12544 3.48489 5.64191 3.66244 5.4872 3.78147C5.45314 3.80781 5.41482 3.84197 5.37461 3.87953C4.18755 4.24148 3.32079 5.37173 3.32079 6.7127L3.32128 6.73025L3.32269 6.77368C3.32127 6.86392 3.32411 6.9522 3.33262 7.03952C2.98062 7.10293 2.71094 7.40294 2.71094 7.76977Z" fill="current"/>
</svg>
