<svg width="26" height="22" viewBox="0 0 26 22" fill="none" xmlns="http://www.w3.org/2000/svg">
<mask id="path-1-inside-1_1878_105857" fill="white">
<path d="M4.8872 3.23074C4.8872 1.57043 6.05232 0.231445 7.51797 0.231445C8.97427 0.231445 10.1487 1.57043 10.1487 3.23074C10.1394 4.90181 8.96493 6.23003 7.51797 6.23003C6.06167 6.23003 4.8872 4.89105 4.8872 3.23074ZM19.3984 16.0946H14.625V11.2314C14.625 8.86228 12.809 6.94723 10.7656 6.94723H4.3672C2.12388 6.94723 0.202118 9.16345 0.203134 11.3472V20.263C0.200493 21.2511 0.81261 21.767 1.42188 21.7683C2.03268 21.7696 2.64063 21.2536 2.64063 20.263V11.5788H3.45313V21.7683H11.375V11.5788H12.1875L12.1957 17.4111C12.1904 18.4219 12.7383 18.8522 13.3047 18.8736H19.3984C21.0603 18.8736 21.0603 16.0946 19.3984 16.0946ZM23.5524 3.15988C23.7882 3.15988 23.9803 3.37895 23.9803 3.64781V5.18121C23.9803 5.45008 23.7882 5.66915 23.5524 5.66915C23.3165 5.66915 23.1244 5.45008 23.1244 5.18121V3.64781C23.1244 3.37895 23.3165 3.15988 23.5524 3.15988ZM24.4606 4.57378V5.19117C24.4606 5.75877 24.0501 6.22668 23.5524 6.22668C23.0545 6.22668 22.6441 5.75866 22.6441 5.19117V4.57378H19.0982V5.19117C19.0982 5.75866 18.6877 6.22668 18.19 6.22668C17.6834 6.22668 17.2817 5.75866 17.2817 5.19117V4.57378H15.9453V7.14269V14.7101H25.7969V7.15265V4.57378H24.4606ZM25.2641 7.15265V11.8823L23.3078 14.0828H16.4781V7.15265H25.2641ZM18.1899 3.15988C18.4257 3.15988 18.6178 3.37895 18.6178 3.64781V5.18121C18.6178 5.45008 18.4257 5.66915 18.1899 5.66915C17.954 5.66915 17.7619 5.45008 17.7619 5.18121V3.64781C17.7619 3.37895 17.9541 3.15988 18.1899 3.15988ZM23.5524 3.15988C23.7882 3.15988 23.9803 3.37895 23.9803 3.64781V5.18121C23.9803 5.45008 23.7882 5.66915 23.5524 5.66915C23.3165 5.66915 23.1244 5.45008 23.1244 5.18121V3.64781C23.1244 3.37895 23.3165 3.15988 23.5524 3.15988ZM23.5825 9.49275L22.7442 8.53425L20.3858 11.2152L19.1204 9.7725L18.2809 10.7296L20.3845 13.1281L23.5825 9.49275Z"/>
</mask>
<path d="M4.8872 3.23074C4.8872 1.57043 6.05232 0.231445 7.51797 0.231445C8.97427 0.231445 10.1487 1.57043 10.1487 3.23074C10.1394 4.90181 8.96493 6.23003 7.51797 6.23003C6.06167 6.23003 4.8872 4.89105 4.8872 3.23074ZM19.3984 16.0946H14.625V11.2314C14.625 8.86228 12.809 6.94723 10.7656 6.94723H4.3672C2.12388 6.94723 0.202118 9.16345 0.203134 11.3472V20.263C0.200493 21.2511 0.81261 21.767 1.42188 21.7683C2.03268 21.7696 2.64063 21.2536 2.64063 20.263V11.5788H3.45313V21.7683H11.375V11.5788H12.1875L12.1957 17.4111C12.1904 18.4219 12.7383 18.8522 13.3047 18.8736H19.3984C21.0603 18.8736 21.0603 16.0946 19.3984 16.0946ZM23.5524 3.15988C23.7882 3.15988 23.9803 3.37895 23.9803 3.64781V5.18121C23.9803 5.45008 23.7882 5.66915 23.5524 5.66915C23.3165 5.66915 23.1244 5.45008 23.1244 5.18121V3.64781C23.1244 3.37895 23.3165 3.15988 23.5524 3.15988ZM24.4606 4.57378V5.19117C24.4606 5.75877 24.0501 6.22668 23.5524 6.22668C23.0545 6.22668 22.6441 5.75866 22.6441 5.19117V4.57378H19.0982V5.19117C19.0982 5.75866 18.6877 6.22668 18.19 6.22668C17.6834 6.22668 17.2817 5.75866 17.2817 5.19117V4.57378H15.9453V7.14269V14.7101H25.7969V7.15265V4.57378H24.4606ZM25.2641 7.15265V11.8823L23.3078 14.0828H16.4781V7.15265H25.2641ZM18.1899 3.15988C18.4257 3.15988 18.6178 3.37895 18.6178 3.64781V5.18121C18.6178 5.45008 18.4257 5.66915 18.1899 5.66915C17.954 5.66915 17.7619 5.45008 17.7619 5.18121V3.64781C17.7619 3.37895 17.9541 3.15988 18.1899 3.15988ZM23.5524 3.15988C23.7882 3.15988 23.9803 3.37895 23.9803 3.64781V5.18121C23.9803 5.45008 23.7882 5.66915 23.5524 5.66915C23.3165 5.66915 23.1244 5.45008 23.1244 5.18121V3.64781C23.1244 3.37895 23.3165 3.15988 23.5524 3.15988ZM23.5825 9.49275L22.7442 8.53425L20.3858 11.2152L19.1204 9.7725L18.2809 10.7296L20.3845 13.1281L23.5825 9.49275Z" stroke="#515151" stroke-width="2" mask="url(#path-1-inside-1_1878_105857)"/>
</svg>
