<svg width="30" height="31" viewBox="0 0 30 31" fill="none" xmlns="http://www.w3.org/2000/svg">
<path d="M16.6667 8.47826H15.3C13.45 8.47826 11.6667 10.513 11.6667 12.1409V15.2609L6.66667 20.3478V15.2609H3.33333C1.5 15.2609 0 13.7348 0 11.8696V3.3913C0 1.52609 1.5 0 3.33333 0H13.3333C15.1667 0 16.6667 1.52609 16.6667 3.3913V8.47826ZM16.6667 10.1739H26.6667C28.5 10.1739 30 11.7 30 13.5652V22.0435C30 23.9087 28.5 25.4348 26.6667 25.4348H23.3333V30.5217L18.3333 25.4348H16.6667C14.8333 25.4348 13.3333 23.9087 13.3333 22.0435V13.5652C13.3333 11.7 14.8333 10.1739 16.6667 10.1739Z" fill="#515151"/>
</svg>
