<svg width="38" height="36" viewBox="0 0 38 36" fill="none" xmlns="http://www.w3.org/2000/svg">
<path d="M19 18.4219C17.9751 18.4219 16.9733 18.7312 16.1211 19.3106C15.269 19.8901 14.6048 20.7137 14.2126 21.6773C13.8204 22.6409 13.7178 23.7012 13.9177 24.7241C14.1177 25.7471 14.6112 26.6867 15.3359 27.4242C16.0606 28.1617 16.9839 28.6639 17.9891 28.8674C18.9943 29.0709 20.0361 28.9665 20.983 28.5673C21.9298 28.1682 22.7391 27.4923 23.3085 26.6251C23.8779 25.7579 24.1818 24.7383 24.1818 23.6953C24.1818 22.2967 23.6359 20.9554 22.6641 19.9664C21.6923 18.9775 20.3743 18.4219 19 18.4219ZM19 25.4531C18.6584 25.4531 18.3244 25.35 18.0404 25.1569C17.7563 24.9637 17.5349 24.6892 17.4042 24.368C17.2735 24.0468 17.2393 23.6934 17.3059 23.3524C17.3726 23.0114 17.5371 22.6982 17.7786 22.4524C18.0202 22.2065 18.328 22.0391 18.663 21.9713C18.9981 21.9035 19.3454 21.9383 19.661 22.0713C19.9766 22.2043 20.2464 22.4297 20.4362 22.7187C20.626 23.0078 20.7273 23.3477 20.7273 23.6953C20.7273 24.1615 20.5453 24.6086 20.2214 24.9383C19.8974 25.2679 19.4581 25.4531 19 25.4531ZM17.7736 14.3965C17.9379 14.5565 18.1316 14.682 18.3436 14.7656C18.5504 14.8586 18.774 14.9067 19 14.9067C19.226 14.9067 19.4496 14.8586 19.6564 14.7656C19.8684 14.682 20.0621 14.5565 20.2264 14.3965L24.1818 10.4414C24.5162 10.1011 24.7041 9.6395 24.7041 9.1582C24.7041 8.67691 24.5162 8.21533 24.1818 7.875C23.8474 7.53467 23.3938 7.34348 22.9209 7.34348C22.448 7.34348 21.9944 7.53467 21.66 7.875L20.7273 8.91211V2.60156C20.7273 2.13536 20.5453 1.68826 20.2214 1.3586C19.8974 1.02895 19.4581 0.84375 19 0.84375C18.5419 0.84375 18.1026 1.02895 17.7786 1.3586C17.4547 1.68826 17.2727 2.13536 17.2727 2.60156V8.91211L16.34 7.875C16.0056 7.53467 15.552 7.34348 15.0791 7.34348C14.6062 7.34348 14.1526 7.53467 13.8182 7.875C13.4838 8.21533 13.2959 8.67691 13.2959 9.1582C13.2959 9.6395 13.4838 10.1011 13.8182 10.4414L17.7736 14.3965ZM31.0909 23.6953C31.0909 23.3477 30.9896 23.0078 30.7998 22.7187C30.61 22.4297 30.3403 22.2043 30.0246 22.0713C29.709 21.9383 29.3617 21.9035 29.0267 21.9713C28.6916 22.0391 28.3838 22.2065 28.1423 22.4524C27.9007 22.6982 27.7362 23.0114 27.6696 23.3524C27.6029 23.6934 27.6371 24.0468 27.7678 24.368C27.8986 24.6892 28.12 24.9637 28.404 25.1569C28.6881 25.35 29.022 25.4531 29.3636 25.4531C29.8217 25.4531 30.2611 25.2679 30.585 24.9383C30.9089 24.6086 31.0909 24.1615 31.0909 23.6953ZM32.8182 11.3906H27.6364C27.1783 11.3906 26.7389 11.5758 26.415 11.9055C26.0911 12.2351 25.9091 12.6822 25.9091 13.1484C25.9091 13.6146 26.0911 14.0617 26.415 14.3914C26.7389 14.7211 27.1783 14.9062 27.6364 14.9062H32.8182C33.2763 14.9062 33.7156 15.0914 34.0396 15.4211C34.3635 15.7508 34.5455 16.1979 34.5455 16.6641V30.7266C34.5455 31.1928 34.3635 31.6399 34.0396 31.9695C33.7156 32.2992 33.2763 32.4844 32.8182 32.4844H5.18182C4.72372 32.4844 4.28438 32.2992 3.96045 31.9695C3.63653 31.6399 3.45455 31.1928 3.45455 30.7266V16.6641C3.45455 16.1979 3.63653 15.7508 3.96045 15.4211C4.28438 15.0914 4.72372 14.9062 5.18182 14.9062H10.3636C10.8217 14.9062 11.2611 14.7211 11.585 14.3914C11.9089 14.0617 12.0909 13.6146 12.0909 13.1484C12.0909 12.6822 11.9089 12.2351 11.585 11.9055C11.2611 11.5758 10.8217 11.3906 10.3636 11.3906H5.18182C3.80751 11.3906 2.4895 11.9462 1.51772 12.9352C0.54594 13.9241 0 15.2655 0 16.6641V30.7266C0 32.1252 0.54594 33.4665 1.51772 34.4554C2.4895 35.4444 3.80751 36 5.18182 36H32.8182C34.1925 36 35.5105 35.4444 36.4823 34.4554C37.4541 33.4665 38 32.1252 38 30.7266V16.6641C38 15.2655 37.4541 13.9241 36.4823 12.9352C35.5105 11.9462 34.1925 11.3906 32.8182 11.3906ZM6.90909 23.6953C6.90909 24.043 7.01039 24.3828 7.20019 24.6719C7.38998 24.961 7.65975 25.1863 7.97537 25.3193C8.29098 25.4524 8.63828 25.4872 8.97334 25.4193C9.3084 25.3515 9.61617 25.1841 9.85773 24.9383C10.0993 24.6924 10.2638 24.3792 10.3304 24.0382C10.3971 23.6973 10.3629 23.3438 10.2322 23.0226C10.1014 22.7014 9.88003 22.4269 9.59598 22.2337C9.31194 22.0406 8.97799 21.9375 8.63636 21.9375C8.17826 21.9375 7.73892 22.1227 7.415 22.4524C7.09107 22.782 6.90909 23.2291 6.90909 23.6953Z" fill="#515151"/>
</svg>
