<svg width="18" height="18" viewBox="0 0 18 18" fill="none" xmlns="http://www.w3.org/2000/svg">
<path d="M11.2633 1.1312C11.2633 0.149076 10.0846 -0.361674 9.35926 0.306576L4.971 4.3487C4.86632 4.44542 4.72867 4.49927 4.58566 4.49945H1.62993C1.17906 4.49945 0.746662 4.67724 0.42785 4.99371C0.109038 5.31018 -0.0700684 5.7394 -0.0700684 6.18695V11.812C-0.0700684 12.2595 0.109038 12.6887 0.42785 13.0052C0.746662 13.3217 1.17906 13.4995 1.62993 13.4995H4.58566C4.72852 13.4993 4.86614 13.5528 4.971 13.6491L9.35926 17.6923C10.0846 18.3594 11.2633 17.8498 11.2633 16.8677V1.1312ZM5.74166 5.17333L10.1299 1.1312V16.8677L5.74166 12.8245C5.42728 12.5351 5.01437 12.3744 4.58566 12.3745H1.62993C1.47964 12.3745 1.33551 12.3152 1.22924 12.2097C1.12297 12.1042 1.06326 11.9611 1.06326 11.812V6.18695C1.06326 6.03777 1.12297 5.89469 1.22924 5.7892C1.33551 5.68371 1.47964 5.62445 1.62993 5.62445H4.58566C5.01437 5.62451 5.42728 5.46377 5.74166 5.17445V5.17333ZM12.5621 6.3512C12.6147 6.29882 12.6772 6.25726 12.7461 6.2289C12.8149 6.20054 12.8887 6.18595 12.9633 6.18595C13.0378 6.18595 13.1116 6.20054 13.1804 6.2289C13.2493 6.25726 13.3118 6.29882 13.3645 6.3512L15.2299 8.20408L17.0954 6.3512C17.2017 6.24558 17.3458 6.18618 17.4962 6.18608C17.5707 6.18602 17.6444 6.20053 17.7132 6.22876C17.782 6.257 17.8445 6.29841 17.8972 6.35064C17.9499 6.40286 17.9917 6.46488 18.0203 6.53314C18.0488 6.60141 18.0635 6.67458 18.0636 6.74849C18.0636 6.8224 18.049 6.8956 18.0206 6.9639C17.9921 7.0322 17.9504 7.09428 17.8978 7.14657L16.0312 8.99945L17.8978 10.8512C17.9519 10.9031 17.9951 10.9652 18.0248 11.0338C18.0545 11.1024 18.0701 11.1762 18.0708 11.2509C18.0714 11.3256 18.0571 11.3997 18.0286 11.4688C18.0001 11.5379 17.958 11.6007 17.9048 11.6535C17.8516 11.7064 17.7883 11.7481 17.7187 11.7764C17.6491 11.8047 17.5744 11.8189 17.4992 11.8183C17.424 11.8176 17.3496 11.8021 17.2805 11.7726C17.2113 11.7432 17.1488 11.7003 17.0965 11.6466L15.2299 9.79483L13.3645 11.6466C13.3119 11.6989 13.2494 11.7404 13.1806 11.7687C13.1118 11.797 13.0381 11.8116 12.9637 11.8117C12.8892 11.8118 12.8155 11.7972 12.7467 11.769C12.6778 11.7408 12.6153 11.6994 12.5626 11.6471C12.5099 11.5949 12.4681 11.5329 12.4396 11.4646C12.4111 11.3964 12.3963 11.3232 12.3963 11.2493C12.3962 11.1754 12.4108 11.1022 12.4393 11.0339C12.4677 10.9656 12.5095 10.9035 12.5621 10.8512L14.4287 8.99945L12.5632 7.14657C12.457 7.04109 12.3973 6.89804 12.3973 6.74889C12.3973 6.59973 12.457 6.45668 12.5632 6.3512H12.5621Z" fill="#515151"/>
</svg>
