<svg width="21" height="19" viewBox="0 0 21 19" fill="none" xmlns="http://www.w3.org/2000/svg">
<g clip-path="url(#clip0_1881_125060)">
<path d="M20.8568 7.63726L17.4205 3.91176C17.3661 3.85329 17.2998 3.80653 17.2258 3.77446C17.1518 3.74238 17.0718 3.72571 16.9909 3.72549H10.3091V0.558824C10.3091 0.410614 10.2488 0.268475 10.1413 0.163676C10.0339 0.0588758 9.88826 0 9.73636 0C9.58447 0 9.43879 0.0588758 9.33138 0.163676C9.22398 0.268475 9.16364 0.410614 9.16364 0.558824V3.72549H1.33636C0.981938 3.72549 0.642029 3.86287 0.391412 4.1074C0.140795 4.35193 0 4.68359 0 5.02941V10.9902C0 11.336 0.140795 11.6677 0.391412 11.9122C0.642029 12.1567 0.981938 12.2941 1.33636 12.2941H9.16364V18.4412C9.16364 18.5894 9.22398 18.7315 9.33138 18.8363C9.43879 18.9411 9.58447 19 9.73636 19C9.88826 19 10.0339 18.9411 10.1413 18.8363C10.2488 18.7315 10.3091 18.5894 10.3091 18.4412V12.2941H16.9909C17.0718 12.2939 17.1518 12.2772 17.2258 12.2452C17.2998 12.2131 17.3661 12.1663 17.4205 12.1078L20.8568 8.38235C20.9488 8.279 20.9995 8.1467 20.9995 8.0098C20.9995 7.87291 20.9488 7.74061 20.8568 7.63726ZM16.7332 11.1765H1.33636C1.28573 11.1765 1.23717 11.1568 1.20137 11.1219C1.16557 11.087 1.14545 11.0396 1.14545 10.9902V5.02941C1.14545 4.98001 1.16557 4.93263 1.20137 4.8977C1.23717 4.86276 1.28573 4.84314 1.33636 4.84314H16.7332L19.6541 8.0098L16.7332 11.1765Z" fill="current"/>
</g>
<defs>
<clipPath id="clip0_1881_125060">
<rect width="21" height="19" fill="white"/>
</clipPath>
</defs>
</svg>
