<svg width="34" height="38" viewBox="0 0 34 38" fill="none" xmlns="http://www.w3.org/2000/svg">
<g clip-path="url(#clip0_1904_103279)">
<path d="M33.4143 23.4538L30.1522 20.5316C29.2078 19.6861 29.2078 18.301 30.1522 17.4555L33.4143 14.5314C34.3588 13.6859 34.1075 12.8993 32.8552 12.7758L28.5296 12.3635C27.2792 12.2457 26.603 11.1608 27.0355 9.95813L29.3305 3.53043C29.7612 2.32393 29.2342 1.88693 28.1613 2.55383L23.0594 5.72683C22.8067 5.8861 22.5243 5.9917 22.2295 6.03715C21.9347 6.08261 21.6338 6.06695 21.3453 5.99114C21.0568 5.91534 20.7867 5.78098 20.5517 5.59634C20.3167 5.4117 20.1216 5.18066 19.9786 4.91743L18.1313 1.60003C17.5099 0.482829 16.4842 0.479029 15.8514 1.58483L14.1344 4.58683C13.4979 5.69833 12.0415 6.16953 10.8988 5.64323L7.87653 4.24863C6.72808 3.71663 5.84975 4.32843 5.91775 5.60903L6.08019 8.67753C6.15008 9.95813 5.20942 11.2748 3.99486 11.6054L1.07653 12.392C-0.136138 12.7226 -0.359027 13.684 0.585418 14.5295L3.84753 17.4536C4.79197 18.2991 4.79197 19.6842 3.84753 20.5297L0.585418 23.4538C-0.359027 24.2993 -0.109693 25.1201 1.13886 25.2721L5.09608 25.7547C6.34464 25.9067 7.03975 27.0277 6.64119 28.2456L4.61253 34.4358C4.21397 35.6537 4.78253 36.1249 5.87431 35.4903L10.5266 32.7809C11.0694 32.4786 11.7046 32.3905 12.3085 32.5338C12.9123 32.6772 13.4414 33.0416 13.7925 33.5561L15.723 36.4802C16.4256 37.5423 17.4815 37.4853 18.0652 36.351L19.7633 33.0583C20.046 32.512 20.5297 32.0985 21.1112 31.9057C21.6927 31.713 22.326 31.7564 22.8762 32.0266L26.1515 33.6739C27.2811 34.2382 28.1481 33.6549 28.0801 32.3781L27.9158 29.3058C27.8496 28.0252 28.7865 26.7123 30.0049 26.3817L32.9194 25.5913C34.1359 25.2607 34.3588 24.2993 33.4143 23.4538ZM18.8888 26.6002H15.111V22.8002H18.8888V26.6002ZM18.8888 20.9002H15.111V11.4002H18.8888V20.9002Z" fill="#515151"/>
</g>
<defs>
<clipPath id="clip0_1904_103279">
<rect width="34" height="38" fill="white"/>
</clipPath>
</defs>
</svg>
