<svg width="20" height="20" viewBox="0 0 20 20" fill="none" xmlns="http://www.w3.org/2000/svg">
<path d="M14.7756 2.61133H2.08042C0.937878 2.61133 0.00585938 3.47575 0.00585938 4.53998V18.0527C0.00585938 19.1149 0.935685 19.9814 2.08042 19.9814H14.7734C15.916 19.9814 16.848 19.117 16.848 18.0527V4.53794C16.848 3.47575 15.9182 2.61133 14.7756 2.61133ZM15.7186 18.0507C15.7186 18.5339 15.2953 18.9274 14.7756 18.9274H2.08042C1.56069 18.9274 1.13744 18.5339 1.13744 18.0507V4.53794C1.13744 4.05476 1.56069 3.66128 2.08042 3.66128H14.7734C15.2932 3.66128 15.7164 4.05476 15.7164 4.53794V18.0507H15.7186Z" fill="current"/>
<path d="M17.8543 0H5.28635C4.10872 0 3.15039 0.821611 3.15039 1.83079C3.15039 2.12029 3.40258 2.35678 3.71618 2.35678C4.02758 2.35678 4.28197 2.12029 4.28197 1.83079C4.28197 1.40877 4.74249 1.05199 5.28855 1.05199H17.8565C18.4026 1.05199 18.8631 1.40877 18.8631 1.83079V15.5372C18.8631 15.9592 18.4026 16.316 17.8565 16.316C17.5451 16.316 17.2907 16.5525 17.2907 16.842C17.2907 17.1315 17.5429 17.368 17.8565 17.368C19.0341 17.368 19.9925 16.5464 19.9925 15.5372V1.83079C19.9903 0.821611 19.032 0 17.8543 0Z" fill="current"/>
<path d="M4.46947 10.7076H9.2458C9.86861 10.7076 10.3774 10.2367 10.3774 9.65564V6.48949C10.3774 5.91049 9.8708 5.4375 9.2458 5.4375H4.46947C3.84666 5.4375 3.33789 5.90845 3.33789 6.48949V9.65564C3.34008 10.2367 3.84666 10.7076 4.46947 10.7076ZM4.09228 6.48949C4.09228 6.29581 4.26114 6.13882 4.46947 6.13882H9.2458C9.45413 6.13882 9.62299 6.29581 9.62299 6.48949V9.65564C9.62299 9.84932 9.45413 10.0063 9.2458 10.0063H4.46947C4.26114 10.0063 4.09228 9.84932 4.09228 9.65564V6.48949Z" fill="current"/>
<path d="M13.1427 12.877H3.71508C3.50675 12.877 3.33789 13.0339 3.33789 13.2276C3.33789 13.4213 3.50675 13.5783 3.71508 13.5783H13.1405C13.3488 13.5783 13.5177 13.4213 13.5177 13.2276C13.5177 13.0339 13.351 12.877 13.1427 12.877Z" fill="current"/>
<path d="M13.1427 15.4492H3.71508C3.50675 15.4492 3.33789 15.6062 3.33789 15.7999C3.33789 15.9936 3.50675 16.1505 3.71508 16.1505H13.1405C13.3488 16.1505 13.5177 15.9936 13.5177 15.7999C13.5177 15.6062 13.351 15.4492 13.1427 15.4492Z" fill="current"/>
</svg>
