<svg width="20" height="20" viewBox="0 0 20 20" fill="none" xmlns="http://www.w3.org/2000/svg">
<path d="M14.7761 2.61133H2.08091C0.938366 2.61133 0.00634766 3.47575 0.00634766 4.53998V18.0527C0.00634766 19.1149 0.936173 19.9814 2.08091 19.9814H14.7739C15.9164 19.9814 16.8485 19.117 16.8485 18.0527V4.53794C16.8485 3.47575 15.9186 2.61133 14.7761 2.61133ZM15.7191 18.0507C15.7191 18.5339 15.2958 18.9274 14.7761 18.9274H2.08091C1.56117 18.9274 1.13793 18.5339 1.13793 18.0507V4.53794C1.13793 4.05476 1.56117 3.66128 2.08091 3.66128H14.7739C15.2936 3.66128 15.7169 4.05476 15.7169 4.53794V18.0507H15.7191Z" fill="#F4A72A"/>
<path d="M17.8548 0H5.28684C4.10921 0 3.15088 0.821611 3.15088 1.83079C3.15088 2.12029 3.40307 2.35678 3.71667 2.35678C4.02807 2.35678 4.28246 2.12029 4.28246 1.83079C4.28246 1.40877 4.74298 1.05199 5.28903 1.05199H17.857C18.4031 1.05199 18.8636 1.40877 18.8636 1.83079V15.5372C18.8636 15.9592 18.4031 16.316 17.857 16.316C17.5456 16.316 17.2912 16.5525 17.2912 16.842C17.2912 17.1315 17.5434 17.368 17.857 17.368C19.0346 17.368 19.993 16.5464 19.993 15.5372V1.83079C19.9908 0.821611 19.0324 0 17.8548 0Z" fill="#F4A72A"/>
<path d="M4.46898 10.7076H9.24531C9.86812 10.7076 10.3769 10.2367 10.3769 9.65564V6.48949C10.3769 5.91049 9.87031 5.4375 9.24531 5.4375H4.46898C3.84618 5.4375 3.3374 5.90845 3.3374 6.48949V9.65564C3.3396 10.2367 3.84618 10.7076 4.46898 10.7076ZM4.09179 6.48949C4.09179 6.29581 4.26065 6.13882 4.46898 6.13882H9.24531C9.45365 6.13882 9.6225 6.29581 9.6225 6.48949V9.65564C9.6225 9.84932 9.45365 10.0063 9.24531 10.0063H4.46898C4.26065 10.0063 4.09179 9.84932 4.09179 9.65564V6.48949Z" fill="#F4A72A"/>
<path d="M13.1422 12.877H3.71459C3.50626 12.877 3.3374 13.0339 3.3374 13.2276C3.3374 13.4213 3.50626 13.5783 3.71459 13.5783H13.14C13.3484 13.5783 13.5172 13.4213 13.5172 13.2276C13.5172 13.0339 13.3505 12.877 13.1422 12.877Z" fill="#F4A72A"/>
<path d="M13.1422 15.4492H3.71459C3.50626 15.4492 3.3374 15.6062 3.3374 15.7999C3.3374 15.9936 3.50626 16.1505 3.71459 16.1505H13.14C13.3484 16.1505 13.5172 15.9936 13.5172 15.7999C13.5172 15.6062 13.3505 15.4492 13.1422 15.4492Z" fill="#F4A72A"/>
</svg>
