<svg width="25" height="26" viewBox="0 0 25 26" fill="none" xmlns="http://www.w3.org/2000/svg">
<path d="M21.4842 6.26587C21.7655 6.26587 22.0217 6.36431 22.2233 6.52837C23.4256 7.54199 24.2941 8.89485 24.7151 10.41C25.1361 11.9252 25.09 13.5322 24.5829 15.0208C24.0758 16.5093 23.1312 17.8102 21.8728 18.7533C20.6144 19.6964 19.1006 20.2377 17.5296 20.3065L17.1921 20.3127H10.2499L12.1561 22.219C12.3543 22.4176 12.4747 22.6808 12.4954 22.9606C12.516 23.2405 12.4356 23.5184 12.2686 23.744L12.1561 23.8752C11.9576 24.0741 11.6942 24.195 11.414 24.216C11.1338 24.2369 10.8554 24.1565 10.6296 23.9893L10.4983 23.8752L6.59205 19.969C6.39382 19.7704 6.27344 19.5072 6.2528 19.2274C6.23215 18.9475 6.31261 18.6695 6.47955 18.444L6.59205 18.3127L10.4983 14.4065C10.7077 14.1988 10.9877 14.0776 11.2825 14.0672C11.5772 14.0568 11.8651 14.158 12.0885 14.3505C12.312 14.543 12.4547 14.8127 12.488 15.1057C12.5214 15.3988 12.4431 15.6937 12.2686 15.9315L12.1561 16.0627L10.2499 17.969H17.1905C18.589 17.9691 19.9345 17.4334 20.9502 16.472C21.9659 15.5107 22.5747 14.1967 22.6514 12.8002L22.6592 12.5002C22.6592 10.8112 21.8936 9.30025 20.6905 8.29712C20.5179 8.13715 20.3975 7.92894 20.345 7.69959C20.2924 7.47024 20.3101 7.23038 20.3957 7.01122C20.4813 6.79206 20.631 6.60376 20.8251 6.47082C21.0193 6.33788 21.2489 6.26647 21.4842 6.26587ZM12.8436 1.12525C13.0421 0.926372 13.3055 0.805446 13.5857 0.784509C13.8659 0.763572 14.1443 0.844018 14.3702 1.01118L14.5014 1.12525L18.4077 5.0315L18.5202 5.16275C18.6676 5.36168 18.7482 5.60219 18.7504 5.84978C18.7527 6.09736 18.6764 6.33929 18.5327 6.54087L18.4077 6.68775L14.5014 10.594L14.3702 10.7081C14.1709 10.8556 13.93 10.9361 13.6821 10.9381C13.4342 10.9401 13.1921 10.8633 12.9905 10.719L12.8436 10.594L12.7311 10.4627C12.5837 10.2638 12.5031 10.0233 12.5009 9.77571C12.4986 9.52813 12.5748 9.2862 12.7186 9.08462L12.8436 8.93775L14.7499 7.0315H7.81237C6.41355 7.03099 5.06772 7.56651 4.05167 8.52792C3.03562 9.48934 2.4266 10.8035 2.34987 12.2002L2.34049 12.5002C2.34049 14.1924 3.10924 15.7049 4.31705 16.7081C4.53072 16.9212 4.65393 17.2085 4.66104 17.5102C4.66814 17.8119 4.55859 18.1047 4.35519 18.3276C4.15179 18.5505 3.87023 18.6864 3.56915 18.7069C3.26807 18.7275 2.97069 18.631 2.73893 18.4377C1.54703 17.419 0.689246 16.0652 0.27713 14.5524C-0.134986 13.0396 -0.0823636 11.4377 0.428154 9.95523C0.938672 8.47272 1.88346 7.17813 3.13965 6.23981C4.39584 5.3015 5.90531 4.76288 7.47174 4.694L7.80768 4.68775H14.7467L12.8436 2.7815L12.7311 2.65025C12.5642 2.42469 12.4837 2.14672 12.5044 1.86687C12.525 1.58702 12.6454 1.32386 12.8436 1.12525Z" fill="#515151"/>
<line x1="24" y1="2.41421" x2="1.41421" y2="25" stroke="#515151" stroke-width="2" stroke-linecap="round"/>
</svg>
