<svg width="14" height="15" viewBox="0 0 14 15" fill="none" xmlns="http://www.w3.org/2000/svg">
<path d="M7.47403 9.75879L7.65504 9.55385H7.28516L7.47403 9.75879Z" fill="white"/>
<path d="M9.58243 4.82479H2.95455V3.87431H9.58243V4.82479ZM9.58243 6.40158H1.82446V5.45112H9.58243V6.40158ZM0.644531 0.641244V14.3604H8.42137V12.4045C8.42137 12.3204 8.45548 12.2377 8.51529 12.1781C8.57562 12.1185 8.658 12.0846 8.74246 12.0846H10.7875V7.76038L7.91982 11.0081C7.81122 11.1315 7.65435 11.2026 7.48384 11.2047C7.32172 11.2047 7.16538 11.1362 7.05573 11.017L5.70948 9.5552H1.82446V8.60421H8.47962V8.62197L9.04834 7.97839H1.82446V7.02739H9.58243V7.3735L10.7875 6.00791V0.641244H0.644531Z" fill="white"/>
<path d="M9.06223 14.3711V12.7242H10.7742L9.06223 14.3711ZM10.7857 12.0838H8.74063C8.65616 12.0838 8.57378 12.1177 8.51345 12.1773C8.45364 12.2369 8.41953 12.3196 8.41953 12.4037V14.3596H0.642693V0.640446H10.7857V6.00711L11.4289 5.27936V0.319967C11.4289 0.235794 11.3948 0.153186 11.335 0.093585C11.2752 0.0339851 11.1918 0 11.1073 0H0.321615C0.236622 0 0.154249 0.0339851 0.094439 0.093585C0.0341046 0.153186 0 0.235794 0 0.319967V14.6795C0 14.7637 0.0341046 14.8463 0.094439 14.9059C0.154249 14.966 0.236622 15 0.321615 15H9.14303C9.22749 15 9.30934 14.9666 9.36915 14.907L10.3602 13.9256L10.3613 13.9246L11.335 12.9501C11.3953 12.8899 11.4289 12.8084 11.4289 12.7242V7.03129L10.7857 7.75958V12.0838Z" fill="#515151"/>
<path d="M9.0625 14.3711L10.7744 12.7242H9.0625V14.3711Z" fill="white"/>
<mask id="path-5-inside-1_1946_113143" fill="white">
<path d="M2.95312 4.82422H9.58099V3.87374H2.95312V4.82422Z"/>
</mask>
<path d="M2.95312 4.82422V5.82422H1.95312V4.82422H2.95312ZM9.58099 4.82422H10.581V5.82422H9.58099V4.82422ZM9.58099 3.87374V2.87374H10.581V3.87374H9.58099ZM2.95312 3.87374H1.95312V2.87374H2.95312V3.87374ZM2.95312 3.82422H9.58099V5.82422H2.95312V3.82422ZM8.58099 4.82422V3.87374H10.581V4.82422H8.58099ZM9.58099 4.87374H2.95312V2.87374H9.58099V4.87374ZM3.95312 3.87374V4.82422H1.95312V3.87374H3.95312Z" fill="#515151" mask="url(#path-5-inside-1_1946_113143)"/>
<path d="M1.82422 6.40137H9.58218V5.45091H1.82422V6.40137Z" fill="#515151"/>
<path d="M1.82422 7.02655V7.97754H9.04809L9.58218 7.37265V7.02655H1.82422Z" fill="#515151"/>
<path d="M1.82422 8.60369V9.55469H5.70923L5.47787 9.30372L5.19351 8.99422C5.1463 8.94246 5.13789 8.86614 5.1741 8.80549C5.20348 8.75635 5.25595 8.72707 5.31156 8.72707L5.34986 8.73177L6.82516 9.09409C6.85559 9.10141 6.8834 9.11813 6.90491 9.14113L7.2858 9.55469H7.65568L8.47937 8.62146V8.60369H1.82422Z" fill="#515151"/>
<mask id="path-10-inside-2_1946_113143" fill="white">
<path d="M13.0841 4.91363L12.4525 4.35995C12.4231 4.33381 12.3858 4.31972 12.347 4.31972L12.3365 4.32023C12.294 4.32285 12.2547 4.34218 12.2269 4.37407L11.4273 5.2796L10.7841 6.00735L9.57896 7.37294L9.04488 7.97783L8.47615 8.62141L7.65246 9.55464L7.47146 9.75958L7.28258 9.55464L6.90169 9.14108C6.88018 9.11808 6.85237 9.10136 6.82194 9.09404L5.34664 8.73172L5.30834 8.72702C5.25273 8.72702 5.20026 8.7563 5.17088 8.80544C5.13468 8.86609 5.14308 8.94241 5.1903 8.99417L5.47465 9.30367L5.70601 9.55464L7.05227 11.0164C7.16192 11.1356 7.31826 11.2041 7.48037 11.2041C7.65089 11.202 7.80776 11.1309 7.91636 11.0075L10.7841 7.75982L11.4273 7.03153L13.0988 5.13843C13.1571 5.07255 13.1508 4.97166 13.0841 4.91363Z"/>
</mask>
<path d="M13.0841 4.91363L12.4525 4.35995C12.4231 4.33381 12.3858 4.31972 12.347 4.31972L12.3365 4.32023C12.294 4.32285 12.2547 4.34218 12.2269 4.37407L11.4273 5.2796L10.7841 6.00735L9.57896 7.37294L9.04488 7.97783L8.47615 8.62141L7.65246 9.55464L7.47146 9.75958L7.28258 9.55464L6.90169 9.14108C6.88018 9.11808 6.85237 9.10136 6.82194 9.09404L5.34664 8.73172L5.30834 8.72702C5.25273 8.72702 5.20026 8.7563 5.17088 8.80544C5.13468 8.86609 5.14308 8.94241 5.1903 8.99417L5.47465 9.30367L5.70601 9.55464L7.05227 11.0164C7.16192 11.1356 7.31826 11.2041 7.48037 11.2041C7.65089 11.202 7.80776 11.1309 7.91636 11.0075L10.7841 7.75982L11.4273 7.03153L13.0988 5.13843C13.1571 5.07255 13.1508 4.97166 13.0841 4.91363Z" fill="white"/>
<path d="M12.4525 4.35995L12.3646 4.46022L12.3638 4.45957L12.4525 4.35995ZM12.347 4.31972L12.3405 4.18639H12.347V4.31972ZM12.3365 4.32023L12.3283 4.18714L12.33 4.18706L12.3365 4.32023ZM12.2269 4.37407L12.3274 4.4617L12.3268 4.46232L12.2269 4.37407ZM11.4273 5.2796L11.5272 5.36785L11.5272 5.3679L11.4273 5.2796ZM10.7841 6.00735L10.6841 5.91913L10.6842 5.91905L10.7841 6.00735ZM9.57896 7.37294L9.67894 7.46117L9.67891 7.46119L9.57896 7.37294ZM9.04488 7.97783L9.14482 8.06608L9.14479 8.06612L9.04488 7.97783ZM8.47615 8.62141L8.37619 8.53318L8.37624 8.53312L8.47615 8.62141ZM7.65246 9.55464L7.75243 9.64287L7.7524 9.6429L7.65246 9.55464ZM7.47146 9.75958L7.5714 9.84784L7.47357 9.95861L7.37342 9.84994L7.47146 9.75958ZM7.28258 9.55464L7.18454 9.645L7.18451 9.64497L7.28258 9.55464ZM6.90169 9.14108L6.99908 9.05002L6.99976 9.05076L6.90169 9.14108ZM6.82194 9.09404L6.79076 9.22367L6.79014 9.22352L6.82194 9.09404ZM5.34664 8.73172L5.36287 8.59938L5.37074 8.60034L5.37844 8.60223L5.34664 8.73172ZM5.30834 8.72702V8.59369H5.31649L5.32457 8.59468L5.30834 8.72702ZM5.17088 8.80544L5.05639 8.7371L5.05644 8.73703L5.17088 8.80544ZM5.1903 8.99417L5.09211 9.08438L5.09179 9.08403L5.1903 8.99417ZM5.47465 9.30367L5.37662 9.39405L5.37646 9.39388L5.47465 9.30367ZM5.70601 9.55464L5.80405 9.46426L5.80409 9.46431L5.70601 9.55464ZM7.05227 11.0164L7.15034 10.9261L7.1504 10.9262L7.05227 11.0164ZM7.48037 11.2041L7.48201 11.3374H7.48037V11.2041ZM7.91636 11.0075L7.81627 10.9194L7.81641 10.9193L7.91636 11.0075ZM10.7841 7.75982L10.6841 7.67157L10.6841 7.67155L10.7841 7.75982ZM11.4273 7.03153L11.5272 7.11978L11.5272 7.11979L11.4273 7.03153ZM13.0988 5.13843L12.9989 5.05018L12.9989 5.05012L13.0988 5.13843ZM12.9962 5.0139L12.3646 4.46022L12.5403 4.25969L13.172 4.81336L12.9962 5.0139ZM12.3638 4.45957C12.3588 4.45512 12.3531 4.45305 12.347 4.45305V4.18639C12.4185 4.18639 12.4873 4.2125 12.5411 4.26034L12.3638 4.45957ZM12.3535 4.4529L12.343 4.45341L12.33 4.18706L12.3405 4.18655L12.3535 4.4529ZM12.3447 4.45331C12.3376 4.45375 12.3316 4.45686 12.3274 4.46169L12.1264 4.28645C12.1778 4.2275 12.2504 4.19194 12.3283 4.18715L12.3447 4.45331ZM12.3268 4.46232L11.5272 5.36785L11.3273 5.19135L12.1269 4.28582L12.3268 4.46232ZM11.5272 5.3679L10.884 6.09565L10.6842 5.91905L11.3274 5.1913L11.5272 5.3679ZM10.884 6.09557L9.67894 7.46117L9.47899 7.28472L10.6841 5.91913L10.884 6.09557ZM9.67891 7.46119L9.14482 8.06608L8.94493 7.88958L9.47901 7.28469L9.67891 7.46119ZM9.14479 8.06612L8.57607 8.7097L8.37624 8.53312L8.94496 7.88954L9.14479 8.06612ZM8.57612 8.70964L7.75243 9.64287L7.5525 9.46641L8.37619 8.53318L8.57612 8.70964ZM7.7524 9.6429L7.5714 9.84784L7.37152 9.67131L7.55252 9.46637L7.7524 9.6429ZM7.37342 9.84994L7.18454 9.645L7.38063 9.46428L7.5695 9.66922L7.37342 9.84994ZM7.18451 9.64497L6.80361 9.23141L6.99976 9.05076L7.38066 9.46431L7.18451 9.64497ZM6.8043 9.23215C6.79962 9.22715 6.79445 9.22456 6.79076 9.22367L6.85312 8.9644C6.91029 8.97815 6.96074 9.00902 6.99908 9.05002L6.8043 9.23215ZM6.79014 9.22352L5.31484 8.8612L5.37844 8.60223L6.85374 8.96455L6.79014 9.22352ZM5.33041 8.86406L5.29211 8.85936L5.32457 8.59468L5.36287 8.59938L5.33041 8.86406ZM5.30834 8.86035C5.29961 8.86035 5.29061 8.86501 5.28532 8.87386L5.05644 8.73703C5.1099 8.64759 5.20585 8.59369 5.30834 8.59369V8.86035ZM5.28536 8.87378C5.27974 8.88321 5.28063 8.89536 5.2888 8.90431L5.09179 9.08403C5.00552 8.98947 4.98961 8.84897 5.05639 8.7371L5.28536 8.87378ZM5.28848 8.90396L5.57283 9.21346L5.37646 9.39388L5.09211 9.08438L5.28848 8.90396ZM5.57268 9.2133L5.80405 9.46426L5.60798 9.64501L5.37662 9.39405L5.57268 9.2133ZM5.80409 9.46431L7.15034 10.9261L6.95419 11.1067L5.60794 9.64496L5.80409 9.46431ZM7.1504 10.9262C7.23474 11.0178 7.35546 11.0708 7.48037 11.0708V11.3374C7.28106 11.3374 7.0891 11.2534 6.95414 11.1067L7.1504 10.9262ZM7.47874 11.0708C7.6128 11.0691 7.73345 11.0135 7.81627 10.9194L8.01644 11.0956C7.88207 11.2483 7.68897 11.3349 7.48201 11.3374L7.47874 11.0708ZM7.81641 10.9193L10.6841 7.67157L10.884 7.84807L8.01631 11.0958L7.81641 10.9193ZM10.6841 7.67155L11.3274 6.94327L11.5272 7.11979L10.884 7.84808L10.6841 7.67155ZM11.3273 6.94328L12.9989 5.05018L13.1988 5.22668L11.5272 7.11978L11.3273 6.94328ZM12.9989 5.05012C13.0083 5.03955 13.0072 5.02346 12.9966 5.01417L13.1717 4.81308C13.2943 4.91987 13.3058 5.10556 13.1987 5.22674L12.9989 5.05012Z" fill="#515151" mask="url(#path-10-inside-2_1946_113143)"/>
</svg>
