<svg width="18" height="18" viewBox="0 0 18 18" fill="none" xmlns="http://www.w3.org/2000/svg">
<path d="M14.4 16.8004H1.2V3.60039H9.132L10.332 2.40039H1.2C0.88174 2.40039 0.576515 2.52682 0.351472 2.75186C0.126428 2.97691 0 3.28213 0 3.60039V16.8004C0 17.1187 0.126428 17.4239 0.351472 17.6489C0.576515 17.874 0.88174 18.0004 1.2 18.0004H14.4C14.7183 18.0004 15.0235 17.874 15.2485 17.6489C15.4736 17.4239 15.6 17.1187 15.6 16.8004V7.80039L14.4 9.00039V16.8004Z" fill="#515151"/>
<path d="M17.7173 2.30392L15.6953 0.281918C15.6056 0.191936 15.4989 0.120544 15.3816 0.0718325C15.2642 0.0231209 15.1384 -0.00195313 15.0113 -0.00195312C14.8842 -0.00195312 14.7584 0.0231209 14.641 0.0718325C14.5236 0.120544 14.417 0.191936 14.3273 0.281918L6.10129 8.55592L5.43529 11.4419C5.40692 11.5818 5.4099 11.7263 5.44403 11.8649C5.47815 12.0035 5.54257 12.1328 5.63265 12.2435C5.72272 12.3543 5.83622 12.4436 5.96498 12.5053C6.09374 12.5669 6.23455 12.5992 6.37729 12.5999C6.45107 12.608 6.52551 12.608 6.59929 12.5999L9.50929 11.9579L17.7173 3.67192C17.8073 3.58218 17.8787 3.47557 17.9274 3.3582C17.9761 3.24083 18.0012 3.115 18.0012 2.98792C18.0012 2.86084 17.9761 2.73501 17.9274 2.61763C17.8787 2.50026 17.8073 2.39365 17.7173 2.30392ZM8.88529 10.8479L6.68929 11.3339L7.19929 9.15592L13.3913 2.92192L15.0833 4.61392L8.88529 10.8479ZM15.7613 3.93592L14.0693 2.24392L14.9993 1.29592L16.7033 2.99992L15.7613 3.93592Z" fill="#515151"/>
</svg>
