<svg width="13" height="16" viewBox="0 0 13 16" fill="none" xmlns="http://www.w3.org/2000/svg">
<path d="M12.6579 0H0.342105C0.153195 0 0 0.142693 0 0.318725V15.6813C0 15.8573 0.153195 16 0.342105 16H12.6579C12.8468 16 13 15.8573 13 15.6813V0.318725C13 0.142693 12.8468 0 12.6579 0ZM12.3158 15.3626H0.684211V0.63745H12.3158V15.3626Z" fill="white"/>
<path d="M2.22394 5.25802H5.20026C5.38917 5.25802 5.54236 5.11532 5.54236 4.93929V2.16638C5.54236 1.99035 5.38917 1.84766 5.20026 1.84766H2.22394C2.03503 1.84766 1.88184 1.99035 1.88184 2.16638V4.93929C1.88184 5.11532 2.03503 5.25802 2.22394 5.25802ZM2.56605 2.48511H4.85815V4.62057H2.56605V2.48511Z" fill="white"/>
<path d="M2.22394 9.75216H5.20026C5.38917 9.75216 5.54236 9.60946 5.54236 9.43343V8.82785C5.54236 8.65182 5.38917 8.50913 5.20026 8.50913C5.01135 8.50913 4.85815 8.65182 4.85815 8.82785V9.11471H2.56605V6.97925H4.6871C4.87601 6.97925 5.0292 6.83655 5.0292 6.66052C5.0292 6.48449 4.87601 6.3418 4.6871 6.3418H2.22394C2.03503 6.3418 1.88184 6.48449 1.88184 6.66052V9.43343C1.88184 9.60946 2.03503 9.75216 2.22394 9.75216Z" fill="white"/>
<path d="M2.22394 14.215H5.20026C5.38917 14.215 5.54236 14.0724 5.54236 13.8963V11.1234C5.54236 10.9474 5.38917 10.8047 5.20026 10.8047H2.22394C2.03503 10.8047 1.88184 10.9474 1.88184 11.1234V13.8963C1.88184 14.0724 2.03503 14.215 2.22394 14.215ZM2.56605 11.4421H4.85815V13.5776H2.56605V11.4421Z" fill="white"/>
<path d="M9.09992 3.15503H10.8104C10.9994 3.15503 11.1525 3.01234 11.1525 2.8363C11.1525 2.66027 10.9994 2.51758 10.8104 2.51758H9.09992C8.91101 2.51758 8.75781 2.66027 8.75781 2.8363C8.75781 3.01234 8.91101 3.15503 9.09992 3.15503Z" fill="white"/>
<path d="M7.08136 3.15503H7.66294C7.85185 3.15503 8.00505 3.01234 8.00505 2.8363C8.00505 2.66027 7.85185 2.51758 7.66294 2.51758H7.08136C6.89245 2.51758 6.73926 2.66027 6.73926 2.8363C6.73926 3.01234 6.89245 3.15503 7.08136 3.15503Z" fill="white"/>
<path d="M7.08136 4.46167H10.8103C10.9992 4.46167 11.1524 4.31898 11.1524 4.14294C11.1524 3.96691 10.9992 3.82422 10.8103 3.82422H7.08136C6.89245 3.82422 6.73926 3.96691 6.73926 4.14294C6.73926 4.31898 6.89245 4.46167 7.08136 4.46167Z" fill="white"/>
<path d="M10.8104 7.04297H9.09992C8.91101 7.04297 8.75781 7.18566 8.75781 7.36169C8.75781 7.53773 8.91101 7.68042 9.09992 7.68042H10.8104C10.9994 7.68042 11.1525 7.53773 11.1525 7.36169C11.1525 7.18566 10.9994 7.04297 10.8104 7.04297Z" fill="white"/>
<path d="M7.08136 7.68042H7.66294C7.85185 7.68042 8.00505 7.53773 8.00505 7.36169C8.00505 7.18566 7.85185 7.04297 7.66294 7.04297H7.08136C6.89245 7.04297 6.73926 7.18566 6.73926 7.36169C6.73926 7.53773 6.89245 7.68042 7.08136 7.68042Z" fill="white"/>
<path d="M7.08136 8.98901H10.8103C10.9992 8.98901 11.1524 8.84632 11.1524 8.67029C11.1524 8.49426 10.9992 8.35156 10.8103 8.35156H7.08136C6.89245 8.35156 6.73926 8.49426 6.73926 8.67029C6.73926 8.84632 6.89245 8.98901 7.08136 8.98901Z" fill="white"/>
<path d="M10.8104 11.4746H9.09992C8.91101 11.4746 8.75781 11.6173 8.75781 11.7933C8.75781 11.9694 8.91101 12.1121 9.09992 12.1121H10.8104C10.9994 12.1121 11.1525 11.9694 11.1525 11.7933C11.1525 11.6173 10.9994 11.4746 10.8104 11.4746Z" fill="white"/>
<path d="M7.08136 12.1121H7.66294C7.85185 12.1121 8.00505 11.9694 8.00505 11.7933C8.00505 11.6173 7.85185 11.4746 7.66294 11.4746H7.08136C6.89245 11.4746 6.73926 11.6173 6.73926 11.7933C6.73926 11.9694 6.89245 12.1121 7.08136 12.1121Z" fill="white"/>
<path d="M7.08136 13.4187H10.8103C10.9992 13.4187 11.1524 13.276 11.1524 13.1C11.1524 12.9239 10.9992 12.7812 10.8103 12.7812H7.08136C6.89245 12.7812 6.73926 12.9239 6.73926 13.1C6.73926 13.276 6.89245 13.4187 7.08136 13.4187Z" fill="white"/>
<path d="M3.45247 7.53002C3.31594 7.40843 3.09932 7.41298 2.9688 7.54025C2.83826 7.66752 2.84318 7.86927 2.97978 7.9909L3.84664 8.76671C3.91346 8.82895 4.001 8.86006 4.08855 8.86006C4.17609 8.86006 4.26364 8.82895 4.33045 8.76671L6.36598 6.87029C6.49957 6.74583 6.49957 6.54401 6.36598 6.41952C6.23235 6.29506 6.0158 6.29506 5.88214 6.41952L4.0854 8.09346L3.45247 7.53002Z" fill="white"/>
</svg>
