<svg width="18" height="18" viewBox="0 0 18 18" fill="none" xmlns="http://www.w3.org/2000/svg">
<g clip-path="url(#clip0_1879_105052)">
<path d="M16 0H2C1.46957 0 0.960859 0.210714 0.585786 0.585786C0.210714 0.960859 0 1.46957 0 2V16C0 16.5304 0.210714 17.0391 0.585786 17.4142C0.960859 17.7893 1.46957 18 2 18H16C17.1 18 18 17.1 18 16V2C18 1.46957 17.7893 0.960859 17.4142 0.585786C17.0391 0.210714 16.5304 0 16 0ZM16 16H2V4H16V16ZM9 7.5C10.84 7.5 12.48 8.46 13.34 10C12.48 11.54 10.84 12.5 9 12.5C7.16 12.5 5.52 11.54 4.66 10C5.52 8.46 7.16 7.5 9 7.5ZM9 6C6.27 6 3.94 7.66 3 10C3.94 12.34 6.27 14 9 14C11.73 14 14.06 12.34 15 10C14.06 7.66 11.73 6 9 6ZM9 11.5C8.17 11.5 7.5 10.83 7.5 10C7.5 9.17 8.17 8.5 9 8.5C9.83 8.5 10.5 9.17 10.5 10C10.5 10.83 9.83 11.5 9 11.5Z" fill="#515151"/>
</g>
<defs>
<clipPath id="clip0_1879_105052">
<rect width="18" height="18" fill="white"/>
</clipPath>
</defs>
</svg>
