<svg width="16" height="16" viewBox="0 0 16 16" fill="none" xmlns="http://www.w3.org/2000/svg">
<g clip-path="url(#clip0_1899_102983)">
<path d="M4.80078 15.2003H14.7208C14.8481 15.2003 14.9702 15.1497 15.0602 15.0597C15.1502 14.9697 15.2008 14.8476 15.2008 14.7203V1.28029C15.2008 1.15299 15.1502 1.0309 15.0602 0.940882C14.9702 0.850864 14.8481 0.800293 14.7208 0.800293H1.28078C1.15348 0.800293 1.03139 0.850864 0.94137 0.940882C0.851353 1.0309 0.800781 1.15299 0.800781 1.28029V11.2003M6.40078 3.20029H12.8008M3.20078 3.20029H4.00078M1.20078 14.8003L8.00078 8.00029M8.00078 8.00029V11.2003M8.00078 8.00029H4.80078" stroke="#515151" stroke-width="1.5" stroke-linecap="round" stroke-linejoin="round"/>
</g>
<defs>
<clipPath id="clip0_1899_102983">
<rect width="16" height="16" fill="white"/>
</clipPath>
</defs>
</svg>
