<svg width="33" height="24" viewBox="0 0 33 24" fill="none" xmlns="http://www.w3.org/2000/svg">
<path d="M24.4688 24V15.7992H33.0052V24H24.4688Z" fill="#F4A72A"/>
<path d="M20.7696 24H12.2344V8.29309H20.7696V24Z" fill="#F4A72A"/>
<path d="M4.89005 24L0 17.6825V16.029L6.17216 24H4.89005Z" fill="#F4A72A"/>
<path d="M6.50282 24L0 15.6006V13.945L7.78578 24H6.50282Z" fill="#F4A72A"/>
<path d="M7.26562 0.000281215H8.53219V1.6355L7.26562 0.000281215Z" fill="#F4A72A"/>
<path d="M8.53529 16.2125L0 5.18898V3.53337L8.53529 14.558V16.2125Z" fill="#F4A72A"/>
<path d="M8.53529 18.2945L0 7.27102V5.61645L8.53529 16.64V18.2945Z" fill="#F4A72A"/>
<path d="M8.53529 24H8.11548L0 13.5176V11.8631L8.53529 22.8866V24Z" fill="#F4A72A"/>
<path d="M8.53529 14.1296L0 3.1051V1.45163L8.53529 12.4751V14.1296Z" fill="#F4A72A"/>
<path d="M8.53529 22.4604L0 11.4348V9.7802L8.53529 20.8058V22.4604Z" fill="#F4A72A"/>
<path d="M8.53475 3.71704L5.65625 -9.77516e-06H6.93711L8.53475 2.06253V3.71704Z" fill="#F4A72A"/>
<path d="M8.53529 20.3786L0 9.35297V7.69841L8.53529 18.7219V20.3786Z" fill="#F4A72A"/>
<path d="M8.53373 7.88196L2.42969 8.67844e-05H3.71066L8.53373 6.22745V7.88196Z" fill="#F4A72A"/>
<path d="M0 21.8483V20.1927L2.94662 24H1.66534L0 21.8483Z" fill="#F4A72A"/>
<path d="M0 23.9302V22.2757L1.33395 24H0.0534082L0 23.9302Z" fill="#F4A72A"/>
<path d="M8.53671 9.9646L0.820312 -0.00020504H2.1017L8.53671 8.31009V9.9646Z" fill="#F4A72A"/>
<path d="M3.27811 24L0 19.7654V18.1108L4.55981 24H3.27811Z" fill="#F4A72A"/>
<path d="M8.53899 4.14549V5.80005L4.04688 1.14441e-05H5.32858L8.53899 4.14549Z" fill="#F4A72A"/>
<path d="M8.53529 12.0469L0 1.02338V0.000183105H0.488669L8.53529 10.3923V12.0469Z" fill="#F4A72A"/>
<path d="M8.53514 2.0625L6.9375 -4.07696e-05H7.26858L8.53514 1.63518V2.0625Z" fill="#F4A72A"/>
<path d="M8.53853 4.14551L5.32812 3.19481e-05H5.66003L8.53853 3.71708V4.14551Z" fill="#F4A72A"/>
<path d="M8.53401 6.22754L3.71094 0.000175953H4.0419L8.53401 5.80022V6.22754Z" fill="#F4A72A"/>
<path d="M8.53657 8.31055L2.10156 0.000250816H2.43253L8.53657 7.88212V8.31055Z" fill="#F4A72A"/>
<path d="M8.531 10.3923L0.484375 0.000204086H0.814604L8.531 9.96501V10.3923Z" fill="#F4A72A"/>
<path d="M8.53529 12.4753L0 1.45185V1.02342L8.53529 12.0469V12.4753Z" fill="#F4A72A"/>
<path d="M8.53529 14.5581L0 3.53351V3.10514L8.53529 14.1297V14.5581Z" fill="#F4A72A"/>
<path d="M8.53529 16.64L0 5.61641V5.18908L8.53529 16.2126V16.64Z" fill="#F4A72A"/>
<path d="M8.53529 18.7218L0 7.69826V7.27093L8.53529 18.2944V18.7218Z" fill="#F4A72A"/>
<path d="M8.53529 20.8058L0 9.78019V9.35286L8.53529 20.3785V20.8058Z" fill="#F4A72A"/>
<path d="M8.53529 22.8866L0 11.8631V11.4348L8.53529 22.4604V22.8866Z" fill="#F4A72A"/>
<path d="M7.78578 24L0 13.945V13.5176L8.11548 24H7.78578Z" fill="#F4A72A"/>
<path d="M6.17216 24L0 16.029V15.6006L6.50282 24H6.17216Z" fill="#F4A72A"/>
<path d="M4.55981 24L0 18.1108V17.6825L4.89005 24H4.55981Z" fill="#F4A72A"/>
<path d="M0 20.1927V19.7654L3.27811 24H2.94662L0 20.1927Z" fill="#F4A72A"/>
<path d="M0 22.2757V21.8483L1.66534 24H1.33395L0 22.2757Z" fill="#F4A72A"/>
<path d="M0 23.9302L0.0542555 24H0V23.9302Z" fill="#F4A72A"/>
</svg>
