<svg width="21" height="22" viewBox="0 0 21 22" fill="none" xmlns="http://www.w3.org/2000/svg">
<path d="M11.9425 14.3135L12.2317 14.0129H11.6406L11.9425 14.3135Z" fill="white"/>
<path d="M15.3115 7.07604H4.71912V5.68199H15.3115V7.07604ZM15.3115 9.38865H2.91306V7.99465H15.3115V9.38865ZM1.02734 0.940166V21.0615H13.456V18.193C13.456 18.0695 13.5105 17.9484 13.6061 17.861C13.7025 17.7735 13.8341 17.7237 13.9691 17.7237H17.2375V11.3816L12.6544 16.1449C12.4808 16.3258 12.2301 16.4301 11.9576 16.4332C11.6985 16.4332 11.4487 16.3327 11.2734 16.1579L9.12192 14.014H2.91306V12.6192H13.549V12.6452L14.458 11.7013H2.91306V10.3065H15.3115V10.8141L17.2375 8.81128V0.940166H1.02734Z" fill="white"/>
<path d="M14.4844 21.0781L17.2203 18.6627H14.4844V21.0781Z" fill="white"/>
<path d="M20.913 7.20659L19.9034 6.39453C19.8565 6.35619 19.797 6.33553 19.7349 6.33553L19.7181 6.33628C19.6502 6.34011 19.5873 6.36846 19.5429 6.41524L18.2651 7.74335L17.2371 8.81071L15.3111 10.8136L14.4576 11.7007L13.5487 12.6447L12.2323 14.0134L11.943 14.314L11.6412 14.0134L11.0324 13.4069C10.9981 13.3731 10.9536 13.3486 10.905 13.3379L8.54723 12.8065L8.48602 12.7996C8.39714 12.7996 8.31328 12.8425 8.26633 12.9146C8.20848 13.0035 8.2219 13.1155 8.29736 13.1914L8.75181 13.6453L9.12156 14.0134L11.2731 16.1574C11.4483 16.3322 11.6982 16.4326 11.9573 16.4326C12.2298 16.4296 12.4805 16.3253 12.654 16.1443L17.2371 11.381L18.2651 10.3128L20.9364 7.5363C21.0295 7.43968 21.0194 7.29171 20.913 7.20659Z" fill="white"/>
</svg>
