<svg width="34" height="36" viewBox="0 0 34 36" fill="none" xmlns="http://www.w3.org/2000/svg">
<path d="M18.603 23.6328L19.0948 23.1218H18.0898L18.603 23.6328Z" fill="#515151"/>
<path d="M24.33 11.3292H6.3229V8.95929H24.33V11.3292ZM24.33 15.2606H3.25259V12.8908H24.33V15.2606ZM0.046875 0.898186V35.1045H21.1755V30.228C21.1755 30.0181 21.2682 29.8121 21.4307 29.6635C21.5946 29.5149 21.8184 29.4302 22.0479 29.4302H27.6041V18.6486L19.8129 26.7462C19.5178 27.0538 19.0916 27.2311 18.6284 27.2363C18.1879 27.2363 17.7632 27.0656 17.4653 26.7684L13.8077 23.1236H3.25259V20.7525H21.3338V20.7968L22.8789 19.1921H3.25259V16.821H24.33V17.684L27.6041 14.2791V0.898186H0.046875Z" fill="#515151"/>
<path d="M22.9219 35.1328L27.573 31.0266H22.9219V35.1328Z" fill="#515151"/>
<path d="M33.8532 11.5511L32.137 10.1706C32.0572 10.1054 31.956 10.0703 31.8505 10.0703L31.822 10.0716C31.7066 10.0781 31.5996 10.1263 31.5241 10.2058L29.3518 12.4636L27.6043 14.2781L24.3301 17.683L22.8791 19.1912L21.3339 20.7958L19.0961 23.1227L18.6043 23.6337L18.0912 23.1227L17.0563 22.0916C16.9979 22.0342 16.9223 21.9925 16.8397 21.9743L12.8315 21.0709L12.7274 21.0592C12.5763 21.0592 12.4338 21.1322 12.3539 21.2547C12.2556 21.4059 12.2784 21.5962 12.4067 21.7253L13.1792 22.4969L13.8078 23.1227L17.4654 26.7674C17.7633 27.0646 18.1881 27.2354 18.6285 27.2354C19.0918 27.2301 19.518 27.0529 19.813 26.7452L27.6043 18.6476L29.3518 16.8317L33.8931 12.1116C34.0513 11.9474 34.0342 11.6958 33.8532 11.5511Z" fill="#F4A72A"/>
</svg>
