<svg width="38" height="29" viewBox="0 0 38 29" fill="none" xmlns="http://www.w3.org/2000/svg">
<path d="M35.2374 7.2803H35.7374V7.7803V26.0986V26.5986H35.2374H2.26608H1.76608V26.0986V7.7803V7.2803H2.26608H35.2374ZM14.8001 5.37003H1.68467C1.06227 5.37003 0.5 5.92192 0.5 6.67617V27.1796C0.5 27.9339 1.06229 28.4858 1.68467 28.4858H35.8175C36.4404 28.4858 37.0035 27.9334 37.0035 27.1796V6.67617C37.0035 5.92242 36.4404 5.37003 35.8175 5.37003H22.7034V6.70204V7.20204H22.2034H15.3001H14.8001V6.70204V5.37003Z" stroke="#515151"/>
<path d="M7.17578 13.6905C7.17578 15.846 8.79928 17.5361 10.7304 17.5361C12.6603 17.5361 14.285 15.8458 14.285 13.6905C14.285 11.5309 12.6602 9.84206 10.7304 9.84206C8.79938 9.84206 7.17578 11.5308 7.17578 13.6905Z" stroke="#515151"/>
<mask id="path-3-inside-1_1882_127755" fill="white">
<path d="M12.0817 23.9814H9.06064L8.18665 19.06C8.27278 19.0532 8.35766 19.0464 8.44506 19.0464H12.696C12.7846 19.0464 12.8695 19.0532 12.9556 19.06L12.0817 23.9814ZM13.0747 18.4447H8.38172C6.27779 18.4447 4.57031 20.2754 4.57031 22.5324V24.5151H16.8874V22.5324C16.8874 20.2754 15.1799 18.4447 13.0747 18.4447Z"/>
</mask>
<path d="M12.0817 23.9814L13.0662 24.1563L12.9197 24.9814H12.0817V23.9814ZM9.06064 23.9814V24.9814H8.22258L8.07604 24.1563L9.06064 23.9814ZM8.18665 19.06L7.20206 19.2348L7.00935 18.1497L8.10806 18.0631L8.18665 19.06ZM12.9556 19.06L13.0342 18.0631L14.1329 18.1497L13.9402 19.2348L12.9556 19.06ZM4.57031 24.5151V25.5151H3.57031V24.5151H4.57031ZM16.8874 24.5151H17.8874V25.5151H16.8874V24.5151ZM12.0817 24.9814H9.06064V22.9814H12.0817V24.9814ZM8.07604 24.1563L7.20206 19.2348L9.17125 18.8851L10.0452 23.8066L8.07604 24.1563ZM8.10806 18.0631C8.18695 18.0568 8.31152 18.0464 8.44506 18.0464V20.0464C8.4038 20.0464 8.35862 20.0495 8.26524 20.0569L8.10806 18.0631ZM8.44506 18.0464H12.696V20.0464H8.44506V18.0464ZM12.696 18.0464C12.8306 18.0464 12.9549 18.0568 13.0342 18.0631L12.877 20.0569C12.7841 20.0495 12.7386 20.0464 12.696 20.0464V18.0464ZM13.9402 19.2348L13.0662 24.1563L11.0971 23.8066L11.971 18.8851L13.9402 19.2348ZM13.0747 19.4447H8.38172V17.4447H13.0747V19.4447ZM8.38172 19.4447C6.89474 19.4447 5.57031 20.7607 5.57031 22.5324H3.57031C3.57031 19.79 5.66084 17.4447 8.38172 17.4447V19.4447ZM5.57031 22.5324V24.5151H3.57031V22.5324H5.57031ZM4.57031 23.5151H16.8874V25.5151H4.57031V23.5151ZM15.8874 24.5151V22.5324H17.8874V24.5151H15.8874ZM15.8874 22.5324C15.8874 20.7609 14.5632 19.4447 13.0747 19.4447V17.4447C15.7966 17.4447 17.8874 19.7898 17.8874 22.5324H15.8874Z" fill="#515151" mask="url(#path-3-inside-1_1882_127755)"/>
<path d="M10.095 20.6733L9.625 23.9814L10.095 20.6733Z" fill="#616E7D"/>
<mask id="path-6-inside-2_1882_127755" fill="white">
<path d="M9.625 23.9814H11.5212L11.0513 20.6733H11.0348L11.4959 19.7634H11.4946H9.65163L10.1114 20.6733H10.095L9.625 23.9814Z"/>
</mask>
<path d="M11.5212 23.9814L12.5113 23.8408L12.6733 24.9814H11.5212V23.9814ZM11.0513 20.6733V19.6733H11.9193L12.0413 20.5327L11.0513 20.6733ZM11.0348 20.6733V21.6733H9.40706L10.1428 20.2213L11.0348 20.6733ZM11.4959 19.7634V18.7634H13.1236L12.3879 20.2154L11.4959 19.7634ZM9.65163 19.7634L8.7591 20.2144L8.02589 18.7634H9.65163V19.7634ZM10.1114 20.6733L11.0039 20.2223L11.7371 21.6733H10.1114V20.6733ZM10.095 20.6733L9.1049 20.5327L9.22698 19.6733H10.095V20.6733ZM9.625 22.9814H11.5212V24.9814H9.625V22.9814ZM10.5311 24.1221L10.0612 20.814L12.0413 20.5327L12.5113 23.8408L10.5311 24.1221ZM11.0513 21.6733H11.0348V19.6733H11.0513V21.6733ZM10.1428 20.2213L10.6038 19.3114L12.3879 20.2154L11.9268 21.1253L10.1428 20.2213ZM11.4959 20.7634H11.4946V18.7634H11.4959V20.7634ZM11.4946 20.7634H9.65163V18.7634H11.4946V20.7634ZM10.5441 19.3124L11.0039 20.2223L9.21889 21.1243L8.7591 20.2144L10.5441 19.3124ZM10.1114 21.6733H10.095V19.6733H10.1114V21.6733ZM11.085 20.814L10.6151 24.1221L8.63494 23.8408L9.1049 20.5327L11.085 20.814Z" fill="#515151" mask="url(#path-6-inside-2_1882_127755)"/>
<path d="M19.0898 13.7744H32.431V12.1535H19.0898V13.7744Z" stroke="#515151"/>
<path d="M19.0898 16.3857H32.431V16.3428H19.0898V16.3857Z" stroke="#F4A72A"/>
<path d="M19.0898 19.0557H32.431V19.0141H19.0898V19.0557Z" stroke="#F4A72A"/>
<path d="M19.0898 21.7251H32.431V21.6835H19.0898V21.7251Z" stroke="#F4A72A"/>
<path d="M15.8008 4.87014V6.20215H21.7041V1.16703H15.8008V4.87014Z" stroke="#515151"/>
</svg>
