<svg width="31" height="22" viewBox="0 0 31 22" fill="none" xmlns="http://www.w3.org/2000/svg">
<mask id="path-1-inside-1_1879_102353" fill="white">
<path d="M29.764 21.0599H14.9402V0.939093H29.764V21.0599ZM23.2248 0H14.4696C14.346 0 14.2244 0.0488052 14.1382 0.137106C14.0509 0.224365 14 0.345926 14 0.469545V13.4246V21.5305C14 21.653 14.0509 21.7746 14.1382 21.8618C14.2244 21.9491 14.346 22 14.4696 22H30.2336C30.3572 22 30.4788 21.9491 30.5671 21.8618C30.6543 21.7746 30.7031 21.653 30.7031 21.5305V0.469545C30.7031 0.345926 30.6543 0.224365 30.5671 0.137106C30.4788 0.0488052 30.3572 0 30.2336 0H23.2248Z"/>
</mask>
<path d="M29.764 21.0599H31.764V23.0599H29.764V21.0599ZM14.9402 21.0599V23.0599H12.9402V21.0599H14.9402ZM14.9402 0.939093H12.9402V-1.06091H14.9402V0.939093ZM29.764 0.939093V-1.06091H31.764V0.939093H29.764ZM14.1382 0.137106L15.5691 1.53438L15.5608 1.5429L15.5524 1.55132L14.1382 0.137106ZM14.1382 21.8618L15.5524 20.4476L15.5608 20.4561L14.1382 21.8618ZM30.5671 21.8618L31.9813 23.2761L31.9729 23.2844L30.5671 21.8618ZM30.5671 0.137106L29.1529 1.55132L30.5671 0.137106ZM29.764 23.0599H14.9402V19.0599H29.764V23.0599ZM12.9402 21.0599V0.939093H16.9402V21.0599H12.9402ZM14.9402 -1.06091H29.764V2.93909H14.9402V-1.06091ZM31.764 0.939093V21.0599H27.764V0.939093H31.764ZM23.2248 2H14.4696V-2H23.2248V2ZM14.4696 2C14.8577 2 15.2606 1.85038 15.5691 1.53438L12.7072 -1.26017C13.1882 -1.75277 13.8343 -2 14.4696 -2V2ZM15.5524 1.55132C15.8363 1.26745 16 0.881912 16 0.469545H12C12 -0.190058 12.2656 -0.81872 12.724 -1.27711L15.5524 1.55132ZM16 0.469545V13.4246H12V0.469545H16ZM16 13.4246V21.5305H12V13.4246H16ZM16 21.5305C16 21.1146 15.8345 20.7297 15.5524 20.4476L12.724 23.276C12.2673 22.8194 12 22.1915 12 21.5305H16ZM15.5608 20.4561C15.2707 20.1625 14.8797 20 14.4696 20V24C13.8122 24 13.1781 23.7357 12.7155 23.2675L15.5608 20.4561ZM14.4696 20H30.2336V24H14.4696V20ZM30.2336 20C29.8191 20 29.4388 20.1649 29.1612 20.4393L31.9729 23.2844C31.5187 23.7332 30.8954 24 30.2336 24V20ZM29.1529 20.4476C28.8544 20.7461 28.7031 21.1379 28.7031 21.5305H32.7031C32.7031 22.1682 32.4543 22.8031 31.9813 23.276L29.1529 20.4476ZM28.7031 21.5305V0.469545H32.7031V21.5305H28.7031ZM28.7031 0.469545C28.7031 0.858635 28.8527 1.25116 29.1529 1.55132L31.9813 -1.27711C32.456 -0.802425 32.7031 -0.16678 32.7031 0.469545H28.7031ZM29.1529 1.55132C29.4494 1.84783 29.8407 2 30.2336 2V-2C30.8737 -2 31.5082 -1.75022 31.9813 -1.27711L29.1529 1.55132ZM30.2336 2H23.2248V-2H30.2336V2Z" fill="#515151" mask="url(#path-1-inside-1_1879_102353)"/>
<rect y="2" width="20" height="10" rx="2" fill="#F4A72A"/>
<path d="M1.52344 9.53125C1.52344 9.38542 1.57292 9.26302 1.67188 9.16406C1.77083 9.0625 1.90495 9.01172 2.07422 9.01172C2.24609 9.01172 2.38021 9.0625 2.47656 9.16406C2.57552 9.26302 2.625 9.38542 2.625 9.53125C2.625 9.67708 2.57552 9.79948 2.47656 9.89844C2.38021 9.9974 2.24609 10.0469 2.07422 10.0469C1.90495 10.0469 1.77083 9.9974 1.67188 9.89844C1.57292 9.79948 1.52344 9.67708 1.52344 9.53125ZM5.96484 7.87891H4.48438V7.10156H5.96484C6.22266 7.10156 6.43099 7.0599 6.58984 6.97656C6.7487 6.89323 6.86458 6.77865 6.9375 6.63281C7.01302 6.48438 7.05078 6.3151 7.05078 6.125C7.05078 5.94531 7.01302 5.77734 6.9375 5.62109C6.86458 5.46224 6.7487 5.33464 6.58984 5.23828C6.43099 5.14193 6.22266 5.09375 5.96484 5.09375H4.78516V10H3.80469V4.3125H5.96484C6.40495 4.3125 6.77865 4.39062 7.08594 4.54688C7.39583 4.70052 7.63151 4.91406 7.79297 5.1875C7.95443 5.45833 8.03516 5.76823 8.03516 6.11719C8.03516 6.48438 7.95443 6.79948 7.79297 7.0625C7.63151 7.32552 7.39583 7.52734 7.08594 7.66797C6.77865 7.80859 6.40495 7.87891 5.96484 7.87891ZM10.5664 10H9.35156L9.35938 9.22266H10.5664C10.918 9.22266 11.2122 9.14583 11.4492 8.99219C11.6888 8.83854 11.8685 8.61849 11.9883 8.33203C12.1107 8.04557 12.1719 7.70443 12.1719 7.30859V7C12.1719 6.69271 12.1367 6.42057 12.0664 6.18359C11.9987 5.94661 11.8971 5.7474 11.7617 5.58594C11.6289 5.42448 11.4648 5.30208 11.2695 5.21875C11.0768 5.13542 10.8542 5.09375 10.6016 5.09375H9.32812V4.3125H10.6016C10.9792 4.3125 11.3242 4.3763 11.6367 4.50391C11.9492 4.62891 12.2188 4.8099 12.4453 5.04688C12.6745 5.28385 12.8503 5.56771 12.9727 5.89844C13.0951 6.22917 13.1562 6.59896 13.1562 7.00781V7.30859C13.1562 7.71745 13.0951 8.08724 12.9727 8.41797C12.8503 8.7487 12.6745 9.03255 12.4453 9.26953C12.2161 9.50391 11.9427 9.6849 11.625 9.8125C11.3099 9.9375 10.957 10 10.5664 10ZM9.89453 4.3125V10H8.91406V4.3125H9.89453ZM15.1211 4.3125V10H14.1406V4.3125H15.1211ZM17.4414 6.80078V7.57812H14.8711V6.80078H17.4414ZM17.7656 4.3125V5.09375H14.8711V4.3125H17.7656Z" fill="white"/>
</svg>
