<svg width="20" height="20" viewBox="0 0 20 20" fill="none" xmlns="http://www.w3.org/2000/svg">
<g clip-path="url(#clip0_491_83541)">
<path d="M17.7778 0H2.22222C1 0 0 1 0 2.22222V17.7778C0 19 1 20 2.22222 20H17.7778C19 20 20 19 20 17.7778V2.22222C20 1 19 0 17.7778 0ZM7.22222 9.44444C7.22222 10.3333 6.44444 11.1111 5.55556 11.1111H4.44444V13.3333H2.77778V6.66667H5.55556C6.44444 6.66667 7.22222 7.44444 7.22222 8.33333V9.44444ZM12.7778 11.6667C12.7778 12.5556 12 13.3333 11.1111 13.3333H8.33333V6.66667H11.1111C12 6.66667 12.7778 7.44444 12.7778 8.33333V11.6667ZM17.2222 8.33333H15.5556V9.44444H17.2222V11.1111H15.5556V13.3333H13.8889V6.66667H17.2222V8.33333ZM10 8.33333H11.1111V11.6667H10V8.33333ZM4.44444 8.33333H5.55556V9.44444H4.44444V8.33333Z" fill="#515151"/>
</g>
<defs>
<clipPath id="clip0_491_83541">
<rect width="20" height="20" fill="white"/>
</clipPath>
</defs>
</svg>
