<svg width="30" height="38" viewBox="0 0 30 38" fill="none" xmlns="http://www.w3.org/2000/svg">
<g clip-path="url(#clip0_1882_127776)">
<path d="M8.79563 31.8213H7.56836V29.857C7.56836 28.9773 7.91947 28.1328 8.54562 27.5097C9.17189 26.8864 10.0221 26.5356 10.9093 26.5356H19.0911C19.9783 26.5356 20.8285 26.8864 21.4547 27.5097C22.0809 28.1328 22.432 28.9773 22.432 29.857V31.8213H21.2047V29.857C21.2047 29.297 20.9812 28.7607 20.5844 28.3658C20.1877 27.971 19.6505 27.7499 19.0911 27.7499H10.9093C10.3499 27.7499 9.81263 27.971 9.41597 28.3658C9.01919 28.7607 8.79563 29.297 8.79563 29.857V31.8213ZM17.6153 22.889C16.8415 23.4036 15.9314 23.6784 15.0002 23.6784C13.7513 23.6784 12.5543 23.1846 11.6723 22.3068C10.7904 21.4292 10.2956 20.2395 10.2956 18.9999C10.2956 18.0753 10.5711 17.1713 11.0876 16.402C11.6041 15.6326 12.3386 15.0325 13.1987 14.6779C14.0587 14.3233 15.0054 14.2305 15.9187 14.4113C16.8319 14.5921 17.6703 15.0383 18.3281 15.6929C18.9857 16.3474 19.4332 17.1809 19.6145 18.0878C19.7957 18.9946 19.7027 19.9346 19.3471 20.7891C18.9915 21.6436 18.389 22.3745 17.6153 22.889ZM13.6707 22.2009L13.9565 21.5075L13.6707 22.2009C14.3056 22.4627 15.0041 22.5311 15.6779 22.3977C16.3517 22.2643 16.9712 21.935 17.4577 21.4507C17.9443 20.9665 18.2761 20.3491 18.4105 19.6764C18.545 19.0037 18.4759 18.3064 18.2123 17.673C17.9486 17.0395 17.5025 16.4987 16.9307 16.1185C16.3589 15.7383 15.6871 15.5356 15.0002 15.5356C14.0791 15.5356 13.195 15.8997 12.5426 16.549C11.8901 17.1984 11.5229 18.0799 11.5229 18.9999C11.5229 19.6858 11.7273 20.3561 12.1099 20.9259C12.4924 21.4956 13.0357 21.9392 13.6707 22.2009Z" stroke="#515151" stroke-width="1.5"/>
<path d="M22.4318 4.07143V4.82143H23.1818H27.2727C27.7983 4.82143 28.3016 5.02924 28.6721 5.39802C29.0426 5.76667 29.25 6.26591 29.25 6.78571V35.2857C29.25 35.8055 29.0426 36.3048 28.6721 36.6734C28.3016 37.0422 27.7983 37.25 27.2727 37.25H2.72727C2.20172 37.25 1.6984 37.0422 1.32786 36.6734C0.957446 36.3048 0.75 35.8055 0.75 35.2857V6.78571C0.75 6.26591 0.957445 5.76667 1.32786 5.39802C1.6984 5.02924 2.20172 4.82143 2.72727 4.82143H6.81818H7.56818V4.07143V2.71429C7.56818 2.19448 7.77563 1.69524 8.14604 1.32659C8.51658 0.957816 9.0199 0.75 9.54545 0.75H20.4545C20.9801 0.75 21.4834 0.957816 21.854 1.32659C22.2244 1.69524 22.4318 2.19448 22.4318 2.71429V4.07143ZM9.54545 1.96429H8.79545V2.71429V8.14286V8.89286H9.54545H20.4545H21.2045V8.14286V2.71429V1.96429H20.4545H9.54545ZM27.2727 36.0357H28.0227V35.2857V6.78571V6.03571H27.2727H23.1818H22.4318V6.78571V10.1071H7.56818V6.78571V6.03571H6.81818H2.72727H1.97727V6.78571V35.2857V36.0357H2.72727H27.2727Z" stroke="#515151" stroke-width="1.5"/>
</g>
<defs>
<clipPath id="clip0_1882_127776">
<rect width="30" height="38" fill="white"/>
</clipPath>
</defs>
</svg>
