<svg width="22" height="22" viewBox="0 0 22 22" fill="none" xmlns="http://www.w3.org/2000/svg">
<mask id="path-1-inside-1_1878_115276" fill="white">
<path d="M15.6814 9.30326L15.2305 10.2781C15.2123 10.3138 15.1823 10.3408 15.1436 10.3561C15.1041 10.3699 15.0615 10.3692 15.0228 10.3546L14.4961 10.1462H14.4953L14.4866 10.1433V10.1426L14.451 10.1295C14.4179 10.1171 14.3658 10.0989 14.2955 10.0763C14.1557 10.0304 13.9496 9.96774 13.6945 9.90508C13.1852 9.77977 12.4799 9.65591 11.7297 9.65591C11.0016 9.65591 10.2592 9.77322 9.69615 9.89708C9.13229 10.0202 8.74455 10.1484 8.72007 10.1572L8.71691 10.1586L8.17911 10.3422C8.09698 10.3699 8.00694 10.3313 7.97693 10.257L7.57814 9.26249C7.54813 9.18744 7.5884 9.10365 7.67053 9.07597L8.20992 8.89161L8.20834 8.89236C8.23045 8.88435 8.65214 8.74152 9.29655 8.59726C9.94175 8.45228 10.8089 8.30585 11.7305 8.30512C12.6363 8.30658 13.4481 8.44792 14.0436 8.59364C14.6382 8.73717 15.0244 8.88724 15.0639 8.90254L15.0702 8.90399L15.5977 9.11311C15.6372 9.12768 15.6672 9.1561 15.683 9.1918C15.698 9.22823 15.6972 9.26756 15.6814 9.30326ZM1.80213 14.7422C1.72078 14.8092 1.60629 14.8522 1.47756 14.8522C1.34884 14.8522 1.23434 14.8092 1.153 14.7422C1.07245 14.6751 1.02583 14.5884 1.02583 14.493C1.02583 14.3975 1.07245 14.3108 1.153 14.2445C1.23434 14.1782 1.34884 14.1345 1.47756 14.1345C1.60629 14.1345 1.72078 14.1782 1.80213 14.2445C1.88268 14.3108 1.92849 14.3975 1.92849 14.493C1.92849 14.5884 1.88268 14.6751 1.80213 14.7422ZM19.829 16.5221H21.6572C21.7496 16.5221 21.8349 16.4893 21.8989 16.4295C21.9637 16.3705 22 16.2904 22 16.2066V11.8963C22 11.8125 21.9637 11.7324 21.8989 11.6734C21.8349 11.6136 21.7496 11.5808 21.6572 11.5808H20.0099C19.7919 11.1597 19.5147 10.7597 19.1878 10.386C19.2494 10.2519 20.0107 8.60601 20.5745 7.58016C20.8051 7.45485 18.0356 6.14852 15.7612 8.0953C14.5253 7.62609 13.1212 7.35867 11.631 7.35867C6.68417 7.35867 2.67398 10.2832 2.67398 13.8904C2.67398 13.9888 2.67871 14.0857 2.68424 14.1833C2.63764 14.3385 2.52632 14.482 2.36048 14.5986C2.28941 14.6474 2.20648 14.689 2.11882 14.7261C2.15515 14.6547 2.17566 14.576 2.17566 14.493C2.17566 14.3276 2.09275 14.1782 1.96639 14.074C1.83846 13.9699 1.6663 13.9072 1.47756 13.9072C1.28882 13.9072 1.11585 13.9699 0.98792 14.074C0.861565 14.1782 0.778652 14.3276 0.778652 14.493C0.778652 14.576 0.799973 14.6547 0.8363 14.7261C0.748641 14.689 0.665736 14.6474 0.595451 14.5986C0.37354 14.4427 0.247173 14.2394 0.247173 14.0208H0C0 14.3239 0.177679 14.5928 0.446184 14.78C0.715478 14.968 1.07875 15.0795 1.47756 15.0802C1.87637 15.0795 2.24043 14.968 2.50894 14.78C2.59186 14.7225 2.66214 14.6554 2.72453 14.5833C2.91643 15.9101 3.65325 17.1181 4.76912 18.0863L4.42559 21.2892C4.40822 21.4568 4.52114 21.6112 4.69567 21.6579L5.92922 21.9864C6.10138 22.0323 6.28536 21.9588 6.3675 21.8116L7.54891 19.7031C8.77377 20.1613 10.1605 20.4214 11.631 20.4214C13.0106 20.4214 14.3176 20.1934 15.4848 19.7868L16.6188 21.8116C16.7018 21.9588 16.8858 22.0323 17.0579 21.9864L18.2915 21.6579C18.466 21.6112 18.5797 21.4568 18.5608 21.2892L18.2409 18.2969C18.8948 17.776 19.4326 17.1771 19.829 16.5221Z"/>
</mask>
<path d="M15.2305 10.2781L16.1381 10.6979L16.1303 10.7149L16.1218 10.7316L15.2305 10.2781ZM15.1436 10.3561L15.5113 11.286L15.493 11.2933L15.4745 11.2998L15.1436 10.3561ZM15.0228 10.3546L14.6704 11.2905L14.6627 11.2875L14.655 11.2845L15.0228 10.3546ZM14.4961 10.1462V9.14625H14.6867L14.8639 9.21636L14.4961 10.1462ZM14.4953 10.1462V11.1462H14.3317L14.1766 11.0941L14.4953 10.1462ZM14.4866 10.1433L14.1679 11.0912L13.4866 10.8621V10.1433H14.4866ZM14.4866 10.1426L14.8322 9.20418L15.4866 9.44518V10.1426H14.4866ZM14.451 10.1295L14.1055 11.0679L14.1012 11.0663L14.451 10.1295ZM14.2955 10.0763L13.9895 11.0284L13.9835 11.0264L14.2955 10.0763ZM13.6945 9.90508L13.456 10.8762L13.4556 10.8761L13.6945 9.90508ZM9.69615 9.89708L9.91099 10.8737L9.9095 10.8741L9.69615 9.89708ZM8.72007 10.1572L8.3012 9.24913L8.34172 9.23043L8.38375 9.21542L8.72007 10.1572ZM8.71691 10.1586L9.13578 11.0667L9.08888 11.0883L9.04 11.105L8.71691 10.1586ZM8.17911 10.3422L8.5022 11.2886L8.49854 11.2898L8.17911 10.3422ZM7.97693 10.257L7.04968 10.6314L7.04878 10.6292L7.97693 10.257ZM7.57814 9.26249L6.64998 9.63467L6.64963 9.63379L7.57814 9.26249ZM7.67053 9.07597L7.99395 10.0222L7.98997 10.0236L7.67053 9.07597ZM8.20992 8.89161L7.8865 7.94536L8.63716 9.79575L8.20992 8.89161ZM8.20834 8.89236L8.54909 9.83251L7.78109 7.98822L8.20834 8.89236ZM9.29655 8.59726L9.5158 9.57293L9.51501 9.57311L9.29655 8.59726ZM11.7305 8.30512L11.7297 7.30512L11.7321 7.30512L11.7305 8.30512ZM14.0436 8.59364L13.809 9.56573L13.8059 9.56497L14.0436 8.59364ZM15.0639 8.90254L14.8391 9.87695L14.7694 9.86086L14.7026 9.83498L15.0639 8.90254ZM15.0702 8.90399L15.295 7.92958L15.3685 7.94655L15.4387 7.97437L15.0702 8.90399ZM15.5977 9.11311L15.2515 10.0513L15.2403 10.0471L15.2292 10.0427L15.5977 9.11311ZM15.683 9.1918L16.5975 8.78721L16.6027 8.79902L16.6077 8.81095L15.683 9.1918ZM1.80213 14.7422L2.44177 15.5108L2.43807 15.5139L1.80213 14.7422ZM1.153 14.7422L0.517041 15.5139L0.513357 15.5108L1.153 14.7422ZM1.153 14.2445L0.517485 13.4724L0.521192 13.4694L1.153 14.2445ZM1.80213 14.2445L2.43394 13.4694L2.43763 13.4724L1.80213 14.2445ZM21.8989 16.4295L21.2163 15.6987L21.2253 15.6904L21.8989 16.4295ZM21.8989 11.6734L21.2253 12.4125L21.2163 12.4042L21.8989 11.6734ZM20.0099 11.5808V12.5808H19.4015L19.1218 12.0405L20.0099 11.5808ZM19.1878 10.386L18.4351 11.0443L18.0087 10.5569L18.2791 9.96844L19.1878 10.386ZM20.5745 7.58016L19.6982 7.09848L19.8394 6.84153L20.097 6.70153L20.5745 7.58016ZM15.7612 8.0953L16.4115 8.855L15.9609 9.24073L15.4063 9.03019L15.7612 8.0953ZM2.68424 14.1833L3.68264 14.1268L3.69258 14.3024L3.642 14.4709L2.68424 14.1833ZM2.36048 14.5986L2.93558 15.4168L2.92663 15.4229L2.36048 14.5986ZM2.11882 14.7261L2.5091 15.6468L-0.0162109 16.7173L1.22755 14.2727L2.11882 14.7261ZM1.96639 14.074L2.59787 13.2986L2.60257 13.3025L1.96639 14.074ZM0.98792 14.074L0.351727 13.3025L0.35645 13.2986L0.98792 14.074ZM0.8363 14.7261L1.72758 14.2727L2.97133 16.7173L0.446025 15.6468L0.8363 14.7261ZM0.595451 14.5986L0.0249996 15.42L0.0205571 15.4168L0.595451 14.5986ZM0.247173 14.0208V13.0208H1.24717V14.0208H0.247173ZM0 14.0208H-1V13.0208H0V14.0208ZM0.446184 14.78L1.01819 13.9598L1.01856 13.9601L0.446184 14.78ZM1.47756 15.0802L1.47939 16.0802L1.47573 16.0802L1.47756 15.0802ZM2.50894 14.78L1.93543 13.9608L1.93871 13.9586L2.50894 14.78ZM2.72453 14.5833L1.9682 13.9291L3.40075 12.2729L3.71423 14.4402L2.72453 14.5833ZM4.76912 18.0863L5.42452 17.3311L5.81914 17.6735L5.76342 18.193L4.76912 18.0863ZM4.42559 21.2892L3.43091 21.1861L3.43129 21.1825L4.42559 21.2892ZM4.69567 21.6579L4.43828 22.6242L4.43755 22.624L4.69567 21.6579ZM5.92922 21.9864L6.18661 21.0201L6.18684 21.0202L5.92922 21.9864ZM6.3675 21.8116L5.49426 21.3243L5.4951 21.3228L6.3675 21.8116ZM7.54891 19.7031L6.67652 19.2143L7.09586 18.4659L7.89934 18.7665L7.54891 19.7031ZM15.4848 19.7868L15.1559 18.8425L15.9476 18.5667L16.3573 19.2982L15.4848 19.7868ZM16.6188 21.8116L15.7476 22.3024L15.7464 22.3002L16.6188 21.8116ZM17.0579 21.9864L16.8003 21.0202L16.8005 21.0201L17.0579 21.9864ZM18.2915 21.6579L18.5496 22.624L18.5489 22.6242L18.2915 21.6579ZM18.5608 21.2892L17.5671 21.4016L17.5664 21.3955L18.5608 21.2892ZM18.2409 18.2969L17.2466 18.4032L17.1882 17.857L17.6178 17.5148L18.2409 18.2969ZM16.589 9.72307L16.1381 10.6979L14.3229 9.85831L14.7738 8.88344L16.589 9.72307ZM16.1218 10.7316C15.9885 10.9935 15.7674 11.1848 15.5113 11.286L14.7759 9.42613C14.5972 9.49679 14.4361 9.63418 14.3392 9.82467L16.1218 10.7316ZM15.4745 11.2998C15.2108 11.3922 14.9263 11.3868 14.6704 11.2905L15.3752 9.41877C15.1967 9.35154 14.9975 9.34764 14.8128 9.41239L15.4745 11.2998ZM14.655 11.2845L14.1282 11.0761L14.8639 9.21636L15.3907 9.42473L14.655 11.2845ZM14.4961 11.1462H14.4953V9.14625H14.4961V11.1462ZM14.1766 11.0941L14.1679 11.0912L14.8053 9.19548L14.814 9.19839L14.1766 11.0941ZM13.4866 10.1433V10.1426H15.4866V10.1433H13.4866ZM14.1411 11.081L14.1055 11.0679L14.7966 9.19109L14.8322 9.20418L14.1411 11.081ZM14.1012 11.0663C14.0861 11.0606 14.0491 11.0475 13.9896 11.0284L14.6014 9.12426C14.6824 9.15028 14.7497 9.17357 14.8009 9.19268L14.1012 11.0663ZM13.9835 11.0264C13.864 10.9871 13.6826 10.9319 13.456 10.8762L13.9331 8.93395C14.2166 9.0036 14.4474 9.07367 14.6075 9.12622L13.9835 11.0264ZM13.4556 10.8761C12.9989 10.7638 12.3768 10.6559 11.7297 10.6559V8.65591C12.583 8.65591 13.3714 8.79576 13.9334 8.93404L13.4556 10.8761ZM11.7297 10.6559C11.0983 10.6559 10.4324 10.759 9.91099 10.8737L9.48132 8.92043C10.0861 8.7874 10.9048 8.65591 11.7297 8.65591V10.6559ZM9.9095 10.8741C9.3852 10.9885 9.03866 11.1053 9.0564 11.0989L8.38375 9.21542C8.45044 9.19161 8.87939 9.05187 9.48281 8.9201L9.9095 10.8741ZM9.13895 11.0652L9.13578 11.0667L8.29804 9.25058L8.3012 9.24913L9.13895 11.0652ZM9.04 11.105L8.50219 11.2886L7.85602 9.39586L8.39382 9.21226L9.04 11.105ZM8.49854 11.2898C7.96765 11.4688 7.29825 11.247 7.04968 10.6314L8.90419 9.88256C8.71564 9.41563 8.2263 9.27104 7.85967 9.39463L8.49854 11.2898ZM7.04878 10.6292L6.64998 9.63467L8.5063 8.8903L8.90509 9.88481L7.04878 10.6292ZM6.64963 9.63379C6.38968 8.98374 6.76892 8.32461 7.3511 8.12836L7.98997 10.0236C8.40788 9.8827 8.70658 9.39115 8.50665 8.89118L6.64963 9.63379ZM7.34712 8.12971L7.8865 7.94536L8.53333 9.83787L7.99395 10.0222L7.34712 8.12971ZM8.63716 9.79575L8.63558 9.7965L7.78109 7.98822L7.78267 7.98748L8.63716 9.79575ZM7.86758 7.95221C7.93175 7.92895 8.39443 7.77446 9.0781 7.62142L9.51501 9.57311C8.90985 9.70858 8.52914 9.83974 8.54909 9.83251L7.86758 7.95221ZM9.0773 7.6216C9.76385 7.46731 10.7089 7.30593 11.7297 7.30512L11.7313 9.30512C10.9088 9.30577 10.1196 9.43724 9.5158 9.57293L9.0773 7.6216ZM11.7321 7.30512C12.7374 7.30674 13.6307 7.46308 14.2813 7.6223L13.8059 9.56497C13.2656 9.43276 12.5352 9.30641 11.7289 9.30512L11.7321 7.30512ZM14.2782 7.62155C14.9303 7.77894 15.361 7.9452 15.4252 7.97009L14.7026 9.83498C14.6878 9.82927 14.3462 9.69539 13.809 9.56572L14.2782 7.62155ZM15.2886 7.92812L15.295 7.92958L14.8455 9.87841L14.8391 9.87695L15.2886 7.92812ZM15.4387 7.97437L15.9662 8.18348L15.2292 10.0427L14.7017 9.83362L15.4387 7.97437ZM15.9439 8.17495C16.2299 8.28049 16.4692 8.49708 16.5975 8.78721L14.7685 9.59639C14.8653 9.81512 15.0445 9.97487 15.2515 10.0513L15.9439 8.17495ZM16.6077 8.81095C16.7281 9.10339 16.7204 9.42643 16.5959 9.70784L14.7669 8.89867C14.674 9.10868 14.6679 9.35307 14.7584 9.57264L16.6077 8.81095ZM2.43807 15.5139C2.16754 15.7368 1.82488 15.8522 1.47756 15.8522V13.8522C1.38769 13.8522 1.27403 13.8815 1.16618 13.9704L2.43807 15.5139ZM1.47756 15.8522C1.13024 15.8522 0.78758 15.7368 0.517048 15.5139L1.78895 13.9704C1.6811 13.8815 1.56743 13.8522 1.47756 13.8522V15.8522ZM0.513357 15.5108C0.250615 15.2922 0.025825 14.9407 0.025825 14.493H2.02583C2.02583 14.2362 1.89428 14.0581 1.79264 13.9735L0.513357 15.5108ZM0.025825 14.493C0.025825 14.0458 0.250273 13.6924 0.517492 13.4724L1.7885 15.0166C1.89462 14.9293 2.02583 14.7492 2.02583 14.493H0.025825ZM0.521192 13.4694C0.786496 13.2532 1.12586 13.1345 1.47756 13.1345V15.1345C1.57182 15.1345 1.68218 15.1033 1.7848 15.0197L0.521192 13.4694ZM1.47756 13.1345C1.82927 13.1345 2.16863 13.2532 2.43393 13.4694L1.17032 15.0197C1.27294 15.1033 1.3833 15.1345 1.47756 15.1345V13.1345ZM2.43763 13.4724C2.70952 13.6962 2.92849 14.051 2.92849 14.493H0.928488C0.928488 14.744 1.05584 14.9254 1.16662 15.0166L2.43763 13.4724ZM2.92849 14.493C2.92849 14.9355 2.70916 15.2883 2.44177 15.5108L1.16248 13.9735C1.05619 14.0619 0.928488 14.2414 0.928488 14.493H2.92849ZM19.829 15.5221H21.6572V17.5221H19.829V15.5221ZM21.6572 15.5221C21.5102 15.5221 21.3475 15.5762 21.2163 15.6987L22.5815 17.1603C22.3224 17.4024 21.9891 17.5221 21.6572 17.5221V15.5221ZM21.2253 15.6904C21.0929 15.8111 21 15.9948 21 16.2066H23C23 16.5859 22.8344 16.9299 22.5725 17.1686L21.2253 15.6904ZM21 16.2066V11.8963H23V16.2066H21ZM21 11.8963C21 12.1081 21.0929 12.2918 21.2253 12.4125L22.5725 10.9342C22.8344 11.1729 23 11.517 23 11.8963H21ZM21.2163 12.4042C21.3475 12.5267 21.5102 12.5808 21.6572 12.5808V10.5808C21.9891 10.5808 22.3224 10.7005 22.5815 10.9425L21.2163 12.4042ZM21.6572 12.5808H20.0099V10.5808H21.6572V12.5808ZM19.1218 12.0405C18.944 11.6971 18.7139 11.3631 18.4351 11.0443L19.9405 9.72756C20.3155 10.1563 20.6398 10.6223 20.898 11.1212L19.1218 12.0405ZM18.2791 9.96844C18.3389 9.83822 19.1144 8.16054 19.6982 7.09848L21.4509 8.06185C20.9069 9.05148 20.1598 10.6656 20.0965 10.8035L18.2791 9.96844ZM20.097 6.70153C19.9276 6.79362 19.6963 6.99171 19.6148 7.33289C19.5405 7.6443 19.6372 7.88982 19.6932 7.99933C19.7518 8.11395 19.819 8.18673 19.8485 8.21686C19.8831 8.25224 19.9114 8.2745 19.9243 8.28427C19.962 8.31277 19.9506 8.29703 19.8544 8.25686C19.6831 8.18535 19.3824 8.09483 19.0035 8.0553C18.255 7.9772 17.29 8.10302 16.4115 8.855L15.1109 7.33559C16.5068 6.1408 18.0638 5.94639 19.211 6.0661C19.78 6.12546 20.2706 6.26335 20.6248 6.41118C20.7913 6.48068 20.9762 6.57236 21.1301 6.68868C21.1825 6.72822 21.3572 6.86075 21.4737 7.08849C21.5379 7.21397 21.6374 7.47371 21.5601 7.79729C21.4758 8.15065 21.2359 8.35888 21.052 8.4588L20.097 6.70153ZM15.4063 9.03019C14.2862 8.60496 13.0025 8.35867 11.631 8.35867V6.35867C13.2398 6.35867 14.7644 6.64722 16.1161 7.1604L15.4063 9.03019ZM11.631 8.35867C9.34658 8.35867 7.3189 9.03535 5.88664 10.0798C4.45352 11.1249 3.67398 12.4844 3.67398 13.8904H1.67398C1.67398 11.6893 2.89953 9.78286 4.7082 8.46388C6.51774 7.14427 8.96855 6.35867 11.631 6.35867V8.35867ZM3.67398 13.8904C3.67398 13.9588 3.67727 14.0321 3.68264 14.1268L1.68583 14.2399C1.68014 14.1393 1.67398 14.0188 1.67398 13.8904H3.67398ZM3.642 14.4709C3.51684 14.8878 3.24027 15.2025 2.93555 15.4167L1.78542 13.7805C1.81238 13.7615 1.75844 13.7893 1.72647 13.8958L3.642 14.4709ZM2.92663 15.4229C2.7793 15.5241 2.62947 15.5958 2.5091 15.6468L1.72855 13.8054C1.75401 13.7946 1.77193 13.7861 1.78399 13.7798C1.79619 13.7734 1.79866 13.7713 1.79434 13.7743L2.92663 15.4229ZM1.22755 14.2727C1.19736 14.332 1.17566 14.4078 1.17566 14.493H3.17566C3.17566 14.7442 3.11294 14.9774 3.0101 15.1796L1.22755 14.2727ZM1.17566 14.493C1.17566 14.6749 1.26656 14.7931 1.33021 14.8456L2.60257 13.3025C2.91893 13.5634 3.17566 13.9803 3.17566 14.493H1.17566ZM1.33492 14.8495C1.39355 14.8972 1.44701 14.9072 1.47756 14.9072V12.9072C1.8856 12.9072 2.28337 13.0425 2.59786 13.2986L1.33492 14.8495ZM1.47756 14.9072C1.50702 14.9072 1.55995 14.8979 1.61939 14.8495L0.35645 13.2986C0.671755 13.0419 1.07062 12.9072 1.47756 12.9072V14.9072ZM1.6241 14.8456C1.68775 14.7931 1.77865 14.6749 1.77865 14.493H-0.221348C-0.221348 13.9803 0.03538 13.5634 0.351739 13.3025L1.6241 14.8456ZM1.77865 14.493C1.77865 14.4014 1.75459 14.3257 1.72758 14.2727L-0.0549769 15.1796C-0.154644 14.9837 -0.221348 14.7507 -0.221348 14.493H1.77865ZM0.446025 15.6468C0.32632 15.5961 0.174122 15.5235 0.025008 15.4199L1.16589 13.7773C1.15964 13.7729 1.1606 13.7742 1.17218 13.7803C1.18355 13.7862 1.20107 13.7946 1.22658 13.8054L0.446025 15.6468ZM0.0205571 15.4168C-0.380376 15.1351 -0.752827 14.6591 -0.752827 14.0208H1.24717C1.24717 13.9305 1.21951 13.8581 1.19268 13.8139C1.16832 13.7738 1.15153 13.7672 1.17035 13.7804L0.0205571 15.4168ZM0.247173 15.0208H0V13.0208H0.247173V15.0208ZM1 14.0208C1 13.9979 0.99651 13.9764 0.991167 13.9583C0.985956 13.9406 0.980025 13.9296 0.977314 13.9251C0.972811 13.9177 0.980874 13.9338 1.01819 13.9598L-0.125828 15.6003C-0.57808 15.2849 -1 14.7418 -1 14.0208H1ZM1.01856 13.9601C1.09978 14.0167 1.25786 14.0798 1.47939 14.0802L1.47573 16.0802C0.899643 16.0791 0.331177 15.9193 -0.126192 15.6L1.01856 13.9601ZM1.47573 14.0802C1.69804 14.0798 1.85612 14.0164 1.93543 13.9608L3.08244 15.5992C2.62475 15.9197 2.0547 16.0791 1.47939 16.0802L1.47573 14.0802ZM1.93871 13.9586C1.93925 13.9582 1.9486 13.9518 1.9682 13.9291L3.48087 15.2375C3.37569 15.3591 3.24447 15.4868 3.07916 15.6015L1.93871 13.9586ZM3.71423 14.4402C3.86527 15.4844 4.45236 16.4875 5.42452 17.3311L4.11373 18.8416C2.85414 17.7486 1.9676 16.3358 1.73483 14.7265L3.71423 14.4402ZM5.76342 18.193L5.41989 21.3958L3.43129 21.1825L3.77483 17.9797L5.76342 18.193ZM5.42026 21.3923C5.45869 21.0216 5.20471 20.7588 4.95379 20.6917L4.43755 22.624C3.83757 22.4637 3.35774 21.8919 3.43092 21.1861L5.42026 21.3923ZM4.95306 20.6915L6.18661 21.0201L5.67183 22.9527L4.43828 22.6242L4.95306 20.6915ZM6.18684 21.0202C5.95121 20.9574 5.65198 21.0416 5.49427 21.3243L7.24073 22.2989C6.91875 22.8759 6.25154 23.1073 5.6716 22.9527L6.18684 21.0202ZM5.4951 21.3228L6.67652 19.2143L8.4213 20.1919L7.23989 22.3004L5.4951 21.3228ZM7.89934 18.7665C9.00963 19.1819 10.2775 19.4214 11.631 19.4214V21.4214C10.0435 21.4214 8.5379 21.1408 7.19849 20.6397L7.89934 18.7665ZM11.631 19.4214C12.9013 19.4214 14.0969 19.2113 15.1559 18.8425L15.8137 20.7312C14.5383 21.1755 13.1199 21.4214 11.631 21.4214V19.4214ZM16.3573 19.2982L17.4913 21.3229L15.7464 22.3002L14.6123 20.2755L16.3573 19.2982ZM17.4901 21.3207C17.3334 21.0427 17.0372 20.957 16.8003 21.0202L17.3156 22.9527C16.7344 23.1076 16.0701 22.8748 15.7476 22.3024L17.4901 21.3207ZM16.8005 21.0201L18.0341 20.6915L18.5489 22.6242L17.3153 22.9527L16.8005 21.0201ZM18.0334 20.6917C17.7873 20.7575 17.5239 21.0199 17.5671 21.4016L19.5544 21.1768C19.6355 21.8936 19.1447 22.465 18.5496 22.624L18.0334 20.6917ZM17.5664 21.3955L17.2466 18.4032L19.2353 18.1906L19.5551 21.1829L17.5664 21.3955ZM17.6178 17.5148C18.1892 17.0596 18.6446 16.5477 18.9735 16.0043L20.6845 17.0399C20.2206 17.8064 19.6004 18.4924 18.864 19.079L17.6178 17.5148Z" fill="#515151" mask="url(#path-1-inside-1_1878_115276)"/>
<mask id="path-3-inside-2_1878_115276" fill="white">
<path d="M14.618 9.87849L15.0018 10.0293L15.3304 9.32256L14.9458 9.17104L14.9253 9.163L14.8724 9.14408C14.8265 9.12732 14.7618 9.10401 14.6797 9.07705C14.5146 9.02314 14.2801 8.95172 13.9902 8.88032C13.4114 8.73752 12.6137 8.59689 11.7292 8.59543C10.8448 8.59616 10.0006 8.73753 9.37039 8.87815C8.74256 9.0195 8.32793 9.16009 8.32004 9.163L8.31846 9.16375L7.92676 9.29709L8.21658 10.0198L8.60828 9.88575L8.61144 9.88433C8.65803 9.86903 9.04818 9.74076 9.62388 9.61399C10.2027 9.48649 10.964 9.36482 11.7292 9.36482C12.5166 9.36482 13.2463 9.49451 13.7754 9.6242C14.04 9.68977 14.254 9.75388 14.4001 9.80197C14.4735 9.82601 14.5296 9.84569 14.5675 9.85953L14.6062 9.87412L14.6094 9.87483L14.6173 9.87775V9.87849H14.618Z"/>
</mask>
<path d="M15.0018 10.0293L15.9086 10.4508L15.512 11.3042L14.6361 10.96L15.0018 10.0293ZM15.3304 9.32256L15.6969 8.39215L16.6847 8.78131L16.2372 9.7441L15.3304 9.32256ZM14.9458 9.17104L15.3107 8.23999L15.3123 8.24064L14.9458 9.17104ZM14.9253 9.163L15.2621 8.22144L15.2762 8.22649L15.2902 8.23196L14.9253 9.163ZM14.8724 9.14408L14.5355 10.0857L14.5288 10.0832L14.8724 9.14408ZM14.6797 9.07705L14.9902 8.12648L14.9915 8.12692L14.6797 9.07705ZM13.9902 8.88032L13.751 9.85129L13.7507 9.85121L13.9902 8.88032ZM11.7292 8.59543L11.7284 7.59543L11.7309 7.59544L11.7292 8.59543ZM9.37039 8.87815L9.15075 7.90257L9.15261 7.90215L9.37039 8.87815ZM8.32004 9.163L7.89279 8.25887L7.93256 8.24007L7.97382 8.22485L8.32004 9.163ZM8.31846 9.16375L8.7457 10.0679L8.69441 10.0921L8.6407 10.1104L8.31846 9.16375ZM7.92676 9.29709L6.9986 9.66928L6.60604 8.69032L7.60451 8.35043L7.92676 9.29709ZM8.21658 10.0198L8.54044 10.9659L7.6419 11.2735L7.28842 10.392L8.21658 10.0198ZM8.60828 9.88575L9.01867 10.7977L8.9762 10.8168L8.93214 10.8319L8.60828 9.88575ZM8.61144 9.88433L8.20104 8.97242L8.24924 8.95073L8.29945 8.93424L8.61144 9.88433ZM9.62388 9.61399L9.83899 10.5906L9.83894 10.5906L9.62388 9.61399ZM13.7754 9.6242L14.0135 8.65295L14.016 8.65357L13.7754 9.6242ZM14.4001 9.80197L14.089 10.7523L14.0875 10.7518L14.4001 9.80197ZM14.5675 9.85953L14.9105 8.92016L14.9201 8.92374L14.5675 9.85953ZM14.6062 9.87412L14.3867 10.8497L14.3188 10.8344L14.2536 10.8099L14.6062 9.87412ZM14.6094 9.87483L14.8289 8.89922L14.8935 8.91376L14.9556 8.93667L14.6094 9.87483ZM14.6173 9.87775L14.9635 8.93959L15.6173 9.18086V9.87775H14.6173ZM14.6173 9.87849V10.8785H13.6173V9.87849H14.6173ZM14.9838 8.94776L15.3675 9.09857L14.6361 10.96L14.2523 10.8092L14.9838 8.94776ZM14.095 9.60776L14.4236 8.90102L16.2372 9.7441L15.9086 10.4508L14.095 9.60776ZM14.9638 10.253L14.5792 10.1014L15.3123 8.24064L15.6969 8.39215L14.9638 10.253ZM14.5809 10.1021L14.5604 10.094L15.2902 8.23196L15.3107 8.24L14.5809 10.1021ZM14.5884 10.1046L14.5355 10.0856L15.2092 8.20251L15.2621 8.22144L14.5884 10.1046ZM14.5288 10.0832C14.4886 10.0685 14.4353 10.0493 14.3678 10.0272L14.9915 8.12692C15.0883 8.15869 15.1645 8.18614 15.2159 8.20495L14.5288 10.0832ZM14.3692 10.0276C14.2225 9.97973 14.0122 9.91562 13.751 9.85129L14.2294 7.90935C14.548 7.98782 14.8067 8.06655 14.9902 8.12648L14.3692 10.0276ZM13.7507 9.85121C13.2268 9.72195 12.5113 9.59672 11.7276 9.59543L11.7309 7.59544C12.7162 7.59706 13.596 7.75309 14.2298 7.90943L13.7507 9.85121ZM11.7301 9.59543C10.9445 9.59608 10.178 9.72255 9.58816 9.85415L9.15261 7.90215C9.8232 7.75252 10.745 7.59624 11.7284 7.59543L11.7301 9.59543ZM9.59002 9.85373C8.99861 9.98688 8.62697 10.1157 8.66625 10.1012L7.97382 8.22485C8.0289 8.20452 8.48651 8.05211 9.15075 7.90257L9.59002 9.85373ZM8.74728 10.0671L8.7457 10.0679L7.89121 8.25961L7.89279 8.25887L8.74728 10.0671ZM8.6407 10.1104L8.24901 10.2437L7.60451 8.35043L7.99621 8.21709L8.6407 10.1104ZM8.85491 8.9249L9.14474 9.64764L7.28842 10.392L6.9986 9.66928L8.85491 8.9249ZM7.89271 9.07373L8.28441 8.93965L8.93214 10.8319L8.54044 10.9659L7.89271 9.07373ZM8.19788 8.97384L8.20104 8.97242L9.02183 10.7962L9.01867 10.7977L8.19788 8.97384ZM8.29945 8.93424C8.36414 8.913 8.78878 8.77393 9.40883 8.63739L9.83894 10.5906C9.30758 10.7076 8.95192 10.8251 8.92342 10.8344L8.29945 8.93424ZM9.40878 8.6374C10.0293 8.50072 10.867 8.36482 11.7292 8.36482V10.3648C11.061 10.3648 10.3762 10.4723 9.83899 10.5906L9.40878 8.6374ZM11.7292 8.36482C12.6204 8.36482 13.4333 8.51074 14.0135 8.65295L13.5374 10.5955C13.0593 10.4783 12.4128 10.3648 11.7292 10.3648V8.36482ZM14.016 8.65357C14.3052 8.72526 14.5433 8.79633 14.7127 8.8521L14.0875 10.7518C13.9647 10.7114 13.7747 10.6543 13.5348 10.5948L14.016 8.65357ZM14.7112 8.8516C14.7948 8.87896 14.8615 8.90231 14.9105 8.92021L14.2245 10.7989C14.1977 10.7891 14.1523 10.7731 14.089 10.7523L14.7112 8.8516ZM14.9201 8.92374L14.9588 8.93833L14.2536 10.8099L14.2149 10.7953L14.9201 8.92374ZM14.8257 8.89851L14.8289 8.89922L14.3898 10.8504L14.3867 10.8497L14.8257 8.89851ZM14.9556 8.93667L14.9635 8.93959L14.2711 10.8159L14.2632 10.813L14.9556 8.93667ZM15.6173 9.87775V9.87849H13.6173V9.87775H15.6173ZM14.6173 8.87849H14.618V10.8785H14.6173V8.87849Z" fill="#F4A72A" mask="url(#path-3-inside-2_1878_115276)"/>
<path d="M10.4551 5.66375C10.4551 6.21542 10.9524 6.72949 11.6514 6.72949C12.3507 6.72949 12.8485 6.21514 12.8485 5.66375C12.8485 5.11325 12.3509 4.59876 11.6514 4.59876C10.9522 4.59876 10.4551 5.11296 10.4551 5.66375Z" stroke="#F4A72A"/>
<path d="M15.3027 3.20157C15.3027 3.75324 15.7993 4.2666 16.4983 4.2666C17.1985 4.2666 17.6954 3.75282 17.6954 3.20157C17.6954 2.65092 17.1984 2.13658 16.4983 2.13658C15.7994 2.13658 15.3027 2.6505 15.3027 3.20157Z" stroke="#F4A72A"/>
<path d="M11.1016 0.968234C11.1016 1.18922 11.3092 1.43652 11.6519 1.43652C11.9952 1.43652 12.2022 1.18948 12.2022 0.968234C12.2022 0.746989 11.9952 0.499945 11.6519 0.499945C11.3092 0.499945 11.1016 0.747246 11.1016 0.968234Z" stroke="#F4A72A"/>
</svg>
