<svg width="24" height="19" viewBox="0 0 24 19" fill="none" xmlns="http://www.w3.org/2000/svg">
<g clip-path="url(#clip0_5_20113)">
<path d="M4.2 7.71875H6.6V8.90625H4.2V7.71875ZM21.6 0H2.4C1.068 0 0.012 1.05687 0.012 2.375L0 16.625C0 17.9431 1.068 19 2.4 19H21.6C22.932 19 24 17.9431 24 16.625V2.375C24 1.05687 22.932 0 21.6 0ZM8.4 8.90625C8.4 9.91562 7.62 10.6875 6.6 10.6875H4.2V13.0625H2.4V5.9375H6.6C7.62 5.9375 8.4 6.70937 8.4 7.71875V8.90625ZM12.6 13.0625H10.8V5.9375H12.6V13.0625ZM21.6 13.0625H20.16L17.1 8.90625V13.0625H15.6V5.9375H17.1L20.1 10.0938V5.9375H21.6V13.0625Z" fill="#A8A8AD"/>
</g>
<defs>
<clipPath id="clip0_5_20113">
<rect width="24" height="19" fill="white"/>
</clipPath>
</defs>
</svg>
