<svg width="10" height="15" viewBox="0 0 10 15" fill="none" xmlns="http://www.w3.org/2000/svg">
<path d="M10 11.25C10 9.7215 9.15143 8.373 7.85714 7.56V2.25H8.21429C8.49845 2.25 8.77097 2.13147 8.9719 1.9205C9.17283 1.70952 9.28571 1.42337 9.28571 1.125C9.28571 0.826631 9.17283 0.540483 8.9719 0.329505C8.77097 0.118526 8.49845 4.44604e-09 8.21429 0H1.78571C1.50155 4.44604e-09 1.22903 0.118526 1.0281 0.329505C0.827168 0.540483 0.714286 0.826631 0.714286 1.125C0.714286 1.42337 0.827168 1.70952 1.0281 1.9205C1.22903 2.13147 1.50155 2.25 1.78571 2.25H2.14286V7.56C0.848571 8.373 0 9.7215 0 11.25H4.28571V14.25C4.28571 14.6625 4.60714 15 5 15C5.39286 15 5.71429 14.6625 5.71429 14.25V11.25H10Z" fill="#F4A72A"/>
</svg>
