<svg width="29" height="33" viewBox="0 0 29 33" fill="none" xmlns="http://www.w3.org/2000/svg">
<path d="M5.68124 1.07294C5.1035 0.73837 4.44919 0.563557 3.78384 0.566004C3.11849 0.568452 2.46545 0.748075 1.89012 1.08688C1.31479 1.42569 0.837354 1.9118 0.505634 2.49652C0.173915 3.08124 -0.000449979 3.74406 8.721e-07 4.41859V28.5812C-0.000449979 29.2557 0.173915 29.9185 0.505634 30.5033C0.837354 31.088 1.31479 31.5741 1.89012 31.9129C2.46545 32.2517 3.11849 32.4313 3.78384 32.4338C4.44919 32.4362 5.1035 32.2614 5.68124 31.9268L26.5378 19.8417C27.1186 19.5048 27.6013 19.0183 27.9371 18.4315C28.2728 17.8446 28.4496 17.1783 28.4496 16.4999C28.4496 15.8215 28.2728 15.1551 27.9371 14.5683C27.6013 13.9814 27.1186 13.495 26.5378 13.1581L5.68124 1.07294Z" fill="#F4A72A"/>
</svg>
