<svg width="23" height="23" viewBox="0 0 23 23" fill="none" xmlns="http://www.w3.org/2000/svg">
<mask id="path-1-inside-1_1878_102361" fill="white">
<path d="M0.385986 0V17.7419H22.386V0H0.385986ZM21.6763 17.0323H1.09566V0.709677H21.6763V17.0323Z"/>
</mask>
<path d="M0.385986 0V-2H-1.61401V0H0.385986ZM0.385986 17.7419H-1.61401V19.7419H0.385986V17.7419ZM22.386 17.7419V19.7419H24.386V17.7419H22.386ZM22.386 0H24.386V-2H22.386V0ZM21.6763 17.0323V19.0323H23.6763V17.0323H21.6763ZM1.09566 17.0323H-0.904336V19.0323H1.09566V17.0323ZM1.09566 0.709677V-1.29032H-0.904336V0.709677H1.09566ZM21.6763 0.709677H23.6763V-1.29032H21.6763V0.709677ZM-1.61401 0V17.7419H2.38599V0H-1.61401ZM0.385986 19.7419H22.386V15.7419H0.385986V19.7419ZM24.386 17.7419V0H20.386V17.7419H24.386ZM22.386 -2H0.385986V2H22.386V-2ZM21.6763 15.0323H1.09566V19.0323H21.6763V15.0323ZM3.09566 17.0323V0.709677H-0.904336V17.0323H3.09566ZM1.09566 2.70968H21.6763V-1.29032H1.09566V2.70968ZM19.6763 0.709677V17.0323H23.6763V0.709677H19.6763Z" fill="white" mask="url(#path-1-inside-1_1878_102361)"/>
<mask id="path-3-inside-2_1878_102361" fill="white">
<path d="M14.2248 1.41895H1.80542V9.2254H14.2248V1.41895ZM13.5151 8.51572H2.5151V2.12862H13.5151V8.51572Z"/>
</mask>
<path d="M14.2248 1.41895H16.2248V-0.581055H14.2248V1.41895ZM1.80542 1.41895V-0.581055H-0.19458V1.41895H1.80542ZM1.80542 9.2254H-0.19458V11.2254H1.80542V9.2254ZM14.2248 9.2254V11.2254H16.2248V9.2254H14.2248ZM13.5151 8.51572V10.5157H15.5151V8.51572H13.5151ZM2.5151 8.51572H0.515097V10.5157H2.5151V8.51572ZM2.5151 2.12862V0.128623H0.515097V2.12862H2.5151ZM13.5151 2.12862H15.5151V0.128623H13.5151V2.12862ZM14.2248 -0.581055H1.80542V3.41895H14.2248V-0.581055ZM-0.19458 1.41895V9.2254H3.80542V1.41895H-0.19458ZM1.80542 11.2254H14.2248V7.2254H1.80542V11.2254ZM16.2248 9.2254V1.41895H12.2248V9.2254H16.2248ZM13.5151 6.51572H2.5151V10.5157H13.5151V6.51572ZM4.5151 8.51572V2.12862H0.515097V8.51572H4.5151ZM2.5151 4.12862H13.5151V0.128623H2.5151V4.12862ZM11.5151 2.12862V8.51572H15.5151V2.12862H11.5151Z" fill="white" mask="url(#path-3-inside-2_1878_102361)"/>
<mask id="path-5-inside-3_1878_102361" fill="white">
<path d="M20.9666 1.41895H14.9343V2.12862H20.9666V1.41895Z"/>
</mask>
<path d="M14.9343 1.41895V-0.581055H12.9343V1.41895H14.9343ZM20.9666 1.41895H22.9666V-0.581055H20.9666V1.41895ZM20.9666 2.12862V4.12862H22.9666V2.12862H20.9666ZM14.9343 2.12862H12.9343V4.12862H14.9343V2.12862ZM14.9343 3.41895H20.9666V-0.581055H14.9343V3.41895ZM18.9666 1.41895V2.12862H22.9666V1.41895H18.9666ZM20.9666 0.128623H14.9343V4.12862H20.9666V0.128623ZM16.9343 2.12862V1.41895H12.9343V2.12862H16.9343Z" fill="white" mask="url(#path-5-inside-3_1878_102361)"/>
<mask id="path-7-inside-4_1878_102361" fill="white">
<path d="M20.9666 2.83887H14.9343V3.54854H20.9666V2.83887Z"/>
</mask>
<path d="M14.9343 2.83887V0.838867H12.9343V2.83887H14.9343ZM20.9666 2.83887H22.9666V0.838867H20.9666V2.83887ZM20.9666 3.54854V5.54854H22.9666V3.54854H20.9666ZM14.9343 3.54854H12.9343V5.54854H14.9343V3.54854ZM14.9343 4.83887H20.9666V0.838867H14.9343V4.83887ZM18.9666 2.83887V3.54854H22.9666V2.83887H18.9666ZM20.9666 1.54854H14.9343V5.54854H20.9666V1.54854ZM16.9343 3.54854V2.83887H12.9343V3.54854H16.9343Z" fill="white" mask="url(#path-7-inside-4_1878_102361)"/>
<mask id="path-9-inside-5_1878_102361" fill="white">
<path d="M20.9666 4.25781H14.9343V4.96749H20.9666V4.25781Z"/>
</mask>
<path d="M14.9343 4.25781V2.25781H12.9343V4.25781H14.9343ZM20.9666 4.25781H22.9666V2.25781H20.9666V4.25781ZM20.9666 4.96749V6.96749H22.9666V4.96749H20.9666ZM14.9343 4.96749H12.9343V6.96749H14.9343V4.96749ZM14.9343 6.25781H20.9666V2.25781H14.9343V6.25781ZM18.9666 4.25781V4.96749H22.9666V4.25781H18.9666ZM20.9666 2.96749H14.9343V6.96749H20.9666V2.96749ZM16.9343 4.96749V4.25781H12.9343V4.96749H16.9343Z" fill="white" mask="url(#path-9-inside-5_1878_102361)"/>
<mask id="path-11-inside-6_1878_102361" fill="white">
<path d="M20.9666 5.67773H14.9343V6.38741H20.9666V5.67773Z"/>
</mask>
<path d="M14.9343 5.67773V3.67773H12.9343V5.67773H14.9343ZM20.9666 5.67773H22.9666V3.67773H20.9666V5.67773ZM20.9666 6.38741V8.38741H22.9666V6.38741H20.9666ZM14.9343 6.38741H12.9343V8.38741H14.9343V6.38741ZM14.9343 7.67773H20.9666V3.67773H14.9343V7.67773ZM18.9666 5.67773V6.38741H22.9666V5.67773H18.9666ZM20.9666 4.38741H14.9343V8.38741H20.9666V4.38741ZM16.9343 6.38741V5.67773H12.9343V6.38741H16.9343Z" fill="white" mask="url(#path-11-inside-6_1878_102361)"/>
<mask id="path-13-inside-7_1878_102361" fill="white">
<path d="M20.9666 7.09668H14.9343V7.80636H20.9666V7.09668Z"/>
</mask>
<path d="M14.9343 7.09668V5.09668H12.9343V7.09668H14.9343ZM20.9666 7.09668H22.9666V5.09668H20.9666V7.09668ZM20.9666 7.80636V9.80636H22.9666V7.80636H20.9666ZM14.9343 7.80636H12.9343V9.80636H14.9343V7.80636ZM14.9343 9.09668H20.9666V5.09668H14.9343V9.09668ZM18.9666 7.09668V7.80636H22.9666V7.09668H18.9666ZM20.9666 5.80636H14.9343V9.80636H20.9666V5.80636ZM16.9343 7.80636V7.09668H12.9343V7.80636H16.9343Z" fill="white" mask="url(#path-13-inside-7_1878_102361)"/>
<mask id="path-15-inside-8_1878_102361" fill="white">
<path d="M20.9666 8.5166H14.9343V9.22628H20.9666V8.5166Z"/>
</mask>
<path d="M14.9343 8.5166V6.5166H12.9343V8.5166H14.9343ZM20.9666 8.5166H22.9666V6.5166H20.9666V8.5166ZM20.9666 9.22628V11.2263H22.9666V9.22628H20.9666ZM14.9343 9.22628H12.9343V11.2263H14.9343V9.22628ZM14.9343 10.5166H20.9666V6.5166H14.9343V10.5166ZM18.9666 8.5166V9.22628H22.9666V8.5166H18.9666ZM20.9666 7.22628H14.9343V11.2263H20.9666V7.22628ZM16.9343 9.22628V8.5166H12.9343V9.22628H16.9343Z" fill="white" mask="url(#path-15-inside-8_1878_102361)"/>
<mask id="path-17-inside-9_1878_102361" fill="white">
<path d="M7.83768 9.93555H1.80542V16.3226H7.83768V9.93555ZM7.128 15.613H2.5151V10.6452H7.128V15.613Z"/>
</mask>
<path d="M7.83768 9.93555H9.83768V7.93555H7.83768V9.93555ZM1.80542 9.93555V7.93555H-0.19458V9.93555H1.80542ZM1.80542 16.3226H-0.19458V18.3226H1.80542V16.3226ZM7.83768 16.3226V18.3226H9.83768V16.3226H7.83768ZM7.128 15.613V17.613H9.128V15.613H7.128ZM2.5151 15.613H0.515097V17.613H2.5151V15.613ZM2.5151 10.6452V8.64522H0.515097V10.6452H2.5151ZM7.128 10.6452H9.128V8.64522H7.128V10.6452ZM7.83768 7.93555H1.80542V11.9355H7.83768V7.93555ZM-0.19458 9.93555V16.3226H3.80542V9.93555H-0.19458ZM1.80542 18.3226H7.83768V14.3226H1.80542V18.3226ZM9.83768 16.3226V9.93555H5.83768V16.3226H9.83768ZM7.128 13.613H2.5151V17.613H7.128V13.613ZM4.5151 15.613V10.6452H0.515097V15.613H4.5151ZM2.5151 12.6452H7.128V8.64522H2.5151V12.6452ZM5.128 10.6452V15.613H9.128V10.6452H5.128Z" fill="white" mask="url(#path-17-inside-9_1878_102361)"/>
<mask id="path-19-inside-10_1878_102361" fill="white">
<path d="M8.54736 16.3226H14.2248V9.93555H8.54736V16.3226ZM9.25704 10.6452H13.5151V15.613H9.25704V10.6452Z"/>
</mask>
<path d="M8.54736 16.3226H6.54736V18.3226H8.54736V16.3226ZM14.2248 16.3226V18.3226H16.2248V16.3226H14.2248ZM14.2248 9.93555H16.2248V7.93555H14.2248V9.93555ZM8.54736 9.93555V7.93555H6.54736V9.93555H8.54736ZM9.25704 10.6452V8.64522H7.25704V10.6452H9.25704ZM13.5151 10.6452H15.5151V8.64522H13.5151V10.6452ZM13.5151 15.613V17.613H15.5151V15.613H13.5151ZM9.25704 15.613H7.25704V17.613H9.25704V15.613ZM8.54736 18.3226H14.2248V14.3226H8.54736V18.3226ZM16.2248 16.3226V9.93555H12.2248V16.3226H16.2248ZM14.2248 7.93555H8.54736V11.9355H14.2248V7.93555ZM6.54736 9.93555V16.3226H10.5474V9.93555H6.54736ZM9.25704 12.6452H13.5151V8.64522H9.25704V12.6452ZM11.5151 10.6452V15.613H15.5151V10.6452H11.5151ZM13.5151 13.613H9.25704V17.613H13.5151V13.613ZM11.257 15.613V10.6452H7.25704V15.613H11.257Z" fill="white" mask="url(#path-19-inside-10_1878_102361)"/>
<mask id="path-21-inside-11_1878_102361" fill="white">
<path d="M20.9666 9.93555H14.9343V16.3226H20.9666V9.93555ZM20.2569 15.613H15.644V10.6452H20.2569V15.613Z"/>
</mask>
<path d="M20.9666 9.93555H22.9666V7.93555H20.9666V9.93555ZM14.9343 9.93555V7.93555H12.9343V9.93555H14.9343ZM14.9343 16.3226H12.9343V18.3226H14.9343V16.3226ZM20.9666 16.3226V18.3226H22.9666V16.3226H20.9666ZM20.2569 15.613V17.613H22.2569V15.613H20.2569ZM15.644 15.613H13.644V17.613H15.644V15.613ZM15.644 10.6452V8.64522H13.644V10.6452H15.644ZM20.2569 10.6452H22.2569V8.64522H20.2569V10.6452ZM20.9666 7.93555H14.9343V11.9355H20.9666V7.93555ZM12.9343 9.93555V16.3226H16.9343V9.93555H12.9343ZM14.9343 18.3226H20.9666V14.3226H14.9343V18.3226ZM22.9666 16.3226V9.93555H18.9666V16.3226H22.9666ZM20.2569 13.613H15.644V17.613H20.2569V13.613ZM17.644 15.613V10.6452H13.644V15.613H17.644ZM15.644 12.6452H20.2569V8.64522H15.644V12.6452ZM18.2569 10.6452V15.613H22.2569V10.6452H18.2569Z" fill="white" mask="url(#path-21-inside-11_1878_102361)"/>
<mask id="path-23-inside-12_1878_102361" fill="white">
<path d="M7.83763 7.80661C9.20731 7.80661 10.3215 6.69242 10.3215 5.32274C10.3215 3.95306 9.20731 2.83887 7.83763 2.83887C6.46795 2.83887 5.35376 3.95306 5.35376 5.32274C5.35376 6.69242 6.46795 7.80661 7.83763 7.80661ZM7.83763 3.54854C8.81592 3.54854 9.61182 4.34445 9.61182 5.32274C9.61182 6.30103 8.81592 7.09693 7.83763 7.09693C6.85934 7.09693 6.06344 6.30103 6.06344 5.32274C6.06344 4.34445 6.85934 3.54854 7.83763 3.54854Z"/>
</mask>
<path d="M7.83763 9.80661C10.3119 9.80661 12.3215 7.79699 12.3215 5.32274H8.3215C8.3215 5.58785 8.10274 5.80661 7.83763 5.80661V9.80661ZM12.3215 5.32274C12.3215 2.84849 10.3119 0.838867 7.83763 0.838867V4.83887C8.10274 4.83887 8.3215 5.05763 8.3215 5.32274H12.3215ZM7.83763 0.838867C5.36338 0.838867 3.35376 2.84849 3.35376 5.32274H7.35376C7.35376 5.05763 7.57252 4.83887 7.83763 4.83887V0.838867ZM3.35376 5.32274C3.35376 7.79699 5.36338 9.80661 7.83763 9.80661V5.80661C7.57252 5.80661 7.35376 5.58785 7.35376 5.32274H3.35376ZM7.83763 5.54854C7.71135 5.54854 7.61182 5.44902 7.61182 5.32274H11.6118C11.6118 3.23988 9.92049 1.54854 7.83763 1.54854V5.54854ZM7.61182 5.32274C7.61182 5.19646 7.71135 5.09693 7.83763 5.09693V9.09693C9.92049 9.09693 11.6118 7.4056 11.6118 5.32274H7.61182ZM7.83763 5.09693C7.96391 5.09693 8.06344 5.19646 8.06344 5.32274H4.06344C4.06344 7.4056 5.75477 9.09693 7.83763 9.09693V5.09693ZM8.06344 5.32274C8.06344 5.44902 7.96391 5.54854 7.83763 5.54854V1.54854C5.75477 1.54854 4.06344 3.23988 4.06344 5.32274H8.06344Z" fill="white" mask="url(#path-23-inside-12_1878_102361)"/>
<mask id="path-25-inside-13_1878_102361" fill="white">
<path d="M20.6118 19.4512H3.83995L0.735107 21.2254L3.83995 22.9996H20.6118C21.59 22.9996 22.3859 22.2037 22.3859 21.2254C22.3859 20.2471 21.59 19.4512 20.6118 19.4512ZM3.93433 22.2359L2.16582 21.2254L3.93433 20.2148V22.2359ZM17.4182 22.2899H4.64401V20.1608H17.4182V22.2899ZM18.8376 22.2899H18.1279V20.1608H18.8376V22.2899ZM20.6118 22.2899H19.5472V20.1608H20.6118C21.1987 20.1608 21.6763 20.6385 21.6763 21.2254C21.6763 21.8123 21.1987 22.2899 20.6118 22.2899Z"/>
</mask>
<path d="M3.83995 19.4512V17.4512H3.30882L2.84767 17.7147L3.83995 19.4512ZM0.735107 21.2254L-0.257171 19.4889L-3.29602 21.2254L-0.257171 22.9619L0.735107 21.2254ZM3.83995 22.9996L2.84767 24.736L3.30882 24.9996H3.83995V22.9996ZM3.93433 22.2359L2.94206 23.9724L5.93433 25.6823V22.2359H3.93433ZM2.16582 21.2254L1.17354 19.4889L-1.86531 21.2254L1.17354 22.9619L2.16582 21.2254ZM3.93433 20.2148H5.93433V16.7684L2.94206 18.4783L3.93433 20.2148ZM17.4182 22.2899V24.2899H19.4182V22.2899H17.4182ZM4.64401 22.2899H2.64401V24.2899H4.64401V22.2899ZM4.64401 20.1608V18.1608H2.64401V20.1608H4.64401ZM17.4182 20.1608H19.4182V18.1608H17.4182V20.1608ZM18.8376 22.2899V24.2899H20.8376V22.2899H18.8376ZM18.1279 22.2899H16.1279V24.2899H18.1279V22.2899ZM18.1279 20.1608V18.1608H16.1279V20.1608H18.1279ZM18.8376 20.1608H20.8376V18.1608H18.8376V20.1608ZM19.5472 22.2899H17.5472V24.2899H19.5472V22.2899ZM19.5472 20.1608V18.1608H17.5472V20.1608H19.5472ZM20.6118 17.4512H3.83995V21.4512H20.6118V17.4512ZM2.84767 17.7147L-0.257171 19.4889L1.72739 22.9619L4.83222 21.1877L2.84767 17.7147ZM-0.257171 22.9619L2.84767 24.736L4.83222 21.2631L1.72739 19.4889L-0.257171 22.9619ZM3.83995 24.9996H20.6118V20.9996H3.83995V24.9996ZM20.6118 24.9996C22.6946 24.9996 24.3859 23.3082 24.3859 21.2254H20.3859C20.3859 21.0991 20.4855 20.9996 20.6118 20.9996V24.9996ZM24.3859 21.2254C24.3859 19.1425 22.6946 17.4512 20.6118 17.4512V21.4512C20.4855 21.4512 20.3859 21.3516 20.3859 21.2254H24.3859ZM4.92661 20.4995L3.15809 19.4889L1.17354 22.9619L2.94206 23.9724L4.92661 20.4995ZM3.15809 22.9619L4.92661 21.9513L2.94206 18.4783L1.17354 19.4889L3.15809 22.9619ZM1.93433 20.2148V22.2359H5.93433V20.2148H1.93433ZM17.4182 20.2899H4.64401V24.2899H17.4182V20.2899ZM6.64401 22.2899V20.1608H2.64401V22.2899H6.64401ZM4.64401 22.1608H17.4182V18.1608H4.64401V22.1608ZM15.4182 20.1608V22.2899H19.4182V20.1608H15.4182ZM18.8376 20.2899H18.1279V24.2899H18.8376V20.2899ZM20.1279 22.2899V20.1608H16.1279V22.2899H20.1279ZM18.1279 22.1608H18.8376V18.1608H18.1279V22.1608ZM16.8376 20.1608V22.2899H20.8376V20.1608H16.8376ZM20.6118 20.2899H19.5472V24.2899H20.6118V20.2899ZM21.5472 22.2899V20.1608H17.5472V22.2899H21.5472ZM19.5472 22.1608H20.6118V18.1608H19.5472V22.1608ZM20.6118 22.1608C20.0941 22.1608 19.6763 21.743 19.6763 21.2254H23.6763C23.6763 19.5339 22.3032 18.1608 20.6118 18.1608V22.1608ZM19.6763 21.2254C19.6763 20.7077 20.0941 20.2899 20.6118 20.2899V24.2899C22.3032 24.2899 23.6763 22.9168 23.6763 21.2254H19.6763Z" fill="white" mask="url(#path-25-inside-13_1878_102361)"/>
</svg>
