<svg width="23" height="23" viewBox="0 0 23 23" fill="current" xmlns="http://www.w3.org/2000/svg">
<g clip-path="url(#clip0_1963_125215)">
<path fill-rule="evenodd" clip-rule="evenodd" d="M1.64286 0H19.7143L21.3571 1.64286V10.35C20.8401 10.0972 20.2851 9.93068 19.7143 9.85714V1.64286H11.5V19.5171L9.66 21.3571H1.64286L0 19.7143V1.64286L1.64286 0ZM1.64286 19.7143H9.85714V1.64286H1.64286V19.7143ZM18.6941 11.5033C18.0051 11.5288 17.3332 11.7252 16.7391 12.075H16.6898C16.2144 12.3619 15.8018 12.7419 15.4769 13.1921C15.1519 13.6423 14.9212 14.1536 14.7986 14.6951C14.676 15.2367 14.6641 15.7974 14.7635 16.3437C14.8629 16.89 15.0716 17.4106 15.3771 17.8743L11.5 21.735L12.6664 22.9014L16.5271 19.0243C17.0611 19.3857 17.6771 19.6124 18.3179 19.6814C18.9503 19.7582 19.5918 19.6851 20.1907 19.4679C20.8129 19.2585 21.3761 18.9037 21.8336 18.4329C22.2772 17.9687 22.6038 17.4055 22.7864 16.79C22.9639 16.1765 23.0032 15.5312 22.9014 14.9007C22.7873 14.2672 22.5275 13.6688 22.1426 13.1528C21.7578 12.6368 21.2583 12.2172 20.6836 11.9271C20.0657 11.6233 19.3821 11.4776 18.6941 11.5033ZM19.0884 18.0616C18.522 18.1177 17.9537 17.976 17.48 17.6607C17.0717 17.3851 16.7522 16.9971 16.56 16.5436C16.3777 16.0959 16.3319 15.6043 16.4286 15.1307C16.5213 14.651 16.7555 14.2101 17.101 13.8646C17.4465 13.5191 17.8874 13.2849 18.3671 13.1921C18.8407 13.0955 19.3324 13.1412 19.78 13.3236C20.2334 13.5158 20.6211 13.8345 20.8971 14.2436C21.1328 14.5975 21.2729 15.0064 21.3038 15.4304C21.3346 15.8545 21.2553 16.2793 21.0734 16.6637C20.8915 17.048 20.6132 17.3787 20.2657 17.6237C19.9181 17.8686 19.5115 18.0195 19.0884 18.0616Z" fill="current" fill-opacity="1"/>
</g>
<defs>
<clipPath id="clip0_1963_125215">
<rect width="23" height="23" fill="white"/>
</clipPath>
</defs>
</svg>
