<svg width="20" height="20" viewBox="0 0 20 20" fill="none" xmlns="http://www.w3.org/2000/svg">
<g clip-path="url(#clip0_491_83590)">
<path d="M4.17 2.51475V3.63748H3.33333C2.44928 3.63748 1.60143 4.02059 0.976311 4.70254C0.35119 5.38449 0 6.30942 0 7.27384V13.6375C0 14.3608 0.263392 15.0545 0.732233 15.566C1.20107 16.0774 1.83696 16.3647 2.5 16.3647H4.16667V17.2738C4.16667 17.9972 4.43006 18.6909 4.8989 19.2023C5.36774 19.7138 6.00363 20.0011 6.66667 20.0011H13.3333C13.9964 20.0011 14.6323 19.7138 15.1011 19.2023C15.5699 18.6909 15.8333 17.9972 15.8333 17.2738V16.3647H17.5C18.163 16.3647 18.7989 16.0774 19.2678 15.566C19.7366 15.0545 20 14.3608 20 13.6375V7.27384C20 6.30942 19.6488 5.38449 19.0237 4.70254C18.3986 4.02059 17.5507 3.63748 16.6667 3.63748H15.8333V2.50293C15.8333 2.17432 15.7739 1.84893 15.6586 1.54538C15.5432 1.24183 15.3741 0.966072 15.1609 0.733878C14.9478 0.501684 14.6948 0.317612 14.4163 0.192189C14.1379 0.066766 13.8396 0.00245435 13.5383 0.00293233L6.45833 0.0147505C5.85112 0.015714 5.26908 0.279531 4.84003 0.748268C4.41098 1.217 4.17 1.85234 4.17 2.51475ZM15.8333 15.0011V12.7284C15.8333 12.0051 15.5699 11.3114 15.1011 10.7999C14.6323 10.2885 13.9964 10.0011 13.3333 10.0011H6.66667C6.00363 10.0011 5.36774 10.2885 4.8989 10.7999C4.43006 11.3114 4.16667 12.0051 4.16667 12.7284V15.0011H2.5C2.16848 15.0011 1.85054 14.8574 1.61612 14.6017C1.3817 14.346 1.25 13.9991 1.25 13.6375V7.27384C1.25 6.67108 1.46949 6.093 1.86019 5.66678C2.2509 5.24056 2.7808 5.00111 3.33333 5.00111H16.6667C17.2192 5.00111 17.7491 5.24056 18.1398 5.66678C18.5305 6.093 18.75 6.67108 18.75 7.27384V13.6375C18.75 13.9991 18.6183 14.346 18.3839 14.6017C18.1495 14.8574 17.8315 15.0011 17.5 15.0011H15.8333ZM14.5833 2.50293V3.63748H5.42V2.51475C5.42 1.88748 5.885 1.3793 6.46 1.37839L13.54 1.36657C13.6769 1.36633 13.8126 1.39555 13.9391 1.45255C14.0657 1.50955 14.1807 1.59321 14.2776 1.69876C14.3746 1.8043 14.4514 1.92966 14.5039 2.06764C14.5563 2.20563 14.5833 2.35355 14.5833 2.50293ZM6.66667 11.3647H13.3333C13.6649 11.3647 13.9828 11.5084 14.2172 11.7641C14.4516 12.0199 14.5833 12.3667 14.5833 12.7284V17.2738C14.5833 17.6355 14.4516 17.9823 14.2172 18.2381C13.9828 18.4938 13.6649 18.6375 13.3333 18.6375H6.66667C6.33515 18.6375 6.0172 18.4938 5.78278 18.2381C5.54836 17.9823 5.41667 17.6355 5.41667 17.2738V12.7284C5.41667 12.3667 5.54836 12.0199 5.78278 11.7641C6.0172 11.5084 6.33515 11.3647 6.66667 11.3647Z" fill="#515151"/>
</g>
<defs>
<clipPath id="clip0_491_83590">
<rect width="20" height="20" fill="white"/>
</clipPath>
</defs>
</svg>
