<svg width="33" height="33" viewBox="0 0 33 33" fill="none" xmlns="http://www.w3.org/2000/svg">
<path d="M16.5 0C7.30714 0 0 7.30714 0 16.5C0 19.0929 0.471429 21.45 1.41429 23.3357C1.41429 23.3357 2.12143 24.5143 3.3 24.2786C4.95 24.0429 4.71429 22.8643 4.71429 22.3929C3.77143 20.7429 3.3 18.6214 3.3 16.5C3.3 9.19286 9.19286 3.3 16.5 3.3C23.8071 3.3 29.7 9.19286 29.7 16.5C29.7 23.8071 23.8071 29.7 16.5 29.7C14.3786 29.7 12.2571 29.2286 10.3714 28.2857C10.1357 28.05 8.72143 28.05 8.25 28.9929C7.77857 29.9357 8.72143 31.1143 8.72143 31.1143C11.0786 32.2929 13.6714 33 16.5 33C25.6929 33 33 25.6929 33 16.5C33 7.30714 25.6929 0 16.5 0Z" fill="#515151"/>
<path d="M18.8571 20.0358C21.6856 19.3287 23.5713 16.9715 23.5713 13.9073C23.5713 10.3715 20.7428 7.54297 17.2071 7.54297C13.6713 7.54297 10.8428 10.3715 10.8428 13.9073H13.1999C13.1999 11.7858 14.8499 9.90011 17.2071 9.90011C19.3285 9.90011 21.2142 11.5501 21.2142 13.9073C21.2142 16.0287 19.5642 17.9144 17.2071 17.9144C16.7356 17.9144 16.0285 17.9144 15.5571 17.9144V21.9215H18.8571V20.0358Z" fill="#F4A72A"/>
<path d="M15.5571 23.0996H18.8571V25.6925H15.5571V23.0996Z" fill="#F4A72A"/>
</svg>
