<svg width="29" height="28" viewBox="0 0 29 28" fill="none" xmlns="http://www.w3.org/2000/svg">
<path d="M8.95898 9.00439H10.4473L12.6387 15.2681L14.8301 9.00439H16.3184L13.2363 17.5356H12.041L8.95898 9.00439ZM8.15625 9.00439H9.63867L9.9082 15.1099V17.5356H8.15625V9.00439ZM15.6387 9.00439H17.127V17.5356H15.3691V15.1099L15.6387 9.00439Z" fill="#F4A72A"/>
<path d="M23.3277 19.4969C23.3984 19.7823 23.3534 20.0859 23.2025 20.341C23.0516 20.596 22.8071 20.7816 22.5229 20.857L17.9754 22.0622C17.6912 22.1374 17.3905 22.0963 17.1395 21.9477C16.8884 21.7992 16.7076 21.5555 16.6368 21.2701L15.5042 16.704C15.4391 16.4205 15.4874 16.1211 15.6388 15.8702C15.7902 15.6192 16.0325 15.4369 16.3135 15.3624C16.5946 15.2879 16.8919 15.3273 17.1414 15.472C17.3909 15.6166 17.5727 15.8551 17.6476 16.1359L18.1357 18.1039L19.0384 16.5784C21.0577 13.1657 19.9432 8.67261 16.5844 6.68516C13.2255 4.69772 8.75075 5.88359 6.73142 9.29633C4.71209 12.7091 5.8266 17.2021 9.18546 19.1896C9.43653 19.3381 9.61736 19.5819 9.68817 19.8674C9.75897 20.1528 9.71395 20.4565 9.563 20.7116C9.41205 20.9667 9.16755 21.1524 8.88327 21.2277C8.599 21.303 8.29824 21.2619 8.04716 21.1133C3.64316 18.5075 2.19037 12.6507 4.83804 8.17601C7.48571 3.70136 13.3186 2.15555 17.7226 4.76141C22.1266 7.36727 23.5794 13.2241 20.9318 17.6987L20.0291 19.2243L21.9891 18.7048C22.2733 18.6296 22.574 18.6707 22.825 18.8192C23.0761 18.9678 23.2569 19.2115 23.3277 19.4969Z" fill="#515151"/>
</svg>
