<svg width="18" height="18" viewBox="0 0 18 18" fill="none" xmlns="http://www.w3.org/2000/svg">
<path d="M15.4688 4.51143C15.6713 4.51143 15.8558 4.5823 16.001 4.70043C16.8667 5.43023 17.4919 6.4043 17.795 7.49523C18.0982 8.58616 18.065 9.74317 17.6999 10.8149C17.3347 11.8867 16.6547 12.8234 15.7486 13.5024C14.8425 14.1814 13.7526 14.5711 12.6215 14.6207L12.3785 14.6252H7.3801L8.7526 15.9977C8.89533 16.1407 8.982 16.3302 8.99686 16.5316C9.01173 16.7331 8.9538 16.9333 8.8336 17.0957L8.7526 17.1902C8.60967 17.3334 8.42005 17.4204 8.2183 17.4355C8.01655 17.4506 7.81609 17.3927 7.65347 17.2723L7.55897 17.1902L4.74647 14.3777C4.60375 14.2347 4.51707 14.0452 4.50221 13.8437C4.48735 13.6422 4.54528 13.4421 4.66547 13.2797L4.74647 13.1852L7.55897 10.3727C7.70972 10.2231 7.91133 10.1359 8.12357 10.1284C8.3358 10.1209 8.54305 10.1938 8.70395 10.3324C8.86484 10.471 8.96756 10.6651 8.99159 10.8761C9.01562 11.0871 8.95921 11.2994 8.8336 11.4707L8.7526 11.5652L7.3801 12.9377H12.3773C13.3843 12.9378 14.353 12.552 15.0843 11.8599C15.8156 11.1677 16.254 10.2216 16.3092 9.21618L16.3148 9.00018C16.3148 7.78405 15.7636 6.69618 14.8973 5.97393C14.7731 5.85875 14.6864 5.70884 14.6486 5.54371C14.6107 5.37857 14.6234 5.20587 14.6851 5.04808C14.7468 4.89028 14.8545 4.7547 14.9943 4.65899C15.1341 4.56327 15.2994 4.51186 15.4688 4.51143ZM9.2476 0.810177C9.39053 0.666988 9.58015 0.579921 9.7819 0.564847C9.98365 0.549772 10.1841 0.607693 10.3467 0.728052L10.4412 0.810177L13.2537 3.62268L13.3347 3.71718C13.4409 3.86041 13.4989 4.03358 13.5005 4.21184C13.5021 4.3901 13.4472 4.56429 13.3437 4.70943L13.2537 4.81518L10.4412 7.62768L10.3467 7.7098C10.2033 7.81602 10.0298 7.87401 9.85132 7.87543C9.67282 7.87684 9.49847 7.82161 9.35335 7.71768L9.2476 7.62768L9.1666 7.53318C9.06047 7.38994 9.00243 7.21677 9.00082 7.03851C8.9992 6.86025 9.05409 6.68606 9.1576 6.54093L9.2476 6.43518L10.6201 5.06268H5.6251C4.61796 5.06231 3.64896 5.44789 2.9174 6.1401C2.18584 6.83232 1.74735 7.77855 1.6921 8.78418L1.68535 9.00018C1.68535 10.2186 2.23885 11.3076 3.10847 12.0298C3.26231 12.1832 3.35103 12.3901 3.35614 12.6073C3.36126 12.8246 3.28238 13.0354 3.13593 13.1959C2.98948 13.3564 2.78676 13.4542 2.56999 13.469C2.35321 13.4838 2.13909 13.4143 1.97222 13.2752C1.11406 12.5417 0.496452 11.5669 0.199729 10.4777C-0.0969948 9.38848 -0.0591065 8.23517 0.308466 7.16777C0.676039 6.10036 1.35629 5.16825 2.26075 4.49267C3.1652 3.81708 4.25202 3.42927 5.37985 3.37968L5.62172 3.37518H10.6178L9.2476 2.00268L9.1666 1.90818C9.0464 1.74578 8.98847 1.54564 9.00333 1.34415C9.0182 1.14265 9.10487 0.95318 9.2476 0.810177Z" fill="#515151"/>
</svg>
