<svg width="20" height="22" viewBox="0 0 20 22" fill="none" xmlns="http://www.w3.org/2000/svg">
<path d="M7.34369 2.85H6.88889H2.22222C1.78275 2.85 1.42358 2.9974 1.1095 3.30765C0.796361 3.61837 0.65 3.97088 0.65 4.4V19.8C0.65 20.2292 0.796419 20.5818 1.10969 20.8925C1.42372 21.2027 1.78284 21.35 2.22222 21.35H17.7778C18.2173 21.35 18.5764 21.2026 18.8905 20.8923C19.2036 20.5816 19.35 20.2291 19.35 19.8V4.4C19.35 3.97089 19.2037 3.61839 18.8905 3.30768C18.5764 2.99741 18.2173 2.85 17.7778 2.85H13.1111H12.6563L12.5005 2.42274C12.3041 1.88438 11.9819 1.46014 11.5258 1.13409L7.34369 2.85ZM7.34369 2.85L7.49953 2.42274M7.34369 2.85L7.49953 2.42274M7.49953 2.42274C7.69586 1.88449 8.01835 1.46023 8.47535 1.13409L8.47568 1.13386M7.49953 2.42274L8.47568 1.13386M8.47568 1.13386C8.92818 0.810516 9.42973 0.65 10 0.65M8.47568 1.13386L10 0.65M10 0.65C10.5702 0.65 11.0723 0.810507 11.5257 1.13403L10 0.65ZM10.4611 12.265V13.7928L11.5619 12.7333L12.5538 11.7786C12.647 11.6961 12.7455 11.6591 12.884 11.6629C13.0362 11.6678 13.1306 11.714 13.2094 11.7919C13.2784 11.8602 13.3222 11.9451 13.3222 12.1C13.3222 12.2549 13.2784 12.3398 13.2094 12.4081L10.3205 15.2681C10.251 15.3369 10.162 15.3825 10 15.3825C9.83797 15.3825 9.749 15.3369 9.67953 15.2681L6.79064 12.4081C6.72165 12.3398 6.67778 12.2549 6.67778 12.1C6.67778 11.9451 6.72165 11.8602 6.79064 11.7919L6.33333 11.33L6.79064 11.7919C6.86938 11.714 6.96382 11.6678 7.11603 11.6629C7.25453 11.6591 7.353 11.6961 7.44622 11.7786L8.43814 12.7333L9.53889 13.7928V12.265V8.8C9.53889 8.65444 9.58134 8.56162 9.66619 8.47762C9.75018 8.39447 9.84649 8.35 10 8.35C10.153 8.35 10.2501 8.39424 10.3349 8.47762C10.4188 8.56124 10.4611 8.65418 10.4611 8.8V12.265ZM11.0562 1.69735L11.054 1.6952C10.7635 1.40893 10.3952 1.275 10 1.275C9.60485 1.275 9.23624 1.40897 8.94603 1.69628L9.40333 2.1582L8.94603 1.69628C8.65525 1.98415 8.51667 2.35227 8.51667 2.75C8.51667 3.12339 8.63885 3.47094 8.89525 3.75H2.22222H1.57222V4.4V19.8V20.45H2.22222H17.7778H18.4278V19.8V4.4V3.75H17.7778H11.1057C11.3618 3.47061 11.4833 3.12298 11.4833 2.75C11.4833 2.35323 11.3458 1.98544 11.0562 1.69735Z" stroke="#515151" stroke-width="1.3"/>
</svg>
