<svg width="97" height="112" viewBox="0 0 97 112" fill="none" xmlns="http://www.w3.org/2000/svg">
<path d="M48.0632 111.229L0.0351562 83.4269V27.8223L48.0632 0.019722L96.0913 27.8223V83.4269L48.0632 111.229ZM48.0632 0.0402374L0.068461 27.8235V83.3894L48.0632 111.173L96.0579 83.3894V27.8235L48.0632 0.0402374Z" fill="white"/>
<path d="M48.0612 111.173L0.0664062 83.3895V27.8236L48.0612 0.0403214L96.0559 27.8236V83.3895L48.0612 111.173ZM48.0612 0.0608215L0.0997253 27.8248V83.3521L48.0612 111.116L96.0226 83.3521V27.8248L48.0612 0.0608215Z" fill="white"/>
<path d="M48.063 111.116L0.101562 83.3523V27.8249L48.063 0.0609741L96.0244 27.8249V83.3523L48.063 111.116ZM48.063 0.0809021L0.134882 27.8255V83.3148L48.063 111.059L95.9911 83.3148V27.8255L48.063 0.0809021Z" fill="white"/>
<path d="M48.0609 111.06L0.132812 83.3151V27.8259L48.0609 0.0812836L95.989 27.8259V83.3151L48.0609 111.06ZM48.0609 0.101799L0.166132 27.827V83.2776L48.0609 111.003L95.9557 83.2776V27.827L48.0609 0.101799Z" fill="white"/>
<path d="M48.0628 111.002L0.167969 83.2767V27.8262L48.0628 0.100906L95.9575 27.8262V83.2767L48.0628 111.002ZM48.0628 0.121414L0.201274 27.8273V83.2392L48.0628 110.945L95.9242 83.2392V27.8273L48.0628 0.121414Z" fill="white"/>
<path d="M48.0607 110.945L0.199219 83.2393V27.8275L48.0607 0.121559L95.9222 27.8275V83.2393L48.0607 110.945ZM48.0607 0.141487L0.232538 27.8287V83.2018L48.0607 110.888L95.8889 83.2018V27.8287L48.0607 0.141487Z" fill="white"/>
<path d="M48.0625 110.889L0.234375 83.2021V27.829L48.0625 0.141861L95.8907 27.829V83.2021L48.0625 110.889ZM48.0625 0.162376L0.267694 27.8296V83.1646L48.0625 110.832L95.8574 83.1646V27.8296L48.0625 0.162376Z" fill="white"/>
<path d="M48.0605 110.832L0.265625 83.1647V27.8298L48.0605 0.162521L95.8553 27.8298V83.1647L48.0605 110.832ZM48.0605 0.182434L0.29893 27.8309V83.1275L48.0605 110.775L95.822 83.1275V27.8309L48.0605 0.182434Z" fill="white"/>
<path d="M48.0623 110.775L0.300781 83.1275V27.831L48.0623 0.182518L95.8239 27.831V83.1275L48.0623 110.775ZM48.0623 0.203033L0.3341 27.8322V83.0893L48.0623 110.718L95.7905 83.0893V27.8322L48.0623 0.203033Z" fill="white"/>
<path d="M48.0602 110.718L0.332031 83.0887V27.8316L48.0602 0.202446L95.7885 27.8316V83.0887L48.0602 110.718ZM48.0602 0.222946L0.36535 27.8328V83.0512L48.0602 110.661L95.7551 83.0512V27.8328L48.0602 0.222946Z" fill="white"/>
<path d="M48.0621 110.661L0.367188 83.0513V27.8329L48.0621 0.223091L95.757 27.8329V83.0513L48.0621 110.661ZM48.0621 0.243607L0.400507 27.8335V83.0138L48.0621 110.604L95.7237 83.0138V27.8335L48.0621 0.243607Z" fill="white"/>
<path d="M48.06 110.604L0.398438 83.0139V27.8337L48.06 0.243767L95.7216 27.8337V83.0139L48.06 110.604ZM48.06 0.263695L0.431742 27.8348V82.9766L48.06 110.548L95.6883 82.9766V27.8348L48.06 0.263695Z" fill="white"/>
<path d="M48.0619 110.548L0.433594 82.9767V27.8349L48.0619 0.263763L95.6901 27.8349V82.9767L48.0619 110.548ZM48.0619 0.284264L0.466913 27.8361V82.9391L48.0619 110.491L95.6568 82.9391V27.8361L48.0619 0.284264Z" fill="#FDFDFD"/>
<path d="M48.0598 110.49L0.464844 82.9385V27.8355L48.0598 0.283669L95.6548 27.8355V82.9385L48.0598 110.49ZM48.0598 0.303596L0.498163 27.8367V82.901L48.0598 110.433L95.6214 82.901V27.8367L48.0598 0.303596Z" fill="#FDFDFD"/>
<path d="M48.0616 110.434L0.5 82.9011V27.8368L48.0616 0.303734L95.6233 27.8368V82.9011L48.0616 110.434ZM48.0616 0.324234L0.533319 27.8374V82.8636L48.0616 110.377L95.59 82.8636V27.8374L48.0616 0.324234Z" fill="#FDFDFD"/>
<path d="M48.0596 110.377L0.53125 82.8637V27.8375L48.0596 0.324333L95.5879 27.8375V82.8637L48.0596 110.377ZM48.0596 0.344849L0.564555 27.8386V82.8261L48.0596 110.32L95.5546 82.8261V27.8386L48.0596 0.344849Z" fill="#FCFCFC"/>
<path d="M48.0614 110.32L0.566406 82.8265V27.839L48.0614 0.34523L95.5564 27.839V82.8265L48.0614 110.32ZM48.0614 0.365746L0.599725 27.8402V82.789L48.0614 110.264L95.5231 82.789V27.8402L48.0614 0.365746Z" fill="#FCFCFC"/>
<path d="M48.0633 110.264L0.601562 82.7891V27.8403L48.0633 0.365891L95.525 27.8403V82.7891L48.0633 110.264ZM48.0633 0.385803L0.634882 27.8415V82.7511L48.0633 110.207L95.4916 82.7511V27.8415L48.0633 0.385803Z" fill="#FCFCFC"/>
<path d="M48.0612 110.207L0.632812 82.7513V27.8417L48.0612 0.385956L95.4896 27.8417V82.7513L48.0612 110.207ZM48.0612 0.406471L0.666117 27.8422V82.7137L48.0612 110.15L95.4563 82.7137V27.8422L48.0612 0.406471Z" fill="#FBFBFB"/>
<path d="M48.063 110.149L0.667969 82.7131V27.8416L48.063 0.405823L95.4581 27.8416V82.7131L48.063 110.149ZM48.063 0.426323L0.701288 27.8428V82.6755L48.063 110.093L95.4248 82.6755V27.8428L48.063 0.426323Z" fill="#FBFBFB"/>
<path d="M48.061 110.093L0.699219 82.6756V27.8429L48.061 0.426468L95.4227 27.8429V82.6756L48.061 110.093ZM48.061 0.446396L0.732538 27.8441V82.6384L48.061 110.036L95.3888 82.6384V27.8441L48.061 0.446396Z" fill="#FBFBFB"/>
<path d="M48.0628 110.036L0.734375 82.6385V27.8442L48.0628 0.446541L95.3907 27.8442V82.6385L48.0628 110.036ZM48.0628 0.467056L0.767694 27.8448V82.601L48.0628 109.979L95.3573 82.601V27.8448L48.0628 0.467056Z" fill="#FAFAFA"/>
<path d="M48.0607 109.979L0.765625 82.6013V27.8451L48.0607 0.467377L95.3553 27.8451V82.6013L48.0607 109.979ZM48.0607 0.487289L0.79893 27.8463V82.5637L48.0607 109.923L95.322 82.5637V27.8463L48.0607 0.487289Z" fill="#FAFAFA"/>
<path d="M48.0626 109.922L0.800781 82.5629V27.8455L48.0626 0.486458L95.3238 27.8455V82.5629L48.0626 109.922ZM48.0626 0.506973L0.8341 27.8466V82.5254L48.0626 109.865L95.2905 82.5254V27.8466L48.0626 0.506973Z" fill="#F9F9F9"/>
<path d="M48.0605 109.865L0.832031 82.5255V27.8468L48.0605 0.507118L95.2884 27.8468V82.5255L48.0605 109.865ZM48.0605 0.527634L0.86535 27.848V82.4879L48.0605 109.808L95.2551 82.4879V27.848L48.0605 0.527634Z" fill="#F9F9F9"/>
<path d="M48.0624 109.809L0.867188 82.4883V27.8483L48.0624 0.528015L95.257 27.8483V82.4883L48.0624 109.809ZM48.0624 0.547928L0.900492 27.8489V82.4508L48.0624 109.752L95.2236 82.4508V27.8489L48.0624 0.547928Z" fill="#F8F8F8"/>
<path d="M48.0603 109.752L0.898438 82.4509V27.849L48.0603 0.548027L95.2216 27.849V82.4509L48.0603 109.752ZM48.0603 0.568542L0.931757 27.8502V82.4129L48.0603 109.695L95.1883 82.4129V27.8502L48.0603 0.568542Z" fill="#F8F8F8"/>
<path d="M48.0622 109.695L0.933594 82.413V27.8503L48.0622 0.568687L95.1901 27.8503V82.413L48.0622 109.695ZM48.0622 0.589188L0.966913 27.8515V82.3755L48.0622 109.638L95.1568 82.3755V27.8515L48.0622 0.589188Z" fill="#F7F7F7"/>
<path d="M48.0601 109.638L0.964844 82.3749V27.8509L48.0601 0.588585L95.1547 27.8509V82.3749L48.0601 109.638ZM48.0601 0.608513L0.998163 27.8521V82.3374L48.0601 109.581L95.1214 82.3374V27.8521L48.0601 0.608513Z" fill="#F6F6F6"/>
<path d="M48.0619 109.581L1 82.3374V27.8521L48.0619 0.608597L95.1232 27.8521V82.3374L48.0619 109.581ZM48.0619 0.629112L1.0333 27.8527V82.2999L48.0619 109.524L95.0899 82.2999V27.8527L48.0619 0.629112Z" fill="#F6F6F6"/>
<path d="M48.0599 109.524L1.03125 82.3V27.8529L48.0599 0.629257L95.0879 27.8529V82.3L48.0599 109.524ZM48.0599 0.649757L1.06457 27.8541V82.2628L48.0599 109.467L95.0546 82.2628V27.8541L48.0599 0.649757Z" fill="#F5F5F5"/>
<path d="M48.0617 109.468L1.06641 82.2631V27.8544L48.0617 0.650131L95.0564 27.8544V82.2631L48.0617 109.468ZM48.0617 0.670059L1.09973 27.8556V82.2256L48.0617 109.411L95.0231 82.2256V27.8556L48.0617 0.670059Z" fill="#F5F5F5"/>
<path d="M48.0596 109.411L1.09766 82.2257V27.8558L48.0596 0.670212L95.021 27.8558V82.2257L48.0596 109.411ZM48.0596 0.69072L1.13096 27.8569V82.1881L48.0596 109.354L94.9877 82.1881V27.8569L48.0596 0.69072Z" fill="#F4F4F4"/>
<path d="M48.0615 109.354L1.13281 82.1873V27.856L48.0615 0.689827L94.9895 27.856V82.1873L48.0615 109.354ZM48.0615 0.710342L1.16672 27.8566V82.1498L48.0615 109.296L94.9562 82.1498V27.8566L48.0615 0.710342Z" fill="#F3F3F3"/>
<path d="M48.0627 109.297L1.16797 82.1501V27.857L48.0627 0.710739L94.9575 27.857V82.1501L48.0627 109.297ZM48.0627 0.730667L1.20129 27.8582V82.1126L48.0627 109.24L94.9242 82.1126V27.8582L48.0627 0.730667Z" fill="#F3F3F3"/>
<path d="M48.0607 109.24L1.19922 82.1127V27.8583L48.0607 0.730804L94.9221 27.8583V82.1127L48.0607 109.24ZM48.0607 0.751305L1.23254 27.8595V82.0747L48.0607 109.183L94.8888 82.0747V27.8595L48.0607 0.751305Z" fill="#F2F2F2"/>
<path d="M48.0625 109.184L1.23438 82.0749V27.8596L48.0625 0.751457L94.8906 27.8596V82.0749L48.0625 109.184ZM48.0625 0.771973L1.26768 27.8602V82.0373L48.0625 109.127L94.8573 82.0373V27.8602L48.0625 0.771973Z" fill="#F1F1F1"/>
<path d="M48.0605 109.126L1.26562 82.0367V27.8596L48.0605 0.771301L94.8553 27.8596V82.0367L48.0605 109.126ZM48.0605 0.791229L1.29894 27.8607V81.9991L48.0605 109.069L94.822 81.9991V27.8607L48.0605 0.791229Z" fill="#F0F0F0"/>
<path d="M48.0623 109.069L1.30078 81.9997V27.8614L48.0623 0.791855L94.8238 27.8614V81.9997L48.0623 109.069ZM48.0623 0.812355L1.3341 27.8625V81.9622L48.0623 109.012L94.7905 81.9622V27.8625L48.0623 0.812355Z" fill="#F0F0F0"/>
<path d="M48.0602 109.012L1.33203 81.9615V27.8619L48.0602 0.811691L94.7884 27.8619V81.9615L48.0602 109.012ZM48.0602 0.832207L1.36534 27.863V81.924L48.0602 108.955L94.7551 81.924V27.863L48.0602 0.832207Z" fill="#EFEFEF"/>
<path d="M48.0621 108.955L1.36719 81.9241V27.8632L48.0621 0.832367L94.7569 27.8632V81.9241L48.0621 108.955ZM48.0621 0.85228L1.40051 27.8638V81.8868L48.0621 108.898L94.7236 81.8868V27.8638L48.0621 0.85228Z" fill="white"/>
<path d="M48.06 108.898L1.39844 81.8869V27.8639L48.06 0.852417L94.7215 27.8639V81.8869L48.06 108.898ZM48.06 0.872932L1.43176 27.8651V81.8494L48.06 108.841L94.6882 81.8494V27.8651L48.06 0.872932Z" fill="#EDEDED"/>
<path d="M48.0618 108.842L1.43359 81.8498V27.8655L48.0618 0.873322L94.6901 27.8655V81.8498L48.0618 108.842ZM48.0618 0.893837L1.46691 27.8666V81.8123L48.0618 108.785L94.6567 81.8123V27.8666L48.0618 0.893837Z" fill="#ECECEC"/>
<path d="M48.0598 108.785L1.46484 81.8123V27.8667L48.0598 0.893921L94.6547 27.8667V81.8123L48.0598 108.785ZM48.0598 0.913834L1.49815 27.8679V81.7748L48.0598 108.728L94.6214 81.7748V27.8679L48.0598 0.913834Z" fill="#EBEBEB"/>
<path d="M48.0616 108.729L1.5 81.775V27.868L48.0616 0.913979L94.6232 27.868V81.775L48.0616 108.729ZM48.0616 0.934494L1.53332 27.8686V81.7374L48.0616 108.671L94.5899 81.7374V27.8686L48.0616 0.934494Z" fill="#EAEAEA"/>
<path d="M48.0595 108.671L1.53125 81.7368V27.868L48.0595 0.933899L94.5878 27.868V81.7368L48.0595 108.671ZM48.0595 0.954399L1.56457 27.8692V81.6988L48.0595 108.614L94.5545 81.6988V27.8692L48.0595 0.954399Z" fill="#EAEAEA"/>
<path d="M48.0614 108.614L1.56641 81.6989V27.8693L48.0614 0.954483L94.5564 27.8693V81.6989L48.0614 108.614ZM48.0614 0.974411L1.59973 27.8705V81.6614L48.0614 108.557L94.523 81.6614V27.8705L48.0614 0.974411Z" fill="#E9E9E9"/>
<path d="M48.0632 108.558L1.60156 81.6615V27.8706L48.0632 0.974548L94.5249 27.8706V81.6615L48.0632 108.558ZM48.0632 0.995064L1.63487 27.8718V81.6239L48.0632 108.501L94.4916 81.6239V27.8718L48.0632 0.995064Z" fill="#E8E8E8"/>
<path d="M48.0612 108.501L1.63281 81.6243V27.8721L48.0612 0.995445L94.4895 27.8721V81.6243L48.0612 108.501ZM48.0612 1.01595L1.66613 27.8727V81.5868L48.0612 108.444L94.4562 81.5868V27.8727L48.0612 1.01595Z" fill="#E7E7E7"/>
<path d="M48.063 108.443L1.66797 81.586V27.8719L48.063 1.01513L94.458 27.8719V81.586L48.063 108.443ZM48.063 1.03506L1.70129 27.8731V81.5484L48.063 108.387L94.4247 81.5484V27.8731L48.063 1.03506Z" fill="#E6E6E6"/>
<path d="M48.0609 108.387L1.69922 81.5485V27.8732L48.0609 1.03514L94.4226 27.8732V81.5485L48.0609 108.387ZM48.0609 1.05566L1.73252 27.8743V81.5112L48.0609 108.33L94.3893 81.5112V27.8743L48.0609 1.05566Z" fill="#E5E5E5"/>
<path d="M48.0628 108.33L1.73438 81.5116V27.8747L48.0628 1.05604L94.3912 27.8747V81.5116L48.0628 108.33ZM48.0628 1.07654L1.76769 27.8759V81.4741L48.0628 108.273L94.3578 81.4741V27.8759L48.0628 1.07654Z" fill="#E4E4E4"/>
<path d="M48.0607 108.273L1.76562 81.4742V27.876L48.0607 1.07669L94.3558 27.876V81.4742L48.0607 108.273ZM48.0607 1.09662L1.79894 27.8766V81.4366L48.0607 108.217L94.3225 81.4366V27.8766L48.0607 1.09662Z" fill="#E3E3E3"/>
<path d="M48.0626 108.217L1.80078 81.4368V27.8768L48.0626 1.09676L94.3243 27.8768V81.4368L48.0626 108.217ZM48.0626 1.11726L1.8341 27.8779V81.3992L48.0626 108.16L94.291 81.3992V27.8779L48.0626 1.11726Z" fill="#E2E2E2"/>
<path d="M48.0605 108.159L1.83203 81.3986V27.8773L48.0605 1.11661L94.2889 27.8773V81.3986L48.0605 108.159ZM48.0605 1.13712L1.86534 27.8785V81.3606L48.0605 108.102L94.2556 81.3606V27.8785L48.0605 1.13712Z" fill="#E0E0E0"/>
<path d="M48.0623 108.103L1.86719 81.3607V27.8786L48.0623 1.13727L94.2575 27.8786V81.3607L48.0623 108.103ZM48.0623 1.1572L1.90051 27.8792V81.3232L48.0623 108.046L94.2242 81.3232V27.8792L48.0623 1.1572Z" fill="#DFDFDF"/>
<path d="M48.0603 108.046L1.89844 81.3233V27.8793L48.0603 1.15733L94.2221 27.8793V81.3233L48.0603 108.046ZM48.0603 1.17784L1.93176 27.8805V81.2858L48.0603 107.989L94.1888 81.2858V27.8805L48.0603 1.17784Z" fill="#DEDEDE"/>
<path d="M48.0621 107.989L1.93359 81.2861V27.8808L48.0621 1.17816L94.1906 27.8808V81.2861L48.0621 107.989ZM48.0621 1.19868L1.9669 27.882V81.2486L48.0621 107.932L94.1573 81.2486V27.882L48.0621 1.19868Z" fill="#DDDDDD"/>
<path d="M48.0601 107.933L1.96484 81.2487V27.8821L48.0601 1.19881L94.1552 27.8821V81.2487L48.0601 107.933ZM48.0601 1.21873L1.99816 27.8833V81.2111L48.0601 107.876L94.1219 81.2111V27.8833L48.0601 1.21873Z" fill="#DCDCDC"/>
<path d="M48.0619 107.875L2 81.2103V27.8825L48.0619 1.21791L94.1237 27.8825V81.2103L48.0619 107.875ZM48.0619 1.23843L2.03332 27.8831V81.173L48.0619 107.818L94.0904 81.173V27.8831L48.0619 1.23843Z" fill="#DBDBDB"/>
<path d="M48.0598 107.818L2.03125 81.1732V27.8832L48.0598 1.23857L94.0884 27.8832V81.1732L48.0598 107.818ZM48.0598 1.25909L2.06457 27.8844V81.1356L48.0598 107.761L94.0551 81.1356V27.8844L48.0598 1.25909Z" fill="#DADADA"/>
<path d="M48.0617 107.762L2.06641 81.136V27.8847L48.0617 1.25941L94.0569 27.8847V81.136L48.0617 107.762ZM48.0617 1.27933L2.09971 27.8859V81.0984L48.0617 107.705L94.0236 81.0984V27.8859L48.0617 1.27933Z" fill="#D8D8D8"/>
<path d="M48.0596 107.705L2.09766 81.0985V27.886L48.0596 1.27947L94.0215 27.886V81.0985L48.0596 107.705ZM48.0596 1.29999L2.13098 27.8872V81.061L48.0596 107.648L93.9882 81.061V27.8872L48.0596 1.29999Z" fill="white"/>
<path d="M48.0614 107.648L2.13281 81.0612V27.8873L48.0614 1.30013L93.9901 27.8873V81.0612L48.0614 107.648ZM48.0614 1.32063L2.16613 27.8879V81.0231L48.0614 107.591L93.9567 81.0231V27.8879L48.0614 1.32063Z" fill="white"/>
<path d="M48.0633 107.591L2.16797 81.0225V27.8873L48.0633 1.31997L93.9586 27.8873V81.0225L48.0633 107.591ZM48.0633 1.3399L2.20127 27.8884V80.985L48.0633 107.534L93.9253 80.985V27.8884L48.0633 1.3399Z" fill="#D5D5D5"/>
<path d="M48.0612 107.534L2.19922 80.9851V27.8886L48.0612 1.34005L93.9232 27.8886V80.9851L48.0612 107.534ZM48.0612 1.36057L2.23254 27.8898V80.9476L48.0612 107.477L93.8899 80.9476V27.8898L48.0612 1.36057Z" fill="#D2D2D2"/>
<path d="M48.0631 107.478L2.23438 80.9477V27.8899L48.0631 1.36071L93.8917 27.8899V80.9477L48.0631 107.478ZM48.0631 1.38121L2.26769 27.8911V80.9102L48.0631 107.421L93.8584 80.9102V27.8911L48.0631 1.38121Z" fill="#D2D2D2"/>
<path d="M48.061 107.421L2.26562 80.9106V27.8915L48.061 1.3816L93.8564 27.8915V80.9106L48.061 107.421ZM48.061 1.40154L2.29894 27.8921V80.873L48.061 107.364L93.823 80.873V27.8921L48.061 1.40154Z" fill="#D0D0D0"/>
<path d="M48.0628 107.364L2.30078 80.8731V27.8921L48.0628 1.40162L93.8249 27.8921V80.8731L48.0628 107.364ZM48.0628 1.42213L2.33409 27.8933V80.8355L48.0628 107.307L93.7915 80.8355V27.8933L48.0628 1.42213Z" fill="#CFCFCF"/>
<path d="M48.0608 107.307L2.33203 80.8347V27.8924L48.0608 1.42129L93.7895 27.8924V80.8347L48.0608 107.307ZM48.0608 1.4418L2.36535 27.8936V80.7974L48.0608 107.25L93.7562 80.7974V27.8936L48.0608 1.4418Z" fill="#CECECE"/>
<path d="M48.0626 107.25L2.36719 80.7978V27.894L48.0626 1.44218L93.758 27.894V80.7978L48.0626 107.25ZM48.0626 1.4621L2.40051 27.8946V80.7602L48.0626 107.193L93.7247 80.7602V27.8946L48.0626 1.4621Z" fill="#CCCCCC"/>
<path d="M48.0605 107.193L2.39844 80.7603V27.8947L48.0605 1.46219L93.7226 27.8947V80.7603L48.0605 107.193ZM48.0605 1.48269L2.43176 27.8959V80.7228L48.0605 107.137L93.6893 80.7228V27.8959L48.0605 1.48269Z" fill="#CBCBCB"/>
<path d="M48.0624 107.137L2.43359 80.7229V27.896L48.0624 1.48284L93.6911 27.896V80.7229L48.0624 107.137ZM48.0624 1.50336L2.4669 27.8972V80.6847L48.0624 107.079L93.6578 80.6847V27.8972L48.0624 1.50336Z" fill="#CACACA"/>
<path d="M48.0603 107.079L2.46484 80.6846V27.897L48.0603 1.50322L93.6558 27.897V80.6846L48.0603 107.079ZM48.0603 1.52315L2.49816 27.8982V80.6472L48.0603 107.023L93.6225 80.6472V27.8982L48.0603 1.52315Z" fill="#C7C7C7"/>
<path d="M48.0622 107.022L2.5 80.6469V27.8979L48.0622 1.52284L93.6243 27.8979V80.6469L48.0622 107.022ZM48.0622 1.54334L2.53332 27.8985V80.6094L48.0622 106.966L93.591 80.6094V27.8985L48.0622 1.54334Z" fill="#C7C7C7"/>
<path d="M48.0601 106.966L2.53125 80.6095V27.8986L48.0601 1.54342L93.5889 27.8986V80.6095L48.0601 106.966ZM48.0601 1.56393L2.56455 27.8997V80.5719L48.0601 106.909L93.5556 80.5719V27.8997L48.0601 1.56393Z" fill="#C4C4C4"/>
<path d="M48.0619 106.909L2.56641 80.5723V27.9001L48.0619 1.56432L93.5575 27.9001V80.5723L48.0619 106.909ZM48.0619 1.58424L2.60031 27.9013V80.5348L48.0619 106.852L93.5241 80.5348V27.9013L48.0619 1.58424Z" fill="#C3C3C3"/>
<path d="M48.0632 106.852L2.60156 80.5344V27.9009L48.0632 1.58386L93.5254 27.9009V80.5344L48.0632 106.852ZM48.0632 1.60438L2.63488 27.9021V80.4969L48.0632 106.795L93.4921 80.4969V27.9021L48.0632 1.60438Z" fill="#C0C0C0"/>
<path d="M48.0611 106.795L2.63281 80.4972V27.9024L48.0611 1.60471L93.49 27.9024V80.4972L48.0611 106.795ZM48.0611 1.62463L2.66613 27.903V80.4596L48.0611 106.738L93.4567 80.4596V27.903L48.0611 1.62463Z" fill="#C0C0C0"/>
<path d="M48.063 106.738L2.66797 80.4598V27.9032L48.063 1.62479L93.4585 27.9032V80.4598L48.063 106.738ZM48.063 1.64529L2.70127 27.9043V80.4225L48.063 106.681L93.4252 80.4225V27.9043L48.063 1.64529Z" fill="#BDBDBD"/>
<path d="M48.0609 106.681L2.69922 80.4216V27.9035L48.0609 1.64445L93.4232 27.9035V80.4216L48.0609 106.681ZM48.0609 1.66496L2.73254 27.9047V80.3841L48.0609 106.624L93.3899 80.3841V27.9047L48.0609 1.66496Z" fill="#BBBBBB"/>
<path d="M48.0627 106.624L2.73438 80.3844V27.905L48.0627 1.66528L93.3917 27.905V80.3844L48.0627 106.624ZM48.0627 1.68521L2.76769 27.9062V80.3469L48.0627 106.567L93.3584 80.3469V27.9062L48.0627 1.68521Z" fill="#BBBBBB"/>
<path d="M48.0607 106.567L2.76562 80.347V27.9063L48.0607 1.68536L93.3563 27.9063V80.347L48.0607 106.567ZM48.0607 1.70586L2.79893 27.9069V80.309L48.0607 106.511L93.3224 80.309V27.9069L48.0607 1.70586Z" fill="#B8B8B8"/>
<path d="M48.0625 106.511L2.80078 80.3092V27.907L48.0625 1.70602L93.3243 27.907V80.3092L48.0625 106.511ZM48.0625 1.72653L2.8341 27.9082V80.2716L48.0625 106.454L93.2909 80.2716V27.9082L48.0625 1.72653Z" fill="#B8B8B8"/>
<path d="M48.0605 106.453L2.83203 80.271V27.9076L48.0605 1.72593L93.2889 27.9076V80.271L48.0605 106.453ZM48.0605 1.74585L2.86535 27.9088V80.2335L48.0605 106.396L93.2556 80.2335V27.9088L48.0605 1.74585Z" fill="#B6B6B6"/>
<path d="M48.0623 106.396L2.86719 80.2336V27.9089L48.0623 1.74594L93.2574 27.9089V80.2336L48.0623 106.396ZM48.0623 1.76646L2.90051 27.9095V80.1961L48.0623 106.34L93.2241 80.1961V27.9095L48.0623 1.76646Z" fill="#B3B3B3"/>
<path d="M48.0602 106.34L2.89844 80.1962V27.9096L48.0602 1.7666L93.222 27.9096V80.1962L48.0602 106.34ZM48.0602 1.78712L2.93174 27.9108V80.1586L48.0602 106.283L93.1887 80.1586V27.9108L48.0602 1.78712Z" fill="#B1B1B1"/>
<path d="M48.0621 106.283L2.93359 80.159V27.9111L48.0621 1.78748L93.1905 27.9111V80.159L48.0621 106.283ZM48.0621 1.8074L2.96691 27.9123V80.1215L48.0621 106.226L93.1572 80.1215V27.9123L48.0621 1.8074Z" fill="#B1B1B1"/>
<path d="M48.06 106.227L2.96484 80.1216V27.9124L48.06 1.8075L93.1552 27.9124V80.1216L48.06 106.227ZM48.06 1.82801L2.99816 27.9136V80.084L48.06 106.17L93.1218 80.084V27.9136L48.06 1.82801Z" fill="#AFAFAF"/>
<path d="M48.0618 106.17L3 80.0842V27.9137L48.0618 1.82816L93.1237 27.9137V80.0842L48.0618 106.17ZM48.0618 1.84866L3.0333 27.9143V80.0468L48.0618 106.113L93.0904 80.0468V27.9143L48.0618 1.84866Z" fill="#ACACAC"/>
<path d="M48.0598 106.112L3.03125 80.0462V27.9137L48.0598 1.84806L93.0883 27.9137V80.0462L48.0598 106.112ZM48.0598 1.86799L3.06457 27.9149V80.0087L48.0598 106.056L93.055 80.0087V27.9149L48.0598 1.86799Z" fill="#AAAAAA"/>
<path d="M48.0616 106.056L3.06641 80.0089V27.915L48.0616 1.86813L93.0568 27.915V80.0089L48.0616 106.056ZM48.0616 1.88865L3.09973 27.9162V79.9706L48.0616 105.999L93.0235 79.9706V27.9162L48.0616 1.88865Z" fill="#A9A9A9"/>
<path d="M48.0596 105.999L3.09766 79.9707V27.9163L48.0596 1.88873L93.0215 27.9163V79.9707L48.0596 105.999ZM48.0596 1.90923L3.13098 27.9175V79.9334L48.0596 105.942L92.9881 79.9334V27.9175L48.0596 1.90923Z" fill="#A7A7A7"/>
<path d="M48.0614 105.942L3.13281 79.9338V27.9178L48.0614 1.90962L92.99 27.9178V79.9338L48.0614 105.942ZM48.0614 1.92955L3.16612 27.9184V79.8962L48.0614 105.886L92.9567 79.8962V27.9184L48.0614 1.92955Z" fill="#A6A6A6"/>
<path d="M48.0632 105.885L3.16797 79.8954V27.9176L48.0632 1.92871L92.9585 27.9176V79.8954L48.0632 105.885ZM48.0632 1.94923L3.20129 27.9188V79.8579L48.0632 105.828L92.9252 79.8579V27.9188L48.0632 1.94923Z" fill="#A4A4A4"/>
<path d="M48.0612 105.828L3.19922 79.858V27.9189L48.0612 1.94937L92.9231 27.9189V79.858L48.0612 105.828ZM48.0612 1.96987L3.23254 27.9201V79.8205L48.0612 105.771L92.8898 79.8205V27.9201L48.0612 1.96987Z" fill="#A2A2A2"/>
<path d="M48.063 105.771L3.23438 79.8208V27.9204L48.063 1.97018L92.8916 27.9204V79.8208L48.063 105.771ZM48.063 1.99012L3.26768 27.9216V79.7832L48.063 105.715L92.8583 79.7832V27.9216L48.063 1.99012Z" fill="#A0A0A0"/>
<path d="M48.061 105.715L3.26562 79.7834V27.9217L48.061 1.99026L92.8563 27.9217V79.7834L48.061 105.715ZM48.061 2.01077L3.29894 27.9223V79.7458L48.061 105.658L92.823 79.7458V27.9223L48.061 2.01077Z" fill="#9D9D9D"/>
<path d="M48.0628 105.658L3.30078 79.746V27.9224L48.0628 2.01092L92.8248 27.9224V79.746L48.0628 105.658ZM48.0628 2.03143L3.3341 27.9236V79.7087L48.0628 105.601L92.7915 79.7087V27.9236L48.0628 2.03143Z" fill="#9C9C9C"/>
<path d="M48.0607 105.602L3.33203 79.7088V27.9237L48.0607 2.03152L92.7894 27.9237V79.7088L48.0607 105.602Z" fill="#999999"/>
<path d="M3.36719 27.9243L48.0626 2.05085L92.7579 27.9243V79.6706L48.0626 105.544L3.36719 79.6706V27.9243Z" fill="#989898"/>
<path d="M3.36719 27.9243L48.0626 2.05085L92.7579 27.9243V79.6706L48.0626 105.544L3.36719 79.6706V27.9243Z" fill="#D1D1D1"/>
<path d="M3.64453 28.086L48.0611 2.37427L92.4777 28.086V79.5093L48.0611 105.222L3.64453 79.5093V28.086Z" fill="#D4D4D4"/>
<path d="M3.92578 28.2475L48.063 2.69752L92.2008 28.2475V79.3479L48.063 104.898L3.92578 79.3479V28.2475Z" fill="white"/>
<path d="M4.20312 28.4088L48.0615 3.02059L91.9199 28.4088V79.1865L48.0615 104.575L4.20312 79.1865V28.4088Z" fill="#D9D9D9"/>
<path d="M4.48047 28.5703L48.0601 3.34326L91.6397 28.5703V79.0244L48.0601 104.252L4.48047 79.0244V28.5703Z" fill="#DCDCDC"/>
<path d="M4.76172 28.731L48.0625 3.6657L91.3634 28.731V78.8628L48.0625 103.929L4.76172 78.8628V28.731Z" fill="#DEDEDE"/>
<path d="M5.03906 28.8935L48.0605 3.9893L91.082 28.8935V78.7016L48.0605 103.606L5.03906 78.7016V28.8935Z" fill="#E1E1E1"/>
<path d="M5.32031 29.0547L48.063 4.31173L90.8056 29.0547V78.54L48.063 103.283L5.32031 78.54V29.0547Z" fill="#E3E3E3"/>
<path d="M5.59766 29.2157L48.0615 4.63439L90.5254 29.2157V78.3782L48.0615 102.96L5.59766 78.3782V29.2157Z" fill="#E6E6E6"/>
<path d="M5.875 29.3779L48.0601 4.95782L90.2445 29.3779V78.2175L48.0601 102.638L5.875 78.2175V29.3779Z" fill="#E9E9E9"/>
<path d="M6.15625 29.5385L48.0619 5.28014L89.9676 29.5385V78.0552L48.0619 102.313L6.15625 78.0552V29.5385Z" fill="#EBEBEB"/>
<path d="M6.43359 77.8945V29.7008L48.0605 5.60357L89.6874 29.7008V77.8945L48.0605 101.991L6.43359 77.8945Z" fill="white"/>
<path d="M6.13281 78.0139V29.4683L48.0631 5.19591L89.9933 29.4683V78.0139L48.0631 102.286L6.13281 78.0139Z" fill="white"/>
<path d="M5.82812 78.134V29.2375L48.0617 4.78923L90.2953 29.2375V78.134L48.0617 102.582L5.82812 78.134Z" fill="white"/>
<path d="M5.52344 78.254V29.0059L48.0609 4.38184L90.5979 29.0059V78.254L48.0609 102.878L5.52344 78.254Z" fill="white"/>
<path d="M5.21875 78.3731V28.774L48.0596 3.97417L90.8998 28.774V78.3731L48.0596 103.173L5.21875 78.3731Z" fill="white"/>
<path d="M4.91797 78.493V28.5429L48.0622 3.56728L91.2063 28.5429V78.493L48.0622 103.469L4.91797 78.493Z" fill="white"/>
<path d="M4.61328 78.6128V28.3105L48.0608 3.1596L91.5083 28.3105V78.6128L48.0608 103.764L4.61328 78.6128Z" fill="white"/>
<path d="M4.30859 78.7329V28.0796L48.06 2.75293L91.8109 28.0796V78.7329L48.06 104.06L4.30859 78.7329Z" fill="white"/>
<path d="M4.00781 78.852V27.8477L48.0626 2.34527L92.1168 27.8477V78.852L48.0626 104.354L4.00781 78.852Z" fill="white"/>
<path d="M3.70312 78.9726V27.6166L48.0613 1.93833L92.4188 27.6166V78.9726L48.0613 104.65L3.70312 78.9726Z" fill="white"/>
<path d="M3.39844 79.0917V27.3842L48.0599 1.53068L92.7214 27.3842V79.0917L48.0599 104.945L3.39844 79.0917Z" fill="white"/>
<path d="M3.09766 79.211V27.1523L48.0625 1.12302L93.0273 27.1523V79.211L48.0625 105.24L3.09766 79.211Z" fill="white"/>
<path d="M10.1335 75.7537L48.0618 97.7089L85.9901 75.7537V31.8413L48.0618 9.886L10.1335 31.8413V75.7537ZM48.0618 99.8408L8.29297 76.8196V30.7759L48.0618 7.75347L87.8312 30.7759V76.8196L48.0618 99.8408Z" fill="#219653"/>
<path d="M50.7692 84.5859L48.0625 83.1596L45.3564 84.5859L45.873 81.5645L43.6836 79.4244L46.7094 78.9842L48.0625 76.2347L49.4155 78.9842L52.4414 79.4244L50.2519 81.5645L50.7692 84.5859Z" fill="#F4A72A"/>
<path d="M35.6942 81.4561L33.6397 80.3737L31.5859 81.4561L31.9786 79.1637L30.3164 77.5391L32.6134 77.2051L33.6397 75.119L34.6667 77.2051L36.9631 77.5391L35.3014 79.1637L35.6942 81.4561Z" fill="#F4A72A"/>
<path d="M64.5379 81.4561L62.4835 80.3737L60.4296 81.4561L60.8218 79.1637L59.1602 77.5391L61.4566 77.2051L62.4835 75.119L63.5104 77.2051L65.8068 77.5391L64.1457 79.1637L64.5379 81.4561Z" fill="#F4A72A"/>
<path d="M73.9644 77.2939L72.5546 76.5504L71.1443 77.2939L71.4143 75.7194L70.2734 74.6046L71.8498 74.3757L72.5546 72.9434L73.2595 74.3757L74.8353 74.6046L73.6949 75.7194L73.9644 77.2939Z" fill="#F4A72A"/>
<path d="M24.9767 77.2939L23.5664 76.5504L22.1566 77.2939L22.4261 75.7194L21.2852 74.6046L22.8621 74.3757L23.5664 72.9434L24.2718 74.3757L25.8476 74.6046L24.7073 75.7194L24.9767 77.2939Z" fill="#F4A72A"/>
<mask id="path-131-inside-1_2016_114867" fill="white">
<path d="M60.6915 40.8364C60.6892 40.8326 60.6881 40.8285 60.6858 40.8248C60.6847 40.8229 60.6831 40.8214 60.6817 40.8195C60.5375 40.5911 60.3308 40.4022 60.0824 40.2719L48.7491 34.3328C48.5058 34.2062 48.2315 34.1396 47.9524 34.1396C47.6734 34.1396 47.3991 34.2062 47.1558 34.3328L35.8225 40.2719C35.5723 40.4031 35.3643 40.5938 35.2199 40.8243C35.2192 40.8255 35.218 40.8265 35.2172 40.8278C35.2152 40.8313 35.2144 40.835 35.2124 40.8384C35.0736 41.0639 35.0005 41.319 35 41.5787V53.4203C35.0003 53.6861 35.0765 53.947 35.221 54.1766C35.3655 54.4062 35.573 54.5961 35.8225 54.7271L47.1558 60.6662C47.3883 60.7869 47.6493 60.8525 47.9157 60.8572C47.9262 60.8579 47.9362 60.8603 47.9468 60.8604H47.9525C47.9636 60.8604 47.9741 60.8581 47.9849 60.8574C48.2528 60.8534 48.5154 60.7877 48.7491 60.6662L60.0824 54.7271C60.3318 54.5961 60.5394 54.4061 60.6838 54.1766C60.8283 53.947 60.9045 53.6861 60.9048 53.4203V41.5787C60.9044 41.3183 60.8309 41.0624 60.6915 40.8364ZM47.687 35.2039C47.7681 35.1617 47.8595 35.1396 47.9525 35.1396C48.0455 35.1396 48.1369 35.1617 48.218 35.2039L59.2732 40.9973L54.5787 43.4861L43.1654 37.5733L47.687 35.2039ZM48.0927 46.9247L36.6413 40.9922L42.0654 38.1498L53.4851 44.0659L48.0927 46.9247ZM36.3537 53.856C36.2705 53.8123 36.2013 53.749 36.1531 53.6724C36.1049 53.5959 36.0795 53.5089 36.0794 53.4203V41.8475L47.5526 47.7914L47.4205 59.6556L36.3537 53.856ZM59.5514 53.856L48.5 59.6472L48.6322 47.7914L54.042 44.9234V50.0652C54.042 50.1979 54.0989 50.3252 54.2001 50.419C54.3013 50.5129 54.4386 50.5656 54.5817 50.5656C54.7248 50.5656 54.8621 50.5129 54.9633 50.419C55.0645 50.3252 55.1214 50.1979 55.1214 50.0652V44.3511L59.8254 41.8573V53.4203C59.8253 53.5088 59.8 53.5958 59.7518 53.6723C59.7037 53.7488 59.6346 53.8122 59.5515 53.8558L59.5514 53.856Z"/>
</mask>
<path d="M60.6858 40.8248L58.9522 41.822L58.9654 41.8451L58.9793 41.8678L60.6858 40.8248ZM60.6817 40.8195L58.9906 41.8873L59.0228 41.9382L59.0579 41.9871L60.6817 40.8195ZM60.0824 40.2719L61.0119 38.501L61.0108 38.5004L60.0824 40.2719ZM48.7491 34.3328L49.6774 32.5613L49.6725 32.5587L48.7491 34.3328ZM47.9524 34.1396V32.1396V34.1396ZM47.1558 34.3328L46.2324 32.5587L46.2275 32.5613L47.1558 34.3328ZM35.8225 40.2719L34.8941 38.5004L34.8935 38.5007L35.8225 40.2719ZM35.2199 40.8243L33.5249 39.7627L33.4904 39.8177L33.4596 39.8749L35.2199 40.8243ZM35.2172 40.8278L33.5382 39.7411L33.5107 39.7835L33.4855 39.8272L35.2172 40.8278ZM35.2124 40.8384L36.9159 41.8862L36.922 41.8763L36.9279 41.8664L35.2124 40.8384ZM35 41.5787L33 41.5752V41.5787H35ZM35 53.4203H33L33 53.4224L35 53.4203ZM35.8225 54.7271L34.8926 56.4978L34.8941 56.4986L35.8225 54.7271ZM47.1558 60.6662L46.2275 62.4377L46.2338 62.441L47.1558 60.6662ZM47.9157 60.8572L48.058 58.8622L48.0043 58.8584L47.9506 58.8575L47.9157 60.8572ZM47.9468 60.8604L47.9234 62.8603L47.9351 62.8604H47.9468V60.8604ZM47.9849 60.8574L47.9548 58.8577L47.912 58.8583L47.8692 58.8608L47.9849 60.8574ZM48.7491 60.6662L49.6718 62.4406L49.6774 62.4377L48.7491 60.6662ZM60.0824 54.7271L61.0108 56.4986L61.0124 56.4978L60.0824 54.7271ZM60.9048 53.4203L62.9048 53.4222V53.4203H60.9048ZM60.9048 41.5787H62.9048L62.9048 41.5758L60.9048 41.5787ZM47.687 35.2039L46.7638 33.4297L46.7587 33.4324L47.687 35.2039ZM47.9525 35.1396V37.1396V35.1396ZM48.218 35.2039L49.1464 33.4324L49.1412 33.4297L48.218 35.2039ZM59.2732 40.9973L60.21 42.7643L63.5624 40.987L60.2015 39.2258L59.2732 40.9973ZM54.5787 43.4861L53.6587 45.2619L54.5895 45.7441L55.5156 45.2531L54.5787 43.4861ZM43.1654 37.5733L42.2371 35.8017L38.8371 37.5834L42.2454 39.3491L43.1654 37.5733ZM48.0927 46.9247L47.1727 48.7005L48.1034 49.1827L49.0295 48.6917L48.0927 46.9247ZM36.6413 40.9922L35.713 39.2208L32.3131 41.0024L35.7213 42.7681L36.6413 40.9922ZM42.0654 38.1498L42.9854 36.374L42.0601 35.8946L41.1371 36.3783L42.0654 38.1498ZM53.4851 44.0659L54.4219 45.8329L57.7935 44.0454L54.4051 42.29L53.4851 44.0659ZM36.3537 53.856L35.4242 55.6269L35.4253 55.6275L36.3537 53.856ZM36.0794 53.4203H34.0794L34.0794 53.4224L36.0794 53.4203ZM36.0794 41.8475L36.9994 40.0717L34.0794 38.5589V41.8475H36.0794ZM47.5526 47.7914L49.5525 47.8137L49.5662 46.5822L48.4726 46.0156L47.5526 47.7914ZM47.4205 59.6556L46.4922 61.427L49.3841 62.9425L49.4204 59.6778L47.4205 59.6556ZM59.5514 53.856L60.4797 55.6275L60.7226 55.5002L60.9223 55.3122L59.5514 53.856ZM48.5 59.6472L46.5001 59.6249L46.4628 62.9727L49.4283 61.4187L48.5 59.6472ZM48.6322 47.7914L47.6954 46.0244L46.6456 46.581L46.6324 47.7691L48.6322 47.7914ZM54.042 44.9234H56.042V41.5993L53.1052 43.1563L54.042 44.9234ZM55.1214 44.3511L54.1846 42.584L53.1214 43.1477V44.3511H55.1214ZM59.8254 41.8573H61.8254V38.5333L58.8886 40.0902L59.8254 41.8573ZM59.8254 53.4203L61.8254 53.4218V53.4203H59.8254ZM59.5515 53.8558L58.6208 52.0856L58.3793 52.2126L58.1806 52.3996L59.5515 53.8558ZM62.398 39.7934C62.422 39.8327 62.4421 39.8688 62.4587 39.9001C62.4752 39.9312 62.4885 39.9584 62.4986 39.9798C62.5085 40.0009 62.5162 40.0181 62.5207 40.0284C62.523 40.0337 62.5248 40.0379 62.5259 40.0403C62.5268 40.0426 62.5276 40.0444 62.5274 40.0438C62.5274 40.0438 62.5271 40.0431 62.5268 40.0424C62.5264 40.0416 62.5259 40.0404 62.5253 40.0389C62.524 40.0359 62.5219 40.0312 62.5194 40.0255C62.5145 40.0142 62.5064 39.996 62.4959 39.9739C62.4854 39.9516 62.4716 39.9234 62.4546 39.8913C62.4376 39.859 62.4169 39.822 62.3923 39.7817L58.9793 41.8678C58.9552 41.8284 58.9351 41.7924 58.9186 41.7611C58.9021 41.7299 58.8888 41.7027 58.8787 41.6814C58.8687 41.6602 58.8611 41.643 58.8565 41.6327C58.8542 41.6275 58.8524 41.6233 58.8514 41.6208C58.8504 41.6186 58.8496 41.6167 58.8499 41.6173C58.8499 41.6173 58.8502 41.618 58.8505 41.6187C58.8508 41.6195 58.8513 41.6208 58.852 41.6223C58.8533 41.6252 58.8553 41.6299 58.8578 41.6357C58.8628 41.647 58.8709 41.6651 58.8813 41.6872C58.8918 41.7096 58.9056 41.7377 58.9226 41.7699C58.9397 41.8021 58.9603 41.8391 58.985 41.8794L62.398 39.7934ZM62.4194 39.8275C62.3692 39.7401 62.3209 39.6715 62.286 39.6248C62.2523 39.5798 62.2239 39.5461 62.2157 39.5362C62.2122 39.5321 62.2069 39.5259 62.2102 39.5297C62.2112 39.5309 62.2171 39.5378 62.2245 39.5468C62.2393 39.5647 62.2698 39.6022 62.3055 39.6519L59.0579 41.9871C59.0944 42.0377 59.1256 42.0761 59.1411 42.0949C59.1489 42.1043 59.1551 42.1117 59.1565 42.1133C59.1601 42.1175 59.1552 42.1117 59.1521 42.108C59.1445 42.099 59.1169 42.0661 59.0838 42.022C59.0495 41.9762 59.0019 41.9085 58.9522 41.822L62.4194 39.8275ZM62.3728 39.7517C62.0336 39.2144 61.559 38.7881 61.0119 38.501L59.153 42.0428C59.1026 42.0163 59.0415 41.9679 58.9906 41.8873L62.3728 39.7517ZM61.0108 38.5004L49.6774 32.5613L47.8208 36.1043L59.1541 42.0434L61.0108 38.5004ZM49.6725 32.5587C49.1389 32.281 48.5472 32.1396 47.9524 32.1396V36.1396C47.9158 36.1396 47.8727 36.1313 47.8257 36.1069L49.6725 32.5587ZM47.9524 32.1396C47.3577 32.1396 46.766 32.281 46.2324 32.5587L48.0792 36.1069C48.0322 36.1313 47.9891 36.1396 47.9524 36.1396V32.1396ZM46.2275 32.5613L34.8941 38.5004L36.7508 42.0434L48.0841 36.1043L46.2275 32.5613ZM34.8935 38.5007C34.3424 38.7898 33.8648 39.22 33.5249 39.7627L36.9149 41.8858C36.8638 41.9675 36.8022 42.0164 36.7514 42.043L34.8935 38.5007ZM33.4596 39.8749C33.5243 39.755 33.5889 39.6648 33.6309 39.6099C33.6524 39.5817 33.671 39.5591 33.6836 39.5439C33.696 39.5291 33.7059 39.5177 33.7087 39.5144C33.71 39.513 33.7117 39.511 33.7106 39.5123C33.7102 39.5127 33.708 39.5152 33.7053 39.5184C33.7 39.5246 33.6883 39.5381 33.6739 39.5556C33.6461 39.5894 33.5945 39.6541 33.5382 39.7411L36.8963 41.9144C36.8403 42.0008 36.7892 42.0649 36.7619 42.0981C36.7477 42.1153 36.7363 42.1286 36.7312 42.1345C36.7286 42.1375 36.7266 42.1398 36.7263 42.1401C36.7253 42.1412 36.7271 42.1392 36.7285 42.1376C36.7322 42.1333 36.7672 42.0934 36.8078 42.0404C36.8502 41.985 36.9152 41.8942 36.9803 41.7736L33.4596 39.8749ZM33.4855 39.8272C33.461 39.8695 33.4406 39.9085 33.4238 39.9425C33.407 39.9763 33.3936 40.006 33.3833 40.0294C33.3732 40.0525 33.3655 40.0714 33.3609 40.0828C33.3585 40.0886 33.3567 40.0933 33.3556 40.096C33.3546 40.0984 33.3537 40.1008 33.354 40.1C33.354 40.0999 33.3543 40.0993 33.3546 40.0985C33.3549 40.0976 33.3555 40.0963 33.3561 40.0946C33.3574 40.0914 33.3595 40.0862 33.3621 40.0799C33.3671 40.0674 33.3755 40.0474 33.3864 40.0229C33.3974 39.9981 33.4119 39.9669 33.4299 39.9313C33.4481 39.8956 33.4702 39.8548 33.4968 39.8104L36.9279 41.8664C36.9817 41.7767 37.0185 41.6993 37.041 41.6487C37.0523 41.6234 37.061 41.6024 37.0664 41.5891C37.0692 41.5823 37.0715 41.5767 37.0729 41.573C37.0743 41.5695 37.0754 41.5666 37.0756 41.5662C37.0761 41.565 37.0753 41.567 37.0746 41.5689C37.0736 41.5711 37.072 41.5754 37.0698 41.5807C37.0656 41.5912 37.0582 41.6092 37.0485 41.6315C37.0291 41.6759 36.9965 41.746 36.9489 41.8284L33.4855 39.8272ZM33.5088 39.7905C33.1809 40.3236 33.0011 40.9391 33 41.5752L37 41.5822C36.9998 41.6989 36.9663 41.8042 36.9159 41.8862L33.5088 39.7905ZM33 41.5787V53.4203H37V41.5787H33ZM33 53.4224C33.0007 54.0725 33.1878 54.7008 33.5284 55.2419L36.9137 53.1113C36.9653 53.1932 36.9999 53.2996 37 53.4182L33 53.4224ZM33.5284 55.2419C33.868 55.7815 34.3438 56.2096 34.8926 56.4978L36.7523 52.9564C36.8023 52.9826 36.863 53.0308 36.9137 53.1113L33.5284 55.2419ZM34.8941 56.4986L46.2275 62.4377L48.0841 58.8947L36.7508 52.9556L34.8941 56.4986ZM46.2338 62.441C46.7455 62.7068 47.3108 62.8469 47.8808 62.8569L47.9506 58.8575C47.9878 58.8581 48.031 58.8671 48.0778 58.8914L46.2338 62.441ZM47.7734 62.8521C47.725 62.8487 47.6874 62.8441 47.6697 62.8418C47.6608 62.8407 47.6541 62.8397 47.653 62.8396C47.6478 62.8389 47.6574 62.8402 47.6601 62.8406C47.6706 62.842 47.7038 62.8466 47.7459 62.8506C47.7895 62.8549 47.8505 62.8594 47.9234 62.8603L47.9703 58.8606C48.0378 58.8614 48.0936 58.8656 48.1321 58.8693C48.1689 58.8729 48.197 58.8768 48.2023 58.8775C48.204 58.8777 48.2052 58.8779 48.205 58.8779C48.2043 58.8778 48.2053 58.8779 48.2041 58.8777C48.2036 58.8777 48.2027 58.8776 48.2017 58.8774C48.1981 58.8769 48.1888 58.8756 48.1772 58.8742C48.1544 58.8712 48.1116 58.8661 48.058 58.8622L47.7734 62.8521ZM47.9468 62.8604H47.9525V58.8604H47.9468V62.8604ZM47.9525 62.8604C48.0263 62.8604 48.0879 62.8565 48.1317 62.8527C48.1739 62.8491 48.2073 62.8449 48.2176 62.8436C48.2199 62.8433 48.2304 62.842 48.2246 62.8427C48.2235 62.8429 48.2166 62.8438 48.2075 62.8448C48.1895 62.8469 48.1507 62.8512 48.1006 62.8541L47.8692 58.8608C47.8137 58.864 47.7695 58.8688 47.7462 58.8715C47.7344 58.8729 47.7248 58.8741 47.721 58.8746C47.72 58.8747 47.7191 58.8748 47.7185 58.8749C47.7182 58.8749 47.718 58.875 47.7178 58.875C47.7176 58.875 47.7176 58.875 47.7175 58.875C47.7172 58.8751 47.7183 58.8749 47.72 58.8747C47.725 58.8741 47.753 58.8705 47.7898 58.8674C47.8281 58.8641 47.8843 58.8604 47.9525 58.8604V62.8604ZM48.015 62.8572C48.5883 62.8486 49.1572 62.7082 49.6718 62.4406L47.8264 58.8917C47.8736 58.8672 47.9173 58.8582 47.9548 58.8577L48.015 62.8572ZM49.6774 62.4377L61.0108 56.4986L59.1541 52.9556L47.8208 58.8947L49.6774 62.4377ZM61.0124 56.4978C61.5612 56.2095 62.037 55.7814 62.3766 55.2418L58.9911 53.1114C59.0417 53.0309 59.1025 52.9827 59.1525 52.9565L61.0124 56.4978ZM62.3766 55.2418C62.7171 54.7006 62.9041 54.0723 62.9048 53.4222L58.9048 53.4184C58.9049 53.2998 58.9395 53.1934 58.9911 53.1114L62.3766 55.2418ZM62.9048 53.4203V41.5787H58.9048V53.4203H62.9048ZM62.9048 41.5758C62.9039 40.9379 62.7232 40.3207 62.3937 39.7865L58.9892 41.8863C58.9385 41.8042 58.9049 41.6986 58.9048 41.5815L62.9048 41.5758ZM48.6102 36.9781C48.4011 37.0869 48.1752 37.1396 47.9525 37.1396V33.1396C47.5439 33.1396 47.1351 33.2365 46.7638 33.4297L48.6102 36.9781ZM47.9525 37.1396C47.7299 37.1396 47.5039 37.0869 47.2948 36.9781L49.1412 33.4297C48.77 33.2365 48.3612 33.1396 47.9525 33.1396V37.1396ZM47.2897 36.9754L58.3448 42.7687L60.2015 39.2258L49.1464 33.4324L47.2897 36.9754ZM58.3364 39.2302L53.6419 41.719L55.5156 45.2531L60.21 42.7643L58.3364 39.2302ZM55.4987 41.7102L44.0854 35.7974L42.2454 39.3491L53.6587 45.2619L55.4987 41.7102ZM44.0937 39.3448L48.6153 36.9754L46.7587 33.4324L42.2371 35.8017L44.0937 39.3448ZM49.0127 45.1488L37.5613 39.2164L35.7213 42.7681L47.1727 48.7005L49.0127 45.1488ZM37.5696 42.7637L42.9937 39.9213L41.1371 36.3783L35.713 39.2208L37.5696 42.7637ZM41.1454 39.9257L52.5651 45.8417L54.4051 42.29L42.9854 36.374L41.1454 39.9257ZM52.5483 42.2988L47.1559 45.1577L49.0295 48.6917L54.4219 45.8329L52.5483 42.2988ZM37.2831 52.0851C37.4994 52.1986 37.6986 52.3734 37.8456 52.6069L34.4606 54.738C34.7039 55.1246 35.0416 55.426 35.4242 55.6269L37.2831 52.0851ZM37.8456 52.6069C37.9936 52.8419 38.079 53.1223 38.0794 53.4181L34.0794 53.4224C34.0799 53.8955 34.2162 54.3499 34.4606 54.738L37.8456 52.6069ZM38.0794 53.4203V41.8475H34.0794V53.4203H38.0794ZM35.1594 43.6233L46.6326 49.5673L48.4726 46.0156L36.9994 40.0717L35.1594 43.6233ZM45.5527 47.7692L45.4206 59.6333L49.4204 59.6778L49.5525 47.8137L45.5527 47.7692ZM48.3489 57.8841L37.282 52.0845L35.4253 55.6275L46.4922 61.427L48.3489 57.8841ZM58.6231 52.0845L47.5717 57.8757L49.4283 61.4187L60.4797 55.6275L58.6231 52.0845ZM50.4999 59.6695L50.6321 47.8137L46.6324 47.7691L46.5001 59.6249L50.4999 59.6695ZM49.5691 49.5585L54.9788 46.6904L53.1052 43.1563L47.6954 46.0244L49.5691 49.5585ZM52.042 44.9234V50.0652H56.042V44.9234H52.042ZM52.042 50.0652C52.042 50.7793 52.3493 51.4305 52.8403 51.8857L55.5599 48.9524C55.8484 49.2199 56.042 49.6166 56.042 50.0652H52.042ZM52.8403 51.8857C53.3262 52.3361 53.9549 52.5656 54.5817 52.5656V48.5656C54.9222 48.5656 55.2764 48.6896 55.5599 48.9524L52.8403 51.8857ZM54.5817 52.5656C55.2085 52.5656 55.8372 52.3361 56.3231 51.8857L53.6035 48.9524C53.887 48.6896 54.2412 48.5656 54.5817 48.5656V52.5656ZM56.3231 51.8857C56.8141 51.4305 57.1214 50.7793 57.1214 50.0652H53.1214C53.1214 49.6166 53.315 49.2199 53.6035 48.9524L56.3231 51.8857ZM57.1214 50.0652V44.3511H53.1214V50.0652H57.1214ZM56.0582 46.1181L60.7622 43.6243L58.8886 40.0902L54.1846 42.584L56.0582 46.1181ZM57.8254 41.8573V53.4203H61.8254V41.8573H57.8254ZM57.8254 53.4188C57.8256 53.1231 57.9109 52.8427 58.0588 52.6077L61.4449 54.737C61.689 54.3489 61.825 53.8946 61.8254 53.4218L57.8254 53.4188ZM58.0588 52.6077C58.2056 52.3741 58.4047 52.1992 58.6208 52.0856L60.4822 55.6261C60.8645 55.4251 61.2018 55.1235 61.4449 54.737L58.0588 52.6077ZM58.1806 52.3996L58.1805 52.3997L60.9223 55.3122L60.9224 55.3121L58.1806 52.3996Z" fill="#515151" mask="url(#path-131-inside-1_2016_114867)"/>
</svg>
