<svg width="39" height="39" viewBox="0 0 39 39" fill="none" xmlns="http://www.w3.org/2000/svg">
<path d="M2.73772 15.1145C1.09125 16.7589 0.116382 18.9576 0.00326147 21.2818C-0.109859 23.606 0.646884 25.8891 2.12588 27.6855C3.60488 29.482 5.70006 30.6632 8.00274 30.9985C10.3054 31.3339 12.6505 30.7994 14.5804 29.4994L22.6668 37.5877C22.9279 37.8547 23.281 38.0123 23.6541 38.0282C24.0273 38.0442 24.3925 37.9174 24.6755 37.6736C24.9585 37.4299 25.1379 37.0875 25.1774 36.7161C25.2169 36.3447 25.1133 35.9722 24.8879 35.6744L24.7454 35.5091L16.7312 27.4949C18.1899 25.6158 18.8785 23.2519 18.6571 20.8835C18.4357 18.515 17.321 16.3196 15.5394 14.7434C13.7578 13.1672 11.443 12.3283 9.06518 12.3972C6.68739 12.4662 4.42503 13.4377 2.73772 15.1145ZM27.8424 27.55C27.4149 29.9953 26.8012 32.2164 26.0336 34.1126L26.0887 34.1658L26.3262 34.4318C26.7442 34.9923 26.9798 35.6174 27.0444 36.2406C30.9289 34.4348 34.0921 31.3734 36.0238 27.55H27.8424ZM19.4748 27.5481L23.8144 31.8934C24.1982 30.7534 24.5383 29.4842 24.8214 28.1086L24.9297 27.55L19.4767 27.5481H19.4748ZM13.8964 17.1931C14.5074 17.7861 14.9944 18.4947 15.3291 19.2777C15.6637 20.0607 15.8393 20.9024 15.8456 21.7539C15.8519 22.6053 15.6889 23.4495 15.3659 24.2374C15.0429 25.0252 14.5665 25.741 13.9643 26.343C13.3622 26.9451 12.6463 27.4213 11.8584 27.7441C11.0705 28.0669 10.2262 28.2298 9.37477 28.2233C8.52331 28.2168 7.68164 28.0411 6.89873 27.7063C6.11583 27.3715 5.40732 26.8843 4.81442 26.2732C3.61839 25.0671 2.94888 23.4363 2.95244 21.7378C2.95599 20.0392 3.63231 18.4112 4.83338 17.2102C6.03445 16.0091 7.66243 15.3328 9.36099 15.3292C11.0595 15.3257 12.6903 15.9952 13.8964 17.1912V17.1931ZM25.5548 15.1981H18.5248C19.4926 16.5575 20.1467 18.1148 20.4398 19.7576C20.7328 21.4005 20.6577 23.0879 20.2196 24.6981L25.3686 24.7C25.7005 21.8551 25.7844 18.9867 25.6194 16.1272L25.5548 15.1981ZM28.4181 15.1981C28.6172 17.9948 28.5962 20.8027 28.3554 23.5961L28.2471 24.6981H37.1809C38.1434 21.6235 38.312 18.3554 37.6711 15.1981H28.4181ZM24.4376 0.7714C26.1096 3.3364 27.356 7.0965 28.0153 11.514L28.1331 12.35H36.8541C35.8708 9.72573 34.3208 7.35064 32.3145 5.39396C30.3082 3.43728 27.8951 1.94717 25.247 1.0298L24.6694 0.8398L24.4376 0.7714ZM19.0492 0C16.6229 0 14.1833 4.5258 13.049 11.0941C13.9306 11.3981 14.7818 11.8161 15.5779 12.3443L25.2451 12.3462C24.2191 5.1091 21.6256 0 19.0492 0ZM13.6589 0.7695C10.8352 1.60794 8.24436 3.08972 6.08995 5.09842C3.93553 7.10711 2.27624 9.58801 1.24242 12.3462H3.13292C5.23092 10.9547 7.73504 10.3071 10.2446 10.507C10.8564 6.9768 11.852 3.914 13.1459 1.615L13.4537 1.0925L13.6589 0.7695Z" fill="#515151"/>
</svg>
