<svg width="18" height="18" viewBox="0 0 18 18" fill="none" xmlns="http://www.w3.org/2000/svg">
<path d="M17.212 15.4355L17.1375 15.3605L15.335 17.1625L15.379 17.206L15.857 17.6835C16.163 17.99 16.815 17.835 17.313 17.3375C17.8105 16.8395 17.9655 16.188 17.659 15.882L17.2125 15.4355H17.212Z" fill="#515151"/>
<path d="M16.6965 14.9266L14.8945 16.7276L15.335 17.1621L17.1375 15.3601L17.086 15.3086L17.0845 15.3096L16.6965 14.9266Z" fill="#F4A72A"/>
<mask id="path-3-inside-1_1348_104090" fill="white">
<path d="M7.20734 11.9786C4.48084 11.9786 2.26984 9.76856 2.26984 7.04106C2.26984 4.31356 4.48084 2.10356 7.20734 2.10356C9.93484 2.10356 12.1453 4.31356 12.1453 7.04106C12.1453 9.76856 9.93484 11.9786 7.20734 11.9786ZM7.11134 0.0185547C3.23334 0.0185547 0.0898438 3.16306 0.0898438 7.04106C0.0898438 10.9191 3.23334 14.063 7.11134 14.063C8.54934 14.063 9.88384 13.6306 10.9973 12.8891L14.8943 16.7275L16.6963 14.9266L12.8248 11.1141C13.6458 9.96456 14.1338 8.56106 14.1338 7.04106C14.1338 3.16306 10.9903 0.0185547 7.11134 0.0185547Z"/>
</mask>
<path d="M10.9973 12.8891L10.1659 11.6406L11.1811 10.9646L12.0499 11.8204L10.9973 12.8891ZM14.8943 16.7275L15.9547 17.7885L14.902 18.8406L13.8417 17.7962L14.8943 16.7275ZM16.6963 14.9266L17.7488 13.8578L18.8261 14.9187L17.7567 15.9875L16.6963 14.9266ZM12.8248 11.1141L11.7724 12.1828L10.8599 11.2843L11.6042 10.2423L12.8248 11.1141ZM7.20734 13.4786C3.65261 13.4786 0.769836 10.5972 0.769836 7.04106H3.76984C3.76984 8.93994 5.30907 10.4786 7.20734 10.4786V13.4786ZM0.769836 7.04106C0.769836 3.48494 3.65261 0.603563 7.20734 0.603563V3.60356C5.30907 3.60356 3.76984 5.14219 3.76984 7.04106H0.769836ZM7.20734 0.603563C10.7631 0.603563 13.6453 3.48494 13.6453 7.04106H10.6453C10.6453 5.14219 9.10661 3.60356 7.20734 3.60356V0.603563ZM13.6453 7.04106C13.6453 10.5972 10.7631 13.4786 7.20734 13.4786V10.4786C9.10661 10.4786 10.6453 8.93994 10.6453 7.04106H13.6453ZM7.11134 1.51855C4.06205 1.51855 1.58984 3.99121 1.58984 7.04106H-1.41016C-1.41016 2.33492 2.40463 -1.48145 7.11134 -1.48145V1.51855ZM1.58984 7.04106C1.58984 10.0908 4.0619 12.563 7.11134 12.563V15.563C2.40478 15.563 -1.41016 11.7474 -1.41016 7.04106H1.58984ZM7.11134 12.563C8.24356 12.563 9.29032 12.2236 10.1659 11.6406L11.8287 14.1376C10.4774 15.0375 8.85512 15.563 7.11134 15.563V12.563ZM12.0499 11.8204L15.9469 15.6589L13.8417 17.7962L9.94473 13.9577L12.0499 11.8204ZM13.834 15.6666L15.636 13.8656L17.7567 15.9875L15.9547 17.7885L13.834 15.6666ZM15.6439 15.9953L11.7724 12.1828L13.8773 10.0453L17.7488 13.8578L15.6439 15.9953ZM11.6042 10.2423C12.2521 9.33513 12.6338 8.234 12.6338 7.04106H15.6338C15.6338 8.88812 15.0396 10.594 14.0455 11.9859L11.6042 10.2423ZM12.6338 7.04106C12.6338 3.99135 10.1618 1.51855 7.11134 1.51855V-1.48145C11.8189 -1.48145 15.6338 2.33478 15.6338 7.04106H12.6338Z" fill="#515151" mask="url(#path-3-inside-1_1348_104090)"/>
</svg>
