<svg width="22" height="22" viewBox="0 0 22 22" fill="none" xmlns="http://www.w3.org/2000/svg">
<path d="M21.0363 18.8658L20.9452 18.7741L18.7422 20.9766L18.796 21.0298L19.3802 21.6134C19.7542 21.988 20.5511 21.7985 21.1597 21.1905C21.7678 20.5818 21.9572 19.7855 21.5826 19.4115L21.0369 18.8658H21.0363Z" fill="#515151"/>
<path d="M20.4056 18.2443L18.2031 20.4455L18.7415 20.9766L20.9446 18.7741L20.8816 18.7112L20.8798 18.7124L20.4056 18.2443Z" fill="#F4A72A"/>
<mask id="path-3-inside-1_283_96297" fill="white">
<path d="M8.80853 14.641C5.47614 14.641 2.77381 11.9399 2.77381 8.60629C2.77381 5.27268 5.47614 2.57157 8.80853 2.57157C12.1421 2.57157 14.8439 5.27268 14.8439 8.60629C14.8439 11.9399 12.1421 14.641 8.80853 14.641ZM8.6912 0.0232201C3.95143 0.0232201 0.109375 3.86651 0.109375 8.60629C0.109375 13.3461 3.95143 17.1887 8.6912 17.1887C10.4488 17.1887 12.0798 16.6601 13.4408 15.7538L18.2038 20.4453L20.4062 18.2441L15.6744 13.5844C16.6778 12.1795 17.2743 10.4641 17.2743 8.60629C17.2743 3.86651 13.4322 0.0232201 8.6912 0.0232201Z"/>
</mask>
<path d="M13.4408 15.7538L12.8865 14.9215L13.5632 14.4708L14.1425 15.0414L13.4408 15.7538ZM18.2038 20.4453L18.9107 21.1526L18.2089 21.854L17.502 21.1577L18.2038 20.4453ZM20.4062 18.2441L21.1079 17.5316L21.8261 18.2389L21.1131 18.9514L20.4062 18.2441ZM15.6744 13.5844L14.9727 14.2969L14.3644 13.6979L14.8606 13.0032L15.6744 13.5844ZM8.80853 15.641C4.92399 15.641 1.77381 12.4923 1.77381 8.60629H3.77381C3.77381 11.3875 6.0283 13.641 8.80853 13.641V15.641ZM1.77381 8.60629C1.77381 4.72026 4.92399 1.57157 8.80853 1.57157V3.57157C6.0283 3.57157 3.77381 5.82509 3.77381 8.60629H1.77381ZM8.80853 1.57157C12.6943 1.57157 15.8439 4.72026 15.8439 8.60629H13.8439C13.8439 5.82509 11.59 3.57157 8.80853 3.57157V1.57157ZM15.8439 8.60629C15.8439 12.4923 12.6943 15.641 8.80853 15.641V13.641C11.59 13.641 13.8439 11.3875 13.8439 8.60629H15.8439ZM8.6912 1.02322C4.5039 1.02322 1.10938 4.41861 1.10938 8.60629H-0.890625C-0.890625 3.31441 3.39895 -0.97678 8.6912 -0.97678V1.02322ZM1.10938 8.60629C1.10938 12.7939 4.5038 16.1887 8.6912 16.1887V18.1887C3.39905 18.1887 -0.890625 13.8983 -0.890625 8.60629H1.10938ZM8.6912 16.1887C10.2449 16.1887 11.6841 15.7222 12.8865 14.9215L13.995 16.5862C12.4755 17.5981 10.6526 18.1887 8.6912 18.1887V16.1887ZM14.1425 15.0414L18.9055 19.7329L17.502 21.1577L12.739 16.4663L14.1425 15.0414ZM17.4968 19.738L19.6993 17.5368L21.1131 18.9514L18.9107 21.1526L17.4968 19.738ZM19.7045 18.9566L14.9727 14.2969L16.376 12.8719L21.1079 17.5316L19.7045 18.9566ZM14.8606 13.0032C15.7486 11.7598 16.2743 10.246 16.2743 8.60629H18.2743C18.2743 10.6821 17.607 12.5991 16.4881 14.1656L14.8606 13.0032ZM16.2743 8.60629C16.2743 4.4187 12.8798 1.02322 8.6912 1.02322V-0.97678C13.9846 -0.97678 18.2743 3.31432 18.2743 8.60629H16.2743Z" fill="#515151" mask="url(#path-3-inside-1_283_96297)"/>
<path d="M9.84656 4.87211L5.6311 10.1741C5.49177 10.3507 5.52049 10.6067 5.6971 10.7479C5.77227 10.8072 5.8615 10.8359 5.95072 10.8359C6.0705 10.8359 6.18967 10.784 6.27033 10.6819L10.4852 5.37932C10.6257 5.20271 10.5958 4.94665 10.4192 4.8067C10.2432 4.66737 9.98589 4.6955 9.84656 4.87211Z" fill="#F4A72A"/>
<path d="M11.6128 6.64007L7.39675 11.9427C7.25681 12.1193 7.28674 12.3753 7.46335 12.5165C7.53852 12.5757 7.62775 12.6045 7.71636 12.6045C7.83614 12.6045 7.9553 12.552 8.03597 12.4505L12.2514 7.14788C12.3914 6.97127 12.362 6.71523 12.1854 6.57407C12.01 6.43473 11.7521 6.46407 11.6128 6.64007Z" fill="#F4A72A"/>
</svg>
