<svg width="33" height="23" viewBox="0 0 33 23" fill="none" xmlns="http://www.w3.org/2000/svg">
<g clip-path="url(#clip0_1878_105703)">
<path d="M6.6 5.30723H1.65C0.7425 5.30723 0 4.51107 0 3.53799C0 2.56492 0.7425 1.76876 1.65 1.76876H6.6C7.5075 1.76876 8.25 2.56492 8.25 3.53799C8.25 4.51107 7.5075 5.30723 6.6 5.30723ZM6.6 10.6149H1.65C0.7425 10.6149 0 11.4111 0 12.3841C0 13.3572 0.7425 14.1534 1.65 14.1534H6.6C7.5075 14.1534 8.25 13.3572 8.25 12.3841C8.25 11.4111 7.5075 10.6149 6.6 10.6149ZM29.502 21.7434L24.354 16.2234C22.935 17.2141 21.2355 17.7803 19.404 17.6741C15.4935 17.4795 12.144 14.2065 11.616 10.0488C11.4417 8.66687 11.5738 7.26039 12.0015 5.9435C12.4292 4.6266 13.1405 3.4364 14.0776 2.4695C15.0147 1.50261 16.1512 0.786266 17.3949 0.378627C18.6386 -0.0290115 19.9544 -0.11646 21.2355 0.12338C24.453 0.707226 27.126 3.39646 27.8355 6.81107C28.38 9.39415 27.852 11.8003 26.6805 13.7111L31.845 19.2488C32.4885 19.9388 32.4885 21.0534 31.845 21.7434C31.2015 22.4334 30.1455 22.4334 29.502 21.7434ZM24.75 8.84569C24.75 5.92646 22.5225 3.53799 19.8 3.53799C17.0775 3.53799 14.85 5.92646 14.85 8.84569C14.85 11.7649 17.0775 14.1534 19.8 14.1534C22.5225 14.1534 24.75 11.7649 24.75 8.84569ZM1.65 22.9995H14.85C15.7575 22.9995 16.5 22.2034 16.5 21.2303C16.5 20.2572 15.7575 19.4611 14.85 19.4611H1.65C0.7425 19.4611 0 20.2572 0 21.2303C0 22.2034 0.7425 22.9995 1.65 22.9995Z" fill="current"/>
</g>
<defs>
<clipPath id="clip0_1878_105703">
<rect width="33" height="23" fill="white"/>
</clipPath>
</defs>
</svg>
