<svg width="28" height="22" viewBox="0 0 28 22" fill="none" xmlns="http://www.w3.org/2000/svg">
<mask id="path-1-inside-1_1914_107818" fill="white">
<path d="M8.48448 13.4263C5.72377 13.4263 3.47788 11.1918 3.47788 8.44424C3.47788 5.69669 5.72377 3.46146 8.48448 3.46146C11.2452 3.46146 13.4911 5.69669 13.4911 8.44424C13.4911 11.1918 11.2452 13.4263 8.48448 13.4263ZM16.5518 11.1605C16.7692 10.5243 16.91 9.85683 16.9683 9.16847L15.5876 8.50293C15.5896 8.28 15.5811 8.05574 15.5608 7.8302C15.5555 7.75263 15.5451 7.67572 15.5359 7.59881L16.8347 6.78138C16.6998 6.10346 16.4849 5.45547 16.1994 4.84925L14.6654 4.96008C14.5161 4.69543 14.3484 4.4419 14.167 4.20071L14.8809 2.84939C14.4297 2.33899 13.9175 1.88338 13.3575 1.49292L12.0862 2.3514C11.8255 2.19821 11.555 2.06134 11.274 1.94075L11.2137 0.415386C10.5745 0.198973 9.90315 0.0581799 9.21216 -0.000486374L8.54343 1.37426C8.32009 1.3723 8.09543 1.3808 7.86815 1.40036C7.78956 1.40753 7.71161 1.41727 7.63498 1.42639L6.81561 0.132494C6.13248 0.26808 5.48144 0.481884 4.87232 0.76544L4.98366 2.29207C4.7184 2.44135 4.46297 2.60758 4.22194 2.78879L2.86287 2.07761C2.34872 2.52739 1.89155 3.03645 1.50053 3.59444L2.36378 4.85969C2.20921 5.11913 2.07035 5.38904 1.95049 5.66738L0.416552 5.72734C0.199757 6.36355 0.0589474 7.03037 0 7.71937L1.38132 8.38491C1.38001 8.60785 1.38723 8.8321 1.40688 9.05764C1.41408 9.13587 1.42324 9.21145 1.43372 9.28967L0.134256 10.1058C0.27049 10.7844 0.484678 11.4323 0.76959 12.0379L2.30287 11.9278C2.45351 12.1918 2.61987 12.4447 2.80195 12.6865L2.08738 14.0371C2.53866 14.5495 3.0515 15.0051 3.6115 15.3943L4.88279 14.5358C5.14347 14.6903 5.41529 14.8285 5.69431 14.9471L5.75522 16.4731C6.39447 16.6889 7.06385 16.8297 7.7555 16.8877L8.42619 15.513C8.64888 15.5149 8.87485 15.507 9.10147 15.4875C9.17941 15.4816 9.2567 15.4705 9.33268 15.4608L10.1527 16.756C10.8365 16.6198 11.4869 16.4072 12.0966 16.123L11.9853 14.5964C12.2499 14.4458 12.5047 14.2809 12.7477 14.0997L14.1061 14.8102C14.6189 14.3605 15.0761 13.852 15.4678 13.294L14.6065 12.0288C14.7598 11.7687 14.898 11.4995 15.0191 11.2198L16.5518 11.1605Z"/>
</mask>
<path d="M16.9683 9.16847L17.1854 8.71807L17.4956 8.86758L17.4665 9.21066L16.9683 9.16847ZM15.5876 8.50293L15.3705 8.95334L15.0849 8.81563L15.0877 8.49853L15.5876 8.50293ZM15.5608 7.8302L15.0627 7.87504L15.0619 7.8639L15.5608 7.8302ZM15.5359 7.59881L15.0394 7.65799L15.002 7.34405L15.2696 7.17564L15.5359 7.59881ZM16.8347 6.78138L17.3251 6.68378L17.3922 7.02126L17.101 7.20455L16.8347 6.78138ZM16.1994 4.84925L16.1633 4.35055L16.5055 4.32583L16.6517 4.63618L16.1994 4.84925ZM14.6654 4.96008L14.7015 5.45878L14.3856 5.4816L14.23 5.20579L14.6654 4.96008ZM14.167 4.20071L13.7674 4.50128L13.5767 4.24771L13.7249 3.96714L14.167 4.20071ZM14.8809 2.84939L15.2555 2.5182L15.4845 2.77724L15.323 3.08296L14.8809 2.84939ZM13.3575 1.49292L13.0777 1.07854L13.362 0.886534L13.6434 1.08277L13.3575 1.49292ZM12.0862 2.3514L12.366 2.76577L12.1047 2.94222L11.8328 2.78248L12.0862 2.3514ZM11.274 1.94075L11.0768 2.40022L10.7868 2.27577L10.7744 1.96048L11.274 1.94075ZM11.2137 0.415386L11.3741 -0.0582085L11.6998 0.0520573L11.7134 0.395653L11.2137 0.415386ZM9.21216 -0.000486374L8.76253 -0.2192L8.9126 -0.527718L9.25445 -0.498693L9.21216 -0.000486374ZM8.54343 1.37426L8.99306 1.59297L8.8549 1.877L8.53906 1.87424L8.54343 1.37426ZM7.86815 1.40036L7.82273 0.902419L7.82529 0.902199L7.86815 1.40036ZM7.63498 1.42639L7.69411 1.92289L7.38117 1.96015L7.21256 1.6939L7.63498 1.42639ZM6.81561 0.132494L6.71827 -0.357941L7.05459 -0.424692L7.23804 -0.135008L6.81561 0.132494ZM4.87232 0.76544L4.37364 0.801809L4.34855 0.457741L4.66131 0.312147L4.87232 0.76544ZM4.98366 2.29207L5.48234 2.2557L5.50542 2.57219L5.22887 2.72781L4.98366 2.29207ZM4.22194 2.78879L4.52241 3.18844L4.26996 3.37824L3.99012 3.2318L4.22194 2.78879ZM2.86287 2.07761L2.53367 1.70128L2.79135 1.47586L3.0947 1.6346L2.86287 2.07761ZM1.50053 3.59444L1.08751 3.87623L0.892649 3.59064L1.09106 3.3075L1.50053 3.59444ZM2.36378 4.85969L2.77681 4.5779L2.95664 4.84149L2.79332 5.11561L2.36378 4.85969ZM1.95049 5.66738L2.40972 5.86513L2.28503 6.15468L1.97002 6.167L1.95049 5.66738ZM0.416552 5.72734L-0.056724 5.56607L0.0540013 5.24113L0.397021 5.22772L0.416552 5.72734ZM0 7.71937L-0.217029 8.16982L-0.527563 8.0202L-0.49818 7.67675L0 7.71937ZM1.38132 8.38491L1.59835 7.93447L1.88317 8.0717L1.88131 8.38785L1.38132 8.38491ZM1.40688 9.05764L0.908977 9.1035L0.908762 9.10104L1.40688 9.05764ZM1.43372 9.28967L1.9293 9.22328L1.972 9.54204L1.69966 9.71309L1.43372 9.28967ZM0.134256 10.1058L-0.355962 10.2042L-0.423882 9.86594L-0.131676 9.68241L0.134256 10.1058ZM0.76959 12.0379L0.805411 12.5366L0.463217 12.5612L0.317163 12.2508L0.76959 12.0379ZM2.30287 11.9278L2.26705 11.429L2.5811 11.4065L2.73714 11.68L2.30287 11.9278ZM2.80195 12.6865L3.20139 12.3858L3.39246 12.6395L3.24391 12.9203L2.80195 12.6865ZM2.08738 14.0371L1.71217 14.3676L1.48396 14.1085L1.64543 13.8033L2.08738 14.0371ZM3.6115 15.3943L3.89132 15.8087L3.60745 16.0004L3.32617 15.8049L3.6115 15.3943ZM4.88279 14.5358L4.60298 14.1214L4.86535 13.9443L5.13771 14.1057L4.88279 14.5358ZM5.69431 14.9471L5.88996 14.487L6.18129 14.6108L6.19391 14.9272L5.69431 14.9471ZM5.75522 16.4731L5.59532 16.9468L5.26934 16.8368L5.25562 16.493L5.75522 16.4731ZM7.7555 16.8877L8.20487 17.1069L8.0548 17.4146L7.71371 17.3859L7.7555 16.8877ZM8.42619 15.513L7.97682 15.2937L8.11514 15.0102L8.43058 15.013L8.42619 15.513ZM9.10147 15.4875L9.05848 14.9893L9.06394 14.9889L9.10147 15.4875ZM9.33268 15.4608L9.26886 14.9648L9.58475 14.9242L9.75513 15.1933L9.33268 15.4608ZM10.1527 16.756L10.2504 17.2464L9.91383 17.3134L9.73025 17.0234L10.1527 16.756ZM12.0966 16.123L12.5953 16.0867L12.6204 16.4306L12.3079 16.5762L12.0966 16.123ZM11.9853 14.5964L11.4866 14.6328L11.4637 14.318L11.738 14.1618L11.9853 14.5964ZM12.7477 14.0997L12.4488 13.6989L12.7008 13.5109L12.9794 13.6566L12.7477 14.0997ZM14.1061 14.8102L14.4358 15.1861L14.1781 15.4122L13.8743 15.2533L14.1061 14.8102ZM15.4678 13.294L15.8811 13.0127L16.0756 13.2984L15.877 13.5813L15.4678 13.294ZM14.6065 12.0288L14.1932 12.3101L14.0148 12.0481L14.1757 11.7749L14.6065 12.0288ZM15.0191 11.2198L14.5603 11.021L14.6854 10.7324L14.9998 10.7202L15.0191 11.2198ZM8.48448 13.9263C5.44997 13.9263 2.97788 11.4703 2.97788 8.44424H3.97788C3.97788 10.9133 5.99758 12.9263 8.48448 12.9263V13.9263ZM2.97788 8.44424C2.97788 5.4183 5.44988 2.96146 8.48448 2.96146V3.96146C5.99767 3.96146 3.97788 5.97507 3.97788 8.44424H2.97788ZM8.48448 2.96146C11.5191 2.96146 13.9911 5.4183 13.9911 8.44424H12.9911C12.9911 5.97507 10.9713 3.96146 8.48448 3.96146V2.96146ZM13.9911 8.44424C13.9911 11.4703 11.519 13.9263 8.48448 13.9263V12.9263C10.9714 12.9263 12.9911 10.9133 12.9911 8.44424H13.9911ZM16.0786 10.9988C16.2828 10.4015 16.4152 9.77414 16.4701 9.12628L17.4665 9.21066C17.4048 9.93951 17.2556 10.6471 17.0249 11.3222L16.0786 10.9988ZM16.7512 9.61887L15.3705 8.95334L15.8048 8.05253L17.1854 8.71807L16.7512 9.61887ZM15.0877 8.49853C15.0895 8.29132 15.0816 8.08351 15.0628 7.87503L16.0588 7.78537C16.0806 8.02797 16.0897 8.26868 16.0876 8.50734L15.0877 8.49853ZM15.0619 7.8639C15.0578 7.8031 15.0499 7.74619 15.0394 7.65799L16.0324 7.53962C16.0402 7.60526 16.0533 7.70216 16.0596 7.7965L15.0619 7.8639ZM15.2696 7.17564L16.5684 6.35822L17.101 7.20455L15.8022 8.02197L15.2696 7.17564ZM16.3443 6.87898C16.2173 6.24092 16.0153 5.63172 15.7471 5.06233L16.6517 4.63618C16.9546 5.27923 17.1822 5.96599 17.3251 6.68378L16.3443 6.87898ZM16.2354 5.34795L14.7015 5.45878L14.6294 4.46138L16.1633 4.35055L16.2354 5.34795ZM14.23 5.20579C14.0922 4.96156 13.9367 4.72629 13.7674 4.50128L14.5666 3.90014C14.7602 4.1575 14.94 4.42929 15.1009 4.71437L14.23 5.20579ZM13.7249 3.96714L14.4388 2.61583L15.323 3.08296L14.6091 4.43428L13.7249 3.96714ZM14.5063 3.18058C14.0816 2.70016 13.5992 2.271 13.0715 1.90306L13.6434 1.08277C14.2357 1.49575 14.7777 1.97782 15.2555 2.5182L14.5063 3.18058ZM13.6373 1.90729L12.366 2.76577L11.8063 1.93703L13.0777 1.07854L13.6373 1.90729ZM11.8328 2.78248C11.5903 2.63997 11.3386 2.51257 11.0768 2.40022L11.4712 1.48127C11.7714 1.61011 12.0606 1.75646 12.3395 1.92032L11.8328 2.78248ZM10.7744 1.96048L10.7141 0.435122L11.7134 0.395653L11.7736 1.92101L10.7744 1.96048ZM11.0534 0.888983C10.4525 0.685555 9.82082 0.552988 9.16986 0.497721L9.25445 -0.498693C9.98548 -0.436628 10.6965 -0.287611 11.3741 -0.0582085L11.0534 0.888983ZM9.66178 0.218227L8.99306 1.59297L8.09381 1.15555L8.76253 -0.2192L9.66178 0.218227ZM8.53906 1.87424C8.3314 1.87242 8.12251 1.88032 7.91102 1.89852L7.82529 0.902199C8.06835 0.881285 8.30877 0.872185 8.54781 0.874277L8.53906 1.87424ZM7.91358 1.89829C7.84374 1.90466 7.7749 1.91326 7.69411 1.92289L7.57585 0.929902C7.64833 0.921271 7.73538 0.910395 7.82273 0.902426L7.91358 1.89829ZM7.21256 1.6939L6.39319 0.399996L7.23804 -0.135008L8.05741 1.15889L7.21256 1.6939ZM6.91295 0.622927C6.26885 0.750767 5.65599 0.952149 5.08333 1.21873L4.66131 0.312147C5.30689 0.0116177 5.99611 -0.214609 6.71827 -0.357941L6.91295 0.622927ZM5.371 0.729069L5.48234 2.2557L4.48499 2.32844L4.37364 0.801809L5.371 0.729069ZM5.22887 2.72781C4.98221 2.86662 4.7453 3.02086 4.52241 3.18844L3.92147 2.38914C4.18064 2.19429 4.45458 2.01607 4.73845 1.85633L5.22887 2.72781ZM3.99012 3.2318L2.63105 2.52062L3.0947 1.6346L4.45376 2.34578L3.99012 3.2318ZM3.19208 2.45394C2.70812 2.87731 2.27791 3.35637 1.91 3.88138L1.09106 3.3075C1.50519 2.71653 1.98933 2.17747 2.53367 1.70128L3.19208 2.45394ZM1.91356 3.31264L2.77681 4.5779L1.95075 5.14149L1.08751 3.87623L1.91356 3.31264ZM2.79332 5.11561C2.64937 5.35722 2.52056 5.60774 2.40972 5.86513L1.49126 5.46962C1.62014 5.17034 1.76904 4.88104 1.93424 4.60377L2.79332 5.11561ZM1.97002 6.167L0.436084 6.22696L0.397021 5.22772L1.93096 5.16776L1.97002 6.167ZM0.889829 5.88862C0.686171 6.48627 0.553684 7.11324 0.49818 7.762L-0.49818 7.67675C-0.435789 6.9475 -0.286657 6.24083 -0.056724 5.56607L0.889829 5.88862ZM0.217029 7.26893L1.59835 7.93447L1.16429 8.83535L-0.217029 8.16982L0.217029 7.26893ZM1.88131 8.38785C1.88008 8.5981 1.8869 8.80666 1.90499 9.01425L0.908762 9.10104C0.887549 8.85755 0.879947 8.61759 0.881331 8.38197L1.88131 8.38785ZM1.90477 9.01179C1.91112 9.08074 1.91934 9.14897 1.9293 9.22328L0.938151 9.35607C0.927148 9.27394 0.917042 9.191 0.908983 9.1035L1.90477 9.01179ZM1.69966 9.71309L0.400189 10.5292L-0.131676 9.68241L1.16779 8.86626L1.69966 9.71309ZM0.624474 10.0074C0.752885 10.647 0.954513 11.2565 1.22202 11.825L0.317163 12.2508C0.0148432 11.6082 -0.211905 10.9218 -0.355962 10.2042L0.624474 10.0074ZM0.73377 11.5392L2.26705 11.429L2.33869 12.4265L0.805411 12.5366L0.73377 11.5392ZM2.73714 11.68C2.87735 11.9257 3.03208 12.1609 3.20139 12.3858L2.40251 12.9872C2.20766 12.7284 2.02968 12.4579 1.8686 12.1756L2.73714 11.68ZM3.24391 12.9203L2.52934 14.2709L1.64543 13.8033L2.35999 12.4527L3.24391 12.9203ZM2.46259 13.7066C2.88691 14.1884 3.36949 14.6172 3.89683 14.9837L3.32617 15.8049C2.73351 15.393 2.19041 14.9106 1.71217 14.3676L2.46259 13.7066ZM3.33168 14.9799L4.60298 14.1214L5.16261 14.9502L3.89132 15.8087L3.33168 14.9799ZM5.13771 14.1057C5.37982 14.2492 5.63187 14.3772 5.88996 14.487L5.49866 15.4072C5.19872 15.2797 4.90712 15.1314 4.62788 14.9659L5.13771 14.1057ZM6.19391 14.9272L6.25482 16.4532L5.25562 16.493L5.19471 14.967L6.19391 14.9272ZM5.91512 15.9994C6.51647 16.2023 7.14621 16.3348 7.79729 16.3894L7.71371 17.3859C6.9815 17.3245 6.27247 17.1754 5.59532 16.9468L5.91512 15.9994ZM7.30613 16.6685L7.97682 15.2937L8.87556 15.7322L8.20487 17.1069L7.30613 16.6685ZM8.43058 15.013C8.63861 15.0148 8.84872 15.0074 9.05848 14.9893L9.14446 15.9856C8.90098 16.0066 8.65916 16.015 8.4218 16.0129L8.43058 15.013ZM9.06394 14.9889C9.12476 14.9843 9.18286 14.9759 9.26886 14.9648L9.3965 15.9567C9.33054 15.9651 9.23407 15.9789 9.139 15.9861L9.06394 14.9889ZM9.75513 15.1933L10.5752 16.4885L9.73025 17.0234L8.91022 15.7282L9.75513 15.1933ZM10.055 16.2656C10.7005 16.137 11.3127 15.9368 11.8854 15.6698L12.3079 16.5762C11.661 16.8777 10.9725 17.1025 10.2504 17.2464L10.055 16.2656ZM11.598 16.1594L11.4866 14.6328L12.484 14.56L12.5953 16.0867L11.598 16.1594ZM11.738 14.1618C11.9861 14.0207 12.2235 13.8669 12.4488 13.6989L13.0466 14.5005C12.7859 14.6949 12.5137 14.871 12.2326 15.031L11.738 14.1618ZM12.9794 13.6566L14.3378 14.3672L13.8743 15.2533L12.5159 14.5427L12.9794 13.6566ZM13.7764 14.4343C14.2595 14.0106 14.6899 13.5319 15.0585 13.0068L15.877 13.5813C15.4623 14.1722 14.9783 14.7103 14.4358 15.1861L13.7764 14.4343ZM15.0545 13.5754L14.1932 12.3101L15.0198 11.7474L15.8811 13.0127L15.0545 13.5754ZM14.1757 11.7749C14.3191 11.5317 14.4478 11.2808 14.5603 11.021L15.4779 11.4186C15.3481 11.7182 15.2004 12.0057 15.0373 12.2826L14.1757 11.7749ZM14.9998 10.7202L16.5324 10.6609L16.5711 11.6601L15.0385 11.7195L14.9998 10.7202Z" fill="#515151" mask="url(#path-1-inside-1_1914_107818)"/>
<path d="M4.4873 8.79133L4.48732 8.79153C4.6799 10.9908 6.62823 12.6162 8.8325 12.4245L4.4873 8.79133ZM4.4873 8.79133C4.29549 6.59077 5.93089 4.65448 8.13637 4.46383C10.3418 4.27193 12.2901 5.89655 12.4812 8.09645C12.6736 10.2976 11.0389 12.2339 8.8326 12.4245L4.4873 8.79133ZM4.33594 8.44414C4.33594 10.7164 6.1952 12.5703 8.48492 12.5703C10.7745 12.5703 12.6333 10.7165 12.6333 8.44414C12.6333 6.1711 10.7745 4.31733 8.48492 4.31733C6.19525 4.31733 4.33594 6.17119 4.33594 8.44414Z" stroke="#515151"/>
<path d="M23.8608 13.6215L23.8611 13.622C24.6862 15.0108 24.2233 16.8023 22.8303 17.6228L22.8302 17.6229C21.4201 18.453 19.5976 17.9713 18.7865 16.5455L18.7861 16.5449C18.0228 15.1985 18.4785 13.4391 19.7965 12.6271C21.1957 11.7647 23.0259 12.2198 23.8608 13.6215ZM21.2593 18.6398L21.2594 18.6398C23.1823 18.6803 24.7764 17.1554 24.8164 15.2481L24.8164 15.248C24.857 13.3402 23.3291 11.7505 21.4049 11.7105L21.4047 11.7105C19.4825 11.67 17.8884 13.1942 17.8484 15.1022C17.8084 17.0102 19.3371 18.5999 21.2593 18.6398Z" stroke="#515151"/>
<mask id="path-5-inside-2_1914_107818" fill="white">
<path d="M21.245 19.3114C18.9526 19.2631 17.1278 17.3689 17.1763 15.088C17.2235 12.8072 19.1268 10.9905 21.4192 11.0387C23.7103 11.0857 25.5357 12.9806 25.4885 15.2614C25.4401 17.5423 23.5374 19.359 21.245 19.3114ZM27.7351 15.8031C27.7803 15.3422 27.7757 14.8768 27.7207 14.4121L26.636 14.1539C26.5797 13.871 26.4985 13.5894 26.3976 13.3124L27.1921 12.5328C27.0965 12.3229 26.9891 12.1156 26.8679 11.9135C26.7487 11.7127 26.619 11.5198 26.4795 11.3353L25.4099 11.6534C25.2154 11.4298 25.0065 11.2252 24.7831 11.0407L25.0792 9.97036C24.6967 9.69854 24.2886 9.47034 23.8609 9.28783L23.0933 10.0961C22.8162 10.001 22.5326 9.92798 22.2445 9.87844L21.9608 8.80155C21.4984 8.75722 21.0308 8.76182 20.5658 8.81918L20.3044 9.89735C20.0195 9.9521 19.7385 10.0323 19.4608 10.1346L18.6762 9.34454C18.4672 9.43906 18.2576 9.54466 18.0546 9.66525C17.8522 9.78389 17.6583 9.91427 17.4736 10.0505L17.792 11.117C17.5686 11.3112 17.3623 11.5185 17.177 11.7407L16.1015 11.4468C15.8277 11.8268 15.5991 12.2329 15.4157 12.6573L16.2272 13.4219C16.1316 13.6976 16.0609 13.9805 16.0098 14.2667L14.9291 14.5489C14.8839 15.0091 14.8885 15.4752 14.9442 15.9393L16.0294 16.1962C16.0851 16.4804 16.1644 16.7613 16.2659 17.039L15.4721 17.8186C15.567 18.0285 15.6738 18.2345 15.7943 18.4353C15.9148 18.638 16.0445 18.8316 16.1827 19.0154L17.2536 18.698C17.4481 18.9203 17.6584 19.1249 17.8804 19.31L17.5863 20.3811C17.9682 20.6529 18.3749 20.8817 18.8013 21.0622L19.5702 20.2552C19.8479 20.3511 20.1289 20.4228 20.4197 20.4717L20.7027 21.5479C21.1638 21.5915 21.6327 21.5889 22.0991 21.5335L22.3571 20.4534C22.6427 20.3986 22.925 20.3185 23.202 20.2161L23.9893 21.0068C24.1989 20.9136 24.4059 20.8061 24.6089 20.6861C24.8119 20.5668 25.0045 20.4377 25.1899 20.2989L24.8715 19.2344C25.0949 19.0408 25.3012 18.8323 25.4866 18.6106L26.5627 18.9046C26.8358 18.5239 27.0657 18.1178 27.2471 17.6935L26.4356 16.9275C26.5306 16.6538 26.6046 16.3722 26.6544 16.0841L27.7351 15.8031Z"/>
</mask>
<path d="M17.1763 15.088L17.4762 15.0942L17.4762 15.0944L17.1763 15.088ZM21.4192 11.0387L21.4131 11.3387L21.4129 11.3387L21.4192 11.0387ZM25.4885 15.2614L25.7885 15.2676L25.7885 15.2678L25.4885 15.2614ZM27.7207 14.4121L27.7901 14.1202L27.994 14.1687L28.0186 14.3768L27.7207 14.4121ZM26.636 14.1539L26.5666 14.4458L26.3794 14.4012L26.3418 14.2125L26.636 14.1539ZM26.3976 13.3124L26.1157 13.415L26.0496 13.2335L26.1875 13.0982L26.3976 13.3124ZM27.1921 12.5328L27.4651 12.4084L27.5523 12.5997L27.4022 12.7469L27.1921 12.5328ZM26.8679 11.9135L26.6106 12.0678L26.6099 12.0667L26.8679 11.9135ZM26.4795 11.3353L26.394 11.0478L26.5933 10.9885L26.7188 11.1543L26.4795 11.3353ZM25.4099 11.6534L25.4955 11.941L25.3104 11.996L25.1836 11.8503L25.4099 11.6534ZM24.7831 11.0407L24.5921 11.272L24.4421 11.1482L24.494 10.9607L24.7831 11.0407ZM25.0792 9.97036L25.253 9.72582L25.4244 9.84764L25.3683 10.0503L25.0792 9.97036ZM23.8609 9.28783L23.6434 9.08124L23.7869 8.93008L23.9787 9.0119L23.8609 9.28783ZM23.0933 10.0961L23.3108 10.3027L23.1781 10.4425L22.9958 10.3799L23.0933 10.0961ZM22.2445 9.87844L22.1936 10.1741L22.0035 10.1414L21.9543 9.95484L22.2445 9.87844ZM21.9608 8.80155L21.9895 8.50292L22.1977 8.52287L22.251 8.72514L21.9608 8.80155ZM20.5658 8.81918L20.2742 8.74851L20.3231 8.54684L20.529 8.52144L20.5658 8.81918ZM20.3044 9.89735L20.596 9.96801L20.5505 10.1555L20.3611 10.192L20.3044 9.89735ZM19.4608 10.1346L19.5646 10.4161L19.3838 10.4827L19.248 10.346L19.4608 10.1346ZM18.6762 9.34454L18.5525 9.07121L18.7423 8.98537L18.889 9.13314L18.6762 9.34454ZM18.0546 9.66525L18.2078 9.92319L18.2063 9.92406L18.0546 9.66525ZM17.4736 10.0505L17.1862 10.1363L17.1259 9.93425L17.2956 9.80908L17.4736 10.0505ZM17.792 11.117L18.0794 11.0312L18.1347 11.2164L17.9888 11.3433L17.792 11.117ZM17.177 11.7407L17.4074 11.9329L17.2839 12.081L17.0979 12.0301L17.177 11.7407ZM16.1015 11.4468L15.8581 11.2714L15.9798 11.1025L16.1806 11.1574L16.1015 11.4468ZM15.4157 12.6573L15.21 12.8756L15.0569 12.7314L15.1403 12.5383L15.4157 12.6573ZM16.2272 13.4219L16.433 13.2035L16.5743 13.3367L16.5107 13.5202L16.2272 13.4219ZM16.0098 14.2667L16.3051 14.3194L16.2714 14.5084L16.0856 14.5569L16.0098 14.2667ZM14.9291 14.5489L14.6305 14.5196L14.651 14.3115L14.8533 14.2587L14.9291 14.5489ZM14.9442 15.9393L14.8751 16.2313L14.6712 16.183L14.6463 15.9751L14.9442 15.9393ZM16.0294 16.1962L16.0985 15.9042L16.2867 15.9488L16.3238 16.1385L16.0294 16.1962ZM16.2659 17.039L16.5476 16.936L16.614 17.1176L16.4761 17.253L16.2659 17.039ZM15.4721 17.8186L15.1987 17.9423L15.1124 17.7514L15.2619 17.6046L15.4721 17.8186ZM15.7943 18.4353L16.0515 18.2809L16.0522 18.282L15.7943 18.4353ZM16.1827 19.0154L16.268 19.3031L16.0681 19.3623L15.9429 19.1957L16.1827 19.0154ZM17.2536 18.698L17.1683 18.4104L17.3527 18.3557L17.4793 18.5004L17.2536 18.698ZM17.8804 19.31L18.0725 19.0796L18.2208 19.2033L18.1697 19.3895L17.8804 19.31ZM17.5863 20.3811L17.4123 20.6255L17.2415 20.5039L17.297 20.3017L17.5863 20.3811ZM18.8013 21.0622L19.0185 21.2692L18.8753 21.4194L18.6843 21.3385L18.8013 21.0622ZM19.5702 20.2552L19.353 20.0483L19.4859 19.9088L19.6681 19.9716L19.5702 20.2552ZM20.4197 20.4717L20.4695 20.1758L20.6606 20.208L20.7099 20.3954L20.4197 20.4717ZM20.7027 21.5479L20.6744 21.8465L20.4658 21.8268L20.4125 21.6241L20.7027 21.5479ZM22.0991 21.5335L22.3908 21.6032L22.3422 21.8068L22.1344 21.8314L22.0991 21.5335ZM22.3571 20.4534L22.0653 20.3837L22.1103 20.1952L22.3006 20.1588L22.3571 20.4534ZM23.202 20.2161L23.0981 19.9347L23.2787 19.868L23.4146 20.0045L23.202 20.2161ZM23.9893 21.0068L24.1112 21.2809L23.9225 21.3649L23.7767 21.2185L23.9893 21.0068ZM24.6089 20.6861L24.4563 20.4278L24.4569 20.4275L24.6089 20.6861ZM25.1899 20.2989L25.4773 20.213L25.5373 20.4135L25.3697 20.539L25.1899 20.2989ZM24.8715 19.2344L24.5841 19.3204L24.5286 19.1347L24.6751 19.0077L24.8715 19.2344ZM25.4866 18.6106L25.2564 18.4182L25.3799 18.2705L25.5656 18.3212L25.4866 18.6106ZM26.5627 18.9046L26.8064 19.0795L26.6848 19.249L26.4836 19.194L26.5627 18.9046ZM27.2471 17.6935L27.453 17.4753L27.6053 17.619L27.523 17.8114L27.2471 17.6935ZM26.4356 16.9275L26.2297 17.1457L26.0886 17.0125L26.1522 16.8292L26.4356 16.9275ZM26.6544 16.0841L26.3588 16.033L26.3917 15.8424L26.5789 15.7937L26.6544 16.0841ZM21.2387 19.6113C18.782 19.5596 16.8243 17.5296 16.8764 15.0817L17.4762 15.0944C17.4313 17.2082 19.1232 18.9667 21.2513 19.0115L21.2387 19.6113ZM16.8764 15.0818C16.927 12.6339 18.9688 10.6871 21.4255 10.7388L21.4129 11.3387C19.2848 11.2939 17.5199 12.9805 17.4762 15.0942L16.8764 15.0818ZM21.4253 10.7388C23.881 10.7891 25.8391 12.82 25.7885 15.2676L25.1886 15.2552C25.2323 13.1412 23.5396 11.3822 21.4131 11.3387L21.4253 10.7388ZM25.7885 15.2678C25.7364 17.7155 23.6954 19.6623 21.2387 19.6113L21.2512 19.0114C23.3793 19.0556 25.1437 17.369 25.1886 15.2551L25.7885 15.2678ZM27.4365 15.7738C27.4796 15.3345 27.4752 14.8907 27.4228 14.4473L28.0186 14.3768C28.0761 14.8629 28.081 15.35 28.0336 15.8324L27.4365 15.7738ZM27.6512 14.7039L26.5666 14.4458L26.7055 13.8621L27.7901 14.1202L27.6512 14.7039ZM26.3418 14.2125C26.2888 13.9463 26.212 13.6794 26.1157 13.415L26.6795 13.2097C26.785 13.4994 26.8706 13.7958 26.9303 14.0953L26.3418 14.2125ZM26.1875 13.0982L26.982 12.3186L27.4022 12.7469L26.6077 13.5265L26.1875 13.0982ZM26.9191 12.6571C26.8277 12.4565 26.7255 12.2593 26.6106 12.0678L27.1252 11.7592C27.2527 11.9718 27.3652 12.1892 27.4651 12.4084L26.9191 12.6571ZM26.6099 12.0667C26.4964 11.8755 26.373 11.6918 26.2402 11.5163L26.7188 11.1543C26.865 11.3478 27.001 11.55 27.1259 11.7603L26.6099 12.0667ZM26.565 11.6229L25.4955 11.941L25.3244 11.3658L26.394 11.0478L26.565 11.6229ZM25.1836 11.8503C24.9994 11.6386 24.8022 11.4456 24.5921 11.272L24.9742 10.8094C25.2107 11.0048 25.4314 11.221 25.6363 11.4565L25.1836 11.8503ZM24.494 10.9607L24.79 9.89039L25.3683 10.0503L25.0723 11.1207L24.494 10.9607ZM24.9054 10.2149C24.5404 9.95554 24.1512 9.73786 23.7432 9.56375L23.9787 9.0119C24.4261 9.20283 24.8529 9.44154 25.253 9.72582L24.9054 10.2149ZM24.0785 9.49441L23.3108 10.3027L22.8758 9.88956L23.6434 9.08124L24.0785 9.49441ZM22.9958 10.3799C22.7337 10.2898 22.4657 10.2209 22.1936 10.1741L22.2953 9.58278C22.5996 9.63509 22.8988 9.71212 23.1908 9.81242L22.9958 10.3799ZM21.9543 9.95484L21.6707 8.87795L22.251 8.72514L22.5346 9.80204L21.9543 9.95484ZM21.9322 9.10018C21.4909 9.05787 21.0452 9.06232 20.6025 9.11692L20.529 8.52144C21.0164 8.46132 21.506 8.45657 21.9895 8.50292L21.9322 9.10018ZM20.8573 8.88985L20.596 9.96801L20.0129 9.82668L20.2742 8.74851L20.8573 8.88985ZM20.3611 10.192C20.0936 10.2434 19.8283 10.3189 19.5646 10.4161L19.3571 9.8531C19.6487 9.74563 19.9455 9.66084 20.2478 9.60274L20.3611 10.192ZM19.248 10.346L18.4633 9.55595L18.889 9.13314L19.6737 9.92319L19.248 10.346ZM18.7998 9.61788C18.5985 9.70895 18.3992 9.80952 18.2078 9.92319L17.9014 9.40731C18.1161 9.2798 18.336 9.16918 18.5525 9.07121L18.7998 9.61788ZM18.2063 9.92406C18.0145 10.0365 17.8294 10.1609 17.6517 10.2919L17.2956 9.80908C17.4873 9.66765 17.69 9.53124 17.9029 9.40644L18.2063 9.92406ZM17.7611 9.9647L18.0794 11.0312L17.5045 11.2028L17.1862 10.1363L17.7611 9.9647ZM17.9888 11.3433C17.7762 11.5283 17.5813 11.7242 17.4074 11.9329L16.9465 11.5486C17.1433 11.3127 17.3611 11.0941 17.5951 10.8906L17.9888 11.3433ZM17.0979 12.0301L16.0224 11.7362L16.1806 11.1574L17.2561 11.4514L17.0979 12.0301ZM16.3449 11.6221C16.0841 11.9841 15.8661 12.3713 15.6911 12.7763L15.1403 12.5383C15.3321 12.0945 15.5713 11.6695 15.8581 11.2714L16.3449 11.6221ZM15.6215 12.4389L16.433 13.2035L16.0215 13.6402L15.21 12.8756L15.6215 12.4389ZM16.5107 13.5202C16.4209 13.7792 16.3538 14.0466 16.3051 14.3194L15.7145 14.2139C15.7679 13.9144 15.8424 13.616 15.9438 13.3236L16.5107 13.5202ZM16.0856 14.5569L15.0049 14.8392L14.8533 14.2587L15.934 13.9764L16.0856 14.5569ZM15.2277 14.5782C15.1846 15.0169 15.1889 15.4611 15.242 15.9036L14.6463 15.9751C14.588 15.4893 14.5832 15.0014 14.6305 14.5196L15.2277 14.5782ZM15.0132 15.6474L16.0985 15.9042L15.9604 16.4881L14.8751 16.2313L15.0132 15.6474ZM16.3238 16.1385C16.3764 16.4066 16.4513 16.6723 16.5476 16.936L15.9841 17.142C15.8775 16.8503 15.7939 16.5542 15.735 16.2539L16.3238 16.1385ZM16.4761 17.253L15.6823 18.0327L15.2619 17.6046L16.0557 16.825L16.4761 17.253ZM15.7454 17.6949C15.8359 17.8951 15.9374 18.0907 16.0515 18.2809L15.5371 18.5897C15.4102 18.3783 15.2981 18.162 15.1987 17.9423L15.7454 17.6949ZM16.0522 18.282C16.1673 18.4756 16.2909 18.6602 16.4225 18.8352L15.9429 19.1957C15.7981 19.0031 15.6624 18.8004 15.5364 18.5886L16.0522 18.282ZM16.0974 18.7278L17.1683 18.4104L17.3388 18.9856L16.268 19.3031L16.0974 18.7278ZM17.4793 18.5004C17.6634 18.7108 17.8624 18.9045 18.0725 19.0796L17.6883 19.5405C17.4543 19.3454 17.2328 19.1297 17.0278 18.8956L17.4793 18.5004ZM18.1697 19.3895L17.8756 20.4605L17.297 20.3017L17.5911 19.2306L18.1697 19.3895ZM17.7603 20.1367C18.1249 20.3962 18.5126 20.6142 18.9183 20.786L18.6843 21.3385C18.2372 21.1491 17.8114 20.9096 17.4123 20.6255L17.7603 20.1367ZM18.5841 20.8553L19.353 20.0483L19.7874 20.4622L19.0185 21.2692L18.5841 20.8553ZM19.6681 19.9716C19.9302 20.0621 20.1951 20.1297 20.4695 20.1758L20.37 20.7675C20.0628 20.7159 19.7657 20.64 19.4724 20.5388L19.6681 19.9716ZM20.7099 20.3954L20.9928 21.4716L20.4125 21.6241L20.1296 20.5479L20.7099 20.3954ZM20.7309 21.2492C21.172 21.291 21.6196 21.2884 22.0637 21.2356L22.1344 21.8314C21.6458 21.8895 21.1555 21.8921 20.6744 21.8465L20.7309 21.2492ZM21.8073 21.4638L22.0653 20.3837L22.6489 20.5231L22.3908 21.6032L21.8073 21.4638ZM22.3006 20.1588C22.5689 20.1073 22.8354 20.0318 23.0981 19.9347L23.306 20.4976C23.0146 20.6052 22.7164 20.69 22.4136 20.748L22.3006 20.1588ZM23.4146 20.0045L24.2019 20.7952L23.7767 21.2185L22.9894 20.4278L23.4146 20.0045ZM23.8674 20.7327C24.0657 20.6445 24.2625 20.5423 24.4563 20.4278L24.7615 20.9444C24.5492 21.0698 24.332 21.1827 24.1112 21.2809L23.8674 20.7327ZM24.4569 20.4275C24.6498 20.3141 24.8331 20.1913 25.01 20.0588L25.3697 20.539C25.1759 20.6842 24.9741 20.8195 24.7609 20.9448L24.4569 20.4275ZM24.9024 20.3848L24.5841 19.3204L25.159 19.1485L25.4773 20.213L24.9024 20.3848ZM24.6751 19.0077C24.887 18.824 25.0819 18.6269 25.2564 18.4182L25.7167 18.8031C25.5205 19.0377 25.3028 19.2576 25.068 19.4611L24.6751 19.0077ZM25.5656 18.3212L26.6417 18.6152L26.4836 19.194L25.4075 18.9L25.5656 18.3212ZM26.3189 18.7297C26.5796 18.3663 26.7987 17.9793 26.9713 17.5755L27.523 17.8114C27.3327 18.2564 27.092 18.6815 26.8064 19.0795L26.3189 18.7297ZM27.0412 17.9116L26.2297 17.1457L26.6415 16.7094L27.453 17.4753L27.0412 17.9116ZM26.1522 16.8292C26.2421 16.57 26.3119 16.3042 26.3588 16.033L26.95 16.1352C26.8973 16.4401 26.8191 16.7375 26.719 17.0259L26.1522 16.8292ZM26.5789 15.7937L27.6596 15.5128L27.8106 16.0934L26.7299 16.3744L26.5789 15.7937Z" fill="#515151" mask="url(#path-5-inside-2_1914_107818)"/>
<path d="M13.1315 8.44467C13.1315 10.9954 11.0467 13.0708 8.48315 13.0708C5.9196 13.0708 3.83417 10.9954 3.83417 8.44467C3.83417 5.89333 5.9196 3.81786 8.48315 3.81786C11.0467 3.81786 13.1315 5.89333 13.1315 8.44467ZM3.47656 8.44467C3.47656 11.1922 5.72245 13.4268 8.48315 13.4268C11.2439 13.4268 13.4898 11.1922 13.4898 8.44467C13.4898 5.69712 11.2439 3.46189 8.48315 3.46189C5.72245 3.46189 3.47656 5.69712 3.47656 8.44467Z" fill="#515151"/>
<path d="M17.1767 15.0882C17.1283 17.3691 18.953 19.2633 21.2454 19.3116C23.5378 19.3592 25.4405 17.5425 25.489 15.2616C25.5361 12.9808 23.7107 11.0859 21.4196 11.0389C19.1272 10.9907 17.2239 12.8074 17.1767 15.0882M25.316 15.2583C25.2702 17.444 23.4454 19.1857 21.2487 19.1395C19.0526 19.0938 17.3025 17.2778 17.3483 15.0915C17.3942 12.9052 19.2189 11.1641 21.415 11.2104C23.6131 11.256 25.3626 13.072 25.316 15.2583Z" stroke="#515151" stroke-width="0.2"/>
</svg>
