<svg width="22" height="22" viewBox="0 0 22 22" fill="none" xmlns="http://www.w3.org/2000/svg">
<path d="M0.738281 7.99163C0.738281 13.3348 4.55697 18.1097 10.4617 20.8424V0.63031H3.31742L0.738281 3.26068V7.99163Z" stroke="#F4A72A"/>
<mask id="path-2-inside-1_1908_109902" fill="white">
<path d="M10.9609 21.6101C17.3723 18.8914 21.685 13.811 21.685 7.9916V3.01707L18.8151 0.130274H10.9609V21.6101Z"/>
</mask>
<path d="M21.685 3.01707L22.3942 2.31204L22.685 2.60458V3.01707H21.685ZM18.8151 0.130274V-0.869726H19.231L19.5243 -0.574757L18.8151 0.130274ZM10.9609 0.130274H9.96094V-0.869726H10.9609V0.130274ZM10.5705 20.6895C16.7576 18.0658 20.685 13.2724 20.685 7.9916H22.685C22.685 14.3497 17.9869 19.717 11.3513 22.5308L10.5705 20.6895ZM20.685 7.9916V3.01707H22.685V7.9916H20.685ZM20.9758 3.72211L18.1059 0.835304L19.5243 -0.574757L22.3942 2.31204L20.9758 3.72211ZM18.8151 1.13027H10.9609V-0.869726H18.8151V1.13027ZM11.9609 0.130274V21.6101H9.96094V0.130274H11.9609Z" fill="#515151" mask="url(#path-2-inside-1_1908_109902)"/>
</svg>
