<svg width="22" height="22" viewBox="0 0 22 22" fill="none" xmlns="http://www.w3.org/2000/svg">
<g clip-path="url(#clip0_1879_102511)">
<path fill-rule="evenodd" clip-rule="evenodd" d="M5.76343 13.7169L8.48043 10.9999L5.76343 8.28293C5.68237 8.2074 5.61736 8.11632 5.57227 8.01512C5.52718 7.91392 5.50293 7.80468 5.50098 7.6939C5.49902 7.58313 5.5194 7.4731 5.56089 7.37037C5.60239 7.26764 5.66415 7.17433 5.74249 7.09599C5.82083 7.01765 5.91414 6.95589 6.01687 6.91439C6.1196 6.8729 6.22963 6.85252 6.3404 6.85448C6.45118 6.85643 6.56042 6.88068 6.66162 6.92577C6.76282 6.97086 6.8539 7.03587 6.92943 7.11693L10.2294 10.4169C10.3839 10.5716 10.4707 10.7813 10.4707 10.9999C10.4707 11.2186 10.3839 11.4282 10.2294 11.5829L6.92943 14.8829C6.8539 14.964 6.76282 15.029 6.66162 15.0741C6.56042 15.1192 6.45118 15.1434 6.3404 15.1454C6.22963 15.1473 6.1196 15.127 6.01687 15.0855C5.91414 15.044 5.82083 14.9822 5.74249 14.9039C5.66415 14.8255 5.60239 14.7322 5.56089 14.6295C5.5194 14.5268 5.49902 14.4167 5.50098 14.306C5.50293 14.1952 5.52718 14.0859 5.57227 13.9847C5.61736 13.8835 5.68237 13.7925 5.76343 13.7169Z" fill="#515151"/>
<path fill-rule="evenodd" clip-rule="evenodd" d="M1.925 0C1.41446 0 0.924827 0.202812 0.56382 0.56382C0.202812 0.924827 0 1.41446 0 1.925V20.075C0 21.1376 0.8624 22 1.925 22H20.075C20.5855 22 21.0752 21.7972 21.4362 21.4362C21.7972 21.0752 22 20.5855 22 20.075V1.925C22 1.41446 21.7972 0.924827 21.4362 0.56382C21.0752 0.202812 20.5855 0 20.075 0H1.925ZM1.65 1.925C1.65 1.85207 1.67897 1.78212 1.73055 1.73055C1.78212 1.67897 1.85207 1.65 1.925 1.65H14.3V20.35H1.925C1.85207 20.35 1.78212 20.321 1.73055 20.2695C1.67897 20.2179 1.65 20.1479 1.65 20.075V1.925ZM15.95 20.35V1.65H20.075C20.1479 1.65 20.2179 1.67897 20.2695 1.73055C20.321 1.78212 20.35 1.85207 20.35 1.925V20.075C20.35 20.1479 20.321 20.2179 20.2695 20.2695C20.2179 20.321 20.1479 20.35 20.075 20.35H15.95Z" fill="#515151"/>
</g>
<defs>
<clipPath id="clip0_1879_102511">
<rect width="22" height="22" fill="white"/>
</clipPath>
</defs>
</svg>
