<svg width="214" height="210" viewBox="0 0 214 210" fill="none" xmlns="http://www.w3.org/2000/svg">
<path d="M32.0757 84.6464C30.8517 85.4068 29.4921 85.9877 28.0147 86.3464C24.195 87.2796 20.3628 86.5627 17.2663 84.6405C14.2378 82.7676 11.9075 79.7453 10.9928 76.0119C9.15086 68.4527 13.7742 60.8316 21.3334 58.9901C28.8862 57.1416 36.5073 61.7713 38.3553 69.3306C39.8387 75.4126 37.1255 81.5314 32.0757 84.6464Z" fill="#E7E8E5"/>
<path d="M28.9557 71.0589C28.9557 73.4255 27.0372 75.3438 24.6708 75.3438C22.3042 75.3438 20.3857 73.4255 20.3857 71.0589C20.3857 68.6923 22.3042 66.774 24.6708 66.774C27.0372 66.774 28.9557 68.6923 28.9557 71.0589Z" fill="white"/>
<path d="M32.0755 82.8787V84.6464C30.8515 85.4068 29.4919 85.9877 28.0144 86.3464C24.1947 87.2796 20.3626 86.5627 17.2661 84.6405V82.8787C17.2661 78.7996 20.579 75.4743 24.6708 75.4743C28.7624 75.4743 32.0755 78.7996 32.0755 82.8787Z" fill="white"/>
<path d="M14.92 15.7729C16.3302 13.1432 19.6098 12.1532 22.2396 13.5637C24.8696 14.9742 25.8546 18.2511 24.4443 20.8809C23.0341 23.5111 19.7615 24.4986 17.1319 23.0881C14.5019 21.678 13.5095 18.4031 14.92 15.7729ZM13.2674 26.1851C13.7727 25.8722 14.4046 25.8897 14.9133 26.1971C15.0515 26.2803 15.1924 26.3605 15.3357 26.4372C15.4805 26.5149 15.6261 26.5882 15.7726 26.658C16.3083 26.9106 16.6714 27.4257 16.6897 28.0176L16.7525 30.042L23.346 29.8372L23.2838 27.8139C23.2655 27.22 23.5905 26.6764 24.1119 26.3914C24.399 26.2349 24.6781 26.0625 24.948 25.8747C25.434 25.5374 26.0638 25.4906 26.5852 25.7701L28.3655 26.7247L31.4841 20.9093L29.7041 19.9546C29.1827 19.6751 28.8734 19.1246 28.8855 18.5332C28.8925 18.2043 28.8816 17.8765 28.8534 17.5506C28.8018 16.9587 29.075 16.3872 29.5799 16.0738L31.2998 15.0066L27.8224 9.40042L26.0932 10.4716C25.5903 10.783 24.9616 10.7656 24.4552 10.4597C24.3175 10.376 24.1765 10.2958 24.0333 10.2195C23.89 10.1423 23.7454 10.0696 23.5994 10.0008C23.0619 9.7467 22.698 9.23002 22.68 8.63562L22.619 6.60978L16.0253 6.81456L16.0893 8.83343C16.108 9.42683 15.7837 9.9709 15.2627 10.2559C14.9751 10.4138 14.695 10.5872 14.4241 10.7756C13.9379 11.1139 13.3075 11.1612 12.7855 10.8812L11.0061 9.92706L7.88721 15.7425L9.66687 16.6966C10.1886 16.9767 10.4981 17.5282 10.4852 18.1201C10.4781 18.4499 10.4884 18.7793 10.5164 19.1066C10.5672 19.6985 10.2934 20.269 9.78849 20.5819L8.07171 21.6457L11.5489 27.2514L13.2674 26.1851Z" fill="#E7E8E5"/>
<path d="M192.645 137.87C192.645 135.779 194.342 134.082 196.432 134.082C198.523 134.082 200.216 135.779 200.216 137.87C200.216 139.96 198.523 141.653 196.432 141.653C194.342 141.653 192.645 139.96 192.645 137.87ZM195.072 144.845C195.28 144.484 195.676 144.286 196.092 144.307C196.205 144.313 196.319 144.315 196.432 144.315C196.547 144.315 196.662 144.313 196.775 144.307C197.19 144.286 197.584 144.484 197.791 144.843L198.5 146.072L202.503 143.762L201.795 142.534C201.587 142.174 201.608 141.73 201.836 141.381C201.961 141.19 202.076 140.991 202.18 140.786C202.369 140.417 202.742 140.179 203.156 140.179H204.572V135.556H203.156C202.742 135.556 202.369 135.319 202.18 134.95C202.076 134.744 201.961 134.545 201.836 134.354C201.608 134.005 201.587 133.562 201.795 133.201L202.503 131.973L198.5 129.663L197.787 130.897C197.58 131.256 197.186 131.453 196.773 131.432C196.659 131.426 196.546 131.424 196.432 131.424C196.319 131.424 196.205 131.426 196.092 131.432C195.676 131.453 195.28 131.255 195.073 130.894L194.364 129.663L190.361 131.973L191.069 133.198C191.277 133.558 191.257 134.001 191.03 134.35C190.904 134.543 190.789 134.742 190.684 134.949C190.496 135.318 190.123 135.556 189.707 135.556H188.293V140.179H189.707C190.123 140.179 190.496 140.417 190.684 140.787C190.789 140.993 190.904 141.193 191.03 141.385C191.257 141.734 191.277 142.177 191.069 142.537L190.361 143.762L194.364 146.072L195.072 144.845Z" fill="#E7E8E5"/>
<path d="M37.1434 35.5019C39.234 35.5019 40.931 37.1989 40.931 39.289C40.931 41.3796 39.234 43.0731 37.1434 43.0731C35.0527 43.0731 33.3595 41.3796 33.3595 39.289C33.3595 37.1989 35.0527 35.5019 37.1434 35.5019ZM30.1678 37.9288C30.5287 38.137 30.727 38.5331 30.7058 38.9487C30.7002 39.0618 30.6972 39.1754 30.6972 39.289C30.6972 39.4046 30.7002 39.5187 30.7058 39.6318C30.7268 40.0463 30.5293 40.4409 30.1698 40.6487L28.9409 41.3572L31.2506 45.3605L32.479 44.652C32.8394 44.4443 33.2828 44.4647 33.6314 44.6924C33.8231 44.8174 34.0218 44.933 34.2269 45.0377C34.5963 45.226 34.8338 45.5992 34.8338 46.0137V47.4287H39.4567V46.0137C39.4567 45.5992 39.6942 45.226 40.0636 45.0377C40.2687 44.933 40.4676 44.8174 40.6593 44.6924C41.0077 44.4647 41.451 44.4443 41.8115 44.652L43.0402 45.3605L45.3497 41.3572L44.1159 40.6447C43.757 40.4374 43.5598 40.0433 43.581 39.6293C43.5867 39.5167 43.5896 39.4031 43.5896 39.289C43.5896 39.1754 43.5867 39.0618 43.581 38.9487C43.5596 38.5331 43.7583 38.137 44.1191 37.9293L45.3497 37.2208L43.0402 33.2179L41.8148 33.9259C41.4546 34.1342 41.0114 34.1138 40.663 33.8866C40.4703 33.761 40.2706 33.6459 40.0643 33.5408C39.6945 33.3529 39.4567 32.9793 39.4567 32.5642V31.1497H34.8338V32.5642C34.8338 32.9793 34.5959 33.3529 34.226 33.5408C34.0199 33.6459 33.82 33.761 33.6275 33.8866C33.2789 34.1143 32.8358 34.1342 32.4755 33.9259L31.2506 33.2179L28.9409 37.2208L30.1678 37.9288Z" fill="#E7E8E5"/>
<path d="M203.926 36.1641H176.3V2.65397H203.926V36.1641Z" fill="#E7E8E5"/>
<path d="M200.769 33.1064H179.457V5.71324H200.769V33.1064Z" fill="white"/>
<path d="M180.288 33.1064H179.457V5.71324H180.288V33.1064Z" fill="#BEBFBD"/>
<path d="M204.757 36.1641H203.925V2.65397H204.757V36.1641Z" fill="#BEBFBD"/>
<path d="M190.588 12.047H195.614V27.0186H190.588V12.047Z" fill="#E7E8E5"/>
<path d="M184.406 9.49002V9.73914H197.557V16.576H184.655V9.49002H184.406V9.73914V9.49002H184.157V17.0742H198.055V9.2409H184.157V9.49002H184.406Z" fill="#E7E8E5"/>
<path d="M176.3 118.746H203.926V85.2365H176.3V118.746Z" fill="#E7E8E5"/>
<path d="M179.457 115.688H200.769V88.2942H179.457V115.688Z" fill="white"/>
<path d="M180.288 115.688H179.457V88.2943H180.288V115.688Z" fill="#BEBFBD"/>
<path d="M204.757 118.746H203.926V85.2365H204.757V118.746Z" fill="#BEBFBD"/>
<path d="M186.599 109.601H191.624V94.6291H186.599V109.601Z" fill="#E7E8E5"/>
<path d="M197.806 92.0706V91.8215H184.157V99.6553H198.055V91.8215H197.806V92.0706H197.557V99.157H184.655V92.3197H197.806V92.0706H197.557H197.806Z" fill="#E7E8E5"/>
<path d="M203.926 77.6064H176.3V44.0969H203.926V77.6064Z" fill="#E7E8E5"/>
<path d="M200.769 74.5479H179.457V47.1546H200.769V74.5479Z" fill="white"/>
<path d="M180.288 74.5479H179.457V47.1546H180.288V74.5479Z" fill="#BEBFBD"/>
<path d="M204.757 77.6064H203.926V44.0969H204.757V77.6064Z" fill="#BEBFBD"/>
<path d="M192.354 65.1211H188.049V54.2356H192.354V65.1211Z" fill="#E7E8E5"/>
<path d="M196.887 68.3554V68.1063H185.571V61.1005H196.638V68.3554H196.887V68.1063V68.3554H197.137V60.6023H185.073V68.6045H197.137V68.3554H196.887Z" fill="#D4D6D3"/>
<path d="M48.4961 150.988H56.9573V132.253H48.4961V150.988Z" fill="#D4D6D3"/>
<path d="M21.3499 196.231V196.418H56.9221V178.181H21.1631V196.418H21.3499V196.231H21.5368V178.555H56.5485V196.044H21.3499V196.231H21.5368H21.3499Z" fill="#D4D6D3"/>
<path d="M37.0122 186.95H44.0407V183.394H37.0122V186.95Z" fill="#D4D6D3"/>
<path d="M34.9349 186.681V186.868H42.1502V183.474H34.748V186.868H34.9349V186.681H35.1217V183.848H41.7765V186.494H34.9349V186.681H35.1217H34.9349Z" fill="#D4D6D3"/>
<path d="M48.4961 174.188H56.9573V155.454H48.4961V174.188Z" fill="#D4D6D3"/>
<path d="M17.8833 172.94C17.8833 172.94 21.9482 158.351 25.1946 153.396C28.4407 148.44 34.4916 142.997 34.4916 142.997C34.4916 142.997 34.3497 165.492 17.8833 172.94Z" fill="#F4A72A"/>
<path d="M18.1747 172.691C19.5674 170.427 20.7506 168.039 21.8803 165.622C22.3804 163.033 22.9889 160.426 23.899 157.95C23.9164 157.903 23.9817 157.929 23.9708 157.975C23.4313 160.28 22.8039 162.565 22.234 164.863C23.8749 161.312 25.4344 157.716 27.389 154.359C27.7839 152.733 28.5315 151.168 29.2732 149.691C29.2946 149.648 29.3656 149.671 29.3448 149.716C28.823 150.859 28.448 152.036 28.0769 153.218C29.0009 151.733 30.0138 150.301 31.1651 148.952C31.2364 148.869 31.3786 148.961 31.3086 149.051C28.6954 152.386 26.8917 156.179 25.1738 160.021C27.0303 158.036 28.7191 155.864 30.2743 153.646L30.3102 153.671C28.7045 156.224 26.8552 158.513 24.8484 160.751C23.5971 163.566 22.3671 166.392 20.8755 169.069C23.8562 166.55 26.1485 163.29 28.418 160.145C28.469 160.074 28.5782 160.149 28.5299 160.222C26.2596 163.673 23.9103 166.923 20.6439 169.479C19.976 170.649 19.2609 171.793 18.4616 172.888C18.3292 173.07 18.0574 172.882 18.1747 172.691Z" fill="#17282F"/>
<path d="M17.111 172.961C17.111 172.961 24.4175 159.508 22.295 146.465C20.1724 133.421 17.8998 128.777 17.8998 128.777C17.8998 128.777 6.41455 149.064 17.111 172.961Z" fill="#F4A72A"/>
<path d="M14.1116 151.812C14.6947 155.578 15.7175 159.104 16.9321 162.675C16.9523 157.888 17.0436 153.101 17.1717 148.315C16.3303 145.405 15.9078 142.426 15.7928 139.401C15.7893 139.312 15.9214 139.317 15.9284 139.403C16.1449 142.006 16.602 144.547 17.2085 147.074C17.3194 143.125 17.4502 139.177 17.5938 135.23C17.5964 135.164 17.6972 135.165 17.6972 135.232C17.6911 141.4 17.6945 147.569 17.6555 153.737C18.5985 151.361 19.1897 148.916 19.762 146.409L19.8044 146.416C19.585 149.296 18.7092 152.082 17.6479 154.755C17.6195 158.698 17.5769 162.641 17.4892 166.582C18.725 162.391 20.0453 158.331 20.4031 153.902C20.4077 153.843 20.4965 153.844 20.4953 153.903C20.3984 158.789 19.1394 163.747 17.5283 168.34C17.5101 168.392 17.4804 168.428 17.4467 168.456C17.4099 169.897 17.3692 171.338 17.3206 172.779C17.3136 172.985 17.0039 172.979 17 172.773C16.943 169.825 16.923 166.877 16.928 163.928C15.2866 160.14 14.4131 155.914 14.0474 151.819L14.1116 151.812Z" fill="#17282F"/>
<path d="M14.6122 149.731C14.8437 150.886 15.0606 152.107 15.1224 153.285L15.0529 153.293C14.7504 152.152 14.5854 150.922 14.4517 149.749C14.4412 149.658 14.5943 149.641 14.6122 149.731Z" fill="#17282F"/>
<path d="M18.8842 139.897L18.9535 139.908C18.9637 140.716 18.8004 141.582 18.5871 142.359C18.5693 142.424 18.4753 142.394 18.488 142.33C18.6474 141.521 18.7459 140.708 18.8842 139.897Z" fill="#17282F"/>
<path d="M14.4414 172.961C14.4414 172.961 14.7393 158.918 10.7106 151.938C6.68184 144.957 0 141.4 0 141.4C0 141.4 2.69438 166.155 14.4414 172.961Z" fill="#F4A72A"/>
<path d="M7.09925 160.951C8.79287 163.39 10.4754 165.74 12.5509 167.861C11.7469 164.99 10.8129 162.169 9.76229 159.392C7.50387 157.412 5.26394 155.36 3.87842 152.65L3.9442 152.612C5.43384 155.011 7.42625 156.932 9.52254 158.779C7.91358 154.608 6.04204 150.538 3.91481 146.567C3.86051 146.465 4.00784 146.379 4.06857 146.476C5.35895 148.546 6.52942 150.689 7.58484 152.886C7.20727 151.385 6.90559 149.85 6.5187 148.36L6.58253 148.342C7.297 150.219 8.00779 152.293 8.23683 154.298C9.6461 157.411 10.8332 160.625 11.7835 163.908C11.6798 161.803 11.5478 159.707 11.3306 157.608L11.4007 157.598C11.8376 159.929 12.0663 162.3 12.0108 164.672C12.5916 166.764 13.0803 168.882 13.4722 171.016C13.4827 171.073 13.3981 171.098 13.3841 171.04C13.1655 170.146 12.9277 169.259 12.6852 168.374L12.6395 168.356C10.4784 166.191 8.42641 163.724 7.07728 160.964L7.09925 160.951Z" fill="#17282F"/>
<path d="M2.43152 149.525C2.8809 150.01 3.29234 150.52 3.72597 151.019C4.10918 151.461 4.57706 151.877 4.88573 152.374L4.85459 152.405C4.33475 152.075 3.91845 151.542 3.5148 151.083C3.08935 150.599 2.70691 150.121 2.36768 149.575L2.43152 149.525Z" fill="#17282F"/>
<path d="M25.9275 173.989L25.4197 180.641L23.8892 200.749H10.5442L9.01362 180.641L8.50586 173.989C9.07301 173.989 17.2149 173.989 17.2149 173.989C17.2149 173.989 25.3606 173.989 25.9275 173.989Z" fill="#273E47"/>
<path d="M25.9275 173.989L25.6188 178.033L8.86589 178.705L8.50586 173.989C9.07301 173.989 17.2149 173.989 17.2149 173.989C17.2149 173.989 25.3606 173.989 25.9275 173.989Z" fill="#17282F"/>
<path d="M7.31982 175.824H27.1128V170.724H7.31982V175.824Z" fill="#273E47"/>
<path d="M0 200.749C68.057 200.444 144.402 200.442 212.459 200.749C144.402 201.056 68.057 201.054 0 200.749Z" fill="#17282F"/>
<path d="M38.1289 194.325V6.71371C38.1289 3.16576 41.0051 0.289917 44.5529 0.289917H165.821C169.368 0.289917 172.245 3.16576 172.245 6.71371V194.325C172.245 197.873 169.368 200.749 165.821 200.749H44.5529C41.0051 200.749 38.1289 197.873 38.1289 194.325Z" fill="#33535F"/>
<path d="M43.9434 186.841H166.586V14.3199H43.9434V186.841Z" fill="white"/>
<path d="M90.5923 8.85083V8.01179C90.5923 7.66801 90.8713 7.38899 91.2156 7.38899H119.157C119.501 7.38899 119.78 7.66801 119.78 8.01179V8.85083C119.78 9.19462 119.501 9.47363 119.157 9.47363H91.2156C90.8713 9.47363 90.5923 9.19462 90.5923 8.85083Z" fill="#17282F"/>
<path d="M105.186 197.393C103.101 197.393 101.412 195.703 101.412 193.618C101.412 191.533 103.101 189.843 105.186 189.843C107.271 189.843 108.961 191.533 108.961 193.618C108.961 195.703 107.271 197.393 105.186 197.393Z" fill="#17282F"/>
<path d="M43.9434 186.841H166.586V14.3199H43.9434V186.841Z" fill="white"/>
<path d="M126.423 67.3932C126.423 79.0879 116.943 88.5684 105.248 88.5684C93.5533 88.5684 84.0728 79.0879 84.0728 67.3932C84.0728 55.6985 93.5533 46.218 105.248 46.218C116.943 46.218 126.423 55.6985 126.423 67.3932Z" fill="#999B9B"/>
<path d="M131.469 113.654H79.0273V106.055H131.469V113.654Z" fill="#E7E8E5"/>
<path d="M87.1289 108.364C87.1289 108.31 87.1747 108.264 87.2281 108.264C87.2859 108.264 87.3317 108.31 87.3317 108.364V109.988C87.3317 110.52 87.7657 110.95 88.2943 110.954C88.8314 110.95 89.2654 110.52 89.2654 109.988V108.364C89.2654 108.31 89.3107 108.264 89.3645 108.264C89.4223 108.264 89.4676 108.31 89.4676 108.364V109.988C89.4676 110.632 88.943 111.157 88.2943 111.157C87.6536 111.157 87.1289 110.632 87.1289 109.988V108.364Z" fill="#999B9B"/>
<path d="M90.3003 110.736C90.3332 110.694 90.3955 110.686 90.4403 110.723C90.5808 110.826 90.804 110.958 91.0606 110.958C91.2176 110.958 91.3541 110.909 91.4447 110.834C91.5439 110.769 91.5977 110.677 91.5977 110.587C91.5937 110.492 91.5564 110.426 91.4532 110.339C91.366 110.273 91.2215 110.223 91.0232 110.19L91.0148 110.186C90.8334 110.153 90.672 110.112 90.5564 110.029C90.4283 109.954 90.3372 109.822 90.3372 109.666C90.3372 109.504 90.4283 109.364 90.5564 109.269C90.676 109.186 90.8454 109.132 91.0521 109.132C91.3127 109.132 91.4986 109.252 91.6555 109.351C91.7008 109.384 91.7133 109.446 91.6844 109.492C91.6555 109.537 91.5937 109.55 91.5479 109.521C91.3994 109.421 91.2504 109.318 91.0521 109.318C90.8867 109.318 90.7547 109.364 90.668 109.434C90.5853 109.5 90.5399 109.583 90.5399 109.666C90.5399 109.748 90.5768 109.806 90.6555 109.868C90.7462 109.93 90.8827 109.979 91.0686 110.008H91.077C91.2709 110.037 91.4283 110.095 91.5683 110.174C91.7008 110.26 91.796 110.417 91.796 110.587C91.796 110.756 91.7008 110.893 91.5643 110.996C91.4238 111.099 91.2589 111.157 91.0606 111.157C90.7338 111.153 90.4777 111 90.3127 110.868L90.3003 110.736Z" fill="#999B9B"/>
<path d="M92.5384 109.988H94.071C94.0052 109.607 93.6829 109.331 93.3107 109.331C92.9305 109.331 92.6126 109.603 92.5384 109.988ZM92.3276 110.149C92.3276 109.587 92.7656 109.132 93.3107 109.132C93.8313 109.132 94.2449 109.545 94.2862 110.074V110.079V110.09C94.2862 110.145 94.2409 110.182 94.1871 110.182H92.5259C92.5464 110.624 92.8936 110.958 93.3107 110.958C93.5797 110.958 93.8273 110.818 93.9639 110.591C93.9928 110.541 94.0545 110.533 94.0959 110.558C94.1412 110.591 94.1582 110.649 94.1288 110.698C93.9554 110.975 93.654 111.157 93.3107 111.157C92.7656 111.157 92.3276 110.702 92.3276 110.149Z" fill="#999B9B"/>
<path d="M94.8999 109.236C94.8999 109.178 94.9457 109.136 95.0035 109.136C95.0529 109.136 95.0987 109.178 95.0987 109.236V109.682L95.1276 109.632C95.2806 109.393 95.5491 109.136 95.9372 109.136C95.9911 109.136 96.0364 109.178 96.0364 109.236C96.0364 109.289 95.9911 109.335 95.9372 109.335C95.6732 109.335 95.4908 109.483 95.3508 109.666C95.2143 109.847 95.1361 110.054 95.1067 110.136L95.0987 110.17V111.058C95.0987 111.115 95.0529 111.157 95.0035 111.157C94.9457 111.157 94.8999 111.115 94.8999 111.058V109.236Z" fill="#999B9B"/>
<path d="M98.1593 109.959C98.1593 109.616 97.8823 109.335 97.535 109.335C97.1922 109.335 96.9152 109.616 96.9072 109.959V111.058V111.075L96.8863 111.12L96.812 111.157H96.7871L96.7209 111.103L96.7169 111.091L96.7129 111.082V111.058V109.959V109.926V109.236C96.7129 109.182 96.7542 109.136 96.812 109.136C96.8658 109.136 96.9072 109.182 96.9072 109.236V109.43C97.0557 109.252 97.2834 109.136 97.535 109.136C97.9894 109.136 98.3576 109.509 98.3576 109.959V111.058C98.3576 111.115 98.3122 111.157 98.2584 111.157C98.2046 111.157 98.1593 111.115 98.1593 111.058V109.959Z" fill="#999B9B"/>
<path d="M100.743 110.145C100.743 109.69 100.401 109.326 99.983 109.326C99.57 109.326 99.2227 109.69 99.2227 110.145C99.2227 110.599 99.57 110.958 99.983 110.958C100.401 110.958 100.743 110.599 100.743 110.145ZM100.942 109.232V111.058C100.942 111.111 100.896 111.157 100.843 111.157C100.789 111.157 100.743 111.111 100.743 111.058V110.756C100.57 110.996 100.293 111.157 99.983 111.157C99.4504 111.157 99.0249 110.698 99.0249 110.145C99.0249 109.591 99.4504 109.132 99.983 109.132C100.293 109.132 100.57 109.289 100.743 109.529V109.232C100.743 109.173 100.789 109.132 100.843 109.132C100.896 109.132 100.942 109.173 100.942 109.232Z" fill="#999B9B"/>
<path d="M104.696 109.959C104.688 109.616 104.415 109.331 104.068 109.331C103.725 109.331 103.444 109.616 103.444 109.959V111.062V111.075L103.44 111.082V111.091L103.39 111.144L103.341 111.157H103.328H103.32L103.312 111.153L103.287 111.14L103.275 111.132L103.262 111.12L103.254 111.111L103.25 111.103L103.246 111.095L103.241 111.082V111.07V111.062V109.959C103.241 109.616 102.965 109.331 102.617 109.331C102.271 109.331 101.994 109.616 101.994 109.959V111.062L101.948 111.14L101.924 111.153L101.907 111.157H101.894H101.882L101.8 111.082V111.062V109.959V109.926V109.232C101.8 109.178 101.845 109.136 101.894 109.136C101.953 109.136 101.994 109.178 101.994 109.232V109.426C102.143 109.248 102.366 109.136 102.617 109.136C102.931 109.136 103.2 109.31 103.341 109.566C103.485 109.31 103.758 109.136 104.068 109.136C104.523 109.136 104.89 109.504 104.89 109.959V111.062C104.89 111.111 104.849 111.157 104.791 111.157C104.737 111.157 104.696 111.111 104.696 111.062V109.959Z" fill="#999B9B"/>
<path d="M105.793 109.988H107.325C107.259 109.607 106.937 109.331 106.566 109.331C106.185 109.331 105.867 109.603 105.793 109.988ZM105.582 110.149C105.582 109.587 106.02 109.132 106.566 109.132C107.086 109.132 107.499 109.545 107.54 110.074V110.079V110.09C107.54 110.145 107.495 110.182 107.441 110.182H105.78C105.801 110.624 106.148 110.958 106.566 110.958C106.834 110.958 107.082 110.818 107.218 110.591C107.247 110.541 107.309 110.533 107.35 110.558C107.396 110.591 107.412 110.649 107.383 110.698C107.21 110.975 106.908 111.157 106.566 111.157C106.02 111.157 105.582 110.702 105.582 110.149Z" fill="#999B9B"/>
<path d="M83.4407 109.22C83.4407 109.621 83.1153 109.946 82.7142 109.946C82.3131 109.946 81.9878 109.621 81.9878 109.22C81.9878 108.819 82.3131 108.494 82.7142 108.494C83.1153 108.493 83.4407 108.819 83.4407 109.22Z" fill="#999B9B"/>
<path d="M83.9706 111.217H81.457C81.4625 110.526 82.023 109.971 82.7141 109.971C83.4101 109.971 83.9652 110.526 83.9706 111.217Z" fill="#999B9B"/>
<path d="M131.469 124.686H79.0273V117.086H131.469V124.686Z" fill="#E7E8E5"/>
<path d="M88.862 119.989C88.3847 120.706 87.7853 121.307 87.0674 121.783C87.5437 121.065 88.1451 120.466 88.862 119.989Z" fill="#999B9B"/>
<path d="M87.0674 119.989C87.7843 120.466 88.3857 121.065 88.862 121.783C88.1441 121.307 87.5447 120.706 87.0674 119.989Z" fill="#999B9B"/>
<path d="M89.2338 120.886C88.3893 121.055 87.5403 121.057 86.6958 120.886C87.5403 120.715 88.3893 120.717 89.2338 120.886Z" fill="#999B9B"/>
<path d="M87.9645 119.617C88.1339 120.462 88.1354 121.311 87.9645 122.155C87.7936 121.311 87.7951 120.462 87.9645 119.617Z" fill="#999B9B"/>
<path d="M93.24 119.989C92.7627 120.706 92.1633 121.307 91.4453 121.783C91.9216 121.065 92.523 120.466 93.24 119.989Z" fill="#999B9B"/>
<path d="M91.4453 119.989C92.1623 120.466 92.7637 121.065 93.24 121.783C92.522 121.307 91.9226 120.706 91.4453 119.989Z" fill="#999B9B"/>
<path d="M93.6118 120.886C92.7672 121.055 91.9182 121.057 91.0737 120.886C91.9182 120.715 92.7672 120.717 93.6118 120.886Z" fill="#999B9B"/>
<path d="M92.3429 119.617C92.5123 120.462 92.5138 121.311 92.3429 122.155C92.172 121.311 92.1735 120.462 92.3429 119.617Z" fill="#999B9B"/>
<path d="M97.6179 119.989C97.1406 120.706 96.5412 121.307 95.8232 121.783C96.2996 121.065 96.9009 120.466 97.6179 119.989Z" fill="#999B9B"/>
<path d="M95.8232 119.989C96.5402 120.466 97.1416 121.065 97.6179 121.783C96.8999 121.307 96.3006 120.706 95.8232 119.989Z" fill="#999B9B"/>
<path d="M97.9897 120.886C97.1452 121.055 96.2962 121.057 95.4517 120.886C96.2962 120.715 97.1452 120.717 97.9897 120.886Z" fill="#999B9B"/>
<path d="M96.7209 119.617C96.8903 120.462 96.8918 121.311 96.7209 122.155C96.55 121.311 96.5515 120.462 96.7209 119.617Z" fill="#999B9B"/>
<path d="M101.996 119.989C101.519 120.706 100.92 121.307 100.202 121.783C100.678 121.065 101.279 120.466 101.996 119.989Z" fill="#999B9B"/>
<path d="M100.202 119.989C100.919 120.466 101.52 121.065 101.996 121.783C101.278 121.307 100.679 120.706 100.202 119.989Z" fill="#999B9B"/>
<path d="M102.368 120.886C101.523 121.055 100.674 121.057 99.8296 120.886C100.674 120.715 101.523 120.717 102.368 120.886Z" fill="#999B9B"/>
<path d="M101.099 119.617C101.268 120.462 101.27 121.311 101.099 122.155C100.928 121.311 100.929 120.462 101.099 119.617Z" fill="#999B9B"/>
<path d="M83.5658 120.068V120.986H83.3057V120.068C83.3057 119.718 83.0411 119.435 82.7143 119.435C82.3874 119.435 82.1224 119.718 82.1224 120.068V120.986H81.8628V120.068C81.8628 119.568 82.2449 119.161 82.7143 119.161C83.1836 119.161 83.5658 119.568 83.5658 120.068Z" fill="#999B9B"/>
<path d="M82.9134 122.086H82.4919L82.5915 121.616C82.5322 121.579 82.4919 121.514 82.4919 121.438C82.4919 121.322 82.5865 121.228 82.7026 121.228C82.8187 121.228 82.9134 121.322 82.9134 121.438C82.9134 121.514 82.873 121.579 82.8137 121.616L82.9134 122.086ZM81.5308 120.647V122.611H83.8974V120.647H81.5308Z" fill="#999B9B"/>
<path d="M96.356 100.219V96.7863C96.356 96.6114 96.4955 96.466 96.6758 96.466C96.8562 96.466 97.0017 96.6114 97.0017 96.7863V99.8928H98.5786C98.747 99.8928 98.8985 100.038 98.8985 100.219C98.8985 100.394 98.747 100.539 98.5786 100.539H96.6933H96.6818H96.6758C96.4955 100.539 96.356 100.394 96.356 100.219Z" fill="#17282F"/>
<path d="M102.536 98.444C102.536 98.0489 102.379 97.6822 102.14 97.4261C101.896 97.1645 101.57 97.013 101.222 97.013C100.849 97.013 100.523 97.1645 100.279 97.4261C100.034 97.6822 99.8834 98.0489 99.8834 98.444C99.8834 98.8396 100.034 99.2063 100.279 99.4564C100.523 99.7185 100.849 99.8759 101.222 99.8759C101.57 99.8759 101.896 99.7185 102.14 99.4564C102.379 99.2063 102.536 98.8396 102.536 98.444ZM102.612 96.9722C102.973 97.3563 103.199 97.868 103.199 98.444C103.199 99.0204 102.973 99.5381 102.612 99.9163C102.268 100.294 101.757 100.539 101.222 100.539C100.663 100.539 100.151 100.294 99.7957 99.9163C99.435 99.5381 99.2197 99.0204 99.2197 98.444C99.2197 97.868 99.435 97.3563 99.7957 96.9722C100.151 96.588 100.663 96.3494 101.222 96.3494C101.757 96.3494 102.268 96.588 102.612 96.9722Z" fill="#17282F"/>
<path d="M104.167 98.4499C104.167 97.2806 105.134 96.3494 106.315 96.3494C106.809 96.3494 107.28 96.5188 107.641 96.8038C107.793 96.9144 107.816 97.1296 107.705 97.2751C107.594 97.4146 107.379 97.4435 107.234 97.3269C106.984 97.1356 106.664 97.013 106.315 97.013C105.895 97.013 105.529 97.17 105.268 97.4375C104.994 97.6996 104.831 98.0543 104.831 98.4499C104.831 98.8341 104.994 99.1888 105.268 99.4509C105.529 99.7185 105.895 99.8759 106.315 99.8759C106.605 99.8759 106.879 99.7882 107.112 99.6547V98.857H106.28C106.099 98.857 105.948 98.706 105.948 98.5257C105.948 98.3393 106.099 98.1998 106.28 98.1998H107.426H107.432H107.437C107.624 98.1998 107.775 98.3393 107.775 98.5257V99.8116L107.757 99.9103L107.746 99.9397V99.9452C107.728 99.998 107.694 100.044 107.635 100.085C107.269 100.37 106.809 100.539 106.315 100.539C105.134 100.539 104.167 99.6138 104.167 98.4499Z" fill="#17282F"/>
<path d="M109.127 96.7863C109.127 96.6055 109.266 96.466 109.447 96.466C109.621 96.466 109.773 96.6055 109.773 96.7863V100.219C109.773 100.399 109.621 100.539 109.447 100.539C109.266 100.539 109.127 100.399 109.127 100.219V96.7863Z" fill="#17282F"/>
<path d="M111.501 100.219C111.501 100.394 111.356 100.539 111.187 100.539C111.007 100.539 110.867 100.394 110.867 100.219V96.8381V96.8327C110.862 96.7335 110.908 96.6294 110.995 96.5651C111.141 96.466 111.338 96.4949 111.438 96.6349L113.317 99.2352V96.8381C113.317 96.6697 113.456 96.5242 113.631 96.5242C113.806 96.5242 113.951 96.6697 113.951 96.8381V100.219C113.951 100.394 113.806 100.539 113.631 100.539C113.538 100.539 113.451 100.492 113.392 100.422L113.363 100.388L111.501 97.8042V100.219Z" fill="#17282F"/>
<path d="M113.938 134.736H96.5576V129.332H113.938V134.736Z" fill="#F4A72A"/>
<path d="M100.802 132.843V131.124C100.802 131.037 100.872 130.964 100.962 130.964C101.052 130.964 101.125 131.037 101.125 131.124V132.68H101.915C102 132.68 102.075 132.752 102.075 132.843C102.075 132.93 102 133.003 101.915 133.003H100.971H100.965H100.962C100.872 133.003 100.802 132.93 100.802 132.843Z" fill="white"/>
<path d="M103.895 131.955C103.895 131.757 103.815 131.573 103.696 131.445C103.574 131.314 103.411 131.238 103.236 131.238C103.05 131.238 102.887 131.314 102.764 131.445C102.642 131.573 102.566 131.757 102.566 131.955C102.566 132.152 102.642 132.336 102.764 132.461C102.887 132.592 103.05 132.671 103.236 132.671C103.411 132.671 103.574 132.592 103.696 132.461C103.815 132.336 103.895 132.152 103.895 131.955ZM103.932 131.217C104.112 131.41 104.226 131.666 104.226 131.955C104.226 132.243 104.112 132.502 103.932 132.692C103.76 132.881 103.504 133.003 103.236 133.003C102.956 133.003 102.7 132.881 102.522 132.692C102.342 132.502 102.234 132.243 102.234 131.955C102.234 131.666 102.342 131.41 102.522 131.217C102.7 131.025 102.956 130.906 103.236 130.906C103.504 130.906 103.76 131.025 103.932 131.217Z" fill="white"/>
<path d="M104.708 131.957C104.708 131.372 105.191 130.906 105.783 130.906C106.03 130.906 106.266 130.991 106.447 131.133C106.523 131.188 106.534 131.296 106.479 131.369C106.423 131.439 106.315 131.453 106.243 131.396C106.118 131.299 105.958 131.238 105.783 131.238C105.573 131.238 105.39 131.316 105.259 131.451C105.122 131.582 105.04 131.759 105.04 131.957C105.04 132.149 105.122 132.327 105.259 132.458C105.39 132.592 105.573 132.671 105.783 132.671C105.928 132.671 106.065 132.627 106.182 132.56V132.161H105.765C105.675 132.161 105.599 132.086 105.599 131.995C105.599 131.902 105.675 131.832 105.765 131.832H106.339H106.342H106.345C106.438 131.832 106.514 131.902 106.514 131.995V132.639L106.505 132.689L106.499 132.703V132.706L106.443 132.776C106.26 132.919 106.03 133.003 105.783 133.003C105.191 133.003 104.708 132.54 104.708 131.957Z" fill="white"/>
<path d="M107.188 131.124C107.188 131.034 107.258 130.964 107.348 130.964C107.435 130.964 107.511 131.034 107.511 131.124V132.843C107.511 132.933 107.435 133.003 107.348 133.003C107.258 133.003 107.188 132.933 107.188 132.843V131.124Z" fill="white"/>
<path d="M108.376 132.843C108.376 132.93 108.303 133.003 108.218 133.003C108.128 133.003 108.058 132.93 108.058 132.843V131.15V131.148C108.055 131.098 108.078 131.046 108.122 131.013C108.195 130.964 108.294 130.979 108.343 131.049L109.284 132.351V131.15C109.284 131.066 109.354 130.993 109.441 130.993C109.529 130.993 109.601 131.066 109.601 131.15V132.843C109.601 132.93 109.529 133.003 109.441 133.003C109.395 133.003 109.351 132.98 109.322 132.945L109.307 132.927L108.376 131.634V132.843Z" fill="white"/>
<path d="M117.535 84.6359C117.096 84.9498 116.647 85.2438 116.19 85.5278C115.093 86.1855 113.933 86.7535 112.722 87.2069C112.438 87.3165 112.149 87.4161 111.86 87.5158C111.207 87.73 110.535 87.9144 109.857 88.0638L109.842 88.0688C109.244 88.1984 108.636 88.308 108.018 88.3877C107.206 87.177 106.544 86.1257 106.08 85.3135C105.771 84.7754 105.363 84.0231 104.949 83.1761C103.669 80.5803 102.319 77.0876 103.569 76.136L103.639 76.0862L103.739 76.0314L103.803 76.0015C103.908 75.9516 104.033 75.9217 104.167 75.9068C104.322 75.8819 104.496 75.8819 104.695 75.9018C105.328 75.9616 106.175 76.2456 107.281 76.8086V76.8136C107.515 76.9282 107.754 77.0577 108.013 77.2022L108.113 77.257C110.241 78.4628 113.883 81.4921 117.535 84.6359Z" fill="#F9A8B6"/>
<path d="M118.282 84.078C118.038 84.2723 117.789 84.4567 117.535 84.636C117.096 84.9499 116.647 85.2439 116.189 85.5279C115.093 86.1856 113.932 86.7535 112.722 87.2069C112.438 87.3166 112.149 87.4162 111.86 87.5159C111.207 87.7301 110.534 87.9145 109.857 88.0639L109.842 88.0689C109.244 88.1984 108.636 88.3081 108.018 88.3878C107.899 88.4027 107.774 88.4177 107.65 88.4326C106.349 86.3898 105.253 84.5464 104.491 83.1064V83.1015C104.446 83.0168 104.401 82.937 104.361 82.8573C104.092 82.3342 103.858 81.8409 103.659 81.3775C103.509 81.0288 103.38 80.695 103.27 80.3761C103.2 80.1668 103.135 79.9625 103.076 79.7632C103.026 79.5889 102.986 79.4244 102.946 79.265C102.911 79.1006 102.881 78.9411 102.856 78.7867C102.787 78.3732 102.767 77.9995 102.797 77.6706C102.817 77.3717 102.876 77.1076 102.971 76.8834C103.021 76.7638 103.076 76.6542 103.145 76.5546C103.18 76.5048 103.215 76.4599 103.25 76.4151C103.29 76.3702 103.33 76.3254 103.375 76.2855C103.414 76.2457 103.459 76.2108 103.509 76.1759L103.569 76.1361L103.639 76.0862L103.738 76.0314L103.803 76.0015L103.818 75.9916C103.918 75.9467 104.022 75.9069 104.137 75.877C104.784 75.7076 105.657 75.8022 106.708 76.166L106.713 76.1709C107.141 76.3154 107.605 76.5048 108.093 76.7439L108.098 76.7489C108.875 77.1226 109.717 77.6158 110.629 78.2237C112.896 79.7383 115.621 81.8858 118.282 84.078Z" fill="#F4A72A"/>
<path d="M108.99 79.5692C108.87 79.4546 108.751 79.345 108.621 79.2354H108.616L108.482 79.1258L108.382 79.051C108.327 79.0062 108.272 78.9713 108.213 78.9364C108.158 78.8966 108.103 78.8617 108.043 78.8268H108.038L107.939 78.772L107.874 78.7421V78.7372C107.804 78.7023 107.734 78.6724 107.665 78.6425C107.714 78.7671 107.774 78.8816 107.834 78.9913C108.043 79.36 108.312 79.6739 108.591 79.9678C108.701 80.0724 108.811 80.1721 108.925 80.2717C109.015 80.3465 109.104 80.4162 109.199 80.486L109.214 80.4959L109.219 80.5009C109.433 80.6554 109.663 80.7899 109.917 80.8945C109.697 80.3664 109.359 79.9529 108.99 79.5692ZM108.99 79.5692C108.87 79.4546 108.751 79.345 108.621 79.2354H108.616L108.482 79.1258L108.382 79.051C108.327 79.0062 108.272 78.9713 108.213 78.9364C108.158 78.8966 108.103 78.8617 108.043 78.8268H108.038L107.939 78.772L107.874 78.7421V78.7372C107.804 78.7023 107.734 78.6724 107.665 78.6425C107.714 78.7671 107.774 78.8816 107.834 78.9913C108.043 79.36 108.312 79.6739 108.591 79.9678C108.701 80.0724 108.811 80.1721 108.925 80.2717C109.015 80.3465 109.104 80.4162 109.199 80.486L109.214 80.4959L109.219 80.5009C109.433 80.6554 109.663 80.7899 109.917 80.8945C109.697 80.3664 109.359 79.9529 108.99 79.5692Z" fill="white"/>
<path d="M107.65 88.4326C106.349 86.3898 105.253 84.5464 104.491 83.1064V83.1015C104.446 83.0168 104.401 82.937 104.361 82.8573C104.092 82.3342 103.858 81.8409 103.659 81.3775C103.509 81.0288 103.38 80.695 103.27 80.3761C103.201 80.1668 103.136 79.9625 103.076 79.7632C103.026 79.5889 102.986 79.4244 102.946 79.265C102.912 79.1006 102.882 78.9411 102.857 78.7867C102.792 78.3732 102.772 77.9995 102.797 77.6706C102.817 77.3717 102.877 77.1076 102.971 76.8834C103.021 76.7638 103.076 76.6542 103.146 76.5546C103.181 76.5048 103.216 76.4599 103.25 76.4151C103.29 76.3702 103.33 76.3254 103.375 76.2855C103.415 76.2457 103.46 76.2108 103.509 76.1759L103.569 76.1361L103.639 76.0862L103.739 76.0314L103.803 76.0015L103.818 75.9916C103.918 75.9467 104.028 75.9119 104.142 75.882C104.277 75.8471 104.426 75.8222 104.586 75.8122L104.695 75.9019L106.459 77.3866L106.469 77.3916L107.899 78.5874L108.582 79.1604L116.19 85.5279C115.094 86.1856 113.933 86.7535 112.722 87.2069C112.438 87.3166 112.149 87.4162 111.86 87.5159C111.207 87.7301 110.535 87.9145 109.857 88.0639L109.842 88.0689C109.244 88.1984 108.636 88.3081 108.019 88.3878C107.899 88.4027 107.774 88.4177 107.65 88.4326ZM107.665 78.6422C107.715 78.7668 107.774 78.8814 107.834 78.991C108.043 79.3597 108.313 79.6736 108.592 79.9675C108.701 80.0722 108.811 80.1718 108.925 80.2715C109.015 80.3462 109.105 80.4159 109.199 80.4857L109.214 80.4957L109.219 80.5006C109.434 80.6551 109.663 80.7896 109.917 80.8942C109.698 80.3661 109.359 79.9526 108.99 79.5689C108.871 79.4543 108.751 79.3447 108.621 79.2351H108.616L108.482 79.1255L108.382 79.0508C108.327 79.0059 108.273 78.971 108.213 78.9362C108.158 78.8963 108.103 78.8614 108.043 78.8266H108.038L107.939 78.7718L107.874 78.7419V78.7369C107.804 78.702 107.735 78.6721 107.665 78.6422Z" fill="#F4AC12"/>
<path d="M109.917 80.8945C109.663 80.7899 109.433 80.6554 109.219 80.5009L109.214 80.4959L109.199 80.486C109.104 80.4162 109.015 80.3465 108.925 80.2717C108.811 80.1721 108.701 80.0724 108.591 79.9678C108.312 79.6739 108.043 79.36 107.834 78.9913C107.774 78.8816 107.714 78.7671 107.665 78.6425C107.734 78.6724 107.804 78.7023 107.874 78.7372V78.7421L107.939 78.772L108.038 78.8268H108.043C108.103 78.8617 108.158 78.8966 108.213 78.9364C108.272 78.9713 108.327 79.0062 108.382 79.051L108.482 79.1258L108.616 79.2354H108.621C108.751 79.345 108.87 79.4546 108.99 79.5692C109.359 79.9529 109.697 80.3664 109.917 80.8945Z" fill="#E0E1DE"/>
<path d="M111.86 87.5161C111.207 87.7303 110.535 87.9147 109.857 88.0642L109.842 88.0691C109.244 88.1987 108.636 88.3083 108.018 88.388C107.899 88.403 107.774 88.4179 107.65 88.4329C106.863 88.5225 106.06 88.5674 105.248 88.5674C102.857 88.5674 100.555 88.1688 98.4075 87.4364L98.3526 87.4214L98.3028 87.4015C98.2231 87.3716 98.1434 87.3467 98.0637 87.3168C95.9561 86.5545 94.003 85.4683 92.2642 84.1181C92.8571 83.0768 93.4051 82.16 93.9183 81.3579C94.287 80.7799 94.6308 80.2617 94.9596 79.7984L94.9646 79.7884L94.9696 79.7834C96.7085 77.3022 97.9092 76.2858 98.8459 75.7925C98.9057 75.7626 98.9655 75.7327 99.0203 75.7078C99.09 75.668 99.1598 75.6381 99.2246 75.6132C99.3491 75.5583 99.4687 75.5185 99.5833 75.4786C100.59 75.1398 102.094 74.9654 103.534 75.095C104.755 75.2046 105.931 75.5334 106.708 76.1662L106.713 76.1712C106.937 76.3555 107.132 76.5698 107.281 76.8089V76.8139C107.455 77.0879 107.625 77.3719 107.789 77.6659C107.849 77.7705 107.909 77.8752 107.969 77.9848C108.178 78.3634 108.382 78.7521 108.582 79.1606L108.616 79.2354H108.621C108.721 79.4396 108.821 79.6439 108.92 79.8582C109.02 80.0674 109.12 80.2767 109.214 80.4959L109.219 80.5009C110.141 82.5437 111.008 84.8704 111.805 87.3467C111.825 87.4015 111.84 87.4563 111.86 87.5161Z" fill="#F4A72A"/>
<path d="M108.92 79.8581C108.821 79.6488 108.721 79.4396 108.616 79.2353L108.482 79.1257L108.382 79.0509C108.327 79.0061 108.273 78.9712 108.213 78.9363C108.158 78.8965 108.103 78.8616 108.043 78.8267H108.038L107.939 78.7719L107.874 78.7371C107.804 78.7022 107.734 78.6723 107.665 78.6424C107.715 78.7669 107.774 78.8815 107.834 78.9912C108.043 79.3599 108.312 79.6738 108.591 79.9677C108.701 80.0723 108.811 80.172 108.925 80.2716C109.015 80.3464 109.105 80.4161 109.199 80.4859L109.214 80.4958C109.12 80.2766 109.02 80.0674 108.92 79.8581ZM108.92 79.8581C108.821 79.6488 108.721 79.4396 108.616 79.2353L108.482 79.1257L108.382 79.0509C108.327 79.0061 108.273 78.9712 108.213 78.9363C108.158 78.8965 108.103 78.8616 108.043 78.8267H108.038L107.939 78.7719L107.874 78.7371C107.804 78.7022 107.734 78.6723 107.665 78.6424C107.715 78.7669 107.774 78.8815 107.834 78.9912C108.043 79.3599 108.312 79.6738 108.591 79.9677C108.701 80.0723 108.811 80.172 108.925 80.2716C109.015 80.3464 109.105 80.4161 109.199 80.4859L109.214 80.4958C109.12 80.2766 109.02 80.0674 108.92 79.8581ZM95.5824 79.3897C95.5077 79.4246 95.4379 79.4695 95.3682 79.5093C95.2984 79.5492 95.2287 79.594 95.1639 79.6439L95.0742 79.7086L94.9696 79.7834L94.9646 79.7883L94.9596 79.7983L94.9397 79.8133C94.7803 79.9378 94.6358 80.0723 94.4913 80.2069C94.1226 80.5905 93.7838 81.004 93.5596 81.5322C93.6841 81.4824 93.8037 81.4226 93.9183 81.3578C94.282 81.1535 94.5959 80.8845 94.8849 80.6054C95.2536 80.2268 95.5924 79.8083 95.8116 79.2801C95.7319 79.315 95.6572 79.3499 95.5824 79.3897ZM104.63 86.6441C104.102 86.6541 103.574 86.7039 103.041 86.9231C103.574 87.1473 104.102 87.1922 104.63 87.2021C105.164 87.1922 105.697 87.1424 106.225 86.9231C105.697 86.7039 105.164 86.6541 104.63 86.6441Z" fill="white"/>
<path d="M100.355 79.3147C100.216 80.4656 99.8821 81.9005 99.3291 83.6394C98.9006 84.9747 98.4771 86.1954 98.0635 87.3164C95.956 86.5541 94.0029 85.4679 92.264 84.1177C91.8455 83.7938 91.437 83.4501 91.0483 83.0963C91.7558 82.1546 92.4683 81.2429 93.1758 80.3709C95.5275 77.4762 97.5404 75.9067 98.8458 75.7921C98.8956 75.7871 98.9454 75.7822 98.9953 75.7822C100.106 75.7822 100.644 76.9281 100.355 79.3147Z" fill="#F9A8B6"/>
<path d="M100.634 79.734C100.495 81.0095 100.221 82.1505 100.156 82.4046C99.9217 83.3463 99.4534 84.6666 98.8804 86.1265V86.1314C98.711 86.55 98.5317 86.9834 98.3523 87.4219L98.3025 87.402C98.2228 87.3721 98.143 87.3471 98.0633 87.3173C95.9558 86.5549 94.0027 85.4688 92.2638 84.1185C91.8453 83.7947 91.4367 83.4509 91.0481 83.0972C90.9086 82.9726 90.7741 82.848 90.6445 82.7235C92.1542 80.8003 93.614 79.186 94.9294 78.0251C96.8526 76.3311 98.163 75.6535 99.0448 75.6136C99.1096 75.6086 99.1694 75.6086 99.2242 75.6136C100.744 75.6983 100.839 77.8656 100.634 79.734Z" fill="#F4A72A"/>
<path d="M95.5824 79.3898C95.5077 79.4247 95.4379 79.4695 95.3682 79.5094C95.2984 79.5492 95.2287 79.5941 95.1639 79.6439L95.0742 79.7087L94.9596 79.7984L94.9397 79.8133C94.7803 79.9379 94.6358 80.0724 94.4913 80.2069C94.1226 80.5905 93.7838 81.0041 93.5596 81.5322C93.6841 81.4824 93.8037 81.4226 93.9183 81.3578C94.282 81.1536 94.5959 80.8845 94.8849 80.6055C95.2536 80.2268 95.5924 79.8083 95.8116 79.2802C95.7319 79.3151 95.6572 79.3499 95.5824 79.3898Z" fill="white"/>
<path d="M98.8807 86.1262V86.1411C98.7262 86.5746 98.5668 87.008 98.4074 87.4365L98.3526 87.4216L98.3027 87.4016C98.4871 86.9781 98.6714 86.5546 98.8458 86.1262H98.8807Z" fill="#17282F"/>
<path d="M105.114 83.1794C102.867 83.2636 99.8279 79.2557 98.8967 76.3096C98.834 76.1073 99.4926 74.2409 100.185 71.9351C100.6 70.534 101.029 68.9646 101.317 67.5042C101.375 67.2038 110.039 71.536 110.039 71.536C110.039 71.536 108.535 74.4203 108.048 76.9698C108.01 77.183 107.992 77.3853 107.993 77.5811L107.987 77.6833C107.948 78.8586 107.286 83.0967 105.114 83.1794Z" fill="#F9A8B6"/>
<path d="M101.872 67.653C101.811 70.206 102.17 76.4749 107.036 77.5496C107.375 77.6248 107.691 77.6696 107.983 77.6836L107.992 77.581C107.993 77.3837 108.008 77.1834 108.045 76.9706C108.533 74.4166 110.039 71.5333 110.039 71.5333C110.039 71.5333 103.789 68.4084 101.872 67.653Z" fill="#17282F"/>
<path d="M99.7587 57.8945C98.8185 61.2257 100.769 70.7506 103.168 72.8327C106.647 75.851 112.241 76.0284 114.78 71.8706C117.241 67.8398 114.48 55.4715 111.809 53.5902C107.875 50.8185 101.147 52.9739 99.7587 57.8945Z" fill="#F9A8B6"/>
<path d="M108.096 63.911L108.061 63.9793C108.233 64.6111 108.324 65.3644 107.799 65.7137L107.813 65.748C108.492 65.4805 108.361 64.482 108.096 63.911Z" fill="#17282F"/>
<path d="M107.368 63.3827C106.325 63.5496 106.736 65.6233 107.703 65.4683C108.654 65.3158 108.243 63.2422 107.368 63.3827Z" fill="#17282F"/>
<path d="M111.779 63.1713L111.84 63.2177C111.947 63.8644 112.178 64.5863 112.801 64.6845L112.803 64.7214C112.074 64.7627 111.777 63.8006 111.779 63.1713Z" fill="#17282F"/>
<path d="M112.22 62.3871C113.237 62.1036 113.729 64.1598 112.787 64.4219C111.858 64.6805 111.367 62.6242 112.22 62.3871Z" fill="#17282F"/>
<path d="M106.396 62.3637C106.664 62.2376 106.891 62.0767 107.145 61.9247C107.43 61.7533 107.675 61.6462 107.823 61.3318C107.903 61.1634 107.807 60.9068 107.65 60.8141C107.286 60.5989 106.883 60.7219 106.531 60.9143C106.149 61.123 105.908 61.3816 105.743 61.7842C105.585 62.1738 106.041 62.5291 106.396 62.3637Z" fill="#17282F"/>
<path d="M112.984 61.5447C112.689 61.5775 112.411 61.5586 112.116 61.5611C111.783 61.5636 111.518 61.6 111.228 61.4086C111.072 61.3065 111.021 61.0374 111.106 60.8765C111.305 60.5028 111.712 60.3982 112.113 60.3788C112.547 60.3573 112.888 60.4525 113.238 60.7106C113.577 60.9602 113.373 61.5013 112.984 61.5447Z" fill="#17282F"/>
<path d="M108.493 69.5384C108.624 69.7143 108.746 69.947 108.978 70.0033C109.2 70.0571 109.48 69.9968 109.699 69.949L109.722 69.9868C109.515 70.2086 109.137 70.3092 108.845 70.2095C108.56 70.1129 108.455 69.8369 108.426 69.5578L108.493 69.5384Z" fill="#17282F"/>
<path d="M109.044 67.6621C109.514 68.1484 110.103 68.3482 110.697 68.3457C110.962 68.3462 111.232 68.3018 111.491 68.2256C111.542 68.2141 111.593 68.1982 111.638 68.1783C111.683 68.1633 111.724 68.1494 111.774 68.1289C111.847 68.103 111.876 68.0328 111.874 67.9595L111.873 67.9551L111.854 67.8903L111.853 67.8858L111.841 67.8295C111.756 67.3323 111.559 66.5894 111.559 66.5894C111.758 66.6442 112.761 66.8759 112.696 66.6203C112.143 64.5067 111.53 62.156 110.534 60.1696C110.504 60.1023 110.4 60.1402 110.42 60.2094C110.87 62.2617 111.678 64.2213 112.163 66.2755C111.847 66.2222 111.326 66.1101 111.068 66.1669C111.002 66.2013 111.475 67.5953 111.495 67.8215L111.496 67.8459C110.686 68.117 110.01 67.9904 109.092 67.5923C109.037 67.5654 108.995 67.6187 109.044 67.6621Z" fill="#17282F"/>
<path d="M99.3818 65.3489C101.91 65.4729 103.164 62.4352 102.522 60.0257C102.522 60.0257 109.253 60.774 109.461 55.3786C109.461 55.3786 110.829 57.6894 113.876 57.7049L114.668 59.6759C115.352 59.4622 116.044 57.4896 114.327 55.9904C114.327 55.9904 114.154 53.3064 112.14 51.7365C110.126 50.166 108.18 51.2671 108.18 51.2671C108.18 51.2671 106.578 49.9861 104.112 50.3553C101.645 50.724 100.675 53.0005 100.675 53.0005C100.675 53.0005 97.3635 53.7065 96.8473 56.0801C96.3311 58.4542 97.5852 60.0122 97.5852 60.0122C97.5852 60.0122 96.7706 60.9574 97.2369 62.9643C97.5363 64.2547 98.623 65.312 99.3818 65.3489Z" fill="#17282F"/>
<path d="M109.303 54.9028C109.356 55.3413 109.383 55.7822 109.345 56.2182C109.329 56.6551 109.248 57.0836 109.129 57.4966C108.875 58.3168 108.353 59.0407 107.615 59.4637C106.9 59.9435 106.007 60.0352 105.154 60.1368C104.719 60.1328 104.28 60.1597 103.842 60.1313C103.404 60.0965 102.966 60.0511 102.522 60.0252C102.953 60.1204 103.39 60.1966 103.828 60.2833C104.268 60.3431 104.716 60.3436 105.163 60.376C106.048 60.3212 106.982 60.2265 107.776 59.7293C108.565 59.2504 109.143 58.4443 109.358 57.5609C109.571 56.6775 109.536 55.7563 109.303 54.9028Z" fill="#17282F"/>
<path d="M112.828 57.9443C112.075 57.6882 111.37 57.3589 110.769 56.8911C110.462 56.6658 110.202 56.3863 109.966 56.0879C109.72 55.7914 109.561 55.4382 109.38 55.08C109.436 55.4726 109.547 55.8746 109.767 56.2214C109.972 56.5752 110.252 56.8891 110.579 57.1367C110.905 57.3833 111.265 57.5851 111.648 57.7176C112.03 57.8512 112.427 57.9433 112.828 57.9443Z" fill="#17282F"/>
<path d="M101.967 65.6444C101.967 65.6444 99.6789 62.6435 98.3088 63.4715C96.9381 64.3001 98.7477 68.7125 100.419 69.2571C102.091 69.8022 102.626 68.2646 102.626 68.2646L101.967 65.6444Z" fill="#F9A8B6"/>
<path d="M98.8585 64.7234L98.8516 64.7678C100.025 65.1878 100.677 66.2331 101.148 67.3253C100.787 66.9122 100.31 66.6975 99.7549 67.1294L99.7887 67.1897C100.258 67.0692 100.602 67.1369 100.937 67.5026C101.174 67.7612 101.343 68.094 101.518 68.397C101.576 68.4976 101.76 68.4348 101.716 68.3177L101.705 68.2913C101.674 66.8185 100.445 64.8062 98.8585 64.7234Z" fill="#17282F"/>
<path d="M104.845 66.6826C104.843 66.6826 104.84 66.6821 104.838 66.6821C104.753 66.6786 104.688 66.6074 104.692 66.5227C104.696 66.441 104.763 66.3767 104.845 66.3767C104.847 66.3767 104.849 66.3767 104.852 66.3772C104.936 66.3807 105.001 66.4519 104.997 66.5361C104.994 66.6183 104.926 66.6826 104.845 66.6826Z" fill="#D88A90"/>
<path d="M108.049 66.6709C108.047 66.6709 108.045 66.6709 108.042 66.6709C107.958 66.6669 107.893 66.5957 107.896 66.5115C107.9 66.4293 107.967 66.3655 108.049 66.3655C108.051 66.3655 108.054 66.3655 108.056 66.3655C108.14 66.369 108.206 66.4407 108.202 66.5249C108.198 66.6066 108.13 66.6709 108.049 66.6709Z" fill="#D88A90"/>
<path d="M106.874 67.7441C106.872 67.7441 106.869 67.7441 106.867 67.7441C106.783 67.7407 106.717 67.6689 106.721 67.5847C106.725 67.503 106.793 67.4387 106.874 67.4387C106.876 67.4387 106.878 67.4387 106.88 67.4387C106.965 67.4427 107.03 67.514 107.026 67.5982C107.023 67.6804 106.955 67.7441 106.874 67.7441Z" fill="#D88A90"/>
<path d="M104.985 65.4229C104.983 65.4229 104.981 65.4229 104.979 65.4229C104.894 65.4194 104.829 65.3476 104.833 65.2634C104.836 65.1817 104.904 65.1174 104.985 65.1174C104.987 65.1174 104.99 65.1174 104.992 65.1174C105.076 65.1214 105.142 65.1927 105.138 65.2769C105.134 65.3591 105.066 65.4229 104.985 65.4229Z" fill="#D88A90"/>
<path d="M106.457 66.3496C106.455 66.3496 106.452 66.3496 106.45 66.3491C106.366 66.3456 106.301 66.2744 106.304 66.1902C106.308 66.108 106.376 66.0437 106.457 66.0437C106.459 66.0437 106.461 66.0442 106.464 66.0442C106.548 66.0477 106.613 66.1189 106.61 66.2031C106.606 66.2853 106.538 66.3496 106.457 66.3496Z" fill="#D88A90"/>
<path d="M114.42 64.4785C114.418 64.4785 114.415 64.4785 114.413 64.4785C114.329 64.475 114.263 64.4033 114.267 64.3191C114.271 64.2374 114.338 64.1731 114.42 64.1731C114.422 64.1731 114.424 64.1731 114.426 64.1731C114.51 64.1771 114.576 64.2483 114.572 64.3325C114.569 64.4147 114.501 64.4785 114.42 64.4785Z" fill="#D88A90"/>
<path d="M113.19 65.2959C113.188 65.2959 113.186 65.2959 113.183 65.2954C113.099 65.2919 113.034 65.2207 113.037 65.1365C113.041 65.0542 113.108 64.99 113.19 64.99C113.192 64.99 113.195 64.9905 113.197 64.9905C113.281 64.994 113.346 65.0652 113.343 65.1499C113.339 65.2316 113.271 65.2959 113.19 65.2959Z" fill="#D88A90"/>
<path d="M113.451 66.3154C113.448 66.3154 113.446 66.3149 113.444 66.3149C113.36 66.3114 113.294 66.2402 113.298 66.156C113.301 66.0738 113.369 66.0095 113.45 66.0095C113.453 66.0095 113.455 66.01 113.457 66.01C113.542 66.0135 113.607 66.0847 113.603 66.1694C113.6 66.2511 113.532 66.3154 113.451 66.3154Z" fill="#D88A90"/>
<path d="M114.52 65.6602C114.518 65.6602 114.516 65.6602 114.514 65.6602C114.43 65.6562 114.364 65.5849 114.368 65.5007C114.371 65.4185 114.439 65.3547 114.52 65.3547C114.523 65.3547 114.525 65.3547 114.527 65.3547C114.611 65.3587 114.677 65.43 114.673 65.5142C114.67 65.5964 114.602 65.6602 114.52 65.6602Z" fill="#D88A90"/>
<path d="M78.1054 200.347C79.4935 200.85 120.617 201.661 122.165 200.717C122.346 200.621 123.016 187.015 123.016 187.015C122.966 186.822 123.654 185.511 124.702 183.689C127.634 178.572 133.366 169.408 133.366 169.408L108.96 162.028L98.9328 182.112L96.3778 187.236C96.3778 187.236 90.7727 189.428 85.8824 191.613L85.869 191.626C82.8561 192.966 80.2364 194.195 79.6245 194.653C78.0516 195.862 76.7173 199.857 78.1054 200.347Z" fill="#F9A8B6"/>
<path d="M78.1054 200.347C79.4935 200.85 120.617 201.661 122.165 200.717C122.346 200.621 123.016 187.015 123.016 187.015C122.966 186.822 123.654 185.511 124.702 183.689L98.9328 182.112L96.3778 187.236C96.3778 187.236 90.7726 189.428 85.8824 191.613L85.869 191.626C82.8561 192.966 80.2364 194.195 79.6245 194.653C78.0516 195.862 76.7173 199.857 78.1054 200.347Z" fill="white"/>
<path d="M77.9327 200.501C79.3631 201.006 120.54 201.713 122.128 200.747C122.731 200.384 123.458 194.046 123.014 187.016L96.4667 186.592C96.4667 186.592 81.0925 193.388 79.4653 194.634C77.8465 195.88 76.5028 199.995 77.9327 200.501Z" fill="#F4A72A"/>
<path d="M108.427 201.229L108.428 201.227C108.482 201.227 108.536 201.227 108.59 201.227C110.02 201.227 111.394 201.222 112.682 201.211C111.345 201.223 109.915 201.229 108.427 201.229Z" fill="#E0E1DE"/>
<path d="M123.148 192.005C123.162 190.44 123.124 188.754 123.015 187.027C123.015 187.024 123.015 187.022 123.015 187.02C123.124 188.749 123.162 190.438 123.148 192.005Z" fill="#2C4954"/>
<path d="M123.015 187.027C123.015 187.024 123.015 187.02 123.014 187.017H123.015C123.015 187.018 123.015 187.019 123.015 187.021C123.015 187.022 123.015 187.024 123.015 187.027ZM122.953 187.015L122.365 187.006L122.37 187.001L122.953 187.015Z" fill="#E0E1DE"/>
<path d="M108.59 201.228C108.536 201.228 108.482 201.228 108.428 201.227L122.364 187.006L122.365 187.005L122.952 187.015L123.014 187.016C123.015 187.019 123.015 187.024 123.015 187.027C123.124 188.754 123.162 190.439 123.148 192.005C123.107 196.805 122.582 200.474 122.126 200.746C121.665 201.024 117.872 201.165 112.682 201.211C111.394 201.222 110.02 201.228 108.59 201.228Z" fill="#F4AC12"/>
<path d="M78.552 198.864C85.4571 198.813 113.314 199.258 120.144 199.733C120.199 199.736 120.199 199.774 120.143 199.776C113.3 199.976 85.4476 199.305 78.5495 198.977C78.404 198.97 78.406 198.865 78.552 198.864Z" fill="#17282F"/>
<path d="M82.1393 193.198C83.7776 193.159 85.364 193.964 86.2399 194.954C87.0814 195.906 87.7924 197.236 87.7191 198.666L87.6359 198.664C87.2877 195.957 84.8717 193.542 82.1374 193.284C82.0825 193.279 82.083 193.199 82.1393 193.198Z" fill="#17282F"/>
<path d="M94.29 187.247C97.0537 187.256 100.24 188.286 101.918 190.575C101.983 190.664 101.856 190.755 101.775 190.711C99.2988 189.381 96.9416 188.381 94.2367 187.586C94.0459 187.53 94.0922 187.246 94.29 187.247Z" fill="#17282F"/>
<path d="M92.1431 188.043C94.9064 188.051 98.0926 189.081 99.7707 191.37C99.8359 191.459 99.7089 191.55 99.6277 191.506C97.1524 190.176 94.7942 189.176 92.0893 188.382C91.899 188.326 91.9453 188.042 92.1431 188.043Z" fill="#17282F"/>
<path d="M89.9954 188.837C92.7591 188.846 95.9453 189.876 97.6234 192.165C97.6887 192.254 97.5616 192.345 97.4799 192.301C95.0047 190.971 92.647 189.971 89.942 189.176C89.7517 189.12 89.7976 188.836 89.9954 188.837Z" fill="#17282F"/>
<path d="M87.8486 189.632C90.6123 189.641 93.7986 190.671 95.4766 192.96C95.5414 193.049 95.4144 193.14 95.3331 193.096C92.8579 191.766 90.5002 190.766 87.7953 189.972C87.6045 189.915 87.6508 189.631 87.8486 189.632Z" fill="#17282F"/>
<path d="M118.498 193.146C121.597 193.209 121.506 198.026 118.402 197.963C115.302 197.901 115.393 193.084 118.498 193.146Z" fill="#17282F"/>
<path d="M91.4927 181.587C91.8191 178.586 94.4916 180.941 95.0761 181.864C95.4517 182.457 95.7626 183.107 96.0531 183.745C96.6624 185.082 97.07 186.48 97.5398 187.865C96.6271 187.122 95.6585 186.463 94.7193 185.754C93.6003 184.909 91.3129 183.241 91.4927 181.587ZM91.5819 183.877C93.0393 185.827 95.2903 187.077 97.2339 188.471C97.4352 188.616 97.6719 188.453 97.7347 188.257C97.78 188.26 97.8248 188.238 97.8224 188.179C97.7088 185.795 96.796 183.045 95.4328 181.071C94.5913 179.852 92.8489 178.689 91.4304 179.824C90.0892 180.899 90.7304 182.74 91.5819 183.877Z" fill="#17282F"/>
<path d="M101.13 188.401C99.9657 188.228 98.8173 188.001 97.6469 187.872C98.9638 187.235 100.246 186.544 101.626 186.041C102.285 185.801 102.966 185.566 103.652 185.417C104.72 185.187 108.273 185.439 106.363 187.777C105.31 189.066 102.518 188.606 101.13 188.401ZM107.663 186.585C107.478 184.778 105.426 184.352 103.967 184.607C101.604 185.02 99.0041 186.299 97.2254 187.89L97.2319 188.007C97.1347 188.19 97.1855 188.472 97.4302 188.514C99.7874 188.921 102.257 189.649 104.669 189.321C106.077 189.129 107.838 188.295 107.663 186.585Z" fill="#17282F"/>
<path d="M126.558 183.423L97.6035 179.035C97.6035 179.035 111.522 151.296 120.137 136.243C124.927 127.873 138.032 127.464 144.406 137.491C152.921 150.888 159.527 163.441 163.314 170.401L169.882 170.963L168.465 181.693L146.637 186.582C142.356 187.094 138.728 183.441 136.189 179.788C133.769 176.307 132.338 172.826 132.272 172.949C131.213 174.903 126.558 183.423 126.558 183.423Z" fill="#17282F"/>
<path d="M132.118 173.015C132.942 171.328 133.584 169.538 134.315 167.81C135.023 166.138 135.736 164.469 136.438 162.795C137.859 159.412 139.33 156.046 140.707 152.646C141.48 150.737 142.19 148.805 142.913 146.876C142.93 146.83 143.002 146.851 142.987 146.899C142.429 148.721 141.847 150.537 141.237 152.343C141.399 152.031 141.56 151.719 141.729 151.416C142.194 150.585 142.674 149.764 143.156 148.942L143.204 148.972C142.76 149.797 142.316 150.62 141.855 151.436C141.625 151.841 141.374 152.242 141.132 152.647C139.414 157.704 137.467 162.679 135.126 167.484C134.206 169.374 133.127 171.183 132.206 173.069C132.177 173.129 132.089 173.074 132.118 173.015Z" fill="#273E47"/>
<path d="M125.911 178.277C127.307 176.123 130.631 169.602 131.822 167.348C134.231 162.789 136.435 158.137 138.519 153.421C139.696 150.757 140.798 148.069 141.888 145.368L141.918 145.377C140.278 150.242 138.324 155.007 136.204 159.681C134.081 164.361 127.232 176.968 125.999 178.331C125.954 178.38 125.875 178.332 125.911 178.277Z" fill="#273E47"/>
<path d="M143.886 148.969C146.381 153.424 148.93 157.849 151.436 162.298C152.703 164.547 153.968 166.795 155.221 169.051C155.811 170.113 156.383 171.187 156.994 172.236C157.573 173.228 158.263 174.05 159.283 174.609C160.404 175.225 161.694 175.52 162.913 175.877C164.321 176.289 165.721 176.732 167.135 177.12C167.199 177.138 167.17 177.237 167.105 177.22C165.844 176.882 164.57 176.592 163.302 176.279C162.151 175.996 160.967 175.755 159.851 175.348C158.841 174.98 157.966 174.431 157.292 173.582C156.57 172.671 156.056 171.605 155.501 170.59C152.998 166.014 150.521 161.423 148.061 156.824C146.663 154.21 145.277 151.588 143.863 148.982L143.886 148.969Z" fill="#273E47"/>
<path d="M127.216 179.36C125.481 179.045 123.704 178.894 121.955 178.669C120.201 178.443 118.447 178.217 116.693 177.988C113.194 177.531 101.284 175.634 100.385 175.336C100.328 175.317 100.347 175.224 100.405 175.222C101.257 175.196 109.057 176.234 110.806 176.492C114.304 177.007 117.78 177.627 121.266 178.215C122.262 178.383 123.254 178.573 124.248 178.749C125.24 178.925 126.233 179.139 127.233 179.267C127.293 179.275 127.277 179.371 127.216 179.36Z" fill="#273E47"/>
<path d="M108.891 206.544C109.414 205.164 135.637 173.477 137.358 172.919C137.556 172.844 148.297 181.215 148.297 181.215C148.728 181.845 169.992 178.309 169.992 178.309L169.098 203.737L130.75 201.252C130.75 201.252 125.433 204.075 120.583 206.352L120.566 206.353C117.581 207.764 114.941 208.948 114.196 209.108C112.255 209.517 108.358 207.917 108.891 206.544Z" fill="#F9A8B6"/>
<path d="M114.195 209.107C114.944 208.95 117.58 207.765 120.564 206.351L120.583 206.352C125.43 204.075 130.748 201.249 130.748 201.249L139.283 201.804L153.594 180.806C150.637 181.198 148.433 181.415 148.295 181.213C148.295 181.213 137.558 172.843 137.359 172.92C135.637 173.476 109.417 205.162 108.891 206.542C108.36 207.916 112.254 209.519 114.195 209.107Z" fill="white"/>
<path d="M108.662 206.577C109.212 205.163 135.546 173.5 137.313 172.926C137.983 172.706 143.259 176.291 148.297 181.215L131.295 201.608C131.295 201.608 116.114 208.824 114.108 209.244C112.108 209.658 108.113 207.991 108.662 206.577Z" fill="#F4A72A"/>
<path d="M110.306 207.177C114.851 201.977 132.691 180.578 136.788 175.093L136.754 175.065C132.137 180.12 114.472 201.664 110.219 207.105C110.129 207.219 110.211 207.286 110.306 207.177Z" fill="#17282F"/>
<path d="M116.941 208.156C118.039 206.939 118.464 205.212 118.286 203.902C118.114 202.644 117.57 201.237 116.438 200.359L116.385 200.423C118.21 202.454 118.463 205.861 116.874 208.1C116.842 208.145 116.903 208.197 116.941 208.156Z" fill="#17282F"/>
<path d="M129.378 202.831C131.174 200.731 132.473 197.644 131.834 194.88C131.809 194.772 131.657 194.809 131.637 194.899C131.03 197.643 130.249 200.082 129.086 202.65C129.004 202.831 129.25 202.981 129.378 202.831Z" fill="#17282F"/>
<path d="M127.375 203.94C129.171 201.84 130.47 198.753 129.83 195.988C129.806 195.881 129.654 195.917 129.634 196.008C129.026 198.751 128.246 201.19 127.083 203.759C127.001 203.94 127.246 204.09 127.375 203.94Z" fill="#17282F"/>
<path d="M125.372 205.048C127.168 202.948 128.467 199.861 127.828 197.096C127.803 196.989 127.651 197.026 127.631 197.116C127.023 199.86 126.243 202.298 125.08 204.867C124.998 205.048 125.243 205.198 125.372 205.048Z" fill="#17282F"/>
<path d="M123.369 206.155C125.165 204.056 126.463 200.969 125.823 198.204C125.799 198.097 125.647 198.133 125.627 198.223C125.02 200.967 124.239 203.406 123.077 205.974C122.994 206.156 123.239 206.306 123.369 206.155Z" fill="#17282F"/>
<path d="M140.705 180.638C142.68 178.248 138.97 175.174 136.992 177.567C135.016 179.957 138.726 183.031 140.705 180.638Z" fill="#17282F"/>
<path d="M130.791 203.479C130.866 202.306 130.999 201.142 131.031 199.965C131.774 201.225 132.568 202.446 133.184 203.78C133.477 204.416 133.767 205.076 133.971 205.748C134.289 206.793 134.331 210.355 131.843 208.644C130.472 207.701 130.7 204.879 130.791 203.479ZM133.138 209.841C134.924 209.508 135.18 207.428 134.805 205.995C134.198 203.674 132.71 201.188 130.978 199.546L130.862 199.562C130.672 199.481 130.394 199.554 130.373 199.802C130.161 202.185 129.639 204.705 130.165 207.082C130.472 208.47 131.449 210.157 133.138 209.841Z" fill="#17282F"/>
<path d="M136.855 193.336C139.874 193.414 137.746 196.271 136.874 196.93C136.314 197.353 135.692 197.716 135.08 198.059C133.798 198.776 132.437 199.297 131.096 199.879C131.762 198.908 132.338 197.889 132.968 196.895C133.718 195.709 135.192 193.292 136.855 193.336ZM134.58 193.613C132.757 195.226 131.697 197.572 130.467 199.624C130.34 199.837 130.521 200.06 130.722 200.105C130.722 200.151 130.748 200.194 130.807 200.187C133.173 199.877 135.839 198.741 137.694 197.22C138.839 196.281 139.855 194.449 138.607 193.129C137.426 191.88 135.644 192.671 134.58 193.613Z" fill="#17282F"/>
<path d="M157.635 171.886C157.635 171.886 190.52 167.471 201.283 170.37C216.293 174.413 218.014 192.446 206.454 199.31C191.807 208.006 140.995 203.159 140.995 203.159L155.178 179.252C155.178 179.252 176.464 175.285 195.544 176.823L157.046 181.587L157.635 171.886Z" fill="#17282F"/>
<path d="M154.194 180.862L154.228 180.732L154.257 180.627C154.279 180.545 154.303 180.463 154.327 180.382C154.378 180.212 154.442 180.052 154.508 179.888C154.574 179.726 154.646 179.568 154.722 179.41C154.8 179.248 154.901 179.118 154.998 178.97L155.036 178.943L155.06 178.925L155.095 178.911L155.131 178.897C157.469 178.523 173.325 176.727 175.679 176.535C178.053 176.341 180.431 176.202 182.808 176.086C187.549 175.855 192.309 175.845 197.044 176.141C197.489 176.169 197.931 176.207 198.374 176.244C198.47 176.213 198.571 176.199 198.669 176.178C198.9 176.127 199.128 176.075 199.36 176.036C199.792 175.965 200.226 175.914 200.659 175.861C201.563 175.749 202.467 175.683 203.367 175.538C203.422 175.529 203.439 175.621 203.384 175.631C202.477 175.811 201.583 176.059 200.676 176.235C200.415 176.286 200.153 176.336 199.891 176.383C201.624 176.559 203.353 176.782 205.081 177.03C205.135 177.038 205.133 177.131 205.077 177.125C202.723 176.87 200.345 176.747 197.98 176.689C195.63 176.63 193.282 176.585 190.931 176.631C186.177 176.724 181.418 176.986 176.672 177.325C174.008 177.515 157.839 179.397 155.172 179.404L155.14 179.397C155.115 179.463 155.09 179.529 155.057 179.593C154.978 179.75 154.897 179.904 154.811 180.056C154.729 180.203 154.647 180.348 154.555 180.487C154.509 180.557 154.463 180.625 154.415 180.694L154.344 180.797L154.27 180.904C154.248 180.968 154.159 180.921 154.194 180.862Z" fill="#273E47"/>
<path d="M148.282 201.669C149.12 200.295 149.848 198.82 150.621 197.398C151.398 195.972 152.175 194.546 152.954 193.122C154.508 190.28 160.056 180.737 160.592 180.075C160.626 180.034 160.689 180.086 160.671 180.136C160.397 180.881 156.918 187.208 156.119 188.618C154.521 191.437 152.852 194.197 151.203 196.978C150.732 197.772 150.246 198.555 149.769 199.344C149.294 200.132 148.789 200.907 148.347 201.719C148.321 201.768 148.253 201.717 148.282 201.669Z" fill="#273E47"/>
<path d="M161.455 182.696C162.869 182.388 164.312 182.209 165.738 181.976C167.167 181.742 168.597 181.511 170.026 181.283C172.886 180.827 175.749 180.395 178.616 179.992C184.332 179.187 190.064 178.562 195.815 178.207C199.061 178.006 202.311 177.922 205.559 177.801C205.628 177.799 205.621 177.919 205.551 177.92C199.773 177.954 193.978 178.565 188.229 179.219C182.535 179.867 176.852 180.605 171.173 181.406C169.571 181.632 167.968 181.863 166.365 182.097C164.739 182.335 163.108 182.644 161.474 182.801C161.413 182.806 161.392 182.709 161.455 182.696Z" fill="#273E47"/>
<path d="M161.449 141.533C158.299 147.031 145.761 163.983 141.816 164.546C137.71 165.132 122.574 163.835 119.813 160.584C118.461 158.993 120.641 145.346 122.74 146.109C124.838 146.872 137.789 149.999 139.45 149.756C141.102 149.515 154.533 136.52 159.479 133.717C168.008 128.883 163.146 138.573 161.449 141.533Z" fill="#F9A8B6"/>
<path d="M126.07 146.544L122.876 163.453C122.876 163.453 138.036 166.559 142.509 165.25C146.981 163.941 159.473 146.179 163.116 139.152C166.759 132.125 163.577 130.281 157.037 134.657C150.498 139.032 140.009 148.847 138.991 148.889C137.973 148.932 126.07 146.544 126.07 146.544Z" fill="#F4A72A"/>
<path d="M152.603 144.201C152.39 144.714 152.339 145.228 152.334 145.746C152.344 146.259 152.39 146.778 152.603 147.291C152.817 146.778 152.862 146.259 152.872 145.746C152.867 145.228 152.817 144.714 152.603 144.201ZM150.692 156.675C150.173 156.685 149.66 156.736 149.142 156.944C149.66 157.158 150.173 157.209 150.692 157.219C150.758 157.219 150.829 157.214 150.895 157.214C151.022 157.051 151.159 156.883 151.291 156.715C151.088 156.69 150.89 156.68 150.692 156.675ZM133.115 155.104C132.744 154.748 132.347 154.418 131.829 154.204C132.042 154.718 132.372 155.12 132.734 155.49C133.104 155.847 133.501 156.177 134.014 156.39C133.801 155.877 133.47 155.475 133.115 155.104ZM127.01 146.732H127.005C126.959 146.773 126.913 146.819 126.867 146.859C126.512 147.231 126.181 147.627 125.968 148.145C126.481 147.932 126.878 147.602 127.254 147.24C127.375 147.113 127.493 146.986 127.605 146.849C127.386 146.808 127.188 146.768 127.01 146.732ZM142.315 149.894C141.959 150.265 141.629 150.661 141.415 151.18C141.929 150.961 142.33 150.636 142.701 150.275C143.057 149.904 143.387 149.508 143.601 148.989C143.087 149.208 142.686 149.538 142.315 149.894ZM158.627 135.961C158.271 136.333 157.94 136.734 157.727 137.247C158.24 137.034 158.642 136.704 159.013 136.347C159.368 135.977 159.699 135.575 159.913 135.062C159.399 135.275 158.998 135.606 158.627 135.961ZM152.603 144.201C152.39 144.714 152.339 145.228 152.334 145.746C152.344 146.259 152.39 146.778 152.603 147.291C152.817 146.778 152.862 146.259 152.872 145.746C152.867 145.228 152.817 144.714 152.603 144.201ZM139.9 160.726C139.687 161.239 139.641 161.758 139.631 162.271C139.641 162.785 139.687 163.303 139.9 163.816C140.114 163.303 140.16 162.785 140.175 162.271C140.165 161.758 140.114 161.239 139.9 160.726ZM150.692 156.675C150.173 156.685 149.66 156.736 149.142 156.944C149.66 157.158 150.173 157.209 150.692 157.219C150.758 157.219 150.829 157.214 150.895 157.214C151.022 157.051 151.159 156.883 151.291 156.715C151.088 156.69 150.89 156.68 150.692 156.675ZM125.917 161.727C125.398 161.738 124.885 161.789 124.372 161.997C124.885 162.211 125.398 162.261 125.917 162.271C126.43 162.261 126.943 162.211 127.462 161.997C126.943 161.789 126.43 161.738 125.917 161.727ZM158.627 135.961C158.271 136.333 157.94 136.734 157.727 137.247C158.24 137.034 158.642 136.704 159.013 136.347C159.368 135.977 159.699 135.575 159.913 135.062C159.399 135.275 158.998 135.606 158.627 135.961Z" fill="white"/>
<path d="M128.81 155.763C129.068 154.425 130.062 149.065 130.206 147.714L130.167 147.704C129.777 148.965 128.642 154.227 128.381 155.567C127.861 158.239 127.283 160.915 127.059 163.632C127.055 163.68 127.131 163.706 127.145 163.654C127.876 161.066 128.302 158.402 128.81 155.763Z" fill="#17282F"/>
<path d="M153.903 153.302L153.903 153.301C157.76 148.093 161.409 142.443 163.116 139.151C163.533 138.347 163.861 137.61 164.104 136.944C163.861 137.61 163.534 138.346 163.118 139.15C161.409 142.444 157.76 148.093 153.903 153.302Z" fill="#E0E1DE"/>
<path d="M144.339 164.189C145.74 163.102 147.463 161.31 149.303 159.142C149.303 159.143 149.303 159.143 149.303 159.143C147.463 161.31 145.741 163.103 144.339 164.189ZM149.511 158.897V158.896C149.966 158.356 150.427 157.793 150.893 157.214C150.893 157.214 150.893 157.214 150.894 157.214C150.428 157.794 149.966 158.356 149.511 158.897ZM150.967 157.122C151.018 157.057 151.071 156.992 151.123 156.927C151.072 156.991 151.019 157.058 150.967 157.122ZM151.291 156.715C151.291 156.715 151.291 156.715 151.29 156.715C152.159 155.62 153.035 154.473 153.903 153.301L153.903 153.302C153.036 154.473 152.159 155.621 151.291 156.715Z" fill="#142228"/>
<path d="M149.303 159.143C149.303 159.143 149.303 159.143 149.303 159.142C149.372 159.06 149.441 158.979 149.511 158.896V158.896C149.442 158.979 149.372 159.062 149.303 159.143Z" fill="#21363E"/>
<path d="M139.338 165.57C135.017 165.57 128.595 164.514 125.191 163.892L127.208 162.203C127.149 162.678 127.099 163.154 127.059 163.632C127.057 163.661 127.085 163.682 127.11 163.682C127.125 163.682 127.14 163.674 127.146 163.654C127.312 163.064 127.463 162.47 127.602 161.873L162.898 132.315C164.622 132.438 165.168 134.026 164.104 136.944C163.861 137.611 163.533 138.347 163.116 139.151C161.409 142.444 157.76 148.093 153.903 153.302C153.036 154.473 152.159 155.62 151.291 156.716C151.088 156.69 150.89 156.68 150.692 156.675C150.174 156.685 149.66 156.736 149.142 156.944C149.66 157.158 150.174 157.209 150.692 157.219C150.758 157.219 150.828 157.214 150.893 157.214C150.428 157.793 149.966 158.356 149.511 158.896C149.442 158.979 149.372 159.061 149.303 159.143C147.463 161.31 145.741 163.102 144.34 164.19C143.641 164.732 143.022 165.099 142.509 165.248C141.73 165.476 140.627 165.57 139.338 165.57ZM139.9 160.726C139.687 161.24 139.641 161.758 139.631 162.271C139.641 162.785 139.687 163.303 139.9 163.817C140.114 163.303 140.16 162.785 140.175 162.271C140.165 161.758 140.114 161.24 139.9 160.726ZM143.601 148.989C143.088 149.208 142.686 149.538 142.315 149.894C141.959 150.265 141.629 150.661 141.416 151.18C141.929 150.961 142.33 150.636 142.702 150.275C143.057 149.904 143.388 149.508 143.601 148.989ZM152.334 145.746C152.344 146.26 152.39 146.778 152.603 147.291C152.817 146.778 152.863 146.26 152.873 145.746C152.868 145.228 152.817 144.715 152.603 144.201C152.39 144.715 152.339 145.228 152.334 145.746ZM157.727 137.247C158.241 137.034 158.642 136.704 159.013 136.348C159.369 135.977 159.699 135.575 159.913 135.062C159.4 135.275 158.998 135.606 158.627 135.961C158.271 136.333 157.941 136.734 157.727 137.247Z" fill="#F4AC12"/>
<path d="M139.9 163.816C139.687 163.303 139.641 162.785 139.631 162.271C139.641 161.758 139.687 161.239 139.9 160.726C140.114 161.239 140.165 161.758 140.175 162.271C140.16 162.785 140.114 163.303 139.9 163.816ZM150.692 157.219C150.174 157.209 149.66 157.158 149.142 156.944C149.66 156.736 150.174 156.685 150.692 156.675C150.89 156.68 151.088 156.69 151.291 156.715C151.291 156.715 151.291 156.715 151.292 156.715C151.235 156.787 151.18 156.856 151.124 156.927C151.071 156.992 151.019 157.057 150.967 157.122C150.943 157.153 150.918 157.183 150.894 157.214C150.894 157.214 150.894 157.214 150.893 157.214C150.828 157.214 150.758 157.219 150.692 157.219ZM141.416 151.18C141.629 150.661 141.959 150.265 142.315 149.894C142.686 149.538 143.088 149.208 143.601 148.989C143.388 149.508 143.057 149.904 142.702 150.275C142.33 150.636 141.929 150.961 141.416 151.18ZM152.603 147.291C152.39 146.778 152.344 146.259 152.334 145.746C152.339 145.228 152.39 144.714 152.603 144.201C152.817 144.714 152.868 145.228 152.873 145.746C152.863 146.259 152.817 146.778 152.603 147.291ZM157.727 137.247C157.941 136.734 158.271 136.333 158.627 135.961C158.998 135.606 159.4 135.275 159.913 135.062C159.699 135.575 159.369 135.977 159.013 136.347C158.642 136.704 158.241 137.034 157.727 137.247Z" fill="#E0E1DE"/>
<path d="M127.11 163.682C127.085 163.682 127.057 163.661 127.059 163.631C127.099 163.154 127.149 162.678 127.208 162.203L127.602 161.872C127.463 162.469 127.312 163.063 127.145 163.654C127.14 163.674 127.125 163.682 127.11 163.682Z" fill="#142228"/>
<path d="M149.902 172.676L187.182 174.84C187.136 174.079 181.304 152.696 177.11 144.556C171.733 134.118 169.348 132.524 167.752 131.99C165.71 131.308 161.519 131.311 160.285 133.282C153.624 143.926 149.393 172.203 149.902 172.676Z" fill="#F4A72A"/>
<path d="M172.504 146.869C172.29 147.383 172.239 147.896 172.229 148.414C172.239 148.928 172.29 149.441 172.504 149.96C172.712 149.441 172.763 148.928 172.773 148.414C172.763 147.896 172.717 147.383 172.504 146.869ZM180.148 163.542C179.935 164.06 179.884 164.574 179.874 165.092C179.884 165.606 179.935 166.119 180.148 166.638C180.357 166.119 180.408 165.606 180.418 165.092C180.408 164.574 180.357 164.06 180.148 163.542ZM158.82 165.092C158.606 165.606 158.555 166.119 158.545 166.638C158.56 167.151 158.606 167.664 158.82 168.183C159.033 167.664 159.079 167.151 159.089 166.638C159.079 166.119 159.033 165.606 158.82 165.092ZM162.856 142.823C162.337 142.833 161.824 142.884 161.311 143.098C161.824 143.306 162.337 143.357 162.856 143.367C163.369 143.357 163.882 143.311 164.401 143.098C163.882 142.884 163.369 142.833 162.856 142.823ZM171.949 159.17C171.436 159.18 170.918 159.231 170.404 159.445C170.918 159.653 171.436 159.704 171.949 159.714C172.468 159.704 172.981 159.653 173.495 159.445C172.981 159.231 172.468 159.18 171.949 159.17ZM162.592 154.011C162.22 153.655 161.824 153.325 161.305 153.111C161.524 153.625 161.849 154.026 162.21 154.397C162.581 154.753 162.978 155.083 163.496 155.297C163.278 154.783 162.947 154.382 162.592 154.011ZM172.691 136.581C172.544 136.439 172.396 136.302 172.234 136.175L172.229 136.169C171.985 135.981 171.72 135.809 171.41 135.681C171.624 136.195 171.954 136.596 172.31 136.967C172.59 137.237 172.89 137.491 173.24 137.689C173.352 137.755 173.469 137.816 173.596 137.867C173.377 137.354 173.052 136.952 172.691 136.581ZM180.885 153.848H180.88C180.789 153.797 180.692 153.747 180.59 153.706C180.733 154.052 180.931 154.342 181.149 154.611C181.063 154.356 180.972 154.097 180.885 153.848ZM158.987 135.636C158.789 136.032 158.596 136.439 158.403 136.866C158.622 136.708 158.82 136.53 159.013 136.347C159.368 135.976 159.699 135.575 159.913 135.061C159.562 135.209 159.262 135.407 158.987 135.636ZM170.211 170.175C169.855 170.546 169.525 170.943 169.311 171.461C169.824 171.248 170.226 170.917 170.597 170.562C170.953 170.186 171.283 169.789 171.497 169.276C170.983 169.489 170.582 169.819 170.211 170.175ZM158.987 135.636C158.789 136.032 158.596 136.439 158.403 136.866C158.622 136.708 158.82 136.53 159.013 136.347C159.368 135.976 159.699 135.575 159.913 135.061C159.562 135.209 159.262 135.407 158.987 135.636Z" fill="white"/>
<path d="M173.972 136.74C183.391 148.323 193.683 167.556 188.643 171.278C184.041 174.677 168.123 170.363 158.212 165.866C156.325 165.01 165.047 148.381 166.958 149.501C170.311 151.465 172.956 152.641 173.211 152.725C173.758 152.906 170.912 149.027 168 139.912C165.04 130.648 168.587 130.119 173.972 136.74Z" fill="#F9A8B6"/>
<path d="M142.426 146.92C142.311 148.901 147.217 148.772 147.217 148.772C147.217 148.772 146.014 149.427 145.624 150.685C145.178 152.125 147.24 153.456 147.24 153.456C147.24 153.456 146.16 154.372 145.882 155.741C145.593 157.163 147.482 158.803 147.482 158.803C147.482 158.803 146.944 160.209 147.553 161.565C148.595 163.884 152.497 164.139 154.882 164.774C157.436 165.454 161.139 166.951 162.658 167.715L168.089 150.155C168.089 150.155 157.958 143.388 155.027 143.371C152.558 143.357 142.603 143.894 142.426 146.92Z" fill="#F9A8B6"/>
<path d="M147.262 148.718C149.89 148.103 152.661 148.118 155.335 148.163C155.394 148.164 155.392 148.257 155.332 148.255C152.674 148.18 149.931 148.814 147.275 148.846C147.202 148.847 147.19 148.735 147.262 148.718Z" fill="#17282F"/>
<path d="M147.322 153.259C147.921 153.137 148.559 153.214 149.163 153.254C149.814 153.298 150.463 153.353 151.113 153.417C152.412 153.547 153.708 153.706 154.999 153.903C155.057 153.912 155.058 154.002 154.997 153.996C153.701 153.869 152.404 153.762 151.105 153.689C150.455 153.653 149.804 153.623 149.153 153.596C148.548 153.572 147.907 153.596 147.318 153.437C147.231 153.414 147.232 153.277 147.322 153.259Z" fill="#17282F"/>
<path d="M147.537 158.807C148.054 158.681 148.674 158.829 149.194 158.892C149.785 158.963 150.376 159.031 150.968 159.096C152.151 159.226 153.334 159.354 154.521 159.443C154.579 159.447 154.577 159.539 154.518 159.535C153.312 159.452 152.105 159.385 150.899 159.29C150.307 159.244 149.716 159.195 149.124 159.142C148.621 159.097 147.988 159.098 147.529 158.866L147.537 158.807Z" fill="#17282F"/>
<path d="M168.568 149.98L163.692 168.921C163.692 168.921 187.326 176.451 190.135 170.517C192.945 164.584 180.051 141.319 172.27 134.462C164.489 127.606 166.995 137.889 167.199 138.711C168.104 142.364 172.717 152.014 172.717 152.014L168.568 149.98Z" fill="#F4A72A"/>
<path d="M170.211 170.176C170.074 170.323 169.937 170.471 169.809 170.628C169.997 170.674 170.18 170.72 170.374 170.766C170.45 170.699 170.526 170.633 170.597 170.562C170.953 170.186 171.283 169.79 171.497 169.276C170.983 169.49 170.582 169.82 170.211 170.176ZM181.876 154.606C181.505 154.251 181.104 153.92 180.59 153.707C180.804 154.22 181.135 154.622 181.49 154.993C181.861 155.349 182.263 155.679 182.776 155.892C182.563 155.379 182.232 154.977 181.876 154.606ZM189.064 169.083C188.693 168.727 188.296 168.397 187.783 168.183C187.997 168.696 188.327 169.098 188.683 169.469C189.054 169.825 189.456 170.155 189.969 170.369C189.75 169.856 189.425 169.454 189.064 169.083ZM172.691 136.582C172.32 136.226 171.924 135.895 171.41 135.682C171.624 136.195 171.954 136.597 172.31 136.968C172.681 137.324 173.083 137.654 173.596 137.868C173.377 137.354 173.052 136.953 172.691 136.582ZM171.95 159.171C171.436 159.181 170.918 159.232 170.404 159.446C170.918 159.654 171.436 159.705 171.95 159.715C172.468 159.705 172.981 159.654 173.495 159.446C172.981 159.232 172.468 159.181 171.95 159.171ZM180.149 163.543C179.935 164.061 179.884 164.575 179.874 165.093C179.884 165.606 179.935 166.12 180.149 166.638C180.357 166.12 180.408 165.606 180.418 165.093C180.408 164.575 180.357 164.061 180.149 163.543ZM172.504 146.87C172.29 147.383 172.239 147.897 172.229 148.415C172.239 148.929 172.29 149.442 172.504 149.961C172.712 149.442 172.763 148.929 172.773 148.415C172.763 147.897 172.717 147.383 172.504 146.87Z" fill="white"/>
<path d="M168.982 150.017C171.682 151.133 178.705 155.114 180.208 156.675C180.252 156.721 180.198 156.794 180.149 156.754C178.648 155.573 169.966 150.735 168.601 150.127L168.492 150.337C168.442 150.401 168.408 150.36 168.413 150.299L168.541 149.838C168.541 149.838 168.687 149.895 168.982 150.017Z" fill="#17282F"/>
<path d="M170.46 160.838C170.791 159.516 172.077 154.218 172.295 152.878L172.257 152.865C171.798 154.104 170.376 159.295 170.042 160.619C169.377 163.258 168.653 165.899 168.282 168.599C168.275 168.647 168.349 168.677 168.366 168.626C169.237 166.081 169.809 163.445 170.46 160.838Z" fill="#17282F"/>
<path d="M172.9 152.14C172.235 150.47 171.402 148.868 170.663 147.23C169.926 145.599 169.151 143.975 168.47 142.321L168.433 142.335C168.842 143.461 169.249 144.581 169.689 145.691C169.548 145.512 169.414 145.327 169.285 145.14C169.049 144.801 168.833 144.446 168.622 144.091L168.587 144.11C168.744 144.508 168.951 144.877 169.194 145.229C169.376 145.491 169.584 145.73 169.796 145.965C169.978 146.417 170.165 146.867 170.363 147.315C171.095 148.971 171.645 150.601 172.621 152.129C172.654 152.18 172.922 152.193 172.9 152.14Z" fill="#17282F"/>
<path d="M186.621 172.499C181.739 173.185 166.398 169.63 163.784 168.949C163.833 168.67 163.829 168.571 163.895 168.177C163.904 168.126 163.824 168.097 163.811 168.151C163.717 168.522 163.425 169.257 163.528 169.304C164.771 169.871 181.86 173.767 186.618 172.617C186.691 172.599 186.697 172.488 186.621 172.499Z" fill="#17282F"/>
<path d="M148.744 165.277L128.779 167.531L121.816 139.702L141.781 137.447L148.744 165.277Z" fill="#273E47"/>
<path d="M147.763 165.388L127.799 167.643L120.836 139.812L140.8 137.558L147.763 165.388Z" fill="#33535F"/>
<path d="M131.538 151.66C131.753 152.722 132.797 153.484 133.869 153.363C134.942 153.242 135.637 152.284 135.422 151.221C135.207 150.16 134.163 149.397 133.091 149.518C132.018 149.639 131.323 150.598 131.538 151.66Z" fill="white"/>
<path d="M120.912 145.52C120.034 147.832 117.594 150.81 117.522 152.646C117.456 154.304 118.866 154.772 118.866 154.772C118.866 154.772 117.125 155.822 117.333 157.5C117.441 158.363 118.914 158.949 118.914 158.949C118.914 158.949 117.555 159.852 117.833 161.331C118.054 162.511 119.497 162.922 119.497 162.922C119.497 162.922 118.597 164.395 119.207 165.525C120.446 167.814 130.712 166.991 131.994 163.082C132.592 161.261 130.096 161.598 130.096 161.598C130.096 161.598 133.568 160.246 133.453 158.125C133.338 156.004 130.121 156.638 130.121 156.638C130.121 156.638 133.474 155.299 133.133 153.112C132.777 150.836 129.668 152.021 129.668 152.021C129.668 152.021 131.827 150.291 131.181 148.676C130.117 146.011 126.07 149.794 123.771 149.44L122.228 145.819L120.912 145.52Z" fill="#F9A8B6"/>
<path d="M119.114 148.919C119.754 146.658 116.818 144.165 117.12 141.915C117.529 138.871 121.131 141.534 122.228 145.819L122.495 149.295L119.114 148.919Z" fill="#F9A8B6"/>
<path d="M119.715 163.02L119.709 163.074C123.152 163.626 127.104 163.178 130.234 161.596C130.337 161.544 130.298 161.355 130.174 161.39C126.635 162.403 123.414 163.021 119.715 163.02Z" fill="#17282F"/>
<path d="M118.866 158.974L118.868 159.047C122.419 159.597 126.855 158.969 130.249 156.721C130.366 156.644 130.393 156.458 130.252 156.537C127.882 157.86 122.195 158.991 118.866 158.974Z" fill="#17282F"/>
<path d="M129.864 151.779C126.526 153.809 122.874 154.565 119.011 154.801C118.961 154.804 118.971 154.876 119.013 154.884C120.934 155.283 123.381 154.876 125.258 154.397C127.056 153.94 128.586 153.165 129.935 151.896C129.987 151.847 129.935 151.736 129.864 151.779Z" fill="#17282F"/>
<path d="M162.388 139.463C164.568 139.544 167.516 135.656 168.42 132.798C168.48 132.601 167.842 130.791 167.17 128.554C166.767 127.194 166.35 125.672 166.071 124.255C166.015 123.963 157.609 128.167 157.609 128.167C157.609 128.167 159.069 130.965 159.541 133.438C159.578 133.645 159.595 133.841 159.594 134.031L159.601 134.13C159.638 135.27 160.28 139.382 162.388 139.463Z" fill="#F9A8B6"/>
<path d="M165.531 124.4C165.592 126.877 165.243 132.959 160.522 134.002C160.193 134.075 159.887 134.118 159.603 134.132L159.595 134.032C159.593 133.841 159.579 133.647 159.544 133.44C159.07 130.963 157.608 128.165 157.608 128.165C157.608 128.165 163.672 125.133 165.531 124.4Z" fill="#17282F"/>
<path d="M167.583 114.932C168.495 118.164 166.603 127.405 164.275 129.425C160.9 132.354 155.473 132.526 153.01 128.491C150.622 124.581 153.301 112.582 155.892 110.756C159.708 108.067 166.236 110.158 167.583 114.932Z" fill="#F9A8B6"/>
<path d="M158.38 120.407L158.415 120.474C158.247 121.087 158.159 121.817 158.669 122.156L158.655 122.189C157.996 121.93 158.123 120.962 158.38 120.407Z" fill="#17282F"/>
<path d="M159.087 119.894C160.098 120.056 159.699 122.068 158.762 121.918C157.839 121.77 158.239 119.758 159.087 119.894Z" fill="#17282F"/>
<path d="M154.888 119.734L154.829 119.779C154.725 120.406 154.501 121.107 153.896 121.202L153.894 121.238C154.602 121.278 154.89 120.344 154.888 119.734Z" fill="#17282F"/>
<path d="M154.461 118.972C153.474 118.697 152.997 120.692 153.911 120.947C154.811 121.198 155.288 119.203 154.461 118.972Z" fill="#17282F"/>
<path d="M160.061 118.773C159.8 118.651 159.58 118.495 159.334 118.347C159.057 118.181 158.819 118.077 158.675 117.772C158.599 117.609 158.692 117.359 158.844 117.27C159.198 117.061 159.588 117.18 159.929 117.367C160.3 117.569 160.534 117.82 160.693 118.211C160.848 118.589 160.405 118.934 160.061 118.773Z" fill="#17282F"/>
<path d="M153.719 117.781C154.005 117.813 154.275 117.795 154.561 117.797C154.884 117.799 155.141 117.834 155.423 117.649C155.574 117.549 155.624 117.289 155.541 117.133C155.349 116.77 154.954 116.669 154.564 116.65C154.143 116.629 153.812 116.721 153.473 116.971C153.144 117.214 153.342 117.739 153.719 117.781Z" fill="#17282F"/>
<path d="M158.521 126.229C158.394 126.4 158.275 126.626 158.051 126.68C157.835 126.733 157.564 126.674 157.352 126.628L157.329 126.664C157.53 126.88 157.896 126.977 158.179 126.881C158.456 126.786 158.558 126.519 158.586 126.248L158.521 126.229Z" fill="#17282F"/>
<path d="M157.987 124.408C157.531 124.88 156.96 125.074 156.384 125.071C156.126 125.072 155.864 125.029 155.613 124.955C155.563 124.944 155.514 124.928 155.471 124.909C155.426 124.895 155.387 124.881 155.338 124.861C155.268 124.836 155.24 124.768 155.241 124.697L155.242 124.693L155.261 124.63L155.262 124.625L155.273 124.571C155.356 124.088 155.547 123.368 155.547 123.368C155.354 123.421 154.381 123.646 154.444 123.398C154.98 121.347 155.576 119.066 156.541 117.139C156.57 117.074 156.672 117.11 156.652 117.178C156.216 119.169 155.431 121.07 154.961 123.063C155.268 123.011 155.773 122.903 156.023 122.958C156.087 122.991 155.628 124.343 155.609 124.563L155.608 124.587C156.394 124.85 157.05 124.726 157.94 124.341C157.993 124.314 158.035 124.366 157.987 124.408Z" fill="#17282F"/>
<path d="M156.133 125.009C156.133 125.009 156.508 125.576 157.051 125.801C157.251 125.886 157.469 125.926 157.702 125.877C158.182 125.778 158.216 125.345 158.149 124.969C158.095 124.66 157.968 124.39 157.968 124.39C157.968 124.39 157.243 124.999 156.133 125.009Z" fill="#17282F"/>
<path d="M157.051 125.801C157.251 125.886 157.469 125.926 157.702 125.877C158.182 125.778 158.217 125.345 158.149 124.969C157.64 124.994 157.121 125.312 157.051 125.801Z" fill="#F578BA"/>
<path d="M167.948 122.164C165.496 122.284 164.279 119.337 164.902 117C164.902 117 158.371 117.726 158.17 112.491C158.17 112.491 156.842 114.733 153.887 114.749L153.118 116.66C152.454 116.453 151.783 114.539 153.449 113.085C153.449 113.085 153.617 110.481 155.571 108.958C157.525 107.434 159.412 108.503 159.412 108.503C159.412 108.503 160.966 107.26 163.359 107.618C165.752 107.976 166.693 110.184 166.693 110.184C166.693 110.184 169.907 110.869 170.407 113.172C170.908 115.476 169.691 116.987 169.691 116.987C169.691 116.987 170.482 117.904 170.03 119.851C169.739 121.103 168.685 122.129 167.948 122.164Z" fill="#17282F"/>
<path d="M158.323 112.03C158.272 112.455 158.246 112.883 158.282 113.306C158.297 113.73 158.377 114.146 158.492 114.546C158.738 115.342 159.245 116.044 159.961 116.454C160.654 116.92 161.521 117.009 162.349 117.108C162.771 117.104 163.197 117.13 163.621 117.102C164.046 117.068 164.471 117.024 164.902 116.999C164.483 117.092 164.059 117.165 163.635 117.25C163.208 117.307 162.773 117.308 162.34 117.34C161.481 117.287 160.574 117.195 159.805 116.712C159.039 116.247 158.478 115.465 158.27 114.608C158.063 113.752 158.098 112.858 158.323 112.03Z" fill="#17282F"/>
<path d="M154.903 114.98C155.633 114.732 156.317 114.412 156.901 113.959C157.199 113.74 157.451 113.469 157.68 113.179C157.919 112.892 158.073 112.549 158.248 112.202C158.194 112.582 158.087 112.972 157.873 113.309C157.674 113.652 157.402 113.957 157.086 114.197C156.769 114.436 156.419 114.632 156.048 114.76C155.678 114.89 155.292 114.979 154.903 114.98Z" fill="#17282F"/>
<path d="M165.44 122.451C165.44 122.451 167.66 119.539 168.99 120.343C170.319 121.147 168.563 125.427 166.942 125.956C165.32 126.485 164.802 124.993 164.802 124.993L165.44 122.451Z" fill="#F9A8B6"/>
<path d="M168.456 121.558L168.463 121.601C167.325 122.009 166.692 123.023 166.235 124.082C166.585 123.681 167.048 123.473 167.587 123.893L167.554 123.951C167.099 123.834 166.765 123.9 166.44 124.254C166.209 124.505 166.046 124.828 165.877 125.122C165.82 125.22 165.641 125.159 165.684 125.045L165.694 125.02C165.725 123.591 166.917 121.639 168.456 121.558Z" fill="#17282F"/>
<path d="M162.061 123.459C161.982 123.459 161.916 123.397 161.913 123.317C161.909 123.235 161.973 123.166 162.054 123.163C162.056 123.163 162.059 123.163 162.061 123.163C162.14 123.163 162.205 123.224 162.209 123.304C162.212 123.386 162.149 123.455 162.067 123.458C162.065 123.459 162.063 123.459 162.061 123.459Z" fill="#D88A90"/>
<path d="M158.952 123.447C158.873 123.447 158.807 123.385 158.804 123.305C158.8 123.224 158.864 123.154 158.945 123.151C158.948 123.151 158.95 123.151 158.952 123.151C159.031 123.151 159.096 123.213 159.1 123.292C159.104 123.374 159.04 123.443 158.958 123.447C158.956 123.447 158.954 123.447 158.952 123.447Z" fill="#D88A90"/>
<path d="M160.092 124.489C160.013 124.489 159.947 124.427 159.944 124.347C159.94 124.266 160.004 124.196 160.085 124.193C160.088 124.193 160.09 124.193 160.092 124.193C160.171 124.193 160.237 124.255 160.24 124.334C160.244 124.416 160.181 124.485 160.099 124.489C160.096 124.489 160.094 124.489 160.092 124.489Z" fill="#D88A90"/>
<path d="M161.924 122.237C161.846 122.237 161.78 122.175 161.777 122.095C161.773 122.014 161.836 121.944 161.918 121.941C161.921 121.941 161.922 121.941 161.925 121.941C162.004 121.941 162.069 122.003 162.073 122.082C162.076 122.164 162.013 122.233 161.931 122.237C161.929 122.237 161.927 122.237 161.924 122.237Z" fill="#D88A90"/>
<path d="M160.496 123.136C160.418 123.136 160.352 123.073 160.348 122.994C160.345 122.912 160.408 122.843 160.49 122.839C160.492 122.839 160.494 122.839 160.497 122.839C160.575 122.839 160.641 122.902 160.644 122.981C160.648 123.063 160.585 123.132 160.503 123.135C160.501 123.136 160.498 123.136 160.496 123.136Z" fill="#D88A90"/>
<path d="M152.771 121.32C152.692 121.32 152.627 121.258 152.623 121.179C152.62 121.097 152.683 121.028 152.765 121.024C152.767 121.024 152.769 121.024 152.771 121.024C152.85 121.024 152.916 121.086 152.919 121.166C152.923 121.248 152.859 121.317 152.778 121.32C152.776 121.32 152.773 121.32 152.771 121.32Z" fill="#D88A90"/>
<path d="M153.965 122.113C153.885 122.113 153.82 122.051 153.816 121.971C153.813 121.89 153.876 121.82 153.958 121.817C153.96 121.817 153.963 121.817 153.965 121.817C154.043 121.817 154.109 121.879 154.113 121.958C154.116 122.04 154.053 122.109 153.971 122.113C153.969 122.113 153.967 122.113 153.965 122.113Z" fill="#D88A90"/>
<path d="M153.711 123.103C153.632 123.103 153.567 123.04 153.563 122.961C153.56 122.879 153.623 122.81 153.705 122.806C153.707 122.806 153.709 122.806 153.712 122.806C153.79 122.806 153.856 122.868 153.86 122.948C153.863 123.029 153.8 123.099 153.718 123.102C153.716 123.103 153.714 123.103 153.711 123.103Z" fill="#D88A90"/>
<path d="M152.674 122.466C152.594 122.466 152.529 122.404 152.526 122.324C152.522 122.243 152.585 122.173 152.667 122.17C152.669 122.17 152.672 122.169 152.674 122.169C152.752 122.169 152.818 122.232 152.822 122.311C152.825 122.393 152.762 122.462 152.68 122.466C152.678 122.466 152.676 122.466 152.674 122.466Z" fill="#D88A90"/>
<path d="M197.886 101.049C197.886 107.838 192.38 113.344 185.591 113.344C182.848 113.344 180.315 112.444 178.267 110.919L172.245 112.457L174.752 106.849C173.821 105.12 173.297 103.142 173.297 101.049C173.297 94.2607 178.803 88.7546 185.591 88.7546C192.38 88.7546 197.886 94.2607 197.886 101.049Z" fill="white"/>
<path d="M197.886 101.05C197.924 93.1923 190.235 87.1905 182.637 89.2687C177.224 90.5875 173.256 95.9456 173.545 101.499C173.621 103.323 174.108 105.125 174.963 106.735L175.019 106.841L174.971 106.947L172.444 112.546L172.19 112.245L178.223 110.747L178.307 110.727C180.536 112.443 183.399 113.377 186.223 113.209C192.624 113.054 197.928 107.427 197.886 101.05ZM197.886 101.05C197.971 108.158 191.594 114.029 184.523 113.416C182.243 113.244 180.014 112.419 178.161 111.062L178.311 111.092L172.299 112.669L171.86 112.784L172.045 112.368L174.533 106.751L174.541 106.963C171.708 101.926 173.084 95.1205 177.557 91.5078C185.644 84.8488 197.857 90.5791 197.886 101.05Z" fill="#17282F"/>
<path d="M190.937 96.5004C190.594 96.8432 190.038 96.8432 189.692 96.4969C189.35 96.1546 189.35 95.5981 189.692 95.2558C190.038 94.91 190.594 94.91 190.937 95.2523C191.283 95.5981 191.283 96.1546 190.937 96.5004ZM185.237 94.2962C183.4 96.1332 183.4 99.1152 185.237 100.952C187.078 102.793 190.056 102.789 191.893 100.952C193.733 99.1117 193.733 96.1367 191.893 94.2962C190.056 92.4592 187.078 92.4557 185.237 94.2962Z" fill="#F4A72A"/>
<path d="M187.65 101.597L186.644 102.603L183.59 99.5483L184.596 98.5429L187.65 101.597Z" fill="#F4A72A"/>
<path d="M184.074 100.033L186.145 102.104L185.636 102.613L184.779 102.349L185.043 103.205L184.203 104.046L183.066 103.811L183.302 104.948L183.111 105.138L182.255 104.874L182.519 105.73L181.662 105.466L181.926 106.323L181.259 106.99L180.123 106.754L180.358 107.891L179.775 108.474L177.469 108.706L177.704 106.403L184.074 100.033Z" fill="#E7E8E5"/>
<path d="M184.835 101.363L178.9 107.298L178.758 107.155L184.693 101.22L184.835 101.363Z" fill="#D4D6D3"/>
<path d="M188.437 101.773C188.146 101.773 187.854 101.743 187.567 101.68L187.65 101.597L187.578 101.525C187.902 101.61 188.232 101.649 188.561 101.649C190.641 101.65 192.668 100.04 192.656 97.6246C192.687 100.1 190.59 101.773 188.437 101.773ZM184.74 98.6873L184.596 98.5428L184.487 98.651C184.147 97.2504 184.516 95.6745 185.597 94.6561C186.417 93.84 187.434 93.4758 188.439 93.4758C190.593 93.4758 192.689 95.1483 192.656 97.6246C192.669 95.2086 190.643 93.6008 188.565 93.6008C187.564 93.6008 186.552 93.973 185.748 94.807C184.722 95.8075 184.386 97.3391 184.74 98.6873Z" fill="#F4AC12"/>
<path d="M187.567 101.68C186.861 101.525 186.179 101.173 185.596 100.594C185.034 100.062 184.665 99.3803 184.487 98.6509L184.596 98.5428L184.74 98.6873C184.912 99.3434 185.248 99.9563 185.746 100.443C186.285 101.003 186.918 101.354 187.578 101.525L187.65 101.597L187.567 101.68Z" fill="#F4AC12"/>
</svg>
