<svg width="19" height="19" viewBox="0 0 19 19" fill="none" xmlns="http://www.w3.org/2000/svg">
<g clip-path="url(#clip0_1883_128732)">
<path d="M13.9343 8.64947C15.4004 10.6371 15.8533 12.3619 15.5799 12.6363C15.3054 12.9086 13.5817 12.4569 11.592 10.9907L5.75899 16.8247C10.1775 18.7649 15.9208 14.6946 16.9532 13.6623C17.9295 12.6891 17.0555 10.1695 14.994 7.58864L13.9343 8.64947ZM8.09282 7.32686C6.93276 5.57675 6.58232 4.13591 6.83249 3.88575C7.07843 3.63875 8.52137 3.98708 10.2704 5.14925L11.3503 4.0673C8.96049 2.3003 6.7111 1.60364 5.80121 2.51669C4.82165 3.49414 1.1061 8.72019 2.39071 13.0269L8.09282 7.32686ZM18.4943 0.504803C18.3963 0.406693 18.28 0.328859 18.1519 0.275753C18.0239 0.222647 17.8866 0.195312 17.748 0.195312C17.6094 0.195312 17.4721 0.222647 17.344 0.275753C17.216 0.328859 17.0996 0.406693 17.0017 0.504803L0.504431 17.0031C0.306506 17.2011 0.195313 17.4695 0.195312 17.7494C0.195312 18.0293 0.306506 18.2978 0.504431 18.4957C0.702356 18.6936 0.9708 18.8048 1.25071 18.8048C1.53062 18.8048 1.79906 18.6936 1.99699 18.4957L18.4943 1.99736C18.5924 1.89942 18.6702 1.78309 18.7233 1.65503C18.7764 1.52698 18.8038 1.38971 18.8038 1.25108C18.8038 1.11245 18.7764 0.975181 18.7233 0.847126C18.6702 0.719072 18.5924 0.602745 18.4943 0.504803Z" fill="#515151"/>
</g>
<defs>
<clipPath id="clip0_1883_128732">
<rect width="19" height="19" fill="white"/>
</clipPath>
</defs>
</svg>
