<svg width="18" height="18" viewBox="0 0 18 18" fill="none" xmlns="http://www.w3.org/2000/svg">
<g clip-path="url(#clip0_1879_110593)">
<path d="M0 9.00092C0 10.1018 0.198035 11.1564 0.559793 12.1313L9 12.914L17.4402 12.1313C17.802 11.1564 18 10.1018 18 9.00092C18 7.90004 17.802 6.84549 17.4402 5.8705L9 5.08789L0.559793 5.8705C0.198035 6.84549 0 7.90004 0 9.00092H0Z" fill="#FFDA44"/>
<path d="M17.44 5.86958C16.1683 2.44241 12.8695 0 8.99978 0C5.13009 0 1.83121 2.44241 0.55957 5.86958H17.44Z" fill="#D80027"/>
<path d="M0.55957 12.1309C1.83121 15.558 5.13009 18.0004 8.99978 18.0004C12.8695 18.0004 16.1683 15.558 17.44 12.1309H0.55957Z" fill="#D80027"/>
</g>
<defs>
<clipPath id="clip0_1879_110593">
<rect width="18" height="18" fill="white"/>
</clipPath>
</defs>
</svg>
