<svg width="17" height="16" viewBox="0 0 17 16" fill="none" xmlns="http://www.w3.org/2000/svg">
<g clip-path="url(#clip0_1879_115866)">
<path d="M16.8935 6.01452C16.8124 5.76794 16.6632 5.54815 16.4625 5.3795C16.2618 5.21085 16.0174 5.09991 15.7563 5.05895L11.6598 4.40659L9.76071 0.790519C9.63974 0.560314 9.4564 0.367208 9.2308 0.232388C9.00521 0.097568 8.74607 0.0262451 8.48182 0.0262451C8.21758 0.0262451 7.95844 0.097568 7.73284 0.232388C7.50724 0.367208 7.3239 0.560314 7.20293 0.790519L5.30388 4.40659L1.20738 5.05895C0.946569 5.10055 0.702493 5.21173 0.50193 5.38031C0.301366 5.54889 0.152065 5.76834 0.0704078 6.01459C-0.0112492 6.26084 -0.0221067 6.52437 0.0390267 6.77627C0.10016 7.02817 0.230922 7.2587 0.416965 7.44257L3.33983 10.3298L2.70719 14.349C2.6666 14.605 2.69884 14.867 2.80037 15.1062C2.90191 15.3454 3.0688 15.5525 3.28269 15.7048C3.49658 15.8571 3.74919 15.9486 4.01273 15.9693C4.27627 15.99 4.54054 15.9391 4.77646 15.8222L8.48182 13.9905L12.1873 15.8222C12.4232 15.9389 12.6874 15.9896 12.9509 15.9688C13.2143 15.948 13.4668 15.8564 13.6806 15.7042C13.8944 15.552 14.0613 15.345 14.1629 15.1059C14.2645 14.8668 14.2969 14.6049 14.2566 14.349L13.6239 10.3298L16.5468 7.44257C16.7334 7.25906 16.8646 7.02852 16.9258 6.77648C16.987 6.52444 16.9758 6.26072 16.8935 6.01452ZM15.7438 6.66214L12.419 9.94626L13.1388 14.518C13.1477 14.5728 13.141 14.6289 13.1193 14.6801C13.0977 14.7314 13.062 14.7757 13.0163 14.8083C12.9705 14.8409 12.9164 14.8605 12.86 14.8648C12.8036 14.8691 12.747 14.858 12.6967 14.8328L8.48182 12.7492L4.26695 14.8328C4.21657 14.8581 4.16004 14.8691 4.10363 14.8648C4.04721 14.8605 3.99312 14.841 3.94734 14.8084C3.90157 14.7758 3.86589 14.7314 3.84427 14.6802C3.82265 14.629 3.81593 14.5729 3.82485 14.5181L4.54461 9.94626L1.21992 6.6621C1.18022 6.6228 1.15232 6.57354 1.13929 6.51974C1.12625 6.46593 1.12858 6.40964 1.14602 6.35705C1.16346 6.30445 1.19534 6.25757 1.23816 6.22154C1.28098 6.18552 1.33309 6.16174 1.38879 6.1528L6.04845 5.41078L8.20858 1.29764C8.23442 1.24844 8.27358 1.20716 8.32178 1.17834C8.36998 1.14953 8.42536 1.13428 8.48182 1.13428C8.53829 1.13428 8.59366 1.14953 8.64186 1.17834C8.69006 1.20716 8.72923 1.24844 8.75506 1.29764L10.9152 5.41078L15.5749 6.1528C15.6305 6.16174 15.6827 6.18552 15.7255 6.22154C15.7683 6.25757 15.8002 6.30445 15.8176 6.35705C15.8351 6.40964 15.8374 6.46593 15.8244 6.51974C15.8113 6.57354 15.7834 6.6228 15.7437 6.6621L15.7438 6.66214Z" fill="white"/>
</g>
<defs>
<clipPath id="clip0_1879_115866">
<rect width="17" height="16" fill="white"/>
</clipPath>
</defs>
</svg>
