<svg width="313" height="196" viewBox="0 0 313 196" fill="none" xmlns="http://www.w3.org/2000/svg">
<path d="M259.117 127.538C259.117 68.0487 210.964 19.823 151.565 19.823C92.166 19.823 44.0137 68.0487 44.0137 127.538C44.0137 152.513 52.5031 175.5 66.7458 193.77H236.385C250.627 175.5 259.117 152.513 259.117 127.538Z" fill="white"/>
<path d="M89.3979 23.083H50.6408C49.935 23.083 49.3633 22.5099 49.3633 21.8035V10.9186C49.3633 10.2118 49.935 9.63865 50.6408 9.63865H89.3979C90.1036 9.63865 90.6759 10.2118 90.6759 10.9186V21.8035C90.6759 22.5099 90.1036 23.083 89.3979 23.083Z" fill="#F4A72A"/>
<path d="M55.4951 14.25H81.9878" stroke="#FCF9FC" stroke-width="2.58184" stroke-miterlimit="10" stroke-linecap="round" stroke-linejoin="round"/>
<path d="M55.4951 17.8555H65.2941" stroke="#FCF9FC" stroke-width="2.58184" stroke-miterlimit="10" stroke-linecap="round" stroke-linejoin="round"/>
<path d="M84.0967 21.6183V26.3198C84.0967 26.4581 83.9372 26.5353 83.8291 26.4491L77.7627 21.6183H84.0967Z" fill="#F4A72A"/>
<path d="M55.7304 147.439H29.2647C26.6942 147.439 24.6104 145.352 24.6104 142.778V118.136C24.6104 116.184 26.1905 114.602 28.1393 114.602H55.7304C57.6791 114.602 59.2588 116.184 59.2588 118.136V143.905C59.2588 145.857 57.6791 147.439 55.7304 147.439Z" fill="#6645A2"/>
<path d="M47.2507 127.189C45.9442 125.908 43.8513 125.93 42.5733 127.238L41.731 128.1L40.8636 127.245C39.5626 125.96 37.4683 125.977 36.1858 127.28C34.9048 128.584 34.9203 130.681 36.2228 131.966L39.4401 135.139C39.4471 135.146 39.4516 135.155 39.4581 135.161C39.9718 135.665 40.6065 135.966 41.2668 136.068C42.2847 136.225 43.3607 135.904 44.1355 135.112L47.3007 131.874C48.5788 130.567 48.5567 128.469 47.2507 127.189Z" fill="white"/>
<path d="M274.499 126.671H244.885C242.009 126.671 239.677 124.336 239.677 121.455V93.8813C239.677 91.6971 241.444 89.9267 243.625 89.9267H274.499C276.68 89.9267 278.448 91.6971 278.448 93.8813V122.717C278.448 124.9 276.68 126.671 274.499 126.671Z" fill="#9A68BB"/>
<path d="M256.898 113.866C259.634 113.913 262.405 113.95 264.922 113.775C265.718 113.72 266.407 112.453 265.439 112.053C265.846 111.844 266.259 111.642 266.437 111.184C266.605 110.752 266.403 110.165 265.952 110.053C266.901 110.288 267.276 108.78 266.535 108.293C266.927 107.959 267.253 107.516 267.336 107.007C267.419 106.499 267.211 105.924 266.758 105.678C266.462 105.517 266.109 105.51 265.772 105.508C264.634 105.5 263.496 105.491 262.358 105.483C262.666 103.699 262.759 101.755 261.854 100.188C261.581 99.7164 260.849 99.1508 260.267 99.514C259.723 99.8547 259.874 100.7 259.901 101.234C260.015 103.453 258.755 105.684 256.798 106.73C256.798 106.73 256.926 111.455 256.898 113.866Z" fill="#F9F8F7"/>
<path d="M255.906 113.86H251.771V106.731H255.906V113.86Z" fill="#F9F8F7"/>
<path d="M249.839 11.4272C249.839 13.3779 248.26 14.959 246.313 14.959C244.365 14.959 242.786 13.3779 242.786 11.4272C242.786 9.47644 244.365 7.89489 246.313 7.89489C248.26 7.89489 249.839 9.47644 249.839 11.4272Z" stroke="#FCF9FC" stroke-width="2.37929" stroke-miterlimit="10"/>
<path d="M9.16046 162.949C9.16046 164.899 7.58167 166.48 5.63384 166.48C3.68636 166.48 2.10742 164.899 2.10742 162.949C2.10742 160.998 3.68636 159.416 5.63384 159.416C7.58167 159.416 9.16046 160.998 9.16046 162.949Z" stroke="#FCF9FC" stroke-width="2.37929" stroke-miterlimit="10"/>
<path d="M311.423 96.7689C311.423 98.0815 310.361 99.1455 309.05 99.1455C307.739 99.1455 306.677 98.0815 306.677 96.7689C306.677 95.4559 307.739 94.3919 309.05 94.3919C310.361 94.3919 311.423 95.4559 311.423 96.7689Z" stroke="#FCF9FC" stroke-width="2.37929" stroke-miterlimit="10"/>
<path d="M15.3711 29.779C15.3711 29.779 14.179 31.7798 15.812 32.9716C17.4453 34.1644 18.8664 31.9371 20.6806 33.3128C22.4954 34.6884 20.9863 36.3682 20.9863 36.3682" stroke="#FCF9FC" stroke-width="2.37929" stroke-miterlimit="10"/>
<path d="M295.763 139.245C295.763 139.245 294.855 142 297.162 143.007C299.47 144.014 300.596 140.921 303.173 142.101C305.751 143.282 304.37 145.733 304.37 145.733" stroke="#FCF9FC" stroke-width="2.37929" stroke-miterlimit="10"/>
<path d="M21.1712 92.6466C21.1712 94.3374 19.8027 95.708 18.1145 95.708C16.4261 95.708 15.0576 94.3374 15.0576 92.6466C15.0576 90.9559 16.4261 89.5852 18.1145 89.5852C19.8027 89.5852 21.1712 90.9559 21.1712 92.6466Z" fill="#9A68BB"/>
<path d="M281.95 44.799C281.95 46.4897 280.581 47.8604 278.893 47.8604C277.204 47.8604 275.836 46.4897 275.836 44.799C275.836 43.1082 277.204 41.7376 278.893 41.7376C280.581 41.7376 281.95 43.1082 281.95 44.799Z" fill="#F4A72A"/>
<path d="M276.473 165.393C276.473 166.684 275.428 167.73 274.139 167.73C272.849 167.73 271.805 166.684 271.805 165.393C271.805 164.102 272.849 163.055 274.139 163.055C275.428 163.055 276.473 164.102 276.473 165.393Z" fill="#9A68BB"/>
<path d="M133.014 2.50237C133.014 3.79335 131.969 4.83984 130.68 4.83984C129.391 4.83984 128.346 3.79335 128.346 2.50237C128.346 1.21138 129.391 0.164862 130.68 0.164862C131.969 0.164862 133.014 1.21138 133.014 2.50237Z" fill="#C79CD4"/>
<path d="M274.828 74.8828H295.087" stroke="#FCF9FC" stroke-width="2.58184" stroke-miterlimit="10" stroke-linecap="round" stroke-linejoin="round"/>
<path d="M1.08105 69.333H36.8419" stroke="#FCF9FC" stroke-width="2.58184" stroke-miterlimit="10"/>
<path d="M150.694 2.50195H172.198" stroke="#FCF9FC" stroke-width="2.58184" stroke-miterlimit="10" stroke-linecap="round" stroke-linejoin="round"/>
<path d="M108.204 40.9698C108.204 40.9698 106.791 51.224 94.6931 57.6278C81.794 64.4555 90.9626 84.9909 113.403 85.6853C137.78 86.4392 151.092 64.4504 132.851 36.896L108.204 40.9698Z" fill="#39151A"/>
<path d="M115.755 72.9157L115.882 55.2137H126.679L126.909 73.1201L115.755 72.9157Z" fill="#E3745C"/>
<path d="M114.514 60.4C113.942 58.8335 118.255 67.6604 122.732 67.0853C126.571 66.5919 127.219 59.6686 127.219 59.6686C127.219 59.6686 125.441 62.3036 121.388 62.3091C116.869 62.3162 114.514 60.4 114.514 60.4Z" fill="#39151A"/>
<path d="M108.078 45.4524C109.452 53.3441 114.033 59.9854 121.377 59.9854C128.722 59.9854 133.771 53.4207 134.676 45.4524C135.703 36.4115 128.722 31.0728 121.377 31.0728C114.033 31.0728 106.668 37.3488 108.078 45.4524Z" fill="#39151A"/>
<path d="M109.883 49.5662C109.883 49.5662 108.926 48.0408 106.95 48.7912C104.976 49.5412 105.869 54.3449 108.832 54.9571C108.832 54.9571 109.894 55.189 110.726 54.4606C110.726 54.4606 109.998 50.9128 109.883 49.5662Z" fill="#E3745C"/>
<path d="M107.342 50.4859C107.342 50.4859 108.996 49.9334 110.17 52.373" stroke="#181416" stroke-width="1.36485" stroke-miterlimit="10" stroke-linecap="round" stroke-linejoin="round"/>
<path d="M132.562 49.5662C132.562 49.5662 133.519 48.0408 135.494 48.7912C137.47 49.5412 136.576 54.3449 133.614 54.9571C133.614 54.9571 132.552 55.189 131.719 54.4606C131.719 54.4606 132.448 50.9128 132.562 49.5662Z" fill="#E3745C"/>
<path d="M135.103 50.4859C135.103 50.4859 133.448 49.9334 132.274 52.373" stroke="#181416" stroke-width="1.36485" stroke-miterlimit="10" stroke-linecap="round" stroke-linejoin="round"/>
<path d="M109.696 45.4264C109.695 48.5049 110.014 54.2945 112.006 58.1168C113.877 61.7062 117.206 63.5287 121.265 63.5312C125.263 63.5333 128.925 60.806 130.527 57.7246C132.949 53.0666 132.833 45.4835 132.833 45.4835C132.833 45.4835 132.833 34.4864 121.391 34.4864C109.338 34.4864 109.696 45.4264 109.696 45.4264Z" fill="#E3745C"/>
<path d="M118.69 44.8979L112.414 46.5215C112.414 46.5215 112.699 44.7581 115.267 44.1174C117.834 43.4771 118.69 44.8979 118.69 44.8979Z" fill="#1A181B"/>
<path d="M122.678 44.8979L128.954 46.5215C128.954 46.5215 128.669 44.7581 126.101 44.1174C123.534 43.4771 122.678 44.8979 122.678 44.8979Z" fill="#1A181B"/>
<path d="M120.322 50.1009L120.039 52.3467H121.667" stroke="#181416" stroke-width="1.36485" stroke-miterlimit="10" stroke-linecap="round" stroke-linejoin="round"/>
<path d="M125.674 54.2514H116.532C116.532 54.2514 116.794 57.6194 121.08 57.6269C125.03 57.634 125.674 54.2514 125.674 54.2514Z" fill="white"/>
<path d="M117.391 48.5049C117.391 48.5049 115.656 47.6192 114.188 48.5049" stroke="#181416" stroke-width="1.36485" stroke-miterlimit="10" stroke-linecap="round" stroke-linejoin="round"/>
<path d="M127.374 48.5049C127.374 48.5049 125.639 47.6192 124.171 48.5049" stroke="#181416" stroke-width="1.36485" stroke-miterlimit="10" stroke-linecap="round" stroke-linejoin="round"/>
<path d="M132.563 49.5664C132.563 49.5664 129.515 43.5173 131.644 38.1379C131.644 38.1379 133.764 38.1705 133.689 46.5641L132.563 49.5664Z" fill="#39151A"/>
<path d="M109.884 49.5664C109.884 49.5664 112.922 43.1386 110.803 38.1379C110.803 38.1379 108.683 38.1705 108.758 46.5641L109.884 49.5664Z" fill="#39151A"/>
<path d="M134.777 42.8115C134.777 42.8115 118.272 41.8321 113.489 35.1343C113.489 35.1343 115.051 30.9652 122.403 32.1205C129.755 33.2752 134.777 42.8115 134.777 42.8115Z" fill="#39151A"/>
<path d="M120.253 33.4154C120.253 33.4154 115.583 43.1296 108.906 42.8035C108.906 42.8035 112.573 33.5086 120.253 33.4154Z" fill="#39151A"/>
<path d="M110.702 183.82C110.702 183.82 115.597 159.488 118.477 152.855C118.739 152.253 119.609 152.332 119.783 152.964C120.476 155.493 121.39 162.943 120.983 184.871L120.992 193.834H140.216L143.226 172.263C143.38 170.609 149.552 143.573 134.044 122.726H103.949C103.949 122.726 91.7834 143.685 90.1048 169.321C89.7311 175.025 89.5981 183.738 88.8232 193.834H108.568L110.702 183.82Z" fill="#6645A2"/>
<path d="M96.0023 76.0298C96.0023 76.0298 89.6993 76.927 85.0869 92.7389L97.5069 99.8691L104.835 89.7742L96.0023 76.0298Z" fill="#219653"/>
<path d="M97.5072 99.8692C97.5072 99.8692 89.2604 112.821 87.3031 115.15C85.2793 117.56 82.2135 118.753 79.548 117.085C77.148 115.583 76.2591 112.514 77.4826 109.959L86.0446 93.2184L97.5072 99.8692Z" fill="#E3745C"/>
<path d="M77.5918 76.0526L87.4653 108.235L76.9351 112.821L70.6025 76.532L77.5918 76.0526Z" fill="#E3745C"/>
<path d="M76.912 77.6533L78.4536 76.165C79.5841 75.0739 80.2844 73.6115 80.4269 72.046L80.8241 67.6816C80.8241 67.6816 81.0742 65.3832 76.5089 65.9603C71.944 66.5374 71.6744 66.566 71.7279 67.9231C71.7279 67.9231 72.5628 69.8057 75.5065 70.1875L76.912 77.6533Z" fill="#E3745C"/>
<path d="M71.1344 78.3213C71.1344 78.3213 66.6265 75.8205 66.417 67.9118C66.3925 67.0015 66.8436 66.1369 67.6034 65.6364C68.7734 64.8654 72.1433 62.9267 73.951 64.1661L77.1158 68.2574L76.9122 77.653L71.1344 78.3213Z" fill="#E3745C"/>
<path d="M77.7756 66.8783L80.2921 54.1398C80.4421 53.3809 79.9559 52.642 79.2001 52.4807C78.4463 52.3193 77.702 52.7937 77.5285 53.5467L75.3076 63.1807L74.2406 63.3851L70.5537 53.6369C70.2946 52.9521 69.5182 52.6209 68.846 52.909C68.2572 53.161 67.9436 53.8082 68.1097 54.4274L71.7286 67.9229L77.7756 66.8783Z" fill="#E3745C"/>
<path d="M77.9741 65.8691C77.9741 65.8691 71.7791 65.2765 71.7281 67.9236C71.7281 67.9236 71.595 69.9044 75.5066 70.1879C75.5066 70.1879 73.0666 70.8742 72.9671 73.6045" stroke="#CC5546" stroke-width="1.3282" stroke-miterlimit="10"/>
<path d="M84.0537 97.1123L86.6758 105.658" stroke="#CC5546" stroke-width="1.3282" stroke-miterlimit="10"/>
<path d="M138.336 94.4973C138.336 94.4973 148.145 129.049 151.901 158.004L158.221 156.804C158.221 156.804 157.256 114.376 150.881 88.129L138.336 94.4973Z" fill="#E3745C"/>
<path d="M158.171 155.351C158.171 155.351 167.682 169.417 156.267 175.739C155.515 176.156 154.566 175.986 154.009 175.33L153.935 175.243C153.322 174.519 153.391 173.458 154.057 172.782C155.679 171.136 157.86 167.724 154.384 163.268C154.384 163.268 152.56 163.735 152.865 167.362C152.943 168.296 152.169 169.083 151.238 168.994C150.603 168.933 150.081 168.478 149.926 167.858C149.327 165.467 148.337 159.536 152.154 156.35L158.171 155.351Z" fill="#E3745C"/>
<path d="M144.379 78.9136C144.379 78.9136 153.402 81.8798 154.987 96.1227L140.323 101.691L137.021 92.658L144.379 78.9136Z" fill="#EE2281"/>
<path d="M135.717 75.6144L144.522 78.9488L134.044 118.641H103.95L96.0029 76.0297L106.437 73.604L135.717 75.6144Z" fill="#219653"/>
<path d="M134.044 122.726H103.949V118.641H134.044V122.726Z" fill="#1A181B"/>
<path d="M99.8482 96.6445L97.5078 86.0356" stroke="#219653" stroke-opacity="0.65" stroke-width="2.6564" stroke-miterlimit="10"/>
<path d="M139.275 98.8242L142.437 87.0015" stroke="#D8186F" stroke-width="2.6564" stroke-miterlimit="10"/>
<path d="M124.133 70.989L135.716 75.6149C135.716 75.6149 134.369 80.1816 120.776 80.1816C108.934 80.1821 106.437 73.6045 106.437 73.6045L117.688 70.989H124.133Z" fill="#E3745C"/>
<path d="M200.026 129.584L212.623 194.109H188.205L178.843 151.466L176.688 151.335L176.656 194.109H152.31L153.552 129.584H200.026Z" fill="#F4A72A"/>
<path d="M211.248 84.2949L234.226 78.4101C238.803 77.1221 241.509 72.4026 240.314 67.7942C239.082 63.0461 234.191 60.2422 229.48 61.5823L206.474 68.1248L211.248 84.2949Z" fill="#F78F93"/>
<path d="M213.779 63.9392L191.336 66.8919L197.755 89.834L219.187 85.3654L213.779 63.9392Z" fill="#515151"/>
<path d="M224.494 35.3697C225.068 31.7627 223.672 27.1539 223.672 27.1539L224.183 19.0603C224.283 18.2938 223.79 17.5745 223.04 17.3906C222.232 17.1927 221.416 17.6842 221.212 18.4912L220.537 23.7178L219.823 23.7042L218.851 15.3041C218.776 14.2826 217.834 13.5502 216.828 13.7316C215.99 13.8824 215.387 14.6238 215.41 15.4759L216.05 24.5684L215.315 24.7122L212.744 15.6523C212.467 14.6007 211.37 13.9941 210.334 14.3192C209.382 14.6178 208.821 15.6032 209.051 16.576L211.707 26.9525L210.775 27.2055L207.286 19.918C206.882 19.0743 205.839 18.7642 205.039 19.2502C204.399 19.6394 204.119 20.4259 204.369 21.1338L207.906 30.8299L204.978 30.7558C203.609 30.7608 202.542 31.9471 202.679 33.3122C202.776 34.2756 203.46 35.0781 204.395 35.3256L208.248 36.2594C208.248 36.2594 210.846 39.8743 215.164 41.4434C215.164 41.4434 224.056 38.121 224.494 35.3697Z" fill="#F78F93"/>
<path d="M207.905 30.8304C207.905 30.8304 213.491 30.5018 216.808 33.6533" stroke="#E86270" stroke-width="1.3282" stroke-miterlimit="10"/>
<path d="M240.008 66.8411L224.494 35.3696L214.701 39.4966L224.568 74.1191L240.008 66.8411Z" fill="#F78F93"/>
<path d="M221.631 63.8137L223.151 69.1475" stroke="#E86270" stroke-width="1.3282" stroke-miterlimit="10"/>
<path d="M171.277 65.647L152.908 69.4543L153.551 129.584H200.025L201.483 67.8057L183.997 66.2913L171.277 65.647Z" fill="#515151"/>
<path d="M165.35 94.9951C162.208 94.9951 159.66 92.4437 159.66 89.2967V83.5982H171.04V89.2967C171.04 92.4437 168.493 94.9951 165.35 94.9951Z" fill="#3D4347"/>
<path d="M139.587 84.7315L126.337 108.764C124.018 112.971 125.488 118.262 129.643 120.664H129.643C133.747 123.037 138.989 121.731 141.505 117.71L155.261 95.7291L139.587 84.7315Z" fill="#F78F93"/>
<path d="M135.478 88.0774L154.487 100.295L157.538 85.7034C160.755 80.5009 164.844 74.2238 159.7 70.9209C154.49 67.575 147.557 69.1019 144.23 74.329L135.478 88.0774Z" fill="#515151"/>
<path d="M132.852 121.767L167.639 120.814L170.033 109.555L130.715 104.575L132.852 121.767Z" fill="#F78F93"/>
<path d="M148.336 106.796L139.275 105.658" stroke="#E86270" stroke-width="1.3282" stroke-miterlimit="10"/>
<path d="M167.723 110.015C167.723 110.015 172.173 103.987 177.411 109.993L175.328 114.134L167.723 110.015Z" fill="#F78F93"/>
<path d="M172.962 103.626L171.587 112.059L182.201 113.241L183.885 105.143C184.067 104.269 183.463 103.427 182.579 103.32L174.645 102.36C173.836 102.262 173.094 102.821 172.962 103.626Z" fill="#1A181B"/>
<path d="M169.964 109.297L182.523 109.609C183.979 109.646 185.14 110.838 185.14 112.296C185.14 113.327 184.55 114.268 183.623 114.716L182.951 115.041C182.951 115.041 184.234 124.564 176.686 125.699C169.14 126.832 164.913 120.861 164.913 120.861L169.964 109.297Z" fill="#F78F93"/>
<path d="M184.693 66.3154L184.522 47.3239H170.753L170.446 65.82L184.693 66.3154Z" fill="#F78F93"/>
<path d="M169.62 52.8692C168.904 51.2296 174.4 61.9522 180.012 61.3495C184.825 60.8335 185.024 52.1037 185.024 52.1037C185.024 52.1037 183.316 54.8615 178.237 54.8675C172.571 54.8746 169.62 52.8692 169.62 52.8692Z" fill="#39151A"/>
<path d="M191.852 36.8519C190.378 45.3182 185.464 52.4434 177.583 52.4434C169.704 52.4434 164.287 45.4003 163.316 36.8519C162.215 27.1527 169.704 20.7103 177.583 20.7103C185.464 20.7103 193.365 28.1582 191.852 36.8519Z" fill="#2D131B"/>
<path d="M189.916 41.2656C189.916 41.2656 190.943 39.6289 193.062 40.434C195.181 41.239 194.222 46.3924 191.045 47.0492C191.045 47.0492 189.905 47.2982 189.012 46.5167C189.012 46.5167 189.794 42.7104 189.916 41.2656Z" fill="#F78F93"/>
<path d="M192.642 42.2515C192.642 42.2515 190.866 41.6583 189.606 44.2764" stroke="#181416" stroke-width="1.46429" stroke-miterlimit="10" stroke-linecap="round" stroke-linejoin="round"/>
<path d="M165.584 41.2656C165.584 41.2656 164.557 39.6289 162.439 40.434C160.32 41.239 161.278 46.3924 164.456 47.0492C164.456 47.0492 165.596 47.2982 166.489 46.5167C166.489 46.5167 165.707 42.7104 165.584 41.2656Z" fill="#F78F93"/>
<path d="M162.858 42.2515C162.858 42.2515 164.633 41.6583 165.893 44.2764" stroke="#181416" stroke-width="1.46429" stroke-miterlimit="10" stroke-linecap="round" stroke-linejoin="round"/>
<path d="M190.116 36.8247C190.118 40.1275 189.776 47.0373 187.639 51.1382C185.632 54.9891 182.312 57.0611 177.96 57.1843C174.488 57.283 169.487 54.0228 167.768 50.7174C165.17 45.7198 165.294 36.8858 165.294 36.8858C165.294 36.8858 165.294 25.0881 177.57 25.0881C190.501 25.0881 190.116 36.8247 190.116 36.8247Z" fill="#F78F93"/>
<path d="M173.415 40.8246C173.415 41.3491 172.991 41.7744 172.466 41.7744C171.943 41.7744 171.518 41.3491 171.518 40.8246C171.518 40.2996 171.943 39.8743 172.466 39.8743C172.991 39.8743 173.415 40.2996 173.415 40.8246Z" fill="#1A181B"/>
<path d="M183.22 40.8246C183.22 41.3491 182.794 41.7744 182.271 41.7744C181.747 41.7744 181.322 41.3491 181.322 40.8246C181.322 40.2996 181.747 39.8743 182.271 39.8743C182.794 39.8743 183.22 40.2996 183.22 40.8246Z" fill="#1A181B"/>
<path d="M175.034 36.9554L168.301 38.6973C168.301 38.6973 168.607 36.8056 171.362 36.1183C174.116 35.431 175.034 36.9554 175.034 36.9554Z" fill="#1A181B"/>
<path d="M179.313 36.9554L186.047 38.6973C186.047 38.6973 185.741 36.8056 182.986 36.1183C180.231 35.431 179.313 36.9554 179.313 36.9554Z" fill="#1A181B"/>
<path d="M176.482 43.2359V45.6455H178.228" stroke="#181416" stroke-width="1.46429" stroke-miterlimit="10" stroke-linecap="round" stroke-linejoin="round"/>
<path d="M182.858 47.6742H172.552C172.552 47.6742 172.839 50.388 177.438 50.3965C181.676 50.404 182.858 47.6742 182.858 47.6742Z" fill="white"/>
<path d="M165.585 41.2656C165.585 41.2656 170.181 34.2025 166.57 29.0045C166.57 29.0045 164.296 29.0396 164.376 38.0444L165.585 41.2656Z" fill="#2D131B"/>
<path d="M189.914 41.2656C189.914 41.2656 185.318 34.2025 188.929 29.0045C188.929 29.0045 191.203 29.0396 191.123 38.0444L189.914 41.2656Z" fill="#2D131B"/>
<path d="M165.344 28.6647C165.344 28.6647 171.279 35.3886 183.507 34.0711C194.425 32.8948 195.372 25.2261 192.772 22.1952C189.058 17.8634 180.862 19.473 176.482 24.3103L165.344 28.6647Z" fill="#2D131B"/>
<path d="M170.446 65.8204L177.705 75.1699L184.693 66.3159L170.446 65.8204Z" fill="#F78F93"/>
<path d="M170.446 64.5004L166.163 66.7071L171.003 76.4248L175.842 72.7708L170.446 64.5004Z" fill="#3D4347"/>
<path d="M184.729 64.5004L189.55 66.7722L184.456 76.4248L179.654 72.6641L184.729 64.5004Z" fill="#3D4347"/>
<path d="M14.1543 194.145H291.048" stroke="#FCF9FC" stroke-width="2.6564" stroke-miterlimit="10"/>
</svg>
