<svg width="18" height="18" viewBox="0 0 18 18" fill="none" xmlns="http://www.w3.org/2000/svg">
<path d="M17.7739 6.47777C17.716 6.311 17.5738 6.19285 17.4063 6.17316L11.7944 5.49868L9.28497 0.258074C9.20887 0.101151 9.05376 0.000846863 8.88693 0.000846863C8.71893 0.000846863 8.56439 0.101151 8.48946 0.258074L5.97356 5.511L0.378632 6.3953C0.212973 6.42115 0.0742361 6.54423 0.0221386 6.711C-0.0305443 6.879 0.012779 7.06485 0.131023 7.18916L4.13609 11.3855L3.44068 17.1928C3.41961 17.3676 3.49513 17.5418 3.63386 17.6396C3.77317 17.7375 3.95522 17.7455 4.10098 17.6587L9.00224 14.7578L13.8778 17.6027C14.0247 17.6882 14.2056 17.6796 14.3443 17.5799C14.483 17.4808 14.5574 17.3067 14.5351 17.1319L13.7987 11.2655L17.6791 6.96022C17.795 6.83099 17.8313 6.64454 17.7739 6.47777Z" fill="current"/>
</svg>
