<svg width="22" height="16" viewBox="0 0 22 16" fill="none" xmlns="http://www.w3.org/2000/svg">
<path d="M20.4006 3.37963H20.9006V3.87963V13.8715V14.3715H20.4006H1.31194H0.811943V13.8715V3.87963V3.37963H1.31194H8.35794V3.29149V2.79221H0.975337C0.717437 2.79221 0.5 3.00484 0.5 3.27738V14.4611C0.5 14.7337 0.71746 14.9463 0.975337 14.9463H20.7365C20.9948 14.9463 21.2125 14.7332 21.2125 14.4611V3.27738C21.2125 3.00533 20.9949 2.79221 20.7365 2.79221H13.3546V3.29149V3.37963H20.4006Z" stroke="#current"/>
<path d="M4.36523 7.10326C4.36523 8.14002 5.19697 8.97363 6.21264 8.97363C7.22767 8.97363 8.06004 8.13992 8.06004 7.10326C8.06004 6.06429 7.22757 5.23141 6.21264 5.23141C5.19707 5.23141 4.36523 6.06418 4.36523 7.10326Z" stroke="#current"/>
<mask id="path-3-inside-1_1881_125086" fill="white">
<path d="M6.99515 12.7167H5.24615L4.74015 10.0323C4.79002 10.0286 4.83916 10.0248 4.88976 10.0248H7.35081C7.40214 10.0248 7.45128 10.0286 7.50115 10.0323L6.99515 12.7167ZM7.57008 9.69669H4.85309C3.63502 9.69669 2.64648 10.6952 2.64648 11.9263V13.0078H9.77742V11.9263C9.77742 10.6952 8.78888 9.69669 7.57008 9.69669Z"/>
</mask>
<path d="M6.99515 12.7167L7.97785 12.9019L7.82427 13.7167H6.99515V12.7167ZM5.24615 12.7167V13.7167H4.41703L4.26345 12.9019L5.24615 12.7167ZM4.74015 10.0323L3.75746 10.2175L3.55019 9.11789L4.66609 9.03501L4.74015 10.0323ZM7.50115 10.0323L7.57522 9.03501L8.69111 9.11789L8.48384 10.2175L7.50115 10.0323ZM2.64648 13.0078V14.0078H1.64648V13.0078H2.64648ZM9.77742 13.0078H10.7774V14.0078H9.77742V13.0078ZM6.99515 13.7167H5.24615V11.7167H6.99515V13.7167ZM4.26345 12.9019L3.75746 10.2175L5.72285 9.84703L6.22884 12.5315L4.26345 12.9019ZM4.66609 9.03501C4.70914 9.03181 4.79568 9.02485 4.88976 9.02485V11.0248C4.8886 11.0248 4.88326 11.0249 4.87057 11.0256C4.85654 11.0264 4.84129 11.0275 4.81422 11.0295L4.66609 9.03501ZM4.88976 9.02485H7.35081V11.0248H4.88976V9.02485ZM7.35081 9.02485C7.44548 9.02485 7.53175 9.03178 7.57522 9.03501L7.42708 11.0295C7.40002 11.0275 7.38486 11.0264 7.37084 11.0256C7.35825 11.0249 7.35258 11.0248 7.35081 11.0248V9.02485ZM8.48384 10.2175L7.97785 12.9019L6.01246 12.5315L6.51845 9.84703L8.48384 10.2175ZM7.57008 10.6967H4.85309V8.69669H7.57008V10.6967ZM4.85309 10.6967C4.19698 10.6967 3.64648 11.2378 3.64648 11.9263H1.64648C1.64648 10.1526 3.07307 8.69669 4.85309 8.69669V10.6967ZM3.64648 11.9263V13.0078H1.64648V11.9263H3.64648ZM2.64648 12.0078H9.77742V14.0078H2.64648V12.0078ZM8.77742 13.0078V11.9263H10.7774V13.0078H8.77742ZM8.77742 11.9263C8.77742 11.238 8.22714 10.6967 7.57008 10.6967V8.69669C9.35061 8.69669 10.7774 10.1524 10.7774 11.9263H8.77742Z" fill="#current" mask="url(#path-3-inside-1_1881_125086)"/>
<path d="M5.84435 10.9124L5.57227 12.7168L5.84435 10.9124Z" fill="#current"/>
<mask id="path-6-inside-2_1881_125086" fill="white">
<path d="M5.57227 12.7168H6.67006L6.398 10.9124H6.38848L6.6554 10.4161H6.65467H5.58768L5.85387 10.9124H5.84435L5.57227 12.7168Z"/>
</mask>
<path d="M6.67006 12.7168L7.65889 12.5677L7.83214 13.7168H6.67006V12.7168ZM6.398 10.9124V9.91236H7.25853L7.38682 10.7633L6.398 10.9124ZM6.38848 10.9124V11.9124H4.7152L5.50777 10.4387L6.38848 10.9124ZM6.6554 10.4161V9.41605H8.32867L7.53611 10.8897L6.6554 10.4161ZM5.58768 10.4161L4.70643 10.8887L3.91659 9.41605H5.58768V10.4161ZM5.85387 10.9124L6.73512 10.4397L7.52496 11.9124H5.85387V10.9124ZM5.84435 10.9124L4.85553 10.7633L4.98383 9.91236H5.84435V10.9124ZM5.57227 11.7168H6.67006V13.7168H5.57227V11.7168ZM5.68124 12.8659L5.40918 11.0615L7.38682 10.7633L7.65889 12.5677L5.68124 12.8659ZM6.398 11.9124H6.38848V9.91236H6.398V11.9124ZM5.50777 10.4387L5.77469 9.94239L7.53611 10.8897L7.26918 11.386L5.50777 10.4387ZM6.6554 11.4161H6.65467V9.41605H6.6554V11.4161ZM6.65467 11.4161H5.58768V9.41605H6.65467V11.4161ZM6.46893 9.9434L6.73512 10.4397L4.97262 11.385L4.70643 10.8887L6.46893 9.9434ZM5.85387 11.9124H5.84435V9.91236H5.85387V11.9124ZM6.83317 11.0615L6.56109 12.8659L4.58344 12.5677L4.85553 10.7633L6.83317 11.0615Z" fill="#current" mask="url(#path-6-inside-2_1881_125086)"/>
<path d="M11.2617 6.92188H18.5645V6.49226H11.2617V6.92188Z" stroke="#current"/>
<mask id="path-9-inside-3_1881_125086" fill="white">
<path d="M10.7617 8.84668H19.0645V8.27778H10.7617V8.84668Z"/>
</mask>
<path d="M10.7617 8.84668V9.84668H9.76172V8.84668H10.7617ZM19.0645 8.84668H20.0645V9.84668H19.0645V8.84668ZM19.0645 8.27778V7.27778H20.0645V8.27778H19.0645ZM10.7617 8.27778H9.76172V7.27778H10.7617V8.27778ZM10.7617 7.84668H19.0645V9.84668H10.7617V7.84668ZM18.0645 8.84668V8.27778H20.0645V8.84668H18.0645ZM19.0645 9.27778H10.7617V7.27778H19.0645V9.27778ZM11.7617 8.27778V8.84668H9.76172V8.27778H11.7617Z" fill="#current" mask="url(#path-9-inside-3_1881_125086)"/>
<mask id="path-11-inside-4_1881_125086" fill="white">
<path d="M10.7617 10.3027H19.0645V9.73459H10.7617V10.3027Z"/>
</mask>
<path d="M10.7617 10.3027V11.3027H9.76172V10.3027H10.7617ZM19.0645 10.3027H20.0645V11.3027H19.0645V10.3027ZM19.0645 9.73459V8.73459H20.0645V9.73459H19.0645ZM10.7617 9.73459H9.76172V8.73459H10.7617V9.73459ZM10.7617 9.30273H19.0645V11.3027H10.7617V9.30273ZM18.0645 10.3027V9.73459H20.0645V10.3027H18.0645ZM19.0645 10.7346H10.7617V8.73459H19.0645V10.7346ZM11.7617 9.73459V10.3027H9.76172V9.73459H11.7617Z" fill="#current" mask="url(#path-11-inside-4_1881_125086)"/>
<mask id="path-13-inside-5_1881_125086" fill="white">
<path d="M10.7617 11.7588H19.0645V11.1906H10.7617V11.7588Z"/>
</mask>
<path d="M10.7617 11.7588V12.7588H9.76172V11.7588H10.7617ZM19.0645 11.7588H20.0645V12.7588H19.0645V11.7588ZM19.0645 11.1906V10.1906H20.0645V11.1906H19.0645ZM10.7617 11.1906H9.76172V10.1906H10.7617V11.1906ZM10.7617 10.7588H19.0645V12.7588H10.7617V10.7588ZM18.0645 11.7588V11.1906H20.0645V11.7588H18.0645ZM19.0645 12.1906H10.7617V10.1906H19.0645V12.1906ZM11.7617 11.1906V11.7588H9.76172V11.1906H11.7617Z" fill="#current" mask="url(#path-13-inside-5_1881_125086)"/>
<path d="M9.35742 2.29272V2.79199H12.3541V0.500108H9.35742V2.29272Z" stroke="#current"/>
</svg>
