<svg width="21" height="22" viewBox="0 0 21 22" fill="none" xmlns="http://www.w3.org/2000/svg">
<path d="M7 12H4C3.20435 12 2.44129 11.6839 1.87868 11.1213C1.31607 10.5587 1 9.79565 1 9V5C1 4.20435 1.31607 3.44129 1.87868 2.87868C2.44129 2.31607 3.20435 2 4 2H12C12.7956 2 13.5587 2.31607 14.1213 2.87868C14.6839 3.44129 15 4.20435 15 5V6C15 6.26522 14.8946 6.51957 14.7071 6.70711C14.5196 6.89464 14.2652 7 14 7C13.7348 7 13.4804 6.89464 13.2929 6.70711C13.1054 6.51957 13 6.26522 13 6V5C13 4.73478 12.8946 4.48043 12.7071 4.29289C12.5196 4.10536 12.2652 4 12 4H4C3.73478 4 3.48043 4.10536 3.29289 4.29289C3.10536 4.48043 3 4.73478 3 5V9C3 9.26522 3.10536 9.51957 3.29289 9.70711C3.48043 9.89464 3.73478 10 4 10H7C7.26522 10 7.51957 10.1054 7.70711 10.2929C7.89464 10.4804 8 10.7348 8 11C8 11.2652 7.89464 11.5196 7.70711 11.7071C7.51957 11.8946 7.26522 12 7 12Z" fill="#515151"/>
<path d="M6 7.9999C5.73523 7.99621 5.48163 7.89263 5.29 7.7099C5.19896 7.61479 5.12759 7.50265 5.08 7.3799C5.02876 7.25967 5.00158 7.13057 5 6.9999C5.00368 6.73513 5.10727 6.48153 5.29 6.2899C5.3872 6.20156 5.49882 6.13054 5.62 6.0799C5.80211 6.00332 6.00282 5.98239 6.19681 6.01977C6.3908 6.05714 6.56938 6.15114 6.71 6.2899C6.80373 6.38286 6.87812 6.49346 6.92889 6.61532C6.97966 6.73718 7.0058 6.86788 7.0058 6.9999C7.0058 7.13191 6.97966 7.26261 6.92889 7.38447C6.87812 7.50633 6.80373 7.61693 6.71 7.7099L6.56 7.8299L6.38 7.9199L6.2 7.9999H6Z" fill="#515151"/>
<path d="M10.0033 7.9999C9.73857 7.99621 9.48497 7.89263 9.29334 7.7099L9.17334 7.5599C9.13549 7.50415 9.10523 7.44362 9.08334 7.3799C9.04754 7.32438 9.02056 7.26366 9.00334 7.1999C8.99889 7.1333 8.99889 7.06649 9.00334 6.9999C9.00702 6.73513 9.1106 6.48153 9.29334 6.2899C9.38844 6.19885 9.50059 6.12749 9.62334 6.0799C9.80545 6.00332 10.0062 5.98239 10.2002 6.01977C10.3941 6.05714 10.5727 6.15114 10.7133 6.2899C10.8961 6.48153 10.9997 6.73513 11.0033 6.9999C11.0078 7.06649 11.0078 7.1333 11.0033 7.1999C10.9924 7.26254 10.9722 7.32321 10.9433 7.3799C10.9214 7.44362 10.8912 7.50415 10.8533 7.5599L10.7333 7.7099C10.5367 7.89737 10.275 8.00131 10.0033 7.9999Z" fill="#515151"/>
<path d="M8 3C7.73478 3 7.48043 2.89464 7.29289 2.70711C7.10536 2.51957 7 2.26522 7 2V1C7 0.734784 7.10536 0.48043 7.29289 0.292893C7.48043 0.105357 7.73478 0 8 0C8.26522 0 8.51957 0.105357 8.70711 0.292893C8.89464 0.48043 9 0.734784 9 1V2C9 2.26522 8.89464 2.51957 8.70711 2.70711C8.51957 2.89464 8.26522 3 8 3Z" fill="#515151"/>
<path d="M5 21C4.73478 21 4.48043 20.8946 4.29289 20.7071C4.10536 20.5196 4 20.2652 4 20V17C4 16.7348 4.10536 16.4804 4.29289 16.2929C4.48043 16.1054 4.73478 16 5 16C5.26522 16 5.51957 16.1054 5.70711 16.2929C5.89464 16.4804 6 16.7348 6 17V20C6 20.2652 5.89464 20.5196 5.70711 20.7071C5.51957 20.8946 5.26522 21 5 21Z" fill="#515151"/>
<path d="M7 18H5C4.73478 18 4.48043 17.8946 4.29289 17.7071C4.10536 17.5196 4 17.2652 4 17V11C4 10.7348 4.10536 10.4804 4.29289 10.2929C4.48043 10.1054 4.73478 10 5 10C5.26522 10 5.51957 10.1054 5.70711 10.2929C5.89464 10.4804 6 10.7348 6 11V16H7C7.26522 16 7.51957 16.1054 7.70711 16.2929C7.89464 16.4804 8 16.7348 8 17C8 17.2652 7.89464 17.5196 7.70711 17.7071C7.51957 17.8946 7.26522 18 7 18Z" fill="#515151"/>
<path d="M0.996373 16C0.811706 15.9995 0.6308 15.9478 0.473708 15.8507C0.316615 15.7536 0.189473 15.615 0.106373 15.45C-0.0122385 15.2139 -0.0325387 14.9404 0.0499092 14.6893C0.132357 14.4382 0.310848 14.2299 0.546373 14.11L4.54637 12.11C4.77947 12.013 5.04065 12.0077 5.27749 12.0952C5.51432 12.1828 5.70928 12.3567 5.82321 12.582C5.93714 12.8073 5.96161 13.0674 5.89171 13.31C5.82182 13.5527 5.66272 13.7599 5.44637 13.89L1.44637 15.89C1.30805 15.9641 1.15325 16.0019 0.996373 16Z" fill="#515151"/>
<path d="M15 22C14.8248 22.0012 14.6524 21.9564 14.5 21.87L9.50001 19C9.3474 18.9119 9.22079 18.7851 9.13299 18.6323C9.04518 18.4795 8.99931 18.3062 9.00001 18.13V12.34C8.99931 12.1638 9.04518 11.9906 9.13299 11.8378C9.22079 11.685 9.3474 11.5581 9.50001 11.47L14.5 8.59003C14.652 8.50226 14.8245 8.45605 15 8.45605C15.1755 8.45605 15.348 8.50226 15.5 8.59003L20.5 11.47C20.6526 11.5581 20.7792 11.685 20.867 11.8378C20.9548 11.9906 21.0007 12.1638 21 12.34V18.11C21.0007 18.2862 20.9548 18.4595 20.867 18.6123C20.7792 18.7651 20.6526 18.8919 20.5 18.98L15.5 21.87C15.3476 21.9564 15.1752 22.0012 15 22ZM11 17.54L15 19.85L19 17.54V12.92L15 10.61L11 12.92V17.54Z" fill="#515151"/>
<path d="M15 13.73C14.7033 13.73 14.4133 13.818 14.1666 13.9828C13.92 14.1476 13.7277 14.3819 13.6142 14.656C13.5006 14.93 13.4709 15.2316 13.5288 15.5226C13.5867 15.8136 13.7296 16.0809 13.9393 16.2906C14.1491 16.5004 14.4164 16.6433 14.7074 16.7012C14.9983 16.759 15.2999 16.7293 15.574 16.6158C15.8481 16.5023 16.0824 16.31 16.2472 16.0633C16.412 15.8167 16.5 15.5267 16.5 15.23C16.5 14.8322 16.342 14.4506 16.0607 14.1693C15.7794 13.888 15.3978 13.73 15 13.73Z" fill="#515151"/>
</svg>
