<svg width="33" height="33" viewBox="0 0 33 33" fill="none" xmlns="http://www.w3.org/2000/svg">
<path d="M16.5031 26.9998C15.1239 27.0017 13.758 26.731 12.4837 26.2033C11.2095 25.6755 10.0521 24.9012 9.07812 23.9248L16.5031 16.4998V5.99976C17.882 5.99976 19.2474 6.27135 20.5213 6.79902C21.7952 7.32669 22.9527 8.10012 23.9277 9.07513C24.9028 10.0501 25.6762 11.2077 26.2039 12.4816C26.7315 13.7555 27.0031 15.1209 27.0031 16.4998C27.0031 17.8786 26.7315 19.244 26.2039 20.5179C25.6762 21.7919 24.9028 22.9494 23.9277 23.9244C22.9527 24.8994 21.7952 25.6728 20.5213 26.2005C19.2474 26.7282 17.882 26.9998 16.5031 26.9998Z" fill="#F4A72A"/>
<path fill-rule="evenodd" clip-rule="evenodd" d="M33 16.5C33 25.6125 25.6125 33 16.5 33C7.3875 33 0 25.6125 0 16.5C0 7.3875 7.3875 0 16.5 0C25.6125 0 33 7.3875 33 16.5ZM30 16.5C30 18.2728 29.6508 20.0283 28.9724 21.6662C28.2939 23.3041 27.2995 24.7923 26.0459 26.0459C24.7923 27.2995 23.3041 28.2939 21.6662 28.9724C20.0283 29.6508 18.2728 30 16.5 30C14.7272 30 12.9717 29.6508 11.3338 28.9724C9.69588 28.2939 8.20765 27.2995 6.95406 26.0459C5.70047 24.7923 4.70606 23.3041 4.02763 21.6662C3.34919 20.0283 3 18.2728 3 16.5C3 12.9196 4.42232 9.4858 6.95406 6.95406C9.4858 4.42232 12.9196 3 16.5 3C20.0804 3 23.5142 4.42232 26.0459 6.95406C28.5777 9.4858 30 12.9196 30 16.5Z" fill="#F4A72A"/>
</svg>
