<svg width="8" height="6" viewBox="0 0 8 6" fill="none" xmlns="http://www.w3.org/2000/svg">
<path d="M3.67035 0.1724C3.70704 0.119104 3.75614 0.0755267 3.81342 0.0454221C3.8707 0.0153174 3.93444 -0.000412464 3.99915 -0.000412464C4.06385 -0.000412464 4.12759 0.0153174 4.18487 0.0454221C4.24215 0.0755267 4.29125 0.119104 4.32794 0.1724L7.92795 5.3724C7.96962 5.43238 7.99405 5.50263 7.9986 5.57552C8.00315 5.64841 7.98763 5.72115 7.95374 5.78584C7.91985 5.85053 7.86888 5.9047 7.80636 5.94246C7.74384 5.98021 7.67218 6.00011 7.59915 6H0.399145C0.326282 5.9997 0.25488 5.97954 0.192617 5.94169C0.130354 5.90385 0.0795857 5.84974 0.0457721 5.7852C0.0119585 5.72066 -0.00362127 5.64812 0.000708319 5.57539C0.0050379 5.50265 0.029113 5.43247 0.0703446 5.3724L3.67035 0.1724Z" fill="#F4A72A"/>
</svg>
