<svg width="18" height="18" viewBox="0 0 18 18" fill="none" xmlns="http://www.w3.org/2000/svg">
<path d="M9 18C13.9706 18 18 13.9706 18 9C18 4.02944 13.9706 0 9 0C4.02944 0 0 4.02944 0 9C0 13.9706 4.02944 18 9 18Z" fill="#F0F0F0"/>
<path d="M1.86097 3.52148C1.15402 4.44128 0.620941 5.50141 0.310547 6.6531H4.99259L1.86097 3.52148Z" fill="#0052B4"/>
<path d="M17.6908 6.65306C17.3804 5.50141 16.8473 4.44128 16.1403 3.52148L13.0088 6.65306H17.6908Z" fill="#0052B4"/>
<path d="M0.310547 11.3477C0.620977 12.4993 1.15405 13.5594 1.86097 14.4792L4.99248 11.3477H0.310547Z" fill="#0052B4"/>
<path d="M14.4802 1.86101C13.5604 1.15405 12.5003 0.620977 11.3486 0.310547V4.99255L14.4802 1.86101Z" fill="#0052B4"/>
<path d="M3.52148 16.1393C4.44128 16.8463 5.50141 17.3794 6.65306 17.6898V13.0078L3.52148 16.1393Z" fill="#0052B4"/>
<path d="M6.65303 0.310547C5.50138 0.620977 4.44124 1.15405 3.52148 1.86097L6.65303 4.99252V0.310547Z" fill="#0052B4"/>
<path d="M11.3486 17.6898C12.5003 17.3794 13.5604 16.8463 14.4802 16.1394L11.3486 13.0078V17.6898Z" fill="#0052B4"/>
<path d="M13.0088 11.3477L16.1403 14.4792C16.8473 13.5595 17.3804 12.4993 17.6908 11.3477H13.0088Z" fill="#0052B4"/>
<path d="M17.9238 7.8261H10.174H10.1739V0.0761836C9.78964 0.0261563 9.39786 0 9 0C8.60207 0 8.21035 0.0261563 7.8261 0.0761836V7.82603V7.82606H0.0761836C0.0261563 8.21036 0 8.60214 0 9C0 9.39793 0.0261563 9.78964 0.0761836 10.1739H7.82603H7.82606V17.9238C8.21036 17.9738 8.60207 18 9 18C9.39786 18 9.78964 17.9739 10.1739 17.9238V10.174V10.1739H17.9238C17.9738 9.78964 18 9.39793 18 9C18 8.60214 17.9738 8.21035 17.9238 7.8261Z" fill="#D80027"/>
<path d="M11.3477 11.3477L15.3638 15.3638C15.5485 15.1792 15.7247 14.9861 15.8928 14.786L12.4544 11.3477H11.3477V11.3477Z" fill="#D80027"/>
<path d="M6.65189 11.3477H6.65182L2.63574 15.3637C2.82038 15.5484 3.01343 15.7246 3.21354 15.8928L6.65189 12.4543V11.3477Z" fill="#D80027"/>
<path d="M6.65256 6.65293V6.65286L2.63645 2.63672C2.45174 2.82136 2.27554 3.0144 2.10742 3.21451L5.54581 6.6529H6.65256V6.65293Z" fill="#D80027"/>
<path d="M11.3477 6.6526L15.3638 2.63642C15.1792 2.45171 14.9861 2.2755 14.786 2.10742L11.3477 5.54581V6.6526Z" fill="#D80027"/>
</svg>
