<svg width="16" height="13" viewBox="0 0 16 13" fill="none" xmlns="http://www.w3.org/2000/svg">
<path d="M14.2222 0H1.77778C1.30628 0 0.854097 0.210714 0.520699 0.585786C0.187301 0.960859 0 1.46957 0 2L0 6.5H16V2C16 1.46957 15.8127 0.960859 15.4793 0.585786C15.1459 0.210714 14.6937 0 14.2222 0Z" fill="#005BBB"/>
<path d="M16 11C16 11.5304 15.8127 12.0391 15.4793 12.4142C15.1459 12.7893 14.6937 13 14.2222 13H1.77778C1.30628 13 0.854097 12.7893 0.520699 12.4142C0.187301 12.0391 0 11.5304 0 11V6.5H16V11Z" fill="#FFD500"/>
</svg>
