<svg width="18" height="18" viewBox="0 0 18 18" fill="none" xmlns="http://www.w3.org/2000/svg">
<path d="M8.03571 0.00390625L8.05776 0.0259921V1.98059C8.05776 2.01004 7.87408 2.04501 7.50673 2.08734C6.82898 2.27139 6.27796 2.47016 5.85367 2.68182C5.3302 2.92292 4.70939 3.37568 3.98755 4.04194C2.6449 5.472 1.97265 7.13028 1.97265 9.0131C1.97265 11.1241 2.84143 12.937 4.58082 14.4518C5.90878 15.5008 7.38551 16.0235 9.01102 16.0235C10.8349 16.0235 12.4604 15.3646 13.8876 14.0468C14.1704 13.7634 14.4184 13.48 14.6296 13.1965H14.6718C15.6894 13.8333 16.2331 14.1886 16.3047 14.2585C15.7243 15.0665 14.9602 15.81 14.0143 16.4892C12.431 17.4959 10.7982 17.9984 9.11755 17.9984H8.88429C6.59388 17.9984 4.51653 17.1352 2.65041 15.407C1.88633 14.5567 1.37755 13.8775 1.12408 13.3677C0.374694 11.9781 0 10.5904 0 9.20267V8.73519C0 7.07875 0.536326 5.42783 1.61082 3.78427C2.24633 2.90636 3.02327 2.14072 3.94347 1.48918C4.53673 1.12108 5.06755 0.837648 5.53408 0.638875C6.55163 0.270777 7.27347 0.0793663 7.69592 0.0646424L8.03571 0.00390625ZM9.01102 3.7217L14.2696 8.99102L14.2476 9.0131H11.2573V13.4965L11.2151 13.5389H6.76286L6.74082 13.4965V9.01126H3.73224V8.98918L9.01102 3.7217ZM9.8798 0.00390625C10.53 0.0167897 11.4484 0.257894 12.6367 0.725378C14.9124 1.77446 16.5086 3.46587 17.4288 5.80329C17.809 6.86525 18 7.8628 18 8.79777V9.1585C18 10.2775 17.7392 11.4462 17.2157 12.6646C17.1735 12.6646 16.672 12.361 15.7096 11.7518C15.5957 11.6818 15.5333 11.6321 15.5186 11.6027C15.8584 10.7524 16.0273 9.86709 16.0273 8.94685C16.0273 7.2039 15.412 5.63212 14.1833 4.22967C13.4633 3.52108 12.8829 3.06096 12.4439 2.8493C11.9773 2.59348 11.4759 2.38182 10.9378 2.21249C10.5851 2.12783 10.2104 2.05053 9.81367 1.97875V0.0462375C9.81551 0.0167897 9.83755 0.00390625 9.8798 0.00390625Z" fill="#515151"/>
</svg>
