<svg width="20" height="20" viewBox="0 0 20 20" fill="none" xmlns="http://www.w3.org/2000/svg">
<path d="M12.5 1V5C12.5 5.26522 12.6317 5.51957 12.8661 5.70711C13.1005 5.89464 13.4185 6 13.75 6H18.75M5 14.5C5 14.8978 5.19754 15.2794 5.54917 15.5607C5.90081 15.842 6.37772 16 6.875 16C7.37228 16 7.84919 15.842 8.20083 15.5607C8.55246 15.2794 8.75 14.8978 8.75 14.5C8.75 14.1022 8.55246 13.7206 8.20083 13.4393C7.84919 13.158 7.37228 13 6.875 13C6.37772 13 5.90081 13.158 5.54917 13.4393C5.19754 13.7206 5 14.1022 5 14.5ZM11.25 10.5C11.25 10.8978 11.4475 11.2794 11.7992 11.5607C12.1508 11.842 12.6277 12 13.125 12C13.6223 12 14.0992 11.842 14.4508 11.5607C14.8025 11.2794 15 10.8978 15 10.5C15 10.1022 14.8025 9.72064 14.4508 9.43934C14.0992 9.15804 13.6223 9 13.125 9C12.6277 9 12.1508 9.15804 11.7992 9.43934C11.4475 9.72064 11.25 10.1022 11.25 10.5Z" stroke="#515151" stroke-width="2" stroke-linecap="round" stroke-linejoin="round"/>
<path d="M16.25 19H3.75C3.08696 19 2.45107 18.7893 1.98223 18.4142C1.51339 18.0391 1.25 17.5304 1.25 17V3C1.25 2.46957 1.51339 1.96086 1.98223 1.58579C2.45107 1.21071 3.08696 1 3.75 1H12.5L18.75 6V17C18.75 17.5304 18.4866 18.0391 18.0178 18.4142C17.5489 18.7893 16.913 19 16.25 19Z" stroke="#515151" stroke-width="2" stroke-linecap="round" stroke-linejoin="round"/>
<path d="M6.875 13C6.875 12.337 7.20424 11.7011 7.79029 11.2322C8.37634 10.7634 9.1712 10.5 10 10.5H11.25" stroke="#515151" stroke-width="2" stroke-linecap="round" stroke-linejoin="round"/>
</svg>
