<svg width="21" height="19" viewBox="0 0 21 19" fill="none" xmlns="http://www.w3.org/2000/svg">
<path d="M10.5 9.85938C9.93363 9.85938 9.37997 10.0202 8.90905 10.3215C8.43813 10.6228 8.07109 11.0511 7.85434 11.5522C7.6376 12.0532 7.58089 12.6046 7.69139 13.1365C7.80188 13.6685 8.07462 14.1571 8.4751 14.5406C8.87559 14.9241 9.38584 15.1853 9.94133 15.2911C10.4968 15.3969 11.0726 15.3426 11.5959 15.135C12.1191 14.9275 12.5664 14.576 12.881 14.125C13.1957 13.6741 13.3636 13.1439 13.3636 12.6016C13.3636 11.8743 13.0619 11.1768 12.5249 10.6625C11.9879 10.1483 11.2595 9.85938 10.5 9.85938ZM10.5 13.5156C10.3112 13.5156 10.1267 13.462 9.96968 13.3616C9.81271 13.2611 9.69036 13.1184 9.61811 12.9514C9.54587 12.7843 9.52696 12.6005 9.5638 12.4232C9.60063 12.2459 9.69154 12.0831 9.82503 11.9552C9.95853 11.8274 10.1286 11.7403 10.3138 11.7051C10.4989 11.6698 10.6909 11.6879 10.8653 11.7571C11.0397 11.8263 11.1888 11.9434 11.2937 12.0937C11.3986 12.2441 11.4545 12.4208 11.4545 12.6016C11.4545 12.844 11.354 13.0765 11.175 13.2479C10.996 13.4193 10.7532 13.5156 10.5 13.5156ZM9.82227 7.76617C9.91305 7.84939 10.0201 7.91462 10.1373 7.95813C10.2515 8.00648 10.3751 8.03146 10.5 8.03146C10.6249 8.03146 10.7485 8.00648 10.8627 7.95813C10.9799 7.91462 11.0869 7.84939 11.1777 7.76617L13.3636 5.70953C13.5484 5.53256 13.6523 5.29254 13.6523 5.04227C13.6523 4.79199 13.5484 4.55197 13.3636 4.375C13.1788 4.19803 12.9282 4.09861 12.6668 4.09861C12.4055 4.09861 12.1548 4.19803 11.97 4.375L11.4545 4.9143V1.63281C11.4545 1.39039 11.354 1.15789 11.175 0.986473C10.996 0.815053 10.7532 0.71875 10.5 0.71875C10.2468 0.71875 10.004 0.815053 9.82503 0.986473C9.64602 1.15789 9.54545 1.39039 9.54545 1.63281V4.9143L9.03 4.375C8.84519 4.19803 8.59454 4.09861 8.33318 4.09861C8.07182 4.09861 7.82117 4.19803 7.63636 4.375C7.45156 4.55197 7.34773 4.79199 7.34773 5.04227C7.34773 5.29254 7.45156 5.53256 7.63636 5.70953L9.82227 7.76617ZM17.1818 12.6016C17.1818 12.4208 17.1258 12.2441 17.0209 12.0937C16.9161 11.9434 16.767 11.8263 16.5926 11.7571C16.4181 11.6879 16.2262 11.6698 16.041 11.7051C15.8559 11.7403 15.6858 11.8274 15.5523 11.9552C15.4188 12.0831 15.3279 12.2459 15.2911 12.4232C15.2542 12.6005 15.2731 12.7843 15.3454 12.9514C15.4176 13.1184 15.54 13.2611 15.697 13.3616C15.8539 13.462 16.0385 13.5156 16.2273 13.5156C16.4804 13.5156 16.7232 13.4193 16.9022 13.2479C17.0813 13.0765 17.1818 12.844 17.1818 12.6016ZM18.1364 6.20312H15.2727C15.0196 6.20312 14.7768 6.29943 14.5978 6.47085C14.4187 6.64227 14.3182 6.87476 14.3182 7.11719C14.3182 7.35961 14.4187 7.59211 14.5978 7.76353C14.7768 7.93495 15.0196 8.03125 15.2727 8.03125H18.1364C18.3895 8.03125 18.6323 8.12755 18.8113 8.29897C18.9903 8.47039 19.0909 8.70289 19.0909 8.94531V16.2578C19.0909 16.5002 18.9903 16.7327 18.8113 16.9042C18.6323 17.0756 18.3895 17.1719 18.1364 17.1719H2.86364C2.61048 17.1719 2.36768 17.0756 2.18867 16.9042C2.00966 16.7327 1.90909 16.5002 1.90909 16.2578V8.94531C1.90909 8.70289 2.00966 8.47039 2.18867 8.29897C2.36768 8.12755 2.61048 8.03125 2.86364 8.03125H5.72727C5.98043 8.03125 6.22323 7.93495 6.40224 7.76353C6.58125 7.59211 6.68182 7.35961 6.68182 7.11719C6.68182 6.87476 6.58125 6.64227 6.40224 6.47085C6.22323 6.29943 5.98043 6.20312 5.72727 6.20312H2.86364C2.10415 6.20312 1.37578 6.49203 0.83874 7.00629C0.301704 7.52055 0 8.21804 0 8.94531V16.2578C0 16.9851 0.301704 17.6826 0.83874 18.1968C1.37578 18.7111 2.10415 19 2.86364 19H18.1364C18.8958 19 19.6242 18.7111 20.1613 18.1968C20.6983 17.6826 21 16.9851 21 16.2578V8.94531C21 8.21804 20.6983 7.52055 20.1613 7.00629C19.6242 6.49203 18.8958 6.20312 18.1364 6.20312ZM3.81818 12.6016C3.81818 12.7823 3.87417 12.9591 3.97905 13.1094C4.08394 13.2597 4.23302 13.3769 4.40744 13.446C4.58186 13.5152 4.77379 13.5333 4.95895 13.4981C5.14411 13.4628 5.3142 13.3757 5.44769 13.2479C5.58119 13.1201 5.6721 12.9572 5.70893 12.7799C5.74576 12.6026 5.72686 12.4188 5.65461 12.2518C5.58237 12.0847 5.46002 11.942 5.30304 11.8415C5.14607 11.7411 4.96152 11.6875 4.77273 11.6875C4.51957 11.6875 4.27677 11.7838 4.09776 11.9552C3.91875 12.1266 3.81818 12.3591 3.81818 12.6016Z" fill="white"/>
</svg>
