<svg width="29" height="28" viewBox="0 0 29 28" fill="none" xmlns="http://www.w3.org/2000/svg">
<path d="M26.1764 5.7561C25.7602 5.20448 25.303 4.6828 24.8084 4.19516C24.7732 4.16098 24.7399 4.12703 24.7047 4.09286C23.1415 2.58201 21.2405 1.4371 19.1477 0.746094V19.0737C19.1477 19.6881 19.0224 20.2965 18.7789 20.864C18.5354 21.4316 18.1786 21.9474 17.7286 22.3817C17.2787 22.8163 16.7445 23.1609 16.1567 23.3959C15.5688 23.6309 14.9387 23.752 14.3024 23.752H11.4141V27.6323C12.4194 27.8393 13.4445 27.9438 14.4725 27.9438C17.1419 27.944 19.7593 27.2315 22.0353 25.8848C24.3113 24.5382 26.157 22.6097 27.3684 20.3132C28.5798 18.0166 29.1095 15.4411 28.8992 12.8719C28.6889 10.3026 27.7465 7.83955 26.1764 5.75522V5.7561Z" fill="#0064AF"/>
<path d="M14.4705 2.31802e-09C11.8013 0.000245421 9.18409 0.713261 6.90839 2.0602C4.63272 3.40714 2.78717 5.33552 1.57589 7.63209C0.364601 9.92867 -0.165245 12.504 0.0449436 15.0732C0.255131 17.6424 1.19717 20.1054 2.76687 22.1899C3.18409 22.7413 3.64197 23.2629 4.13695 23.7506C4.17098 23.7837 4.20432 23.8168 4.23834 23.852C5.8013 25.3627 7.70165 26.5078 9.79378 27.1997V8.87027C9.79433 7.62958 10.3052 6.43989 11.214 5.56278C12.1228 4.68568 13.3552 4.19295 14.6402 4.19295H17.5286V0.31263C16.5235 0.104773 15.4984 -1.79958e-05 14.4705 2.31802e-09Z" fill="#003572"/>
</svg>
