<svg width="3" height="12" viewBox="0 0 3 12" fill="none" xmlns="http://www.w3.org/2000/svg">
<path d="M0.407102 6.78491L0.0882354 2.98838C0.0286945 2.24895 0 1.71763 0 1.39528C0 0.956145 0.143472 0.614624 0.431133 0.368145C0.719871 0.123097 1.09935 0 1.56994 0C2.13773 0 2.51901 0.157735 2.70983 0.471202C2.90244 0.786673 3 1.23955 3 1.83128C3 2.1791 2.97633 2.5335 2.92898 2.89277L2.50215 6.80008C2.45588 7.26556 2.35725 7.62225 2.20552 7.87045C2.05273 8.11979 1.80093 8.24289 1.44907 8.24289C1.09326 8.24289 0.842898 8.12294 0.705882 7.88305C0.564921 7.64229 0.466284 7.27615 0.407102 6.78491ZM1.50897 11.9999C1.10545 11.9999 0.753587 11.8963 0.451937 11.687C0.150287 11.4786 0 11.1866 0 10.8116C0 10.4844 0.143472 10.2047 0.431133 9.9754C0.719871 9.74467 1.07174 9.63016 1.4896 9.63016C1.90746 9.63016 2.26184 9.74467 2.55739 9.9754C2.84971 10.2047 3 10.4844 3 10.8116C3 11.1809 2.84971 11.4723 2.55309 11.683C2.26792 11.8904 1.89474 12.0037 1.50897 11.9999Z" fill="#EB5757"/>
</svg>
