<svg width="252" height="254" viewBox="0 0 252 254" fill="none" xmlns="http://www.w3.org/2000/svg">
<path d="M116.508 254C110.509 254 104.556 253.552 98.6912 252.634C93.9398 251.89 84.7162 250.351 73.874 246.041H160.799C146.418 251.249 131.348 254 116.508 254ZM177.39 238.776L177.617 223.042H201.343C193.899 229.133 185.844 234.399 177.39 238.776ZM241.69 165.104C237.462 161.032 232.177 158.105 226.305 156.801C231.649 142.124 234.453 123.791 232.107 101.092C231.924 99.324 230.486 97.9478 228.715 97.8499C222.658 97.5169 208.543 96.2642 195.533 91.6187C182.413 79.238 164.907 71.6779 145.684 71.6779C143.247 71.6779 140.842 71.7994 138.466 72.0362L140.549 67.232C143.301 66.8092 146.004 65.9438 148.547 64.6248L153.683 67.6465C153.76 67.6919 153.846 67.7137 153.931 67.7137C154.045 67.7137 154.158 67.6738 154.249 67.5957L159.681 62.9421C159.84 62.806 159.895 62.5838 159.819 62.3896L157.634 56.8398C159.328 54.5274 160.601 51.9856 161.444 49.3295L167.212 47.8282C167.414 47.7756 167.561 47.5996 167.577 47.3909L168.132 40.2535C168.149 40.0449 168.031 39.849 167.839 39.7655L162.373 37.387C161.951 34.632 161.087 31.9242 159.77 29.376L162.787 24.2325C162.893 24.052 162.872 23.8243 162.736 23.6655L158.09 18.2245C157.995 18.1138 157.858 18.053 157.718 18.053C157.657 18.053 157.596 18.0639 157.538 18.0875L151.997 20.2755C149.689 18.5783 147.152 17.3037 144.499 16.4592L143 10.6825C142.947 10.4793 142.773 10.3333 142.564 10.3169L135.437 9.76083C135.425 9.75902 135.412 9.75903 135.399 9.75903C135.206 9.75903 135.028 9.87424 134.95 10.0538L132.575 15.5285C129.825 15.9521 127.121 16.8175 124.578 18.1356L119.443 15.1139C119.365 15.0685 119.28 15.0468 119.194 15.0468C119.08 15.0468 118.967 15.0867 118.876 15.1647L113.444 19.8183C113.285 19.9544 113.23 20.1767 113.306 20.3717L115.491 25.9207C113.796 28.2339 112.525 30.7739 111.682 33.4309L105.913 34.9323C105.711 34.9849 105.565 35.1608 105.548 35.3695L104.993 42.5078C104.977 42.7155 105.094 42.9115 105.286 42.9949L110.752 45.3735C111.174 48.1284 112.039 50.8363 113.355 53.3844L110.339 58.5279C110.233 58.7085 110.252 58.9362 110.388 59.0949L115.035 64.5359C115.13 64.6466 115.267 64.7074 115.407 64.7074C115.468 64.7074 115.528 64.6965 115.587 64.6729L121.127 62.4849C123.437 64.1822 125.974 65.4567 128.626 66.3013L130.125 72.0779C130.177 72.2811 130.353 72.4272 130.561 72.4435L133.639 72.6839C104.76 77.5598 81.538 99.6759 74.3232 128.398C73.6838 130.943 71.4657 132.544 69.0991 132.544C68.313 132.544 67.5096 132.368 66.7425 131.989C60.648 128.988 53.8226 127.305 46.6117 127.305C42.8531 127.305 38.9891 127.763 35.0719 128.728C23.8016 131.507 14.1695 138.561 7.88889 148.135C5.57916 119.653 11.8348 89.7672 27.7136 64.8725C51.2604 27.9563 93.0287 6.64661 133.226 6.64661C134.211 6.64661 135.191 6.65932 136.175 6.68472C145.026 6.91605 178.946 8.33934 208.758 33.3203C213.136 36.9896 222.793 45.7082 231.497 59.5403C250.347 89.496 253.306 130.318 241.69 165.104ZM180.791 71.2733C181.978 72.1451 183.281 72.7991 184.643 73.2336L185.413 76.2009C185.44 76.3052 185.53 76.3805 185.638 76.3887L189.299 76.6744C189.305 76.6744 189.311 76.6753 189.318 76.6753C189.417 76.6753 189.509 76.6164 189.549 76.5238L190.769 73.7117C192.181 73.494 193.57 73.0495 194.877 72.3718L197.515 73.924C197.554 73.9475 197.598 73.9594 197.642 73.9594C197.701 73.9594 197.759 73.9385 197.806 73.8986L200.595 71.5073C200.678 71.4375 200.706 71.3241 200.666 71.2243L199.544 68.3732C200.414 67.1848 201.068 65.8803 201.501 64.5151L204.465 63.744C204.568 63.7168 204.643 63.627 204.652 63.5199L204.937 59.8533C204.946 59.7462 204.885 59.6455 204.786 59.602L201.978 58.381C201.762 56.9649 201.318 55.5743 200.642 54.2653L202.191 51.6237C202.246 51.5311 202.235 51.4141 202.166 51.3325L199.779 48.5376C199.73 48.4804 199.659 48.4496 199.587 48.4496C199.557 48.4496 199.525 48.455 199.495 48.4668L196.649 49.5908C195.463 48.719 194.16 48.064 192.797 47.6304L192.027 44.6632C192 44.5588 191.911 44.4836 191.803 44.4754L188.142 44.1896C188.136 44.1887 188.129 44.1887 188.122 44.1887C188.023 44.1887 187.932 44.2477 187.892 44.3402L186.672 47.1524C185.259 47.3701 183.871 47.8146 182.564 48.4913L179.926 46.9392C179.887 46.9165 179.842 46.9047 179.799 46.9047C179.74 46.9047 179.682 46.9256 179.635 46.9655L176.844 49.3558C176.763 49.4257 176.735 49.54 176.775 49.6397L177.897 52.4909C177.026 53.6784 176.372 54.9837 175.939 56.349L172.976 57.12C172.873 57.1473 172.798 57.2371 172.789 57.3441L172.503 61.0108C172.495 61.1178 172.556 61.2185 172.655 61.2612L175.462 62.4831C175.679 63.8982 176.122 65.2898 176.799 66.5979L175.249 69.2404C175.195 69.3329 175.206 69.4499 175.275 69.5316L177.662 72.3265C177.711 72.3836 177.781 72.4145 177.853 72.4145C177.884 72.4145 177.916 72.409 177.946 72.3972L180.791 71.2733Z" fill="#F5F5F5"/>
<path d="M218.98 223.042H209.02C225.658 223.042 239.188 208.899 238.475 191.827C238.007 180.619 231.531 171.008 222.271 166.306C223.728 163.323 225.082 160.158 226.305 156.801C232.177 158.105 237.462 161.032 241.69 165.104C247.713 170.905 251.592 179.027 251.97 188.083C252.769 207.201 237.615 223.042 218.98 223.042ZM34.2282 221.335C11.0348 214.786 -4.92489 190.297 1.38831 163.308C2.67532 157.807 4.90335 152.686 7.889 148.135C14.1696 138.561 23.8018 131.507 35.0721 128.728C38.9892 127.763 42.8532 127.305 46.6118 127.305C53.8227 127.305 60.6481 128.988 66.7426 131.989C67.5097 132.368 68.3131 132.545 69.0992 132.545C71.4658 132.545 73.6839 130.943 74.3233 128.398C81.5382 99.676 104.76 77.5599 133.639 72.684L137.688 72.9996C137.701 73.0014 137.714 73.0015 137.726 73.0015C137.92 73.0015 138.097 72.8863 138.175 72.7066L138.466 72.0363C140.842 71.7995 143.247 71.6779 145.684 71.6779C164.907 71.6779 182.413 79.2381 195.534 91.6187C190.149 89.6956 184.954 87.1919 180.598 83.9298C179.936 83.4345 179.032 83.0399 178.218 83.0399C177.723 83.0399 177.261 83.186 176.91 83.547C173.69 86.8463 170.06 89.6584 166.25 92.0134C159.18 89.3482 151.545 87.894 143.575 87.894C112.928 87.894 87.1762 109.411 79.859 138.537C79.2884 140.81 77.3085 142.239 75.1955 142.239C74.4927 142.239 73.7754 142.081 73.0907 141.744C67.6501 139.063 61.5547 137.562 55.117 137.562C51.7614 137.562 48.3109 137.97 44.8133 138.833C29.9668 142.492 18.3046 154.461 14.7381 169.707C10.0589 189.711 19.0843 208.178 34.131 217.219L34.2282 221.335Z" fill="#636161"/>
<path d="M209.019 223.042H177.617L177.825 208.625C178.268 208.809 178.741 208.902 179.215 208.902C179.743 208.902 180.271 208.787 180.761 208.555C187.158 205.52 208.956 193.563 222.271 166.306C231.531 171.008 238.006 180.619 238.475 191.827C239.188 208.899 225.658 223.042 209.019 223.042ZM34.131 217.219C19.0842 208.178 10.0588 189.711 14.738 169.707C18.3045 154.461 29.9667 142.492 44.8133 138.833C48.3108 137.97 51.7613 137.562 55.1169 137.562C61.5547 137.562 67.65 139.063 73.0906 141.744C73.7753 142.081 74.4926 142.239 75.1954 142.239C77.3085 142.239 79.2883 140.81 79.8589 138.537C87.1761 109.411 112.928 87.894 143.575 87.894C151.544 87.894 159.18 89.3482 166.25 92.0133C155.453 98.6863 143.216 101.683 134.796 101.683C133.838 101.683 132.928 101.644 132.076 101.567C131.968 101.558 131.86 101.553 131.752 101.553C130.838 101.553 129.954 101.9 129.282 102.531C128.531 103.237 128.116 104.229 128.139 105.26C128.509 121.338 128.079 140.385 135.054 159.433L39.4374 156.955C39.3819 156.953 39.3265 156.953 39.2712 156.953C37.576 156.953 35.9472 157.625 34.744 158.826C33.5016 160.066 32.8218 161.763 32.8632 163.518L34.131 217.219Z" fill="#E0E0E0"/>
<path d="M174.778 246.041H37.2936C35.8953 246.041 34.7512 244.896 34.7512 243.497L34.228 221.334L34.1308 217.219L32.8631 163.518C32.8216 161.762 33.5015 160.066 34.7439 158.826C35.947 157.625 37.5759 156.953 39.2711 156.953C39.3264 156.953 39.3818 156.953 39.4373 156.955L135.054 159.433C135.436 160.476 135.839 161.517 136.267 162.559L39.9657 159.972C39.9256 159.971 39.8854 159.97 39.8454 159.97C38.6556 159.97 37.5129 160.443 36.6683 161.286C35.7953 162.158 35.3151 163.352 35.346 164.586L37.2612 241.056C37.2612 242.381 38.3436 243.465 39.6666 243.465H171.463C172.786 243.465 173.868 242.381 173.868 241.056L174.388 206.489C175.34 207.115 176.308 207.736 177.3 208.354C177.469 208.459 177.644 208.549 177.825 208.625L177.617 223.042L177.389 238.776L177.321 243.497C177.321 244.896 176.177 246.041 174.778 246.041Z" fill="#3D4347"/>
<path d="M37.2613 241.056C37.2613 242.381 38.3437 243.465 39.6667 243.465H171.463C172.786 243.465 173.868 242.381 173.868 241.056L174.948 169.218C174.821 164.894 171.037 163.34 168.743 163.432L39.9658 159.972C38.7332 159.938 37.5415 160.415 36.6684 161.286C35.7954 162.158 35.3152 163.352 35.3461 164.587L37.2613 241.056Z" fill="#515151"/>
<path d="M24.1102 252.61H185.175C185.457 252.61 185.687 252.379 185.687 252.097V246.17C185.687 245.888 185.457 245.657 185.175 245.657H24.1102C23.8286 245.657 23.5981 245.888 23.5981 246.17V252.097C23.5981 252.379 23.8286 252.61 24.1102 252.61Z" fill="#3D4347"/>
<path d="M94.4408 239.961H43.6959C41.8248 239.961 40.3081 238.441 40.3081 236.567V170.224C40.3081 168.299 41.905 166.76 43.8254 166.833L94.5703 168.779C96.3899 168.848 97.8282 170.346 97.8282 172.169V236.567C97.8282 238.441 96.312 239.961 94.4408 239.961Z" fill="#A8A8AD"/>
<path d="M84.3476 197.333H50.7342C50.4679 197.333 50.2515 197.117 50.2515 196.85V193.343C50.2515 193.076 50.4679 192.859 50.7342 192.859H84.3476C84.6138 192.859 84.8303 193.076 84.8303 193.343V196.85C84.8303 197.117 84.6138 197.333 84.3476 197.333Z" fill="#FFF7E9"/>
<path d="M84.4154 204.479H50.8021C50.5358 204.479 50.3193 204.262 50.3193 203.995V200.488C50.3193 200.221 50.5358 200.004 50.8021 200.004H84.4154C84.6817 200.004 84.8982 200.221 84.8982 200.488V203.995C84.8982 204.262 84.6817 204.479 84.4154 204.479Z" fill="#FFF7E9"/>
<path d="M84.6186 211.773H51.0052C50.7389 211.773 50.5225 211.557 50.5225 211.29V207.783C50.5225 207.516 50.7389 207.299 51.0052 207.299H84.6186C84.8848 207.299 85.1013 207.516 85.1013 207.783V211.29C85.1013 211.557 84.8848 211.773 84.6186 211.773Z" fill="#FFF7E9"/>
<path d="M84.6864 218.918H51.0731C50.8068 218.918 50.5903 218.702 50.5903 218.434V214.927C50.5903 214.661 50.8068 214.444 51.0731 214.444H84.6864C84.9527 214.444 85.1692 214.661 85.1692 214.927V218.434C85.1692 218.702 84.9527 218.918 84.6864 218.918Z" fill="#FFF7E9"/>
<path d="M158.064 197.328H109.315C109.049 197.328 108.833 197.112 108.833 196.845V193.338C108.833 193.071 109.049 192.854 109.315 192.854H157.144C157.605 193.297 158.071 193.738 158.547 194.179V196.845C158.547 197.112 158.33 197.328 158.064 197.328Z" fill="#FFF7E9"/>
<path d="M158.217 204.479H109.469C109.202 204.479 108.986 204.262 108.986 203.995V200.488C108.986 200.221 109.202 200.004 109.469 200.004H158.217C158.484 200.004 158.7 200.221 158.7 200.488V203.995C158.7 204.262 158.484 204.479 158.217 204.479Z" fill="#FFF7E9"/>
<path d="M137.961 211.773H109.469C109.202 211.773 108.986 211.557 108.986 211.29V207.783C108.986 207.516 109.202 207.299 109.469 207.299H137.961C138.228 207.299 138.444 207.516 138.444 207.783V211.29C138.444 211.557 138.228 211.773 137.961 211.773Z" fill="#FFF7E9"/>
<path d="M135.223 176.179H134.466C134.09 176.179 133.785 175.873 133.785 175.497V172.904C133.785 171.976 133.034 171.224 132.107 171.224H127.416C126.489 171.224 125.738 171.976 125.738 172.904V175.497C125.738 175.873 125.433 176.179 125.057 176.179H124.299C123.923 176.179 123.619 175.873 123.619 175.497V172.904C123.619 170.804 125.318 169.102 127.416 169.102H132.107C134.204 169.102 135.904 170.804 135.904 172.904V175.497C135.904 175.873 135.6 176.179 135.223 176.179Z" fill="#FFF7E9"/>
<path d="M136.162 189.476H123.361C122.577 189.476 121.941 188.839 121.941 188.053V178.213C121.941 177.428 122.577 176.79 123.361 176.79H136.162C136.947 176.79 137.582 177.428 137.582 178.213V188.053C137.582 188.839 136.947 189.476 136.162 189.476ZM129.762 179.315C129.712 179.315 129.661 179.316 129.61 179.32C128.42 179.394 127.455 180.37 127.392 181.563C127.343 182.483 127.819 183.297 128.546 183.732L127.93 186.301C127.851 186.632 128.102 186.951 128.442 186.951H131.081C131.422 186.951 131.673 186.632 131.593 186.301L130.977 183.732C131.67 183.318 132.135 182.559 132.135 181.691C132.135 180.379 131.072 179.315 129.762 179.315Z" fill="#FFF7E9"/>
<path d="M172.485 61.3057C172.435 61.3057 172.384 61.2939 172.338 61.2676C172.19 61.185 172.138 61 172.219 60.8521C172.416 60.4983 172.606 60.1427 172.791 59.7835C172.867 59.6338 173.05 59.5757 173.201 59.6529C173.35 59.73 173.409 59.9141 173.332 60.0647C173.145 60.4285 172.951 60.7895 172.752 61.1487C172.696 61.2494 172.592 61.3057 172.485 61.3057Z" fill="#91B3FA"/>
<path d="M98.9984 56.8577C98.8779 56.8577 98.7638 56.7851 98.7158 56.6663C98.4142 55.9224 98.1316 55.1614 97.8753 54.4057C97.8219 54.2461 97.907 54.0728 98.0673 54.0184C98.2249 53.9648 98.3988 54.0501 98.4532 54.2098C98.7049 54.9545 98.9839 55.7038 99.281 56.4368C99.3444 56.5937 99.2692 56.7715 99.1134 56.835C99.0754 56.8505 99.0364 56.8577 98.9984 56.8577ZM101.802 62.4766C101.698 62.4766 101.597 62.423 101.54 62.3278C101.127 61.6384 100.73 60.9308 100.361 60.2232C100.284 60.0745 100.341 59.8894 100.49 59.8114C100.639 59.7334 100.823 59.7914 100.901 59.9411C101.265 60.6369 101.656 61.3345 102.062 62.0139C102.149 62.1581 102.102 62.3459 101.958 62.433C101.909 62.462 101.855 62.4766 101.802 62.4766ZM169.026 66.5442C168.961 66.5442 168.895 66.5233 168.84 66.4798C168.707 66.3764 168.683 66.184 168.786 66.0507C169.272 65.4257 169.744 64.7807 170.188 64.1339C170.285 63.9942 170.475 63.9597 170.612 64.055C170.751 64.1502 170.786 64.3407 170.691 64.4795C170.239 65.1372 169.761 65.7922 169.267 66.4263C169.208 66.5034 169.118 66.5442 169.026 66.5442ZM105.434 67.5965C105.347 67.5965 105.26 67.5584 105.2 67.4858C104.689 66.8717 104.189 66.233 103.713 65.5881C103.613 65.4529 103.642 65.2615 103.777 65.1608C103.914 65.061 104.104 65.09 104.203 65.2252C104.673 65.8602 105.165 66.4898 105.669 67.0957C105.777 67.2245 105.759 67.4178 105.629 67.5257C105.573 67.5729 105.503 67.5965 105.434 67.5965ZM164.807 71.1888C164.725 71.1888 164.645 71.1561 164.585 71.0926C164.469 70.9701 164.474 70.7769 164.598 70.6608C165.171 70.1183 165.736 69.5532 166.276 68.9808C166.392 68.8583 166.585 68.8529 166.707 68.9681C166.829 69.0842 166.835 69.2774 166.72 69.3999C166.171 69.9814 165.598 70.5547 165.016 71.1053C164.957 71.1606 164.881 71.1888 164.807 71.1888ZM109.801 72.105C109.729 72.105 109.657 72.0796 109.599 72.0288C109.002 71.4999 108.411 70.9438 107.843 70.3778C107.723 70.2589 107.723 70.0657 107.842 69.946C107.96 69.8262 108.153 69.8253 108.273 69.9451C108.833 70.5021 109.415 71.05 110.004 71.5707C110.129 71.6831 110.141 71.8755 110.03 72.0025C109.969 72.0705 109.885 72.105 109.801 72.105ZM159.929 75.1412C159.832 75.1412 159.737 75.0949 159.677 75.0097C159.582 74.8709 159.616 74.6804 159.755 74.5842C160.403 74.1361 161.048 73.6625 161.669 73.1772C161.802 73.0738 161.994 73.0974 162.097 73.2307C162.201 73.3632 162.178 73.5555 162.044 73.6589C161.413 74.1515 160.76 74.6323 160.102 75.0877C160.048 75.124 159.988 75.1412 159.929 75.1412ZM114.8 75.8923C114.744 75.8923 114.686 75.8769 114.635 75.8433C113.962 75.4115 113.294 74.9534 112.647 74.4826C112.511 74.3828 112.482 74.1923 112.58 74.0553C112.68 73.9193 112.871 73.8893 113.007 73.9882C113.643 74.4527 114.301 74.9035 114.965 75.3299C115.106 75.4206 115.148 75.6093 115.057 75.7517C114.999 75.8424 114.901 75.8923 114.8 75.8923ZM154.506 78.298C154.393 78.298 154.283 78.2345 154.231 78.1248C154.158 77.9733 154.222 77.791 154.374 77.7175C155.083 77.3755 155.791 77.0072 156.481 76.6225C156.629 76.5409 156.813 76.5935 156.895 76.7414C156.978 76.8883 156.924 77.0743 156.778 77.1569C156.078 77.5469 155.359 77.9207 154.638 78.2681C154.595 78.289 154.551 78.298 154.506 78.298ZM120.323 78.8614C120.282 78.8614 120.24 78.8532 120.2 78.836C119.467 78.5121 118.735 78.1629 118.026 77.7982C117.877 77.7211 117.817 77.537 117.894 77.3864C117.971 77.2376 118.155 77.1777 118.305 77.2548C119.004 77.6141 119.725 77.9579 120.446 78.2763C120.6 78.3443 120.67 78.5248 120.602 78.679C120.552 78.7933 120.44 78.8614 120.323 78.8614ZM148.663 80.5786C148.531 80.5786 148.411 80.4942 148.371 80.3618C148.322 80.2003 148.414 80.0298 148.574 79.9808C149.329 79.7522 150.086 79.4973 150.825 79.2251C150.982 79.1671 151.158 79.2478 151.216 79.4066C151.274 79.5644 151.193 79.7395 151.036 79.7984C150.287 80.0751 149.518 80.3328 148.751 80.5659C148.722 80.575 148.692 80.5786 148.663 80.5786ZM126.239 80.9442C126.213 80.9442 126.187 80.9406 126.16 80.9333C125.387 80.7274 124.611 80.4951 123.853 80.2429C123.692 80.1903 123.605 80.0171 123.659 79.8574C123.711 79.6978 123.883 79.6107 124.044 79.6633C124.792 79.9109 125.556 80.1405 126.317 80.3437C126.48 80.3872 126.577 80.555 126.534 80.7174C126.496 80.8544 126.373 80.9442 126.239 80.9442ZM142.538 81.9312C142.389 81.9312 142.258 81.8214 142.237 81.669C142.213 81.5012 142.329 81.347 142.496 81.3234C143.276 81.2136 144.063 81.0784 144.835 80.9233C144.999 80.8897 145.161 80.9968 145.195 81.1619C145.227 81.327 145.12 81.4885 144.956 81.522C144.172 81.6799 143.373 81.8168 142.581 81.9284C142.566 81.9302 142.552 81.9312 142.538 81.9312ZM132.403 82.0953C132.392 82.0953 132.381 82.0944 132.37 82.0935C131.574 82.0064 130.77 81.8958 129.984 81.7642C129.818 81.7361 129.706 81.5783 129.733 81.4123C129.762 81.2463 129.919 81.1329 130.085 81.1619C130.86 81.2916 131.651 81.4014 132.435 81.4857C132.603 81.5039 132.724 81.6545 132.706 81.8223C132.689 81.9792 132.557 82.0953 132.403 82.0953ZM136.816 82.333C136.636 82.333 136.456 82.3321 136.276 82.3294C136.108 82.3276 135.973 82.1888 135.975 82.02C135.977 81.8531 136.113 81.7189 136.28 81.7189H136.284C137.073 81.7298 137.869 81.7161 138.656 81.6808C138.814 81.6699 138.968 81.8032 138.975 81.972C138.982 82.1407 138.852 82.2831 138.685 82.2913C138.065 82.3194 137.436 82.333 136.816 82.333Z" fill="#91B3FA"/>
<path d="M97.0908 50.8564C96.9522 50.8564 96.8273 50.7621 96.7937 50.6215C96.7005 50.2215 96.6126 49.8214 96.5311 49.4195C96.4976 49.2544 96.6035 49.093 96.7684 49.0594C96.9332 49.0258 97.0944 49.132 97.128 49.298C97.2086 49.6935 97.2955 50.0881 97.3879 50.4818C97.4259 50.646 97.3245 50.8102 97.1606 50.8492C97.137 50.8537 97.1135 50.8564 97.0908 50.8564Z" fill="#91B3FA"/>
<path d="M102.261 19.7129C102.204 19.7129 102.148 19.6975 102.098 19.6657C101.955 19.5759 101.913 19.3872 102.003 19.2439C102.221 18.8983 102.444 18.5545 102.673 18.2134C102.766 18.0737 102.956 18.0356 103.096 18.1308C103.235 18.2243 103.272 18.4139 103.179 18.5545C102.953 18.8901 102.733 19.2285 102.519 19.5696C102.461 19.6621 102.361 19.7129 102.261 19.7129Z" fill="#91B3FA"/>
<path d="M133.928 0.709345C133.769 0.709345 133.635 0.585983 133.624 0.425421C133.613 0.256691 133.739 0.111546 133.907 0.0997524C134.744 0.0407887 135.595 0.00722313 136.438 -3.43323e-05H136.44C136.608 -3.43323e-05 136.744 0.135134 136.745 0.302956C136.746 0.471684 136.611 0.609573 136.443 0.610481C135.613 0.617737 134.775 0.650385 133.95 0.708441L133.928 0.709345ZM143.016 1.084C143.001 1.084 142.985 1.08309 142.969 1.08037C142.151 0.954277 141.317 0.852673 140.492 0.77738C140.325 0.762867 140.202 0.614098 140.216 0.44537C140.232 0.277548 140.376 0.153267 140.548 0.169596C141.385 0.245794 142.231 0.349213 143.062 0.477119C143.229 0.50252 143.343 0.658556 143.317 0.824562C143.294 0.976055 143.164 1.084 143.016 1.084ZM127.409 1.69995C127.272 1.69995 127.146 1.60561 127.113 1.465C127.074 1.30081 127.176 1.13662 127.34 1.09761C128.16 0.903481 128.995 0.733852 129.822 0.592339C129.992 0.565123 130.146 0.675795 130.174 0.841803C130.203 1.00781 130.091 1.16564 129.926 1.19376C129.11 1.33346 128.288 1.50129 127.48 1.69179C127.457 1.69723 127.433 1.69995 127.409 1.69995ZM149.429 2.6071C149.398 2.6071 149.366 2.60257 149.335 2.59259C148.549 2.33677 147.742 2.10272 146.94 1.8959C146.777 1.85326 146.678 1.68634 146.72 1.52397C146.763 1.35977 146.931 1.2618 147.092 1.30352C147.906 1.51398 148.724 1.75165 149.523 2.0111C149.683 2.06371 149.771 2.23607 149.72 2.39663C149.677 2.52544 149.558 2.6071 149.429 2.6071ZM121.137 3.73105C121.017 3.73105 120.904 3.66028 120.855 3.54326C120.791 3.38723 120.864 3.20853 121.02 3.14412C121.794 2.82118 122.591 2.5182 123.387 2.24334C123.548 2.188 123.721 2.27236 123.776 2.43201C123.83 2.59167 123.746 2.76585 123.587 2.82028C122.801 3.09151 122.017 3.38997 121.253 3.70837C121.215 3.72379 121.176 3.73105 121.137 3.73105ZM155.513 5.1471C155.465 5.1471 155.418 5.13621 155.373 5.11262C154.638 4.73343 153.88 4.37148 153.122 4.03765C152.968 3.96962 152.898 3.79 152.966 3.63488C153.034 3.48067 153.213 3.40992 153.368 3.47886C154.138 3.81722 154.907 4.18462 155.653 4.57016C155.802 4.64727 155.861 4.83141 155.784 4.98108C155.73 5.08631 155.623 5.1471 155.513 5.1471ZM115.274 6.75545C115.173 6.75545 115.073 6.70376 115.015 6.61123C114.926 6.4679 114.97 6.28012 115.113 6.19031C115.826 5.74581 116.564 5.31673 117.304 4.91668C117.453 4.83595 117.638 4.89218 117.718 5.04005C117.797 5.18882 117.742 5.37387 117.594 5.4537C116.864 5.84831 116.138 6.27104 115.435 6.70919C115.385 6.74003 115.329 6.75545 115.274 6.75545ZM161.104 8.6396C161.042 8.6396 160.978 8.61964 160.923 8.57973C160.258 8.08443 159.57 7.60455 158.876 7.15279C158.735 7.06117 158.695 6.87158 158.788 6.73006C158.879 6.58855 159.067 6.54863 159.21 6.64116C159.913 7.10017 160.613 7.5873 161.287 8.08895C161.422 8.18964 161.45 8.38107 161.35 8.51623C161.29 8.59697 161.198 8.6396 161.104 8.6396ZM109.976 10.6879C109.891 10.6879 109.806 10.6525 109.746 10.5836C109.636 10.4566 109.649 10.2634 109.775 10.1527C110.409 9.59753 111.069 9.05597 111.733 8.54162C111.868 8.43911 112.058 8.46451 112.161 8.59695C112.263 8.7303 112.239 8.92262 112.106 9.02604C111.451 9.53132 110.802 10.0656 110.177 10.6126C110.119 10.6634 110.047 10.6879 109.976 10.6879ZM166.059 12.9912C165.98 12.9912 165.9 12.9603 165.84 12.8986C165.266 12.3054 164.664 11.7202 164.051 11.1596C163.926 11.0462 163.917 10.853 164.031 10.7287C164.144 10.6036 164.337 10.5945 164.461 10.7088C165.084 11.2776 165.695 11.8708 166.279 12.4732C166.395 12.5947 166.393 12.788 166.271 12.905C166.213 12.963 166.136 12.9912 166.059 12.9912ZM105.372 15.4141C105.304 15.4141 105.234 15.3915 105.178 15.3443C105.049 15.2363 105.03 15.044 105.138 14.9143C105.673 14.2684 106.237 13.6289 106.814 13.0129C106.929 12.8896 107.122 12.8841 107.245 12.9993C107.368 13.1154 107.374 13.3087 107.259 13.4311C106.69 14.038 106.135 14.6685 105.607 15.3044C105.547 15.3769 105.46 15.4141 105.372 15.4141ZM170.262 18.0802C170.165 18.0802 170.071 18.0349 170.011 17.9496C169.537 17.2711 169.035 16.5971 168.518 15.9475C168.413 15.8151 168.435 15.6237 168.567 15.5185C168.7 15.4132 168.891 15.435 168.996 15.5665C169.519 16.2269 170.03 16.9109 170.511 17.5994C170.608 17.7373 170.574 17.9278 170.436 18.0249C170.383 18.0621 170.322 18.0802 170.262 18.0802ZM173.591 23.7789C173.478 23.7789 173.368 23.7154 173.316 23.6066C172.956 22.8573 172.57 22.1107 172.166 21.3886C172.084 21.2416 172.137 21.0557 172.283 20.9731C172.43 20.8915 172.617 20.9432 172.698 21.0901C173.108 21.8231 173.501 22.5806 173.866 23.3417C173.939 23.4931 173.875 23.6764 173.724 23.749C173.681 23.7698 173.636 23.7789 173.591 23.7789ZM175.954 29.9438C175.822 29.9438 175.701 29.8577 175.662 29.7243C175.429 28.9278 175.167 28.1287 174.886 27.3485C174.828 27.1907 174.911 27.0156 175.069 26.9575C175.227 26.9004 175.403 26.9829 175.46 27.1417C175.746 27.9327 176.01 28.7437 176.247 29.552C176.295 29.7143 176.202 29.884 176.04 29.9311C176.011 29.9393 175.982 29.9438 175.954 29.9438Z" fill="#91B3FA"/>
<path d="M177.114 35.1436C176.966 35.1436 176.836 35.0356 176.813 34.885C176.75 34.4859 176.683 34.0876 176.608 33.6903C176.577 33.5243 176.686 33.3646 176.852 33.3338C177.017 33.3057 177.177 33.4127 177.208 33.5787C177.283 33.9815 177.352 34.3861 177.415 34.7907C177.442 34.9576 177.327 35.1136 177.161 35.1399C177.145 35.1417 177.129 35.1436 177.114 35.1436Z" fill="#91B3FA"/>
<path d="M168.132 40.2534C168.149 40.0448 168.031 39.8489 167.839 39.7654L162.373 37.3869C161.951 34.6319 161.087 31.9241 159.77 29.3759L162.787 24.2324C162.893 24.0519 162.872 23.8242 162.736 23.6654L158.09 18.2244C157.954 18.0656 157.732 18.0103 157.538 18.0874L151.997 20.2754C149.689 18.5782 147.152 17.3036 144.499 16.4591L143 10.6824C142.948 10.4792 142.773 10.3332 142.564 10.3168L135.438 9.76074C135.229 9.74441 135.034 9.86235 134.95 10.0538L132.575 15.5284C129.825 15.952 127.121 16.8174 124.578 18.1355L119.443 15.1138C119.263 15.0086 119.035 15.0285 118.876 15.1646L113.444 19.8182C113.285 19.9543 113.23 20.1765 113.307 20.3716L115.491 25.9206C113.797 28.2338 112.525 30.7738 111.682 33.4308L105.913 34.9321C105.711 34.9848 105.565 35.1607 105.548 35.3694L104.993 42.5077C104.977 42.7154 105.095 42.9114 105.287 42.9948L110.753 45.3734C111.175 48.1284 112.039 50.8362 113.355 53.3843L110.339 58.5278C110.233 58.7084 110.253 58.936 110.388 59.0948L115.036 64.5358C115.171 64.6946 115.392 64.7499 115.587 64.6728L121.127 62.4848C123.437 64.182 125.974 65.4566 128.626 66.3011L130.126 72.0778C130.177 72.281 130.353 72.4271 130.561 72.4434L137.688 72.9995C137.896 73.0158 138.092 72.8979 138.175 72.7065L140.549 67.2319C143.301 66.8091 146.004 65.9437 148.548 64.6247L153.683 67.6464C153.863 67.7517 154.09 67.7317 154.249 67.5956L159.681 62.942C159.84 62.8059 159.895 62.5837 159.819 62.3895L157.634 56.8396C159.328 54.5273 160.601 51.9855 161.444 49.3294L167.212 47.8281C167.414 47.7755 167.561 47.5995 167.577 47.3908L168.132 40.2534Z" fill="#F4A72A"/>
<path d="M136.548 48.1973C135.152 48.1973 133.794 47.7673 132.632 46.9436C129.568 44.7728 128.84 40.511 131.008 37.4431C132.058 35.9572 133.623 34.9693 135.415 34.6627C135.802 34.5956 136.191 34.5629 136.576 34.5629C137.972 34.5629 139.331 34.9929 140.493 35.8166C141.977 36.8689 142.963 38.4355 143.27 40.2298C143.576 42.0251 143.167 43.8312 142.117 45.3171C141.067 46.803 139.502 47.7909 137.711 48.0984C137.323 48.1646 136.934 48.1973 136.548 48.1973ZM136.575 35.4791C136.241 35.4791 135.905 35.5082 135.569 35.5653C134.018 35.8311 132.663 36.6856 131.755 37.972C129.878 40.6272 130.509 44.3165 133.16 46.1952C134.166 46.9091 135.342 47.2811 136.551 47.2811C136.884 47.2811 137.221 47.252 137.557 47.1949C139.107 46.9291 140.461 46.0746 141.37 44.7882C142.279 43.5019 142.633 41.938 142.369 40.385C142.102 38.8319 141.249 37.4748 139.965 36.565C138.959 35.852 137.783 35.4791 136.575 35.4791Z" fill="#DEE8FD"/>
<path d="M136.439 59.1167C135.973 59.1167 135.504 59.0985 135.035 59.0613C130.32 58.694 126.03 56.5087 122.956 52.9091C120.187 49.6679 118.703 45.6293 118.703 41.4102C118.703 40.943 118.721 40.474 118.758 40.0032C119.125 35.2806 121.307 30.9844 124.901 27.9046C128.136 25.1324 132.169 23.6456 136.382 23.6456C136.848 23.6456 137.317 23.6637 137.786 23.7C142.502 24.0683 146.791 26.2536 149.865 29.8532C150.687 30.8138 151.405 31.8607 152 32.9647L151.196 33.4001C150.63 32.3533 149.949 31.3599 149.17 30.4483C146.255 27.0347 142.187 24.9628 137.715 24.6135C137.272 24.5791 136.83 24.5618 136.391 24.5618C132.393 24.5618 128.567 25.9697 125.495 28.6004C122.087 31.5214 120.018 35.5963 119.669 40.0749C119.635 40.5203 119.617 40.9657 119.617 41.4084C119.617 45.4098 121.026 49.2406 123.65 52.314C126.566 55.7276 130.634 57.7995 135.106 58.1488C135.551 58.1832 135.996 58.2005 136.439 58.2005C140.436 58.2005 144.257 56.7908 147.326 54.1619C149.639 52.1798 151.37 49.6116 152.33 46.7369L153.198 47.0272C152.185 50.0598 150.36 52.7676 147.92 54.8577C144.685 57.6299 140.652 59.1167 136.439 59.1167Z" fill="#DEE8FD"/>
<path d="M206.878 71.3306C206.825 71.3306 206.772 71.317 206.723 71.2879C206.578 71.2027 206.53 71.0149 206.616 70.8697C206.821 70.5232 207.017 70.1694 207.198 69.8175C207.275 69.6678 207.459 69.6088 207.61 69.6859C207.759 69.763 207.817 69.9481 207.74 70.0978C207.553 70.4597 207.351 70.8244 207.14 71.1809C207.084 71.278 206.982 71.3306 206.878 71.3306Z" fill="#91B3FA"/>
<path d="M171.182 71.9293C171.081 71.9293 170.983 71.8803 170.925 71.7887C170.477 71.0902 170.068 70.3572 169.705 69.6097C169.632 69.4582 169.695 69.2759 169.847 69.2024C169.999 69.1289 170.18 69.1924 170.253 69.3439C170.606 70.0687 171.004 70.7808 171.438 71.4594C171.529 71.6018 171.488 71.7905 171.346 71.8812C171.295 71.9139 171.238 71.9293 171.182 71.9293ZM202.786 76.2981C202.703 76.2981 202.619 76.2636 202.559 76.1965C202.447 76.0704 202.458 75.8772 202.583 75.7656L202.763 75.6032C203.299 75.1133 203.814 74.5908 204.295 74.0493C204.408 73.9223 204.6 73.9114 204.725 74.0239C204.852 74.1363 204.863 74.3287 204.751 74.4548C204.256 75.0117 203.726 75.5506 203.173 76.055L202.989 76.221C202.931 76.2727 202.859 76.2981 202.786 76.2981ZM175.432 76.7589C175.363 76.7589 175.295 76.7353 175.238 76.6882C174.604 76.1584 173.992 75.5832 173.421 74.9791C173.305 74.8566 173.31 74.6634 173.432 74.5473C173.555 74.4321 173.748 74.4366 173.863 74.5591C174.419 75.146 175.012 75.7039 175.628 76.2192C175.757 76.3271 175.775 76.5194 175.667 76.6491C175.606 76.7217 175.52 76.7589 175.432 76.7589ZM197.391 79.7987C197.274 79.7987 197.163 79.7316 197.112 79.6182C197.043 79.464 197.112 79.2835 197.266 79.2145C198.001 78.8853 198.724 78.5097 199.415 78.096C199.559 78.0099 199.747 78.057 199.833 78.2022C199.92 78.3464 199.873 78.5342 199.728 78.6204C199.017 79.0458 198.271 79.4332 197.515 79.7724C197.474 79.7906 197.432 79.7987 197.391 79.7987ZM180.942 80.0727C180.903 80.0727 180.864 80.0654 180.827 80.0509C180.059 79.7389 179.303 79.3769 178.577 78.976C178.429 78.8952 178.375 78.7093 178.456 78.5614C178.538 78.4135 178.723 78.36 178.87 78.4416C179.577 78.8308 180.312 79.1819 181.057 79.4849C181.212 79.5484 181.288 79.7262 181.224 79.8831C181.175 80.001 181.061 80.0727 180.942 80.0727ZM191.186 81.4878C191.033 81.4878 190.901 81.3717 190.884 81.2157C190.865 81.0488 190.985 80.8973 191.153 80.8782C191.955 80.7884 192.758 80.6505 193.54 80.4691C193.702 80.4292 193.867 80.5326 193.906 80.6968C193.944 80.861 193.842 81.0252 193.678 81.0633C192.873 81.2511 192.046 81.3926 191.22 81.486C191.209 81.4869 191.198 81.4878 191.186 81.4878ZM187.198 81.5522L187.174 81.5513C186.347 81.486 185.516 81.3717 184.705 81.2112C184.539 81.1785 184.432 81.017 184.465 80.8519C184.497 80.6868 184.659 80.5789 184.823 80.6115C185.611 80.7676 186.418 80.8792 187.222 80.9427C187.389 80.9554 187.515 81.1032 187.502 81.271C187.49 81.4307 187.356 81.5522 187.198 81.5522Z" fill="#91B3FA"/>
<path d="M168.588 66.0244C168.453 66.0244 168.33 65.9337 168.294 65.7967C168.189 65.4003 168.094 64.9939 168.012 64.5911C167.979 64.426 168.085 64.2645 168.25 64.231C168.415 64.1974 168.576 64.3036 168.609 64.4696C168.689 64.8605 168.781 65.2542 168.883 65.6407C168.927 65.8031 168.829 65.9709 168.666 66.0135C168.64 66.0208 168.614 66.0244 168.588 66.0244Z" fill="#91B3FA"/>
<path d="M171.1 49.4502C171.044 49.4502 170.988 49.4357 170.937 49.403C170.795 49.3132 170.753 49.1254 170.842 48.9821C171.061 48.6338 171.293 48.2881 171.532 47.9534C171.629 47.8164 171.821 47.7847 171.957 47.8827C172.094 47.9806 172.126 48.1711 172.028 48.3081C171.796 48.6329 171.571 48.9694 171.358 49.3078C171.3 49.4003 171.201 49.4502 171.1 49.4502Z" fill="#91B3FA"/>
<path d="M185.55 39.8959C185.403 39.8959 185.273 39.7889 185.25 39.6383C185.223 39.4714 185.337 39.3153 185.503 39.289C186.306 39.162 187.127 39.0795 187.943 39.045C188.112 39.0414 188.254 39.1684 188.261 39.3371C188.268 39.5058 188.137 39.6483 187.969 39.6555C187.176 39.6891 186.378 39.7689 185.598 39.8923C185.582 39.895 185.566 39.8959 185.55 39.8959ZM194.244 40.3431C194.219 40.3431 194.192 40.3395 194.165 40.3322C193.401 40.129 192.616 39.9685 191.832 39.8542C191.666 39.8297 191.55 39.6746 191.574 39.5076C191.599 39.3407 191.752 39.221 191.919 39.25C192.726 39.3671 193.535 39.533 194.322 39.7426C194.485 39.7852 194.582 39.9531 194.538 40.1154C194.502 40.2524 194.379 40.3431 194.244 40.3431ZM179.526 41.8209C179.413 41.8209 179.305 41.7592 179.252 41.6521C179.177 41.5006 179.238 41.3174 179.389 41.2421C180.118 40.8793 180.877 40.5554 181.646 40.2778C181.805 40.2216 181.978 40.3032 182.036 40.462C182.093 40.6207 182.011 40.7958 181.852 40.8529C181.105 41.1224 180.368 41.4371 179.66 41.7891C179.617 41.8109 179.571 41.8209 179.526 41.8209ZM200.039 42.8759C199.983 42.8759 199.926 42.8605 199.876 42.8287C199.206 42.4051 198.505 42.0168 197.793 41.6739C197.641 41.6004 197.577 41.4181 197.65 41.2666C197.723 41.1142 197.904 41.0489 198.057 41.1233C198.791 41.4762 199.513 41.8762 200.202 42.3125C200.344 42.4023 200.387 42.591 200.297 42.7335C200.239 42.826 200.139 42.8759 200.039 42.8759ZM174.351 45.4658C174.272 45.4658 174.191 45.434 174.131 45.3714C174.014 45.249 174.019 45.0557 174.141 44.9396C174.264 44.8217 174.389 44.7047 174.516 44.5895C174.992 44.154 175.493 43.7349 176.006 43.3458C176.14 43.2433 176.331 43.2687 176.433 43.4038C176.535 43.5381 176.51 43.7295 176.375 43.832C175.877 44.2103 175.389 44.6176 174.927 45.0403C174.804 45.1528 174.682 45.2671 174.562 45.3814C174.502 45.4376 174.427 45.4658 174.351 45.4658ZM204.812 47.0324C204.726 47.0324 204.641 46.9961 204.58 46.9254C204.424 46.7421 204.265 46.5607 204.102 46.3811C203.73 45.9729 203.337 45.5755 202.935 45.1982C202.812 45.083 202.806 44.8897 202.921 44.7664C203.036 44.643 203.229 44.6366 203.352 44.7519C203.766 45.1401 204.17 45.5501 204.552 45.9701C204.72 46.1543 204.884 46.3402 205.045 46.5289C205.153 46.6577 205.138 46.8501 205.01 46.9598C204.952 47.0088 204.882 47.0324 204.812 47.0324ZM208.139 52.4199C208.021 52.4199 207.908 52.351 207.859 52.234C207.549 51.5046 207.194 50.7853 206.802 50.0958C206.718 49.9498 206.769 49.7629 206.916 49.6794C207.062 49.596 207.247 49.6477 207.332 49.7937C207.735 50.5031 208.101 51.2443 208.42 51.9954C208.485 52.1505 208.414 52.3301 208.258 52.3963C208.219 52.4127 208.179 52.4199 208.139 52.4199Z" fill="#91B3FA"/>
<path d="M209.55 57.377C209.403 57.377 209.273 57.269 209.249 57.1184C209.188 56.7238 209.114 56.3256 209.03 55.9355C208.995 55.7704 209.099 55.608 209.264 55.5726C209.432 55.5373 209.591 55.6425 209.626 55.8067C209.712 56.2086 209.788 56.6186 209.852 57.0241C209.878 57.191 209.764 57.347 209.597 57.3733C209.582 57.3751 209.566 57.377 209.55 57.377Z" fill="#91B3FA"/>
<path d="M204.937 59.8534C204.945 59.7464 204.885 59.6457 204.786 59.6021L201.978 58.3811C201.762 56.9651 201.318 55.5744 200.642 54.2654L202.191 51.6238C202.246 51.5313 202.235 51.4142 202.166 51.3326L199.778 48.5377C199.709 48.4561 199.595 48.427 199.495 48.467L196.649 49.5909C195.463 48.7191 194.159 48.0642 192.797 47.6306L192.027 44.6633C192 44.559 191.911 44.4837 191.803 44.4755L188.142 44.1898C188.035 44.1807 187.935 44.2415 187.892 44.3404L186.672 47.1525C185.259 47.3702 183.871 47.8147 182.564 48.4914L179.925 46.9393C179.833 46.8849 179.716 46.8958 179.635 46.9656L176.844 49.356C176.763 49.4258 176.735 49.5401 176.774 49.6399L177.897 52.491C177.026 53.6785 176.372 54.9839 175.939 56.3491L172.976 57.1202C172.873 57.1474 172.798 57.2372 172.788 57.3443L172.503 61.0109C172.495 61.118 172.556 61.2186 172.654 61.2613L175.462 62.4832C175.679 63.8984 176.122 65.2899 176.799 66.598L175.249 69.2405C175.195 69.3331 175.206 69.4501 175.275 69.5317L177.662 72.3266C177.732 72.4083 177.846 72.4364 177.946 72.3974L180.791 71.2734C181.978 72.1452 183.281 72.7992 184.643 73.2338L185.413 76.201C185.44 76.3053 185.53 76.3806 185.638 76.3888L189.299 76.6746C189.405 76.6827 189.506 76.6219 189.549 76.524L190.768 73.7118C192.181 73.4941 193.57 73.0496 194.877 72.372L197.515 73.9241C197.607 73.9785 197.724 73.9686 197.806 73.8987L200.595 71.5075C200.678 71.4376 200.706 71.3242 200.666 71.2244L199.544 68.3733C200.414 67.1849 201.068 65.8805 201.501 64.5152L204.465 63.7441C204.568 63.7169 204.643 63.6271 204.652 63.5201L204.937 59.8534Z" fill="#F4A72A"/>
<path d="M188.713 64.1567C187.95 64.1567 187.207 63.9218 186.573 63.4718C184.9 62.2853 184.501 59.9567 185.686 58.2812C186.259 57.4684 187.114 56.9295 188.093 56.7617C188.305 56.7254 188.518 56.7073 188.728 56.7073C189.491 56.7073 190.233 56.9422 190.868 57.3922C191.679 57.9673 192.218 58.8227 192.385 59.8034C192.553 60.784 192.329 61.771 191.755 62.5828C191.182 63.3956 190.327 63.9345 189.348 64.1023C189.136 64.1386 188.924 64.1567 188.713 64.1567ZM188.725 57.6253C187.844 57.6253 186.978 58.0371 186.432 58.81C185.54 60.0737 185.84 61.829 187.102 62.7235C187.58 63.0627 188.14 63.2405 188.715 63.2405C188.874 63.2405 189.033 63.2269 189.193 63.1997C189.931 63.0727 190.576 62.6663 191.009 62.054C191.441 61.4417 191.609 60.6969 191.483 59.9585C191.357 59.2192 190.951 58.5733 190.34 58.1406C189.849 57.7922 189.284 57.6253 188.725 57.6253Z" fill="#DEE8FD"/>
<path d="M188.657 69.7656C188.412 69.7656 188.166 69.7566 187.918 69.7366C185.437 69.5434 183.18 68.3931 181.562 66.499C180.062 64.7437 179.329 62.5856 179.329 60.4384C179.329 57.8031 180.434 55.1833 182.586 53.34C184.338 51.8387 186.492 51.103 188.636 51.103C191.267 51.103 193.882 52.2106 195.723 54.366C195.749 54.3959 195.775 54.4267 195.801 54.4576C196.163 54.893 196.485 55.3602 196.762 55.8501L196.764 55.8555L196.777 55.8773C196.784 55.89 196.791 55.9027 196.798 55.9154L196.81 55.9362C196.822 55.9589 196.834 55.9807 196.846 56.0034L196.042 56.4388C195.758 55.9145 195.418 55.4183 195.028 54.9611C193.368 53.018 191.009 52.0192 188.636 52.0192C187.96 52.0192 187.283 52.1008 186.621 52.2641C185.389 52.5671 184.208 53.1559 183.18 54.0367C181.24 55.6986 180.243 58.0617 180.242 60.4375C180.242 62.3742 180.905 64.3201 182.257 65.903C183.916 67.8461 186.275 68.8449 188.648 68.8449C190.582 68.8449 192.524 68.1827 194.105 66.8283C195.262 65.8359 196.128 64.5514 196.609 63.1127L197.477 63.4038C196.943 64.9995 195.983 66.4246 194.699 67.5241C192.997 68.9828 190.875 69.7656 188.657 69.7656Z" fill="#DEE8FD"/>
<path d="M179.215 208.902C178.741 208.902 178.268 208.809 177.825 208.625C177.644 208.549 177.469 208.46 177.3 208.354C176.308 207.736 175.34 207.115 174.388 206.489C168.345 202.515 163.097 198.396 158.546 194.179C158.071 193.738 157.604 193.297 157.143 192.854C147.717 183.788 141.412 174.277 137.176 164.694C137.071 164.456 136.967 164.216 136.865 163.979C136.661 163.506 136.462 163.033 136.267 162.559C135.839 161.517 135.436 160.476 135.054 159.433C128.079 140.385 128.509 121.338 128.139 105.26C128.116 104.229 128.53 103.237 129.282 102.531C129.954 101.9 130.838 101.553 131.752 101.553C131.86 101.553 131.968 101.558 132.076 101.567C132.928 101.644 133.838 101.683 134.796 101.683C143.216 101.683 155.453 98.6863 166.25 92.0133C170.06 89.6584 173.69 86.8463 176.909 83.547C177.261 83.186 177.723 83.0399 178.218 83.0399C179.032 83.0399 179.935 83.4345 180.597 83.9298C184.954 87.1919 190.149 89.6956 195.533 91.6187C208.543 96.2642 222.658 97.517 228.715 97.8499C230.486 97.9479 231.924 99.324 232.107 101.092C234.453 123.791 231.649 142.124 226.305 156.801C225.082 160.158 223.728 163.323 222.271 166.306C208.956 193.563 187.158 205.52 180.761 208.555C180.271 208.787 179.742 208.902 179.215 208.902ZM134.786 107.073C134.458 107.073 134.152 107.201 133.925 107.434C133.698 107.664 133.577 107.97 133.582 108.294L133.618 110.233C133.873 124.785 134.162 141.278 140.069 157.475C146.683 175.609 159.332 190.466 178.742 202.893C178.938 203.019 179.165 203.082 179.391 203.082C179.579 203.082 179.766 203.039 179.937 202.951C184.995 200.346 197.936 192.708 208.85 178.048C223.463 158.418 229.568 133.56 226.995 104.162C226.943 103.571 226.479 103.112 225.889 103.068C214.821 102.251 194.082 99.4374 179.543 89.7754C179.34 89.6412 179.109 89.575 178.879 89.575C178.591 89.575 178.305 89.6784 178.08 89.8816C164.847 101.757 146.806 107.073 134.786 107.073ZM179.39 202.589C179.257 202.589 179.123 202.551 179.007 202.477C159.693 190.11 147.107 175.334 140.532 157.305C134.653 141.186 134.364 124.738 134.11 110.224L134.075 108.285C134.071 108.094 134.143 107.915 134.276 107.779C134.411 107.643 134.592 107.566 134.796 107.566C146.9 107.566 165.079 102.211 178.408 90.249C178.542 90.1292 178.71 90.0684 178.879 90.0684C179.015 90.0684 179.151 90.1075 179.271 90.1864C193.903 99.9109 214.737 102.739 225.854 103.56C226.2 103.586 226.473 103.857 226.504 104.205C229.065 133.478 222.993 158.223 208.455 177.753C197.603 192.331 184.739 199.923 179.712 202.512C179.611 202.563 179.501 202.589 179.39 202.589ZM161.225 132.821C158.854 132.821 156.931 134.747 156.931 137.122V166.87C156.931 169.245 158.854 171.171 161.225 171.171H199.925C202.296 171.171 204.219 169.245 204.219 166.87V137.122C204.219 134.747 202.296 132.821 199.925 132.821H161.225ZM173.482 115.993H187.668C190.469 115.993 192.739 118.267 192.739 121.073V128.91C192.739 130.049 193.661 130.972 194.798 130.972H197.088C198.224 130.972 199.145 130.049 199.145 128.91V121.073C199.145 114.724 194.007 109.577 187.668 109.577H173.482C167.143 109.577 162.004 114.724 162.004 121.073V128.91C162.004 130.049 162.926 130.972 164.063 130.972H166.353C167.489 130.972 168.41 130.049 168.41 128.91V121.073C168.41 118.267 170.681 115.993 173.482 115.993ZM184.565 163.539H176.585C175.556 163.539 174.798 162.575 175.038 161.573L176.9 153.809C174.702 152.493 173.265 150.032 173.412 147.249C173.602 143.643 176.519 140.692 180.117 140.467C180.271 140.458 180.424 140.454 180.575 140.454C184.537 140.454 187.749 143.67 187.749 147.638C187.749 150.261 186.345 152.554 184.25 153.809L186.112 161.573C186.352 162.575 185.594 163.539 184.565 163.539Z" fill="#F4A72A"/>
<path d="M179.391 203.082C179.165 203.082 178.939 203.019 178.742 202.892C159.333 190.465 146.683 175.609 140.069 157.475C134.162 141.277 133.873 124.785 133.618 110.233L133.583 108.294C133.577 107.97 133.699 107.664 133.925 107.434C134.152 107.201 134.459 107.073 134.786 107.073C146.806 107.073 164.848 101.757 178.08 89.8815C178.305 89.6783 178.592 89.5749 178.88 89.5749C179.11 89.5749 179.341 89.6411 179.544 89.7754C194.082 99.4373 214.822 102.251 225.889 103.068C226.479 103.112 226.944 103.571 226.995 104.162C229.568 133.56 223.463 158.418 208.85 178.048C197.937 192.708 184.995 200.346 179.938 202.95C179.766 203.038 179.579 203.082 179.391 203.082ZM134.796 107.566C134.593 107.566 134.411 107.642 134.276 107.779C134.143 107.915 134.072 108.094 134.075 108.285L134.111 110.224C134.364 124.738 134.653 141.186 140.532 157.305C147.108 175.334 159.693 190.11 179.007 202.477C179.123 202.55 179.257 202.589 179.39 202.589C179.501 202.589 179.611 202.563 179.712 202.511C184.74 199.923 197.603 192.331 208.455 177.753C222.994 158.223 229.066 133.478 226.504 104.205C226.473 103.857 226.2 103.586 225.854 103.56C214.737 102.739 193.903 99.9109 179.271 90.1863C179.151 90.1074 179.016 90.0684 178.88 90.0684C178.71 90.0684 178.542 90.1291 178.409 90.2489C165.079 102.211 146.9 107.566 134.796 107.566Z" fill="url(#paint0_linear_5_17727)"/>
<path d="M197.088 130.972H194.798C193.661 130.972 192.739 130.049 192.739 128.91V121.073C192.739 118.267 190.469 115.993 187.668 115.993H173.482C170.681 115.993 168.41 118.267 168.41 121.073V128.91C168.41 130.049 167.489 130.972 166.353 130.972H164.063C162.926 130.972 162.004 130.049 162.004 128.91V121.073C162.004 114.724 167.143 109.577 173.482 109.577H187.668C194.007 109.577 199.145 114.724 199.145 121.073V128.91C199.145 130.049 198.224 130.972 197.088 130.972Z" fill="#FFF7E9"/>
<path d="M199.925 171.17H161.226C158.854 171.17 156.932 169.245 156.932 166.87V137.122C156.932 134.747 158.854 132.821 161.226 132.821H199.925C202.297 132.821 204.219 134.747 204.219 137.122V166.87C204.219 169.245 202.297 171.17 199.925 171.17ZM180.575 140.454C180.424 140.454 180.271 140.458 180.118 140.467C176.519 140.691 173.602 143.643 173.412 147.249C173.265 150.032 174.702 152.492 176.901 153.809L175.038 161.573C174.798 162.574 175.557 163.539 176.585 163.539H184.566C185.594 163.539 186.353 162.574 186.113 161.573L184.25 153.809C186.345 152.554 187.749 150.261 187.749 147.638C187.749 143.669 184.537 140.454 180.575 140.454Z" fill="#FFF7E9"/>
<path d="M32.2324 123.096C32.2324 123.096 35.3667 123.262 35.751 129.721C35.751 129.721 28.4829 136.247 18.6653 137.8C17.9281 137.917 19.6957 132.761 19.9614 132.063C21.2256 128.74 25.2072 126.6 32.2324 123.096Z" fill="#3D4347"/>
<path d="M67.5315 115.503H60.9172C60.9172 115.503 40.6165 93.0465 27.3015 90.7804C27.3015 90.7804 18.0331 102.63 27.7952 124.772C28.5805 126.553 30.7769 127.344 32.4152 126.296C32.9052 125.982 33.2571 125.562 33.4708 125.036L32.6858 106.131C32.6858 106.131 50.0025 121.3 53.0131 124.228C56.0227 127.155 71.3228 125.371 67.5315 115.503Z" fill="#A8A8AD"/>
<path d="M3.58564 162.651C6.35736 160.218 10.7738 157.488 17.1492 156.705L19.3053 158.026C19.3053 158.026 17.9304 160.058 15.4187 162.204C13.1103 163.546 9.54571 165.365 6.59058 165.76C3.71742 166.142 3.29373 164.403 3.58564 162.651Z" fill="#3D4347"/>
<path d="M19.9611 132.063C21.6686 132.616 22.4196 135.04 26.7526 133.437C30.9446 131.887 34.0609 129.888 35.6642 128.735C35.7 129.048 35.73 129.374 35.7508 129.722C35.7508 129.722 28.0874 137.022 18.2696 138.576C17.5326 138.692 16.9485 137.956 17.2142 137.257C17.691 136.004 18.5505 134.103 19.9611 132.063Z" fill="#F4A72A"/>
<path d="M1.49733 164.728C2.04375 164.106 2.74113 163.392 3.58534 162.651C3.29343 164.403 3.71712 166.142 6.59028 165.76C9.54541 165.365 13.11 163.546 15.4184 162.204C12.5252 164.675 8.123 167.298 2.56679 167.144C1.33258 167.109 0.681749 165.656 1.49733 164.728Z" fill="#F4A72A"/>
<path d="M67.2896 120.296L36.3155 120.632C36.3155 120.632 18.6269 135.289 15.4185 157.641C15.4185 157.641 14.886 159.285 18.0834 159.566C18.0834 159.566 28.7776 152.571 35.7508 140.202C44.301 125.036 61.2404 131.862 61.2404 131.862C69.3781 133.661 75.8548 132.992 80.5953 125.686L67.2896 120.296Z" fill="#A8A8AD"/>
<path d="M66.5586 95.3046C66.5586 95.3046 63.2238 112.042 46.8859 118.664L41.0745 117.978L39.7031 120.168L53.3353 120.603C53.3353 120.603 64.9872 115.98 71.1614 103.385C71.3652 102.968 74.7652 95.9369 66.5586 95.3046Z" fill="url(#paint1_linear_5_17727)"/>
<path d="M64.7719 120.022C64.7719 120.022 68.5632 109.699 69.3784 99.6679C69.3784 99.6679 66.6042 97.2803 64.8707 96.2498C64.3091 95.9159 64.0972 95.2102 64.3807 94.6214C65.6559 91.9762 73.3644 81.5912 73.9422 81.447C77.0805 80.6623 89.9532 74.5319 99.0193 86.9525C102.91 92.2828 98.2477 108.692 80.5955 125.687C74.9158 126.613 69.6048 124.974 64.7719 120.022Z" fill="#F4A72A"/>
<path d="M79.3827 101.929C79.3827 101.929 68.8476 114.423 55.3789 116.249C55.3789 116.249 51.8982 113.072 49.3097 114.206C46.7211 115.34 43.1719 120.35 43.1719 120.35H60.4662C60.4662 120.35 76.8178 119.773 84.989 109.841C84.3315 106.366 82.3625 104.29 79.3827 101.929Z" fill="url(#paint2_linear_5_17727)"/>
<path d="M85.5278 72.6838L87.8328 80.3836C87.9388 80.7365 87.8083 81.1184 87.5049 81.3261C86.3954 82.0881 83.4945 83.6022 79.5157 82.1308C79.0611 81.9621 78.7486 81.5366 78.7096 81.0522L78.1626 74.3439L85.5278 72.6838Z" fill="url(#paint3_linear_5_17727)"/>
<path d="M72.0312 66.4474C72.0312 66.4474 73.1643 74.4293 76.2256 76.884C79.2868 79.3388 85.2518 77.4909 87.2661 71.4729L83.252 61.1841L72.0312 66.4474Z" fill="url(#paint4_linear_5_17727)"/>
<path d="M83.7036 67.8425C83.4708 67.9178 83.2272 67.7682 83.191 67.5259C83.0805 66.7893 82.8042 65.3307 82.2463 64.3373C82.2463 64.3373 82.538 63.2905 79.6035 64.8726C76.669 66.4546 72.2618 68.7778 69.6661 67.3944C67.1365 66.0455 64.5733 59.2555 71.2601 60.5128C71.5146 60.5609 71.7483 60.3577 71.7293 60.0992C71.6469 58.9834 71.7574 56.4162 74.354 55.5916C76.7831 54.8205 78.1127 55.9191 78.6606 56.5822C78.8219 56.7772 79.1207 56.7727 79.2747 56.5722C80.0029 55.6206 81.9782 53.5949 84.8883 54.8795C87.2838 55.9372 87.657 57.4158 87.6171 58.3366C87.6045 58.635 87.907 58.8373 88.1778 58.7121C88.9114 58.3738 90.0915 58.1978 91.2227 59.6166C92.786 61.5787 90.5516 63.2796 89.8814 63.7259C89.7718 63.7994 89.7039 63.92 89.703 64.0525C89.6966 65.0721 89.5381 69.5226 87.311 72.0326C87.1181 72.2503 86.7622 72.1859 86.6498 71.9183L84.9354 67.8262C84.8557 67.6366 84.6437 67.5386 84.4481 67.6021L83.7036 67.8425Z" fill="#3D4347"/>
<path d="M83.6675 68.6732C83.6675 68.6732 84.7145 64.4015 86.3049 65.7885C87.8962 67.1756 85.891 70.2272 84.0687 70.8096L83.6675 68.6732Z" fill="url(#paint5_linear_5_17727)"/>
<path d="M44.0423 121.319L36.2774 95.3823C35.9606 94.3246 35.0221 93.5735 33.9218 93.4982L23.438 92.7797C22.3724 92.7071 21.5798 93.7494 21.9336 94.7591L30.6141 119.529C30.8938 120.326 31.609 120.89 32.449 120.976L42.7729 122.123L44.0423 121.319Z" fill="#3D4347"/>
<path d="M29.7219 104.174C30.3017 105.346 31.3028 106.032 31.9581 105.707C32.6133 105.382 32.6745 104.168 32.0948 102.996C31.515 101.824 30.5139 101.137 29.8587 101.462C29.2035 101.788 29.1422 103.002 29.7219 104.174Z" fill="#F4A72A"/>
<path d="M42.7732 122.123C42.79 122.123 42.8068 122.123 42.8239 122.122L64.8218 121.008C65.3653 120.981 65.7837 120.517 65.7565 119.972C65.7285 119.428 65.2638 119 64.7222 119.036L42.7242 120.15C42.1804 120.177 41.7619 120.641 41.7894 121.186C41.8161 121.713 42.2515 122.123 42.7732 122.123Z" fill="#3D4347"/>
<defs>
<linearGradient id="paint0_linear_5_17727" x1="290.272" y1="26.0468" x2="248.131" y2="67.2066" gradientUnits="userSpaceOnUse">
<stop stop-color="#FFD5D3"/>
<stop offset="1" stop-color="#FFC7C2"/>
</linearGradient>
<linearGradient id="paint1_linear_5_17727" x1="48.7162" y1="100.679" x2="63.3351" y2="118.036" gradientUnits="userSpaceOnUse">
<stop stop-color="#FEBBBA"/>
<stop offset="1" stop-color="#FF928E"/>
</linearGradient>
<linearGradient id="paint2_linear_5_17727" x1="65.731" y1="116.492" x2="36.5042" y2="76.571" gradientUnits="userSpaceOnUse">
<stop stop-color="#FEBBBA"/>
<stop offset="1" stop-color="#FF928E"/>
</linearGradient>
<linearGradient id="paint3_linear_5_17727" x1="83.5724" y1="83.3736" x2="82.4947" y2="73.6897" gradientUnits="userSpaceOnUse">
<stop stop-color="#FEBBBA"/>
<stop offset="1" stop-color="#FF928E"/>
</linearGradient>
<linearGradient id="paint4_linear_5_17727" x1="77.8431" y1="74.9255" x2="82.5922" y2="59.2867" gradientUnits="userSpaceOnUse">
<stop stop-color="#FEBBBA"/>
<stop offset="1" stop-color="#FF928E"/>
</linearGradient>
<linearGradient id="paint5_linear_5_17727" x1="82.7473" y1="76.4148" x2="87.4964" y2="60.776" gradientUnits="userSpaceOnUse">
<stop stop-color="#FEBBBA"/>
<stop offset="1" stop-color="#FF928E"/>
</linearGradient>
</defs>
</svg>
