<svg width="258" height="262" viewBox="0 0 258 262" fill="none" xmlns="http://www.w3.org/2000/svg">
<path d="M253.811 135.032C247.681 157.916 233.124 183.442 210.096 192.793C175.301 206.924 173.787 236.22 109.377 239.687C99.3337 240.229 89.9539 239.708 81.2456 238.275C76.5643 237.506 72.0751 236.466 67.7871 235.184C28.8548 223.587 6.10468 192.033 1.13436 157.213C-5.4106 111.418 24.5707 86.4187 44.1912 71.5826C63.8117 56.7471 84.1787 4.5938 147.472 0.687454C157.122 0.0960541 166.845 0.491837 176.386 2.12321C198.164 5.83739 220.961 16.4843 235.28 33.8695C236.355 35.1751 237.389 36.5185 238.388 37.8917C257.896 64.7697 262.17 103.835 253.811 135.032Z" fill="#F4A72A"/>
<path d="M101.69 239.897C94.5087 239.897 87.6935 239.336 81.2452 238.275C76.5639 237.506 72.0747 236.466 67.7867 235.184C28.8544 223.587 6.10428 192.033 1.13395 157.213C0.510675 152.853 0.218634 148.681 0.21729 144.689C0.204524 106.749 26.4386 85.0059 44.1908 71.5827C54.4945 63.7918 65.0049 45.7091 81.8288 29.7269H103.087V29.4401V29.1533H82.4366C84.5751 27.1462 86.8128 25.1776 89.1663 23.2668L89.2759 23.3489L89.4513 23.0363C89.9157 22.6617 90.3801 22.2928 90.8531 21.9234L91.6626 23.3489L92.4378 22.7707L91.333 21.5506C91.72 21.2517 92.1127 20.9529 92.5054 20.6574L93.1975 20.5198L93.1017 20.2123C94.0425 19.5154 95.0012 18.8288 95.977 18.1542L96.2499 20.5502L94.0311 19.5768L93.7421 20.5049L96.0979 20.9913L94.5024 22.7707L95.2775 23.3489L96.4626 21.2345L97.6637 23.3489L98.4383 22.7707L96.8278 20.9913L99.1985 20.5198L98.9101 19.5928L96.6908 20.5502L96.9488 18.1479H95.9867C97.9315 16.8044 99.953 15.5052 102.046 14.2679H103.087C105.142 14.2679 107 15.1003 108.347 16.4477C109.694 17.7957 110.526 19.6542 110.526 21.7106C110.526 23.7665 109.694 25.6256 108.347 26.9736C107 28.3204 105.142 29.1533 103.087 29.1533V29.4401V29.7269C107.512 29.7269 111.099 26.1378 111.1 21.7106C111.099 17.2829 107.512 13.6943 103.087 13.6943H103.028C115.033 6.7805 129.528 1.79518 147.472 0.687531C150.261 0.516586 153.056 0.428253 155.851 0.428253C162.727 0.428253 169.602 0.963425 176.386 2.12328C198.164 5.83746 220.96 16.4844 235.279 33.8696C236.354 35.1752 237.388 36.5186 238.388 37.8918C251.647 56.1604 257.869 80.0591 257.869 103.291C257.87 114.239 256.488 125.039 253.811 135.032C247.681 157.916 233.123 183.442 210.096 192.793C175.301 206.924 173.787 236.22 109.376 239.687C106.77 239.828 104.207 239.897 101.69 239.897ZM134.131 171.51L113.769 171.904L124.292 189.35L127.683 183.201C135.307 185.702 143.445 187.061 151.895 187.061C194.844 187.061 229.786 152.101 229.786 109.131C229.786 76.3116 209.402 48.1682 180.637 36.7015L186.757 43.1794L179.241 44.9691C204.132 55.6281 221.616 80.3739 221.616 109.131C221.616 147.595 190.338 178.886 151.895 178.886C144.878 178.886 138.102 177.839 131.709 175.899L134.131 171.51ZM151.895 31.2011C108.945 31.2011 74.0034 66.1603 74.0034 109.131C74.0034 139.232 91.1512 165.4 116.186 178.375L111.258 170.206L118.01 170.075C96.6512 158.14 82.174 135.297 82.174 109.131C82.174 70.6678 113.45 39.3752 151.895 39.3752C156.695 39.3752 161.38 39.8737 165.91 40.8035L164.131 46.7697L183.942 42.0528L169.953 27.2455L168.255 32.9398C162.977 31.8057 157.506 31.2011 151.895 31.2011ZM25.7622 103.771C18.7901 103.771 13.1388 109.425 13.1386 116.401C13.1388 123.376 18.7901 129.03 25.7622 129.03C32.734 129.03 38.3856 123.376 38.3858 116.401C38.3856 109.425 32.734 103.771 25.7622 103.771ZM25.7622 128.456C22.4337 128.456 19.4228 127.108 17.2413 124.926C15.0604 122.743 13.7121 119.731 13.7119 116.401C13.7121 113.071 15.0604 110.059 17.2413 107.876C19.4228 105.693 22.4335 104.345 25.7622 104.345C29.0906 104.345 32.1013 105.693 34.2829 107.876C36.4641 110.059 37.8123 113.071 37.8125 116.401C37.8123 119.731 36.4641 122.743 34.2832 124.926C32.1013 127.108 29.0906 128.456 25.7622 128.456ZM34.4473 123.678L31.9016 119.277L31.6537 119.421L31.4055 119.565L33.4531 123.104H26.1989H25.3253H17.8592L19.9572 119.568C20.4475 118.744 21.0951 118.326 21.728 118.326C21.7292 118.326 21.7303 118.326 21.7314 118.326H23.7562V116.646L23.694 116.568C22.8731 115.536 22.3352 113.988 22.337 112.414C22.3363 111.008 22.7614 109.741 23.4314 108.839C24.1042 107.935 25.0039 107.403 25.9803 107.403C26.957 107.403 27.8569 107.935 28.5294 108.839C29.1998 109.741 29.6248 111.008 29.6241 112.414C29.6261 114.052 29.0412 115.658 28.1639 116.687L28.0956 116.767V118.326H29.6828C29.9916 118.326 30.2971 118.428 30.5925 118.634C30.8872 118.841 31.1679 119.153 31.4055 119.565L31.6537 119.421L31.9016 119.277C31.6295 118.807 31.2982 118.429 30.9218 118.164C30.5464 117.901 30.122 117.752 29.6842 117.752C29.6837 117.752 29.6832 117.752 29.6828 117.752H28.669V116.977C29.6087 115.822 30.1957 114.145 30.1975 112.414C30.197 110.893 29.7422 109.512 28.9899 108.497C28.2401 107.484 27.1745 106.829 25.9803 106.829C24.7864 106.829 23.721 107.484 22.9712 108.497C22.219 109.512 21.7641 110.893 21.7637 112.414C21.7652 114.078 22.3063 115.695 23.1828 116.844V117.752H21.7314C20.8329 117.754 20.0183 118.337 19.464 119.274L16.8523 123.678H25.3253H26.1989H34.4473Z" fill="#A8A8AD"/>
<path d="M35.7273 66.1699H15.6636V47.5962H16.8777V44.6329C16.8763 41.8508 17.9316 39.5954 19.5656 38.0489C21.1987 36.5007 23.4025 35.658 25.6954 35.658C27.923 35.658 30.1488 36.2368 31.8293 37.664C33.5117 39.09 34.6122 41.3627 34.6091 44.6329V47.5962H35.7273V66.1699ZM16.2369 48.1698V65.5963H35.154V48.1698H34.3225V47.883H34.6091H34.3225V48.1698H34.0358V44.6329C34.0324 41.4854 32.9995 39.4141 31.4583 38.1005C29.9154 36.7881 27.8274 36.2317 25.6954 36.2317C25.6951 36.2317 25.6951 36.2317 25.6949 36.2317C23.5422 36.2317 21.4804 37.0238 19.9598 38.4653C18.4398 39.908 17.4525 41.9959 17.451 44.6329V48.1698H16.2369ZM26.5578 61.3229H24.1384V57.9609C23.2282 57.514 22.6003 56.5796 22.5998 55.4955C22.6 53.9765 23.8302 52.7461 25.348 52.7461C26.866 52.7461 28.096 53.9765 28.096 55.4955C28.0957 56.5796 27.4678 57.514 26.5578 57.9609V61.3229ZM25.348 53.3197C24.7467 53.3197 24.2047 53.563 23.8103 53.957C23.4161 54.3517 23.1734 54.8937 23.1732 55.4955C23.1729 56.4075 23.7357 57.1859 24.5328 57.5094L24.7117 57.5823V60.7492H25.9845V57.7756V57.5823L26.1634 57.5094C26.96 57.1859 27.5231 56.4075 27.5229 55.4955C27.5226 54.8937 27.2799 54.3517 26.8857 53.957C26.4913 53.563 25.9495 53.3197 25.348 53.3197ZM31.9082 48.1698H19.4825V44.6329C19.4832 41.2044 22.2688 38.4171 25.6954 38.4171C27.3939 38.4166 28.9499 38.9994 30.0811 40.0755C31.2135 41.151 31.9095 42.7181 31.9082 44.6329V47.883V48.1698ZM31.6213 47.883V47.5962V47.883ZM25.6954 38.9908C24.14 38.9908 22.7317 39.6229 21.7095 40.6451C20.6879 41.6678 20.0561 43.0766 20.0559 44.6329V47.5962H31.3346V44.6329C31.3333 42.8552 30.7002 41.4579 29.686 40.4913C28.6711 39.5265 27.2642 38.9908 25.6954 38.9908Z" fill="white"/>
<path d="M81.8289 29.7271H47.8444C43.419 29.7271 39.8323 26.1379 39.832 21.7108C39.8323 17.283 43.4192 13.6944 47.8444 13.6944H103.029C102.698 13.8849 102.373 14.0748 102.046 14.2681H47.8444C45.7891 14.2681 43.9314 15.1004 42.5843 16.4478C41.2376 17.7958 40.4056 19.6543 40.4054 21.7108C40.4056 23.7666 41.2376 25.6257 42.5843 26.9737C43.9314 28.3205 45.7893 29.1534 47.8444 29.1534H82.4367C82.2331 29.3439 82.0302 29.5355 81.8289 29.7271Z" fill="white"/>
<path d="M103.088 29.7271H81.8291C82.0303 29.5355 82.2333 29.3439 82.4368 29.1534H103.088V29.4402V29.7271ZM103.088 29.7271V29.4402V29.1534C105.143 29.1534 107.001 28.3205 108.347 26.9737C109.694 25.6257 110.527 23.7666 110.527 21.7108C110.527 19.6543 109.694 17.7958 108.347 16.4478C107.001 15.1004 105.143 14.2681 103.088 14.2681H102.046C102.373 14.0748 102.698 13.8849 103.029 13.6944H103.088C107.513 13.6944 111.099 17.283 111.1 21.7108C111.099 26.1379 107.513 29.7271 103.088 29.7271Z" fill="white"/>
<path d="M55.6542 23.3491L54.4531 21.2347L53.268 23.3491L52.4928 22.7709L54.089 20.9915L51.7329 20.5051L52.0216 19.577L54.2406 20.5504L53.9669 18.1481H54.9398L54.6816 20.5504L56.9008 19.5931L57.189 20.52L54.8184 20.9915L56.4289 22.7709L55.6542 23.3491Z" fill="white"/>
<path d="M61.6555 23.3491L60.4538 21.2347L59.2687 23.3491L58.4936 22.7709L60.0897 20.9915L57.7339 20.5051L58.0223 19.577L60.2416 20.5504L59.9676 18.1481H60.9405L60.6825 20.5504L62.9013 19.5931L63.1897 20.52L60.8196 20.9915L62.4301 22.7709L61.6555 23.3491Z" fill="white"/>
<path d="M67.6573 23.3491L66.4562 21.2347L65.2706 23.3491L64.496 22.7709L66.0916 20.9915L63.7363 20.5051L64.0241 19.577L66.2435 20.5504L65.97 18.1481H66.9424L66.6844 20.5504L68.9038 19.5931L69.1922 20.52L66.8214 20.9915L68.4319 22.7709L67.6573 23.3491Z" fill="white"/>
<path d="M73.6584 23.3491L72.4573 21.2347L71.2716 23.3491L70.4971 22.7709L72.0926 20.9915L69.7368 20.5051L70.0252 19.577L72.2446 20.5504L71.9705 18.1481H72.9435L72.6855 20.5504L74.9043 19.5931L75.1927 20.52L72.8225 20.9915L74.433 22.7709L73.6584 23.3491Z" fill="white"/>
<path d="M79.6603 23.3491L78.4591 21.2347L77.2735 23.3491L76.4989 22.7709L78.0945 20.9915L75.7393 20.5051L76.0276 19.577L78.2464 20.5504L77.973 18.1481H78.9453L78.6873 20.5504L80.9067 19.5931L81.1951 20.52L78.8244 20.9915L80.4349 22.7709L79.6603 23.3491Z" fill="white"/>
<path d="M85.6613 23.3491L84.4602 21.2347L83.2751 23.3491L82.5 22.7709L84.0956 20.9915L81.7397 20.5051L82.0281 19.577L84.2475 20.5504L83.974 18.1481H84.9464L84.6884 20.5504L86.9078 19.5931L87.1962 20.52L84.8254 20.9915L86.4359 22.7709L85.6613 23.3491Z" fill="white"/>
<path d="M89.1664 23.2671L88.5014 22.7709L90.097 20.9916L87.7417 20.5051L88.0301 19.577L90.2489 20.5504L89.9754 18.1481H90.9478L90.6898 20.5504L92.9092 19.5931L93.1018 20.2126C92.9028 20.36 92.7033 20.5091 92.5055 20.6577L90.8268 20.9916L91.3331 21.5508C91.172 21.6753 91.0131 21.7992 90.8532 21.9237L90.4616 21.2348L89.4514 23.0365C89.3579 23.1122 89.2599 23.1914 89.1664 23.2671Z" fill="white"/>
<path d="M91.6628 23.3491L90.8533 21.9237C91.0132 21.7992 91.172 21.6753 91.3331 21.5508L92.4379 22.7709L91.6628 23.3491ZM89.276 23.3491L89.1665 23.2671C89.26 23.1914 89.358 23.1122 89.4514 23.0365L89.276 23.3491ZM92.5056 20.6577C92.7034 20.5091 92.9029 20.36 93.1019 20.2126L93.1976 20.52L92.5056 20.6577Z" fill="white"/>
<path d="M95.9772 18.1543L95.9766 18.1477H95.9872C95.9819 18.1513 95.9819 18.1513 95.9772 18.1543Z" fill="white"/>
<path d="M97.6638 23.3491L96.4627 21.2347L95.2776 23.3491L94.5024 22.7709L96.098 20.9915L93.7422 20.5051L94.0311 19.577L96.2499 20.5504L95.977 18.1544C95.9816 18.1516 95.9816 18.1515 95.9868 18.1481H96.9488L96.6908 20.5504L98.9102 19.5931L99.1986 20.52L96.8279 20.9915L98.4384 22.7709L97.6638 23.3491Z" fill="white"/>
<path d="M34.4476 123.678H16.8525L19.4643 119.275C20.0186 118.337 20.8331 117.754 21.7317 117.752H23.1831V116.844C22.3065 115.695 21.7655 114.078 21.7639 112.414C21.7643 110.893 22.2192 109.512 22.9715 108.497C23.7213 107.484 24.7867 106.829 25.9806 106.829C27.1748 106.829 28.2404 107.484 28.9902 108.497C29.7424 109.512 30.1973 110.893 30.1977 112.414C30.196 114.145 29.609 115.822 28.6692 116.977V117.752H29.6831C29.6835 117.752 29.684 117.752 29.6844 117.752C30.1223 117.752 30.5467 117.901 30.922 118.165C31.2985 118.429 31.6297 118.807 31.9019 119.277L31.6539 119.421L31.4057 119.565C31.1682 119.154 30.8875 118.841 30.5928 118.634C30.2974 118.428 29.9919 118.326 29.6831 118.326H28.0959V116.767L28.1642 116.687C29.0414 115.658 29.6264 114.052 29.6244 112.414C29.6251 111.008 29.2 109.741 28.5297 108.839C27.8572 107.935 26.9573 107.403 25.9806 107.403C25.0041 107.403 24.1045 107.935 23.4317 108.839C22.7617 109.741 22.3366 111.008 22.3373 112.414C22.3354 113.988 22.8734 115.536 23.6942 116.568L23.7564 116.646V118.326H21.7317C21.7306 118.326 21.7294 118.326 21.7283 118.326C21.0954 118.326 20.4477 118.744 19.9575 119.568L17.8594 123.105H25.3255H26.1992H33.4534L31.4057 119.565L31.6539 119.421L31.9019 119.277L34.4476 123.678Z" fill="white"/>
<path d="M25.7623 129.03C18.7902 129.03 13.1389 123.376 13.1387 116.401C13.1389 109.426 18.7902 103.772 25.7623 103.772C32.7341 103.772 38.3857 109.426 38.3859 116.401C38.3857 123.376 32.7341 129.03 25.7623 129.03ZM25.7623 104.345C22.4336 104.345 19.4229 105.694 17.2414 107.876C15.0605 110.059 13.7122 113.071 13.712 116.401C13.7122 119.731 15.0605 122.743 17.2414 124.926C19.4229 127.108 22.4338 128.457 25.7623 128.457C29.0908 128.457 32.1014 127.108 34.2833 124.926C36.4642 122.743 37.8124 119.731 37.8126 116.401C37.8124 113.071 36.4642 110.059 34.283 107.876C32.1014 105.694 29.0908 104.345 25.7623 104.345Z" fill="white"/>
<path d="M116.186 178.375C91.1512 165.4 74.0034 139.232 74.0034 109.131C74.0034 66.1603 108.945 31.2012 151.895 31.2012C157.506 31.2012 162.977 31.8058 168.255 32.9398L169.953 27.2455L183.942 42.0529L164.131 46.7697L165.91 40.8035C161.38 39.8737 156.695 39.3752 151.895 39.3752C113.45 39.3752 82.174 70.6678 82.174 109.131C82.174 135.297 96.6512 158.14 118.01 170.075L111.258 170.206L116.186 178.375Z" fill="#FFF7E9"/>
<path d="M124.292 189.35L113.77 171.905L134.131 171.51L131.71 175.899C138.102 177.839 144.878 178.886 151.895 178.886C190.339 178.886 221.616 147.595 221.616 109.131C221.616 80.3742 204.132 55.6283 179.241 44.9693L186.758 43.1796L180.637 36.7018C209.403 48.1684 229.786 76.3118 229.786 109.131C229.786 152.102 194.844 187.061 151.895 187.061C143.445 187.061 135.307 185.702 127.683 183.201L124.292 189.35Z" fill="#FFF7E9"/>
<path d="M243.972 24.0782L230.843 21.5709L230.821 21.6162C230.166 22.9419 229.097 23.6795 228.107 23.4902L227.537 23.3818C226.546 23.1925 225.825 22.113 225.704 20.6388L225.7 20.5894L212.57 18.0822C208.914 17.3841 205.384 19.7841 204.686 23.442L187.657 109.892C187.256 111.991 188.632 114.017 190.73 114.418L227.776 121.491C229.874 121.892 231.899 120.515 232.3 118.415L249.33 31.966C250.027 28.3075 247.629 24.7757 243.972 24.0782Z" fill="#F4A72A"/>
<path d="M243.972 24.078L244.026 23.7958L230.897 21.2891C230.77 21.265 230.642 21.3287 230.585 21.4457L230.563 21.491L230.565 21.4887C230.287 22.0503 229.934 22.4925 229.558 22.7879C229.182 23.0845 228.789 23.2331 228.418 23.2331C228.331 23.2331 228.246 23.225 228.161 23.2084L227.591 23.1C227.184 23.022 226.821 22.7616 226.533 22.3325C226.246 21.9046 226.046 21.312 225.989 20.6151V20.6162L225.985 20.5663C225.975 20.4378 225.88 20.3311 225.753 20.3076L212.624 17.8003C212.18 17.7154 211.737 17.6747 211.3 17.6747C207.993 17.6747 205.048 20.0197 204.404 23.3885L204.405 23.3868L187.376 109.836L187.375 109.838C187.325 110.101 187.301 110.363 187.301 110.621C187.301 112.578 188.687 114.319 190.677 114.7L227.722 121.773C227.985 121.823 228.247 121.847 228.505 121.847C230.461 121.847 232.201 120.461 232.581 118.469V118.471L249.611 32.0215L249.611 32.0198C249.696 31.5746 249.737 31.1312 249.737 30.6935C249.737 27.3849 247.393 24.4394 244.026 23.7958L243.972 24.078L243.919 24.3596C247.011 24.9493 249.163 27.6574 249.163 30.6935C249.163 31.0951 249.126 31.5023 249.048 31.9119L249.048 31.9102L232.019 118.36L232.018 118.362C231.691 120.079 230.189 121.274 228.505 121.274C228.283 121.274 228.057 121.253 227.829 121.209L190.784 114.137C189.069 113.81 187.874 112.306 187.874 110.621C187.874 110.399 187.895 110.173 187.938 109.946V109.947L204.967 23.4975V23.4964C205.557 20.4023 208.265 18.2483 211.3 18.2483C211.701 18.2483 212.108 18.2856 212.517 18.3636L225.646 20.8709L225.7 20.5892L225.414 20.6116L225.418 20.6615V20.6621C225.482 21.4399 225.704 22.1237 226.056 22.6514C226.407 23.178 226.9 23.552 227.483 23.6633L228.053 23.7723C228.174 23.7952 228.296 23.8067 228.418 23.8067C228.944 23.8061 229.459 23.5967 229.913 23.2388C230.368 22.8797 230.769 22.3698 231.078 21.7434L231.079 21.7411L231.101 21.6958L230.843 21.5707L230.79 21.8524L243.919 24.3596L243.972 24.078Z" fill="#515151"/>
<path d="M248.962 33.896L249.33 31.9658C250.027 28.3072 247.629 24.7755 243.972 24.078L230.843 21.5707L230.821 21.616C230.166 22.9416 229.097 23.6793 228.107 23.49L227.537 23.3816C226.546 23.1923 225.825 22.1127 225.704 20.6385L225.7 20.5892L212.57 18.0819C208.914 17.3838 205.384 19.7838 204.686 23.4418L204.318 25.372L248.962 33.896Z" fill="white"/>
<path d="M248.962 33.8959L249.243 33.9493L249.611 32.0196C249.696 31.5745 249.737 31.1311 249.737 30.6934C249.737 27.3848 247.393 24.4393 244.026 23.7957L230.897 21.289C230.77 21.2649 230.642 21.3285 230.585 21.4456L230.563 21.4909L230.564 21.4886C230.287 22.0501 229.934 22.4924 229.558 22.7878C229.182 23.0844 228.789 23.233 228.418 23.233C228.331 23.233 228.246 23.2249 228.161 23.2083L227.591 23.0999C227.184 23.0218 226.821 22.7614 226.533 22.3324C226.246 21.9044 226.046 21.3119 225.989 20.615V20.6161L225.985 20.5662C225.975 20.4377 225.88 20.331 225.753 20.3075L212.624 17.8002C212.18 17.7153 211.737 17.6746 211.3 17.6746C207.992 17.6746 205.048 20.0195 204.404 23.3884L204.037 25.3186C204.007 25.4741 204.109 25.6244 204.265 25.6542L248.908 34.1776C248.982 34.1919 249.06 34.1753 249.123 34.1328C249.185 34.0904 249.229 34.0238 249.243 33.9493L248.962 33.8959L249.015 33.6143L204.653 25.1442L204.967 23.4956V23.4962C205.557 20.4016 208.265 18.2482 211.3 18.2482C211.701 18.2482 212.108 18.2855 212.517 18.3635L225.646 20.8708L225.7 20.5891L225.414 20.6115L225.418 20.6614V20.662C225.482 21.4398 225.704 22.1236 226.056 22.6513C226.407 23.1779 226.9 23.5519 227.483 23.6632L228.053 23.7721C228.174 23.7951 228.296 23.8066 228.418 23.8066C228.944 23.806 229.459 23.5966 229.913 23.2387C230.368 22.8796 230.769 22.3696 231.078 21.7433L231.079 21.741L231.101 21.6956L230.843 21.5706L230.79 21.8522L243.919 24.3595C247.011 24.9492 249.163 27.6573 249.163 30.6934C249.163 31.095 249.126 31.5022 249.048 31.9118L248.68 33.842L248.962 33.8959L249.015 33.6143L248.962 33.8959Z" fill="#515151"/>
<path d="M233.014 114.668C232.317 118.327 228.786 120.726 225.13 120.028L193.729 114.032C190.072 113.335 187.673 109.803 188.371 106.145L204.686 23.4421C205.384 19.7841 208.913 17.3841 212.57 18.0822L225.699 20.5895L225.703 20.6388C225.824 22.113 226.546 23.1926 227.537 23.3818L228.107 23.4903C229.097 23.6796 230.166 22.9419 230.821 21.6163L230.843 21.5709L243.972 24.0782C247.629 24.7757 250.027 28.3075 249.329 31.966L233.014 114.668ZM246.083 61.5785L247.684 53.1847L246.925 53.0396L251.699 30.8492C252.397 27.1907 249.998 23.6595 246.342 22.9608L210.778 16.1709C207.122 15.4728 203.592 17.8728 202.894 21.5313L185.388 110.479C184.69 114.137 187.089 117.669 190.746 118.367L226.308 125.157C229.965 125.855 233.495 123.455 234.193 119.797L243.96 68.5881L244.719 68.7326L245.665 63.7726L244.906 63.6274L245.325 61.4339L246.083 61.5785Z" fill="#A8A8AD"/>
<path d="M233.014 114.668L232.733 114.615C232.143 117.708 229.436 119.862 226.401 119.862C226 119.862 225.593 119.824 225.184 119.746L193.783 113.751C190.69 113.161 188.537 110.452 188.537 107.416C188.537 107.015 188.575 106.608 188.653 106.199V106.2L204.967 23.4977V23.4966C205.557 20.4025 208.265 18.2486 211.3 18.2486C211.701 18.2486 212.108 18.2859 212.517 18.3639L225.646 20.8711L225.7 20.5895L225.414 20.6119L225.418 20.6618V20.6623C225.482 21.4402 225.704 22.1239 226.056 22.6517C226.407 23.1782 226.9 23.5522 227.483 23.6635L228.053 23.7725C228.174 23.7955 228.296 23.8069 228.418 23.8069C228.944 23.8064 229.459 23.597 229.913 23.239C230.368 22.8799 230.769 22.37 231.078 21.7436L231.079 21.7413L231.101 21.696L230.843 21.571L230.79 21.8526L243.918 24.3599C247.011 24.9496 249.163 27.6576 249.163 30.6938C249.163 31.0953 249.126 31.5026 249.048 31.9121L249.048 31.9104L232.733 114.612L232.733 114.615L233.014 114.668L233.296 114.724L249.611 32.0217L249.611 32.02C249.696 31.5749 249.737 31.1314 249.737 30.6938C249.737 27.3851 247.393 24.4396 244.026 23.796L230.897 21.2893C230.77 21.2652 230.642 21.3289 230.585 21.4459L230.563 21.4912L230.564 21.4889C230.287 22.0505 229.934 22.4928 229.558 22.7882C229.182 23.0847 228.789 23.2333 228.418 23.2333C228.331 23.2333 228.246 23.2253 228.161 23.2086L227.591 23.1002C227.184 23.0222 226.821 22.7618 226.533 22.3327C226.246 21.9048 226.046 21.3123 225.989 20.6153V20.6165L225.985 20.5666C225.975 20.4381 225.88 20.3314 225.753 20.3079L212.624 17.8006C212.18 17.7157 211.737 17.6749 211.3 17.6749C207.993 17.6749 205.048 20.0199 204.404 23.3888L204.405 23.387L188.09 106.089L188.09 106.091C188.005 106.535 187.964 106.979 187.964 107.416C187.964 110.724 190.308 113.671 193.675 114.314L225.077 120.31C225.521 120.395 225.965 120.436 226.401 120.436C229.708 120.436 232.653 118.091 233.296 114.722L233.296 114.724L233.014 114.668ZM246.083 61.5785L246.365 61.6324L247.967 53.2387C247.981 53.163 247.965 53.0867 247.922 53.0236C247.879 52.9599 247.814 52.9169 247.739 52.9025L247.268 52.8131L251.98 30.9095L251.981 30.9031C252.066 30.4586 252.107 30.0152 252.107 29.5781C252.107 26.2695 249.763 23.3228 246.395 22.6792L210.832 15.8893C210.388 15.8044 209.944 15.7636 209.508 15.7636C206.201 15.7636 203.256 18.1086 202.613 21.4774L202.613 21.4757L185.107 110.423L185.107 110.425C185.022 110.87 184.981 111.313 184.981 111.75C184.981 115.059 187.325 118.005 190.692 118.649L226.255 125.439C226.7 125.523 227.143 125.564 227.58 125.564C230.887 125.564 233.832 123.22 234.475 119.851L244.189 68.9237L244.666 69.0143C244.821 69.0442 244.971 68.9421 245.001 68.7866L245.947 63.8265C245.977 63.6711 245.875 63.5208 245.719 63.491L245.242 63.3997L245.552 61.7695L246.03 61.8607C246.105 61.8751 246.181 61.859 246.244 61.816C246.308 61.773 246.351 61.7076 246.365 61.6324L246.083 61.5785L246.137 61.2969L245.379 61.1517C245.305 61.138 245.226 61.154 245.164 61.1965C245.101 61.2389 245.058 61.3055 245.043 61.38L244.625 63.5736C244.595 63.7296 244.697 63.8799 244.852 63.9091L245.33 64.0009L244.491 68.3971L244.014 68.3065C243.859 68.2767 243.709 68.3788 243.679 68.5342L233.912 119.743C233.322 122.837 230.615 124.991 227.58 124.991C227.178 124.991 226.771 124.953 226.362 124.875L190.8 118.085C187.707 117.495 185.554 114.787 185.554 111.75C185.554 111.349 185.592 110.942 185.67 110.533V110.535L203.176 21.5865V21.5847C203.765 18.4912 206.473 16.3373 209.508 16.3373C209.909 16.3373 210.315 16.3745 210.725 16.4531L246.288 23.2425C249.381 23.8327 251.533 26.5414 251.533 29.5781C251.533 29.9796 251.496 30.3863 251.418 30.7959L251.699 30.8492L251.419 30.789L246.645 52.9794C246.629 53.0551 246.644 53.1331 246.687 53.198C246.73 53.2634 246.795 53.3069 246.872 53.3213L247.349 53.4125L245.802 61.5252L246.083 61.5785L246.137 61.2969L246.083 61.5785Z" fill="#515151"/>
<path d="M233.014 114.668C232.317 118.326 228.786 120.726 225.13 120.028L193.729 114.032C190.072 113.335 187.673 109.802 188.371 106.144L204.686 23.4419C205.384 19.7839 208.913 17.3839 212.57 18.082L225.699 20.5893L225.703 20.6386C225.824 22.1128 226.546 23.1924 227.537 23.3816L228.107 23.4901C229.097 23.6794 230.166 22.9417 230.821 21.6161L230.843 21.5707L243.972 24.078C247.629 24.7755 250.027 28.3073 249.329 31.9658L233.014 114.668ZM245.007 23.6518L211.764 17.3047C207.89 16.5653 204.151 19.1076 203.412 22.9836L186.404 109.319C185.665 113.195 188.205 116.936 192.079 117.676L225.322 124.022C229.196 124.762 232.936 122.22 233.676 118.344L250.684 32.0089C251.423 28.1329 248.881 24.3912 245.007 23.6518Z" fill="#515151"/>
<path d="M233.014 114.668L232.733 114.614C232.143 117.708 229.436 119.862 226.401 119.862C226 119.862 225.593 119.824 225.184 119.746L193.783 113.751C190.69 113.161 188.537 110.452 188.537 107.415C188.537 107.015 188.574 106.607 188.652 106.198V106.2L204.967 23.4975V23.4963C205.557 20.4022 208.264 18.2483 211.3 18.2483C211.7 18.2483 212.107 18.2856 212.517 18.3636L225.646 20.8709L225.699 20.5892L225.413 20.6116L225.417 20.6615V20.6621C225.482 21.4399 225.703 22.1236 226.056 22.6514C226.406 23.178 226.899 23.552 227.483 23.6633L228.053 23.7722C228.174 23.7952 228.296 23.8067 228.418 23.8067C228.944 23.8061 229.459 23.5967 229.913 23.2388C230.368 22.8797 230.768 22.3697 231.078 21.7433L231.079 21.741L231.101 21.6957L230.843 21.5707L230.79 21.8523L243.918 24.3596C247.011 24.9493 249.163 27.6573 249.163 30.6935C249.163 31.095 249.126 31.5023 249.047 31.9119L249.048 31.9101L232.733 114.612L232.733 114.614L233.014 114.668L233.296 114.723L249.61 32.0214L249.611 32.0197C249.696 31.5746 249.736 31.1312 249.736 30.6935C249.736 27.3849 247.393 24.4394 244.025 23.7958L230.897 21.289C230.769 21.2649 230.642 21.3286 230.585 21.4456L230.563 21.491L230.564 21.4887C230.287 22.0502 229.934 22.4925 229.558 22.7879C229.182 23.0845 228.789 23.233 228.418 23.233C228.331 23.233 228.246 23.225 228.161 23.2084L227.591 23.0999C227.184 23.0219 226.82 22.7615 226.533 22.3324C226.246 21.9045 226.046 21.312 225.989 20.615V20.6162L225.985 20.5663C225.975 20.4378 225.879 20.3311 225.753 20.3076L212.624 17.8003C212.18 17.7154 211.737 17.6747 211.3 17.6747C207.993 17.6747 205.048 20.0196 204.404 23.3885L204.405 23.3867L188.09 106.089L188.089 106.09C188.005 106.535 187.964 106.978 187.964 107.415C187.964 110.724 190.308 113.671 193.675 114.314L225.077 120.31C225.521 120.395 225.964 120.435 226.401 120.435C229.708 120.435 232.653 118.091 233.296 114.722L233.296 114.723L233.014 114.668ZM245.007 23.6518L245.061 23.3701L211.818 17.023C211.348 16.9335 210.879 16.89 210.417 16.89C206.922 16.89 203.81 19.3686 203.13 22.9296V22.9279L186.122 109.263L186.122 109.265C186.032 109.735 185.989 110.204 185.989 110.666C185.989 114.163 188.466 117.277 192.025 117.957L225.269 124.304C225.738 124.394 226.207 124.437 226.669 124.437C230.165 124.437 233.277 121.958 233.957 118.398L233.957 118.4L250.965 32.0639L250.965 32.0627C251.055 31.5924 251.098 31.1237 251.098 30.6619C251.098 27.1646 248.62 24.0504 245.061 23.3701L245.007 23.6518L244.954 23.9334C248.238 24.5598 250.525 27.4365 250.525 30.6619C250.525 31.0882 250.485 31.5207 250.402 31.9549V31.9532L233.394 118.288V118.29C232.768 121.576 229.893 123.863 226.669 123.863C226.243 123.863 225.811 123.824 225.376 123.741L192.133 117.394C188.848 116.767 186.563 113.891 186.563 110.666C186.563 110.239 186.602 109.807 186.685 109.373L186.685 109.374L203.693 23.0386L203.693 23.0374C204.319 19.7512 207.194 17.4636 210.417 17.4636C210.843 17.4636 211.276 17.5037 211.71 17.5869L244.954 23.9334L245.007 23.6518Z" fill="#515151"/>
<path d="M228.696 21.49C228.762 21.1469 228.536 20.8148 228.193 20.7494C227.849 20.684 227.519 20.9089 227.453 21.2531C227.387 21.5961 227.613 21.9282 227.956 21.9936C228.299 22.059 228.63 21.8336 228.696 21.49Z" fill="#A8A8AD"/>
<path d="M209.402 20.2763C209.281 20.9056 208.532 20.9974 208.437 21.4769L208.432 21.5096L209.117 21.6404L209.077 21.8521L208.162 21.6777L208.195 21.4987C208.324 20.8247 209.055 20.8281 209.168 20.2413C209.209 20.0262 209.158 19.8995 208.986 19.8668C208.816 19.8341 208.718 19.9419 208.683 20.1266L208.647 20.3119L208.43 20.27L208.462 20.1002C208.523 19.7813 208.71 19.5971 209.031 19.6585C209.356 19.721 209.462 19.9574 209.402 20.2763Z" fill="#515151"/>
<path d="M210.544 20.4913L210.534 20.5452C210.493 20.7598 210.378 20.8951 210.199 20.9261C210.362 21.0254 210.409 21.198 210.369 21.4068L210.339 21.5674C210.278 21.8869 210.089 22.067 209.767 22.0057C209.449 21.9449 209.34 21.7074 209.4 21.3885L209.428 21.2451L209.645 21.2869L209.615 21.4447C209.579 21.6328 209.635 21.7613 209.802 21.7928C209.971 21.825 210.067 21.7292 210.107 21.5175L210.138 21.3563C210.177 21.1504 210.11 21.0357 209.935 20.9961L209.81 20.9726L209.85 20.7632L209.987 20.7896C210.143 20.8137 210.257 20.7334 210.292 20.5516L210.31 20.4557C210.351 20.2412 210.297 20.1168 210.128 20.0846C209.961 20.0525 209.861 20.154 209.825 20.3416L209.805 20.4489L209.587 20.4076L209.606 20.3123C209.666 19.9934 209.854 19.8156 210.174 19.8764C210.495 19.9384 210.606 20.1724 210.544 20.4913Z" fill="#515151"/>
<path d="M210.748 21.8715L210.692 22.1606L210.469 22.1182L210.524 21.8291L210.748 21.8715ZM210.964 20.7352L210.909 21.0249L210.685 20.9824L210.741 20.6928L210.964 20.7352Z" fill="#515151"/>
<path d="M211.399 21.0134C211.486 20.9124 211.602 20.8728 211.742 20.8998C212.01 20.9509 212.092 21.1706 212.035 21.4683L211.957 21.8772C211.896 22.1962 211.705 22.3757 211.386 22.3149C211.067 22.2541 210.958 22.0166 211.019 21.6977L211.045 21.5572L211.263 21.599L211.233 21.7539C211.197 21.9421 211.253 22.07 211.42 22.1021C211.587 22.1342 211.686 22.035 211.722 21.8474L211.799 21.4419C211.835 21.2543 211.779 21.1258 211.612 21.0937C211.485 21.0696 211.384 21.1247 211.334 21.2727L211.325 21.3203L211.107 21.279L211.385 20.13L212.208 20.2872L212.168 20.4954L211.555 20.3784L211.399 21.0134Z" fill="#515151"/>
<path d="M212.456 21.6623L212.396 21.9755C212.36 22.1636 212.416 22.2916 212.586 22.3237C212.753 22.3558 212.855 22.2583 212.891 22.0702L212.95 21.757C212.986 21.5694 212.927 21.4403 212.761 21.4082C212.59 21.3767 212.492 21.4747 212.456 21.6623ZM213.323 21.0181L213.316 21.0571L213.098 21.0158L213.109 20.9619C213.144 20.7743 213.088 20.6493 212.918 20.6166C212.742 20.5833 212.642 20.682 212.6 20.9051L212.511 21.3732C212.595 21.2413 212.723 21.1822 212.89 21.2137C213.158 21.2648 213.241 21.4822 213.184 21.7834L213.123 22.0988C213.063 22.4184 212.864 22.5967 212.546 22.5354C212.224 22.4746 212.106 22.2354 212.166 21.9164L212.37 20.8518C212.433 20.5208 212.621 20.3436 212.951 20.4067C213.274 20.4681 213.384 20.6998 213.323 21.0181Z" fill="#515151"/>
<path d="M235.799 26.9316L235.21 26.8192L235.491 25.3462L236.08 25.4586L235.799 26.9316Z" fill="#515151"/>
<path d="M236.584 27.082L235.996 26.9696L236.333 25.2006L236.922 25.3136L236.584 27.082Z" fill="#515151"/>
<path d="M237.369 27.2319L236.781 27.1195L237.157 25.1417L237.746 25.2541L237.369 27.2319Z" fill="#515151"/>
<path d="M238.155 27.3823L237.566 27.2699L238.013 24.9272L238.602 25.0397L238.155 27.3823Z" fill="#515151"/>
<path d="M242.151 27.8994L245.293 28.4989L245.63 26.731L242.489 26.1315L242.151 27.8994ZM245.452 28.7329L241.918 28.0583L242.33 25.8975L245.864 26.5721L245.452 28.7329Z" fill="#515151"/>
<path d="M244.352 28.0981L242.487 27.7419L242.743 26.4014L244.608 26.7576L244.352 28.0981Z" fill="#515151"/>
<path d="M245.931 27.9688L245.486 27.8839L245.584 27.3745L246.028 27.4594L245.931 27.9688Z" fill="#515151"/>
<path d="M240.711 27.3408L240.647 27.3093C240.01 26.7443 239.459 27.0506 239.436 27.0638C239.371 27.101 239.29 27.0787 239.252 27.015C239.215 26.9508 239.236 26.8693 239.3 26.832C239.329 26.8142 240.037 26.4093 240.826 27.1085C240.881 27.1573 240.887 27.2422 240.837 27.2978L240.711 27.3408Z" fill="#515151"/>
<path d="M241.063 26.9478L240.998 26.9162C240.077 26.0988 239.264 26.564 239.255 26.5686C239.191 26.6065 239.109 26.5852 239.072 26.521C239.034 26.4573 239.055 26.3747 239.119 26.3369C239.129 26.3311 240.109 25.7695 241.177 26.7149C241.232 26.7636 241.237 26.8497 241.188 26.9047L241.063 26.9478Z" fill="#515151"/>
<path d="M241.402 26.48L241.338 26.4484C240.171 25.4136 239.153 25.9838 239.111 26.009C239.047 26.0463 238.965 26.0245 238.928 25.9609C238.89 25.8966 238.911 25.8146 238.975 25.7773C238.987 25.7698 240.197 25.0781 241.517 26.2477C241.572 26.2964 241.577 26.3819 241.528 26.437L241.402 26.48Z" fill="#515151"/>
<path d="M240.272 27.4863C240.237 27.6693 240.061 27.7892 239.877 27.7542C239.695 27.7192 239.575 27.5425 239.61 27.3595C239.645 27.1766 239.821 27.0567 240.004 27.0917C240.186 27.1266 240.307 27.3033 240.272 27.4863Z" fill="#515151"/>
<path d="M231.22 89.9046L200.106 83.9642C198.446 83.6475 197.357 82.0437 197.674 80.3831L202.657 54.2542C202.974 52.593 204.577 51.5032 206.237 51.8204L237.351 57.7608C239.011 58.0774 240.1 59.6812 239.783 61.3418L234.8 87.4713C234.483 89.1319 232.88 90.2218 231.22 89.9046Z" fill="white"/>
<path d="M231.219 89.9047L231.273 89.6231L200.16 83.6827C198.831 83.4297 197.905 82.2647 197.905 80.9603C197.905 80.7882 197.921 80.6132 197.955 80.4366L202.939 54.3077C203.192 52.9781 204.356 52.0522 205.66 52.0522C205.832 52.0522 206.007 52.0683 206.183 52.1021L237.297 58.0425C238.626 58.2955 239.551 59.4605 239.551 60.7649C239.551 60.937 239.535 61.1125 239.501 61.2886L234.518 87.4175C234.264 88.7472 233.101 89.673 231.796 89.673C231.624 89.673 231.449 89.6569 231.273 89.6231L231.219 89.9047L231.166 90.1863C231.377 90.2271 231.588 90.2466 231.796 90.2466C233.372 90.2466 234.774 89.1298 235.081 87.5248L240.064 61.3959C240.105 61.1842 240.124 60.9731 240.124 60.7649C240.124 59.1886 239.008 57.7861 237.405 57.4792L206.29 51.5388C206.079 51.4981 205.868 51.4786 205.66 51.4786C204.084 51.4786 202.682 52.596 202.376 54.2004L197.392 80.3293C197.352 80.541 197.332 80.7521 197.332 80.9603C197.332 82.5372 198.448 83.9391 200.052 84.2465L231.166 90.1863L231.219 89.9047Z" fill="#515151"/>
<path d="M211.987 47.9172L211.586 44.8529L212.106 44.9522L212.385 47.2942L213.512 45.2206L213.986 45.3113L212.481 48.0113L212.174 49.6226L211.679 49.5285L211.987 47.9172Z" fill="#515151"/>
<path d="M214.051 48.8831C213.973 49.2939 214.101 49.5646 214.46 49.6334C214.826 49.7034 215.038 49.4975 215.117 49.0868L215.57 46.7114C215.647 46.307 215.527 46.0305 215.161 45.9611C214.802 45.8923 214.581 46.1034 214.504 46.5078L214.051 48.8831ZM214.005 46.439C214.136 45.7523 214.561 45.3737 215.248 45.5051C215.941 45.6376 216.196 46.1453 216.065 46.8325L215.622 49.1568C215.492 49.8371 215.066 50.2214 214.373 50.0895C213.687 49.9581 213.432 49.4441 213.563 48.7633L214.005 46.439Z" fill="#515151"/>
<path d="M216.568 49.364C216.491 49.7684 216.605 50.0431 216.971 50.1131C217.33 50.1814 217.537 49.968 217.614 49.5636L218.269 46.1288L218.738 46.2182L218.088 49.6278C217.958 50.3081 217.557 50.7034 216.864 50.5714C216.177 50.4401 215.95 49.9249 216.079 49.2441L216.729 45.8351L217.224 45.9291L216.568 49.364Z" fill="#515151"/>
<path d="M219.702 48.5981C220.1 48.6744 220.361 48.5912 220.455 48.1031L220.537 47.6729C220.614 47.2685 220.507 47.0281 220.135 46.957L219.647 46.8641L219.329 48.527L219.702 48.5981ZM220.234 46.5039C220.941 46.6387 221.167 47.0545 221.04 47.7222L220.97 48.0882C220.876 48.5826 220.643 48.858 220.235 48.9062C220.622 49.1064 220.713 49.47 220.621 49.9513L220.488 50.6511C220.449 50.8501 220.42 51.0372 220.474 51.2075L219.968 51.1111C219.934 50.9712 219.931 50.8507 219.988 50.549L220.123 49.8429C220.22 49.3358 220.013 49.1299 219.595 49.0501L219.243 48.983L218.877 50.9024L218.376 50.8066L219.233 46.3128L220.234 46.5039Z" fill="#515151"/>
<path d="M224.533 48.4491L224.457 48.8535L223.982 48.7629L224.064 48.3327C224.141 47.9283 224.027 47.6535 223.661 47.5841C223.302 47.5147 223.088 47.7275 223.011 48.1319L222.558 50.5073C222.481 50.9117 222.601 51.1876 222.961 51.2558C223.326 51.3258 223.533 51.1124 223.611 50.708L223.722 50.1241L224.197 50.2142L224.091 50.7734C223.96 51.4537 223.554 51.8421 222.861 51.7096C222.174 51.5782 221.939 51.0677 222.069 50.3874L222.512 48.0631C222.642 47.3828 223.049 46.9944 223.735 47.1252C224.428 47.2577 224.663 47.7688 224.533 48.4491Z" fill="#515151"/>
<path d="M224.998 50.9734C224.919 51.3841 225.048 51.6548 225.407 51.7231C225.773 51.7931 225.985 51.5871 226.063 51.1764L226.516 48.8011C226.594 48.3967 226.473 48.1208 226.107 48.0514C225.748 47.9825 225.528 48.1936 225.451 48.598L224.998 50.9734ZM224.952 48.5292C225.083 47.842 225.508 47.464 226.194 47.5953C226.888 47.7278 227.143 48.2355 227.013 48.9221L226.569 51.2464C226.439 51.9273 226.013 52.3116 225.32 52.1791C224.633 52.0483 224.379 51.5338 224.509 50.8535L224.952 48.5292Z" fill="#515151"/>
<path d="M227.971 52.1665C228.331 52.2347 228.547 52.0431 228.625 51.6324L229.066 49.3213C229.144 48.9106 229.014 48.6525 228.648 48.5825L228.109 48.4798L227.425 52.0621L227.971 52.1665ZM228.748 48.1293C229.448 48.263 229.687 48.7477 229.555 49.4412L229.123 51.7076C228.992 52.3942 228.59 52.7567 227.89 52.6236L226.838 52.4223L227.696 47.9286L228.748 48.1293Z" fill="#515151"/>
<path d="M231.456 50.7087L231.37 51.1579L230.272 50.9491L229.968 52.5472L231.316 52.8047L231.228 53.2607L229.38 52.9074L230.238 48.4137L232.085 48.7665L231.999 49.2219L230.651 48.9649L230.358 50.4994L231.456 50.7087Z" fill="#515151"/>
<path d="M208.533 66.1269C208.887 65.7174 209.358 65.5562 209.927 65.6646C211.016 65.8728 211.347 66.7648 211.117 67.9757L210.8 69.6357C210.553 70.9315 209.774 71.6618 208.478 71.414C207.183 71.1673 206.739 70.2036 206.987 68.9078L207.095 68.3382L207.979 68.5069L207.859 69.1367C207.713 69.9002 207.94 70.4205 208.618 70.5501C209.296 70.6792 209.698 70.2788 209.844 69.5159L210.159 67.8684C210.304 67.1055 210.078 66.5852 209.399 66.4556C208.879 66.3564 208.473 66.5801 208.269 67.1818L208.232 67.3751L207.349 67.2065L208.478 62.5384L211.82 63.1762L211.657 64.024L209.163 63.5479L208.533 66.1269Z" fill="#515151"/>
<path d="M212.823 68.7666L212.58 70.0388C212.435 70.8017 212.662 71.322 213.352 71.454C214.03 71.5836 214.445 71.1855 214.591 70.422L214.833 69.1503C214.978 68.3874 214.739 67.8648 214.061 67.7352C213.371 67.6033 212.969 68.0036 212.823 68.7666ZM216.346 66.1503L216.316 66.308L215.432 66.1388L215.474 65.9208C215.62 65.1579 215.39 64.6497 214.7 64.5178C213.986 64.3812 213.583 64.7816 213.41 65.6897L213.047 67.5918C213.388 67.0543 213.91 66.8151 214.589 66.9447C215.678 67.1524 216.012 68.0323 215.779 69.2558L215.534 70.5402C215.287 71.836 214.483 72.561 213.188 72.3138C211.88 72.0643 211.4 71.0937 211.648 69.7979L212.472 65.4734C212.729 64.1289 213.494 63.4084 214.838 63.6654C216.145 63.9149 216.594 64.8539 216.346 66.1503Z" fill="#515151"/>
<path d="M217.533 69.666L217.29 70.9377C217.145 71.7012 217.371 72.2215 218.062 72.3534C218.74 72.4825 219.155 72.0849 219.301 71.3215L219.543 70.0498C219.688 69.2868 219.449 68.7637 218.771 68.6346C218.081 68.5027 217.678 68.9031 217.533 69.666ZM221.056 67.0497L221.026 67.2075L220.142 67.0383L220.184 66.8203C220.329 66.0574 220.1 65.5486 219.41 65.4166C218.696 65.2807 218.293 65.6805 218.12 66.5891L217.757 68.4912C218.098 67.9532 218.62 67.714 219.299 67.8436C220.388 68.0518 220.722 68.9312 220.489 70.1553L220.244 71.4391C219.997 72.7349 219.193 73.4605 217.898 73.2132C216.59 72.9637 216.11 71.9932 216.358 70.6968L217.182 66.3729C217.438 65.0283 218.203 64.3078 219.548 64.5648C220.854 64.8143 221.304 65.7534 221.056 67.0497Z" fill="#515151"/>
<path d="M222.819 67.3482L222.576 68.6199C222.431 69.3828 222.67 69.906 223.347 70.0351C224.038 70.167 224.44 69.7666 224.586 69.0037L224.828 67.732C224.976 66.9564 224.747 66.4482 224.057 66.3163C223.379 66.1867 222.967 66.5727 222.819 67.3482ZM225.764 67.9603L224.939 72.2848C224.683 73.6293 223.915 74.3619 222.559 74.1026C221.264 73.8554 220.806 72.902 221.053 71.6056L221.083 71.4484L221.967 71.6165L221.925 71.8351C221.78 72.598 222.021 73.1091 222.699 73.2381C223.426 73.3769 223.828 72.9766 223.999 72.0806L224.362 70.1785C224.021 70.7159 223.501 70.9431 222.823 70.814C221.733 70.6058 221.397 69.7379 221.63 68.5144L221.878 67.2186C222.124 65.9222 222.913 65.2069 224.221 65.4564C225.529 65.706 226.011 66.6645 225.764 67.9603Z" fill="#515151"/>
<path d="M226.797 71.9493L226.66 72.664C226.494 73.5359 226.803 74.0218 227.481 74.1514C228.159 74.2811 228.613 73.9403 228.791 73.0707L228.928 72.356C229.084 71.5323 228.798 71.0636 228.095 70.9294C227.394 70.7952 226.954 71.1256 226.797 71.9493ZM227.497 68.2787L227.418 68.6906C227.261 69.5143 227.591 69.9543 228.258 70.081C228.923 70.2084 229.392 69.921 229.549 69.0973L229.627 68.686C229.794 67.8135 229.471 67.3374 228.805 67.2101C228.139 67.0833 227.663 67.4068 227.497 68.2787ZM230.564 68.8391L230.513 69.1059C230.35 69.9657 229.927 70.5382 229.212 70.6656C229.861 71.078 230.001 71.795 229.839 72.6428L229.719 73.2726C229.469 74.5811 228.637 75.2631 227.317 75.0113C225.997 74.7595 225.474 73.8181 225.724 72.5103L225.843 71.8799C226.007 71.02 226.397 70.4292 227.166 70.2749C226.527 69.8762 226.354 69.2028 226.518 68.343L226.569 68.0768C226.819 66.7684 227.659 66.1127 228.967 66.3623C230.274 66.6118 230.814 67.5313 230.564 68.8391Z" fill="#515151"/>
<path d="M199.968 91.6328L229.24 97.2222L229.347 96.6583L200.075 91.0695" fill="#515151"/>
<path d="M198.877 97.3472L228.15 102.937L228.257 102.373L198.985 96.7839" fill="#515151"/>
<path d="M247.532 70.106L254.613 69.0161L254.525 68.4493L247.445 69.5392" fill="#515151"/>
<path d="M246.321 78.2724L250.133 79.3623L250.291 78.8111L246.478 77.7212" fill="#515151"/>
<path d="M244.057 85.3172L251.138 90.2222L251.465 89.7507L244.383 84.8456" fill="#515151"/>
<path d="M179.613 83.4313C180.38 83.4313 181.001 82.8101 181.001 82.0431V70.576C181.001 69.809 180.38 69.1878 179.613 69.1878H179.551V64.7021C179.551 61.6459 177.075 59.169 174.021 59.169H53.0475C49.9932 59.169 47.5171 61.6459 47.5171 64.7021V148.316C47.5171 151.372 49.9932 153.849 53.0475 153.849H174.021C177.075 153.849 179.551 151.372 179.551 148.316V118.317H179.613C180.38 118.317 181.001 117.696 181.001 116.929V105.461C181.001 104.695 180.38 104.074 179.613 104.074H179.551V102.625H179.613C180.38 102.625 181.001 102.003 181.001 101.236V89.7692C181.001 89.0023 180.38 88.3805 179.613 88.3805H179.551V83.4313H179.613Z" fill="#515151"/>
<path d="M174.619 150.16H52.4487V62.8573H174.619V150.16Z" fill="#F4A72A"/>
<path d="M174.619 150.16V149.873H52.7354V63.1444H174.332V150.16H174.619V149.873V150.16H174.906V62.5708H52.1621V150.447H174.906V150.16H174.619Z" fill="#515151"/>
<path d="M147.9 128.985H79.5771V74.081H147.9V128.985Z" fill="#DDDEDB"/>
<path d="M147.9 128.985V128.698H79.8634V74.3676H147.613V128.985H147.9V128.698V128.985H148.186V73.794H79.29V129.271H148.186V128.985H147.9Z" fill="#515151"/>
<path d="M105.282 113.768V114.112H104.444V115.333H105.474V115.682H104.062V112.247H105.474V112.596H104.444V113.768H105.282Z" fill="#010101" fill-opacity="0.5"/>
<path d="M106.165 115.682H105.821V112.247H106.307L107.101 114.73V112.247H107.439V115.682H107.042L106.165 112.905V115.682Z" fill="#010101" fill-opacity="0.5"/>
<path d="M108.326 115.682V112.596H107.694V112.247H109.337V112.596H108.704V115.682H108.326Z" fill="#010101" fill-opacity="0.5"/>
<path d="M110.817 113.768V114.112H109.979V115.333H111.008V115.682H109.596V112.247H111.008V112.596H109.979V113.768H110.817Z" fill="#010101" fill-opacity="0.5"/>
<path d="M112.028 113.866C112.331 113.866 112.513 113.768 112.513 113.396V113.067C112.513 112.758 112.4 112.596 112.116 112.596H111.743V113.866H112.028ZM112.126 112.247C112.665 112.247 112.89 112.522 112.89 113.033V113.312C112.89 113.69 112.758 113.925 112.464 114.019C112.778 114.112 112.895 114.367 112.895 114.735V115.27C112.895 115.422 112.9 115.564 112.964 115.682H112.577C112.533 115.584 112.513 115.495 112.513 115.265V114.725C112.513 114.338 112.331 114.215 112.013 114.215H111.743V115.682H111.361V112.247H112.126Z" fill="#010101" fill-opacity="0.5"/>
<path d="M115.568 113.077V113.385H115.205V113.057C115.205 112.747 115.082 112.561 114.802 112.561C114.527 112.561 114.4 112.747 114.4 113.057V114.872C114.4 115.181 114.527 115.368 114.802 115.368C115.082 115.368 115.205 115.181 115.205 114.872V114.425H115.568V114.853C115.568 115.372 115.322 115.716 114.792 115.716C114.268 115.716 114.023 115.372 114.023 114.853V113.077C114.023 112.556 114.268 112.213 114.792 112.213C115.322 112.213 115.568 112.556 115.568 113.077Z" fill="#010101" fill-opacity="0.5"/>
<path d="M116.263 114.872C116.263 115.186 116.395 115.368 116.67 115.368C116.949 115.368 117.077 115.186 117.077 114.872V113.057C117.077 112.747 116.949 112.561 116.67 112.561C116.395 112.561 116.263 112.747 116.263 113.057V114.872ZM115.886 113.077C115.886 112.551 116.145 112.213 116.67 112.213C117.2 112.213 117.46 112.551 117.46 113.077V114.853C117.46 115.372 117.2 115.716 116.67 115.716C116.145 115.716 115.886 115.372 115.886 114.853V113.077Z" fill="#010101" fill-opacity="0.5"/>
<path d="M118.621 115.333C118.896 115.333 119.028 115.162 119.028 114.848V113.081C119.028 112.768 118.896 112.596 118.616 112.596H118.204V115.333H118.621ZM118.626 112.247C119.161 112.247 119.406 112.571 119.406 113.101V114.833C119.406 115.358 119.161 115.682 118.626 115.682H117.821V112.247H118.626Z" fill="#010101" fill-opacity="0.5"/>
<path d="M120.984 113.768V114.112H120.146V115.333H121.175V115.682H119.763V112.247H121.175V112.596H120.146V113.768H120.984Z" fill="#010101" fill-opacity="0.5"/>
<path d="M142.507 98.7241H84.8521V92.2153H142.507V98.7241Z" fill="white"/>
<path d="M142.507 98.7239V98.4371H85.1388V92.5019H142.22V98.7239H142.507V98.4371V98.7239H142.794V91.9283H84.5654V99.0107H142.794V98.7239H142.507Z" fill="#515151"/>
<path d="M142.507 109.049H84.8521V102.54H142.507V109.049Z" fill="white"/>
<path d="M142.507 109.049V108.762H85.1388V102.827H142.22V109.049H142.507V108.762V109.049H142.794V102.253H84.5654V109.335H142.794V109.049H142.507Z" fill="#515151"/>
<path d="M121.825 117.225H116.381V123.733H121.825V117.225Z" fill="white"/>
<path d="M121.825 117.224V116.938H116.095V124.02H122.112V116.938H121.825V117.224H121.539V123.446H116.668V117.511H121.825V117.224H121.539H121.825Z" fill="#515151"/>
<path d="M114.897 117.225H109.453V123.733H114.897V117.225Z" fill="white"/>
<path d="M114.897 117.224V116.938H109.167V124.02H115.184V116.938H114.897V117.224H114.61V123.446H109.74V117.511H114.897V117.224H114.61H114.897Z" fill="#515151"/>
<path d="M102.525 123.733H107.969V117.225H102.525V123.733Z" fill="white"/>
<path d="M102.525 123.733V124.02H108.255V116.938H102.238V124.02H102.525V123.733H102.812V117.511H107.682V123.446H102.525V123.733H102.812H102.525Z" fill="#515151"/>
<path d="M101.041 117.225H95.8447V123.733H101.041V117.225Z" fill="white"/>
<path d="M101.041 117.224V116.938H95.5581V124.02H101.328V116.938H101.041V117.224H100.754V123.446H96.1314V117.511H101.041V117.224H100.754H101.041Z" fill="#515151"/>
<path d="M123.31 117.225V123.733H128.951V117.225H123.31Z" fill="white"/>
<path d="M123.31 117.224H123.023V124.02H129.238V116.938H123.023V117.224H123.31V117.511H128.665V123.446H123.596V117.224H123.31V117.511V117.224Z" fill="#515151"/>
<path d="M115.087 81.5321H110.531V80.2822C110.531 79.026 111.553 78.0032 112.809 78.0032C114.065 78.0032 115.087 79.026 115.087 80.2822V81.5321ZM113.031 85.3346V86.5886H112.321V85.3346C111.975 85.1941 111.729 84.8557 111.729 84.4581C111.729 83.9356 112.153 83.5117 112.676 83.5117C113.198 83.5117 113.622 83.9356 113.622 84.4581C113.622 84.8551 113.377 85.1941 113.031 85.3346ZM116.487 81.5321V80.2822C116.487 78.2539 114.837 76.603 112.809 76.603C110.782 76.603 109.132 78.2539 109.132 80.2822V81.5321H109.063V88.4517H116.556V81.5321H116.487Z" fill="#515151"/>
<path d="M104.75 96.2609C104.75 96.5695 104.873 96.7565 105.152 96.7565C105.427 96.7565 105.55 96.5695 105.55 96.2609V93.636H105.907V96.2414C105.907 96.7611 105.667 97.1099 105.137 97.1099C104.613 97.1099 104.373 96.7611 104.373 96.2414V93.636H104.75V96.2609Z" fill="#010101" fill-opacity="0.5"/>
<path d="M107.77 94.4606V94.5541H107.407V94.4411C107.407 94.1319 107.289 93.9507 107.015 93.9507C106.74 93.9507 106.623 94.1319 106.623 94.4359C106.623 95.2069 107.775 95.2797 107.775 96.2463C107.775 96.7665 107.525 97.105 107 97.105C106.475 97.105 106.23 96.7665 106.23 96.2463V96.0501H106.588V96.2663C106.588 96.575 106.716 96.7568 106.99 96.7568C107.265 96.7568 107.393 96.575 107.393 96.2663C107.393 95.5006 106.245 95.4271 106.245 94.4606C106.245 93.9306 106.49 93.6025 107.005 93.6025C107.525 93.6025 107.77 93.9403 107.77 94.4606Z" fill="#010101" fill-opacity="0.5"/>
<path d="M109.329 95.1572V95.5002H108.491V96.7221H109.521V97.0708H108.108V93.636H109.521V93.9847H108.491V95.1572H109.329Z" fill="#010101" fill-opacity="0.5"/>
<path d="M110.54 95.2547C110.844 95.2547 111.025 95.1572 111.025 94.7844V94.4551C111.025 94.1459 110.913 93.9847 110.628 93.9847H110.256V95.2547H110.54ZM110.638 93.636C111.177 93.636 111.403 93.9107 111.403 94.4213V94.7006C111.403 95.0781 111.27 95.3138 110.976 95.4073C111.29 95.5002 111.407 95.7555 111.407 96.1238V96.6584C111.407 96.8104 111.413 96.9526 111.477 97.0708H111.089C111.045 96.9721 111.025 96.8838 111.025 96.6532V96.114C111.025 95.7262 110.844 95.6035 110.525 95.6035H110.256V97.0708H109.873V93.636H110.638Z" fill="#010101" fill-opacity="0.5"/>
<path d="M112.903 97.0708H112.559V93.636H113.044L113.839 96.1186V93.636H114.178V97.0708H113.78L112.903 94.2933V97.0708Z" fill="#010101" fill-opacity="0.5"/>
<path d="M115.006 96.0498H115.77L115.383 94.0679L115.006 96.0498ZM114.956 96.3785L114.824 97.0708H114.471L115.128 93.636H115.683L116.339 97.0708H115.957L115.824 96.3785H114.956Z" fill="#010101" fill-opacity="0.5"/>
<path d="M117.903 97.0656H117.535L116.966 94.3329V97.0708H116.633V93.636H117.168L117.731 96.3785L118.276 93.636H118.81V97.0708H118.447V94.3083L117.903 97.0656Z" fill="#010101" fill-opacity="0.5"/>
<path d="M120.422 95.1572V95.5002H119.584V96.7221H120.614V97.0708H119.202V93.636H120.614V93.9847H119.584V95.1572H120.422Z" fill="#010101" fill-opacity="0.5"/>
<path d="M105.275 105.467L105.795 106.042L105.545 106.228L105.158 105.546L104.775 106.228L104.525 106.042L105.04 105.467L104.28 105.311L104.373 105.011L105.089 105.325L105 104.55H105.314L105.231 105.325L105.947 105.017L106.04 105.315L105.275 105.467Z" fill="#010101" fill-opacity="0.5"/>
<path d="M107.211 105.467L107.731 106.042L107.481 106.228L107.094 105.546L106.711 106.228L106.461 106.042L106.975 105.467L106.216 105.311L106.309 105.011L107.025 105.325L106.937 104.55H107.25L107.167 105.325L107.883 105.017L107.976 105.315L107.211 105.467Z" fill="#010101" fill-opacity="0.5"/>
<path d="M109.148 105.467L109.667 106.042L109.417 106.228L109.03 105.546L108.647 106.228L108.397 106.042L108.912 105.467L108.152 105.311L108.245 105.011L108.961 105.325L108.873 104.55H109.187L109.103 105.325L109.819 105.017L109.913 105.315L109.148 105.467Z" fill="#010101" fill-opacity="0.5"/>
<path d="M111.084 105.467L111.603 106.042L111.353 106.228L110.966 105.546L110.583 106.228L110.333 106.042L110.848 105.467L110.088 105.311L110.181 105.011L110.897 105.325L110.809 104.55H111.123L111.04 105.325L111.755 105.017L111.849 105.315L111.084 105.467Z" fill="#010101" fill-opacity="0.5"/>
<path d="M113.02 105.467L113.54 106.042L113.29 106.228L112.903 105.546L112.52 106.228L112.27 106.042L112.785 105.467L112.025 105.311L112.118 105.011L112.834 105.325L112.746 104.55H113.059L112.976 105.325L113.692 105.017L113.785 105.315L113.02 105.467Z" fill="#010101" fill-opacity="0.5"/>
<path d="M114.956 105.467L115.476 106.042L115.226 106.228L114.839 105.546L114.456 106.228L114.206 106.042L114.721 105.467L113.961 105.311L114.054 105.011L114.77 105.325L114.682 104.55H114.996L114.913 105.325L115.628 105.017L115.721 105.315L114.956 105.467Z" fill="#010101" fill-opacity="0.5"/>
<path d="M116.893 105.467L117.413 106.042L117.163 106.228L116.775 105.546L116.392 106.228L116.142 106.042L116.658 105.467L115.897 105.311L115.99 105.011L116.706 105.325L116.618 104.55H116.932L116.849 105.325L117.565 105.017L117.658 105.315L116.893 105.467Z" fill="#010101" fill-opacity="0.5"/>
<path d="M118.829 105.467L119.349 106.042L119.099 106.228L118.712 105.546L118.329 106.228L118.079 106.042L118.594 105.467L117.834 105.311L117.927 105.011L118.643 105.325L118.555 104.55H118.869L118.785 105.325L119.501 105.017L119.594 105.315L118.829 105.467Z" fill="#010101" fill-opacity="0.5"/>
<path d="M156.192 227.353C156.192 246.396 139.772 261.834 119.517 261.834C99.262 261.834 82.8423 246.396 82.8423 227.353C82.8423 208.31 99.262 192.872 119.517 192.872C139.772 192.872 156.192 208.31 156.192 227.353Z" fill="#515151"/>
<path d="M155.423 225.557C155.423 244.6 139.002 260.038 118.748 260.038C98.493 260.038 82.0728 244.6 82.0728 225.557C82.0728 206.513 98.493 191.075 118.748 191.075C139.002 191.075 155.423 206.513 155.423 225.557Z" fill="white"/>
<path d="M155.423 225.556H155.136C155.136 234.994 151.068 243.538 144.484 249.729C137.9 255.919 128.802 259.751 118.748 259.751C108.693 259.751 99.595 255.919 93.0109 249.729C86.4267 243.538 82.3595 234.994 82.3595 225.556C82.3595 216.119 86.4267 207.575 93.0109 201.384C99.595 195.194 108.693 191.362 118.748 191.362C128.802 191.362 137.9 195.194 144.484 201.384C151.068 207.575 155.136 216.118 155.136 225.556H155.423H155.709C155.709 215.951 151.567 207.255 144.877 200.966C138.187 194.676 128.949 190.788 118.748 190.788C108.547 190.788 99.3078 194.676 92.6181 200.966C85.9285 207.255 81.7856 215.951 81.7861 225.556C81.7856 235.162 85.9285 243.858 92.6181 250.147C99.3078 256.437 108.547 260.324 118.748 260.324C128.949 260.324 138.187 256.437 144.877 250.147C151.567 243.858 155.709 235.162 155.709 225.556H155.423Z" fill="#515151"/>
<path d="M150.404 225.557C150.404 241.994 136.231 255.319 118.747 255.319C101.264 255.319 87.0908 241.994 87.0908 225.557C87.0908 209.119 101.264 195.794 118.747 195.794C136.231 195.794 150.404 209.119 150.404 225.557Z" fill="white"/>
<path d="M150.404 225.557H150.117C150.117 233.692 146.611 241.056 140.935 246.393C135.259 251.73 127.416 255.032 118.747 255.032C110.079 255.032 102.235 251.73 96.5595 246.393C90.8835 241.056 87.3781 233.692 87.3775 225.557C87.3781 217.422 90.8835 210.058 96.5595 204.72C102.235 199.385 110.079 196.081 118.747 196.081C127.416 196.081 135.259 199.385 140.935 204.72C146.611 210.058 150.117 217.422 150.117 225.557H150.404H150.691C150.691 217.254 147.11 209.737 141.328 204.303C135.547 198.867 127.562 195.507 118.747 195.507C109.932 195.507 101.948 198.867 96.1667 204.303C90.3852 209.737 86.8042 217.254 86.8042 225.557C86.8042 233.86 90.3852 241.376 96.1667 246.811C101.948 252.247 109.932 255.606 118.747 255.606C127.562 255.606 135.547 252.247 141.328 246.811C147.11 241.376 150.691 233.86 150.691 225.557H150.404Z" fill="#515151"/>
<path d="M127.517 205.517C114.812 205.517 104.512 218.466 104.512 234.44C104.512 244.745 108.802 253.785 115.256 258.907C116.322 258.997 117.399 259.05 118.49 259.05C131.844 259.05 143.493 252.21 149.71 242.057C150.237 239.629 150.523 237.077 150.523 234.44C150.523 218.466 140.223 205.517 127.517 205.517Z" fill="#515151"/>
<path d="M89.8003 224.984H104.784V221.398H89.8003V224.984Z" fill="white"/>
<path d="M89.7999 224.984V225.271H105.071V221.111H89.5132V225.271H89.7999V224.984H90.0865V221.685H104.497V224.697H89.7999V224.984H90.0865H89.7999Z" fill="#515151"/>
<path d="M146.881 222.995C146.881 234.86 136.651 244.479 124.031 244.479C111.411 244.479 101.18 234.86 101.18 222.995C101.18 211.13 111.411 201.512 124.031 201.512C136.651 201.512 146.881 211.13 146.881 222.995Z" fill="white"/>
<path d="M146.881 222.996H146.595C146.595 228.844 144.074 234.139 139.992 237.977C135.91 241.816 130.268 244.192 124.031 244.192C117.794 244.192 112.152 241.816 108.069 237.977C103.987 234.139 101.467 228.844 101.467 222.996C101.467 217.147 103.987 211.852 108.069 208.013C112.152 204.175 117.794 201.799 124.031 201.799C130.268 201.799 135.91 204.175 139.992 208.013C144.074 211.852 146.595 217.147 146.595 222.996H146.881H147.168C147.168 216.98 144.573 211.532 140.385 207.595C136.197 203.658 130.414 201.225 124.031 201.225C117.648 201.225 111.864 203.658 107.677 207.595C103.488 211.532 100.894 216.98 100.894 222.996C100.894 229.012 103.488 234.459 107.677 238.396C111.864 242.333 117.648 244.766 124.031 244.766C130.414 244.766 136.197 242.333 140.385 238.396C144.573 234.459 147.168 229.012 147.168 222.996H146.881Z" fill="#515151"/>
<path d="M143.107 222.995C143.107 232.9 134.567 240.93 124.031 240.93C113.495 240.93 104.955 232.9 104.955 222.995C104.955 213.09 113.495 205.06 124.031 205.06C134.567 205.06 143.107 213.09 143.107 222.995Z" fill="#515151"/>
<path d="M143.107 222.996H142.82C142.82 227.865 140.723 232.272 137.323 235.469C133.924 238.665 129.226 240.644 124.031 240.644C118.836 240.644 114.137 238.665 110.738 235.469C107.339 232.272 105.241 227.865 105.241 222.996C105.241 218.127 107.339 213.719 110.738 210.522C114.137 207.326 118.836 205.347 124.031 205.347C129.226 205.347 133.924 207.326 137.323 210.522C140.723 213.719 142.82 218.126 142.82 222.996H143.107H143.394C143.394 217.959 141.221 213.399 137.716 210.104C134.211 206.809 129.372 204.773 124.031 204.773C118.69 204.773 113.85 206.809 110.346 210.104C106.84 213.399 104.667 217.959 104.668 222.996C104.667 228.032 106.84 232.592 110.346 235.887C113.85 239.182 118.69 241.217 124.031 241.217C129.372 241.217 134.211 239.182 137.716 235.887C141.221 232.592 143.394 228.032 143.394 222.996H143.107Z" fill="#515151"/>
<path d="M116.304 206.44C116.178 206.13 116.031 205.825 115.861 205.529C114.918 203.886 114.501 202.014 114.501 200.053C114.501 198.092 114.919 196.046 115.639 194.07L115.1 193.874C114.361 195.902 113.928 198.011 113.928 200.053C113.928 202.094 114.362 204.071 115.364 205.814C115.52 206.087 115.656 206.368 115.773 206.655L116.304 206.44Z" fill="#515151"/>
<path d="M116.619 213.75C116.623 213.735 117.003 212.29 117.003 210.404C117.003 209.18 116.843 207.768 116.303 206.44L115.772 206.656C116.274 207.888 116.431 209.23 116.43 210.404C116.43 211.308 116.338 212.112 116.246 212.688C116.2 212.976 116.154 213.207 116.12 213.365C116.103 213.444 116.089 213.504 116.079 213.545L116.064 213.604L116.619 213.75Z" fill="white"/>
<path d="M123.399 205.529C122.455 203.886 122.039 202.014 122.039 200.052C122.039 198.092 122.456 196.045 123.176 194.07L122.637 193.874C121.899 195.901 121.465 198.011 121.465 200.052C121.465 202.094 121.9 204.071 122.902 205.814L123.399 205.529Z" fill="#515151"/>
<path d="M124.156 213.75C124.16 213.735 124.541 212.29 124.541 210.404C124.541 208.896 124.299 207.099 123.398 205.529L122.901 205.815C123.73 207.255 123.968 208.956 123.968 210.404C123.968 211.309 123.876 212.112 123.784 212.688C123.738 212.976 123.692 213.207 123.658 213.365C123.641 213.444 123.627 213.504 123.617 213.545L123.602 213.604L124.156 213.75Z" fill="white"/>
<path d="M131.186 206.003C131.109 205.843 131.026 205.685 130.936 205.529C129.993 203.886 129.576 202.015 129.576 200.053C129.576 198.093 129.994 196.046 130.714 194.071L130.175 193.874C129.436 195.902 129.003 198.011 129.002 200.053C129.002 202.094 129.437 204.071 130.439 205.815C130.522 205.959 130.599 206.105 130.669 206.252L131.186 206.003Z" fill="#515151"/>
<path d="M131.694 213.75C131.697 213.735 132.078 212.29 132.079 210.403C132.078 209.045 131.882 207.454 131.186 206.003L130.669 206.252C131.313 207.59 131.506 209.1 131.505 210.403C131.505 211.308 131.414 212.112 131.321 212.688C131.276 212.976 131.23 213.207 131.195 213.365C131.178 213.444 131.164 213.504 131.154 213.545L131.14 213.604L131.694 213.75Z" fill="white"/>
<path d="M203.902 191.008C203.902 191.008 203.305 191.041 202.237 191.156C201.224 187.718 198.188 177.539 196.195 172.28C193.772 165.89 190.468 156.856 188.267 153.111C186.064 149.365 186.285 147.162 182.1 143.637C177.916 140.112 174.172 141.654 174.172 141.654C174.172 141.654 173.511 139.01 169.327 137.688C165.143 136.366 159.417 139.01 159.417 139.01C159.417 139.01 158.536 137.467 154.352 137.908C150.168 138.349 148.626 142.095 148.626 142.095C148.626 142.095 140.038 124.909 136.735 123.587C133.431 122.265 130.128 125.57 131.449 128.654C132.771 131.739 142.681 148.925 144.002 152.89C145.323 156.856 148.186 163.467 148.186 163.467C148.186 163.467 138.717 156.636 135.854 155.975C132.991 155.314 128.807 154.873 126.384 157.517C123.961 160.161 129.688 160.822 134.312 165.009C138.937 169.195 146.424 178.89 149.948 185.059C153.472 191.228 160.959 192.329 164.262 195.855C166.587 198.336 169.892 201.798 171.647 203.631C170.541 204.783 169.988 205.55 169.988 205.55L177.256 223.396C177.256 223.396 178.797 220.972 184.963 216.125C191.129 211.278 210.288 205.329 210.288 205.329L203.902 191.008Z" fill="#515151"/>
<path d="M203.902 191.008L203.887 190.722C203.882 190.722 203.28 190.755 202.206 190.871L202.237 191.156L202.512 191.076C201.499 187.633 198.464 177.457 196.463 172.178C195.252 168.984 193.82 165.127 192.414 161.598C191.007 158.067 189.632 154.869 188.514 152.966C187.427 151.119 186.938 149.648 186.182 148.161C185.427 146.675 184.401 145.198 182.285 143.418C180.003 141.493 177.818 141.03 176.282 141.031C174.938 141.031 174.088 141.379 174.063 141.389L174.173 141.654L174.451 141.584C174.443 141.553 174.261 140.85 173.539 139.983C172.818 139.116 171.554 138.09 169.414 137.414C168.542 137.139 167.615 137.031 166.69 137.031C162.996 137.035 159.316 138.744 159.297 138.75L159.417 139.01L159.666 138.868C159.644 138.828 159.436 138.489 158.846 138.168C158.257 137.846 157.294 137.542 155.771 137.542C155.336 137.542 154.855 137.567 154.323 137.623C152.147 137.851 150.649 138.946 149.709 139.973C148.768 141.002 148.37 141.965 148.362 141.985L148.627 142.095L148.883 141.966C148.882 141.964 146.733 137.664 144.168 133.193C142.885 130.958 141.499 128.681 140.221 126.871C139.581 125.966 138.969 125.178 138.405 124.567C137.838 123.957 137.33 123.52 136.841 123.32C136.294 123.102 135.743 123.001 135.211 123.001C132.85 123.007 130.872 124.957 130.865 127.224C130.864 127.732 130.966 128.255 131.186 128.767C131.527 129.563 132.393 131.211 133.53 133.321C135.235 136.483 137.541 140.665 139.546 144.427C140.547 146.308 141.473 148.084 142.21 149.573C142.945 151.06 143.493 152.267 143.73 152.981C145.06 156.969 147.922 163.576 147.924 163.58L148.186 163.467L148.354 163.234C148.352 163.232 145.982 161.523 143.251 159.729C141.885 158.832 140.43 157.914 139.13 157.175C137.828 156.437 136.698 155.879 135.919 155.696C134.732 155.422 133.319 155.184 131.883 155.184C129.818 155.183 127.681 155.68 126.173 157.324C125.751 157.784 125.524 158.228 125.523 158.682C125.522 158.969 125.618 159.24 125.776 159.481C126.054 159.903 126.507 160.261 127.078 160.633C128.788 161.738 131.623 162.96 134.12 165.221C138.704 169.367 146.2 179.069 149.699 185.201C151.503 188.358 154.313 190.206 157.051 191.7C159.792 193.192 162.469 194.353 164.054 196.051C166.38 198.534 169.685 201.996 171.44 203.83L171.647 203.631L171.441 203.432C170.323 204.595 169.763 205.372 169.756 205.382L169.663 205.511L177.2 224.019L177.497 223.55L177.5 223.546C177.574 223.434 179.185 221.033 185.14 216.35C186.648 215.164 188.99 213.887 191.643 212.653C195.623 210.801 200.309 209.037 203.996 207.737C205.841 207.088 207.435 206.554 208.569 206.183C209.136 205.997 209.587 205.853 209.896 205.754C210.206 205.655 210.373 205.604 210.373 205.604L210.682 205.508L204.084 190.711L203.887 190.722L203.902 191.008L203.641 191.125L210.027 205.446L210.289 205.329L210.204 205.055C210.2 205.056 205.407 206.545 199.837 208.641C197.053 209.69 194.074 210.889 191.401 212.133C188.727 213.378 186.361 214.663 184.786 215.899C178.602 220.761 177.038 223.206 177.014 223.242L177.256 223.396L177.521 223.288L170.254 205.441L169.988 205.55L170.221 205.717L170.244 205.686C170.359 205.531 170.895 204.827 171.854 203.831L172.044 203.632L171.855 203.433C170.1 201.6 166.795 198.139 164.472 195.659C162.753 193.832 160.035 192.679 157.325 191.197C154.613 189.717 151.917 187.929 150.197 184.917C146.65 178.711 139.169 169.022 134.505 164.796C132.54 163.018 130.389 161.873 128.751 160.954C127.932 160.496 127.241 160.092 126.775 159.711C126.542 159.522 126.367 159.339 126.256 159.168C126.146 158.996 126.097 158.843 126.096 158.682C126.095 158.433 126.224 158.118 126.596 157.711C127.949 156.233 129.9 155.758 131.883 155.757C133.255 155.757 134.63 155.987 135.79 156.255C136.442 156.403 137.569 156.946 138.847 157.674C140.77 158.767 143.066 160.275 144.878 161.508C145.784 162.124 146.57 162.672 147.128 163.066C147.687 163.46 148.018 163.698 148.019 163.699L148.863 164.308L148.449 163.353C148.449 163.351 148.271 162.941 147.982 162.26C147.116 160.218 145.259 155.756 144.274 152.8C143.931 151.772 143.062 149.957 141.924 147.734C140.218 144.403 137.91 140.177 135.905 136.495C134.903 134.655 133.976 132.95 133.238 131.562C132.502 130.176 131.952 129.1 131.713 128.541C131.523 128.099 131.438 127.656 131.438 127.224C131.437 126.263 131.866 125.35 132.556 124.676C133.246 124.002 134.192 123.574 135.211 123.575C135.672 123.575 136.148 123.661 136.628 123.853C136.966 123.984 137.449 124.374 137.984 124.956C139.873 126.998 142.487 131.332 144.606 135.133C145.668 137.036 146.609 138.809 147.284 140.106C147.623 140.755 147.894 141.284 148.081 141.652C148.268 142.019 148.37 142.222 148.37 142.223L148.652 142.787L148.891 142.204L148.906 142.169C148.989 141.984 149.422 141.078 150.302 140.181C151.183 139.282 152.499 138.392 154.383 138.193C154.896 138.139 155.357 138.116 155.771 138.116C157.22 138.116 158.08 138.403 158.571 138.671C158.817 138.806 158.971 138.936 159.062 139.027L159.154 139.132L159.17 139.154L159.171 139.156L159.303 139.075L159.168 139.152L159.171 139.156L159.303 139.075L159.168 139.152L159.299 139.381L159.538 139.27C159.538 139.27 159.59 139.246 159.695 139.2C160.427 138.883 163.609 137.602 166.69 137.605C167.57 137.605 168.44 137.708 169.241 137.961C171.285 138.608 172.444 139.565 173.099 140.35C173.426 140.743 173.627 141.094 173.745 141.343C173.804 141.467 173.842 141.567 173.865 141.633L173.889 141.706L173.894 141.722L173.895 141.723L173.975 142.046L174.282 141.919L174.286 141.917C174.357 141.89 175.115 141.604 176.282 141.605C177.707 141.607 179.735 142.021 181.916 143.856C183.984 145.601 184.94 146.988 185.671 148.421C186.402 149.854 186.904 151.357 188.02 153.256C189.104 155.099 190.48 158.29 191.882 161.81C193.284 165.331 194.715 169.185 195.927 172.381C197.913 177.62 200.951 187.802 201.962 191.237L202.03 191.467L202.268 191.442C202.799 191.384 203.213 191.347 203.493 191.325C203.773 191.302 203.918 191.295 203.918 191.294L203.902 191.008L203.641 191.125L203.902 191.008Z" fill="#515151"/>
<path d="M172.58 200.279C172.58 200.279 167.295 194.771 163.992 191.246C160.688 187.72 153.2 186.619 149.677 180.45C146.154 174.28 138.666 164.586 134.041 160.399C129.417 156.213 123.691 155.552 126.113 152.908C128.536 150.264 132.72 150.705 135.583 151.366C138.446 152.027 147.915 158.857 147.915 158.857C147.915 158.857 145.053 152.247 143.731 148.281C142.41 144.316 132.5 127.13 131.178 124.045C129.857 120.96 133.16 117.656 136.464 118.977C139.767 120.299 148.356 137.486 148.356 137.486C148.356 137.486 149.897 133.739 154.082 133.299C158.265 132.858 159.146 134.401 159.146 134.401C159.146 134.401 164.872 131.756 169.056 133.078C173.241 134.401 173.901 137.044 173.901 137.044C173.901 137.044 177.645 135.503 181.829 139.027C186.013 142.553 185.793 144.756 187.995 148.502C190.198 152.247 193.501 161.281 195.923 167.671C198.346 174.059 202.31 187.72 202.31 187.72L173.901 203.143L172.58 200.279Z" fill="white"/>
<path d="M172.58 200.279L172.787 200.081C172.785 200.08 172.456 199.737 171.909 199.165C170.268 197.451 166.676 193.692 164.201 191.05C162.481 189.223 159.763 188.07 157.054 186.588C154.341 185.108 151.645 183.32 149.925 180.308C146.378 174.102 138.898 164.413 134.233 160.187C132.268 158.409 130.118 157.264 128.48 156.345C127.661 155.887 126.97 155.483 126.504 155.102C126.271 154.913 126.096 154.73 125.985 154.559C125.874 154.387 125.825 154.234 125.825 154.073C125.824 153.824 125.953 153.509 126.325 153.102C127.677 151.624 129.628 151.149 131.611 151.148C132.984 151.148 134.359 151.378 135.519 151.646C136.17 151.793 137.298 152.337 138.576 153.065C140.499 154.158 142.795 155.666 144.607 156.899C145.513 157.516 146.299 158.063 146.858 158.457C147.416 158.851 147.747 159.09 147.747 159.09L148.592 159.699L148.178 158.744C148.178 158.743 148 158.331 147.711 157.651C146.845 155.609 144.988 151.147 144.003 148.191C143.659 147.163 142.791 145.348 141.653 143.125C139.947 139.794 137.639 135.568 135.634 131.886C134.631 130.046 133.705 128.341 132.967 126.953C132.23 125.567 131.681 124.491 131.442 123.933C131.253 123.49 131.167 123.047 131.167 122.614C131.166 121.654 131.594 120.74 132.285 120.066C132.975 119.393 133.92 118.965 134.94 118.966C135.4 118.966 135.876 119.052 136.357 119.244C136.694 119.375 137.177 119.765 137.712 120.347C139.603 122.389 142.216 126.722 144.335 130.525C145.397 132.427 146.338 134.2 147.014 135.497C147.352 136.145 147.624 136.675 147.81 137.043C147.997 137.41 148.099 137.613 148.099 137.614L148.381 138.178L148.621 137.595L148.636 137.561C148.719 137.374 149.151 136.47 150.031 135.572C150.912 134.674 152.228 133.783 154.111 133.584C154.625 133.53 155.086 133.507 155.499 133.507C156.948 133.507 157.809 133.794 158.3 134.062C158.546 134.196 158.7 134.326 158.791 134.418L158.882 134.522L158.898 134.545L158.9 134.547L159.032 134.466L158.897 134.543L158.9 134.547L159.032 134.466L158.897 134.543L159.028 134.772L159.266 134.661C159.266 134.661 159.319 134.637 159.424 134.591C160.156 134.274 163.338 132.993 166.419 132.996C167.299 132.995 168.168 133.099 168.97 133.352C171.014 133.999 172.172 134.956 172.827 135.741C173.155 136.134 173.355 136.485 173.473 136.734C173.532 136.858 173.571 136.958 173.594 137.024L173.618 137.096L173.622 137.113L173.623 137.114L173.703 137.437L174.01 137.31L174.015 137.308C174.085 137.281 174.844 136.996 176.012 136.996C177.435 136.998 179.464 137.412 181.645 139.247C183.713 140.992 184.668 142.379 185.4 143.812C186.131 145.245 186.633 146.748 187.748 148.647C188.832 150.49 190.21 153.681 191.61 157.201C193.013 160.722 194.444 164.576 195.656 167.772C196.861 170.954 198.458 175.965 199.751 180.176C200.397 182.281 200.968 184.188 201.378 185.568C201.787 186.947 202.033 187.798 202.035 187.8L202.31 187.721L202.173 187.468L174.033 202.746L172.82 200.116L172.787 200.081L172.58 200.279L172.319 200.4L173.769 203.542L202.649 187.862L202.585 187.64C202.583 187.636 198.621 173.981 196.192 167.569C194.981 164.375 193.549 160.518 192.143 156.989C190.736 153.458 189.36 150.259 188.242 148.357C187.156 146.51 186.666 145.039 185.911 143.552C185.156 142.066 184.13 140.589 182.014 138.809C179.731 136.883 177.547 136.42 176.012 136.422C174.666 136.422 173.816 136.77 173.792 136.78L173.901 137.045L174.179 136.975C174.171 136.944 173.99 136.241 173.268 135.374C172.546 134.507 171.283 133.481 169.142 132.805C168.27 132.53 167.343 132.422 166.419 132.422C162.725 132.426 159.045 134.135 159.026 134.141L159.146 134.401L159.395 134.259C159.373 134.219 159.164 133.88 158.575 133.558C157.985 133.237 157.023 132.933 155.499 132.933C155.064 132.933 154.583 132.958 154.051 133.013C151.876 133.242 150.377 134.337 149.438 135.364C148.497 136.393 148.099 137.356 148.091 137.376L148.356 137.486L148.612 137.357C148.611 137.355 146.462 133.055 143.897 128.585C142.614 126.349 141.228 124.071 139.949 122.262C139.31 121.357 138.698 120.569 138.134 119.958C137.567 119.348 137.059 118.911 136.57 118.711C136.023 118.492 135.472 118.391 134.94 118.392C132.578 118.397 130.6 120.349 130.593 122.614C130.593 123.123 130.695 123.646 130.915 124.159C131.256 124.954 132.122 126.602 133.259 128.712C134.963 131.874 137.27 136.056 139.274 139.818C140.276 141.699 141.202 143.475 141.938 144.964C142.674 146.451 143.221 147.657 143.459 148.372C144.788 152.36 147.65 158.967 147.652 158.971L147.915 158.857L148.083 158.625C148.081 158.623 145.711 156.914 142.98 155.12C141.614 154.223 140.158 153.305 138.859 152.566C137.556 151.828 136.427 151.269 135.647 151.087C134.461 150.813 133.048 150.575 131.611 150.575C129.547 150.574 127.409 151.071 125.902 152.714C125.48 153.175 125.253 153.62 125.251 154.073C125.251 154.36 125.347 154.631 125.505 154.872C125.782 155.295 126.236 155.652 126.806 156.024C128.517 157.129 131.352 158.35 133.849 160.613C138.434 164.758 145.928 174.46 149.428 180.592C151.231 183.749 154.041 185.596 156.78 187.091C159.521 188.583 162.198 189.744 163.782 191.442C167.087 194.97 172.373 200.478 172.373 200.478L172.58 200.279L172.319 200.4L172.58 200.279Z" fill="#515151"/>
<path d="M148.118 137.646L155.826 149.102L156.301 148.782L148.594 137.325" fill="#515151"/>
<path d="M158.904 134.555L165.952 145.571L166.435 145.262L159.388 134.246" fill="#515151"/>
<path d="M173.651 137.186L178.497 145.778L178.996 145.497L174.151 136.903" fill="#515151"/>
<path d="M151.041 168.807L152.048 171.73L152.59 171.543L151.583 168.62" fill="#515151"/>
<path d="M147.644 158.951L150.341 166.775L150.883 166.588L148.186 158.764" fill="#515151"/>
<path d="M160.016 151.755L161.777 154.179L162.241 153.841L160.479 151.418" fill="#515151"/>
<path d="M168.166 149.335L170.148 151.979L170.607 151.635L168.625 148.991" fill="#515151"/>
<path d="M178.913 147.928L180.235 152.114L180.781 151.941L179.46 147.755" fill="#515151"/>
<path d="M169.717 200.941C169.717 200.941 174.782 193.89 185.133 190.364C195.483 186.84 203.631 186.399 203.631 186.399L210.017 200.72C210.017 200.72 190.858 206.669 184.692 211.516C178.526 216.364 176.984 218.787 176.984 218.787L169.717 200.941Z" fill="white"/>
<path d="M169.717 200.94L169.95 201.107L170.006 201.033C170.579 200.272 175.601 193.912 185.225 190.635C190.382 188.88 194.992 187.891 198.31 187.342C199.969 187.068 201.306 186.903 202.226 186.808C202.686 186.76 203.043 186.729 203.283 186.711C203.524 186.692 203.646 186.685 203.646 186.685L203.631 186.399L203.37 186.516L209.756 200.837L210.017 200.72L209.932 200.446C209.929 200.447 205.135 201.936 199.566 204.032C196.781 205.08 193.803 206.28 191.129 207.524C188.456 208.769 186.09 210.053 184.515 211.29C178.331 216.152 176.766 218.596 176.743 218.633L176.985 218.787L177.25 218.679L169.983 200.832L169.717 200.94L169.95 201.107L169.717 200.94L169.452 201.048L176.929 219.409L177.227 218.94L177.229 218.937C177.302 218.825 178.913 216.423 184.869 211.741C186.377 210.555 188.719 209.278 191.371 208.044C195.352 206.192 200.037 204.427 203.726 203.128C205.569 202.478 207.164 201.945 208.298 201.574C208.864 201.388 209.316 201.243 209.626 201.145C209.935 201.046 210.102 200.994 210.102 200.994L210.411 200.898L203.813 186.101L203.615 186.112C203.598 186.114 195.427 186.555 185.041 190.093C174.605 193.649 169.504 200.747 169.484 200.773L169.392 200.901L169.452 201.048L169.717 200.94Z" fill="#515151"/>
<path d="M187.115 248.531C187.115 248.531 178.746 227.6 176.544 223.194C174.342 218.787 177.865 216.583 177.865 216.583C177.865 216.583 182.93 209.753 196.144 204.465C209.357 199.177 210.458 198.957 213.761 202.703C217.065 206.448 238.73 248.57 238.73 248.57" fill="white"/>
<path d="M187.381 248.425C187.381 248.424 185.288 243.191 182.92 237.407C180.55 231.619 177.912 225.291 176.8 223.065C176.293 222.05 176.107 221.172 176.107 220.421C176.107 219.221 176.584 218.328 177.066 217.722C177.307 217.42 177.549 217.193 177.729 217.044C177.819 216.969 177.893 216.913 177.943 216.877L178.001 216.837L178.015 216.829L178.017 216.827L178.063 216.798L178.095 216.755L178.15 216.683C178.731 215.945 183.915 209.669 196.25 204.732C199.917 203.264 202.65 202.188 204.745 201.481C206.841 200.774 208.299 200.441 209.401 200.443C210.285 200.444 210.938 200.646 211.573 201.047C212.206 201.448 212.817 202.065 213.546 202.893C213.929 203.325 214.633 204.394 215.537 205.897C218.709 211.17 224.447 221.876 229.388 231.258C231.858 235.949 234.13 240.31 235.784 243.498C236.612 245.092 237.284 246.393 237.75 247.296C238.216 248.198 238.474 248.7 238.475 248.702L238.985 248.439C238.985 248.438 233.568 237.907 227.737 226.907C224.822 221.407 221.804 215.789 219.307 211.31C218.057 209.071 216.939 207.116 216.028 205.601C215.114 204.085 214.419 203.018 213.976 202.513C213.236 201.675 212.596 201.018 211.88 200.562C211.166 200.106 210.374 199.867 209.401 199.869C208.184 199.87 206.682 200.224 204.562 200.938C202.443 201.652 199.706 202.731 196.037 204.199C182.767 209.509 177.659 216.379 177.634 216.413L177.865 216.584L177.713 216.34C177.695 216.352 177.159 216.688 176.619 217.364C176.078 218.038 175.533 219.063 175.533 220.421C175.533 221.268 175.746 222.239 176.287 223.322C177.378 225.502 180.024 231.844 182.39 237.624C183.573 240.515 184.688 243.268 185.506 245.3C185.916 246.315 186.252 247.15 186.484 247.731C186.718 248.311 186.848 248.637 186.849 248.638L187.381 248.425Z" fill="#515151"/>
<path d="M49.6434 226.507C49.6434 226.507 52.6369 220.086 59.7656 216.447C66.8944 212.808 71.5269 211.243 78.349 204.51C85.1705 197.779 96.4136 191.766 101.05 190.937C105.686 190.109 107.224 188.112 105.227 185.837C103.229 183.561 97.7793 183.435 92.926 185.075C88.0722 186.716 83.5881 188.723 83.5881 188.723C86.046 183.88 87.6817 178.049 90.1018 173.189C91.8195 169.739 94.6391 164.048 96.3087 160.576C97.3974 158.308 100.645 154.534 99.2006 152.059C97.7477 149.568 94.2774 151.225 92.5172 153.593C89.7199 157.355 76.0339 177.997 76.0339 177.996C78.634 172.49 81.234 166.984 83.8335 161.478C87.7849 153.108 89.6683 149.118 89.1099 150.302C90.2623 147.86 92.5058 144.592 91.1366 141.776C89.7486 138.921 85.7295 138.628 84.0623 141.346C82.16 144.449 67.6151 171.988 67.6151 171.988C67.6151 171.988 76.7196 148.35 77.8829 145.634C79.3042 142.316 78.4648 139.424 76.3681 139.441C73.3209 139.464 71.8807 142.84 70.6864 145.136C70.9083 144.813 71.1302 144.49 71.3521 144.167C68.5032 147.968 66.5871 152.961 64.2049 157.085C61.4202 161.905 58.5375 166.669 55.5584 171.371C56.144 166.5 58.0977 161.937 60.5184 157.712C61.9792 155.163 68.0605 148.904 67.0217 145.828C66.1273 143.179 59.4577 148.156 55.5786 153.59C53.4644 156.551 47.9237 164.626 46.3998 170.304C44.876 175.984 34.2017 195.33 31.3512 200.72C28.5008 206.109 25.0776 215.628 25.0776 215.628L49.6434 226.507Z" fill="#515151"/>
<path d="M49.6432 226.507L49.903 226.629L49.9355 226.561C50.275 225.87 53.3 220.065 59.8955 216.702C63.4513 214.887 66.3959 213.585 69.3159 211.887C72.2359 210.189 75.1244 208.096 78.55 204.715C81.935 201.374 86.4356 198.197 90.6617 195.759C94.8837 193.32 98.8506 191.618 101.1 191.219C102.776 190.919 104.066 190.47 104.961 189.888C105.409 189.596 105.759 189.268 106 188.902C106.242 188.537 106.37 188.131 106.37 187.71C106.369 187.027 106.044 186.334 105.442 185.647C104.838 184.96 103.965 184.473 102.926 184.153C101.887 183.834 100.676 183.682 99.3764 183.682C97.3083 183.682 95.0139 184.067 92.834 184.804C90.3991 185.626 88.0605 186.54 86.329 187.248C85.4633 187.602 84.7495 187.905 84.2518 188.12C84.003 188.227 83.8081 188.312 83.675 188.37C83.6085 188.4 83.5581 188.422 83.5237 188.438L83.4847 188.455L83.4749 188.459L83.4732 188.459L83.5443 188.621L83.4744 188.459H83.4732L83.5443 188.621L83.4744 188.459L83.5822 188.709L83.4772 188.458L83.4744 188.459L83.5822 188.709L83.4772 188.458L83.5873 188.721L83.4835 188.455L83.4772 188.458L83.5873 188.721L83.4835 188.455L83.5879 188.722L83.4933 188.452L83.4835 188.455L83.5879 188.722L83.4933 188.452L83.5879 188.723L83.8436 188.852C86.3175 183.974 87.9538 178.142 90.3584 173.316C92.0761 169.867 94.8963 164.175 96.5664 160.7C96.9976 159.8 97.8123 158.607 98.5227 157.346C99.2301 156.082 99.847 154.746 99.8511 153.477C99.8516 152.934 99.7318 152.401 99.448 151.915C99.1711 151.438 98.8145 151.087 98.4074 150.861C97.9998 150.634 97.5468 150.533 97.0825 150.533C96.2247 150.535 95.3257 150.867 94.4898 151.388C93.6539 151.909 92.8805 152.624 92.2871 153.421C90.8778 155.317 86.7613 161.412 82.9882 167.046C79.2168 172.677 75.7952 177.837 75.7952 177.837L76.0337 177.996L76.2928 178.118C78.8929 172.613 81.4929 167.106 84.0924 161.6C87.5875 154.197 89.4651 150.22 89.4651 150.22C89.5058 150.135 89.5013 150.034 89.4531 149.952C89.4044 149.87 89.3184 149.818 89.2238 149.812C89.1452 149.807 89.0672 149.835 89.0099 149.889C88.9526 149.943 88.9193 150.019 88.9193 150.098H89.206L88.9279 150.029L88.9193 150.098H89.206L88.9279 150.029L89.206 150.098L88.94 149.991L88.9279 150.029L89.206 150.098L88.94 149.991L89.2048 150.098L88.9457 149.978L88.94 149.991L89.2048 150.098L88.9457 149.978L89.0311 150.018L88.9457 149.978V149.978L89.0311 150.018L88.9457 149.978C88.9417 149.987 88.9096 150.055 88.8505 150.18L89.3688 150.425C89.8103 149.489 90.426 148.409 90.9357 147.267C91.4448 146.124 91.8513 144.915 91.8525 143.699C91.8525 143.009 91.7183 142.316 91.3944 141.65C90.6049 140.027 89.0134 139.174 87.4344 139.175C86.0475 139.174 84.6503 139.836 83.8178 141.197H83.8172C83.3328 141.988 82.0703 144.286 80.4374 147.307C75.5429 156.363 67.3614 171.854 67.3614 171.854L67.6148 171.988L67.8826 172.092C67.8826 172.091 68.0248 171.722 68.2759 171.071C69.1548 168.79 71.369 163.051 73.4904 157.585C75.6111 152.121 77.6424 146.922 78.1464 145.747C78.6429 144.587 78.8745 143.472 78.8745 142.495C78.8739 141.551 78.6595 140.731 78.2358 140.127C77.8161 139.523 77.1614 139.15 76.3851 139.154H76.3656C75.5509 139.16 74.8331 139.393 74.2133 139.773C73.2817 140.343 72.5644 141.228 71.963 142.178C71.3621 143.128 70.8765 144.149 70.4322 145.003L70.9224 145.298C71.1443 144.975 71.3661 144.653 71.588 144.33L71.1225 143.995C68.2415 147.843 66.3248 152.846 63.9564 156.941C61.1734 161.759 58.293 166.518 55.316 171.218L55.5581 171.371L55.8428 171.406C56.4215 166.589 58.3566 162.06 60.7669 157.855C61.088 157.294 61.6665 156.511 62.3488 155.616C63.3733 154.272 64.6329 152.667 65.642 151.082C66.6476 149.494 67.4199 147.937 67.4268 146.602C67.4268 146.301 67.3855 146.01 67.2932 145.736C67.1929 145.435 67.014 145.189 66.7726 145.032C66.5318 144.874 66.244 144.808 65.9384 144.808C65.2894 144.811 64.5286 145.089 63.6732 145.552C61.1178 146.947 57.7283 150.09 55.3449 153.423C54.2852 154.908 52.3674 157.672 50.5211 160.782C48.675 163.892 46.899 167.342 46.1228 170.23C45.7528 171.613 44.8032 173.885 43.5466 176.573C39.7747 184.649 33.2376 196.539 31.0976 200.586C28.2306 206.009 24.8105 215.524 24.8075 215.531L24.7173 215.782L49.784 226.884L49.903 226.629L49.6432 226.507L49.7592 226.245L25.1934 215.365L25.0774 215.628L25.3471 215.724C25.3477 215.723 25.5603 215.132 25.9254 214.157C27.0192 211.233 29.48 204.869 31.6045 200.854C33.0275 198.163 36.4104 191.976 39.6276 185.752C41.2362 182.64 42.8037 179.518 44.066 176.816C45.3284 174.112 46.2845 171.836 46.6764 170.379C47.424 167.588 49.1803 164.161 51.014 161.074C52.8476 157.986 54.7573 155.233 55.8117 153.756C57.3636 151.581 59.3772 149.472 61.272 147.915C62.2192 147.137 63.1371 146.496 63.9472 146.056C64.755 145.613 65.4602 145.378 65.9384 145.381C66.1643 145.382 66.3329 145.429 66.4578 145.511C66.5828 145.595 66.6797 145.715 66.7497 145.92C66.8196 146.126 66.8534 146.353 66.8534 146.602C66.8557 147.338 66.5456 148.261 66.0393 149.25C65.2819 150.736 64.0986 152.37 62.9766 153.849C61.854 155.332 60.7973 156.651 60.2693 157.569C57.8378 161.813 55.8661 166.411 55.2735 171.337L55.1224 172.595L55.8003 171.524C58.7815 166.818 61.6659 162.052 64.4529 157.229C66.8489 153.076 68.7649 148.093 71.5812 144.34L71.3518 144.167L71.1156 144.005C70.8937 144.328 70.6718 144.65 70.45 144.973L70.6862 145.136L70.9407 145.268C71.541 144.112 72.1952 142.71 73.0575 141.613C73.4881 141.065 73.9685 140.594 74.512 140.262C75.0561 139.931 75.6616 139.733 76.3702 139.728H76.3851C76.9831 139.732 77.4297 139.985 77.7674 140.457C78.1017 140.931 78.3018 141.638 78.3012 142.495C78.3012 143.382 78.0891 144.424 77.6195 145.521C77.0318 146.893 74.4679 153.474 72.045 159.726C69.6238 165.976 67.3477 171.885 67.3477 171.885L67.8682 172.123C67.8688 172.121 68.0959 171.693 68.4972 170.933C69.9019 168.277 73.4405 161.592 76.8352 155.233C78.5328 152.054 80.1943 148.955 81.5354 146.483C82.8752 144.013 83.8986 142.16 84.3063 141.497C85.0327 140.314 86.2241 139.751 87.4344 139.749C88.8127 139.751 90.1898 140.486 90.8784 141.902C91.161 142.483 91.2786 143.082 91.2792 143.699C91.2803 144.784 90.9071 145.925 90.4123 147.033C89.9181 148.143 89.3063 149.215 88.8505 150.18L89.3688 150.425C89.4009 150.357 89.425 150.305 89.4411 150.271L89.4594 150.233L89.464 150.223L89.4651 150.221L89.4657 150.219L89.4663 150.218L89.4674 150.215L89.4697 150.21L89.4732 150.201L89.4783 150.187L89.4841 150.168L89.4927 150.098H89.206L89.1882 150.384L89.206 150.098L88.9468 149.975C88.9468 149.975 87.0692 153.952 83.5741 161.355C80.9741 166.861 78.3746 172.367 75.7745 177.873L76.2727 178.154C76.2733 178.154 76.4866 177.832 76.8661 177.26C78.1951 175.259 81.5554 170.206 84.8894 165.24C88.2216 160.278 91.5326 155.397 92.7469 153.764C93.295 153.026 94.022 152.355 94.7931 151.874C95.5637 151.392 96.3773 151.106 97.0825 151.107C97.466 151.108 97.8163 151.189 98.1282 151.362C98.4407 151.536 98.7193 151.805 98.9532 152.204C99.1797 152.593 99.2772 153.016 99.2777 153.477C99.2817 154.553 98.7187 155.833 98.0227 157.065C97.329 158.3 96.5154 159.485 96.0499 160.451C94.382 163.921 91.5624 169.612 89.8452 173.061C87.4097 177.956 85.7734 183.787 83.3322 188.592L83.0346 189.179L83.6664 188.999L83.6951 188.989L83.7043 188.985C83.784 188.949 88.2227 186.967 93.0175 185.347C95.1383 184.63 97.3794 184.255 99.3764 184.255C100.631 184.255 101.79 184.403 102.758 184.702C103.728 184.999 104.503 185.446 105.011 186.026C105.557 186.648 105.797 187.217 105.797 187.71C105.795 188.016 105.708 188.302 105.522 188.587C105.243 189.011 104.73 189.424 103.972 189.78C103.215 190.137 102.22 190.437 100.999 190.655C98.6121 191.085 94.64 192.804 90.3756 195.262C86.1157 197.72 81.5841 200.916 78.1475 204.306C74.7511 207.658 71.912 209.713 69.0281 211.391C66.1442 213.068 63.2076 214.368 59.6352 216.191C52.4129 219.882 49.3984 226.359 49.3834 226.386L49.6432 226.507L49.7592 226.245L49.6432 226.507Z" fill="#515151"/>
<path d="M57.7755 221.313C57.7755 221.313 52.2854 214.589 41.7372 211.709C31.1894 208.829 23.0298 208.892 23.0298 208.892L17.5381 223.579C17.5381 223.579 37.0273 228.335 43.4805 232.793C49.9337 237.25 51.6216 239.575 51.6216 239.575L57.7755 221.313Z" fill="#515151"/>
<path d="M57.7753 221.314L57.9972 221.133C57.9754 221.108 52.4474 214.338 41.8125 211.433C31.6694 208.663 23.7324 208.605 23.0719 208.605H23.0271L22.83 208.607L17.1562 223.782L17.47 223.858C17.4707 223.859 17.7728 223.933 18.3172 224.071C20.223 224.556 25.0801 225.83 30.1609 227.468C35.2387 229.103 40.5521 231.116 43.3175 233.03C46.5344 235.252 48.559 236.939 49.776 238.066C50.3845 238.63 50.7912 239.054 51.0441 239.334C51.1704 239.475 51.2584 239.579 51.314 239.647L51.374 239.723L51.3869 239.74L51.3896 239.744L51.7159 240.193L58.0975 221.255L57.9972 221.133L57.7753 221.314L57.5035 221.222L51.3498 239.483L51.6214 239.575L51.8535 239.406C51.8277 239.371 50.1151 237.028 43.6432 232.557C41.9951 231.42 39.5545 230.284 36.8091 229.206C28.5775 225.978 17.612 223.303 17.6057 223.302L17.5379 223.58L17.8064 223.681L23.2981 208.993L23.0296 208.892L23.0321 209.179H23.0719C23.6979 209.179 31.5897 209.236 41.6615 211.986C46.893 213.414 50.8703 215.796 53.5385 217.82C54.8724 218.832 55.8789 219.754 56.5503 220.422C56.8862 220.756 57.1382 221.026 57.3057 221.211C57.3895 221.304 57.4519 221.376 57.4932 221.425L57.5529 221.496L57.7753 221.314L57.5035 221.222L57.7753 221.314Z" fill="#515151"/>
<path d="M48.9169 223.964C48.9169 223.964 51.9103 217.542 59.0389 213.903C66.1677 210.265 70.8008 208.699 77.6223 201.967C84.4444 195.235 95.6875 189.223 100.323 188.394C104.959 187.565 106.498 185.57 104.5 183.294C102.503 181.017 97.0532 180.892 92.1993 182.532C87.3455 184.172 82.8615 186.18 82.8615 186.179C85.3193 181.337 86.9551 175.506 89.3757 170.645C91.0928 167.196 93.913 161.505 95.582 158.032C96.6713 155.765 99.9181 151.992 98.4745 149.516C97.0211 147.025 93.5507 148.682 91.7906 151.05C88.9938 154.812 75.3078 175.453 75.3078 175.453C77.9073 169.946 80.5068 164.441 83.1068 158.934C87.0583 150.565 88.9422 146.575 88.3832 147.759C89.5362 145.317 91.7797 142.049 90.41 139.233C89.0219 136.378 85.0029 136.085 83.3356 138.803C81.4333 141.906 66.889 169.445 66.889 169.445C66.889 169.445 75.9929 145.807 77.1568 143.09C78.5775 139.773 77.7382 136.881 75.6415 136.897C72.5948 136.921 71.154 140.297 69.9597 142.592C70.1816 142.269 70.4035 141.947 70.6254 141.624C67.7765 145.424 65.861 150.418 63.4782 154.542C60.6935 159.362 57.8108 164.125 54.8318 168.828C55.4173 163.957 57.3711 159.393 59.7917 155.169C61.2525 152.62 67.3339 146.361 66.295 143.285C65.4012 140.636 58.731 145.613 54.852 151.046C52.7378 154.008 47.1971 162.082 45.6735 167.761C44.1497 173.44 33.4752 192.787 30.6248 198.176C27.7743 203.566 24.3511 213.085 24.3511 213.085L48.9169 223.964Z" fill="white"/>
<path d="M48.9171 223.964L49.1769 224.086L49.2096 224.019C49.5489 223.327 52.5741 217.522 59.1693 214.159C62.7257 212.344 65.6697 211.042 68.5903 209.344C71.5103 207.646 74.3987 205.553 77.8238 202.172C81.2094 198.83 85.71 195.654 89.9361 193.216C94.1575 190.777 98.1244 189.075 100.374 188.677C102.049 188.376 103.339 187.928 104.235 187.345C104.683 187.053 105.033 186.725 105.274 186.359C105.516 185.994 105.644 185.588 105.644 185.167C105.643 184.485 105.318 183.791 104.716 183.105C104.112 182.417 103.239 181.93 102.2 181.61C101.161 181.291 99.9499 181.139 98.6496 181.138C96.5822 181.139 94.2877 181.524 92.1079 182.26C89.6729 183.083 87.3343 183.997 85.6028 184.705C84.7371 185.059 84.0233 185.362 83.5256 185.577C83.2768 185.684 83.0819 185.769 82.9494 185.828C82.8829 185.856 82.8319 185.879 82.7975 185.894L82.7585 185.911L82.7493 185.915L82.7476 185.916L82.8187 186.078L82.7482 185.916L82.7476 185.916L82.8187 186.078L82.7482 185.916L82.856 186.165L82.7516 185.915L82.7482 185.916L82.856 186.165L82.7516 185.915L82.8611 186.177L82.7574 185.912L82.7516 185.915L82.8611 186.177L82.7574 185.912L82.8617 186.179L82.7677 185.908L82.7574 185.912L82.8617 186.179L82.7677 185.908L82.8617 186.179L83.1174 186.309C85.5919 181.431 87.2276 175.599 89.6322 170.773C91.3499 167.323 94.1701 161.632 95.8408 158.157C96.272 157.256 97.0867 156.064 97.7965 154.803C98.5045 153.539 99.1209 152.203 99.1249 150.934C99.1255 150.391 99.0062 149.857 98.7224 149.371C98.4449 148.895 98.0889 148.544 97.6812 148.318C97.2742 148.091 96.8207 147.99 96.3568 147.991C95.4991 147.992 94.6001 148.324 93.7636 148.844C92.9283 149.366 92.1543 150.081 91.5609 150.879C90.1522 152.774 86.0351 158.869 82.2626 164.503C78.4906 170.134 75.069 175.294 75.069 175.295L75.308 175.453L75.5672 175.576C78.1667 170.069 80.7668 164.563 83.3662 159.057C86.8613 151.654 88.739 147.677 88.7395 147.677C88.7797 147.591 88.7751 147.49 88.7269 147.409C88.6788 147.327 88.5928 147.275 88.4981 147.268C88.4196 147.264 88.3411 147.292 88.2837 147.346C88.2264 147.4 88.1931 147.476 88.1931 147.555H88.4798L88.2057 147.471C88.204 147.485 88.1966 147.482 88.1931 147.555H88.4798L88.2057 147.471L88.4798 147.555L88.2161 147.442L88.2057 147.471L88.4798 147.555L88.2161 147.442L88.4775 147.553L88.2195 147.435L88.2161 147.442L88.4775 147.553L88.2195 147.435L88.3055 147.475L88.2201 147.434L88.2195 147.435L88.3055 147.475L88.2201 147.434C88.2155 147.443 88.1834 147.512 88.1243 147.637L88.6426 147.882C89.0841 146.946 89.7004 145.866 90.2101 144.724C90.7187 143.581 91.1252 142.371 91.1263 141.156C91.1269 140.465 90.9922 139.773 90.6682 139.108C89.8787 137.484 88.2872 136.631 86.7088 136.632C85.3219 136.63 83.9247 137.293 83.0916 138.654C82.6066 139.445 81.3441 141.743 79.7112 144.763C74.8167 153.82 66.6358 169.311 66.6352 169.311L66.8892 169.445L67.1564 169.548C67.157 169.547 67.2986 169.179 67.5497 168.527C68.4292 166.247 70.6428 160.507 72.7647 155.042C74.8849 149.578 76.9168 144.379 77.4202 143.203C77.9167 142.043 78.1483 140.929 78.1483 139.952C78.1478 139.008 77.9333 138.188 77.5102 137.584C77.09 136.979 76.4352 136.607 75.6595 136.611H75.6394C74.8247 136.616 74.1069 136.85 73.4871 137.23C72.556 137.8 71.8388 138.685 71.2374 139.634C70.6365 140.585 70.1509 141.606 69.706 142.46L70.1968 142.755C70.4181 142.432 70.64 142.109 70.8618 141.787L70.3963 141.452C67.5153 145.299 65.5986 150.303 63.2302 154.398C60.4478 159.215 57.5668 163.975 54.59 168.675L54.8321 168.828L55.1167 168.862C55.6952 164.046 57.6305 159.517 60.0407 155.311C60.3618 154.75 60.9403 153.968 61.6231 153.073C62.6471 151.729 63.9067 150.124 64.9158 148.539C65.922 146.951 66.6937 145.394 66.7006 144.059C66.7006 143.757 66.6593 143.466 66.567 143.193C66.4667 142.892 66.2878 142.646 66.0464 142.488C65.8056 142.331 65.5178 142.264 65.2128 142.265C64.5632 142.268 63.8024 142.545 62.947 143.009C60.3922 144.404 57.002 147.547 54.6191 150.88C53.5591 152.364 51.6414 155.129 49.7951 158.238C47.9489 161.35 46.1732 164.799 45.3967 167.687C45.027 169.069 44.0771 171.341 42.8205 174.03C39.0486 182.106 32.5115 193.996 30.3716 198.042C27.5047 203.465 24.0846 212.981 24.0817 212.987L23.9912 213.238L49.0582 224.34L49.1769 224.086L48.9171 223.964L49.0331 223.702L24.4676 212.822L24.3513 213.085L24.6212 213.182C24.6216 213.18 24.8344 212.589 25.1993 211.613C26.2933 208.69 28.7539 202.326 30.8784 198.311C32.3016 195.619 35.6843 189.433 38.9015 183.209C40.5101 180.097 42.0779 176.975 43.3401 174.273C44.6025 171.569 45.5586 169.293 45.9506 167.835C46.6979 165.045 48.4544 161.617 50.2879 158.531C52.1215 155.443 54.0314 152.69 55.0856 151.213C56.6376 149.039 58.651 146.928 60.5459 145.372C61.493 144.594 62.4115 143.953 63.221 143.512C64.0289 143.07 64.7346 142.835 65.2128 142.838C65.4387 142.838 65.6067 142.886 65.7322 142.969C65.8566 143.051 65.9535 143.172 66.0241 143.376C66.0934 143.582 66.1273 143.809 66.1273 144.059C66.1296 144.795 65.8199 145.718 65.3137 146.707C64.5563 148.192 63.3724 149.827 62.251 151.306C61.1278 152.788 60.0711 154.108 59.5431 155.026C57.112 159.27 55.1398 163.868 54.5474 168.794L54.3963 170.052L55.0744 168.982C58.0553 164.276 60.9403 159.509 63.7267 154.685C66.1232 150.533 68.0387 145.549 70.855 141.796L70.6256 141.624L70.3894 141.462C70.1675 141.784 69.9457 142.107 69.7238 142.43L69.96 142.592L70.2146 142.725C70.8148 141.568 71.469 140.167 72.3319 139.07C72.7624 138.521 73.2423 138.051 73.7858 137.719C74.3305 137.387 74.9354 137.191 75.644 137.184H75.6595C76.2569 137.188 76.7035 137.442 77.0412 137.914C77.3755 138.387 77.5762 139.094 77.575 139.952C77.5756 140.838 77.3629 141.881 76.8933 142.977C76.3056 144.349 73.7417 150.931 71.3194 157.183C68.8976 163.432 66.6215 169.342 66.6215 169.342L67.1426 169.579C67.1432 169.578 67.3697 169.149 67.771 168.39C69.1757 165.733 72.7143 159.049 76.109 152.69C77.8066 149.511 79.4682 146.413 80.8092 143.94C82.1491 141.47 83.1725 139.618 83.5801 138.954C84.3071 137.771 85.4985 137.208 86.7088 137.206C88.0871 137.208 89.4642 137.943 90.1528 139.358C90.4349 139.94 90.5524 140.539 90.553 141.156C90.5541 142.24 90.1815 143.382 89.6861 144.49C89.1925 145.599 88.5807 146.671 88.1243 147.637L88.6426 147.882C88.6753 147.813 88.6994 147.762 88.7154 147.728L88.7332 147.69L88.7378 147.68L88.7395 147.677L88.7401 147.676L88.7407 147.674L88.7424 147.671L88.7447 147.665L88.7487 147.654L88.7544 147.638C88.7562 147.625 88.763 147.627 88.7665 147.555H88.4798L88.462 147.841L88.4798 147.555L88.2207 147.432C88.2207 147.432 86.343 151.409 82.848 158.812C80.2479 164.318 77.6484 169.824 75.0489 175.33L75.5466 175.611C75.5471 175.611 75.7604 175.289 76.14 174.718C77.4689 172.716 80.8292 167.663 84.1632 162.698C87.4954 157.735 90.807 152.854 92.0207 151.221C92.5688 150.483 93.2964 149.811 94.0675 149.331C94.8381 148.849 95.6511 148.562 96.3568 148.564C96.7398 148.564 97.0901 148.646 97.4026 148.819C97.7145 148.993 97.9937 149.261 98.227 149.66C98.4535 150.05 98.5516 150.472 98.5516 150.934C98.5561 152.009 97.9931 153.289 97.2965 154.522C96.6028 155.757 95.7892 156.942 95.3237 157.908C93.6564 161.378 90.8362 167.069 89.1191 170.517C86.683 175.414 85.0473 181.244 82.6066 186.05L82.309 186.636L82.9408 186.455L82.9689 186.445L82.9787 186.441C83.0578 186.406 87.4971 184.424 92.2913 182.804C94.4127 182.086 96.6532 181.712 98.6496 181.712C99.9046 181.712 101.063 181.86 102.032 182.158C103.002 182.456 103.777 182.903 104.285 183.483C104.832 184.106 105.071 184.675 105.07 185.167C105.07 185.473 104.982 185.76 104.796 186.044C104.517 186.468 104.003 186.881 103.245 187.238C102.489 187.594 101.493 187.894 100.273 188.112C97.8865 188.541 93.9139 190.26 89.6494 192.718C85.3895 195.177 80.8579 198.373 77.4214 201.763C74.0249 205.114 71.1864 207.17 68.3019 208.847C65.418 210.525 62.4814 211.825 58.909 213.648C51.6871 217.339 48.6726 223.815 48.6573 223.843L48.9171 223.964L49.0331 223.702L48.9171 223.964Z" fill="#515151"/>
<path d="M66.6318 169.318L64.002 174.633L64.5157 174.887L67.1461 169.572" fill="#515151"/>
<path d="M75.0807 175.278L73.0293 177.938L73.4828 178.289L75.5342 175.628" fill="#515151"/>
<path d="M82.6254 186.017L79.9897 189.859L80.4622 190.184L83.0984 186.342" fill="#515151"/>
<path d="M68.943 183.629L68.7314 185.914L69.3019 185.966L69.5135 183.682" fill="#515151"/>
<path d="M62.3711 179.483L62.3797 181.693L62.953 181.691L62.9444 179.481" fill="#515151"/>
<path d="M52.7085 174.919L53.2391 178.674L53.8065 178.594L53.2762 174.839" fill="#515151"/>
<path d="M57.0487 218.771C57.0487 218.771 51.5586 212.046 41.0109 209.165C30.4629 206.286 22.303 206.348 22.303 206.348L16.8115 221.037C16.8115 221.037 36.301 225.792 42.7542 230.25C49.2071 234.707 50.8953 237.032 50.8953 237.032L57.0487 218.771Z" fill="white"/>
<path d="M57.0491 218.771L57.271 218.589C57.2493 218.565 51.7211 211.795 41.0867 208.89C30.9436 206.12 23.0061 206.063 22.3456 206.062H22.3011L22.1039 206.064L16.4302 221.239L16.744 221.316C16.7449 221.316 17.0467 221.389 17.5912 221.528C19.4971 222.013 24.354 223.287 29.4348 224.925C34.5126 226.56 39.8262 228.572 42.5914 230.487C45.8086 232.709 47.8332 234.396 49.0501 235.523C49.6587 236.087 50.0652 236.511 50.318 236.791C50.4445 236.931 50.5326 237.036 50.5881 237.105L50.6479 237.18L50.6609 237.197L50.6638 237.201L50.9898 237.65L57.3713 218.712L57.271 218.589L57.0491 218.771L56.7774 218.679L50.6239 236.941L50.8956 237.032L51.1274 236.864C51.1016 236.828 49.3893 234.485 42.9173 230.015C41.269 228.877 38.8285 227.741 36.0832 226.663C27.8514 223.435 16.886 220.76 16.8799 220.758L16.8118 221.037L17.0803 221.137L22.5718 206.45L22.3033 206.349L22.3058 206.636H22.3456C22.9718 206.636 30.8638 206.692 40.9357 209.443C46.1669 210.871 50.1442 213.253 52.8125 215.277C54.1463 216.289 55.1528 217.211 55.8245 217.878C56.1602 218.212 56.4124 218.483 56.5797 218.668C56.6634 218.761 56.7259 218.833 56.7671 218.881L56.8271 218.952L57.0491 218.771L56.7774 218.679L57.0491 218.771Z" fill="#515151"/>
<path d="M48.3144 250.53C48.3144 250.53 49.6804 245.937 51.6066 241.403C53.5329 236.868 49.8804 234.887 49.8804 234.887C49.8804 234.887 44.4041 228.382 30.8903 223.919C17.3762 219.457 16.2636 219.304 13.1976 223.247C10.1311 227.189 0.264648 250.881 0.264648 250.881" fill="white"/>
<path d="M48.5891 250.612C48.5893 250.611 48.6735 250.328 48.8312 249.829C49.3037 248.329 50.4314 244.902 51.8703 241.515C52.2853 240.539 52.4542 239.664 52.4542 238.893C52.4551 237.429 51.8441 236.356 51.2399 235.665C50.6347 234.972 50.0363 234.646 50.0171 234.635L49.8802 234.887L50.0995 234.702C50.0735 234.671 44.5516 228.129 30.98 223.647C23.8858 221.308 20.216 220.143 17.7888 220.137C16.6889 220.135 15.8319 220.391 15.0856 220.895C14.339 221.398 13.7054 222.128 12.971 223.071C12.1728 224.101 10.9872 226.319 9.62552 229.103C5.55036 237.443 0.00111979 250.769 0 250.771L0.529214 250.992C0.529661 250.991 0.683075 250.622 0.958768 249.967C1.92336 247.674 4.37772 241.886 6.92501 236.242C8.19844 233.421 9.49537 230.635 10.6398 228.343C11.7818 226.053 12.7815 224.246 13.4236 223.423C14.147 222.492 14.7503 221.81 15.4056 221.371C16.0614 220.932 16.7711 220.713 17.7888 220.711C20.0338 220.705 23.717 221.85 30.8003 224.192C37.5287 226.414 42.2497 229.142 45.2864 231.31C46.8046 232.395 47.9015 233.339 48.6173 234.01C48.9754 234.346 49.2379 234.613 49.4102 234.796C49.4964 234.887 49.56 234.957 49.6014 235.004L49.6475 235.056L49.661 235.072L49.6959 235.113L49.7436 235.139L49.7465 235.141C49.794 235.167 50.3373 235.482 50.8584 236.101C51.3801 236.721 51.88 237.633 51.8808 238.893C51.8806 239.58 51.7315 240.375 51.3427 241.291C49.4085 245.843 48.0413 250.443 48.0395 250.449L48.5891 250.612Z" fill="#515151"/>
</svg>
