<svg width="245" height="254" viewBox="0 0 245 254" fill="none" xmlns="http://www.w3.org/2000/svg">
<path d="M10.834 16.6542L10.9173 19.967C10.9436 21.058 10.9829 22.1373 10.9939 23.2107L10.834 23.0508C13.4179 23.0209 16.0018 22.9576 18.5852 22.9547L26.3363 22.9178L26.0443 23.2107L26.0757 16.6542L26.3363 16.9155C25.0592 16.905 23.7852 16.9108 22.5046 16.8833L18.6531 16.8177L10.834 16.6542ZM10.834 16.6542L18.5177 16.4907L22.4175 16.4251C23.7203 16.3982 25.0301 16.4034 26.3363 16.3929L26.5962 16.3911L26.5973 16.6542L26.6288 23.2107L26.6302 23.5049L26.3363 23.5037L18.5852 23.4662C16.0018 23.4639 13.4179 23.4006 10.834 23.3707L10.6729 23.3684L10.6744 23.2107C10.6854 22.0981 10.7245 20.9918 10.7508 19.8979L10.834 16.6542Z" fill="#E7E8E5"/>
<path d="M19.4823 8.38712L19.5653 11.7C19.5918 12.7915 19.6309 13.8702 19.6421 14.9437L19.4823 14.7837C22.0659 14.7538 24.6498 14.6905 27.2335 14.6876L34.9846 14.6513L34.6923 14.9437L34.7237 8.38712L34.9846 8.64844C33.7072 8.6379 32.4334 8.64377 31.1526 8.61623L27.3009 8.5506L19.4823 8.38712ZM19.4823 8.38712L27.1657 8.22365L31.0655 8.15801C32.3682 8.13048 33.6781 8.13635 34.9846 8.1258L35.2441 8.12403L35.2457 8.38712L35.2771 14.9437L35.2784 15.2378L34.9846 15.236L27.2335 15.1991C24.6498 15.1968 22.0659 15.1335 19.4823 15.1036L19.3208 15.1019L19.3227 14.9437C19.3334 13.831 19.3725 12.7247 19.3992 11.6308L19.4823 8.38712Z" fill="#E7E8E5"/>
<path d="M34.5155 92.623L34.5985 95.9359C34.625 97.0269 34.6641 98.1062 34.6753 99.179L34.5155 99.0196C37.0991 98.9898 39.6828 98.9265 42.2666 98.9235L50.0178 98.8866L49.7255 99.179L49.7569 92.623L50.0178 92.8844C48.7406 92.8738 47.4666 92.8791 46.1858 92.8516L42.3341 92.7865L34.5155 92.623ZM34.5155 92.623L42.1989 92.4596L46.0984 92.394C47.4014 92.3664 48.7111 92.3717 50.0178 92.3617L50.2773 92.36L50.2787 92.623L50.3103 99.179L50.3116 99.4731L50.0178 99.472L42.2666 99.4351C39.6828 99.4321 37.0991 99.3688 34.5155 99.339L34.354 99.3372L34.3556 99.179C34.3666 98.0669 34.4062 96.9607 34.4322 95.8668L34.5155 92.623Z" fill="#E7E8E5"/>
<path d="M43.1627 84.3555L43.2459 87.6683C43.2722 88.7593 43.3116 89.8386 43.3225 90.9114L43.1627 90.7521C45.7466 90.7222 48.3304 90.6589 50.9138 90.656L58.6651 90.6191L58.3727 90.9114L58.4043 84.3555L58.6651 84.6168C57.3878 84.6063 56.1139 84.6121 54.8332 84.584L50.9816 84.5189L43.1627 84.3555ZM43.1627 84.3555L50.8464 84.192L54.7461 84.1264C56.0489 84.0988 57.3588 84.1047 58.6651 84.0941L58.9251 84.0924L58.9262 84.3555L58.9573 90.9114L58.959 91.2056L58.6651 91.2044L50.9138 91.1675C48.3304 91.1651 45.7466 91.1019 43.1627 91.072L43.0015 91.0696L43.003 90.9114C43.0138 89.7993 43.0532 88.6931 43.0794 87.5992L43.1627 84.3555Z" fill="#E7E8E5"/>
<path d="M2.18661 8.38712L2.26985 11.7C2.29615 12.7915 2.33525 13.8702 2.34645 14.9437L2.18661 14.7837C4.77048 14.7538 7.35388 14.6905 9.93777 14.6876L17.6889 14.6513L17.3964 14.9437L17.428 8.38712L17.6889 8.64844C16.4115 8.6379 15.1377 8.64377 13.8569 8.61623L10.0052 8.5506L2.18661 8.38712ZM2.18661 8.38712L9.87009 8.22365L13.7698 8.15801C15.0726 8.13048 16.3825 8.13635 17.6889 8.1258L17.9485 8.12403L17.9498 8.38712L17.9814 14.9437L17.9828 15.2378L17.6889 15.236L9.93777 15.1991C7.35388 15.1968 4.77048 15.1335 2.18661 15.1036L2.02539 15.1019L2.02676 14.9437C2.03774 13.831 2.07707 12.7247 2.10337 11.6308L2.18661 8.38712Z" fill="#E7E8E5"/>
<path d="M232.446 150.781L232.363 147.468C232.337 146.377 232.298 145.298 232.287 144.225L232.446 144.385C229.863 144.414 227.279 144.477 224.695 144.481L216.944 144.518L217.237 144.225L217.205 150.781L216.944 150.52C218.222 150.53 219.496 150.524 220.776 150.552L224.628 150.618L232.446 150.781ZM232.446 150.781L224.763 150.944L220.864 151.01C219.561 151.038 218.251 151.032 216.944 151.042L216.684 151.044L216.683 150.781L216.652 144.225L216.65 143.931L216.944 143.932L224.695 143.969C227.279 143.971 229.863 144.035 232.446 144.065L232.607 144.066L232.606 144.225C232.596 145.337 232.556 146.443 232.53 147.537L232.446 150.781Z" fill="#E7E8E5"/>
<path d="M241.094 159.048L241.011 155.736C240.985 154.644 240.946 153.565 240.934 152.492L241.094 152.651C238.51 152.682 235.927 152.745 233.343 152.747L225.592 152.784L225.884 152.492L225.853 159.048L225.592 158.787C226.87 158.798 228.143 158.792 229.424 158.819L233.275 158.885L241.094 159.048ZM241.094 159.048L233.411 159.212L229.511 159.277C228.208 159.305 226.898 159.299 225.592 159.31L225.332 159.312L225.331 159.048L225.3 152.492L225.298 152.198L225.592 152.199L233.343 152.236C235.927 152.239 238.51 152.302 241.094 152.332L241.256 152.334L241.254 152.492C241.243 153.604 241.204 154.71 241.177 155.804L241.094 159.048Z" fill="#E7E8E5"/>
<path d="M26.469 159.048L26.3858 155.736C26.3595 154.644 26.3204 153.565 26.3091 152.492L26.469 152.651C23.8853 152.682 21.3017 152.745 18.7178 152.748L10.9667 152.784L11.2592 152.492L11.2276 159.048L10.9667 158.787C12.2438 158.798 13.5178 158.792 14.7985 158.819L18.6504 158.885L26.469 159.048ZM26.469 159.048L18.7855 159.212L14.886 159.277C13.583 159.305 12.2731 159.299 10.9667 159.31L10.7071 159.312L10.7058 159.048L10.6744 152.492L10.6729 152.198L10.9667 152.199L18.7178 152.236C21.3017 152.239 23.8853 152.302 26.469 152.332L26.6302 152.334L26.6288 152.492C26.6179 153.604 26.5785 154.71 26.5522 155.804L26.469 159.048Z" fill="#E7E8E5"/>
<path d="M216.877 8.38712L216.961 11.7C216.987 12.7915 217.027 13.8702 217.038 14.9437L216.878 14.7837C219.461 14.7538 222.045 14.6905 224.628 14.6876L232.38 14.6513L232.088 14.9437L232.119 8.38712L232.38 8.64844C231.103 8.6379 229.829 8.64377 228.548 8.61623L224.697 8.5506L216.877 8.38712ZM216.877 8.38712L224.561 8.22365L228.46 8.15801C229.764 8.13048 231.073 8.13635 232.38 8.1258L232.64 8.12403L232.641 8.38712L232.673 14.9437L232.674 15.2378L232.38 15.236L224.628 15.1991C222.045 15.1968 219.461 15.1335 216.878 15.1036L216.716 15.1019L216.718 14.9437C216.729 13.831 216.768 12.7247 216.795 11.6308L216.877 8.38712Z" fill="#E7E8E5"/>
<path d="M163.486 107.079H236.805V2.76746H163.486V107.079ZM239.118 109.394H161.173V0.453041H239.118V109.394Z" fill="#E7E8E5"/>
<path d="M201.302 108.236H198.989V3.37214H201.302V108.236Z" fill="#E7E8E5"/>
<path d="M241.215 8.35547H159.076V5.13229H241.215V8.35547Z" fill="#E7E8E5"/>
<path d="M241.215 11.9814H159.076V8.75824H241.215V11.9814Z" fill="#E7E8E5"/>
<path d="M241.215 15.6079H159.076V12.3847H241.215V15.6079Z" fill="#E7E8E5"/>
<path d="M241.215 19.2344H159.076V16.0106H241.215V19.2344Z" fill="#E7E8E5"/>
<path d="M241.215 22.8599H159.076V19.6367H241.215V22.8599Z" fill="#E7E8E5"/>
<path d="M241.215 26.4863H159.076V23.2631H241.215V26.4863Z" fill="#E7E8E5"/>
<path d="M241.215 30.1128H159.076V26.8896H241.215V30.1128Z" fill="#E7E8E5"/>
<path d="M241.215 33.7383H159.076V30.5157H241.215V33.7383Z" fill="#E7E8E5"/>
<path d="M241.215 37.3652H159.076V34.142H241.215V37.3652Z" fill="#E7E8E5"/>
<path d="M234.345 67.2002H233.768V4.47831H234.345V67.2002Z" fill="#17282F"/>
<path d="M235.084 69.8955H233.032L233.546 66.9448H234.57L235.084 69.8955Z" fill="#17282F"/>
<path d="M236.43 83.0237H235.852V4.47821H236.43V83.0237Z" fill="#17282F"/>
<path d="M237.166 85.1934H235.114L235.629 82.242H236.652L237.166 85.1934Z" fill="#17282F"/>
<path d="M244.803 6.74414H155.487V0.000699043H244.803V6.74414Z" fill="#D4D6D3"/>
<path d="M65.4621 42.562H0V38.672H65.4621V42.562Z" fill="#E7E8E5"/>
<path d="M8.85752 42.5637V55.4307H4.96924V42.5637H8.85752Z" fill="#E7E8E5"/>
<path d="M4.96924 42.5638H8.85752V46.5405H4.96924V42.5638Z" fill="#D4D6D3"/>
<path d="M60.4954 42.5637V55.4307H56.6069V42.5637H60.4954Z" fill="#E7E8E5"/>
<path d="M60.4954 42.5638V46.5405H56.6069V42.5638H60.4954Z" fill="#D4D6D3"/>
<path d="M8.52002 38.6724V13.8788H14.7585V38.6724H8.52002Z" fill="#BEBFBD"/>
<path d="M8.52002 15.2773V12.5528H14.7585V15.2773H8.52002Z" fill="#D4D6D3"/>
<path d="M8.52002 19.7793V18.7686H14.7585V19.7793H8.52002Z" fill="#D4D6D3"/>
<path d="M8.52002 35.4199V32.6954H15.536V35.4199H8.52002Z" fill="#D4D6D3"/>
<path d="M14.7583 38.6724V9.74976H19.1183V38.6724H14.7583Z" fill="#D4D6D3"/>
<path d="M15.6113 23.5938V12.4693H18.2276V23.5938H15.6113Z" fill="#E7E8E5"/>
<path d="M47.0716 38.6772L26.519 18.3461L29.5839 15.2425L50.1363 35.5742L47.0716 38.6772Z" fill="#BEBFBD"/>
<path d="M42.8714 33.2754L34.9668 25.4562L36.8058 23.5935L44.7109 31.4127L42.8714 33.2754Z" fill="#D4D6D3"/>
<path d="M19.1152 38.6772V16.7084H26.519V38.6772H19.1152Z" fill="#999B9B"/>
<path d="M19.1152 36.3486V34.3008H26.519V36.3486H19.1152Z" fill="#BEBFBD"/>
<path d="M19.1152 32.9565V32.1626H26.519V32.9565H19.1152Z" fill="#BEBFBD"/>
<path d="M3.40576 38.6772V18.0315H8.52021V38.6772H3.40576Z" fill="#999B9B"/>
<path d="M3.40576 36.4888V34.5646H8.52021V36.4888H3.40576Z" fill="#BEBFBD"/>
<path d="M3.40576 24.2109V22.2867H8.52021V24.2109H3.40576Z" fill="#BEBFBD"/>
<path d="M3.40576 26.2754V25.5295H8.52021V26.2754H3.40576Z" fill="#BEBFBD"/>
<path d="M239.496 238.773C239.496 247.088 186.73 253.83 121.641 253.83C56.5508 253.83 3.78516 247.088 3.78516 238.773C3.78516 230.456 56.5508 223.715 121.641 223.715C186.73 223.715 239.496 230.456 239.496 238.773Z" fill="#E7E8E5"/>
<path d="M209.538 168.49C209.538 168.49 199.825 166.287 194.501 161.377C189.176 156.468 186.203 147.672 186.203 147.672C186.203 147.672 191.92 148.72 197.096 150.536C197.965 151.466 199.62 153.384 200.392 155.199C200.392 155.199 200.555 153.282 200.417 151.866C201.802 152.504 203.008 153.21 203.877 153.967C208.291 157.833 209.538 168.49 209.538 168.49Z" fill="#F4A72A"/>
<path d="M192.267 151.946C190.943 151.03 189.595 150.145 188.277 149.22C188.197 149.164 188.272 149.039 188.357 149.09C190.86 150.587 193.327 152.186 195.715 153.861C196.547 154.445 197.365 155.052 198.172 155.672C198.116 155.576 198.06 155.48 198.003 155.384C197.712 154.895 197.405 154.416 197.097 153.938C196.479 152.976 195.805 152.029 195.035 151.183L195.083 151.137C195.838 152.01 196.594 152.874 197.284 153.8C197.613 154.24 197.917 154.696 198.208 155.163C198.358 155.405 198.504 155.648 198.644 155.897C198.691 155.979 198.742 156.063 198.79 156.148C200.046 157.135 201.269 158.164 202.436 159.252C203.156 159.924 203.851 160.621 204.523 161.339C204.147 160.162 203.819 158.973 203.383 157.814L203.447 157.798C203.87 159.013 204.333 160.234 204.66 161.482C205.405 162.287 206.115 163.121 206.786 163.988L206.751 163.83C206.641 163.372 206.526 162.914 206.403 162.46C206.167 161.58 205.909 160.707 205.613 159.845C205.005 158.078 204.216 156.35 203.003 154.912L203.051 154.867C204.949 157.115 206.062 159.81 206.772 162.641C206.875 163.055 206.973 163.471 207.067 163.887C207.117 164.107 207.176 164.332 207.213 164.56C207.506 164.956 207.795 165.357 208.07 165.768C209.757 168.28 211.072 171.025 212.18 173.835C213.429 177 214.399 180.267 215.294 183.548C215.311 183.612 215.215 183.634 215.194 183.573C213.295 177.884 211.354 172.114 208.102 167.029C207.416 165.955 206.673 164.921 205.885 163.923C204.286 163.833 202.674 163.486 201.161 162.981C199.487 162.423 197.908 161.65 196.427 160.693C195.572 160.142 194.793 159.497 194.001 158.859L194.042 158.808C195.356 159.92 196.934 160.791 198.494 161.504C200.062 162.22 201.71 162.782 203.394 163.149C204.112 163.306 204.839 163.421 205.566 163.52C204.668 162.414 203.711 161.354 202.702 160.344C202.375 160.017 202.034 159.704 201.698 159.387C200.582 158.571 199.346 157.927 198.107 157.328C196.516 156.558 194.949 155.743 193.374 154.941C192.485 154.488 191.602 154.025 190.706 153.588L190.741 153.531C192.337 154.303 193.959 155.024 195.57 155.763C197.087 156.459 198.621 157.157 200.076 157.975C200.139 158.01 200.198 158.048 200.26 158.085C198.944 156.938 197.583 155.845 196.189 154.792C194.901 153.819 193.595 152.866 192.267 151.946Z" fill="#17282F"/>
<path d="M192.82 156.959C193.61 157.305 194.414 157.612 195.196 157.978C196 158.355 196.762 158.795 197.526 159.247L197.494 159.298C196.72 158.927 195.936 158.58 195.168 158.194C194.383 157.798 193.606 157.376 192.801 157.022L192.82 156.959Z" fill="#17282F"/>
<path d="M241.092 119.498C241.092 119.498 238.364 122.624 238.189 127.572C238.156 128.444 238.293 129.659 238.395 131.088C234.773 133.023 232.056 136.51 232.056 136.51C234.114 135.273 236.938 134.773 238.461 134.975C238.41 135.915 238.299 136.891 238.091 137.88C237.418 137.841 236.119 137.932 233.971 138.696C233.971 138.696 236.079 138.642 237.686 139.435C235.954 144.948 230.808 150.612 216.596 153.016C216.596 153.016 213.854 143.36 219.113 133C223.371 124.617 241.092 119.498 241.092 119.498Z" fill="#F4A72A"/>
<path d="M211.676 176.608C211.923 174.252 212.233 171.903 212.597 169.564C213.324 164.881 214.266 160.225 215.463 155.64C216.027 153.477 216.703 151.359 217.514 149.295C217.461 148.921 217.47 148.53 217.461 148.157C217.452 147.701 217.45 147.246 217.455 146.79C217.465 145.879 217.508 144.969 217.585 144.061C217.738 142.268 218.011 140.472 218.458 138.728C218.718 137.715 219.02 136.717 219.317 135.714L219.381 135.733C218.878 137.467 218.589 139.272 218.331 141.056C218.076 142.825 217.919 144.609 217.854 146.395C217.836 146.883 217.827 147.373 217.826 147.862C217.826 148.069 217.836 148.28 217.843 148.49C218.543 146.797 219.333 145.14 220.238 143.529C221.671 140.98 223.316 138.559 225.102 136.245C225.086 135.981 225.165 135.704 225.219 135.45C225.286 135.132 225.355 134.814 225.426 134.498C225.571 133.848 225.734 133.202 225.91 132.559C226.263 131.27 226.73 130.025 227.133 128.752L227.196 128.772C226.821 130.032 226.571 131.336 226.283 132.619C226.14 133.253 226.002 133.888 225.862 134.523C225.793 134.84 225.725 135.158 225.659 135.477L225.647 135.547C226.221 134.823 226.807 134.106 227.407 133.403C230.12 130.217 233.095 127.279 236.091 124.362C236.459 124.003 236.836 123.654 237.21 123.3L237.255 123.348C234.393 126.336 231.575 129.359 228.906 132.523C228.272 133.275 227.647 134.036 227.034 134.806C227.357 134.587 227.682 134.374 228.004 134.164C228.83 133.622 229.668 133.095 230.531 132.611C231.393 132.127 232.262 131.655 233.147 131.216C234.059 130.764 235.033 130.396 235.912 129.884L235.945 129.942C235.038 130.313 234.191 130.881 233.351 131.38C232.486 131.893 231.622 132.41 230.773 132.949C229.938 133.48 229.098 134.002 228.268 134.542C227.578 134.991 226.897 135.482 226.18 135.898C224.54 138.023 223 140.224 221.627 142.531C220.761 143.983 219.979 145.474 219.273 146.998C219.444 146.923 219.615 146.851 219.783 146.776C220.216 146.583 220.651 146.391 221.084 146.198C221.92 145.826 222.76 145.464 223.598 145.099C225.191 144.406 226.811 143.768 228.374 143.007C229.251 142.58 230.114 142.13 230.926 141.589L230.958 141.646C228.044 143.657 224.776 145.074 221.552 146.502L220.153 147.121C219.769 147.291 219.384 147.482 218.989 147.631C218.037 149.763 217.233 151.96 216.585 154.222C215.291 158.74 214.305 163.356 213.493 167.982C212.677 172.629 212.128 177.306 211.7 182.002C211.647 182.588 211.594 183.174 211.528 183.759C211.502 183.993 211.155 183.993 211.158 183.75C211.184 181.365 211.428 178.977 211.676 176.608Z" fill="#17282F"/>
<path d="M220.323 137.326C220.583 135.88 220.968 134.466 221.358 133.05L221.421 133.07C221.061 134.46 220.804 135.876 220.543 137.287C220.278 138.724 220.042 140.168 219.84 141.615L219.8 141.615C219.895 140.175 220.067 138.746 220.323 137.326Z" fill="#17282F"/>
<path d="M226.448 141.248C227.41 140.566 228.492 140.049 229.538 139.507C230.056 139.239 230.58 138.985 231.106 138.73C231.646 138.468 232.208 138.249 232.745 137.979L232.777 138.037C232.258 138.298 231.765 138.614 231.254 138.893C230.727 139.18 230.204 139.472 229.676 139.756C228.637 140.315 227.615 140.934 226.525 141.387C226.43 141.426 226.364 141.307 226.448 141.248Z" fill="#17282F"/>
<path d="M209.36 151.65C209.36 151.65 200.373 149.501 196.246 143.467C195.774 142.778 195.342 142.031 194.944 141.249V136.33C196.033 137.859 197.39 139.298 199.065 140.394C203.75 143.458 208.277 145.977 209.36 151.65Z" fill="#E4E7E5"/>
<path d="M201.065 136.107C202.647 137.632 203.833 139.425 204.379 141.57L204.351 141.58C203.675 139.582 202.561 137.613 201.021 136.157L201.065 136.107Z" fill="#17282F"/>
<path d="M209.361 151.65C209.361 151.65 200.373 149.501 196.246 143.467C192.305 137.704 191.031 127.879 190.93 127.016L190.92 126.955C190.92 126.955 195.23 133.088 199.761 134.652C204.292 136.215 210.66 141.626 209.361 151.65Z" fill="#F4A72A"/>
<path d="M192.513 130.337C193.346 131.973 194.22 133.597 195.291 135.093C196.334 136.549 197.59 137.789 198.989 138.901C200.209 139.871 201.5 140.75 202.736 141.702L202.708 141.658C202.477 141.312 202.228 140.978 201.972 140.65C201.457 139.992 200.895 139.371 200.329 138.757C199.212 137.544 198.072 136.354 197.071 135.041C196.517 134.315 196.029 133.541 195.629 132.718L195.692 132.697C197.15 135.737 200.062 137.683 202.139 140.25C202.435 140.615 202.714 140.992 202.969 141.387C203.15 141.665 203.371 141.975 203.487 142.301C204.617 143.228 205.662 144.239 206.553 145.403C206.479 144.813 206.35 144.224 206.193 143.657C205.969 142.851 205.676 142.094 205.24 141.379L205.295 141.342C205.716 142.052 206.099 142.816 206.343 143.606C206.542 144.247 206.635 144.889 206.671 145.548L206.675 145.555C207.124 146.157 207.522 146.791 207.89 147.444C207.853 147.253 207.816 147.06 207.778 146.868C207.6 145.972 207.402 145.078 207.17 144.194C206.699 142.401 206.062 140.663 205.008 139.125L205.063 139.089C206.103 140.606 206.892 142.299 207.458 144.048C207.745 144.931 207.974 145.828 208.176 146.733C208.275 147.176 208.363 147.621 208.448 148.065C208.492 148.296 208.542 148.531 208.579 148.768C209.498 150.712 210.143 152.796 210.652 154.867C211.569 158.594 212.141 162.429 212.569 166.241C213.018 170.244 213.254 174.29 213.189 178.318C213.181 178.824 213.151 179.33 213.123 179.834C213.115 179.965 212.921 179.984 212.915 179.847C212.826 177.85 212.775 175.853 212.657 173.858C212.538 171.862 212.365 169.871 212.152 167.882C211.732 163.98 211.127 160.084 210.279 156.252C209.55 152.963 208.605 149.652 206.809 146.771C205.909 145.326 204.832 144.049 203.567 142.911C202.306 141.779 200.928 140.787 199.6 139.738C198.278 138.695 197.008 137.56 195.96 136.236C194.829 134.808 193.939 133.206 193.101 131.594C192.89 131.186 192.672 130.78 192.457 130.374L192.513 130.337Z" fill="#17282F"/>
<path d="M194.064 131.657C194.641 132.875 195.334 134.032 196.066 135.161L196.025 135.188C195.242 134.083 194.59 132.897 194.001 131.678L194.064 131.657Z" fill="#17282F"/>
<path d="M242.344 147.672C242.344 147.672 242.487 160.456 234.849 164.146C230.184 166.403 226.841 166.132 223.763 165.862C221.801 165.69 219.947 165.518 217.928 165.999L217.937 165.992C218.139 165.687 221.842 160.359 227.733 158.892C233.793 157.38 240.508 152.998 242.344 147.672Z" fill="#F4A72A"/>
<path d="M226.905 166.039C225.805 166.039 224.77 165.951 223.763 165.862C222.756 165.774 221.777 165.685 220.79 165.685C219.854 165.685 218.911 165.765 217.928 165.999L217.937 165.992C218.153 165.888 221.942 163.99 226.62 163.429C231.435 162.849 240.636 159.707 242.344 147.672C242.344 147.672 242.345 147.688 242.345 147.718C242.345 147.718 242.345 147.719 242.345 147.72C242.345 147.72 242.345 147.72 242.345 147.721C242.345 148.177 242.307 151.749 241.184 155.538C241.132 155.715 241.077 155.893 241.019 156.07C239.983 159.284 238.137 162.558 234.849 164.146C231.71 165.665 229.169 166.039 226.905 166.039Z" fill="#F4AC12"/>
<path d="M217.425 166.226C218.336 165.405 219.356 164.698 220.462 164.168C220.626 164.089 220.796 164.026 220.962 163.955C221.043 163.853 221.127 163.756 221.218 163.661C221.446 163.422 221.685 163.194 221.937 162.977C222.417 162.565 222.928 162.189 223.473 161.869C224.738 161.124 226.125 160.603 227.418 159.911L227.451 159.97C226.811 160.302 226.192 160.668 225.57 161.032C224.965 161.386 224.346 161.723 223.757 162.103C223.228 162.445 222.719 162.823 222.245 163.237C222.111 163.355 221.982 163.482 221.853 163.612C222.695 163.324 223.561 163.103 224.434 162.926C225.832 162.643 227.246 162.443 228.641 162.146C229.327 161.999 230.003 161.817 230.668 161.598C231.302 161.088 231.934 160.58 232.534 160.026C233.259 159.357 233.924 158.631 234.508 157.835L234.565 157.87C233.622 159.088 232.612 160.314 231.434 161.328C231.763 161.203 232.089 161.069 232.41 160.923C235.005 159.743 237.314 157.869 238.918 155.504L238.974 155.538C237.576 157.564 235.802 159.298 233.709 160.597C232.66 161.248 231.554 161.781 230.383 162.173C229.037 162.623 227.641 162.89 226.249 163.151C224.886 163.406 223.518 163.667 222.202 164.115C220.984 164.529 219.837 165.129 218.807 165.902C216.842 167.375 215.321 169.392 214.231 171.582C212.786 174.484 212.094 177.727 211.71 180.928C211.695 181.066 211.483 181.066 211.493 180.923C211.851 175.55 213.286 169.959 217.425 166.226Z" fill="#17282F"/>
<path d="M226.288 162.058C226.67 161.448 227.241 160.99 227.858 160.633C228.58 160.216 229.226 159.766 229.726 159.087L229.781 159.122C229.32 159.714 228.767 160.201 228.133 160.6C227.466 161.018 226.794 161.428 226.336 162.087L226.288 162.058Z" fill="#17282F"/>
<path d="M222.236 175.662L221.889 182.692L220.823 204.169H204.802L203.736 182.692L203.389 175.662H222.236Z" fill="#273E47"/>
<path d="M222.236 175.662L221.889 182.692H203.736L203.389 175.662H222.236Z" fill="#17282F"/>
<path d="M223.359 179.434H202.266V172.728H223.359V179.434Z" fill="#273E47"/>
<path d="M0 204.169L30.41 204.027L60.8203 203.975L121.641 203.877L182.46 203.975L212.871 204.026L243.281 204.169L212.871 204.313L182.46 204.364L121.641 204.461L60.8203 204.363L30.41 204.311L0 204.169Z" fill="#17282F"/>
<path d="M48.3359 219.832V15.6198C48.3359 11.448 51.7154 8.06541 55.8843 8.06541H187.397C191.565 8.06541 194.945 11.448 194.945 15.6198V219.832C194.945 224.005 191.565 227.387 187.397 227.387H55.8843C51.7154 227.387 48.3359 224.005 48.3359 219.832Z" fill="#17282F"/>
<path d="M54.6919 212.169H188.759V23.4161H54.6919V212.169Z" fill="white"/>
<path d="M105.687 17.3808V16.5652C105.687 16.1603 106.014 15.8328 106.418 15.8328H136.86C137.265 15.8328 137.593 16.1603 137.593 16.5652V17.3808C137.593 17.7856 137.265 18.1138 136.861 18.1138H106.418C106.014 18.1138 105.687 17.7856 105.687 17.3808Z" fill="#273E47"/>
<path d="M121.639 223.715C119.361 223.715 117.513 221.865 117.513 219.585C117.513 217.304 119.361 215.455 121.639 215.455C123.918 215.455 125.765 217.304 125.765 219.585C125.765 221.865 123.918 223.715 121.639 223.715Z" fill="#273E47"/>
<path d="M168.101 178.174H75.3491V176.867H168.101V178.174Z" fill="#E7E8E5"/>
<path d="M168.101 182.226H75.3491V180.918H168.101V182.226Z" fill="#E7E8E5"/>
<path d="M102.188 190.701C102.188 193.068 100.27 194.987 97.9045 194.987C95.5388 194.987 93.6216 193.068 93.6216 190.701C93.6216 188.333 95.5388 186.414 97.9045 186.414C100.27 186.414 102.188 188.333 102.188 190.701Z" fill="#F4A72A"/>
<path d="M97.9731 193.201L95.4194 190.614L96.2771 189.765L97.7693 191.276L100.869 186.414L101.885 187.063L97.9731 193.201Z" fill="white"/>
<path d="M108.634 190.662C108.634 190.357 108.689 190.056 108.799 189.758C108.909 189.461 109.069 189.195 109.28 188.96C109.491 188.726 109.748 188.536 110.053 188.391C110.357 188.246 110.703 188.172 111.093 188.172C111.552 188.172 111.948 188.274 112.283 188.475C112.618 188.677 112.868 188.939 113.031 189.263L112.287 189.776C112.221 189.635 112.142 189.516 112.048 189.42C111.954 189.325 111.854 189.248 111.746 189.192C111.638 189.136 111.526 189.095 111.409 189.069C111.292 189.044 111.177 189.031 111.064 189.031C110.821 189.031 110.609 189.08 110.429 189.178C110.248 189.277 110.099 189.405 109.979 189.562C109.86 189.719 109.77 189.897 109.709 190.096C109.648 190.295 109.617 190.493 109.617 190.689C109.617 190.91 109.652 191.122 109.723 191.326C109.793 191.53 109.892 191.71 110.021 191.864C110.15 192.019 110.305 192.143 110.485 192.237C110.665 192.331 110.863 192.378 111.079 192.378C111.191 192.378 111.308 192.363 111.43 192.335C111.552 192.307 111.667 192.263 111.778 192.201C111.887 192.141 111.989 192.062 112.083 191.966C112.177 191.87 112.252 191.754 112.308 191.618L113.102 192.075C113.022 192.263 112.909 192.428 112.761 192.571C112.614 192.713 112.447 192.835 112.262 192.933C112.077 193.031 111.879 193.106 111.669 193.158C111.458 193.21 111.252 193.235 111.05 193.235C110.694 193.235 110.369 193.16 110.074 193.01C109.779 192.86 109.525 192.665 109.312 192.423C109.099 192.182 108.932 191.908 108.813 191.601C108.693 191.294 108.634 190.981 108.634 190.662Z" fill="#F4A72A"/>
<path d="M114.387 190.697C114.387 190.913 114.42 191.121 114.486 191.322C114.551 191.524 114.646 191.702 114.77 191.857C114.894 192.012 115.046 192.136 115.227 192.23C115.407 192.323 115.612 192.37 115.842 192.37C116.076 192.37 116.283 192.322 116.463 192.226C116.643 192.13 116.796 192.002 116.92 191.843C117.044 191.684 117.138 191.504 117.201 191.305C117.264 191.106 117.296 190.903 117.296 190.697C117.296 190.481 117.262 190.272 117.194 190.071C117.126 189.87 117.03 189.691 116.906 189.537C116.782 189.382 116.629 189.259 116.449 189.168C116.269 189.076 116.066 189.031 115.842 189.031C115.607 189.031 115.398 189.079 115.216 189.174C115.033 189.271 114.881 189.397 114.76 189.554C114.638 189.711 114.545 189.89 114.482 190.089C114.419 190.288 114.387 190.491 114.387 190.697ZM115.834 193.228C115.469 193.228 115.138 193.157 114.84 193.014C114.543 192.871 114.288 192.681 114.075 192.444C113.862 192.207 113.697 191.937 113.579 191.632C113.462 191.327 113.404 191.016 113.404 190.697C113.404 190.364 113.466 190.045 113.59 189.741C113.714 189.436 113.885 189.166 114.103 188.932C114.321 188.698 114.579 188.511 114.879 188.373C115.179 188.235 115.504 188.166 115.856 188.166C116.216 188.166 116.545 188.24 116.843 188.387C117.14 188.535 117.394 188.728 117.605 188.967C117.816 189.206 117.979 189.478 118.096 189.783C118.214 190.088 118.272 190.397 118.272 190.711C118.272 191.044 118.211 191.361 118.09 191.663C117.968 191.966 117.799 192.233 117.584 192.465C117.368 192.697 117.111 192.882 116.811 193.021C116.511 193.159 116.186 193.228 115.834 193.228Z" fill="#F4A72A"/>
<path d="M119.986 189.994V193.193H119.017V188.201H119.768L122.368 191.477V188.208H123.337V193.193H122.55L119.986 189.994Z" fill="#F4A72A"/>
<path d="M124.376 193.193V188.201H127.728V189.051H125.347V190.338H127.327V191.126H125.347V193.193H124.376Z" fill="#F4A72A"/>
<path d="M128.409 193.193V188.201H129.378V193.193H128.409Z" fill="#F4A72A"/>
<path d="M131.388 190.669H132.603C132.692 190.669 132.775 190.648 132.853 190.605C132.93 190.563 132.997 190.506 133.053 190.433C133.109 190.36 133.154 190.274 133.186 190.176C133.219 190.077 133.236 189.973 133.236 189.86C133.236 189.743 133.217 189.635 133.179 189.537C133.142 189.438 133.092 189.353 133.028 189.28C132.965 189.207 132.892 189.151 132.811 189.111C132.729 189.071 132.645 189.051 132.561 189.051H131.388V190.669ZM130.418 193.193V188.201H132.624C132.854 188.201 133.066 188.249 133.26 188.344C133.454 188.44 133.622 188.568 133.762 188.725C133.903 188.882 134.013 189.06 134.093 189.259C134.172 189.458 134.212 189.659 134.212 189.86C134.212 190.184 134.132 190.478 133.97 190.743C133.808 191.007 133.589 191.198 133.313 191.316L134.451 193.193H133.362L132.343 191.519H131.388V193.193H130.418Z" fill="#F4A72A"/>
<path d="M139.157 193.193V189.888L137.871 192.349H137.345L136.059 189.888V193.193H135.089V188.201H136.13L137.604 191.041L139.094 188.201H140.127V193.193H139.157Z" fill="#F4A72A"/>
<path d="M144.629 192.342V193.193H141.166V188.201H144.567V189.051H142.135V190.254H144.236V191.041H142.135V192.342H144.629Z" fill="#F4A72A"/>
<path d="M148.683 190.689C148.683 190.451 148.65 190.23 148.585 190.028C148.52 189.827 148.424 189.654 148.297 189.509C148.17 189.363 148.014 189.251 147.829 189.171C147.645 189.091 147.435 189.051 147.201 189.051H146.358V192.342H147.201C147.44 192.342 147.651 192.299 147.837 192.216C148.021 192.131 148.177 192.015 148.301 191.868C148.425 191.72 148.52 191.545 148.585 191.344C148.65 191.142 148.683 190.924 148.683 190.689ZM145.388 193.193V188.201H147.201C147.608 188.201 147.965 188.266 148.273 188.398C148.579 188.529 148.835 188.707 149.041 188.931C149.247 189.157 149.402 189.42 149.505 189.723C149.608 190.025 149.659 190.348 149.659 190.689C149.659 191.069 149.602 191.413 149.487 191.72C149.373 192.027 149.207 192.289 148.992 192.507C148.777 192.725 148.518 192.894 148.216 193.014C147.914 193.133 147.575 193.193 147.201 193.193H145.388Z" fill="#F4A72A"/>
<path d="M168.101 50.6455H75.3491V49.3377H168.101V50.6455Z" fill="#E7E8E5"/>
<path d="M168.101 54.697H75.3491V53.3898H168.101V54.697Z" fill="#E7E8E5"/>
<path d="M158.313 167.763H84.9678V105.666L121.635 82.3609L158.313 105.666V167.763Z" fill="#F4A72A"/>
<path d="M84.9678 167.763V105.666L89.1038 103.037V123.609C87.7316 122.799 86.3552 121.996 84.9678 121.209V167.763ZM154.177 123.608V103.038L158.313 105.666V121.209C156.926 121.995 155.549 122.799 154.177 123.608Z" fill="#D59814"/>
<path d="M89.104 163.012H154.177V79.4073H89.104V163.012Z" fill="#E7E8E5"/>
<path d="M117.678 129.429L102.779 114.334L107.785 109.385L116.488 118.202L134.568 89.8317L140.501 93.6179L117.678 129.429Z" fill="#F4A72A"/>
<path d="M158.313 121.209V167.763H84.9678V121.209C88.1179 122.995 91.2131 124.869 94.3299 126.699C97.4361 128.562 100.542 130.425 103.626 132.321C107.063 134.416 110.499 136.543 113.925 138.693L114.035 138.627L113.947 138.704C116.513 140.302 119.079 141.912 121.646 143.521C124.201 141.912 126.767 140.292 129.334 138.704L129.246 138.627L129.356 138.682C132.781 136.544 136.206 134.416 139.654 132.311C142.739 130.425 145.834 128.551 148.939 126.699C152.067 124.869 155.162 122.995 158.313 121.209Z" fill="#F4A72A"/>
<path d="M121.635 145.341L121.227 145.087C118.408 143.291 115.599 141.493 112.79 139.686C113.176 139.366 113.561 139.035 113.947 138.705C116.513 140.302 119.079 141.912 121.646 143.522C124.201 141.912 126.767 140.292 129.334 138.705C129.719 139.035 130.105 139.366 130.501 139.697C127.693 141.493 124.873 143.291 122.053 145.087L121.635 145.341Z" fill="#D59814"/>
<path d="M130.788 139.498C130.314 139.222 129.841 138.958 129.356 138.682C132.781 136.544 136.206 134.416 139.654 132.311C142.739 130.425 145.834 128.551 148.939 126.699C152.067 124.869 155.162 122.995 158.313 121.209C155.35 123.293 152.332 125.288 149.347 127.339C146.34 129.345 143.322 131.352 140.293 133.336C137.131 135.408 133.96 137.459 130.788 139.498ZM112.493 139.498C109.31 137.459 106.137 135.408 102.977 133.324C99.9581 131.352 96.9409 129.345 93.9335 127.339C90.9485 125.288 87.9312 123.293 84.9678 121.209C88.1179 122.995 91.2131 124.869 94.3299 126.699C97.4361 128.562 100.542 130.425 103.626 132.321C107.063 134.416 110.499 136.544 113.925 138.693C113.44 138.958 112.966 139.222 112.493 139.498Z" fill="#D59814"/>
<path d="M85.144 158.833C87.3692 156.882 89.6823 155.064 92.0175 153.289C94.3633 151.503 96.753 149.794 99.1433 148.096C101.567 146.421 103.99 144.767 106.468 143.18C108.44 141.912 110.444 140.666 112.493 139.498C112.966 139.222 113.44 138.958 113.925 138.693L114.035 138.627L113.947 138.705C113.561 139.035 113.176 139.366 112.79 139.686C110.951 141.24 109.067 142.728 107.151 144.172C104.816 145.958 102.426 147.667 100.024 149.364C97.6124 151.029 95.1893 152.682 92.7112 154.27C90.2326 155.858 87.7328 157.411 85.144 158.833Z" fill="#D59814"/>
<path d="M158.136 158.833C155.548 157.411 153.037 155.858 150.57 154.27C148.091 152.682 145.669 151.029 143.245 149.364C140.843 147.667 138.453 145.958 136.118 144.172C134.213 142.728 132.33 141.25 130.501 139.696C130.105 139.366 129.719 139.035 129.333 138.705L129.246 138.627L129.356 138.682C129.84 138.958 130.314 139.222 130.788 139.498C132.837 140.666 134.83 141.912 136.813 143.18C139.291 144.767 141.714 146.421 144.126 148.096C146.527 149.794 148.917 151.503 151.253 153.289C153.598 155.064 155.912 156.882 158.136 158.833Z" fill="#D59814"/>
<path d="M90.2609 75.4214C90.029 73.8054 89.974 72.1888 89.9629 70.5722C89.9693 68.9563 90.0208 67.3397 90.2503 65.7231C90.4839 67.3391 90.5384 68.9557 90.5483 70.5717C90.5407 72.1882 90.4892 73.8048 90.2609 75.4214Z" fill="#17282F"/>
<path d="M86.1429 76.9604C84.8374 75.9814 83.6572 74.8775 82.5068 73.7425C81.3699 72.5947 80.2641 71.4152 79.2847 70.1092C80.5907 71.0871 81.7715 72.1916 82.9202 73.3277C84.057 74.4761 85.1629 75.6556 86.1429 76.9604Z" fill="#17282F"/>
<path d="M84.3193 80.9625C82.7047 81.1945 81.0901 81.2496 79.475 81.2607C77.8598 81.2537 76.2446 81.2027 74.6294 80.9725C76.2446 80.7393 77.8592 80.6848 79.4744 80.6748C81.0896 80.6824 82.7042 80.734 84.3193 80.9625Z" fill="#17282F"/>
<path d="M85.857 85.0841C84.8793 86.3907 83.7758 87.5719 82.6418 88.7233C81.495 89.8612 80.3171 90.968 79.0122 91.9482C79.9893 90.6404 81.0928 89.4592 82.2274 88.309C83.3754 87.1718 84.5532 86.0649 85.857 85.0841Z" fill="#17282F"/>
<path d="M152.582 75.4214C152.354 73.8048 152.302 72.1882 152.294 70.5717C152.304 68.9557 152.358 67.3391 152.592 65.7231C152.821 67.3397 152.872 68.9563 152.879 70.5722C152.868 72.1888 152.814 73.8054 152.582 75.4214Z" fill="#17282F"/>
<path d="M156.699 76.9604C157.679 75.6556 158.785 74.4761 159.921 73.3277C161.071 72.1916 162.251 71.0871 163.558 70.1092C162.578 71.4152 161.473 72.5947 160.335 73.7425C159.185 74.8775 158.005 75.9814 156.699 76.9604Z" fill="#17282F"/>
<path d="M158.523 80.9625C160.138 80.734 161.753 80.6824 163.369 80.6748C164.983 80.6848 166.598 80.7393 168.213 80.9725C166.598 81.2027 164.983 81.2537 163.368 81.2607C161.753 81.2496 160.138 81.1945 158.523 80.9625Z" fill="#17282F"/>
<path d="M156.985 85.0841C158.289 86.0649 159.467 87.1718 160.614 88.309C161.749 89.4592 162.853 90.6404 163.83 91.9482C162.525 90.968 161.347 89.8612 160.2 88.7233C159.066 87.5719 157.963 86.3907 156.985 85.0841Z" fill="#17282F"/>
<path d="M74.3883 244.944C73.125 245.353 37.1053 244.886 35.7465 243.995C35.2243 243.666 34.9864 238.409 34.8812 232.048C34.8806 231.982 34.8801 231.916 34.8799 231.849C34.8552 230.539 34.838 229.189 34.836 227.821C34.8355 227.633 34.8352 227.445 34.8291 227.257L36.5771 208.555L60.6724 208.796L58.2941 227.323L58.2664 228.056L58.121 231.891L58.107 232.286C58.107 232.286 71.8142 238.637 73.2063 239.774C74.5874 240.905 75.6523 244.543 74.3883 244.944Z" fill="#F68C95"/>
<path d="M74.3883 244.944C73.125 245.353 37.1053 244.886 35.7465 243.995C35.2243 243.665 34.9864 238.409 34.8812 232.048C34.8806 231.982 34.8801 231.916 34.8799 231.849C34.8552 230.539 34.838 229.189 34.836 227.82C34.8355 227.633 34.8352 227.444 34.8291 227.257L58.2941 227.322L58.2664 228.056L58.121 231.891L58.107 232.286C58.107 232.286 71.8142 238.636 73.2063 239.773C74.5874 240.905 75.6523 244.542 74.3883 244.944Z" fill="#E7E8E5"/>
<path d="M74.4952 245.031C73.2214 245.444 36.8732 245.094 35.4952 244.204C34.9711 243.87 34.7131 238.568 34.583 232.154L58.0181 232.311C58.0181 232.311 71.8749 238.674 73.2817 239.813C74.6802 240.951 75.7691 244.617 74.4952 245.031Z" fill="#F4A72A"/>
<path d="M73.9876 243.57C67.8963 243.362 43.307 243.098 37.2698 243.355L37.2695 243.393C43.3026 243.732 67.8934 243.797 73.987 243.669C74.1152 243.667 74.1164 243.574 73.9876 243.57Z" fill="#17282F"/>
<path d="M70.9555 238.482C69.5113 238.409 68.0928 239.082 67.2966 239.936C66.5315 240.756 65.8729 241.913 65.9039 243.178L65.9776 243.179C66.3482 240.796 68.5371 238.721 70.9549 238.558L70.9555 238.482Z" fill="#17282F"/>
<path d="M60.3762 232.941C57.9373 232.883 55.1017 233.717 53.5672 235.699C53.508 235.776 53.6177 235.859 53.6904 235.823C55.9062 234.706 58.0098 233.879 60.4154 233.241C60.5846 233.196 60.5506 232.945 60.3762 232.941Z" fill="#17282F"/>
<path d="M62.2512 233.693C59.8129 233.635 56.9775 234.47 55.4428 236.452C55.3833 236.529 55.4933 236.611 55.5658 236.575C57.7815 235.459 59.8849 234.631 62.2904 233.994C62.4602 233.948 62.4263 233.697 62.2512 233.693Z" fill="#17282F"/>
<path d="M64.1268 234.445C61.6885 234.388 58.8527 235.223 57.3183 237.204C57.2588 237.281 57.3688 237.365 57.4415 237.328C59.657 236.212 61.7605 235.385 64.166 234.746C64.3358 234.702 64.3018 234.449 64.1268 234.445Z" fill="#17282F"/>
<path d="M66.0024 235.198C63.5641 235.141 60.7283 235.975 59.1939 237.957C59.1342 238.033 59.2442 238.117 59.3174 238.08C61.5326 236.964 63.6366 236.137 66.0416 235.499C66.2108 235.454 66.1768 235.202 66.0024 235.198Z" fill="#17282F"/>
<path d="M38.8772 237.578C36.141 237.559 36.108 241.816 38.8488 241.834C41.585 241.852 41.6181 237.596 38.8772 237.578Z" fill="white"/>
<path d="M60.0319 231.611C59.1866 232.215 58.3167 232.774 57.4939 233.409C57.9412 232.197 58.3336 230.971 58.9027 229.805C59.1743 229.249 59.4635 228.682 59.8089 228.168C60.3469 227.366 62.76 225.349 62.9772 228.007C63.0972 229.472 61.0395 230.891 60.0319 231.611ZM63.0738 226.453C61.8491 225.416 60.2843 226.402 59.5133 227.458C58.2638 229.17 57.3937 231.576 57.2373 233.679L57.3128 233.75C57.3631 233.925 57.568 234.074 57.7493 233.951C59.4974 232.765 61.5125 231.715 62.8449 230.028C63.6229 229.043 64.2324 227.432 63.0738 226.453Z" fill="#17282F"/>
<path d="M49.7103 233.122C48.0805 231.013 51.2214 230.874 52.1581 231.103C52.7602 231.25 53.3555 231.474 53.9311 231.701C55.1369 232.178 56.2522 232.819 57.3991 233.412C56.3633 233.498 55.3448 233.672 54.3135 233.797C53.0841 233.945 50.6088 234.286 49.7103 233.122ZM51.1693 234.526C53.2896 234.873 55.4857 234.289 57.5751 233.985C57.7919 233.953 57.8432 233.705 57.762 233.541L57.7702 233.438C56.2385 231.991 53.9746 230.8 51.8995 230.38C50.618 230.12 48.7984 230.448 48.5916 232.04C48.3965 233.545 49.9317 234.323 51.1693 234.526Z" fill="#17282F"/>
<path d="M34.582 245.089H53.9068V232.152H34.582V245.089Z" fill="#CCCDCB"/>
<path d="M37.9204 232.176L34.8828 232.156C34.8828 232.155 34.8828 232.155 34.8828 232.154L37.9191 232.175C37.9195 232.176 37.9199 232.176 37.9204 232.176Z" fill="#CCCDCB"/>
<path d="M53.9048 245.087C52.7163 245.067 51.5365 245.045 50.3765 245.019C43.5215 244.868 37.4729 244.632 35.8696 244.318C35.8691 244.318 35.8689 244.318 35.8682 244.317C35.8675 244.317 35.8664 244.317 35.8657 244.317C35.6848 244.282 35.5611 244.245 35.4998 244.207C35.4994 244.207 35.4989 244.207 35.4984 244.207C35.4982 244.207 35.498 244.206 35.4977 244.206C35.4975 244.206 35.4973 244.206 35.4969 244.206C35.4964 244.206 35.4957 244.205 35.4952 244.204C34.9711 243.87 34.7131 238.568 34.583 232.154L34.8828 232.156L37.9204 232.176C41.0458 234.719 47.1237 239.619 51.6417 243.262C49.8678 243.253 48.1383 243.249 46.5156 243.249C42.4515 243.249 39.0526 243.279 37.2698 243.355L37.2696 243.393C39.8322 243.537 45.7441 243.631 52.1631 243.683C52.7826 244.183 53.3672 244.654 53.9048 245.087ZM38.8596 237.578C36.1408 237.578 36.1141 241.816 38.8489 241.834C38.8548 241.834 38.8605 241.834 38.8664 241.834C41.5853 241.834 41.6123 237.596 38.8772 237.578C38.8712 237.578 38.8653 237.578 38.8596 237.578Z" fill="#F4AC12"/>
<path d="M52.1631 243.683C45.744 243.631 39.8321 243.537 37.2695 243.393L37.2698 243.355C39.0526 243.279 42.4515 243.249 46.5156 243.249C48.1383 243.249 49.8678 243.253 51.6417 243.262C51.8178 243.405 51.992 243.545 52.1631 243.683Z" fill="#142228"/>
<path d="M38.8664 241.834C38.8605 241.834 38.8548 241.834 38.8488 241.834C36.114 241.816 36.1408 237.578 38.8596 237.578C38.8653 237.578 38.8712 237.578 38.8772 237.578C41.6122 237.596 41.5852 241.834 38.8664 241.834Z" fill="#E0E1DE"/>
<path d="M59.7015 231.971H33.7602C33.7602 231.971 38.9837 171.331 38.78 170.272C38.5209 168.915 36.9892 162.777 34.9505 154.759C34.3113 152.25 33.6225 149.558 32.9063 146.767C30.9721 139.224 28.8397 130.979 26.9828 123.804C24.1949 113.056 22.0186 104.707 22.0186 104.707H44.0035C44.0035 104.707 46.5657 112.835 49.7946 123.413C55.0566 140.602 62.0877 164.261 62.782 170.012C63.9055 179.3 59.7015 231.971 59.7015 231.971Z" fill="#273E47"/>
<path d="M58.5522 227.542C54.5906 227.459 55.7287 227.427 51.7664 227.388C49.8272 227.37 37.0851 227.258 35.2734 227.559V227.64C37.0853 227.94 49.8272 227.829 51.7664 227.81C55.7287 227.772 54.5906 227.74 58.5522 227.657C58.6265 227.656 58.6265 227.544 58.5522 227.542Z" fill="#17282F"/>
<path d="M43.6611 166.566C42.8102 162.813 41.5394 159.135 40.4333 155.451C38.1847 147.965 35.918 140.485 33.6472 133.006C32.5117 129.267 31.3743 125.528 30.2254 121.793C29.6453 119.907 29.066 118.02 28.4762 116.137C27.8984 114.295 27.2418 112.467 26.7209 110.609C26.5089 109.852 26.3932 110.268 26.6644 111.228C27.2114 113.164 27.7518 115.103 28.3157 117.035C29.433 120.86 30.5595 124.683 31.689 128.505C33.9378 136.112 36.2173 143.71 38.4943 151.307C39.6361 155.117 40.7855 158.924 41.9282 162.733C42.4742 164.553 43.0094 166.384 43.3307 168.26C43.6657 170.217 43.6833 172.196 43.5596 174.173C43.311 178.145 42.8509 182.112 42.4845 186.075C42.1173 190.046 41.7498 194.018 41.3828 197.989C40.6519 205.893 39.9203 213.796 39.2096 221.701C39.1195 222.703 39.0319 223.705 38.9549 224.708C38.929 225.043 39.436 225.018 39.4714 224.695C40.3258 216.881 40.9809 209.04 41.7141 201.213C42.4436 193.424 43.1734 185.635 43.9006 177.846C44.083 175.891 44.2911 173.932 44.2925 171.966C44.2939 170.142 44.0638 168.343 43.6611 166.566Z" fill="#17282F"/>
<path d="M41.5073 104.707C39.981 116.525 37.0717 138.683 34.9505 154.759C29.9916 135.281 22.0186 104.707 22.0186 104.707H41.5073Z" fill="#17282F"/>
<path d="M46.9076 245.292C45.6454 245.705 9.62471 245.369 8.26272 244.483C7.739 244.156 7.482 238.9 7.35367 232.54C7.35279 232.474 7.35233 232.408 7.35139 232.341C7.32212 231.03 7.30016 229.681 7.29308 228.313C7.29197 228.125 7.2908 227.937 7.28418 227.749C7.20047 218.57 7.86182 209.046 7.86182 209.046L31.4066 209.199L30.7492 227.729L30.7242 228.462L30.5927 232.298L30.5801 232.693C30.5801 232.693 44.3102 238.994 45.707 240.125C47.0919 241.252 48.1701 244.885 46.9076 245.292Z" fill="#F68C95"/>
<path d="M46.9076 245.292C45.6454 245.705 9.62471 245.369 8.26272 244.483C7.739 244.156 7.48199 238.9 7.35367 232.54C7.35279 232.474 7.35232 232.408 7.35139 232.341C7.32212 231.03 7.30016 229.681 7.29308 228.313C7.29197 228.125 7.29079 227.937 7.28418 227.749L30.7492 227.729L30.7242 228.462L30.5927 232.298L30.5801 232.693C30.5801 232.693 44.3102 238.994 45.707 240.125C47.0919 241.252 48.1701 244.885 46.9076 245.292Z" fill="#E7E8E5"/>
<path d="M47.0492 245.216C45.7754 245.629 9.42744 245.281 8.04965 244.391C7.52528 244.056 7.26735 238.755 7.13721 232.34L30.5724 232.497C30.5724 232.497 44.4292 238.86 45.8356 239.999C47.2344 241.138 48.323 244.803 47.0492 245.216Z" fill="#F4A72A"/>
<path d="M46.5419 243.756C40.4505 243.548 15.8616 243.284 9.8242 243.542L9.82373 243.58C15.857 243.918 40.4473 243.982 46.5415 243.857C46.6697 243.854 46.6707 243.761 46.5419 243.756Z" fill="#17282F"/>
<path d="M43.5105 238.668C42.066 238.595 40.6472 239.269 39.8512 240.122C39.0862 240.943 38.4276 242.1 38.458 243.365L38.5319 243.366C38.9026 240.982 41.0913 238.907 43.5101 238.744L43.5105 238.668Z" fill="#17282F"/>
<path d="M32.9302 233.126C30.4918 233.069 27.6562 233.903 26.1215 235.885C26.062 235.962 26.172 236.046 26.2448 236.009C28.4602 234.893 30.5638 234.066 32.9694 233.427C33.1388 233.382 33.1047 233.13 32.9302 233.126Z" fill="#17282F"/>
<path d="M34.8059 233.879C32.3672 233.822 29.5316 234.656 27.9969 236.638C27.9377 236.715 28.0474 236.798 28.1204 236.762C30.3359 235.645 32.4397 234.818 34.8452 234.18C35.0146 234.135 34.9804 233.883 34.8059 233.879Z" fill="#17282F"/>
<path d="M36.681 234.631C34.2428 234.575 31.4071 235.409 29.8724 237.39C29.813 237.467 29.923 237.551 29.9957 237.514C32.2112 236.397 34.3148 235.57 36.7203 234.933C36.8898 234.888 36.8557 234.636 36.681 234.631Z" fill="#17282F"/>
<path d="M38.5568 235.385C36.1181 235.327 33.2825 236.161 31.7481 238.144C31.6884 238.22 31.7984 238.304 31.8713 238.267C34.0866 237.15 36.1904 236.323 38.5959 235.685C38.7654 235.64 38.7311 235.389 38.5568 235.385Z" fill="#17282F"/>
<path d="M11.4319 237.764C8.69579 237.746 8.66266 242.002 11.4034 242.021C14.1398 242.038 14.1727 237.782 11.4319 237.764Z" fill="white"/>
<path d="M32.5862 231.798C31.7406 232.402 30.8709 232.961 30.0481 233.595C30.4951 232.383 30.8875 231.158 31.4567 229.992C31.7284 229.435 32.0179 228.869 32.3632 228.354C32.9009 227.552 35.3142 225.536 35.5314 228.194C35.6514 229.659 33.5938 231.077 32.5862 231.798ZM35.6279 226.639C34.4033 225.602 32.8387 226.589 32.0671 227.646C30.818 229.356 29.9477 231.763 29.7915 233.866L29.867 233.936C29.9173 234.112 30.1224 234.26 30.3038 234.138C32.0513 232.952 34.0669 231.901 35.3992 230.214C36.1772 229.23 36.7862 227.619 35.6279 226.639Z" fill="#17282F"/>
<path d="M22.2648 233.309C20.6348 231.199 23.7759 231.061 24.7126 231.29C25.3149 231.436 25.9102 231.66 26.4853 231.888C27.6914 232.365 28.8067 233.005 29.9535 233.599C28.9181 233.684 27.8993 233.859 26.8679 233.984C25.6387 234.132 23.1635 234.472 22.2648 233.309ZM23.7238 234.712C25.8443 235.059 28.0404 234.475 30.1296 234.171C30.3464 234.14 30.3976 233.892 30.3166 233.728L30.3249 233.625C28.7929 232.177 26.529 230.987 24.454 230.566C23.1726 230.307 21.3526 230.634 21.1463 232.226C20.951 233.731 22.4859 234.51 23.7238 234.712Z" fill="#17282F"/>
<path d="M43.293 104.707C43.293 104.707 42.7858 115.235 40.3782 123.573C40.1852 124.262 39.976 124.94 39.7498 125.592C39.7498 125.592 37.2428 126.501 33.4133 128.85C33.4133 128.85 33.1601 137.321 32.9065 146.768C32.6255 157.329 32.3335 169.108 32.394 171.607C32.6143 180.954 31.2259 232.352 31.2259 232.352L5.29004 232.457C5.29004 232.457 9.97915 175.059 9.94601 171.634C9.8966 166.13 11.2024 141.805 12.2108 124.063C12.8281 113.134 13.3348 104.707 13.3348 104.707H43.293Z" fill="#273E47"/>
<path d="M30.3372 227.735C26.3751 227.669 27.513 227.632 23.5504 227.61C21.6112 227.6 8.86861 227.543 7.05859 227.851L7.05883 227.932C8.87206 228.224 21.6133 228.059 23.5523 228.032C27.5144 227.977 26.3762 227.95 30.3375 227.85C30.4117 227.848 30.4116 227.736 30.3372 227.735Z" fill="#17282F"/>
<path d="M15.5141 108.468C15.0371 122.951 14.531 137.435 13.8839 151.911C13.2344 166.436 12.3597 180.956 11.1452 195.446C10.4664 203.541 9.82704 214.93 8.9544 223.006C8.94849 223.06 9.03104 223.08 9.03835 223.024C10.927 208.658 11.9796 190.895 12.9083 176.438C13.8368 161.983 14.4661 147.503 14.9587 133.028C15.2372 124.84 15.4501 116.648 15.6948 108.459C15.6982 108.342 15.518 108.353 15.5141 108.468Z" fill="#17282F"/>
<path d="M40.828 124.964C38.246 125.99 35.7728 127.392 33.4137 128.85C33.3209 128.908 33.3903 129.052 33.4914 129.004C35.9934 127.787 38.548 126.616 40.9801 125.262C41.171 125.157 41.026 124.885 40.828 124.964Z" fill="#17282F"/>
<path d="M40.9731 116.032C40.8018 116.955 40.5782 117.868 40.3792 118.785C40.1924 119.645 40.055 120.523 39.8276 121.374C39.6075 122.199 39.2564 122.955 38.6232 123.544C38.2856 123.858 37.9143 124.135 37.5548 124.423C37.3609 124.577 37.1514 124.726 36.9499 124.884C36.976 124.762 36.9971 124.637 37.019 124.512C37.0805 124.162 37.1395 123.812 37.1985 123.462C37.3289 122.685 37.4528 121.906 37.5719 121.128C37.8056 119.597 38.0211 118.049 38.3403 116.534C38.3534 116.472 38.2605 116.448 38.2447 116.51C37.8637 118.012 37.443 119.498 37.1112 121.012C36.9483 121.755 36.3675 125.423 36.3419 125.683C36.3151 125.95 36.2929 126.219 36.2835 126.489C36.2739 126.754 36.2214 127.051 36.2827 127.312C36.2984 127.38 36.3789 127.368 36.4072 127.323L36.4112 127.326C36.5445 127.092 36.5779 126.787 36.6442 126.528C36.7114 126.267 36.7706 126.001 36.8177 125.735C36.8347 125.639 36.8479 125.541 36.8614 125.442C37.2225 125.223 37.5585 124.933 37.896 124.688C38.2596 124.425 38.63 124.168 38.974 123.878C39.6328 123.323 40.0447 122.643 40.2901 121.82C40.5446 120.967 40.6232 120.065 40.7216 119.184C40.8382 118.142 40.9235 117.094 41.0687 116.056C41.0772 115.994 40.9848 115.969 40.9731 116.032Z" fill="#17282F"/>
<path d="M31.4947 80.8512C33.5065 86.9079 42.4955 106.151 46.2758 107.495C50.2093 108.893 65.4013 110.633 68.7728 107.974C70.4242 106.672 70.9956 92.7625 68.7728 93.0965C66.5505 93.4305 53.1502 93.9338 51.5592 93.3619C49.9777 92.7936 39.3181 77.2817 34.9977 73.5259C27.5475 67.0502 30.4113 77.5899 31.4947 80.8512Z" fill="#F68C95"/>
<path d="M65.4013 92.8603L65.18 110.195C65.18 110.195 49.6033 110.237 45.4518 108.051C41.3005 105.865 32.5185 85.8327 30.3257 78.1664C28.1329 70.5001 31.6406 69.3148 37.2196 74.9414C42.7986 80.5675 51.1896 92.3523 52.1856 92.5978C53.1815 92.8427 65.4013 92.8603 65.4013 92.8603Z" fill="#F4A72A"/>
<path d="M42.0927 80.4257C40.998 80.9354 39.9326 81.5038 38.9022 82.1366C36.9527 83.3202 35.1381 84.6912 33.4109 86.1736L33.2528 86.3084C33.2821 86.3787 33.3116 86.449 33.3349 86.5193H33.3407L33.3582 86.5662L33.3932 86.5428C33.4929 86.4549 33.5865 86.367 33.6859 86.2908C35.3839 84.8612 37.1694 83.537 39.0661 82.4003C40.1142 81.7733 41.1913 81.1991 42.3036 80.6776C42.2331 80.5956 42.1632 80.5077 42.0927 80.4257ZM48.0874 87.8904C47.8125 88.0369 47.5255 88.1658 47.2387 88.283C46.4837 88.5994 45.6871 88.8103 44.8675 88.9041C44.458 88.9509 44.0479 89.0213 43.6382 89.0447L42.403 89.0798C40.7522 89.0447 39.1245 88.6814 37.5909 88.0603C36.6716 87.7029 35.7761 87.2693 34.8801 86.8357C34.7632 86.7889 34.6521 86.7303 34.535 86.6775C34.254 86.5486 33.9729 86.4139 33.6859 86.2908C33.5981 86.2498 33.5046 86.2088 33.4109 86.1736C33.329 86.1326 33.2411 86.0975 33.1533 86.0623C33.1886 86.1443 33.2178 86.2264 33.2528 86.3084C33.2821 86.3787 33.3116 86.449 33.3349 86.5193H33.3407L33.3932 86.5428C33.645 86.6541 33.897 86.7654 34.1485 86.8826C34.2599 86.9353 34.3711 86.9939 34.4879 87.0467C35.4601 87.5096 36.4377 88.0017 37.4562 88.4002C39.0193 89.033 40.6996 89.4138 42.3973 89.449L43.6615 89.4197C44.0832 89.3962 44.5049 89.3201 44.9203 89.2732C45.7635 89.1794 46.5948 88.9568 47.3791 88.6345C47.7071 88.5056 48.0231 88.3592 48.3334 88.1951C48.2516 88.0955 48.1695 87.99 48.0874 87.8904ZM44.6101 83.5135C41.4078 84.0409 38.2994 85.0897 35.4072 86.5603C35.2316 86.6482 35.0559 86.742 34.8801 86.8357C34.7457 86.9002 34.6169 86.9705 34.4879 87.0467C34.2304 87.1814 33.9787 87.3221 33.7271 87.4744C33.6919 87.3806 33.6509 87.2869 33.616 87.1931C33.7914 87.0877 33.9729 86.9822 34.1485 86.8826C34.2773 86.8123 34.4063 86.742 34.535 86.6775C34.7749 86.5428 35.021 86.408 35.2668 86.285C36.748 85.5115 38.3051 84.8729 39.8976 84.3631C41.3784 83.8944 42.8831 83.5077 44.4168 83.2674C44.4813 83.3495 44.5458 83.4315 44.6101 83.5135Z" fill="white"/>
<path d="M60.8589 101.418C60.8712 100.045 60.9602 94.5531 61.0872 93.1914L61.127 93.1891C61.2605 94.5121 61.3313 99.9343 61.3214 101.309C61.3015 104.051 61.3378 106.81 61.0164 109.537C61.0111 109.585 60.9309 109.596 60.9274 109.542C60.7225 106.84 60.8337 104.124 60.8589 101.418Z" fill="#17282F"/>
<path d="M41.0559 102.57C40.4771 101.597 39.8845 100.535 39.2883 99.4104H39.2886C39.8845 100.534 40.4775 101.598 41.0559 102.57ZM39.0466 98.9516C38.0117 96.9741 36.9707 94.8243 35.9801 92.6535H35.9809C36.9714 94.8249 38.0119 96.9735 39.0471 98.9516H39.0466ZM35.9524 92.5925C33.4494 87.1006 31.2715 81.4798 30.3229 78.1658C29.3085 74.6233 29.5138 72.4636 30.5795 71.7229C29.5163 72.4653 29.3121 74.6239 30.3254 78.1664C30.9188 80.2418 31.9955 83.2229 33.3321 86.5112C33.3331 86.5141 33.3339 86.517 33.3349 86.5194H33.3356C33.462 86.8311 33.5912 87.1458 33.7223 87.4622C33.7239 87.4663 33.7255 87.4704 33.7271 87.4745H33.7273C34.4191 89.1432 35.1701 90.8734 35.9531 92.5925H35.9524Z" fill="#E0E1DE"/>
<path d="M39.2889 99.4104H39.2886C39.2081 99.2586 39.1276 99.1057 39.0469 98.9516H39.0474C39.1279 99.1057 39.2084 99.2586 39.2889 99.4104ZM35.9812 92.6535H35.9803C35.9711 92.6335 35.9618 92.6125 35.9526 92.5925H35.9533C35.9625 92.6125 35.9721 92.6335 35.9812 92.6535Z" fill="#CCCDCB"/>
<path d="M30.5815 71.7217C30.5829 71.7208 30.5846 71.7199 30.586 71.719C30.5843 71.7199 30.5832 71.7208 30.5815 71.7217Z" fill="#E0E1DE"/>
<path d="M56.3218 109.906C52.054 109.636 47.441 109.097 45.4503 108.048C44.2729 107.428 42.7229 105.373 41.056 102.57C40.4777 101.598 39.8847 100.534 39.2888 99.4104C39.2083 99.2586 39.1278 99.1057 39.0473 98.9516C38.0121 96.9735 36.9715 94.8249 35.9811 92.6534C35.972 92.6335 35.9624 92.6124 35.9532 92.5925C35.1702 90.8734 34.4193 89.1432 33.7275 87.4744C33.979 87.3221 34.2308 87.1815 34.488 87.0467C35.4602 87.5096 36.4378 88.0018 37.4563 88.4002C39.0194 89.033 40.6997 89.4138 42.3975 89.449L43.2971 89.4279L56.3218 109.906ZM42.4032 89.0799C40.7523 89.0447 39.1246 88.6814 37.591 88.0604C36.6717 87.7029 35.7762 87.2693 34.8803 86.8358C35.0561 86.742 35.2317 86.6483 35.4073 86.5604C36.9535 85.7741 38.5613 85.1084 40.2124 84.5788L43.0636 89.0611L42.4032 89.0799ZM33.7224 87.4621C33.5914 87.1457 33.4622 86.8311 33.3358 86.5194H33.3408L33.3584 86.5662L33.3934 86.5428C33.6452 86.6541 33.8972 86.7654 34.1487 86.8826C33.973 86.9822 33.7915 87.0877 33.6161 87.1932C33.6497 87.2828 33.6884 87.3725 33.7224 87.4621ZM34.488 87.0467C34.3712 86.994 34.2601 86.9354 34.1487 86.8826C34.2775 86.8123 34.4064 86.742 34.5352 86.6776C34.6523 86.7303 34.7634 86.7889 34.8803 86.8358C34.7458 86.9002 34.617 86.9705 34.488 87.0467ZM34.5352 86.6776C34.2541 86.5487 33.973 86.4139 33.6861 86.2909C35.3323 84.9051 37.0607 83.6178 38.8934 82.5046L40.0459 84.3169C39.9963 84.3321 39.9469 84.3473 39.8978 84.3631C38.3052 84.8729 36.7481 85.5116 35.267 86.285C35.0211 86.408 34.7751 86.5428 34.5352 86.6776ZM33.3323 86.5112C31.9957 83.2229 30.919 80.2417 30.3256 78.1664C29.3123 74.6238 29.5165 72.4653 30.5797 71.7229C30.5801 71.7229 30.5808 71.7223 30.5813 71.7217C30.5824 71.7211 30.5831 71.7206 30.5843 71.72C30.8601 71.5301 31.193 71.4346 31.5774 71.4346C31.6696 71.4346 31.7647 71.4399 31.8626 71.451L38.7271 82.2433C36.8439 83.4022 35.0865 84.7358 33.411 86.1737C33.3291 86.1327 33.2413 86.0975 33.1535 86.0623C33.1887 86.1444 33.218 86.2264 33.253 86.3084C33.2811 86.3758 33.3092 86.4438 33.3323 86.5112Z" fill="#F4AC12"/>
<path d="M42.3973 89.449C40.6996 89.4138 39.0193 89.033 37.4562 88.4002C36.4377 88.0017 35.4601 87.5096 34.4879 87.0467C34.6169 86.9705 34.7457 86.9002 34.8801 86.8357C35.7761 87.2693 36.6716 87.7029 37.5909 88.0603C39.1245 88.6814 40.7522 89.0447 42.403 89.0798L43.0635 89.0611L43.297 89.4279L42.3973 89.449ZM33.7271 87.4744C33.7255 87.4703 33.7239 87.4662 33.7223 87.4621C33.6882 87.3724 33.6496 87.2828 33.616 87.1931C33.7914 87.0877 33.9729 86.9822 34.1485 86.8826C34.2599 86.9353 34.3711 86.9939 34.4879 87.0467C34.2307 87.1814 33.9789 87.3221 33.7273 87.4744H33.7271ZM34.1485 86.8826C33.897 86.7654 33.645 86.6541 33.3932 86.5428L33.3582 86.5662L33.3407 86.5193H33.3356H33.3349C33.334 86.517 33.3331 86.5141 33.3322 86.5111C33.3091 86.4437 33.2809 86.3758 33.2528 86.3084C33.2178 86.2264 33.1886 86.1443 33.1533 86.0623C33.2411 86.0975 33.329 86.1326 33.4109 86.1736C35.0864 84.7358 36.8438 83.4022 38.727 82.2432L38.8932 82.5045C37.0606 83.6178 35.3322 84.9051 33.6859 86.2908C33.9729 86.4139 34.254 86.5486 34.535 86.6775C34.4063 86.742 34.2773 86.8123 34.1485 86.8826ZM34.8801 86.8357C34.7632 86.7889 34.6521 86.7303 34.535 86.6775C34.7749 86.5428 35.021 86.408 35.2668 86.285C36.748 85.5115 38.3051 84.8729 39.8976 84.3631C39.9468 84.3473 39.9962 84.3321 40.0458 84.3168L40.2123 84.5787C38.5612 85.1084 36.9534 85.774 35.4072 86.5603C35.2316 86.6482 35.0559 86.742 34.8801 86.8357Z" fill="#E0E1DE"/>
<path d="M10.6309 120.348C10.7258 120.441 48.7289 117.838 49.047 117.423C49.4914 116.838 37.4645 78.1874 34.4501 72.5086C33.1654 70.0887 27.0205 69.7413 24.5909 72.0276C18.5087 77.7521 14.276 96.2622 13.3864 101.812C11.9087 110.957 10.2924 120.013 10.6309 120.348Z" fill="#F4A72A"/>
<path d="M44.4056 101.185C43.387 100.857 42.3566 100.582 41.3088 100.365C39.6634 100.025 37.9776 99.8844 36.3034 99.9079C34.6173 99.9313 32.9488 100.125 31.298 100.435C29.6529 100.746 28.0254 101.185 26.445 101.748C24.296 102.504 22.2416 103.476 20.2511 104.572C20.1338 104.63 20.0227 104.695 19.9115 104.759C19.0803 105.222 18.2664 105.703 17.4585 106.201C16.5627 106.751 15.6732 107.32 14.795 107.894C14.1099 108.334 13.4309 108.785 12.7517 109.23C12.5349 109.376 12.3126 109.517 12.0959 109.658C12.0785 109.751 12.0668 109.839 12.0552 109.927C12.9214 109.376 13.7762 108.814 14.6365 108.263C15.2455 107.871 15.8543 107.478 16.4692 107.097C16.838 106.863 17.2067 106.634 17.5815 106.412C18.4244 105.902 19.2852 105.404 20.1516 104.929C20.2628 104.865 20.3739 104.806 20.4908 104.748C22.4403 103.693 24.4545 102.767 26.5502 102.041C29.6881 100.963 32.9779 100.254 36.3034 100.177C37.9659 100.142 39.6287 100.277 41.2619 100.599C42.3509 100.816 43.4279 101.103 44.4877 101.443C44.4584 101.355 44.4289 101.267 44.4056 101.185ZM45.0496 103.259C44.0776 103.834 43.1295 104.437 42.1869 105.052C41.6248 105.416 41.0687 105.785 40.5068 106.142C40.4306 106.195 40.3604 106.242 40.2843 106.289C39.5171 106.781 38.7389 107.255 37.9483 107.701C36.4966 108.498 34.9686 109.189 33.3527 109.47C32.545 109.623 31.7195 109.669 30.8999 109.593C30.4899 109.552 30.0744 109.541 29.6705 109.482L28.4528 109.265C26.8429 108.89 25.3267 108.199 23.9507 107.279C23.1252 106.74 22.3408 106.13 21.5448 105.527C21.4453 105.451 21.3458 105.375 21.2404 105.298C20.9945 105.111 20.7428 104.923 20.4908 104.748C20.4091 104.683 20.333 104.63 20.2511 104.572C20.1338 104.49 20.0169 104.414 19.8999 104.332C18.5006 103.406 16.8554 102.709 15.1403 102.709C14.4554 102.709 13.7996 102.873 13.173 103.113C13.1556 103.218 13.1382 103.324 13.1204 103.429C13.7705 103.177 14.4494 103.002 15.1344 103.007C16.7855 103.025 18.3423 103.699 19.7064 104.619C19.7768 104.666 19.8411 104.712 19.9115 104.759C19.9934 104.818 20.0695 104.871 20.1516 104.929C20.3739 105.087 20.5964 105.252 20.813 105.421C20.9184 105.498 21.0179 105.574 21.1174 105.65C21.9779 106.306 22.8325 106.986 23.7518 107.584C25.1511 108.521 26.7141 109.242 28.365 109.623L29.6179 109.851C30.0334 109.91 30.4551 109.927 30.8766 109.968C31.7195 110.044 32.58 109.998 33.417 109.845C35.0974 109.552 36.6604 108.843 38.1298 108.029C39.0021 107.537 39.8509 107.003 40.6879 106.453C40.7583 106.412 40.8343 106.365 40.9047 106.318C41.3966 105.996 41.8883 105.673 42.3799 105.351C43.2933 104.748 44.2183 104.156 45.1549 103.593L45.0496 103.259ZM47.0166 109.722C46.6595 109.511 46.3082 109.3 45.9512 109.095C44.511 108.263 43.0358 107.49 41.5196 106.816C41.2443 106.693 40.9632 106.57 40.6879 106.453C40.5537 106.4 40.4187 106.341 40.2843 106.289C39.1601 105.832 38.0187 105.421 36.8479 105.111C35.2437 104.677 33.6102 104.39 31.9596 104.273C28.652 104.109 25.315 104.502 22.1185 105.363C21.9253 105.416 21.7321 105.468 21.5448 105.527C21.3984 105.562 21.258 105.603 21.1174 105.65C18.8809 106.318 16.7267 107.22 14.6365 108.263C14.0632 108.539 13.4892 108.837 12.9272 109.136C12.8688 109.166 12.8103 109.201 12.7517 109.23C12.5349 109.347 12.3184 109.464 12.1077 109.576C12.1254 109.476 12.1428 109.376 12.1606 109.277C12.3769 109.154 12.5937 109.037 12.8103 108.919C13.4657 108.562 14.1275 108.216 14.795 107.894C15.3452 107.613 15.9073 107.349 16.4692 107.097C17.8859 106.459 19.3321 105.89 20.813 105.421C20.9534 105.38 21.0997 105.334 21.2404 105.298C21.5038 105.211 21.7672 105.134 22.0364 105.064C23.6463 104.607 25.2974 104.302 26.9659 104.132C28.6284 103.962 30.3028 103.898 31.977 104.003C34.9217 104.226 37.7903 105.005 40.5068 106.142C40.6353 106.201 40.77 106.253 40.9047 106.318C41.1391 106.418 41.3733 106.523 41.6015 106.628C43.1233 107.314 44.5988 108.105 46.0331 108.949C46.3375 109.13 46.6421 109.306 46.9465 109.488C46.9698 109.57 46.9933 109.646 47.0166 109.722Z" fill="white"/>
<path d="M19.4863 76.4197C9.398 87.567 -1.97591 106.364 2.88997 110.379C7.33368 114.045 23.5644 110.557 33.767 106.565C35.709 105.805 27.8338 88.6093 25.8528 89.633C22.3775 91.4294 19.656 92.4706 19.3948 92.5415C18.8354 92.6944 21.903 88.9439 25.3183 79.9312C28.7893 70.7702 25.2525 70.0477 19.4863 76.4197Z" fill="#F68C95"/>
<path d="M50.6483 88.3511C50.6586 90.3497 45.733 89.9571 45.733 89.9571C45.733 89.9571 46.9081 90.6807 47.2323 91.9668C47.6039 93.4393 45.4593 94.668 45.4593 94.668C45.4593 94.668 46.4968 95.6471 46.7029 97.0398C46.9172 98.4853 44.9295 100.034 44.9295 100.034C44.9295 100.034 45.3958 101.478 44.7111 102.809C43.5402 105.086 39.6039 105.133 37.173 105.644C34.5688 106.191 30.7673 107.499 29.199 108.187L24.6807 90.2307C24.6807 90.2307 35.2259 83.9654 38.1726 84.106C40.6552 84.2238 50.6328 85.2966 50.6483 88.3511Z" fill="#F68C95"/>
<path d="M45.6923 89.9004C43.0831 89.1411 40.2975 89.0081 37.6076 88.9091C37.5479 88.9067 37.5453 89.001 37.6052 89.0028C40.2813 89.0696 43.0039 89.8547 45.6715 90.0282C45.7456 90.0329 45.7628 89.921 45.6923 89.9004Z" fill="#17282F"/>
<path d="M45.3877 94.4657C44.7924 94.3116 44.1478 94.3544 43.5381 94.3626C42.8816 94.3714 42.2257 94.3919 41.5699 94.4223C40.2567 94.4827 38.945 94.5735 37.6372 94.7024C37.5794 94.7083 37.5736 94.7985 37.6347 94.7956C38.9435 94.7376 40.2529 94.6989 41.5625 94.696C42.2182 94.6942 42.8738 94.6989 43.5292 94.7071C44.1391 94.7147 44.7817 94.7739 45.3822 94.6456C45.4712 94.6268 45.4776 94.4886 45.3877 94.4657Z" fill="#17282F"/>
<path d="M44.8747 100.035C44.3625 99.8804 43.7313 99.9958 43.2049 100.032C42.6071 100.071 42.0094 100.108 41.4114 100.142C40.2153 100.209 39.0196 100.275 37.822 100.3C37.7625 100.302 37.7593 100.394 37.8197 100.393C39.0365 100.374 40.2533 100.371 41.4701 100.341C42.0674 100.326 42.6647 100.308 43.2621 100.287C43.7697 100.269 44.4066 100.304 44.8805 100.095L44.8747 100.035Z" fill="#17282F"/>
<path d="M24.2094 90.0279L28.0956 109.344C28.0956 109.344 3.93704 115.652 1.43138 109.533C-1.07451 103.413 13.131 80.6999 21.3191 74.2196C29.5073 67.7386 26.4377 77.9496 26.1889 78.7658C25.083 82.3921 19.9305 91.8525 19.9305 91.8525L24.2094 90.0279Z" fill="#F4A72A"/>
<path d="M28.0954 109.341C28.0954 109.341 3.93477 115.652 1.42935 109.535C0.0826398 106.242 3.57186 98.15 8.35497 90.3631L8.4309 90.24C8.46609 90.1873 8.49536 90.1345 8.53036 90.0818C8.55964 90.0291 8.59482 89.9763 8.62983 89.9236C10.3861 87.0936 12.3123 84.3163 14.2266 81.8436C14.2908 81.7558 14.3612 81.6679 14.4315 81.58C16.8669 78.457 19.2788 75.8379 21.3221 74.2207C29.5062 67.7404 26.4384 77.9472 26.1868 78.7675C26.1107 79.0253 26.0112 79.3124 25.8941 79.623C25.8473 79.7402 25.8004 79.8691 25.7477 79.998C25.0743 81.7206 23.9622 84.0409 22.8968 86.1737C22.8499 86.2616 22.809 86.3494 22.7678 86.4315L22.7269 86.5135L22.6567 86.6483C21.2691 89.3845 20.0106 91.7048 19.9345 91.8454L24.2081 90.0291L28.0954 109.341Z" fill="#F4A72A"/>
<path d="M22.5279 81.6619C21.7961 82.0486 21.0411 82.3885 20.2507 82.6404C19.4721 82.8806 18.6466 83.033 17.8505 82.9451C16.6092 82.7986 15.456 82.2771 14.4315 81.5799C14.3613 81.6678 14.2908 81.7557 14.2266 81.8435C15.3037 82.5642 16.5157 83.1033 17.8153 83.2439C18.6815 83.3318 19.5363 83.1619 20.3386 82.9041C21.1463 82.6463 21.9132 82.2889 22.651 81.8904C23.7224 81.3221 24.7409 80.6717 25.7478 79.9979C25.8004 79.869 25.8473 79.7401 25.8941 79.6229C24.7994 80.3494 23.6929 81.0526 22.5279 81.6619ZM22.3347 86.531C19.3317 87.2634 16.3869 88.195 13.3894 88.9274C11.8206 89.32 10.2281 89.6657 8.62984 89.9235C8.59483 89.9762 8.55964 90.029 8.53037 90.0817C8.49537 90.1344 8.46609 90.1872 8.43091 90.2399C8.51872 90.2223 8.61245 90.2106 8.70026 90.193C10.2985 89.9235 11.8849 89.5661 13.4538 89.1677C16.2696 88.4587 19.033 87.5798 21.8371 86.8532C22.036 86.8005 22.2352 86.7478 22.4342 86.7009C22.5046 86.6833 22.5806 86.6599 22.6567 86.6482L22.7269 86.5134L22.7678 86.4314C22.6215 86.4607 22.4751 86.4958 22.3347 86.531ZM22.8968 86.1736C22.8499 86.2615 22.809 86.3493 22.7678 86.4314L22.7269 86.5134L22.4342 86.7009L20.0513 88.2536C18.6466 89.1501 17.218 90.0173 15.6902 90.7145C14.9231 91.0544 14.1271 91.3473 13.2958 91.5114C12.4763 91.6813 11.5748 91.7047 10.7666 91.4352C10.5617 91.3766 10.3511 91.3297 10.1522 91.2653L9.56675 91.0133C9.16269 90.8668 8.81735 90.6208 8.44279 90.4157L8.35498 90.363L8.43091 90.2399C8.46609 90.1872 8.49537 90.1344 8.53037 90.0817L8.61819 90.1462L8.70026 90.193C9.02822 90.3805 9.33832 90.6032 9.69549 90.7321L10.2576 90.9782C10.4506 91.0368 10.6498 91.0895 10.843 91.1481C11.6215 91.4059 12.4408 91.3942 13.243 91.236C14.045 91.0836 14.8237 90.8024 15.5847 90.4743C17.0952 89.8005 18.5235 88.9509 19.9345 88.072L21.8371 86.8532L22.3347 86.531L22.8968 86.1736Z" fill="white"/>
<path d="M23.7912 90.0437C21.0171 91.021 13.7455 94.6503 12.1509 96.1403L12.2062 96.2229C13.7775 95.1155 22.7635 90.7128 24.1676 90.1744L24.2662 90.3923C24.3128 90.4591 24.3494 90.4193 24.3478 90.3578L24.244 89.8873C24.244 89.8873 24.0942 89.9371 23.7912 90.0437Z" fill="#17282F"/>
<path d="M21.7252 100.85C21.4636 99.5023 20.4551 94.1035 20.3076 92.7436L20.3465 92.7337C20.7412 94.0034 21.8926 99.3019 22.157 100.651C22.6843 103.342 23.2706 106.038 23.4998 108.774L23.4131 108.797C22.6738 106.19 22.2406 103.507 21.7252 100.85Z" fill="#17282F"/>
<path d="M19.7388 91.9685C20.4971 90.3243 21.4198 88.757 22.2511 87.1492C23.0784 85.5484 23.9442 83.9559 24.7169 82.3282L24.754 82.3446C24.2827 83.4561 23.8136 84.5606 23.3121 85.6533C23.4631 85.4805 23.6078 85.3023 23.7478 85.1213C24.0028 84.792 24.239 84.4469 24.4695 84.1006L24.5045 84.1217C24.325 84.5137 24.0972 84.8746 23.8338 85.215C23.6376 85.4687 23.4153 85.6979 23.1893 85.9234C22.9824 86.3682 22.7699 86.8111 22.5472 87.2511C21.7228 88.8777 21.083 90.4878 20.0198 91.9731L19.7388 91.9685Z" fill="#17282F"/>
<path d="M11.7214 112.067C14.5726 112.029 25.3378 109.913 28.0021 109.368C27.9675 109.084 27.9771 108.986 27.9309 108.586C27.925 108.533 28.0069 108.508 28.0176 108.563C28.0922 108.942 28.3462 109.696 28.2399 109.739C26.9602 110.243 14.5199 112.419 11.7186 112.186C11.6425 112.18 11.6445 112.068 11.7214 112.067Z" fill="#17282F"/>
<path d="M40.7134 110.114L60.7558 112.814L68.361 84.934L48.3186 82.2334L40.7134 110.114Z" fill="#17282F"/>
<path d="M41.6982 110.246L61.7406 112.947L69.3459 85.0663L49.3038 82.3663L41.6982 110.246Z" fill="#273E47"/>
<path d="M58.3211 96.7684C58.0819 97.8336 57.0153 98.5789 55.9389 98.4342C54.8621 98.2889 54.1831 97.308 54.4226 96.2434C54.6613 95.1788 55.7281 94.4329 56.8047 94.5782C57.8816 94.7229 58.5606 95.7037 58.3211 96.7684Z" fill="white"/>
<path d="M69.1463 90.8136C69.9805 93.1603 72.3708 96.2124 72.4047 98.0633C72.4346 99.7344 71.0056 100.176 71.0056 100.176C71.0056 100.176 72.7361 101.271 72.4902 102.956C72.3632 103.823 70.868 104.381 70.868 104.381C70.868 104.381 72.2162 105.32 71.9054 106.805C71.6572 107.987 70.1959 108.37 70.1959 108.37C70.1959 108.37 71.0706 109.874 70.4313 110.998C69.1363 113.278 58.8229 112.228 57.6163 108.263C57.054 106.416 59.5594 106.809 59.5594 106.809C59.5594 106.809 56.0933 105.373 56.255 103.239C56.4169 101.105 59.6407 101.813 59.6407 101.813C59.6407 101.813 56.2941 100.392 56.6849 98.1969C57.0917 95.9118 60.1957 97.1721 60.1957 97.1721C60.1957 97.1721 58.0604 95.3833 58.7445 93.7714C59.8726 91.1095 63.864 95.0071 66.1852 94.6995L67.8156 91.0867L69.1463 90.8136Z" fill="#F68C95"/>
<path d="M70.8828 94.2759C70.2868 91.9849 73.2953 89.5375 73.04 87.2647C72.6941 84.1903 69.0117 86.7942 67.8157 91.0867L67.4727 94.5818L70.8828 94.2759Z" fill="#F68C95"/>
<path d="M69.9739 108.465L69.9786 108.519C66.5024 109.001 62.5355 108.464 59.4193 106.804C59.3169 106.749 59.3608 106.559 59.4849 106.598C63.0238 107.694 66.2524 108.386 69.9739 108.465Z" fill="#17282F"/>
<path d="M70.9158 104.408L70.9123 104.482C67.3277 104.959 62.8762 104.231 59.5094 101.894C59.394 101.814 59.3706 101.626 59.5105 101.708C61.8669 103.092 67.5648 104.354 70.9158 104.408Z" fill="#17282F"/>
<path d="M60.0033 96.9248C63.3185 99.0412 66.9774 99.8803 70.86 100.203L70.8564 100.286C68.914 100.646 66.4605 100.183 64.5825 99.6611C62.7834 99.1607 61.2602 98.3481 59.9295 97.0409C59.878 96.9905 59.9324 96.8797 60.0033 96.9248Z" fill="#17282F"/>
<path d="M35.1581 73.9916L35.13 73.9939C35.202 75.7253 35.2553 79.7383 32.5509 79.4395C31.4612 79.3188 30.48 78.6169 29.6622 77.9319C28.8227 77.2288 28.0791 76.4173 27.4097 75.5513C26.667 74.5904 25.9032 73.5838 25.3292 72.5115L25.2617 72.5572C25.8833 73.6271 26.3969 74.7363 27.1211 75.747C27.8184 76.7202 28.616 77.629 29.5502 78.3808C30.4256 79.085 31.4722 79.7876 32.6266 79.8596C33.7257 79.9282 34.5395 79.2649 34.8826 78.2554C35.3331 76.9288 35.3429 75.365 35.1581 73.9916Z" fill="#17282F"/>
<path d="M32.4897 77.6778C30.5372 77.8484 27.3396 74.188 26.4015 71.6621C26.3384 71.4881 26.8309 69.834 27.3343 67.795C27.635 66.5563 27.9405 65.1706 28.1282 63.8857L35.8941 67.0216C35.8941 67.0216 34.7093 69.5991 34.396 71.8414C34.3717 72.0289 34.3649 72.2058 34.3742 72.3769L34.3731 72.4654C34.39 73.4914 34.3768 77.512 32.4897 77.6778Z" fill="#F68C95"/>
<path d="M34.3729 72.378L34.3717 72.4635C34.1147 72.4653 33.8375 72.4378 33.5386 72.3909C28.8942 71.6046 28.6307 65.7359 28.6524 64.0988L30.5928 64.8816L35.8938 67.0226C35.8938 67.0226 34.7074 69.6007 34.398 71.8431C34.372 72.0294 34.3637 72.2057 34.3729 72.378Z" fill="#17282F"/>
<path d="M27.2384 55.0938C26.431 58.0029 28.1635 66.3044 30.2616 68.1125C33.3038 70.7334 38.1795 70.8688 40.378 67.2331C42.5089 63.7087 40.0597 52.93 37.7258 51.2976C34.2878 48.8935 28.4317 50.7966 27.2384 55.0938Z" fill="#F68C95"/>
<path d="M35.4218 60.3366L35.3891 60.3952C35.5206 60.9513 35.5778 61.6105 35.1099 61.8993L35.1209 61.9292C35.7205 61.7165 35.6356 60.8423 35.4218 60.3366Z" fill="#17282F"/>
<path d="M34.803 59.8538C33.8897 59.9693 34.1868 61.7891 35.0331 61.6825C35.8657 61.5776 35.5684 59.7571 34.803 59.8538Z" fill="#17282F"/>
<path d="M38.6003 59.7084L38.6518 59.7512C38.7262 60.3178 38.9061 60.9541 39.4465 61.0584L39.4469 61.0906C38.8107 61.1047 38.58 60.2575 38.6003 59.7084Z" fill="#17282F"/>
<path d="M39.0069 59.0375C39.9017 58.8207 40.2697 60.6277 39.4407 60.8287C38.625 61.0262 38.2573 59.2191 39.0069 59.0375Z" fill="#17282F"/>
<path d="M33.9496 59.1394C34.187 59.0363 34.3889 58.9015 34.6133 58.7756C34.8664 58.6332 35.0825 58.5465 35.2195 58.2758C35.2929 58.131 35.2156 57.9049 35.0816 57.8205C34.7695 57.623 34.4159 57.7203 34.1045 57.8791C33.7662 58.0514 33.5497 58.2705 33.3965 58.6174C33.2478 58.9537 33.6365 59.2748 33.9496 59.1394Z" fill="#17282F"/>
<path d="M39.5928 58.4814C39.3337 58.482 39.095 58.4387 38.8393 58.4123C38.5505 58.3824 38.3174 58.3883 38.0847 58.1949C37.9593 58.0912 37.9408 57.8527 38.0302 57.7215C38.2381 57.4168 38.601 57.3652 38.9498 57.3869C39.3287 57.4104 39.6148 57.5252 39.8931 57.783C40.1627 58.032 39.934 58.4814 39.5928 58.4814Z" fill="#17282F"/>
<path d="M35.5037 65.6092C35.6599 65.7194 35.8244 65.8794 36.0315 65.863C36.2302 65.8471 36.4454 65.7212 36.6137 65.6221L36.643 65.6468C36.5321 65.887 36.2465 66.0727 35.9778 66.0698C35.7157 66.0669 35.5536 65.8671 35.4536 65.6438L35.5037 65.6092Z" fill="#17282F"/>
<path d="M35.8198 63.6911C36.215 64.1288 36.7222 64.3204 37.2395 64.3356C37.4707 64.3438 37.7072 64.3133 37.9342 64.2542L38.0639 64.2178L38.1842 64.1786C38.2485 64.1581 38.2757 64.0977 38.2766 64.0338L38.2757 64.0297L38.261 63.9729L38.2603 63.9682L38.2514 63.919C38.1922 63.4837 38.0424 62.8303 38.0424 62.8303C38.2137 62.8837 39.0808 63.1151 39.0312 62.8907C38.6127 61.0316 38.1474 58.9644 37.3385 57.2031C37.3145 57.1433 37.2226 57.1732 37.2381 57.2341C37.5697 59.037 38.2155 60.7691 38.5775 62.5743C38.3038 62.5181 37.8537 62.4055 37.6273 62.4472C37.5688 62.4753 37.9395 63.7046 37.9507 63.9026L37.95 63.9237C37.2367 64.1364 36.6518 64.0057 35.8642 63.6313L35.8198 63.6911Z" fill="#17282F"/>
<path d="M37.6767 64.1464C37.6767 64.1464 37.3815 64.7177 36.8942 64.9854C36.7145 65.085 36.5137 65.1448 36.2893 65.1226C35.8286 65.078 35.7517 64.6737 35.7766 64.3134C35.7965 64.0169 35.8887 63.7491 35.8887 63.7491C35.8887 63.7491 36.6319 64.2495 37.6767 64.1464Z" fill="#17282F"/>
<path d="M36.8942 64.9854C36.7145 65.085 36.5137 65.1448 36.2893 65.1226C35.8286 65.078 35.7517 64.6737 35.7766 64.3134C36.2583 64.2853 36.7792 64.5308 36.8942 64.9854Z" fill="#F578BA"/>
<path d="M39.316 53.7214C38.8497 53.067 38.3339 52.4172 37.8689 52.3679C37.4038 52.3187 37.3464 53.439 36.3732 53.7185C35.6917 53.9142 35.1186 53.7168 34.4611 53.5187C33.8508 53.3347 33.1675 53.1508 32.2564 53.282C29.5383 53.6728 28.8406 56.1671 29.595 59.9844C30.2687 63.3939 28.2868 64.1562 28.2868 64.1562C28.2868 64.1562 25.4309 56.9329 27.0073 53.9974C28.5838 51.0619 33.1876 48.9227 36.9476 50.5879C38.3185 51.1949 39.316 53.7214 39.316 53.7214Z" fill="#17282F"/>
<path d="M29.6807 62.263C29.6807 62.263 27.6761 59.6533 26.4847 60.3804C25.2933 61.1082 26.8858 64.9507 28.3443 65.42C29.8028 65.8893 30.2636 64.5464 30.2636 64.5464L29.6807 62.263Z" fill="#F68C95"/>
<path d="M26.9686 61.4709L26.9629 61.5096C27.9867 61.8717 28.5589 62.7817 28.9732 63.7326C28.6572 63.3735 28.2406 63.1877 27.758 63.5662L27.7878 63.619C28.196 63.5123 28.4965 63.5703 28.7898 63.8879C28.9972 64.1129 29.1455 64.4023 29.2987 64.666C29.3497 64.7539 29.5102 64.6982 29.4713 64.5963L29.4619 64.5734C29.4292 63.2885 28.3512 61.5377 26.9686 61.4709Z" fill="#17282F"/>
<path d="M34.2401 49.5607C33.2302 49.2953 32.0354 49.0422 30.6992 49.0832C29.363 49.1242 25.2818 50.0933 24.4209 51.0777C23.56 52.0626 23.9103 55.9995 23.973 56.5743C24.0356 57.1485 24.8314 60.5533 26.2084 61.1891C27.5852 61.8242 26.786 55.9532 28.4497 53.7021C30.1136 51.4521 34.2401 49.5607 34.2401 49.5607Z" fill="#F4A72A"/>
<path d="M27.5254 56.2461C27.7067 55.2611 27.98 54.3377 28.4497 53.702C29.602 52.144 31.9353 50.7577 33.2611 50.0528C33.2623 50.0528 33.2632 50.0522 33.2641 50.0522C31.938 50.7571 29.6025 52.1434 28.4508 53.7032C27.9807 54.3377 27.7069 55.2617 27.5254 56.2461Z" fill="#142228"/>
<path d="M26.4008 61.2383C26.3416 61.2383 26.2773 61.223 26.2073 61.1906C26.1643 61.1706 26.1227 61.1494 26.082 61.1271C26.0822 61.1253 26.0824 61.1236 26.0827 61.1218C26.1241 61.1465 26.1659 61.1689 26.2085 61.1889C26.2782 61.2212 26.343 61.2365 26.4021 61.2365C26.5265 61.2371 26.629 61.1683 26.7148 61.0442C26.6285 61.1695 26.5259 61.2383 26.4008 61.2383Z" fill="#F68185"/>
<path d="M26.4018 61.2366C26.3426 61.2366 26.2778 61.2213 26.2081 61.1891C26.1656 61.1692 26.1237 61.1469 26.0823 61.1223C25.6085 60.8393 25.2079 60.2323 24.887 59.5479C24.8842 59.5415 24.8815 59.5345 24.8786 59.528C24.8712 57.7767 25.1459 55.0146 26.2822 52.9527C27.346 51.0209 29.5048 49.7899 31.9178 49.1254C32.769 49.2028 33.5462 49.3791 34.2391 49.5614C34.2192 49.5707 33.8341 49.7483 33.2608 50.0529C31.935 50.7578 29.6017 52.1441 28.4494 53.7021C27.9797 54.3378 27.7064 55.2613 27.5251 56.2462C27.1647 58.1991 27.1665 60.3922 26.7144 61.045C26.6286 61.1686 26.5262 61.2372 26.4018 61.2366Z" fill="#F4AC12"/>
<path d="M27.094 64.6103C26.9607 63.033 27.8898 58.6086 29.1764 55.9538C30.4629 53.2989 35.1303 51.1328 35.8198 51.0648C37.4935 50.8996 37.982 51.6367 38.2212 51.4468C38.4609 51.257 36.5058 49.6316 35.9949 49.4254C35.4841 49.2191 34.3295 49.0797 33.611 49.2103C32.8927 49.341 28.5164 50.4824 27.1981 52.6345C25.8799 54.786 24.428 60.4637 25.0606 61.7586C25.2126 62.0697 25.6798 62.2121 25.8912 62.6533C26.1681 63.2334 26.4059 63.9166 26.6561 64.3126C26.8577 64.6326 27.1054 64.7474 27.094 64.6103Z" fill="#F4A72A"/>
<path d="M29.3903 54.8197C28.9707 54.6434 28.5737 54.4424 28.1886 54.1981C27.8088 53.9567 27.4241 53.683 27.1117 53.3578L27.0703 53.3901C27.3669 53.7639 27.6832 54.0985 28.0832 54.3639C28.4669 54.6193 28.9156 54.8104 29.3672 54.9053L29.3903 54.8197Z" fill="#17282F"/>
<path d="M26.8345 63.0546C26.7733 62.9485 26.6839 62.8606 26.6134 62.761C26.5329 62.6474 26.4623 62.5267 26.4074 62.3984C26.3026 62.1528 26.2693 61.8915 26.1114 61.6689C25.9866 61.4925 25.8252 61.3501 25.665 61.2077C25.4823 61.0449 25.3006 60.8726 25.2587 60.6218L25.2065 60.6288C25.2788 61.1029 25.6493 61.3894 25.9182 61.7532C26.0906 61.9864 26.1295 62.2753 26.259 62.5302C26.3692 62.7458 26.5409 63.0177 26.7728 63.1167L26.8345 63.0546Z" fill="#17282F"/>
<path d="M27.1074 61.2847C26.9316 61.13 26.7479 60.9964 26.5865 60.8242C26.4319 60.6589 26.2908 60.4779 26.16 60.2933C26.0308 60.1105 25.9165 59.9183 25.7909 59.7338C25.6425 59.5152 25.4664 59.3119 25.329 59.0869L25.2876 59.1191C25.4305 59.3529 25.5328 59.6113 25.6681 59.8504C25.7843 60.056 25.9224 60.2517 26.0645 60.4404C26.2016 60.622 26.3517 60.7914 26.5211 60.9431C26.6817 61.0873 26.8847 61.2431 27.093 61.3093L27.1074 61.2847Z" fill="#17282F"/>
<path d="M27.4351 59.671C27.0703 59.4472 26.7209 59.166 26.4362 58.8461C26.155 58.5302 25.8908 58.1957 25.6319 57.8617L25.5869 57.8881C25.7995 58.2754 26.0079 58.6603 26.31 58.9878C26.4529 59.1425 26.6089 59.3001 26.7847 59.4179C26.9764 59.5462 27.1918 59.6394 27.4076 59.7185L27.4351 59.671Z" fill="#17282F"/>
<path d="M27.8228 58.1141C27.6305 58.0368 27.4917 57.9008 27.3444 57.7614C27.1818 57.6079 27.0226 57.4497 26.8692 57.2874C26.7217 57.1321 26.57 56.9798 26.423 56.8239C26.2746 56.6675 26.1253 56.5022 26.0537 56.2954L26.0034 56.3089C26.0476 56.5251 26.1548 56.7108 26.278 56.8907C26.4132 57.0876 26.5593 57.2745 26.7265 57.4456C26.8907 57.6132 27.0625 57.7731 27.2467 57.919C27.4075 58.0461 27.5934 58.1727 27.8036 58.1838L27.8228 58.1141Z" fill="#17282F"/>
<path d="M27.977 56.1922C27.81 56.0733 27.6451 55.9538 27.4878 55.8219C27.3318 55.6901 27.1814 55.5512 27.0343 55.41C26.8797 55.263 26.7201 55.1165 26.5753 54.9594L26.5342 54.9923C26.6508 55.1739 26.7665 55.3508 26.9104 55.5137C27.051 55.6737 27.2038 55.8196 27.3654 55.9579C27.5244 56.0932 27.6897 56.225 27.8648 56.3393C28.0334 56.4495 28.2259 56.5784 28.4267 56.6135L28.4608 56.5549C28.3255 56.4096 28.1381 56.3071 27.977 56.1922Z" fill="#17282F"/>
<path d="M30.4457 53.7455C30.2619 53.5779 30.0828 53.4139 29.8839 53.2645C29.6817 53.1127 29.4681 52.9744 29.2509 52.8461C28.8248 52.5948 28.3848 52.3733 27.9137 52.2209L27.8877 52.266C28.724 52.7817 29.5824 53.2627 30.4139 53.7871L30.4457 53.7455Z" fill="#17282F"/>
<path d="M31.179 52.2625C30.9917 52.1002 30.7899 51.959 30.5713 51.8436C30.1133 51.6004 29.6173 51.4463 29.1194 51.3098L29.0991 51.3584C29.5453 51.5635 29.9955 51.761 30.4296 51.9918C30.6434 52.1055 30.8577 52.2238 31.058 52.361C31.2597 52.4986 31.4252 52.675 31.6194 52.8203L31.6491 52.7969C31.5478 52.5877 31.3521 52.4131 31.179 52.2625Z" fill="#17282F"/>
<path d="M32.3803 51.4468C32.2066 51.2845 32.0161 51.145 31.8132 51.022C31.4281 50.7876 31.0101 50.6271 30.5699 50.5322L30.5562 50.5825C30.9707 50.7507 31.3732 50.9564 31.7529 51.1931C31.9436 51.3114 32.1279 51.4409 32.3134 51.5669C32.4984 51.6929 32.6651 51.8616 32.861 51.9683L32.8812 51.9419C32.7486 51.7561 32.5466 51.6009 32.3803 51.4468Z" fill="#17282F"/>
<path d="M33.1959 50.5223C33.0114 50.4145 32.8216 50.3172 32.6311 50.2205C32.4427 50.125 32.2517 50.0336 32.0418 50.0008L32.0283 50.0512C32.3871 50.2545 32.7425 50.4666 33.0967 50.6781C33.4306 50.8768 33.678 51.1627 33.9609 51.4229L33.987 51.4029C33.8065 51.0355 33.5504 50.7285 33.1959 50.5223Z" fill="#17282F"/>
<path d="M34.3257 50.0869C33.982 49.8379 33.591 49.7049 33.1842 49.6017L33.1704 49.6521C33.5514 49.7705 33.9024 49.9896 34.2279 50.2152C34.5602 50.4455 34.8458 50.7273 35.1197 51.0232L35.1508 51.005C34.9599 50.6365 34.6601 50.3289 34.3257 50.0869Z" fill="#17282F"/>
<path d="M35.9676 50.5438C35.9168 50.4677 35.8569 50.3962 35.7967 50.3282C35.6746 50.1894 35.5308 50.0687 35.3828 49.9585C35.0789 49.7323 34.7334 49.5759 34.392 49.4159L34.3716 49.4646C34.7071 49.6134 35.0185 49.8103 35.3092 50.0347C35.4521 50.1448 35.5831 50.2667 35.7082 50.3968C35.7695 50.4606 35.826 50.5274 35.8816 50.596C35.9335 50.6604 35.982 50.7437 36.0451 50.7964L36.0872 50.7724C36.0707 50.6927 36.0119 50.6112 35.9676 50.5438Z" fill="#17282F"/>
<path d="M36.9179 50.4807C36.8097 50.3717 36.6979 50.2703 36.5776 50.1748C36.4578 50.0799 36.3354 49.9938 36.2044 49.9147C36.0713 49.8338 35.9343 49.7576 35.8049 49.6715L35.7788 49.7166C35.9149 49.794 36.0393 49.8924 36.16 49.992C36.2739 50.0858 36.3892 50.1783 36.5035 50.2721C36.6176 50.3658 36.7319 50.4596 36.8454 50.5539C36.96 50.6488 37.0663 50.7643 37.1907 50.8457L37.2197 50.8164C37.1424 50.691 37.022 50.5838 36.9179 50.4807Z" fill="#17282F"/>
<path d="M72.7167 39.3936C71.9855 46.3896 65.7226 51.4708 58.7333 50.739C55.9082 50.4431 53.3971 49.2431 51.4524 47.4507L45.0854 48.3865L48.2712 42.877C47.4983 40.9944 47.1726 38.8997 47.3979 36.7435C48.1287 29.7475 54.3914 24.6663 61.3811 25.3982C68.3711 26.13 73.4479 32.3977 72.7167 39.3936Z" fill="white"/>
<path d="M72.7165 39.3937C73.1029 35.5547 71.6627 31.5686 68.8521 28.9314C67.4565 27.6125 65.7669 26.6129 63.9439 26.0334C62.118 25.4615 60.1644 25.325 58.2833 25.6086C56.4036 25.8969 54.5835 26.5976 53.0273 27.6869C51.4748 28.7779 50.1649 30.2046 49.2191 31.8435C48.2546 33.4788 47.7548 35.3532 47.6037 37.2334C47.4845 39.1207 47.7924 41.0302 48.4997 42.7827L48.5454 42.897L48.4848 43.0007L45.2801 48.4996L45.0525 48.1627L51.4257 47.2698L51.5137 47.2575L51.5761 47.3166C53.261 48.8992 55.3928 50.0043 57.6705 50.4578C58.2397 50.5732 58.8168 50.6453 59.3975 50.6682C59.9771 50.7297 60.5578 50.6863 61.1386 50.6652C62.2919 50.5469 63.4533 50.3518 64.5381 49.9164C65.627 49.508 66.6802 48.9725 67.6081 48.2606C68.0963 47.936 68.5091 47.5182 68.9522 47.1374C69.3427 46.7032 69.7742 46.3024 70.1096 45.8219C71.5702 43.9862 72.4343 41.7181 72.7165 39.3937ZM72.7165 39.3937C72.4507 41.7193 71.6013 43.9991 70.1477 45.8512C69.814 46.3358 69.3837 46.7419 68.9944 47.1801C68.5518 47.5657 68.1391 47.9887 67.6508 48.318C66.72 49.0364 65.6739 49.5983 64.5809 50.0289C63.4926 50.4877 62.3217 50.7062 61.1544 50.8469C60.5654 50.8791 59.9759 50.9324 59.3858 50.8809C58.7951 50.8674 58.2068 50.8041 57.6247 50.6969C55.2959 50.275 53.09 49.184 51.3284 47.5856L51.4787 47.6325L45.1179 48.6098L44.6562 48.6807L44.89 48.2735L48.0567 42.7534L48.0423 42.9714C46.4996 39.3351 46.847 35.0051 48.826 31.6179C49.8125 29.9216 51.1883 28.4597 52.8124 27.3699C54.4351 26.276 56.3171 25.591 58.2438 25.3297C60.1726 25.0736 62.1572 25.2494 63.999 25.8617C65.8384 26.4816 67.525 27.5246 68.9072 28.8745C71.7172 31.5476 73.1298 35.5588 72.7165 39.3937Z" fill="#17282F"/>
<path d="M58.568 45.3335L53.1323 39.8264L54.9583 38.0205L58.134 41.2373L64.7313 30.8857L66.8956 32.2673L58.568 45.3335Z" fill="#F4A72A"/>
</svg>
