<svg width="17" height="16" viewBox="0 0 17 16" fill="none" xmlns="http://www.w3.org/2000/svg">
<path d="M5.76316 4.44444V11.5556C5.76316 12.1607 6.00517 12.7404 6.43489 13.1673C6.8645 13.5941 7.44648 13.8333 8.05263 13.8333H15.6053V14.2222C15.6053 14.9208 15.027 15.5 14.3158 15.5H1.78947C1.44643 15.5 1.11809 15.3646 0.876517 15.1246C0.635053 14.8847 0.5 14.56 0.5 14.2222V1.77778C0.5 1.43995 0.635053 1.1153 0.876517 0.87541C1.11809 0.635414 1.44643 0.5 1.78947 0.5H14.3158C15.027 0.5 15.6053 1.07923 15.6053 1.77778V2.16667H8.05263C7.44648 2.16667 6.8645 2.40585 6.43489 2.83265C6.00517 3.25956 5.76316 3.83928 5.76316 4.44444ZM8.55263 5.33333C8.55263 5.12367 8.72831 4.94444 8.94737 4.94444H16.5V11.0556H8.94737C8.72831 11.0556 8.55263 10.8763 8.55263 10.6667V5.33333ZM9.78947 8C9.78947 9.01701 10.6159 9.83333 11.6316 9.83333C12.6473 9.83333 13.4737 9.01701 13.4737 8C13.4737 6.98299 12.6473 6.16667 11.6316 6.16667C10.6159 6.16667 9.78947 6.98299 9.78947 8Z" stroke="white"/>
</svg>
