<svg width="17" height="16" fill="#000" version="1.1" viewBox="0 0 17 16" xmlns="http://www.w3.org/2000/svg">
 <path d="m1.7891 0c-0.47462 0-0.93006 0.18811-1.2656 0.52148-0.33534 0.33316-0.52344 0.78477-0.52344 1.2559v12.445c0 0.47107 0.18808 0.92267 0.52344 1.2559 0.33557 0.33338 0.79102 0.52148 1.2656 0.52148h12.527c0.98266 0 1.7891-0.80281 1.7891-1.7773v-0.88867h-8.0527c-0.47461 0-0.92992-0.18798-1.2656-0.52148-0.33575-0.33355-0.52344-0.78603-0.52344-1.2578v-7.1094c0-0.47186 0.18769-0.92426 0.52344-1.2578 0.3357-0.3335 0.79101-0.52148 1.2656-0.52148h8.0527v-0.88867c0-0.9745-0.80638-1.7773-1.7891-1.7773h-12.527zm0 1h12.527c0.37667 0 0.59443 0.32565 0.67578 0.66602h-6.9395c-0.73768 0-1.4472 0.29241-1.9707 0.8125-0.52369 0.52026-0.81836 1.2283-0.81836 1.9668v7.1094c0 0.73842 0.29467 1.4465 0.81836 1.9668 0.52351 0.52009 1.233 0.8125 1.9707 0.8125h6.9395c-0.081349 0.3404-0.2991 0.66602-0.67578 0.66602h-12.527c-0.21147 0-0.41297-0.083853-0.56055-0.23047-0.14757-0.14661-0.22852-0.34234-0.22852-0.54688v-12.445c0-0.20457 0.080932-0.40025 0.22852-0.54688 0.14758-0.14662 0.34909-0.23047 0.56055-0.23047zm7.1582 3.4453c-0.49178 0-0.89453 0.3997-0.89453 0.88867v5.332c0 0.48899 0.40264 0.88867 0.89453 0.88867h8.0527v-7.1094h-8.0527zm0.10547 1h6.9473v5.1094h-6.9473v-5.1094zm2.5781 0.2207c-1.2836 0-2.3418 1.0461-2.3418 2.334s1.0582 2.334 2.3418 2.334c1.2836 0 2.3438-1.0461 2.3438-2.334s-1.0602-2.334-2.3438-2.334zm0 1c0.7478 0 1.3438 0.58784 1.3438 1.334s-0.59595 1.334-1.3438 1.334c-0.7478 0-1.3418-0.58784-1.3418-1.334s0.594-1.334 1.3418-1.334z"/>
</svg>
