<svg width="64" height="64" viewBox="0 0 64 64" fill="none" xmlns="http://www.w3.org/2000/svg">
<path d="M61.4065 16.7391L61.4043 16.7357C61.3953 16.7213 61.3872 16.7076 61.38 16.6948C61.131 16.3142 60.7688 15.9878 60.3204 15.7575C60.3202 15.7574 60.3201 15.7573 60.3199 15.7572L32.8614 1.68098C32.8609 1.68075 32.8605 1.68051 32.86 1.68028C32.4145 1.45374 31.9062 1.33203 31.3848 1.33203C30.8633 1.33203 30.3549 1.45378 29.9093 1.6804C29.909 1.68059 29.9086 1.68079 29.9082 1.68098L2.44942 15.7573C2.44932 15.7574 2.44921 15.7575 2.44911 15.7575C2.00267 15.9866 1.64181 16.3109 1.39275 16.689C1.3852 16.7028 1.37674 16.7175 1.36733 16.7328L1.36119 16.7429L1.36113 16.7428C1.12229 17.1227 1.0009 17.5439 1 17.9663V46.0337C1.00057 46.4666 1.12722 46.8984 1.37655 47.286C1.6265 47.6745 1.99331 48.0077 2.44911 48.242L61.4065 16.7391ZM61.4065 16.7391C61.6467 17.1201 61.7686 17.5429 61.7692 17.9667V46.0333C61.7688 46.4664 61.6422 46.8983 61.3928 47.286C61.1428 47.6747 60.7758 48.0081 60.3197 48.2425L32.8617 62.3184C32.8612 62.3187 32.8607 62.3189 32.8601 62.3192C32.4333 62.536 31.9481 62.6558 31.4487 62.6632L31.4277 62.6635L31.4068 62.6647C31.3984 62.6651 31.3904 62.6657 31.3829 62.6663C31.3772 62.6658 31.3713 62.6653 31.3652 62.6649L31.339 62.6631L31.3128 62.6626C30.8161 62.6542 30.3336 62.5345 29.909 62.319C29.9085 62.3187 29.908 62.3185 29.9075 62.3182L2.44987 48.2424L61.4065 16.7391ZM31.4636 62.6754L31.4621 62.6752C31.4651 62.6756 31.4668 62.6758 31.466 62.6757L31.4636 62.6754ZM61.3293 16.5927L61.3316 16.5978C61.3299 16.594 61.3285 16.5909 61.3293 16.5927ZM30.2879 1.96356L30.2854 1.96485L19.3292 7.58108L17.5833 8.47606L19.3333 9.36297L46.9887 23.3785L47.4461 23.6102L47.9012 23.3742L59.2762 17.4748L60.9978 16.5819L59.2719 15.6972L32.4845 1.96486L32.482 1.96356C32.1418 1.7904 31.7644 1.70219 31.3849 1.70219C31.0055 1.70219 30.6281 1.7904 30.2879 1.96356ZM31.2726 31.5293L31.7299 31.7611L32.185 31.525L45.2512 24.7485L46.9826 23.8505L45.2428 22.9688L17.572 8.94561L17.1174 8.71519L16.6638 8.94772L3.52083 15.6854L1.77497 16.5804L3.52497 17.4672L31.2726 31.5293ZM2.82327 47.9566L2.82382 47.9569L29.6397 61.7041L31.0774 62.4411L31.0958 60.8256L31.4159 32.7032L31.423 32.0811L30.868 31.7998L3.06745 17.7105L1.61539 16.9746V18.6025L1.61538 46.0343L1.61539 46.0354C1.61584 46.4424 1.73565 46.8353 1.9531 47.1732L2.79098 46.634L1.9531 47.1732C2.16988 47.51 2.47341 47.777 2.82327 47.9566ZM59.9461 47.9569L60.0692 47.8937L60.0842 47.8798C60.3761 47.7041 60.6291 47.4645 60.8168 47.1724C61.034 46.8346 61.1535 46.4418 61.1539 46.035V46.0343V18.6256V16.9805L59.6935 17.7379L48.2953 23.6491L47.7557 23.929V24.5369V38.0815C47.7557 38.0976 47.7495 38.1353 47.7009 38.1795C47.649 38.2265 47.5594 38.2676 47.448 38.2676C47.3366 38.2676 47.247 38.2265 47.1951 38.1795C47.1465 38.1353 47.1403 38.0976 47.1403 38.0815V25.8934V24.2483L45.6799 25.0057L32.5716 31.8041L32.0389 32.0804L32.032 32.6804L31.7117 60.7829L31.6928 62.4403L33.1678 61.6842L59.9461 47.9569Z" stroke="#515151" stroke-width="2"/>
</svg>
