<svg width="22" height="22" viewBox="0 0 22 22" fill="none" xmlns="http://www.w3.org/2000/svg">
<mask id="path-1-inside-1_1879_111615" fill="white">
<path d="M21.3993 5.4566C21.3973 5.45354 21.3964 5.45018 21.3945 5.44712C21.3936 5.44559 21.3923 5.44437 21.3912 5.44284C21.2711 5.25677 21.0988 5.10283 20.892 4.99661L11.4521 0.157372C11.2494 0.0541919 11.0209 0 10.7885 0C10.5561 0 10.3276 0.0541919 10.125 0.157372L0.685068 4.99661C0.476654 5.10354 0.303416 5.2589 0.183179 5.44671C0.182617 5.44773 0.181606 5.44855 0.180932 5.44957C0.179246 5.45242 0.178571 5.45548 0.176886 5.45823C0.0613273 5.64201 0.000375796 5.84986 0 6.06143V15.7101C0.000234594 15.9267 0.0637587 16.1393 0.184101 16.3264C0.304443 16.5135 0.477302 16.6682 0.685068 16.775L10.125 21.6142C10.3186 21.7126 10.536 21.7661 10.7579 21.7698C10.7667 21.7705 10.775 21.7724 10.7839 21.7725H10.7886C10.7978 21.7725 10.8066 21.7706 10.8155 21.77C11.0387 21.7668 11.2574 21.7132 11.4521 21.6142L20.892 16.775C21.0997 16.6682 21.2726 16.5134 21.3929 16.3264C21.5132 16.1393 21.5767 15.9267 21.5769 15.7101V6.06143C21.5766 5.84925 21.5154 5.6408 21.3993 5.4566ZM10.5674 0.867184C10.635 0.8328 10.7111 0.814741 10.7886 0.814741C10.866 0.814741 10.9422 0.8328 11.0097 0.867184L20.2179 5.58768L16.3078 7.61559L6.80123 2.79776L10.5674 0.867184ZM10.9053 10.4174L1.3671 5.5836L5.88499 3.26754L15.3968 8.08802L10.9053 10.4174ZM1.12751 16.0651C1.05822 16.0296 1.00057 15.978 0.96044 15.9156C0.920306 15.8532 0.899119 15.7824 0.899039 15.7101V6.28047L10.4555 11.1237L10.3455 20.7907L1.12751 16.0651ZM20.4496 16.0651L11.2446 20.7839L11.3547 11.1237L15.8607 8.78672V12.9764C15.8607 13.0845 15.9081 13.1882 15.9924 13.2647C16.0767 13.3411 16.191 13.3841 16.3102 13.3841C16.4295 13.3841 16.5438 13.3411 16.6281 13.2647C16.7124 13.1882 16.7598 13.0845 16.7598 12.9764V8.32041L20.6779 6.28842V15.7101C20.6778 15.7823 20.6567 15.8532 20.6166 15.9155C20.5765 15.9779 20.519 16.0294 20.4498 16.065L20.4496 16.0651Z"/>
</mask>
<path d="M21.3945 5.44712L20.5325 5.95401L20.5393 5.96559L20.5465 5.97699L21.3945 5.44712ZM21.3912 5.44284L20.551 5.98515L20.5674 6.01065L20.5854 6.0351L21.3912 5.44284ZM20.892 4.99661L21.3487 4.10702L21.3482 4.10672L20.892 4.99661ZM11.4521 0.157372L11.9083 -0.732516L11.9058 -0.73377L11.4521 0.157372ZM10.7885 0V-1V0ZM10.125 0.157372L9.67125 -0.733774L9.66879 -0.732512L10.125 0.157372ZM0.685068 4.99661L0.228881 4.10672L0.228574 4.10688L0.685068 4.99661ZM0.183179 5.44671L-0.659014 4.90754L-0.676714 4.93518L-0.692562 4.96393L0.183179 5.44671ZM0.180932 5.44957L-0.653087 4.89783L-0.667138 4.91907L-0.680089 4.941L0.180932 5.44957ZM0.176886 5.45823L1.0235 5.99057L1.02963 5.98057L0.176886 5.45823ZM0 6.06143L-1 6.05965V6.06143H0ZM0 15.7101H-1L-0.999999 15.7112L0 15.7101ZM0.685068 16.775L0.228116 17.6645L0.228881 17.6648L0.685068 16.775ZM10.125 21.6142L9.66878 22.5041L9.67193 22.5057L10.125 21.6142ZM10.7579 21.7698L10.8275 20.7723L10.8013 20.7704L10.775 20.77L10.7579 21.7698ZM10.7839 21.7725L10.7724 22.7725H10.7839V21.7725ZM10.8155 21.77L10.8008 20.7701L10.7799 20.7705L10.759 20.7716L10.8155 21.77ZM11.4521 21.6142L11.9054 22.5055L11.9083 22.5041L11.4521 21.6142ZM20.892 16.775L21.3482 17.6648L21.349 17.6644L20.892 16.775ZM21.5769 15.7101L22.5769 15.7111V15.7101H21.5769ZM21.5769 6.06143H22.5769L22.5769 6.05997L21.5769 6.06143ZM10.5674 0.867184L10.1138 -0.0240023L10.1112 -0.0227104L10.5674 0.867184ZM10.7886 0.814741V1.81474V0.814741ZM11.0097 0.867184L11.4659 -0.0227022L11.4634 -0.0239988L11.0097 0.867184ZM20.2179 5.58768L20.6783 6.47539L22.3999 5.58252L20.6741 4.69779L20.2179 5.58768ZM16.3078 7.61559L15.8557 8.50759L16.313 8.73935L16.7682 8.50331L16.3078 7.61559ZM6.80123 2.79776L6.34506 1.90787L4.59913 2.80285L6.34917 3.68975L6.80123 2.79776ZM10.9053 10.4174L10.4533 11.3094L10.9106 11.5412L11.3657 11.3051L10.9053 10.4174ZM1.3671 5.5836L0.910909 4.69372L-0.83495 5.58872L0.915052 6.47559L1.3671 5.5836ZM5.88499 3.26754L6.33704 2.37555L5.88239 2.14513L5.4288 2.37766L5.88499 3.26754ZM15.3968 8.08802L15.8572 8.97574L17.5887 8.07775L15.8489 7.19603L15.3968 8.08802ZM1.12751 16.0651L0.670756 16.9547L0.67131 16.955L1.12751 16.0651ZM0.899039 15.7101H-0.100962L-0.100961 15.7112L0.899039 15.7101ZM0.899039 6.28047L1.3511 5.38848L-0.100961 4.65257V6.28047H0.899039ZM10.4555 11.1237L11.4554 11.1351L11.4625 10.5129L10.9075 10.2317L10.4555 11.1237ZM10.3455 20.7907L9.88926 21.6806L11.327 22.4177L11.3454 20.8021L10.3455 20.7907ZM20.4496 16.0651L20.9058 16.955L21.0269 16.8929L21.1271 16.8007L20.4496 16.0651ZM11.2446 20.7839L10.2447 20.7725L10.2258 22.4299L11.7008 21.6738L11.2446 20.7839ZM11.3547 11.1237L10.8943 10.236L10.3616 10.5122L10.3548 11.1123L11.3547 11.1237ZM15.8607 8.78672H16.8607V7.1416L15.4003 7.89901L15.8607 8.78672ZM15.9924 13.2647L16.6642 12.524L15.9924 13.2647ZM16.7598 8.32041L16.2994 7.43269L15.7598 7.71254V8.32041H16.7598ZM20.6779 6.28842H21.6779V4.64332L20.2175 5.4007L20.6779 6.28842ZM20.6779 15.7101L21.6779 15.7109V15.7101H20.6779ZM20.4498 16.065L19.9924 15.1758L19.872 15.2377L19.7723 15.3295L20.4498 16.065ZM22.2473 4.92673C22.2716 4.96559 22.2885 4.99875 22.2986 5.01968C22.3037 5.0302 22.3076 5.03873 22.3098 5.04379C22.3119 5.04837 22.3136 5.05225 22.3131 5.05114C22.3131 5.05112 22.3125 5.04984 22.3119 5.0484C22.3112 5.04683 22.3101 5.04437 22.3088 5.04139C22.3061 5.03552 22.3019 5.02619 22.2964 5.01488C22.2856 4.99236 22.2678 4.95764 22.2426 4.91725L20.5465 5.97699C20.5222 5.93813 20.5053 5.90498 20.4952 5.88405C20.4901 5.87353 20.4862 5.86499 20.4839 5.85993C20.4819 5.85535 20.4802 5.85147 20.4807 5.85258C20.4807 5.8526 20.4813 5.85388 20.4819 5.85533C20.4826 5.8569 20.4837 5.85935 20.485 5.86234C20.4876 5.8682 20.4919 5.87753 20.4973 5.88884C20.5082 5.91136 20.5259 5.94608 20.5512 5.98647L22.2473 4.92673ZM22.2565 4.94023C22.2306 4.89619 22.2058 4.8617 22.1879 4.83829C22.1707 4.81571 22.1561 4.79877 22.1518 4.79376C22.15 4.79164 22.1473 4.78847 22.1489 4.79032C22.1493 4.79084 22.1522 4.79423 22.156 4.79863C22.1634 4.80739 22.1788 4.82591 22.1969 4.85058L20.5854 6.0351C20.6041 6.06053 20.6201 6.07978 20.6281 6.08925C20.6321 6.09401 20.6354 6.09774 20.6361 6.09861C20.638 6.1008 20.6356 6.09798 20.634 6.0962C20.6303 6.09188 20.6164 6.07562 20.5996 6.05375C20.5823 6.03105 20.558 5.99728 20.5325 5.95401L22.2565 4.94023ZM22.2313 4.90053C22.0113 4.55959 21.7035 4.28919 21.3487 4.10702L20.4352 5.8862C20.4942 5.91646 20.5308 5.95396 20.551 5.98515L22.2313 4.90053ZM21.3482 4.10672L11.9083 -0.732512L10.9959 1.04726L20.4358 5.88649L21.3482 4.10672ZM11.9058 -0.73377C11.5594 -0.910119 11.175 -1 10.7885 -1V1C10.8668 1 10.9394 1.0185 10.9983 1.04851L11.9058 -0.73377ZM10.7885 -1C10.402 -1 10.0176 -0.910119 9.67125 -0.73377L10.5787 1.04851C10.6376 1.0185 10.7102 1 10.7885 1V-1ZM9.66879 -0.732512L0.228881 4.10672L1.14125 5.88649L10.5812 1.04726L9.66879 -0.732512ZM0.228574 4.10688C-0.128876 4.29028 -0.438575 4.56321 -0.659014 4.90754L1.02537 5.98589C1.04541 5.95459 1.08218 5.9168 1.14156 5.88634L0.228574 4.10688ZM-0.692562 4.96393C-0.659355 4.9037 -0.626302 4.85861 -0.605022 4.8314C-0.594078 4.8174 -0.584686 4.80617 -0.578281 4.79867C-0.572037 4.79135 -0.567074 4.78576 -0.56565 4.78416C-0.565023 4.78345 -0.564195 4.78252 -0.564778 4.78318C-0.564988 4.78341 -0.566114 4.78468 -0.567521 4.78627C-0.570266 4.78937 -0.576226 4.79615 -0.583584 4.80489C-0.597785 4.82176 -0.624181 4.85414 -0.653087 4.89783L1.01495 6.0013C0.986381 6.04449 0.960365 6.07638 0.946561 6.09278C0.939401 6.10129 0.933644 6.10783 0.931103 6.1107C0.929798 6.11218 0.928774 6.11333 0.928667 6.11345C0.928186 6.11399 0.929116 6.11295 0.929845 6.11212C0.931789 6.10993 0.949675 6.08999 0.970393 6.0635C0.992042 6.03581 1.02543 5.99024 1.05892 5.92949L-0.692562 4.96393ZM-0.680089 4.941C-0.705234 4.98357 -0.722598 5.02011 -0.733172 5.04377C-0.738461 5.05561 -0.742529 5.06532 -0.744969 5.07123C-0.74621 5.07424 -0.747205 5.07668 -0.747794 5.07814C-0.748298 5.07939 -0.74882 5.08068 -0.748688 5.08036C-0.748686 5.08035 -0.748656 5.08028 -0.748614 5.08017C-0.74857 5.08006 -0.748503 5.0799 -0.748419 5.07969C-0.748255 5.07928 -0.747993 5.07864 -0.747667 5.07783C-0.747028 5.07626 -0.74599 5.07372 -0.74468 5.07058C-0.74211 5.0644 -0.737868 5.05439 -0.732298 5.04215C-0.72119 5.01772 -0.702797 4.97988 -0.675855 4.9359L1.02963 5.98057C1.05741 5.93521 1.07652 5.89595 1.08828 5.87009C1.09418 5.85712 1.09873 5.84639 1.1016 5.83949C1.10429 5.83304 1.10645 5.82766 1.10651 5.82752C1.10721 5.82578 1.10554 5.82993 1.10368 5.83444C1.10154 5.83962 1.09779 5.8486 1.09282 5.8597C1.0829 5.8819 1.06625 5.91699 1.04195 5.95814L-0.680089 4.941ZM-0.66967 4.92593C-0.882409 5.26427 -0.99928 5.65524 -0.999998 6.05965L0.999998 6.0632C1.00003 6.04448 1.00506 6.01976 1.02344 5.99053L-0.66967 4.92593ZM-1 6.06143V15.7101H1V6.06143H-1ZM-0.999999 15.7112C-0.999552 16.1247 -0.877882 16.524 -0.656884 16.8675L1.02508 15.7853C1.0054 15.7547 1.00002 15.7287 0.999999 15.7091L-0.999999 15.7112ZM-0.656884 16.8675C-0.436548 17.2099 -0.127905 17.4816 0.228116 17.6645L1.14202 15.8855C1.08251 15.8549 1.04543 15.817 1.02508 15.7853L-0.656884 16.8675ZM0.228881 17.6648L9.66879 22.5041L10.5812 20.7243L1.14125 15.8851L0.228881 17.6648ZM9.67193 22.5057C10.0038 22.6743 10.3707 22.7634 10.7408 22.7697L10.775 20.77C10.7013 20.7687 10.6334 20.7508 10.578 20.7227L9.67193 22.5057ZM10.6883 22.7674C10.6655 22.7658 10.648 22.7637 10.6402 22.7628C10.6363 22.7623 10.6335 22.7619 10.6334 22.7619C10.6313 22.7616 10.6364 22.7623 10.6382 22.7625C10.6442 22.7633 10.6614 22.7656 10.6828 22.7676C10.7051 22.7698 10.7358 22.772 10.7724 22.7724L10.7953 20.7726C10.8274 20.7729 10.8538 20.7749 10.8718 20.7766C10.8889 20.7782 10.9018 20.78 10.9035 20.7802C10.9041 20.7803 10.9045 20.7803 10.9041 20.7803C10.9037 20.7802 10.9041 20.7803 10.9034 20.7802C10.903 20.7801 10.9025 20.7801 10.9019 20.78C10.8996 20.7797 10.8947 20.779 10.8886 20.7782C10.8765 20.7767 10.8546 20.7742 10.8275 20.7723L10.6883 22.7674ZM10.7839 22.7725H10.7886V20.7725H10.7839V22.7725ZM10.7886 22.7725C10.8256 22.7725 10.8567 22.7705 10.8791 22.7687C10.9006 22.7669 10.9179 22.7648 10.9239 22.764C10.9255 22.7638 10.931 22.7631 10.9287 22.7634C10.9286 22.7634 10.9257 22.7638 10.9217 22.7643C10.9138 22.7651 10.8957 22.7671 10.8721 22.7684L10.759 20.7716C10.7309 20.7732 10.7083 20.7756 10.696 20.777C10.6897 20.7777 10.6846 20.7784 10.6823 20.7787C10.6812 20.7788 10.6799 20.7789 10.6799 20.779C10.6795 20.779 10.6798 20.779 10.6804 20.7789C10.6819 20.7787 10.6947 20.7771 10.7118 20.7757C10.7296 20.7742 10.7562 20.7725 10.7886 20.7725V22.7725ZM10.8302 22.7699C11.2025 22.7645 11.5717 22.6753 11.9054 22.5055L10.9987 20.7229C10.9431 20.7511 10.8748 20.7691 10.8008 20.7701L10.8302 22.7699ZM11.9083 22.5041L21.3482 17.6648L20.4358 15.8851L10.9959 20.7243L11.9083 22.5041ZM21.349 17.6644C21.705 17.4815 22.0136 17.2099 22.2339 16.8674L20.5519 15.7854C20.5315 15.817 20.4945 15.8549 20.435 15.8855L21.349 17.6644ZM22.2339 16.8674C22.4549 16.5239 22.5765 16.1246 22.5769 15.7111L20.5769 15.7092C20.5769 15.7288 20.5715 15.7548 20.5519 15.7854L22.2339 16.8674ZM22.5769 15.7101V6.06143H20.5769V15.7101H22.5769ZM22.5769 6.05997C22.5763 5.65439 22.4589 5.26232 22.2452 4.92328L20.5533 5.98992C20.5718 6.01927 20.5769 6.0441 20.5769 6.06288L22.5769 6.05997ZM11.0211 1.75837C10.9449 1.79712 10.8652 1.81474 10.7886 1.81474V-0.185259C10.557 -0.185259 10.325 -0.131524 10.1138 -0.0239988L11.0211 1.75837ZM10.7886 1.81474C10.7119 1.81474 10.6322 1.79712 10.5561 1.75837L11.4634 -0.0239988C11.2522 -0.131524 11.0201 -0.185259 10.7886 -0.185259V1.81474ZM10.5535 1.75707L19.7617 6.47756L20.6741 4.69779L11.4659 -0.0226985L10.5535 1.75707ZM19.7575 4.69996L15.8474 6.72788L16.7682 8.50331L20.6783 6.47539L19.7575 4.69996ZM16.7598 6.7236L7.25328 1.90577L6.34917 3.68975L15.8557 8.50759L16.7598 6.7236ZM7.25739 3.68766L11.0236 1.75708L10.1112 -0.0227104L6.34506 1.90787L7.25739 3.68766ZM11.3574 9.52544L1.81915 4.69161L0.915052 6.47559L10.4533 11.3094L11.3574 9.52544ZM1.82329 6.47348L6.34118 4.15742L5.4288 2.37766L0.910909 4.69372L1.82329 6.47348ZM5.43294 4.15953L14.9448 8.98001L15.8489 7.19603L6.33704 2.37555L5.43294 4.15953ZM14.9364 7.20031L10.4449 9.52972L11.3657 11.3051L15.8572 8.97574L14.9364 7.20031ZM1.58426 15.1756C1.66328 15.2161 1.74146 15.2814 1.80135 15.3744L0.11953 16.4568C0.259694 16.6746 0.453168 16.843 0.670756 16.9547L1.58426 15.1756ZM1.80135 15.3744C1.86191 15.4685 1.8989 15.5843 1.89904 15.709L-0.100961 15.7112C-0.100662 15.9804 -0.0213006 16.238 0.11953 16.4568L1.80135 15.3744ZM1.89904 15.7101V6.28047H-0.100961V15.7101H1.89904ZM0.446979 7.17245L10.0034 12.0157L10.9075 10.2317L1.3511 5.38848L0.446979 7.17245ZM9.45555 11.1123L9.34553 20.7794L11.3454 20.8021L11.4554 11.1351L9.45555 11.1123ZM10.8017 19.9009L1.5837 15.1753L0.67131 16.955L9.88926 21.6806L10.8017 19.9009ZM19.9935 15.1753L10.7884 19.894L11.7008 21.6738L20.9058 16.955L19.9935 15.1753ZM12.2445 20.7953L12.3547 11.1351L10.3548 11.1123L10.2447 20.7725L12.2445 20.7953ZM11.8151 12.0114L16.3211 9.67444L15.4003 7.89901L10.8943 10.236L11.8151 12.0114ZM14.8607 8.78672V12.9764H16.8607V8.78672H14.8607ZM14.8607 12.9764C14.8607 13.383 15.0397 13.7506 15.3206 14.0054L16.6642 12.524C16.7765 12.6258 16.8607 12.786 16.8607 12.9764H14.8607ZM15.3206 14.0054C15.5982 14.2572 15.9556 14.3841 16.3102 14.3841V12.3841C16.4264 12.3841 16.5552 12.4251 16.6642 12.524L15.3206 14.0054ZM16.3102 14.3841C16.6649 14.3841 17.0223 14.2572 17.2999 14.0054L15.9563 12.524C16.0653 12.4251 16.1941 12.3841 16.3102 12.3841V14.3841ZM17.2999 14.0054C17.5808 13.7506 17.7598 13.383 17.7598 12.9764H15.7598C15.7598 12.786 15.844 12.6258 15.9563 12.524L17.2999 14.0054ZM17.7598 12.9764V8.32041H15.7598V12.9764H17.7598ZM17.2201 9.20813L21.1383 7.17614L20.2175 5.4007L16.2994 7.43269L17.2201 9.20813ZM19.6779 6.28842V15.7101H21.6779V6.28842H19.6779ZM19.6779 15.7094C19.678 15.5847 19.7149 15.4689 19.7754 15.3748L21.4578 16.4562C21.5985 16.2374 21.6777 15.9799 21.6779 15.7109L19.6779 15.7094ZM19.7754 15.3748C19.8353 15.2817 19.9134 15.2164 19.9924 15.1758L20.9071 16.9543C21.1245 16.8425 21.3178 16.674 21.4578 16.4562L19.7754 15.3748ZM19.7723 15.3295L19.7722 15.3296L21.1271 16.8007L21.1272 16.8006L19.7723 15.3295Z" fill="#515151" mask="url(#path-1-inside-1_1879_111615)"/>
</svg>
