<svg width="30" height="22" viewBox="0 0 30 22" fill="none" xmlns="http://www.w3.org/2000/svg">
<mask id="path-1-inside-1_542_103626" fill="white">
<path d="M27.2503 10.8797L25.8672 10.1291V21.6172H28.6349C29.378 21.6172 29.9818 21.0268 29.9818 20.2994V5.35374C29.9818 4.62567 29.378 4.03676 28.6349 4.03676H25.8672V5.43424L26.4533 6.57221L28.6002 6.81214C28.6649 6.81891 28.7187 6.86103 28.741 6.92045C28.7641 6.97986 28.7495 7.04607 28.7049 7.09195L27.2203 8.6248L27.5026 10.712C27.5102 10.7744 27.4818 10.8368 27.428 10.8714C27.3757 10.9068 27.3056 10.9105 27.2503 10.8797Z"/>
</mask>
<path d="M25.8672 10.1291H24.8672V8.44856L26.3442 9.25017L25.8672 10.1291ZM25.8672 21.6172V22.6172H24.8672V21.6172H25.8672ZM25.8672 4.03676H24.8672V3.03676H25.8672V4.03676ZM25.8672 5.43424L24.9782 5.89213L24.8672 5.67664V5.43424H25.8672ZM26.4533 6.57221L26.3423 7.56603L25.8097 7.50651L25.5643 7.03011L26.4533 6.57221ZM28.6002 6.81214L28.4961 7.80672L28.4892 7.80595L28.6002 6.81214ZM28.741 6.92045L27.8088 7.2825L27.8048 7.27192L28.741 6.92045ZM28.7049 7.09195L27.9865 6.39624L27.9879 6.3948L28.7049 7.09195ZM27.2203 8.6248L26.2293 8.75883L26.1642 8.27778L26.5019 7.92909L27.2203 8.6248ZM27.5026 10.712L28.4936 10.5779L28.495 10.5897L27.5026 10.712ZM27.428 10.8714L26.868 10.0429L26.8776 10.0364L26.8874 10.0301L27.428 10.8714ZM26.7733 11.7586L25.3902 11.008L26.3442 9.25017L27.7273 10.0008L26.7733 11.7586ZM26.8672 10.1291V21.6172H24.8672V10.1291H26.8672ZM25.8672 20.6172H28.6349V22.6172H25.8672V20.6172ZM28.6349 20.6172C28.8466 20.6172 28.9818 20.4538 28.9818 20.2994H30.9818C30.9818 21.5997 29.9093 22.6172 28.6349 22.6172V20.6172ZM28.9818 20.2994V5.35374H30.9818V20.2994H28.9818ZM28.9818 5.35374C28.9818 5.19976 28.8477 5.03676 28.6349 5.03676V3.03676C29.9082 3.03676 30.9818 4.05158 30.9818 5.35374H28.9818ZM28.6349 5.03676H25.8672V3.03676H28.6349V5.03676ZM26.8672 4.03676V5.43424H24.8672V4.03676H26.8672ZM26.7562 4.97635L27.3423 6.11432L25.5643 7.03011L24.9782 5.89213L26.7562 4.97635ZM26.5644 5.5784L28.7113 5.81833L28.4892 7.80595L26.3423 7.56603L26.5644 5.5784ZM28.7044 5.81758C29.1457 5.86382 29.5217 6.15484 29.6772 6.56897L27.8048 7.27192C27.9157 7.56722 28.184 7.77401 28.4961 7.8067L28.7044 5.81758ZM29.6732 6.55841C29.8437 6.99733 29.728 7.4742 29.4218 7.78911L27.9879 6.3948C27.7709 6.61794 27.6845 6.96239 27.8089 7.28248L29.6732 6.55841ZM29.4232 7.78766L27.9386 9.32051L26.5019 7.92909L27.9865 6.39624L29.4232 7.78766ZM28.2112 8.49076L28.4935 10.5779L26.5116 10.846L26.2293 8.75883L28.2112 8.49076ZM28.495 10.5897C28.549 11.0275 28.3507 11.4672 27.9685 11.7127L26.8874 10.0301C26.6129 10.2065 26.4715 10.5214 26.5101 10.8343L28.495 10.5897ZM27.9879 11.7C27.6301 11.9418 27.1559 11.9717 26.7638 11.7534L27.7367 10.006C27.4554 9.84938 27.1212 9.87182 26.868 10.0429L27.9879 11.7Z" fill="#515151" mask="url(#path-1-inside-1_542_103626)"/>
<mask id="path-3-inside-2_542_103626" fill="white">
<path d="M22.0841 6.89114L22.8664 6.77604V4.03676H20.4772V1.24482C20.4764 0.557369 19.908 0.000802994 19.2049 5.14984e-05H18.3256V1.6758H18.7641V4.03676H11.2203V1.6758H11.6572V5.14984e-05H10.7787C10.0757 0.000802994 9.50563 0.557369 9.50563 1.24482V4.03676H7.11719V21.6172H22.8664V8.02834L21.9895 7.17319C21.9441 7.12956 21.928 7.06338 21.9472 7.00396C21.9687 6.94454 22.021 6.90016 22.0841 6.89114Z"/>
</mask>
<path d="M22.8664 6.77604H23.8664V7.63968L23.012 7.76539L22.8664 6.77604ZM22.8664 4.03676V3.03676H23.8664V4.03676H22.8664ZM20.4772 4.03676V5.03676H19.4772V4.03676H20.4772ZM20.4772 1.24482L21.4772 1.2437V1.24482H20.4772ZM19.2049 5.14984e-05V-0.999949H19.206L19.2049 5.14984e-05ZM18.3256 5.14984e-05H17.3256V-0.999949H18.3256V5.14984e-05ZM18.3256 1.6758V2.6758H17.3256V1.6758H18.3256ZM18.7641 1.6758V0.675797H19.7641V1.6758H18.7641ZM18.7641 4.03676H19.7641V5.03676H18.7641V4.03676ZM11.2203 4.03676V5.03676H10.2203V4.03676H11.2203ZM11.2203 1.6758H10.2203V0.675797H11.2203V1.6758ZM11.6572 1.6758H12.6572V2.6758H11.6572V1.6758ZM11.6572 5.14984e-05V-0.999949H12.6572V5.14984e-05H11.6572ZM10.7787 5.14984e-05L10.7777 -0.999949H10.7787V5.14984e-05ZM9.50563 4.03676H10.5056V5.03676H9.50563V4.03676ZM7.11719 4.03676H6.11719V3.03676H7.11719V4.03676ZM7.11719 21.6172V22.6172H6.11719V21.6172H7.11719ZM22.8664 21.6172H23.8664V22.6172H22.8664V21.6172ZM22.8664 8.02834L23.5646 7.31239L23.8664 7.60673V8.02834H22.8664ZM21.9895 7.17319L22.6825 6.45222L22.6876 6.45724L21.9895 7.17319ZM21.9472 7.00396L20.9958 6.69603L21.0011 6.6795L21.0071 6.66317L21.9472 7.00396ZM21.9385 5.90179L22.7209 5.78669L23.012 7.76539L22.2297 7.88049L21.9385 5.90179ZM21.8664 6.77604V4.03676H23.8664V6.77604H21.8664ZM22.8664 5.03676H20.4772V3.03676H22.8664V5.03676ZM19.4772 4.03676V1.24482H21.4772V4.03676H19.4772ZM19.4772 1.24594C19.4771 1.13016 19.3759 1.00023 19.2038 1.00005L19.206 -0.999949C20.44 -0.998629 21.4758 -0.0154171 21.4772 1.2437L19.4772 1.24594ZM19.2049 1.00005H18.3256V-0.999949H19.2049V1.00005ZM19.3256 5.14984e-05V1.6758H17.3256V5.14984e-05H19.3256ZM18.3256 0.675797H18.7641V2.6758H18.3256V0.675797ZM19.7641 1.6758V4.03676H17.7641V1.6758H19.7641ZM18.7641 5.03676H11.2203V3.03676H18.7641V5.03676ZM10.2203 4.03676V1.6758H12.2203V4.03676H10.2203ZM11.2203 0.675797H11.6572V2.6758H11.2203V0.675797ZM10.6572 1.6758V5.14984e-05H12.6572V1.6758H10.6572ZM11.6572 1.00005H10.7787V-0.999949H11.6572V1.00005ZM10.7798 1.00005C10.6058 1.00024 10.5056 1.13172 10.5056 1.24482H8.50563C8.50563 -0.0169754 9.54547 -0.998631 10.7777 -0.999949L10.7798 1.00005ZM10.5056 1.24482V4.03676H8.50563V1.24482H10.5056ZM9.50563 5.03676H7.11719V3.03676H9.50563V5.03676ZM8.11719 4.03676V21.6172H6.11719V4.03676H8.11719ZM7.11719 20.6172H22.8664V22.6172H7.11719V20.6172ZM21.8664 21.6172V8.02834H23.8664V21.6172H21.8664ZM22.1683 8.74429L21.2913 7.88914L22.6876 6.45724L23.5646 7.31239L22.1683 8.74429ZM21.2965 7.89414C20.972 7.58223 20.8601 7.11541 20.9958 6.69603L22.8986 7.31188C22.9959 7.01134 22.9162 6.67689 22.6825 6.45224L21.2965 7.89414ZM21.0071 6.66317C21.1487 6.27229 21.4974 5.9649 21.9425 5.90122L22.2257 7.88105C22.5446 7.83543 22.7887 7.61679 22.8873 7.34474L21.0071 6.66317Z" fill="#515151" mask="url(#path-3-inside-2_542_103626)"/>
<mask id="path-5-inside-3_542_103626" fill="white">
<path d="M0 5.35374V20.2994C0 21.0268 0.603828 21.6172 1.34691 21.6172H4.1146V4.03676H1.34691C0.603828 4.03676 0 4.62567 0 5.35374Z"/>
</mask>
<path d="M4.1146 21.6172H5.1146V22.6172H4.1146V21.6172ZM4.1146 4.03676V3.03676H5.1146V4.03676H4.1146ZM1 5.35374V20.2994H-1V5.35374H1ZM1 20.2994C1 20.4538 1.1352 20.6172 1.34691 20.6172V22.6172C0.0724532 22.6172 -1 21.5997 -1 20.2994H1ZM1.34691 20.6172H4.1146V22.6172H1.34691V20.6172ZM3.1146 21.6172V4.03676H5.1146V21.6172H3.1146ZM4.1146 5.03676H1.34691V3.03676H4.1146V5.03676ZM1.34691 5.03676C1.13406 5.03676 1 5.19976 1 5.35374H-1C-1 4.05158 0.0736001 3.03676 1.34691 3.03676V5.03676Z" fill="#515151" mask="url(#path-5-inside-3_542_103626)"/>
<path d="M6.61719 21.1172V4.53676H4.61719V21.1172H6.61719Z" stroke="#515151"/>
<path d="M23.8988 6.11878L24.7143 4.53685H23.3672V6.19709L23.8988 6.11878Z" stroke="#515151"/>
<mask id="path-9-inside-4_542_103626" fill="white">
<path d="M22.8672 8.02834V21.6172H25.8672V10.1291L25.3841 9.86733L23.5087 10.9C23.4533 10.9308 23.3841 10.9279 23.3303 10.8933C23.2772 10.8579 23.2495 10.7962 23.2564 10.7338L23.5233 8.66766L22.8672 8.02834Z"/>
</mask>
<path d="M22.8672 21.6172V22.6172H21.8672V21.6172H22.8672ZM25.8672 21.6172H26.8672V22.6172H25.8672V21.6172ZM25.8672 10.1291L26.3436 9.24983L26.8672 9.53353V10.1291H25.8672ZM25.3841 9.86733L24.9017 8.99136L25.3802 8.72788L25.8605 8.98809L25.3841 9.86733ZM23.5087 10.9L23.0222 10.0263L23.0264 10.024L23.5087 10.9ZM23.3303 10.8933L22.7897 11.7346L22.7828 11.7301L22.7759 11.7256L23.3303 10.8933ZM23.2564 10.7338L22.2625 10.6236L22.2635 10.6146L22.2646 10.6057L23.2564 10.7338ZM23.5233 8.66766L24.2212 7.95143L24.5791 8.30018L24.5151 8.79579L23.5233 8.66766ZM23.8672 8.02834V21.6172H21.8672V8.02834H23.8672ZM22.8672 20.6172H25.8672V22.6172H22.8672V20.6172ZM24.8672 21.6172V10.1291H26.8672V21.6172H24.8672ZM25.3908 11.0083L24.9077 10.7466L25.8605 8.98809L26.3436 9.24983L25.3908 11.0083ZM25.8664 10.7433L23.9911 11.776L23.0264 10.024L24.9017 8.99136L25.8664 10.7433ZM23.9952 11.7737C23.6071 11.9898 23.1434 11.9618 22.7897 11.7346L23.8708 10.052C23.6248 9.89386 23.2996 9.87191 23.0222 10.0263L23.9952 11.7737ZM22.7759 11.7256C22.4043 11.478 22.2153 11.0488 22.2625 10.6236L24.2503 10.844C24.2836 10.5437 24.1501 10.2378 23.8846 10.061L22.7759 11.7256ZM22.2646 10.6057L22.5316 8.53952L24.5151 8.79579L24.2481 10.8619L22.2646 10.6057ZM22.8255 9.38388L22.1693 8.74457L23.5651 7.31211L24.2212 7.95143L22.8255 9.38388Z" fill="#515151" mask="url(#path-9-inside-4_542_103626)"/>
<path d="M17.8247 1.17578V0.500037H12.1562V1.17578H17.8247Z" stroke="#515151"/>
</svg>
