<svg width="15" height="15" viewBox="0 0 15 15" fill="none" xmlns="http://www.w3.org/2000/svg">
<path d="M13.75 1.40559H11.7188V0.468086C11.7188 0.343766 11.6695 0.224505 11.5817 0.136538C11.4938 0.0485719 11.3746 -0.000893571 11.2503 -0.000976451C11.126 -0.00105933 11.0067 0.0482472 10.9188 0.136096C10.8308 0.223945 10.7813 0.343141 10.7812 0.467461V1.40559H7.96875V0.468086C7.96879 0.406529 7.95671 0.345566 7.93319 0.288679C7.90967 0.231792 7.87518 0.180095 7.83168 0.136538C7.78818 0.0929817 7.73653 0.0584194 7.67967 0.0348246C7.62282 0.0112298 7.56187 -0.00093542 7.50031 -0.000976458C7.37599 -0.00105934 7.25673 0.0482472 7.16876 0.136096C7.0808 0.223945 7.03133 0.343141 7.03125 0.467461V1.40559H4.21875V0.468086C4.21879 0.406529 4.20671 0.345566 4.18319 0.288679C4.15967 0.231792 4.12518 0.180095 4.08168 0.136538C4.03818 0.0929817 3.98653 0.0584194 3.92967 0.0348246C3.87282 0.0112298 3.81187 -0.00093542 3.75031 -0.000976458C3.62599 -0.00105934 3.50673 0.0482472 3.41876 0.136096C3.3308 0.223945 3.28133 0.343141 3.28125 0.467461V1.40559H1.25C0.918588 1.40559 0.60074 1.5372 0.366337 1.77148C0.131935 2.00577 0.000165706 2.32355 0 2.65496V13.7487C0 14.0802 0.131696 14.3982 0.366117 14.6326C0.600537 14.867 0.918479 14.9987 1.25 14.9987H13.75C14.0815 14.9987 14.3995 14.867 14.6339 14.6326C14.8683 14.3982 15 14.0802 15 13.7487V2.65496C14.9998 2.32355 14.8681 2.00577 14.6337 1.77148C14.3993 1.5372 14.0814 1.40559 13.75 1.40559ZM14.0625 13.7493C14.0625 13.8321 14.0297 13.9115 13.9712 13.9701C13.9127 14.0287 13.8334 14.0617 13.7506 14.0618H1.25C1.16712 14.0618 1.08763 14.0289 1.02903 13.9703C0.970424 13.9117 0.9375 13.8322 0.9375 13.7493V2.65559C0.937666 2.57281 0.970663 2.49349 1.02925 2.43502C1.08784 2.37655 1.16723 2.34371 1.25 2.34371H3.28125V3.28121C3.28117 3.40553 3.33047 3.52479 3.41832 3.61276C3.50617 3.70073 3.62537 3.75019 3.74969 3.75027C3.87401 3.75036 3.99327 3.70105 4.08124 3.6132C4.1692 3.52535 4.21867 3.40616 4.21875 3.28184V2.34371H7.03125V3.28121C7.03117 3.40553 7.08047 3.52479 7.16832 3.61276C7.25617 3.70073 7.37537 3.75019 7.49969 3.75027C7.62401 3.75036 7.74327 3.70105 7.83124 3.6132C7.9192 3.52535 7.96867 3.40616 7.96875 3.28184V2.34371H10.7812V3.28121C10.7812 3.40553 10.8305 3.52479 10.9183 3.61276C11.0062 3.70073 11.1254 3.75019 11.2497 3.75027C11.374 3.75036 11.4933 3.70105 11.5812 3.6132C11.6692 3.52535 11.7187 3.40616 11.7188 3.28184V2.34371H13.75C13.8327 2.34388 13.9119 2.37679 13.9703 2.43524C14.0288 2.49369 14.0617 2.57292 14.0619 2.65559L14.0625 13.7493Z" fill="#515151"/>
<path d="M3.28125 5.625H5.15625V7.03125H3.28125V5.625Z" fill="#515151"/>
<path d="M3.28125 7.96875H5.15625V9.375H3.28125V7.96875Z" fill="#515151"/>
<path d="M3.28125 10.3125H5.15625V11.7188H3.28125V10.3125Z" fill="#515151"/>
<path d="M6.5625 10.3125H8.4375V11.7188H6.5625V10.3125Z" fill="#515151"/>
<path d="M6.5625 7.96875H8.4375V9.375H6.5625V7.96875Z" fill="#515151"/>
<path d="M6.5625 5.625H8.4375V7.03125H6.5625V5.625Z" fill="#515151"/>
<path d="M9.84375 10.3125H11.7188V11.7188H9.84375V10.3125Z" fill="#515151"/>
<path d="M9.84375 7.96875H11.7188V9.375H9.84375V7.96875Z" fill="#515151"/>
<path d="M9.84375 5.625H11.7188V7.03125H9.84375V5.625Z" fill="#515151"/>
</svg>
