<svg width="19" height="14" viewBox="0 0 19 14" fill="none" xmlns="http://www.w3.org/2000/svg">
<path d="M12.8071 3.06348V1.38937C12.8065 0.976783 12.4506 0.643147 12.0104 0.642553H6.74043C6.3009 0.643147 5.94497 0.976783 5.94434 1.38937V3.06348H7.01656V1.64819H11.7349V3.06348H12.8071Z" fill="white"/>
<mask id="path-2-inside-1_2535_95543" fill="white">
<path d="M18.74 3.73927C18.6805 3.35814 18.3334 3.0637 17.9097 3.0637H12.8076H11.7354H9.68146H9.26662H7.01702H5.94479H0.843286C0.416419 3.0637 0.0680854 3.36171 0.0117188 3.7464L8.07342 8.66895V8.51639H10.679V8.62144L18.74 3.73927Z"/>
</mask>
<path d="M0.0117188 3.7464L-0.509419 4.59987L-1.07354 4.25541L-0.977716 3.60142L0.0117188 3.7464ZM8.07342 8.66895H9.07342V10.4512L7.55228 9.52242L8.07342 8.66895ZM8.07342 8.51639H7.07342V7.51639H8.07342V8.51639ZM10.679 8.51639V7.51639H11.679V8.51639H10.679ZM10.679 8.62144L11.197 9.47679L9.67896 10.3962V8.62144H10.679ZM17.752 3.8936C17.7735 4.0315 17.8741 4.0637 17.9097 4.0637V2.0637C18.7928 2.0637 19.5874 2.68479 19.728 3.58493L17.752 3.8936ZM17.9097 4.0637H12.8076V2.0637H17.9097V4.0637ZM12.8076 4.0637H11.7354V2.0637H12.8076V4.0637ZM11.7354 4.0637H9.68146V2.0637H11.7354V4.0637ZM9.68146 4.0637H9.26662V2.0637H9.68146V4.0637ZM9.26662 4.0637H7.01702V2.0637H9.26662V4.0637ZM7.01702 4.0637H5.94479V2.0637H7.01702V4.0637ZM5.94479 4.0637H0.843286V2.0637H5.94479V4.0637ZM0.843286 4.0637C0.878522 4.0637 0.980723 4.03081 1.00115 3.89138L-0.977716 3.60142C-0.844552 2.69261 -0.0456843 2.0637 0.843286 2.0637V4.0637ZM0.532857 2.89293L8.59456 7.81547L7.55228 9.52242L-0.509419 4.59987L0.532857 2.89293ZM7.07342 8.66895V8.51639H9.07342V8.66895H7.07342ZM8.07342 7.51639H10.679V9.51639H8.07342V7.51639ZM11.679 8.51639V8.62144H9.67896V8.51639H11.679ZM10.1609 7.76608L18.222 2.88391L19.2581 4.59462L11.197 9.47679L10.1609 7.76608Z" fill="white" mask="url(#path-2-inside-1_2535_95543)"/>
<mask id="path-4-inside-2_2535_95543" fill="white">
<path d="M0 4.03818V12.8153C0 13.2522 0.377463 13.6055 0.842963 13.6055H17.9094C18.3749 13.6055 18.7517 13.2522 18.7517 12.8153V4.03047L10.6786 8.92035V10.3594H8.0731V8.96844L0 4.03818Z"/>
</mask>
<path d="M18.7517 4.03047L18.2337 3.17514L19.7517 2.25564V4.03047H18.7517ZM10.6786 8.92035H9.67863V8.35692L10.1606 8.06502L10.6786 8.92035ZM10.6786 10.3594H11.6786V11.3594H10.6786V10.3594ZM8.0731 10.3594V11.3594H7.0731V10.3594H8.0731ZM8.0731 8.96844L8.59429 8.115L9.0731 8.40741V8.96844H8.0731ZM1 4.03818V12.8153H-1V4.03818H1ZM1 12.8153C1 12.7361 0.963869 12.6756 0.930615 12.6445C0.898579 12.6145 0.865156 12.6055 0.842963 12.6055V14.6055C-0.112393 14.6055 -1 13.865 -1 12.8153H1ZM0.842963 12.6055H17.9094V14.6055H0.842963V12.6055ZM17.9094 12.6055C17.8871 12.6055 17.8533 12.6145 17.8211 12.6448C17.7876 12.6762 17.7517 12.7366 17.7517 12.8153H19.7517C19.7517 13.864 18.8657 14.6055 17.9094 14.6055V12.6055ZM17.7517 12.8153V4.03047H19.7517V12.8153H17.7517ZM19.2698 4.88581L11.1967 9.77569L10.1606 8.06502L18.2337 3.17514L19.2698 4.88581ZM11.6786 8.92035V10.3594H9.67863V8.92035H11.6786ZM10.6786 11.3594H8.0731V9.35938H10.6786V11.3594ZM7.0731 10.3594V8.96844H9.0731V10.3594H7.0731ZM7.5519 9.82188L-0.521196 4.89162L0.521196 3.18475L8.59429 8.115L7.5519 9.82188Z" fill="white" mask="url(#path-4-inside-2_2535_95543)"/>
</svg>
