<svg width="36" height="28" viewBox="0 0 36 28" fill="none" xmlns="http://www.w3.org/2000/svg">
<path d="M30.6771 11.8411C31.3237 11.8411 31.9482 11.7416 32.5359 11.5648L31.1033 16.3727C30.9269 16.9658 30.2767 17.4485 29.6559 17.4485H14.1502C13.5331 17.4485 12.8792 16.9622 12.6992 16.3727L9.0698 4.46899C8.8898 3.87952 9.24612 3.3932 9.86694 3.3932H24.5424C24.3441 4.01952 24.2302 4.68268 24.2302 5.37531C24.2302 8.94531 27.1175 11.8411 30.6771 11.8411ZM31.0629 18.7895H12.8829C12.06 18.8337 11.4759 17.2679 11.4759 17.2679L6.87673 2.25478C6.81429 1.60636 6.27061 1.10899 5.62041 1.10899H1.26367C0.565714 1.10899 0 1.67268 0 2.37268C0 3.07268 0.565714 3.64005 1.26367 3.64005H4.47429L8.96327 17.4595C9.38939 18.9664 9.90735 19.9832 10.6494 20.5985L10.1094 21.7074C9.62082 22.4958 9.37469 23.0964 9.36367 23.7116C9.36 24.0211 9.44816 24.349 9.62449 24.6032C9.89633 24.99 10.2784 25.1485 10.5649 25.2222C10.8624 25.2958 11.1159 25.2995 11.2996 25.2995H12.1739C12.2033 24.6695 12.4163 24.0911 12.758 23.6122H11.2959C11.2078 23.6158 11.1196 23.6085 11.0535 23.5974C11.0939 23.4243 11.2298 23.0669 11.5531 22.5622L11.5788 22.5216L12.1922 21.269C12.409 21.3022 12.6367 21.3206 12.8829 21.3206H31.0629C31.7571 21.3206 32.3229 20.7569 32.3229 20.0569C32.3229 19.3606 31.7571 18.7895 31.0629 18.7895ZM15.2816 22.9122C13.8894 22.9122 12.7616 24.0432 12.7616 25.4395C12.7616 26.8322 13.8894 27.9669 15.2816 27.9669C16.6739 27.9669 17.798 26.8358 17.798 25.4395C17.8016 24.0432 16.6739 22.9122 15.2816 22.9122ZM28.0469 22.9122C26.6547 22.9122 25.5306 24.0432 25.5306 25.4395C25.5306 26.8322 26.6547 27.9669 28.0469 27.9669C29.4392 27.9669 30.5633 26.8358 30.5633 25.4395C30.5633 24.0432 29.4392 22.9122 28.0469 22.9122ZM18.3894 25.2995H24.9355C24.9649 24.6695 25.178 24.0911 25.5233 23.6122H17.8053C18.1469 24.0911 18.3637 24.6695 18.3894 25.2995ZM31.4816 23.6122H30.5669C30.9122 24.0911 31.1253 24.6695 31.1547 25.2995H31.4816C31.9482 25.2995 32.3229 24.92 32.3229 24.4558C32.3229 23.9916 31.9482 23.6122 31.4816 23.6122ZM36 5.37531C36 8.32268 33.6196 10.7174 30.6771 10.7174C27.7347 10.7174 25.3506 8.32268 25.3506 5.37531C25.3506 2.42426 27.7347 0.0332031 30.6771 0.0332031C33.6196 0.0332031 36 2.42426 36 5.37531ZM33.8804 3.50741L33.2522 2.83689L29.8763 5.61847L28.3335 4.47636L27.709 5.14689L29.6155 7.36847L29.9498 7.76268L30.2988 7.3832L33.8804 3.50741Z" fill="white"/>
</svg>
