<svg width="33" height="33" viewBox="0 0 33 33" fill="none" xmlns="http://www.w3.org/2000/svg">
<path d="M33 10.3125C33 9.17813 32.0719 8.25 30.9375 8.25H24.75V2.0625C24.75 0.928125 23.8219 0 22.6875 0C21.5531 0 20.625 0.928125 20.625 2.0625V8.25H12.375V2.0625C12.375 0.928125 11.4469 0 10.3125 0C9.17813 0 8.25 0.928125 8.25 2.0625V8.25H2.0625C0.928125 8.25 0 9.17813 0 10.3125C0 11.4469 0.928125 12.375 2.0625 12.375H8.25V20.625H2.0625C0.928125 20.625 0 21.5531 0 22.6875C0 23.8219 0.928125 24.75 2.0625 24.75H8.25V30.9375C8.25 32.0719 9.17813 33 10.3125 33C11.4469 33 12.375 32.0719 12.375 30.9375V24.75H20.625V30.9375C20.625 32.0719 21.5531 33 22.6875 33C23.8219 33 24.75 32.0719 24.75 30.9375V24.75H30.9375C32.0719 24.75 33 23.8219 33 22.6875C33 21.5531 32.0719 20.625 30.9375 20.625H24.75V12.375H30.9375C32.0719 12.375 33 11.4469 33 10.3125ZM20.625 20.625H12.375V12.375H20.625V20.625Z" fill="#515151"/>
</svg>
