<svg width="29" height="29" viewBox="0 0 29 29" fill="none" xmlns="http://www.w3.org/2000/svg">
<g clip-path="url(#clip0_1878_106126)">
<path d="M11.448 7.40507C11.6167 7.23638 11.7114 7.00759 11.7114 6.76902C11.7114 6.53046 11.6167 6.30167 11.448 6.13298C11.2793 5.96429 11.0505 5.86952 10.8119 5.86952C10.5734 5.86952 10.3446 5.96429 10.1759 6.13298L7.63889 8.66997L6.92558 8.01955C6.74835 7.86807 6.51917 7.79142 6.28646 7.8058C6.05375 7.82018 5.83575 7.92447 5.67853 8.09663C5.5213 8.26879 5.43716 8.49533 5.44389 8.72838C5.45061 8.96144 5.54768 9.18274 5.71458 9.34555L7.06213 10.5763C7.23288 10.7318 7.45692 10.8155 7.68776 10.8102C7.91861 10.8048 8.13853 10.7108 8.30188 10.5476L11.4462 7.40327L11.448 7.40507ZM11.448 15.1167C11.5316 15.2001 11.598 15.2993 11.6433 15.4084C11.6886 15.5175 11.7119 15.6346 11.7119 15.7527C11.7119 15.8709 11.6886 15.9879 11.6433 16.097C11.598 16.2062 11.5316 16.3053 11.448 16.3888L8.30368 19.5331C8.14001 19.6965 7.91959 19.7906 7.68831 19.7956C7.45704 19.8006 7.23275 19.7162 7.06213 19.56L5.71458 18.3292C5.54768 18.1664 5.45061 17.9451 5.44389 17.7121C5.43716 17.479 5.5213 17.2525 5.67853 17.0803C5.83575 16.9082 6.05375 16.8039 6.28646 16.7895C6.51917 16.7751 6.74835 16.8518 6.92558 17.0032L7.63889 17.6555L10.1759 15.1167C10.2593 15.033 10.3585 14.9666 10.4676 14.9213C10.5768 14.8761 10.6938 14.8527 10.8119 14.8527C10.9301 14.8527 11.0471 14.8761 11.1562 14.9213C11.2654 14.9666 11.3645 15.033 11.448 15.1167ZM14.4054 16.2019C14.1671 16.2019 13.9386 16.2966 13.7702 16.465C13.6017 16.6335 13.507 16.862 13.507 17.1003C13.507 17.3385 13.6017 17.567 13.7702 17.7355C13.9386 17.904 14.1671 17.9986 14.4054 17.9986H17.406C17.2083 17.4363 17.1005 16.8308 17.1005 16.2019H14.4054ZM5.42171 23.3889H14.4952C14.436 23.6799 14.4054 23.98 14.4054 24.2872C14.4054 24.5873 14.4288 24.8873 14.4737 25.1856H5.42171C3.99214 25.1856 2.62111 24.6177 1.61025 23.6068C0.599391 22.596 0.0314941 21.225 0.0314941 19.7954V5.42147C0.0314941 3.99189 0.599391 2.62087 1.61025 1.61001C2.62111 0.599146 3.99214 0.03125 5.42171 0.03125H19.7956C21.2252 0.03125 22.5962 0.599146 23.6071 1.61001C24.6179 2.62087 25.1858 3.99189 25.1858 5.42147V11.5322C24.6305 11.2106 24.0219 10.9916 23.3891 10.8854V5.42147C23.3891 4.46842 23.0105 3.5544 22.3366 2.88049C21.6627 2.20659 20.7487 1.82799 19.7956 1.82799H5.42171C4.46866 1.82799 3.55465 2.20659 2.88074 2.88049C2.20683 3.5544 1.82823 4.46842 1.82823 5.42147V19.7954C1.82823 20.7484 2.20683 21.6624 2.88074 22.3364C3.55465 23.0103 4.46866 23.3889 5.42171 23.3889ZM13.507 8.11658C13.507 7.87831 13.6017 7.64981 13.7702 7.48133C13.9386 7.31286 14.1671 7.21821 14.4054 7.21821H18.8973C19.1355 7.21821 19.364 7.31286 19.5325 7.48133C19.701 7.64981 19.7956 7.87831 19.7956 8.11658C19.7956 8.35484 19.701 8.58334 19.5325 8.75182C19.364 8.9203 19.1355 9.01495 18.8973 9.01495H14.4054C14.1671 9.01495 13.9386 8.9203 13.7702 8.75182C13.6017 8.58334 13.507 8.35484 13.507 8.11658ZM26.0842 16.2019C26.0842 17.155 25.7056 18.069 25.0317 18.7429C24.3578 19.4168 23.4438 19.7954 22.4907 19.7954C21.5377 19.7954 20.6237 19.4168 19.9498 18.7429C19.2759 18.069 18.8973 17.155 18.8973 16.2019C18.8973 15.2489 19.2759 14.3348 19.9498 13.6609C20.6237 12.987 21.5377 12.6084 22.4907 12.6084C23.4438 12.6084 24.3578 12.987 25.0317 13.6609C25.7056 14.3348 26.0842 15.2489 26.0842 16.2019ZM28.7793 24.2872C28.7793 26.5242 26.9826 28.7791 22.4907 28.7791C17.9989 28.7791 16.2021 26.5332 16.2021 24.2872C16.2021 23.5724 16.4861 22.8869 16.9915 22.3815C17.497 21.8761 18.1825 21.5921 18.8973 21.5921H26.0842C26.799 21.5921 27.4845 21.8761 27.9899 22.3815C28.4954 22.8869 28.7793 23.5724 28.7793 24.2872Z" fill="white"/>
</g>
<defs>
<clipPath id="clip0_1878_106126">
<rect width="29" height="29" fill="white"/>
</clipPath>
</defs>
</svg>
