<svg width="29" height="29" viewBox="0 0 29 29" fill="none" xmlns="http://www.w3.org/2000/svg">
<g clip-path="url(#clip0_1878_106153)">
<path d="M14.4512 5.1347C14.4512 4.51329 14.3291 3.89797 14.0919 3.32386C13.8547 2.74975 13.5071 2.2281 13.0688 1.7887C12.6305 1.34929 12.1102 1.00074 11.5376 0.762935C10.965 0.525131 10.3513 0.402735 9.73148 0.402735H5.11023C4.48537 0.394675 3.86514 0.511107 3.28552 0.745275C2.70591 0.979442 2.17844 1.32668 1.73373 1.76685C1.28902 2.20702 0.935926 2.73135 0.69493 3.30941C0.453933 3.88748 0.329834 4.50778 0.329834 5.13431C0.329834 5.76085 0.453933 6.38114 0.69493 6.95921C0.935926 7.53728 1.28902 8.0616 1.73373 8.50177C2.17844 8.94194 2.70591 9.28918 3.28552 9.52335C3.86514 9.75752 4.48537 9.87395 5.11023 9.86589H6.01479V12.1504C6.01479 12.1504 14.4512 11.0085 14.4512 5.1347ZM10.1549 17.6327C10.1549 19.3635 8.75661 20.7654 7.03028 20.7654C5.30395 20.7654 3.9057 19.3635 3.9057 17.6327C3.9057 15.9018 5.30395 14.5 7.03028 14.5C8.75661 14.5 10.1549 15.9018 10.1549 17.6327ZM7.03028 22.3317C4.81417 22.3317 0.390551 23.4517 0.390551 25.6736V28.5972H13.67V25.6736C13.67 23.4509 9.24639 22.3317 7.03028 22.3317ZM21.872 20.7654C23.5984 20.7654 24.9966 19.3635 24.9966 17.6327C24.9966 15.9018 23.5984 14.5 21.872 14.5C20.1457 14.5 18.7475 15.9018 18.7475 17.6327C18.7475 19.3635 20.1457 20.7654 21.872 20.7654ZM21.872 22.3317C19.6559 22.3317 15.2323 23.4517 15.2323 25.6736V28.5972H28.5118V25.6736C28.5118 23.4509 24.0881 22.3317 21.872 22.3317ZM20.7331 1.18591C19.4814 1.18591 18.2809 1.68446 17.3958 2.57188C16.5107 3.45929 16.0134 4.66289 16.0134 5.91788C16.0134 11.7917 23.5124 12.9336 23.5124 12.9336V10.6491H23.7921C24.4169 10.6571 25.0372 10.5407 25.6168 10.3065C26.1964 10.0724 26.7239 9.72512 27.1686 9.28495C27.6133 8.84478 27.9664 8.32045 28.2074 7.74239C28.4484 7.16432 28.5725 6.54402 28.5725 5.91749C28.5725 5.29096 28.4484 4.67066 28.2074 4.09259C27.9664 3.51453 27.6133 2.9902 27.1686 2.55003C26.7239 2.10986 26.1964 1.76262 25.6168 1.52845C25.0372 1.29429 24.4169 1.17785 23.7921 1.18591H20.7331Z" fill="white"/>
</g>
<defs>
<clipPath id="clip0_1878_106153">
<rect width="29" height="29" fill="white"/>
</clipPath>
</defs>
</svg>
