<svg width="22" height="29" viewBox="0 0 22 29" fill="none" xmlns="http://www.w3.org/2000/svg">
<g clip-path="url(#clip0_1878_106141)">
<path d="M13.7144 9.99043C13.7144 10.708 13.4284 11.3961 12.9194 11.9035C12.4103 12.4109 11.7198 12.6959 10.9999 12.6959C10.28 12.6959 9.58953 12.4109 9.08046 11.9035C8.57139 11.3961 8.28539 10.708 8.28539 9.99043C8.28539 9.27289 8.57139 8.58474 9.08046 8.07736C9.58953 7.56999 10.28 7.28495 10.9999 7.28495C11.7198 7.28495 12.4103 7.56999 12.9194 8.07736C13.4284 8.58474 13.7144 9.27289 13.7144 9.99043ZM5.57088 15.8523V16.3032C5.57088 17.26 5.9522 18.1775 6.63096 18.854C7.30972 19.5305 8.23032 19.9106 9.19023 19.9106H12.8096C13.7695 19.9106 14.6901 19.5305 15.3689 18.854C16.0476 18.1775 16.4289 17.26 16.4289 16.3032V15.8523C16.4289 15.4936 16.2859 15.1495 16.0314 14.8958C15.7769 14.6421 15.4317 14.4996 15.0717 14.4996H6.92814C6.56817 14.4996 6.22294 14.6421 5.96841 14.8958C5.71387 15.1495 5.57088 15.4936 5.57088 15.8523ZM0.141846 3.67763V25.3215C0.141846 26.2783 0.523169 27.1958 1.20193 27.8723C1.88069 28.5488 2.80129 28.9288 3.7612 28.9288H20.9531C21.1931 28.9288 21.4233 28.8338 21.593 28.6647C21.7626 28.4956 21.858 28.2662 21.858 28.027C21.858 27.7878 21.7626 27.5585 21.593 27.3893C21.4233 27.2202 21.1931 27.1252 20.9531 27.1252H3.7612C3.28124 27.1252 2.82095 26.9352 2.48157 26.5969C2.14219 26.2587 1.95152 25.7999 1.95152 25.3215H20.0483C20.5283 25.3215 20.9886 25.1315 21.3279 24.7933C21.6673 24.455 21.858 23.9962 21.858 23.5179V3.67763C21.858 2.72091 21.4767 1.80337 20.7979 1.12687C20.1191 0.450368 19.1985 0.0703125 18.2386 0.0703125H3.7612C2.80129 0.0703125 1.88069 0.450368 1.20193 1.12687C0.523169 1.80337 0.141846 2.72091 0.141846 3.67763ZM18.2386 1.87397C18.7186 1.87397 19.1789 2.064 19.5183 2.40225C19.8576 2.7405 20.0483 3.19927 20.0483 3.67763V23.5179H1.95152V3.67763C1.95152 3.19927 2.14219 2.7405 2.48157 2.40225C2.82095 2.064 3.28124 1.87397 3.7612 1.87397H18.2386Z" fill="white"/>
</g>
<defs>
<clipPath id="clip0_1878_106141">
<rect width="22" height="29" fill="white"/>
</clipPath>
</defs>
</svg>
