<svg width="28" height="25" viewBox="0 0 28 25" fill="none" xmlns="http://www.w3.org/2000/svg">
<g clip-path="url(#clip0_1931_104061)">
<path d="M2.8 13.8889C1.246 13.8889 0 15.125 0 16.6667V22.2222C0 23.7639 1.246 25 2.8 25H8.4C9.954 25 11.2 23.7639 11.2 22.2222V16.6667C11.2 15.125 9.954 13.8889 8.4 13.8889M8.68 15.9722L10.164 17.4306L4.578 22.9167L1.036 19.375L2.534 17.9167L4.592 19.9861M2.8 0C1.246 0 0 1.23611 0 2.77778V8.33333C0 9.875 1.246 11.1111 2.8 11.1111H8.4C9.954 11.1111 11.2 9.875 11.2 8.33333V2.77778C11.2 1.23611 9.954 0 8.4 0M2.8 2.77778H8.4V8.33333H2.8M14 2.77778H28V5.55556H14M14 22.2222V19.4444H28V22.2222M14 11.1111H28V13.8889H14V11.1111Z" fill="#515151"/>
</g>
<defs>
<clipPath id="clip0_1931_104061">
<rect width="28" height="25" fill="white"/>
</clipPath>
</defs>
</svg>
