<svg width="14" height="15" viewBox="0 0 14 15" fill="none" xmlns="http://www.w3.org/2000/svg">
<path d="M7.47403 9.75909L7.65504 9.55416H7.28516L7.47403 9.75909Z" fill="white"/>
<path d="M9.58243 4.82436H2.95455V3.87388H9.58243V4.82436ZM9.58243 6.40115H1.82446V5.45069H9.58243V6.40115ZM0.644531 0.640817V14.3599H8.42137V12.4041C8.42137 12.3199 8.45548 12.2373 8.51529 12.1777C8.57562 12.1181 8.658 12.0841 8.74246 12.0841H10.7875V7.75995L7.91982 11.0077C7.81122 11.1311 7.65435 11.2021 7.48384 11.2042C7.32172 11.2042 7.16538 11.1358 7.05573 11.0166L5.70948 9.55477H1.82446V8.60378H8.47962V8.62155L9.04834 7.97796H1.82446V7.02697H9.58243V7.37308L10.7875 6.00748V0.640817H0.644531Z" fill="white"/>
<path d="M9.06223 14.3711V12.7242H10.7742L9.06223 14.3711ZM10.7857 12.0838H8.74063C8.65616 12.0838 8.57378 12.1177 8.51345 12.1773C8.45364 12.2369 8.41953 12.3196 8.41953 12.4037V14.3596H0.642693V0.640446H10.7857V6.00711L11.4289 5.27936V0.319967C11.4289 0.235794 11.3948 0.153186 11.335 0.093585C11.2752 0.0339851 11.1918 0 11.1073 0H0.321615C0.236622 0 0.154249 0.0339851 0.094439 0.093585C0.0341046 0.153186 0 0.235794 0 0.319967V14.6795C0 14.7637 0.0341046 14.8463 0.094439 14.9059C0.154249 14.966 0.236622 15 0.321615 15H9.14303C9.22749 15 9.30934 14.9666 9.36915 14.907L10.3602 13.9256L10.3613 13.9246L11.335 12.9501C11.3953 12.8899 11.4289 12.8084 11.4289 12.7242V7.03129L10.7857 7.75958V12.0838Z" fill="#515151"/>
<path d="M9.0625 14.3713L10.7744 12.7245H9.0625V14.3713Z" fill="white"/>
<mask id="path-5-inside-1_2016_112217" fill="white">
<path d="M2.95312 4.82422H9.58099V3.87374H2.95312V4.82422Z"/>
</mask>
<path d="M2.95312 4.82422V5.82422H1.95312V4.82422H2.95312ZM9.58099 4.82422H10.581V5.82422H9.58099V4.82422ZM9.58099 3.87374V2.87374H10.581V3.87374H9.58099ZM2.95312 3.87374H1.95312V2.87374H2.95312V3.87374ZM2.95312 3.82422H9.58099V5.82422H2.95312V3.82422ZM8.58099 4.82422V3.87374H10.581V4.82422H8.58099ZM9.58099 4.87374H2.95312V2.87374H9.58099V4.87374ZM3.95312 3.87374V4.82422H1.95312V3.87374H3.95312Z" fill="#515151" mask="url(#path-5-inside-1_2016_112217)"/>
<path d="M1.82422 6.40137H9.58218V5.45091H1.82422V6.40137Z" fill="#515151"/>
<path d="M1.82422 7.02673V7.97772H9.04809L9.58218 7.37284V7.02673H1.82422Z" fill="#515151"/>
<path d="M1.82422 8.60345V9.55444H5.70923L5.47787 9.30348L5.19351 8.99398C5.1463 8.94222 5.13789 8.8659 5.1741 8.80525C5.20348 8.7561 5.25595 8.72683 5.31156 8.72683L5.34986 8.73152L6.82516 9.09384C6.85559 9.10116 6.8834 9.11789 6.90491 9.14089L7.2858 9.55444H7.65568L8.47937 8.62122V8.60345H1.82422Z" fill="#515151"/>
<mask id="path-10-inside-2_2016_112217" fill="white">
<path d="M13.0841 4.91357L12.4525 4.35989C12.4231 4.33375 12.3858 4.31966 12.347 4.31966L12.3365 4.32017C12.294 4.32278 12.2547 4.34212 12.2269 4.37401L11.4273 5.27954L10.7841 6.00729L9.57896 7.37288L9.04488 7.97777L8.47615 8.62135L7.65246 9.55458L7.47146 9.75952L7.28258 9.55458L6.90169 9.14102C6.88018 9.11802 6.85237 9.1013 6.82194 9.09398L5.34664 8.73166L5.30834 8.72696C5.25273 8.72696 5.20026 8.75624 5.17088 8.80538C5.13468 8.86603 5.14308 8.94235 5.1903 8.99411L5.47465 9.30361L5.70601 9.55458L7.05227 11.0164C7.16192 11.1356 7.31826 11.204 7.48037 11.204C7.65089 11.2019 7.80776 11.1309 7.91636 11.0075L10.7841 7.75976L11.4273 7.03147L13.0988 5.13837C13.1571 5.07249 13.1508 4.9716 13.0841 4.91357Z"/>
</mask>
<path d="M13.0841 4.91357L12.4525 4.35989C12.4231 4.33375 12.3858 4.31966 12.347 4.31966L12.3365 4.32017C12.294 4.32278 12.2547 4.34212 12.2269 4.37401L11.4273 5.27954L10.7841 6.00729L9.57896 7.37288L9.04488 7.97777L8.47615 8.62135L7.65246 9.55458L7.47146 9.75952L7.28258 9.55458L6.90169 9.14102C6.88018 9.11802 6.85237 9.1013 6.82194 9.09398L5.34664 8.73166L5.30834 8.72696C5.25273 8.72696 5.20026 8.75624 5.17088 8.80538C5.13468 8.86603 5.14308 8.94235 5.1903 8.99411L5.47465 9.30361L5.70601 9.55458L7.05227 11.0164C7.16192 11.1356 7.31826 11.204 7.48037 11.204C7.65089 11.2019 7.80776 11.1309 7.91636 11.0075L10.7841 7.75976L11.4273 7.03147L13.0988 5.13837C13.1571 5.07249 13.1508 4.9716 13.0841 4.91357Z" fill="white"/>
<path d="M12.4525 4.35989L12.3646 4.46016L12.3638 4.4595L12.4525 4.35989ZM12.347 4.31966L12.3405 4.18633H12.347V4.31966ZM12.3365 4.32017L12.3283 4.18708L12.33 4.187L12.3365 4.32017ZM12.2269 4.37401L12.3274 4.46163L12.3268 4.46226L12.2269 4.37401ZM11.4273 5.27954L11.5272 5.36779L11.5272 5.36784L11.4273 5.27954ZM10.7841 6.00729L10.6841 5.91906L10.6842 5.91899L10.7841 6.00729ZM9.57896 7.37288L9.67894 7.4611L9.67891 7.46113L9.57896 7.37288ZM9.04488 7.97777L9.14482 8.06602L9.14479 8.06606L9.04488 7.97777ZM8.47615 8.62135L8.37619 8.53312L8.37624 8.53306L8.47615 8.62135ZM7.65246 9.55458L7.75243 9.64281L7.7524 9.64284L7.65246 9.55458ZM7.47146 9.75952L7.5714 9.84778L7.47357 9.95854L7.37342 9.84988L7.47146 9.75952ZM7.28258 9.55458L7.18454 9.64494L7.18451 9.64491L7.28258 9.55458ZM6.90169 9.14102L6.99908 9.04995L6.99976 9.05069L6.90169 9.14102ZM6.82194 9.09398L6.79076 9.22361L6.79014 9.22346L6.82194 9.09398ZM5.34664 8.73166L5.36287 8.59932L5.37074 8.60028L5.37844 8.60217L5.34664 8.73166ZM5.30834 8.72696V8.59363H5.31649L5.32457 8.59462L5.30834 8.72696ZM5.17088 8.80538L5.05639 8.73704L5.05644 8.73697L5.17088 8.80538ZM5.1903 8.99411L5.09211 9.08432L5.09179 9.08397L5.1903 8.99411ZM5.47465 9.30361L5.37662 9.39399L5.37646 9.39382L5.47465 9.30361ZM5.70601 9.55458L5.80405 9.4642L5.80409 9.46425L5.70601 9.55458ZM7.05227 11.0164L7.15034 10.926L7.1504 10.9261L7.05227 11.0164ZM7.48037 11.204L7.48201 11.3374H7.48037V11.204ZM7.91636 11.0075L7.81627 10.9194L7.81641 10.9192L7.91636 11.0075ZM10.7841 7.75976L10.6841 7.6715L10.6841 7.67149L10.7841 7.75976ZM11.4273 7.03147L11.5272 7.11972L11.5272 7.11973L11.4273 7.03147ZM13.0988 5.13837L12.9989 5.05012L12.9989 5.05006L13.0988 5.13837ZM12.9962 5.01384L12.3646 4.46016L12.5403 4.25962L13.172 4.8133L12.9962 5.01384ZM12.3638 4.4595C12.3588 4.45506 12.3531 4.45299 12.347 4.45299V4.18633C12.4185 4.18633 12.4873 4.21244 12.5411 4.26028L12.3638 4.4595ZM12.3535 4.45284L12.343 4.45335L12.33 4.187L12.3405 4.18648L12.3535 4.45284ZM12.3447 4.45325C12.3376 4.45369 12.3316 4.4568 12.3274 4.46163L12.1264 4.28639C12.1778 4.22744 12.2504 4.19188 12.3283 4.18709L12.3447 4.45325ZM12.3268 4.46226L11.5272 5.36779L11.3273 5.19129L12.1269 4.28576L12.3268 4.46226ZM11.5272 5.36784L10.884 6.09559L10.6842 5.91899L11.3274 5.19124L11.5272 5.36784ZM10.884 6.09551L9.67894 7.4611L9.47899 7.28466L10.6841 5.91906L10.884 6.09551ZM9.67891 7.46113L9.14482 8.06602L8.94493 7.88952L9.47901 7.28463L9.67891 7.46113ZM9.14479 8.06606L8.57607 8.70964L8.37624 8.53306L8.94496 7.88948L9.14479 8.06606ZM8.57612 8.70958L7.75243 9.64281L7.5525 9.46635L8.37619 8.53312L8.57612 8.70958ZM7.7524 9.64284L7.5714 9.84778L7.37152 9.67125L7.55252 9.46631L7.7524 9.64284ZM7.37342 9.84988L7.18454 9.64494L7.38063 9.46422L7.5695 9.66915L7.37342 9.84988ZM7.18451 9.64491L6.80361 9.23135L6.99976 9.05069L7.38066 9.46425L7.18451 9.64491ZM6.8043 9.23209C6.79962 9.22708 6.79445 9.2245 6.79076 9.22361L6.85312 8.96434C6.91029 8.97809 6.96074 9.00896 6.99908 9.04996L6.8043 9.23209ZM6.79014 9.22346L5.31484 8.86114L5.37844 8.60217L6.85374 8.96449L6.79014 9.22346ZM5.33041 8.864L5.29211 8.8593L5.32457 8.59462L5.36287 8.59932L5.33041 8.864ZM5.30834 8.86029C5.29961 8.86029 5.29061 8.86495 5.28532 8.8738L5.05644 8.73697C5.1099 8.64753 5.20585 8.59363 5.30834 8.59363V8.86029ZM5.28536 8.87372C5.27974 8.88314 5.28063 8.8953 5.2888 8.90425L5.09179 9.08397C5.00552 8.98941 4.98961 8.84891 5.05639 8.73704L5.28536 8.87372ZM5.28848 8.9039L5.57283 9.2134L5.37646 9.39382L5.09211 9.08432L5.28848 8.9039ZM5.57268 9.21324L5.80405 9.4642L5.60798 9.64495L5.37662 9.39399L5.57268 9.21324ZM5.80409 9.46425L7.15034 10.926L6.95419 11.1067L5.60794 9.6449L5.80409 9.46425ZM7.1504 10.9261C7.23474 11.0178 7.35546 11.0707 7.48037 11.0707V11.3374C7.28106 11.3374 7.0891 11.2533 6.95414 11.1066L7.1504 10.9261ZM7.47874 11.0707C7.6128 11.0691 7.73345 11.0135 7.81627 10.9194L8.01644 11.0956C7.88207 11.2482 7.68897 11.3348 7.48201 11.3374L7.47874 11.0707ZM7.81641 10.9192L10.6841 7.6715L10.884 7.84801L8.01631 11.0957L7.81641 10.9192ZM10.6841 7.67149L11.3274 6.94321L11.5272 7.11973L10.884 7.84802L10.6841 7.67149ZM11.3273 6.94322L12.9989 5.05012L13.1988 5.22662L11.5272 7.11972L11.3273 6.94322ZM12.9989 5.05006C13.0083 5.03949 13.0072 5.02339 12.9966 5.01411L13.1717 4.81302C13.2943 4.91981 13.3058 5.1055 13.1987 5.22668L12.9989 5.05006Z" fill="#515151" mask="url(#path-10-inside-2_2016_112217)"/>
</svg>
