<svg width="22" height="22" viewBox="0 0 22 22" fill="none" xmlns="http://www.w3.org/2000/svg">
<path d="M6.80452 0.0356674C6.70686 0.0477896 6.36496 0.115139 6.04754 0.182261C3.23311 0.811057 0.955883 3.02116 0.235496 5.83559C-0.0940553 7.1053 -0.0758716 8.63767 0.278373 9.86495C0.589741 10.9454 0.998761 11.7329 1.7068 12.6365C3.00727 14.2849 5.05843 15.3654 7.20141 15.5365L7.75096 15.5791V14.2971V13.0211L7.15876 12.9539C5.35768 12.7342 3.87425 11.6779 3.08068 10.0479C2.67166 9.19328 2.54347 8.57055 2.57401 7.56326C2.59847 6.84287 2.62901 6.66575 2.79984 6.15908C3.07462 5.33497 3.47129 4.70012 4.08796 4.08344C4.70464 3.46677 5.3395 3.0701 6.1636 2.79532C6.67027 2.62448 6.84739 2.59395 7.56778 2.56948C8.57507 2.53895 9.1978 2.66714 10.0524 3.07616C11.7069 3.88208 12.8119 5.46944 12.9766 7.28871L13.0193 7.74667H14.3014H15.5774L15.5347 7.20946C15.3881 5.31701 14.6006 3.60146 13.2759 2.28281C11.7556 0.768402 9.83266 -0.0251694 7.72021 0.00536156C7.31747 0.00536156 6.90845 0.0235453 6.80452 0.0356674Z" fill="#515151"/>
<path d="M9.17769 9.25434C9.19609 9.3154 10.3497 12.2093 11.7418 15.6828L14.2693 21.9955L14.3365 21.6657C14.3791 21.4825 14.666 20.0417 14.9774 18.4728C15.2948 16.9038 15.5635 15.5973 15.5817 15.5789C15.6001 15.5605 16.9064 15.292 18.4756 14.9746C20.0446 14.6632 21.4853 14.3763 21.6685 14.3336L21.9983 14.2665L15.6856 11.739C12.2119 10.3472 9.31799 9.19328 9.25715 9.17487C9.16556 9.14457 9.14716 9.16275 9.17769 9.25434Z" fill="#F4A72A"/>
</svg>
