<svg width="19" height="18" viewBox="0 0 19 18" fill="none" xmlns="http://www.w3.org/2000/svg">
<g clip-path="url(#clip0_1879_118340)">
<path d="M7.23828 5.40039V10.8004L11.4907 13.4104L12.2145 12.3304L8.59542 10.1704V5.40039H7.23828Z" fill="#515151"/>
<path d="M14.4038 8.99978C14.5402 9.89432 14.4801 10.8076 14.2275 11.6768C13.975 12.546 13.5361 13.3505 12.9411 14.0348C12.346 14.7191 11.609 15.2669 10.7807 15.6407C9.95232 16.0144 9.0524 16.2052 8.14286 16.1997C4.61429 16.1997 1.80952 13.4098 1.80952 9.89977C1.80952 6.38979 4.61429 3.5998 8.14286 3.5998C8.77619 3.5998 9.38238 3.6898 9.95238 3.8608V2.0068C9.37333 1.8718 8.76714 1.7998 8.14286 1.7998C3.61905 1.7998 0 5.39979 0 9.89977C0 14.3998 3.61905 17.9997 8.14286 17.9997C9.28981 18.0045 10.4247 17.7671 11.4727 17.3034C12.5206 16.8397 13.4577 16.1601 14.2222 15.3095C14.9866 14.4589 15.561 13.4567 15.9073 12.3691C16.2537 11.2814 16.3641 10.133 16.2314 8.99978H14.4038Z" fill="#515151"/>
<path d="M16.2855 2.69999V0H14.476V2.69999H11.7617V4.49998H14.476V7.19997H16.2855V4.49998H18.9998V2.69999H16.2855Z" fill="#F4A72A"/>
</g>
<defs>
<clipPath id="clip0_1879_118340">
<rect width="19" height="18" fill="white"/>
</clipPath>
</defs>
</svg>
