<svg width="34" height="34" viewBox="0 0 34 34" fill="none" xmlns="http://www.w3.org/2000/svg">
<path d="M17 3.09122C24.6708 3.09122 30.9088 9.32918 30.9088 17C30.9088 24.6708 24.6708 30.9088 17 30.9088C9.32918 30.9088 3.09122 24.6708 3.09122 17C3.09122 9.32918 9.32918 3.09122 17 3.09122ZM17 0C7.60837 0 0 7.60837 0 17C0 26.3916 7.60837 34 17 34C26.3916 34 34 26.3916 34 17C34 7.60837 26.3916 0 17 0Z" fill="#515151"/>
<path d="M18.3743 17.7771C18.468 19.4737 17.8505 20.8649 17.0005 20.8649C16.1505 20.8649 15.5329 19.4771 15.6266 17.7771L16.0568 10.0404C16.1505 8.34386 16.5772 6.95264 17.0005 6.95264C17.4237 6.95264 17.8505 8.34039 17.9441 10.0404L18.3743 17.7771Z" fill="#515151"/>
<path d="M24.7273 17.0001C24.7273 17.4233 23.3395 17.8709 21.643 17.9923L16.9905 18.3254C15.294 18.4468 13.9062 17.8501 13.9062 17.0001C13.9062 16.1501 15.294 15.5533 16.9905 15.6747L21.643 16.0078C23.3395 16.1292 24.7273 16.5768 24.7273 17.0001Z" fill="#F4A72A"/>
<path d="M2.31836 17.7737L6.18326 17L2.31836 16.2263V17.7737Z" fill="#515151"/>
<path d="M31.6833 17.7737L27.8184 17L31.6833 16.2263V17.7737Z" fill="#515151"/>
<path d="M16.2266 2.3175L17.0002 6.1824L17.7739 2.3175H16.2266Z" fill="#515151"/>
<path d="M16.2266 31.6824L17.0002 27.8175L17.7739 31.6824H16.2266Z" fill="#515151"/>
<path d="M23.3898 7.37244C23.192 7.71591 22.7479 7.83387 22.4045 7.63612C22.061 7.43836 21.943 6.99775 22.1408 6.65081C22.3386 6.30734 22.7792 6.18938 23.1261 6.38714C23.4696 6.58836 23.5875 7.02897 23.3898 7.37244Z" fill="#515151"/>
<path d="M11.8585 27.3457C11.6608 27.6891 11.2202 27.8071 10.8732 27.6093C10.5298 27.4116 10.4118 26.971 10.6095 26.624C10.8073 26.2806 11.2514 26.1591 11.5949 26.3604C11.9383 26.5616 12.0563 27.0022 11.8585 27.3457Z" fill="#515151"/>
<path d="M27.3468 11.8584C27.0033 12.0562 26.5593 11.9382 26.3615 11.5947C26.1637 11.2513 26.2817 10.8107 26.6252 10.6094C26.9686 10.4117 27.4093 10.5296 27.6105 10.8731C27.8117 11.22 27.6937 11.6606 27.3468 11.8584Z" fill="#515151"/>
<path d="M7.3722 23.3906C7.02873 23.5884 6.58812 23.4704 6.38689 23.127C6.18914 22.7835 6.3071 22.3429 6.65057 22.1417C6.99404 21.9439 7.43812 22.0619 7.63587 22.4053C7.8371 22.7488 7.71914 23.1894 7.3722 23.3906Z" fill="#515151"/>
<path d="M26.6271 23.3906C26.2837 23.1929 26.1657 22.7488 26.3635 22.4053C26.5612 22.0619 27.0018 21.9439 27.3488 22.1417C27.6922 22.3394 27.8102 22.78 27.6124 23.127C27.4112 23.4704 26.9706 23.5884 26.6271 23.3906Z" fill="#515151"/>
<path d="M6.65447 11.8584C6.311 11.6606 6.19304 11.22 6.3908 10.8731C6.58855 10.5296 7.02916 10.4117 7.3761 10.6094C7.72304 10.8072 7.83753 11.2513 7.63978 11.5947C7.43855 11.9382 6.99794 12.0562 6.65447 11.8584Z" fill="#515151"/>
<path d="M22.1408 27.3457C21.943 27.0022 22.061 26.5582 22.4045 26.3604C22.7479 26.1626 23.1886 26.2806 23.3898 26.6241C23.5875 26.9675 23.4696 27.4082 23.1261 27.6094C22.7792 27.8106 22.3386 27.6927 22.1408 27.3457Z" fill="#515151"/>
<path d="M10.6095 7.37244C10.4118 7.02897 10.5298 6.58836 10.8732 6.38714C11.2167 6.18938 11.6573 6.30734 11.8585 6.65081C12.0563 6.99428 11.9383 7.43836 11.5949 7.63612C11.2514 7.83734 10.8108 7.71938 10.6095 7.37244Z" fill="#515151"/>
</svg>
