<svg width="20" height="20" viewBox="0 0 20 20" fill="none" xmlns="http://www.w3.org/2000/svg">
<path d="M8.70834 20C8.64194 19.9998 8.57578 19.9897 8.5112 19.97C8.27161 19.8807 8.06732 19.6796 7.93914 19.4069C7.81096 19.1343 7.76833 18.8101 7.81977 18.4991L10.3998 1.0046C10.4228 0.837531 10.4721 0.678116 10.5448 0.535944C10.6174 0.393773 10.7119 0.271785 10.8226 0.177323C10.9194 0.0965927 11.0281 0.0418165 11.1421 0.016339C11.256 -0.00913852 11.3729 -0.00478268 11.4855 0.0291407C11.7249 0.118653 11.929 0.3196 12.0573 0.591993C12.1855 0.864385 12.2285 1.18825 12.1776 1.49914L9.59549 19C9.57268 19.1667 9.52358 19.3258 9.45115 19.4677C9.37872 19.6095 9.28446 19.7313 9.17406 19.8255C9.03528 19.9396 8.87356 20.0002 8.70834 20ZM13.8819 17.521H13.8169C13.6916 17.507 13.57 17.4592 13.4603 17.3808C13.3505 17.3025 13.2552 17.1953 13.1805 17.0664C13.033 16.8118 12.9618 16.4986 12.9796 16.1831C12.9974 15.8677 13.1031 15.5706 13.2776 15.3455L17.7126 9.82459L13.2948 4.68641C13.1158 4.46727 13.004 4.17411 12.9795 3.85955C12.9551 3.54499 13.0195 3.22962 13.1612 2.97005C13.233 2.83704 13.3263 2.72503 13.4348 2.64148C13.5433 2.55793 13.6646 2.50476 13.7905 2.4855C13.9126 2.46906 14.0361 2.48619 14.1525 2.53576C14.269 2.58532 14.3757 2.66615 14.4655 2.77278L19.6755 8.83459C19.855 9.05342 19.9673 9.34651 19.9923 9.66124C20.0173 9.97597 19.9534 10.2917 19.8119 10.5519C19.7723 10.6236 19.7271 10.69 19.6769 10.75L14.4876 17.2046C14.3256 17.4061 14.1084 17.5195 13.8819 17.521ZM6.11477 17.5246C5.88652 17.5227 5.66798 17.4068 5.5062 17.2019L0.31263 10.7473C0.263634 10.6903 0.220008 10.6262 0.18263 10.5564C0.0409408 10.2971 -0.023382 9.98191 0.001235 9.66761C0.025852 9.3533 0.137793 9.06049 0.316916 8.84187L5.5312 2.77823C5.61967 2.67104 5.72547 2.58971 5.84119 2.53994C5.95691 2.49016 6.07977 2.47314 6.2012 2.49005C6.32764 2.50847 6.44954 2.56096 6.55879 2.64404C6.66804 2.72713 6.76212 2.83888 6.83477 2.97187C6.9769 3.23159 7.04154 3.54735 7.01705 3.86232C6.99256 4.17729 6.88056 4.47081 6.7012 4.69005L2.28406 9.82641L6.7212 15.3437C6.89594 15.5688 7.00159 15.8661 7.01902 16.1818C7.03644 16.4974 6.9645 16.8106 6.8162 17.0646C6.74159 17.194 6.64604 17.3015 6.53601 17.3799C6.42598 17.4583 6.30401 17.5058 6.17834 17.5191C6.15727 17.5228 6.13604 17.5246 6.11477 17.5246Z" fill="current"/>
</svg>
