<svg width="11" height="15" viewBox="0 0 11 15" fill="none" xmlns="http://www.w3.org/2000/svg">
<g clip-path="url(#clip0_29_58747)">
<path d="M2.79076 0C2.63836 0 2.4922 0.0553123 2.38444 0.153769C2.27667 0.252226 2.21613 0.385761 2.21613 0.525V13.95H0.644939C0.492539 13.95 0.34638 14.0053 0.238617 14.1038C0.130854 14.2022 0.0703125 14.3358 0.0703125 14.475C0.0703125 14.6142 0.130854 14.7478 0.238617 14.8462C0.34638 14.9447 0.492539 15 0.644939 15H4.74942C4.90182 15 5.04798 14.9447 5.15574 14.8462C5.2635 14.7478 5.32404 14.6142 5.32404 14.475C5.32404 14.3358 5.2635 14.2022 5.15574 14.1038C5.04798 14.0053 4.90182 13.95 4.74942 13.95H3.36539V7.05H10.4251C10.5775 7.05 10.7236 6.99469 10.8314 6.89623C10.9392 6.79777 10.9997 6.66424 10.9997 6.525V0.525C10.9997 0.385761 10.9392 0.252226 10.8314 0.153769C10.7236 0.0553123 10.5775 0 10.4251 0H2.87285C2.85893 3.84973e-05 2.84502 0.000538827 2.83115 0.0015C2.81771 0.000567407 2.80424 6.70973e-05 2.79076 0Z" fill="#F4A72A"/>
</g>
<defs>
<clipPath id="clip0_29_58747">
<rect width="11" height="15" fill="white"/>
</clipPath>
</defs>
</svg>
