<svg width="27" height="22" viewBox="0 0 27 22" fill="none" xmlns="http://www.w3.org/2000/svg">
<path d="M10.9858 0.0473261C10.4169 0.160937 9.84803 0.661215 9.68481 1.19566C9.64546 1.32649 9.6116 1.6051 9.61711 1.81538L9.62261 2.20205L7.88206 3.25372C6.93004 3.83344 6.12472 4.30538 6.09665 4.30538C6.06857 4.30538 5.98408 4.24288 5.91637 4.16899C5.72481 3.96427 5.26298 3.78233 4.90243 3.77677C4.19839 3.75983 3.64628 4.08955 3.33087 4.70344C3.15059 5.0501 3.13931 5.10149 3.16188 5.5276C3.18445 6.0676 3.33637 6.4201 3.67435 6.73288C4.24876 7.25594 5.13885 7.33538 5.74711 6.90899L5.89931 6.80677L6.25408 7.08538C6.45114 7.23316 6.90747 7.57427 7.26802 7.84705L7.92692 8.33594L8.18041 8.00622L8.4339 7.67649L7.42573 6.91483C6.42307 6.16455 6.41179 6.15872 6.45692 5.9826C6.47949 5.89177 6.50206 5.64149 6.50206 5.43677V5.06733L8.27069 3.99288C9.7294 3.11177 10.0561 2.93566 10.1293 2.99233C10.6192 3.35038 11.0249 3.48122 11.47 3.4301C12.771 3.27649 13.4301 1.79288 12.6697 0.735659C12.2811 0.195104 11.6167 -0.0779514 10.9858 0.0473261Z" fill="#515151"/>
<path d="M16.782 4.5276C16.275 4.68677 15.909 5.01649 15.6836 5.51677C15.5597 5.78954 15.5372 5.90899 15.5539 6.24454L15.5707 6.64816L14.54 7.27343C13.8585 7.68843 13.5261 7.91593 13.5544 7.96121C13.577 8.00093 13.6728 8.1601 13.7685 8.31927L13.943 8.61482L14.9738 7.98954L16.0048 7.36427L16.157 7.51204C16.6246 7.96121 17.627 8.00649 18.1846 7.60871L18.3423 7.4951L21.012 9.24593C23.1467 10.6443 23.6762 11.014 23.665 11.1048C23.5805 11.7473 23.6762 12.2304 23.9804 12.634C24.2903 13.0376 24.6902 13.2423 25.2307 13.2765C25.6081 13.2993 25.7094 13.2823 25.9741 13.1629C26.3966 12.9695 26.6614 12.7137 26.8472 12.3329C26.9768 12.0657 27.0049 11.9348 26.9994 11.5826C26.9994 11.0768 26.8529 10.7184 26.5092 10.3718C25.9628 9.82038 24.994 9.72371 24.3971 10.1615L24.1774 10.3207L21.5077 8.56982C19.0686 6.97232 18.838 6.8076 18.8661 6.68815C18.8828 6.61427 18.8941 6.35843 18.8941 6.12538C18.8941 5.76149 18.8661 5.65343 18.7251 5.39204C18.5168 5.01677 18.2069 4.73816 17.8128 4.59038C17.5086 4.47649 17.0468 4.44816 16.782 4.5276Z" fill="#515151"/>
<path d="M10.366 7.4941C9.06504 7.74993 8.11852 9.09715 8.32137 10.4047C8.49586 11.5416 9.3521 12.4113 10.4673 12.6047C12.1572 12.8888 13.6837 11.3483 13.4018 9.64299C13.1599 8.19326 11.7799 7.21549 10.366 7.4941Z" fill="#F4A72A"/>
<path d="M5.28567 10.9688L3.28035 11.4805L2.9198 11.1166C2.63246 10.8266 2.49182 10.73 2.22705 10.6505C1.3653 10.3777 0.385211 10.8552 0.103651 11.6794C-0.0146975 12.0205 0.0078713 12.6458 0.148789 12.9527C0.430348 13.5838 0.937321 13.925 1.64136 13.9591C2.00741 13.9763 2.12026 13.9591 2.37347 13.8455C2.53668 13.7661 2.75081 13.6352 2.85237 13.55C3.06072 13.3736 3.37613 12.7711 3.37613 12.5552C3.37613 12.4755 3.3987 12.3791 3.42127 12.345C3.44383 12.3108 4.40686 12.0436 5.56173 11.7538C7.56705 11.2536 7.66255 11.2194 7.63448 11.1058C7.61191 11.0375 7.57255 10.8669 7.5387 10.7136C7.49356 10.5202 7.4542 10.4463 7.38677 10.4522C7.33585 10.4516 6.38962 10.6847 5.28567 10.9688Z" fill="#515151"/>
<path d="M13.7122 11.8715C13.5997 12.059 13.5264 12.2354 13.549 12.2582C13.5771 12.2865 14.4504 12.8607 15.4924 13.5429L17.3849 14.7765L17.3342 15.0096C17.2104 15.544 17.4132 16.1862 17.8354 16.5957C18.6408 17.3801 19.9982 17.1529 20.4997 16.1465C20.6799 15.7884 20.7193 15.1746 20.5897 14.7765C20.46 14.3957 20.1165 14.009 19.7279 13.8157C19.4631 13.6907 19.328 13.6623 19.0071 13.6623C18.6072 13.6623 18.1792 13.8046 17.9596 14.0034C17.8693 14.0829 17.7003 13.9807 15.9542 12.8437C14.9067 12.1615 14.0224 11.5873 13.9885 11.5646C13.9486 11.5418 13.8361 11.6668 13.7122 11.8715Z" fill="#515151"/>
<path d="M9.04287 13.5832C8.93581 13.8732 8.46269 15.1068 8.00085 16.3287L7.16168 18.546L6.8237 18.5857C6.33379 18.6426 5.95067 18.8301 5.66333 19.1485C5.35921 19.4896 5.23535 19.8363 5.23535 20.3365C5.23535 20.6435 5.2692 20.7799 5.40985 21.0643C5.60691 21.4624 5.80975 21.6613 6.24352 21.8601C6.50251 21.9796 6.59829 21.9965 7.00397 21.9738C7.28553 21.9568 7.53352 21.9113 7.64608 21.8488C7.95021 21.6896 8.27691 21.3599 8.43462 21.0529C8.55847 20.8085 8.58682 20.689 8.58682 20.3082C8.58682 19.7796 8.46847 19.4668 8.14755 19.1201C8.0292 19.0007 7.9392 18.8815 7.9392 18.8643C7.9392 18.8471 8.40682 17.6024 8.97572 16.1015L10.0065 13.3785L9.63462 13.2193C9.43177 13.134 9.26278 13.0601 9.25728 13.0601C9.25122 13.0601 9.15544 13.299 9.04287 13.5832Z" fill="#515151"/>
</svg>
