<svg width="60" height="60" viewBox="0 0 60 60" fill="none" xmlns="http://www.w3.org/2000/svg">
<circle cx="30" cy="30" r="30" fill="#F2C94C"/>
<g clip-path="url(#clip0_148_58755)">
<path d="M38.5012 39.9635L35.5663 37.0265C34.1182 38.1537 32.3349 38.7644 30.4998 38.7615C28.6648 38.7644 26.8814 38.1537 25.4334 37.0265L22.4985 39.9635C24.7334 41.8586 27.5696 42.8968 30.4998 42.8923C33.5504 42.8923 36.3449 41.7894 38.5012 39.9635ZM39.9635 38.5012C41.8586 36.2663 42.8968 33.4301 42.8923 30.4998C42.8923 27.4492 41.7894 24.6547 39.9635 22.4985L37.0265 25.4334C38.1129 26.8337 38.7615 28.5914 38.7615 30.4998C38.7615 32.4083 38.1129 34.1659 37.0265 35.5663L39.9635 38.5012ZM38.5012 21.0361C36.2663 19.1411 33.4301 18.1029 30.4998 18.1074C27.4492 18.1074 24.6547 19.2103 22.4985 21.0361L25.4334 23.9732C26.8814 22.846 28.6648 22.2353 30.4998 22.2382C32.4083 22.2382 34.1659 22.8868 35.5663 23.9732L38.5012 21.0361ZM21.0361 22.4985C19.1411 24.7334 18.1029 27.5696 18.1074 30.4998C18.1074 33.5504 19.2103 36.3449 21.0361 38.5012L23.9732 35.5663C22.846 34.1182 22.2353 32.3349 22.2382 30.4998C22.2382 28.5914 22.8868 26.8337 23.9732 25.4334L21.0361 22.4985ZM34.5026 35.2296C34.7644 35.0076 35.0076 34.7644 35.2296 34.5026C36.1446 33.4224 36.6961 32.0241 36.6961 30.4998C36.6977 29.5992 36.5022 28.709 36.1233 27.8919C35.7444 27.0749 35.1912 26.3506 34.5026 25.7701C33.3848 24.8215 31.9659 24.3017 30.4998 24.3036C29.5992 24.3019 28.709 24.4974 27.8919 24.8764C27.0749 25.2553 26.3506 25.8085 25.7701 26.4971C24.8551 27.5773 24.3036 28.9756 24.3036 30.4998C24.3019 31.4005 24.4974 32.2906 24.8764 33.1077C25.2553 33.9248 25.8085 34.6491 26.4971 35.2296C27.5773 36.1446 28.9756 36.6961 30.4998 36.6961C32.0262 36.6961 33.4224 36.1446 34.5026 35.2296ZM30.4998 44.9577C26.6654 44.9577 22.988 43.4345 20.2766 40.7231C17.5652 38.0117 16.042 34.3343 16.042 30.4998C16.042 26.6654 17.5652 22.988 20.2766 20.2766C22.988 17.5652 26.6654 16.042 30.4998 16.042C34.3343 16.042 38.0117 17.5652 40.7231 20.2766C43.4345 22.988 44.9577 26.6654 44.9577 30.4998C44.9577 34.3343 43.4345 38.0117 40.7231 40.7231C38.0117 43.4345 34.3343 44.9577 30.4998 44.9577Z" fill="white"/>
</g>
<defs>
<clipPath id="clip0_148_58755">
<rect width="29" height="29" fill="white" transform="translate(16 16)"/>
</clipPath>
</defs>
</svg>
