<svg width="14" height="18" viewBox="0 0 14 18" fill="none" xmlns="http://www.w3.org/2000/svg">
<path d="M13.6316 0H0.368421C0.164979 0 0 0.16053 0 0.358566V17.6414C0 17.8395 0.164979 18 0.368421 18H13.6316C13.835 18 14 17.8395 14 17.6414V0.358566C14 0.16053 13.835 0 13.6316 0ZM13.2632 17.2829H0.736842V0.717131H13.2632V17.2829Z" fill="#515151"/>
<path d="M2.39576 5.91673H5.60103C5.80447 5.91673 5.96945 5.7562 5.96945 5.55817V2.43864C5.96945 2.24061 5.80447 2.08008 5.60103 2.08008H2.39576C2.19232 2.08008 2.02734 2.24061 2.02734 2.43864V5.55817C2.02734 5.7562 2.19232 5.91673 2.39576 5.91673ZM2.76419 2.79721H5.23261V5.1996H2.76419V2.79721Z" fill="#515151"/>
<path d="M2.39576 10.9724H5.60103C5.80447 10.9724 5.96945 10.8119 5.96945 10.6138V9.93256C5.96945 9.73452 5.80447 9.57399 5.60103 9.57399C5.39759 9.57399 5.23261 9.73452 5.23261 9.93256V10.2553H2.76419V7.85287H5.0484C5.25184 7.85287 5.41682 7.69234 5.41682 7.49431C5.41682 7.29627 5.25184 7.13574 5.0484 7.13574H2.39576C2.19232 7.13574 2.02734 7.29627 2.02734 7.49431V10.6138C2.02734 10.8119 2.19232 10.9724 2.39576 10.9724Z" fill="#F4A72A"/>
<path d="M2.39576 15.9919H5.60103C5.80447 15.9919 5.96945 15.8314 5.96945 15.6334V12.5138C5.96945 12.3158 5.80447 12.1553 5.60103 12.1553H2.39576C2.19232 12.1553 2.02734 12.3158 2.02734 12.5138V15.6334C2.02734 15.8314 2.19232 15.9919 2.39576 15.9919ZM2.76419 12.8724H5.23261V15.2748H2.76419V12.8724Z" fill="#515151"/>
<path d="M9.79811 3.55014H11.6402C11.8437 3.55014 12.0086 3.38961 12.0086 3.19157C12.0086 2.99354 11.8437 2.83301 11.6402 2.83301H9.79811C9.59467 2.83301 9.42969 2.99354 9.42969 3.19157C9.42969 3.38961 9.59467 3.55014 9.79811 3.55014Z" fill="#515151"/>
<path d="M7.62623 3.55014H8.25255C8.45599 3.55014 8.62097 3.38961 8.62097 3.19157C8.62097 2.99354 8.45599 2.83301 8.25255 2.83301H7.62623C7.42279 2.83301 7.25781 2.99354 7.25781 3.19157C7.25781 3.38961 7.42279 3.55014 7.62623 3.55014Z" fill="#515151"/>
<path d="M7.62623 5.01987H11.642C11.8455 5.01987 12.0104 4.85934 12.0104 4.6613C12.0104 4.46326 11.8455 4.30273 11.642 4.30273H7.62623C7.42279 4.30273 7.25781 4.46326 7.25781 4.6613C7.25781 4.85934 7.42279 5.01987 7.62623 5.01987Z" fill="#515151"/>
<path d="M11.6402 7.92383H9.79811C9.59467 7.92383 9.42969 8.08436 9.42969 8.28239C9.42969 8.48043 9.59467 8.64096 9.79811 8.64096H11.6402C11.8437 8.64096 12.0086 8.48043 12.0086 8.28239C12.0086 8.08436 11.8437 7.92383 11.6402 7.92383Z" fill="#F4A72A"/>
<path d="M7.62623 8.64096H8.25255C8.45599 8.64096 8.62097 8.48043 8.62097 8.28239C8.62097 8.08436 8.45599 7.92383 8.25255 7.92383H7.62623C7.42279 7.92383 7.25781 8.08436 7.25781 8.28239C7.25781 8.48043 7.42279 8.64096 7.62623 8.64096Z" fill="#F4A72A"/>
<path d="M7.62623 10.1117H11.642C11.8455 10.1117 12.0104 9.95113 12.0104 9.7531C12.0104 9.55506 11.8455 9.39453 11.642 9.39453H7.62623C7.42279 9.39453 7.25781 9.55506 7.25781 9.7531C7.25781 9.95113 7.42279 10.1117 7.62623 10.1117Z" fill="#F4A72A"/>
<path d="M11.6402 12.9082H9.79811C9.59467 12.9082 9.42969 13.0687 9.42969 13.2668C9.42969 13.4648 9.59467 13.6253 9.79811 13.6253H11.6402C11.8437 13.6253 12.0086 13.4648 12.0086 13.2668C12.0086 13.0687 11.8437 12.9082 11.6402 12.9082Z" fill="#515151"/>
<path d="M7.62623 13.6253H8.25255C8.45599 13.6253 8.62097 13.4648 8.62097 13.2668C8.62097 13.0687 8.45599 12.9082 8.25255 12.9082H7.62623C7.42279 12.9082 7.25781 13.0687 7.25781 13.2668C7.25781 13.4648 7.42279 13.6253 7.62623 13.6253Z" fill="#515151"/>
<path d="M7.62623 15.096H11.642C11.8455 15.096 12.0104 14.9355 12.0104 14.7375C12.0104 14.5394 11.8455 14.3789 11.642 14.3789H7.62623C7.42279 14.3789 7.25781 14.5394 7.25781 14.7375C7.25781 14.9355 7.42279 15.096 7.62623 15.096Z" fill="#515151"/>
<path d="M3.71669 8.47152C3.56966 8.33472 3.33637 8.33985 3.19582 8.48303C3.05523 8.6262 3.06054 8.85317 3.20765 8.99L4.14119 9.86279C4.21314 9.93282 4.30742 9.96781 4.4017 9.96781C4.49598 9.96781 4.59026 9.93282 4.66221 9.86279L6.85431 7.72932C6.99818 7.5893 6.99818 7.36226 6.85431 7.2222C6.71041 7.08218 6.4772 7.08218 6.33326 7.2222L4.39831 9.10539L3.71669 8.47152Z" fill="#F4A72A"/>
</svg>
