<svg width="28" height="28" viewBox="0 0 28 28" fill="none" xmlns="http://www.w3.org/2000/svg">
<path d="M0 14C0 23.29 6.27 28 14 28C21.73 28 28 23.26 28 14C28 4.57 21.73 0 14 0C6.27 0 0 4.43 0 14Z" fill="#F3AD61"/>
<path d="M17.8902 6.32034L18.5102 6.36034C18.6451 6.36917 18.7804 6.3491 18.9069 6.30146C19.0334 6.25383 19.1484 6.17973 19.244 6.08412C19.3396 5.98851 19.4137 5.8736 19.4613 5.74706C19.5089 5.62052 19.529 5.48526 19.5202 5.35034L19.4802 4.74034C19.4655 4.48933 19.39 4.24566 19.2602 4.03034C19.0704 3.73015 18.781 3.50644 18.4426 3.39854C18.1043 3.29063 17.7387 3.30543 17.4102 3.44034C16.6102 3.78034 16.2702 4.72034 16.6502 5.49034C16.8802 5.99034 17.3702 6.28034 17.8902 6.32034ZM24.9202 12.6103L24.9602 11.9903C24.969 11.8554 24.9489 11.7202 24.9013 11.5936C24.8537 11.4671 24.7796 11.3522 24.684 11.2566C24.5884 11.161 24.4734 11.0869 24.3469 11.0392C24.2204 10.9916 24.0851 10.9715 23.9502 10.9803L23.3402 11.0203C23.1002 11.0303 22.8502 11.1103 22.6302 11.2403C22.33 11.4301 22.1063 11.7196 21.9984 12.0579C21.8905 12.3963 21.9053 12.7618 22.0402 13.0903C22.3802 13.8903 23.3202 14.2303 24.0902 13.8503C24.5902 13.6203 24.8802 13.1303 24.9202 12.6103ZM8.62019 22.5203L8.67019 21.7503C8.71019 21.1103 9.08019 20.5103 9.70019 20.2003C9.92711 20.086 10.1752 20.0196 10.4289 20.0053C10.6826 19.9911 10.9365 20.0292 11.1748 20.1174C11.4131 20.2056 11.6307 20.342 11.814 20.518C11.9973 20.6939 12.1424 20.9058 12.2402 21.1403C12.5902 21.9803 12.2802 22.9603 11.5102 23.4403C11.2302 23.6103 10.9302 23.7003 10.6302 23.7203L9.87019 23.7703C9.16019 23.8203 8.57019 23.2303 8.62019 22.5203ZM18.4002 13.1903L18.4302 12.7303C18.5302 11.2203 17.2802 9.97034 15.7602 10.0603L15.3102 10.0903C14.8602 10.1103 14.4102 10.2403 13.9902 10.4903C13.3875 10.8481 12.933 11.41 12.7091 12.0742C12.4853 12.7384 12.507 13.4608 12.7702 14.1103C13.4202 15.7003 15.2702 16.3703 16.7802 15.6203C17.7602 15.1503 18.3402 14.2003 18.4002 13.1903ZM5.65019 7.00034L5.68019 7.42034C5.74019 8.33034 6.27019 9.19034 7.15019 9.63034C8.52019 10.3103 10.2002 9.70034 10.7902 8.26034C11.2802 7.05034 10.8102 5.63034 9.68019 4.97034C9.31471 4.75615 8.90321 4.6327 8.48019 4.61034L8.07019 4.58034C6.70019 4.49034 5.57019 5.63034 5.65019 7.00034ZM22.2602 20.8203L22.2802 21.1803C22.3602 22.3503 21.3802 23.3303 20.2102 23.2503L19.8602 23.2303C19.5102 23.2103 19.1602 23.1103 18.8302 22.9203C18.3624 22.6426 18.0094 22.2066 17.8352 21.6912C17.6609 21.1757 17.6769 20.615 17.8802 20.1103C17.9988 19.8209 18.1759 19.559 18.4004 19.3412C18.6249 19.1233 18.8919 18.9542 19.1848 18.8444C19.4777 18.7345 19.7901 18.6864 20.1025 18.7029C20.4149 18.7194 20.7205 18.8002 21.0002 18.9403C21.7602 19.3003 22.2102 20.0303 22.2602 20.8203ZM3.87019 14.9203L3.91019 15.5403C3.94019 16.0603 4.24019 16.5503 4.74019 16.7803C5.51019 17.1603 6.45019 16.8203 6.79019 16.0203C7.07019 15.3503 6.82019 14.5603 6.20019 14.1703C5.98487 14.0405 5.7412 13.965 5.49019 13.9503L4.88019 13.9103C4.74527 13.9015 4.61002 13.9216 4.48348 13.9692C4.35694 14.0169 4.24202 14.091 4.14641 14.1866C4.05081 14.2822 3.97671 14.3971 3.92907 14.5236C3.88144 14.6502 3.86136 14.7854 3.87019 14.9203Z" fill="#6D4534"/>
</svg>
