<svg width="13" height="13" viewBox="0 0 13 13" fill="none" xmlns="http://www.w3.org/2000/svg">
<path d="M8.38274 4.98583H8.36919C8.3291 4.83414 8.27116 4.6902 8.19595 4.55682C8.2792 4.68782 8.34205 4.83177 8.38274 4.98583ZM4.5625 6.13438C4.5625 5.36476 4.7519 4.79918 5.05222 4.42373C4.73509 4.871 4.59921 5.46596 4.59844 6.1338V6.13438V6.89755C4.59844 7.53863 4.72634 8.11318 5.02533 8.55185C4.74085 8.18192 4.5625 7.63402 4.5625 6.89319V6.13438ZM8.37436 8.10123C8.33915 8.2171 8.28954 8.32739 8.22631 8.43039C8.28229 8.3266 8.32742 8.21644 8.3612 8.10123H8.37436ZM0.5 6.5C0.5 3.18663 3.18663 0.5 6.5 0.5C9.81337 0.5 12.5 3.18663 12.5 6.5C12.5 9.81337 9.81337 12.5 6.5 12.5C3.18663 12.5 0.5 9.81337 0.5 6.5ZM0.602679 6.5C0.602679 9.75628 3.24372 12.3973 6.5 12.3973C9.75628 12.3973 12.3973 9.75628 12.3973 6.5C12.3973 3.24372 9.75628 0.602679 6.5 0.602679C3.24372 0.602679 0.602679 3.24372 0.602679 6.5Z" fill="white" stroke="white"/>
</svg>
