<svg width="22" height="22" viewBox="0 0 22 22" fill="none" xmlns="http://www.w3.org/2000/svg">
<path fill-rule="evenodd" clip-rule="evenodd" d="M1.92285 1.92285L1.92582 1.92118C1.92818 1.91994 1.93224 1.91796 1.9384 1.91543C1.96502 1.90448 2.02414 1.88578 2.14215 1.86992C2.3997 1.83529 2.75904 1.83335 3.36112 1.83335H5.80556C6.40764 1.83335 6.76697 1.83529 7.02453 1.86992C7.14254 1.88578 7.20164 1.90448 7.22826 1.91543C7.23444 1.91796 7.23848 1.91994 7.24085 1.92118L7.24382 1.92285L7.24551 1.92583C7.24674 1.92819 7.24873 1.93225 7.25126 1.93841C7.26221 1.96503 7.28089 2.02414 7.29677 2.14216C7.3314 2.3997 7.33334 2.75905 7.33334 3.36113V8.25C7.33334 8.85207 7.3314 9.2114 7.29677 9.46893C7.28089 9.58699 7.26221 9.64615 7.25126 9.67267C7.24873 9.6789 7.24674 9.68294 7.24551 9.68526L7.24382 9.68831L7.24085 9.6899C7.23848 9.69125 7.23444 9.6932 7.22826 9.69565C7.20164 9.70665 7.14254 9.72535 7.02453 9.74124C6.76697 9.77583 6.40764 9.77778 5.80556 9.77778H3.36112C2.75904 9.77778 2.3997 9.77583 2.14215 9.74124C2.02414 9.72535 1.96502 9.70665 1.9384 9.69565C1.93224 9.6932 1.92818 9.69125 1.92582 9.6899L1.92285 9.68831L1.92117 9.68526C1.91993 9.68294 1.91795 9.6789 1.91542 9.67267C1.90447 9.64615 1.88578 9.58699 1.86991 9.46893C1.83528 9.2114 1.83334 8.85207 1.83334 8.25V3.36113C1.83334 2.75905 1.83528 2.3997 1.86991 2.14216C1.88578 2.02414 1.90447 1.96503 1.91542 1.93841C1.91795 1.93225 1.91993 1.92819 1.92117 1.92583L1.92285 1.92285ZM3.30642 4.10543e-06C3.32461 1.63277e-05 3.34283 1.63443e-05 3.36112 1.63443e-05H5.80556C5.82385 1.63443e-05 5.84207 1.63277e-05 5.86026 4.10543e-06C6.38925 -5.70057e-05 6.87427 -0.000105983 7.26882 0.0529385C7.70329 0.111348 8.16251 0.248787 8.54016 0.626478C8.91795 1.00417 9.05533 1.4634 9.11375 1.89787C9.1668 2.29242 9.16679 2.77744 9.16667 3.30643C9.16667 3.32462 9.16667 3.34284 9.16667 3.36113V8.25C9.16667 8.26834 9.16667 8.28655 9.16667 8.30476C9.16679 8.83374 9.1668 9.31872 9.11375 9.71325C9.05533 10.1477 8.91795 10.6069 8.54016 10.9846C8.16251 11.3624 7.70329 11.4998 7.26882 11.5582C6.87426 11.6112 6.38925 11.6112 5.86024 11.6111C5.84207 11.6111 5.82385 11.6111 5.80556 11.6111H3.36112C3.34283 11.6111 3.32461 11.6111 3.30643 11.6111C2.77743 11.6112 2.29241 11.6112 1.89786 11.5582C1.46338 11.4998 1.00417 11.3624 0.626467 10.9846C0.248776 10.6069 0.111337 10.1477 0.0529275 9.71325C-0.000116975 9.31872 -6.79809e-05 8.83374 5.35241e-06 8.30476C5.35241e-06 8.28655 5.35241e-06 8.26834 5.35241e-06 8.25V3.36113C5.35241e-06 3.34284 5.35241e-06 3.32461 5.35241e-06 3.30643C-6.79809e-05 2.77743 -0.000116975 2.29242 0.0529275 1.89787C0.111337 1.4634 0.248776 1.00417 0.626467 0.626478C1.00417 0.248787 1.46338 0.111348 1.89786 0.0529385C2.29241 -0.000105983 2.77742 -5.70057e-05 3.30642 4.10543e-06ZM14.1481 1.92118L14.145 1.92285L14.1434 1.92583C14.1422 1.92819 14.1401 1.93225 14.1377 1.93841C14.1267 1.96503 14.108 2.02414 14.0921 2.14216C14.0575 2.3997 14.0556 2.75905 14.0556 3.36113C14.0556 3.96319 14.0575 4.32254 14.0921 4.58009C14.108 4.6981 14.1267 4.75721 14.1377 4.78383C14.1387 4.7863 14.1404 4.79026 14.1404 4.79026C14.1416 4.79297 14.1434 4.79642 14.1434 4.79642L14.145 4.79939L14.1481 4.80108C14.1504 4.80231 14.1544 4.80428 14.1607 4.80682C14.1872 4.81777 14.2464 4.83646 14.3644 4.85232C14.6219 4.88695 14.9813 4.88891 15.5833 4.88891H18.0278C18.6299 4.88891 18.9892 4.88695 19.2467 4.85232C19.3648 4.83646 19.4239 4.81777 19.4505 4.80682C19.4567 4.80428 19.4607 4.80231 19.463 4.80108L19.4661 4.79939L19.4677 4.79642C19.4689 4.79405 19.471 4.79 19.4734 4.78383C19.4844 4.75721 19.5031 4.6981 19.519 4.58009C19.5536 4.32254 19.5556 3.96319 19.5556 3.36113C19.5556 2.75905 19.5536 2.3997 19.519 2.14216C19.5031 2.02414 19.4844 1.96503 19.4734 1.93841C19.471 1.93225 19.4689 1.92819 19.4677 1.92583L19.4661 1.92285L19.463 1.92118C19.4607 1.91994 19.4567 1.91796 19.4505 1.91543C19.4239 1.90448 19.3648 1.88578 19.2467 1.86992C18.9892 1.83529 18.6299 1.83335 18.0278 1.83335H15.5833C14.9813 1.83335 14.6219 1.83529 14.3644 1.86992C14.2464 1.88578 14.1872 1.90448 14.1607 1.91543C14.1544 1.91796 14.1504 1.91994 14.1481 1.92118ZM15.5287 4.10543e-06H18.0824C18.6115 -5.70057e-05 19.0965 -0.000105983 19.491 0.0529385C19.9255 0.111348 20.3847 0.248787 20.7624 0.626478C21.1402 1.00417 21.2775 1.4634 21.336 1.89787C21.389 2.29242 21.389 2.77743 21.3889 3.30643V3.41581C21.389 3.94481 21.389 4.42983 21.336 4.82437C21.2775 5.25886 21.1402 5.71807 20.7624 6.09576C20.3847 6.47347 19.9255 6.61089 19.491 6.66932C19.0965 6.72236 18.6115 6.7223 18.0824 6.72224H15.5287C14.9996 6.7223 14.5146 6.72236 14.1201 6.66932C13.6856 6.61089 13.2264 6.47347 12.8487 6.09576C12.471 5.71807 12.3336 5.25886 12.2752 4.82437C12.2221 4.42983 12.2221 3.94481 12.2222 3.41581C12.2222 3.39764 12.2222 3.3794 12.2222 3.36113C12.2222 3.34284 12.2222 3.32462 12.2222 3.30643C12.2221 2.77744 12.2221 2.29242 12.2752 1.89787C12.3336 1.4634 12.471 1.00417 12.8487 0.626478C13.2264 0.248787 13.6856 0.111348 14.1201 0.0529385C14.5146 -0.000105983 14.9996 -5.70057e-05 15.5287 4.10543e-06ZM15.5287 9.77778H18.0824C18.6115 9.77778 19.0965 9.77766 19.491 9.8307C19.9255 9.88913 20.3847 10.0265 20.7624 10.4043C21.1402 10.782 21.2775 11.2411 21.336 11.6756C21.389 12.0702 21.389 12.5552 21.3889 13.0843V18.0825C21.389 18.6115 21.389 19.0965 21.336 19.491C21.2775 19.9255 21.1402 20.3847 20.7624 20.7624C20.3847 21.1402 19.9255 21.2775 19.491 21.336C19.0965 21.389 18.6115 21.389 18.0824 21.3889H15.5287C14.9996 21.389 14.5146 21.389 14.1201 21.336C13.6856 21.2775 13.2264 21.1402 12.8487 20.7624C12.471 20.3847 12.3336 19.9255 12.2752 19.491C12.2221 19.0965 12.2221 18.6115 12.2222 18.0825V13.1389C12.2222 13.1207 12.2222 13.1023 12.2222 13.0843C12.2221 12.5552 12.2221 12.0702 12.2752 11.6756C12.3336 11.2411 12.471 10.782 12.8487 10.4043C13.2264 10.0265 13.6856 9.88913 14.1201 9.8307C14.5146 9.77766 14.9996 9.77778 15.5287 9.77778ZM14.1481 11.699L14.145 11.7006L14.1434 11.7036C14.1422 11.706 14.1401 11.71 14.1377 11.7162C14.1267 11.7429 14.108 11.8019 14.0921 11.92C14.0575 12.1775 14.0556 12.5368 14.0556 13.1389V18.0278C14.0556 18.6298 14.0575 18.9892 14.0921 19.2467C14.108 19.3648 14.1267 19.4239 14.1377 19.4504C14.1401 19.4567 14.1422 19.4607 14.1434 19.463L14.145 19.4661L14.1481 19.4677C14.1504 19.469 14.1544 19.471 14.1607 19.4734C14.1872 19.4844 14.2464 19.5031 14.3644 19.519C14.6219 19.5536 14.9813 19.5556 15.5833 19.5556H18.0278C18.6299 19.5556 18.9892 19.5536 19.2467 19.519C19.3648 19.5031 19.4239 19.4844 19.4505 19.4734C19.4567 19.471 19.4607 19.469 19.463 19.4677L19.4661 19.4661L19.4677 19.463C19.4689 19.4607 19.471 19.4567 19.4734 19.4504C19.4844 19.4239 19.5031 19.3648 19.519 19.2467C19.5536 18.9892 19.5556 18.6298 19.5556 18.0278V13.1389C19.5556 12.5368 19.5536 12.1775 19.519 11.92C19.5031 11.8019 19.4844 11.7429 19.4734 11.7162C19.472 11.7126 19.4706 11.7096 19.4696 11.7073L19.4677 11.7036L19.4661 11.7006L19.463 11.699C19.4607 11.6978 19.4567 11.6957 19.4505 11.6932C19.4239 11.6822 19.3648 11.6635 19.2467 11.6477C18.9892 11.6131 18.6299 11.6111 18.0278 11.6111H15.5833C14.9813 11.6111 14.6219 11.6131 14.3644 11.6477C14.2464 11.6635 14.1872 11.6822 14.1607 11.6932C14.1544 11.6957 14.1504 11.6978 14.1481 11.699ZM1.92582 16.5879L1.92285 16.5895L1.92117 16.5925C1.91993 16.5949 1.91795 16.5989 1.91542 16.6051C1.90447 16.6318 1.88577 16.6908 1.86991 16.8089C1.83528 17.0664 1.83334 17.4257 1.83334 18.0278C1.83334 18.6298 1.83528 18.9892 1.86991 19.2467C1.88577 19.3648 1.90447 19.4239 1.91542 19.4504C1.91795 19.4567 1.91993 19.4607 1.92117 19.463L1.92285 19.4661L1.92582 19.4677C1.92818 19.469 1.93224 19.471 1.9384 19.4734C1.96502 19.4844 2.02414 19.5031 2.14215 19.519C2.3997 19.5536 2.75904 19.5556 3.36112 19.5556H5.80556C6.40764 19.5556 6.76697 19.5536 7.02453 19.519C7.14254 19.5031 7.20164 19.4844 7.22826 19.4734C7.23138 19.4722 7.23605 19.4701 7.23605 19.4701L7.24085 19.4677L7.24382 19.4661L7.24551 19.463L7.24729 19.4595C7.24838 19.4572 7.24972 19.4542 7.25126 19.4504C7.26221 19.4239 7.28089 19.3648 7.29677 19.2467C7.3314 18.9892 7.33334 18.6298 7.33334 18.0278C7.33334 17.4257 7.3314 17.0664 7.29677 16.8089C7.28089 16.6908 7.26221 16.6318 7.25126 16.6051C7.24873 16.5989 7.24674 16.5949 7.24551 16.5925L7.24382 16.5895L7.24085 16.5879C7.23848 16.5867 7.23444 16.5846 7.22826 16.5821C7.20164 16.5711 7.14254 16.5524 7.02453 16.5365C6.76697 16.502 6.40764 16.5 5.80556 16.5H3.36112C2.75904 16.5 2.3997 16.502 2.14215 16.5365C2.02414 16.5524 1.96502 16.5711 1.9384 16.5821C1.93224 16.5846 1.92818 16.5867 1.92582 16.5879ZM3.30643 14.6667H5.86024C6.38925 14.6667 6.87426 14.6665 7.26882 14.7196C7.70329 14.778 8.16251 14.9154 8.54016 15.2932C8.91795 15.6708 9.05533 16.13 9.11375 16.5645C9.1668 16.9591 9.16679 17.444 9.16667 17.9731V18.0825C9.16679 18.6115 9.1668 19.0965 9.11375 19.491C9.05533 19.9255 8.91795 20.3847 8.54016 20.7624C8.16251 21.1402 7.70329 21.2775 7.26882 21.336C6.87426 21.389 6.38925 21.389 5.86024 21.3889H3.30642C2.77743 21.389 2.29241 21.389 1.89786 21.336C1.46338 21.2775 1.00417 21.1402 0.626467 20.7624C0.248776 20.3847 0.111337 19.9255 0.0529275 19.491C-0.000116975 19.0965 -6.79809e-05 18.6115 5.35241e-06 18.0825V17.9731C-6.79809e-05 17.444 -0.000116975 16.9591 0.0529275 16.5645C0.111337 16.13 0.248776 15.6708 0.626467 15.2932C1.00417 14.9154 1.46338 14.778 1.89786 14.7196C2.29241 14.6665 2.77743 14.6667 3.30643 14.6667Z" fill="current"/>
</svg>
