<svg width="36" height="27" viewBox="0 0 36 27" fill="none" xmlns="http://www.w3.org/2000/svg">
<path d="M0.613281 18.6081H8.75619V26.6959H0.613281V18.6081ZM0.613281 9.36491H8.75619V17.4527H0.613281V9.36491ZM0.613281 0.121643H8.75619V8.20946H0.613281V0.121643ZM9.91943 0.121643H18.0623V8.20946H9.91943V0.121643ZM9.91943 9.36484H18.0623V17.4527H9.91943V9.36484ZM9.91943 18.6081H18.0623V26.6959H9.91943V18.6081ZM12.2459 20.9189V24.3852H15.7357V20.9189H12.2459ZM32.6785 25.0764L28.0709 26.8331L19.5694 23.0735L23.3546 14.6294L27.962 12.8727L25.3173 18.7744C27.598 18.0458 29.5687 16.3929 30.6199 14.048C32.052 10.853 31.3808 7.25767 29.1981 4.79315C28.5897 4.42931 28.1827 3.76693 28.1827 3.01013C28.1827 1.86154 29.1201 0.930402 30.2765 0.930402C31.0096 0.930402 31.6546 1.30453 32.0287 1.87102C35.4086 5.48946 36.489 10.8988 34.3398 15.6931C32.8483 19.0205 30.0943 21.3979 26.8876 22.5167L32.6785 25.0764Z" fill="#515151"/>
</svg>
