<svg width="21" height="19" viewBox="0 0 21 19" fill="none" xmlns="http://www.w3.org/2000/svg">
<path fill-rule="evenodd" clip-rule="evenodd" d="M3.70594 0.633789H17.2942C17.9494 0.633789 18.5778 0.900693 19.0411 1.37579C19.5045 1.85088 19.7648 2.49524 19.7648 3.16712V10.8292C19.7646 11.4681 19.5291 12.0834 19.1053 12.5517C18.6815 13.0201 18.1008 13.307 17.4795 13.3549L17.2843 13.3625L3.69606 13.3093C3.04253 13.3066 2.41666 13.0386 1.95547 12.5638C1.49428 12.089 1.23535 11.4461 1.23535 10.776V3.16712C1.23535 2.49524 1.49564 1.85088 1.95897 1.37579C2.4223 0.900693 3.0507 0.633789 3.70594 0.633789V0.633789Z" stroke="#515151" stroke-linecap="round" stroke-linejoin="round"/>
<path d="M4.2793 15.833H16.6767" stroke="#F4A72A" stroke-linecap="round" stroke-linejoin="round"/>
<path d="M6.79395 18.3662H14.2057" stroke="#F4A72A" stroke-linecap="round" stroke-linejoin="round"/>
</svg>
