<svg width="19" height="10" viewBox="0 0 19 10" fill="none" xmlns="http://www.w3.org/2000/svg">
<path d="M10.786 0.370736C11.004 0.165844 11.2941 0.0525718 11.5951 0.0548201C11.896 0.0570684 12.1844 0.174662 12.3992 0.382787C12.614 0.590912 12.7386 0.87329 12.7465 1.17034C12.7545 1.46738 12.6452 1.75586 12.4418 1.9749L6.26727 9.59851C6.16109 9.71141 6.03295 9.80202 5.8905 9.86491C5.74804 9.9278 5.59421 9.96168 5.43819 9.96453C5.28217 9.96739 5.12717 9.93915 4.98246 9.88151C4.83774 9.82387 4.70629 9.73801 4.59595 9.62907L0.501239 5.58657C0.387208 5.48167 0.295747 5.35517 0.232312 5.21461C0.168876 5.07406 0.134766 4.92233 0.132017 4.76848C0.129267 4.61463 0.157934 4.46181 0.216308 4.31913C0.274681 4.17645 0.361566 4.04685 0.471778 3.93804C0.581989 3.82923 0.713271 3.74346 0.85779 3.68583C1.00231 3.6282 1.15711 3.5999 1.31294 3.60261C1.46878 3.60532 1.62247 3.639 1.76484 3.70163C1.90721 3.76425 2.03535 3.85455 2.1416 3.96713L5.38209 7.16476L10.755 0.404348C10.7647 0.392552 10.775 0.381329 10.786 0.370736ZM9.36229 8.22351L10.786 9.62907C10.8963 9.73777 11.0277 9.82343 11.1722 9.88093C11.3168 9.93843 11.4716 9.96659 11.6275 9.96374C11.7833 9.96089 11.9369 9.92708 12.0792 9.86433C12.2216 9.80158 12.3496 9.71118 12.4558 9.59851L18.6334 1.9749C18.7444 1.86674 18.8322 1.7376 18.8915 1.59521C18.9508 1.45282 18.9804 1.30009 18.9786 1.14615C18.9767 0.992199 18.9435 0.840194 18.8809 0.699206C18.8182 0.558218 18.7274 0.431139 18.6139 0.325559C18.5005 0.219978 18.3666 0.138061 18.2203 0.0846996C18.074 0.031338 17.9183 0.00762588 17.7626 0.0149799C17.6068 0.0223338 17.4541 0.0606034 17.3137 0.127502C17.1732 0.194401 17.0479 0.288557 16.9451 0.404348L11.5706 7.16476L10.82 6.42226L9.36074 8.22351H9.36229Z" fill="#F4A72A"/>
</svg>
