<svg width="10" height="10" viewBox="0 0 10 10" fill="none" xmlns="http://www.w3.org/2000/svg">
<path d="M4.70007 1.26007C4.63309 1.18784 4.581 1.10313 4.54676 1.01077C4.51253 0.918411 4.49682 0.820213 4.50053 0.721783C4.50425 0.623353 4.52731 0.526618 4.56841 0.437102C4.60951 0.347586 4.66784 0.267041 4.74007 0.200067C4.81229 0.133093 4.89701 0.0810008 4.98936 0.0467648C5.08172 0.0125289 5.17992 -0.00318029 5.27835 0.000534052C5.47714 0.00803551 5.66481 0.0941982 5.80007 0.240067L9.80007 4.49007C9.92869 4.62875 10.0002 4.81092 10.0002 5.00007C10.0002 5.18922 9.92869 5.37138 9.80007 5.51007L5.80007 9.76007C5.66481 9.90594 5.47714 9.9921 5.27835 9.9996C5.07956 10.0071 4.88594 9.93533 4.74007 9.80007C4.5942 9.66481 4.50804 9.47714 4.50053 9.27835C4.49303 9.07956 4.56481 8.88594 4.70007 8.74007L8.22607 5.00007L4.70007 1.26007ZM0.700067 1.26007C0.633093 1.18784 0.581 1.10313 0.546764 1.01077C0.512528 0.918411 0.496819 0.820213 0.500534 0.721783C0.508035 0.522994 0.594198 0.335328 0.740067 0.200067C0.885936 0.0648069 1.07956 -0.0069674 1.27835 0.000534052C1.47714 0.00803551 1.66481 0.0941982 1.80007 0.240067L5.80007 4.49007C5.92869 4.62875 6.00016 4.81092 6.00016 5.00007C6.00016 5.18922 5.92869 5.37138 5.80007 5.51007L1.80007 9.76007C1.73309 9.83229 1.65255 9.89062 1.56303 9.93172C1.47352 9.97282 1.37678 9.99589 1.27835 9.9996C1.17992 10.0033 1.08172 9.98761 0.989364 9.95337C0.897005 9.91913 0.812294 9.86704 0.740067 9.80007C0.66784 9.73309 0.609511 9.65255 0.568412 9.56303C0.527313 9.47352 0.504248 9.37678 0.500534 9.27835C0.496819 9.17992 0.512528 9.08172 0.546764 8.98936C0.581 8.89701 0.633093 8.81229 0.700067 8.74007L4.22707 5.00007L0.700067 1.26007Z" fill="#515151"/>
</svg>
