<svg width="18" height="18" viewBox="0 0 18 18" fill="none" xmlns="http://www.w3.org/2000/svg">
<path d="M14.5129 5.84961L13.6129 6.74961C15.5254 7.76211 16.4254 9.33711 16.7629 10.1246C15.9754 11.1371 13.6129 13.6121 8.88789 13.6121C8.10039 13.6121 7.53789 13.4996 6.86289 13.3871L5.96289 14.2871C6.86289 14.6246 7.87539 14.7371 8.88789 14.7371C15.3004 14.7371 18.0004 10.2371 18.0004 10.2371C18.0004 10.2371 17.3254 7.53711 14.5129 5.84961Z" fill="#F4A72A"/>
<path d="M13.4998 7.98789C13.4998 7.65039 13.4998 7.31289 13.3873 7.08789L7.9873 12.3754C8.3248 12.3754 8.6623 12.4879 8.9998 12.4879C11.4748 12.4879 13.4998 10.4629 13.4998 7.98789Z" fill="#F4A72A"/>
<path d="M17.2125 0L12.2625 4.95C11.3625 4.725 10.2375 4.5 9 4.5C1.4625 4.5 0 10.2375 0 10.2375C0 10.2375 1.125 12.2625 3.7125 13.6125L0 17.2125V18H0.7875L18 0.7875V0H17.2125ZM4.5 12.7125C2.7 11.925 1.6875 10.6875 1.2375 10.125C1.575 9.3375 2.475 7.65 4.725 6.525C4.6125 6.975 4.5 7.425 4.5 7.9875C4.5 9.225 5.0625 10.4625 5.9625 11.25L4.5 12.7125ZM6.975 8.8875L5.85 9.1125C5.85 9.1125 5.5125 8.55 5.5125 7.7625C5.5125 6.8625 5.9625 6.075 5.9625 6.075C6.525 5.7375 7.425 5.7375 7.425 5.7375C7.425 5.7375 6.8625 6.75 6.8625 7.65C6.75 8.4375 6.975 8.8875 6.975 8.8875Z" fill="#F4A72A"/>
</svg>
