<svg width="36" height="27" viewBox="0 0 36 27" fill="none" xmlns="http://www.w3.org/2000/svg">
<path d="M33.1569 0.472691H12.3828L12.4474 0.633634L13.9986 4.49301L32.9409 4.50785C32.9409 4.50785 33.627 4.54705 34.0093 4.63281L33.969 4.61797V1.2848C33.969 0.835859 33.6048 0.472691 33.1569 0.472691Z" fill="#F4A72A"/>
<path d="M0.5 22.6424H35.1188V9.06644C35.1188 7.66862 34.1737 6.48619 32.8856 6.11779C32.7282 6.08372 32.4955 6.05571 32.2837 6.03589C32.1785 6.02605 32.0846 6.01877 32.017 6.01395C31.9833 6.01154 31.9563 6.00976 31.9379 6.00859L31.9241 6.00774L12.9967 5.99291L12.659 5.99265L12.5331 5.67938L10.982 1.82021L10.9819 1.82L10.4506 0.499746H1.72268C1.04695 0.499746 0.5 1.04671 0.5 1.72245V22.6424ZM35.1188 24.9279H0.5V25.2675C0.5 25.9424 1.04715 26.4902 1.72268 26.4902H33.8961C34.5708 26.4902 35.1188 25.9422 35.1188 25.2675V24.9279Z" stroke="#515151"/>
<path d="M0.886719 23.9277H34.7368V23.6423H0.886719V23.9277Z" stroke="#F4A72A"/>
</svg>
