<svg width="25" height="15" viewBox="0 0 25 15" fill="none" xmlns="http://www.w3.org/2000/svg">
<path d="M16.0245 12.8571C16.2482 12.8571 16.4627 12.9418 16.6209 13.0925C16.779 13.2432 16.8679 13.4476 16.8679 13.6607C16.8679 13.8738 16.779 14.0782 16.6209 14.2289C16.4627 14.3796 16.2482 14.4643 16.0245 14.4643H8.71508C8.4914 14.4643 8.27688 14.3796 8.11871 14.2289C7.96054 14.0782 7.87169 13.8738 7.87169 13.6607C7.87169 13.4476 7.96054 13.2432 8.11871 13.0925C8.27688 12.9418 8.4914 12.8571 8.71508 12.8571H16.0245ZM20.5226 6.42857C20.7463 6.42857 20.9608 6.51323 21.119 6.66393C21.2771 6.81463 21.366 7.01902 21.366 7.23214C21.366 7.44526 21.2771 7.64965 21.119 7.80035C20.9608 7.95105 20.7463 8.03571 20.5226 8.03571H4.21697C3.99329 8.03571 3.77877 7.95105 3.6206 7.80035C3.46244 7.64965 3.37358 7.44526 3.37358 7.23214C3.37358 7.01902 3.46244 6.81463 3.6206 6.66393C3.77877 6.51323 3.99329 6.42857 4.21697 6.42857H20.5226ZM23.8962 0C24.1199 0 24.3344 0.0846616 24.4926 0.235361C24.6507 0.386059 24.7396 0.590451 24.7396 0.803571C24.7396 1.01669 24.6507 1.22108 24.4926 1.37178C24.3344 1.52248 24.1199 1.60714 23.8962 1.60714H0.843395C0.619713 1.60714 0.405192 1.52248 0.247025 1.37178C0.0888573 1.22108 0 1.01669 0 0.803571C0 0.590451 0.0888573 0.386059 0.247025 0.235361C0.405192 0.0846616 0.619713 0 0.843395 0H23.8962Z" fill="#515151"/>
</svg>
