<svg width="15" height="15" viewBox="0 0 15 15" fill="none" xmlns="http://www.w3.org/2000/svg">
<path d="M7.5 7.30859L7.5 14.3016" stroke="#F4A72A" stroke-linecap="round" stroke-linejoin="round"/>
<path fill-rule="evenodd" clip-rule="evenodd" d="M1.5 7.30859H13.5V12.4368C13.5 12.9808 13.2893 13.5026 12.9142 13.8873C12.5391 14.272 12.0304 14.4881 11.5 14.4881H3.5C2.96957 14.4881 2.46086 14.272 2.08579 13.8873C1.71071 13.5026 1.5 12.9808 1.5 12.4368V7.30859Z" stroke="#515151" stroke-linecap="round" stroke-linejoin="round"/>
<path fill-rule="evenodd" clip-rule="evenodd" d="M4.5 4.23003H7.5V2.17875C7.5 0.640287 5.281 0.352081 4.5 1.15311C3.719 1.95413 3.719 3.429 4.5 4.23003ZM10.5 4.23003H7.5V2.17875C7.5 0.640287 9.719 0.352081 10.5 1.15311C11.281 1.95413 11.281 3.429 10.5 4.23003ZM1.5 4.23003H13.5C13.7652 4.23003 14.0196 4.33809 14.2071 4.53043C14.3946 4.72278 14.5 4.98366 14.5 5.25567V6.28131C14.5 6.55333 14.3946 6.81421 14.2071 7.00655C14.0196 7.1989 13.7652 7.30695 13.5 7.30695H1.5C1.23478 7.30695 0.98043 7.1989 0.792893 7.00655C0.605357 6.81421 0.5 6.55333 0.5 6.28131V5.25567C0.5 4.98366 0.605357 4.72278 0.792893 4.53043C0.98043 4.33809 1.23478 4.23003 1.5 4.23003V4.23003Z" stroke="#515151" stroke-linecap="round" stroke-linejoin="round"/>
</svg>
