<svg width="34" height="25" viewBox="0 0 34 25" fill="none" xmlns="http://www.w3.org/2000/svg">
<path d="M25.2051 25V16.4575H34.0002V25H25.2051Z" fill="#515151"/>
<path d="M21.3954 25H12.6016V8.63863H21.3954V25Z" fill="#515151"/>
<path d="M5.03823 25L0 18.4192V16.6968L6.3592 25H5.03823Z" fill="#F4A72A"/>
<path d="M6.69987 25L0 16.2506V14.526L8.02171 25H6.69987Z" fill="#F4A72A"/>
<path d="M7.48828 1.8239e-05H8.79322V1.70337L7.48828 1.8239e-05Z" fill="#F4A72A"/>
<path d="M8.79394 16.8882L0 5.40532V3.68073L8.79394 15.1647V16.8882Z" fill="#F4A72A"/>
<path d="M8.79394 19.0568L0 7.57396V5.85045L8.79394 17.3333V19.0568Z" fill="#F4A72A"/>
<path d="M8.79394 25H8.36141L0 14.0809V12.3574L8.79394 23.8402V25Z" fill="#F4A72A"/>
<path d="M8.79394 14.7184L0 3.23449V1.51213L8.79394 12.9949V14.7184Z" fill="#F4A72A"/>
<path d="M8.79394 23.3962L0 11.9112V10.1877L8.79394 21.6727V23.3962Z" fill="#F4A72A"/>
<path d="M8.79385 3.87195L5.82812 2.0504e-05H7.1478L8.79385 2.1485V3.87195Z" fill="#F4A72A"/>
<path d="M8.79394 21.2275L0 9.74249V8.01899L8.79394 19.5018V21.2275Z" fill="#F4A72A"/>
<path d="M8.79487 8.21033L2.50586 4.3869e-05H3.82565L8.79487 6.48688V8.21033Z" fill="#F4A72A"/>
<path d="M0 22.7587V21.0341L3.03591 25H1.71581L0 22.7587Z" fill="#F4A72A"/>
<path d="M0 24.9273V23.2038L1.37438 25H0.0550266L0 24.9273Z" fill="#F4A72A"/>
<path d="M8.79398 10.38L0.84375 0H2.16397L8.79398 8.65656V10.38Z" fill="#F4A72A"/>
<path d="M3.37745 25L0 20.589V18.8655L4.69799 25H3.37745Z" fill="#F4A72A"/>
<path d="M8.79425 4.31825V6.04175L4.16602 4.19617e-05H5.48656L8.79425 4.31825Z" fill="#F4A72A"/>
<path d="M8.79394 12.5486L0 1.06578V-5.34058e-05H0.503477L8.79394 10.8251V12.5486Z" fill="#F4A72A"/>
<path d="M8.79449 2.14856L7.14844 7.96318e-05H7.48955L8.79449 1.70343V2.14856Z" fill="white"/>
<path d="M8.79402 4.31824L5.48633 3.33786e-05H5.8283L8.79402 3.87196V4.31824Z" fill="white"/>
<path d="M8.79345 6.48682L3.82422 -1.95503e-05H4.16521L8.79345 6.04169V6.48682Z" fill="white"/>
<path d="M8.79407 8.65662L2.16406 5.91278e-05H2.50506L8.79407 8.21034V8.65662Z" fill="white"/>
<path d="M8.79437 10.8252L0.503906 5.91278e-05H0.844142L8.79437 10.3801V10.8252Z" fill="white"/>
<path d="M8.79394 12.995L0 1.51219V1.06591L8.79394 12.5487V12.995Z" fill="white"/>
<path d="M8.79394 15.1647L0 3.68072V3.2345L8.79394 14.7184V15.1647Z" fill="white"/>
<path d="M8.79394 17.3333L0 5.85039V5.40526L8.79394 16.8881V17.3333Z" fill="white"/>
<path d="M8.79394 19.5018L0 8.01902V7.57389L8.79394 19.0567V19.5018Z" fill="white"/>
<path d="M8.79394 21.6727L0 10.1877V9.74255L8.79394 21.2276V21.6727Z" fill="white"/>
<path d="M8.79394 23.8402L0 12.3574V11.9112L8.79394 23.3962V23.8402Z" fill="white"/>
<path d="M8.02171 25L0 14.526V14.0809L8.36141 25H8.02171Z" fill="white"/>
<path d="M6.3592 25L0 16.6968V16.2506L6.69987 25H6.3592Z" fill="white"/>
<path d="M4.69799 25L0 18.8655V18.4192L5.03823 25H4.69799Z" fill="white"/>
<path d="M0 21.0341V20.589L3.37745 25H3.03591L0 21.0341Z" fill="white"/>
<path d="M0 23.2038V22.7587L1.71581 25H1.37438L0 23.2038Z" fill="white"/>
<path d="M0 24.9273L0.0549015 25H0V24.9273Z" fill="white"/>
</svg>
