<svg width="18" height="18" viewBox="0 0 18 18" fill="none" xmlns="http://www.w3.org/2000/svg">
<path d="M4.33398 5.00945C4.33398 2.61623 6.2741 0.676118 8.66731 0.676118C11.0605 0.676118 13.0006 2.61623 13.0006 5.00945C13.0006 7.40266 11.0605 9.34277 8.66731 9.34277C6.2741 9.34277 4.33398 7.40266 4.33398 5.00945Z" stroke="#F4A72A" stroke-width="1.35416" stroke-miterlimit="10" stroke-linecap="round" stroke-linejoin="round"/>
<path d="M13.6133 10.3246C14.4024 10.6752 15.0337 11.0902 15.5122 11.5106C16.2417 12.1515 16.6569 13.0775 16.6569 14.0485V15.3011C16.6569 16.049 16.0506 16.6553 15.3027 16.6553H2.0319C1.28403 16.6553 0.677734 16.049 0.677734 15.3011V14.0485C0.677734 13.0775 1.09295 12.1515 1.82244 11.5106C3.05758 10.4254 5.3102 9.34278 8.66731 9.34278" stroke="#F4A72A" stroke-width="1.35416" stroke-miterlimit="10" stroke-linecap="round"/>
</svg>
