<svg width="22" height="22" viewBox="0 0 22 22" fill="none" xmlns="http://www.w3.org/2000/svg">
<mask id="path-1-inside-1_463_67821" fill="white">
<path d="M20.9416 14.2988C20.9537 16.154 19.6629 17.6738 18.0658 17.6869C16.4679 17.7009 15.1598 16.2022 15.1477 14.3469C15.1372 12.4926 16.4272 10.972 18.0243 10.9597C19.6221 10.9457 20.931 12.4444 20.9416 14.2988ZM22 6.68427C22 2.99833 19.4177 0 16.2424 0C13.915 0 11.9061 1.61436 11 3.92858C10.0947 1.61436 8.08572 0 5.75762 0C2.58308 0 0 2.99833 0 6.68427C0 7.46034 0.115413 8.20665 0.327401 8.90214C0.568057 9.69223 0.932428 10.4157 1.39488 11.0385C1.59253 11.3039 1.80681 11.5527 2.03841 11.7805L10.8182 21.9071C10.8718 21.9693 10.9434 22 11.0143 22C11.0853 22 11.1561 21.9693 11.2105 21.9071L15.1628 17.3479C15.8818 18.2703 16.9199 18.851 18.0726 18.8422C20.2189 18.8239 21.9517 16.7821 21.9366 14.29C21.9283 12.9726 21.4297 11.7927 20.6466 10.972C21.0789 10.3763 21.4266 9.69574 21.659 8.95032C21.88 8.24169 22 7.47874 22 6.68427Z"/>
</mask>
<path d="M18.0658 17.6869L18.057 16.6869L18.0575 16.6869L18.0658 17.6869ZM15.1477 14.3469L14.1478 14.3535L14.1478 14.3526L15.1477 14.3469ZM18.0243 10.9597L18.0331 11.9597L18.032 11.9597L18.0243 10.9597ZM20.9416 14.2988L19.9416 14.3053L19.9416 14.3045L20.9416 14.2988ZM11 3.92858L11.9312 4.29314L10.9996 6.67255L10.0687 4.29288L11 3.92858ZM0.327401 8.90214L1.28395 8.61058L1.28401 8.61076L0.327401 8.90214ZM1.39488 11.0385L0.592851 11.6358L0.592018 11.6347L1.39488 11.0385ZM2.03841 11.7805L2.73955 11.0674L2.76792 11.0953L2.79398 11.1254L2.03841 11.7805ZM10.8182 21.9071L11.5738 21.2521L11.5759 21.2546L10.8182 21.9071ZM11.2105 21.9071L11.9661 22.5622L11.9636 22.565L11.2105 21.9071ZM15.1628 17.3479L14.4072 16.6929L15.2038 15.7739L15.9515 16.7331L15.1628 17.3479ZM18.0726 18.8422L18.0812 19.8422L18.0802 19.8422L18.0726 18.8422ZM21.9366 14.29L22.9366 14.2837L22.9366 14.284L21.9366 14.29ZM20.6466 10.972L19.9231 11.6623L19.3477 11.0592L19.8373 10.3846L20.6466 10.972ZM21.659 8.95032L20.7043 8.65273L20.7044 8.65254L21.659 8.95032ZM21.9416 14.2923C21.9563 16.5544 20.357 18.6681 18.074 18.6869L18.0575 16.6869C18.9687 16.6794 19.951 15.7536 19.9416 14.3053L21.9416 14.2923ZM18.0745 18.6869C15.7872 18.7069 14.1625 16.6149 14.1478 14.3535L16.1477 14.3404C16.1572 15.7895 17.1487 16.6949 18.057 16.6869L18.0745 18.6869ZM14.1478 14.3526C14.1349 12.0929 15.7325 9.97728 18.0166 9.95974L18.032 11.9597C17.1219 11.9667 16.1395 12.8923 16.1477 14.3412L14.1478 14.3526ZM18.0155 9.95975C20.3023 9.93969 21.9287 12.0312 21.9416 14.2931L19.9416 14.3045C19.9334 12.8576 18.9419 11.9517 18.0331 11.9597L18.0155 9.95975ZM21 6.68427C21 3.40532 18.7305 1 16.2424 1V-1C20.1048 -1 23 2.59134 23 6.68427H21ZM16.2424 1C14.4101 1 12.7201 2.2781 11.9312 4.29314L10.0688 3.56401C11.092 0.950615 13.42 -1 16.2424 -1V1ZM10.0687 4.29288C9.28062 2.27819 7.59081 1 5.75762 1V-1C8.58064 -1 10.9088 0.95052 11.9313 3.56427L10.0687 4.29288ZM5.75762 1C3.27016 1 1 3.40541 1 6.68427H-1C-1 2.59125 1.89599 -1 5.75762 -1V1ZM1 6.68427C1 7.36106 1.10063 8.00913 1.28395 8.61058L-0.629151 9.1937C-0.869803 8.40417 -1 7.55963 -1 6.68427H1ZM1.28401 8.61076C1.49246 9.29513 1.80604 9.91486 2.19774 10.4424L0.592018 11.6347C0.0588181 10.9166 -0.356349 10.0893 -0.629208 9.19351L1.28401 8.61076ZM2.19691 10.4412C2.36666 10.6692 2.54759 10.8787 2.73955 11.0674L1.33727 12.4935C1.06602 12.2267 0.818412 11.9387 0.592852 11.6358L2.19691 10.4412ZM2.79398 11.1254L11.5738 21.2521L10.0626 22.5622L1.28284 12.4355L2.79398 11.1254ZM11.5759 21.2546C11.4416 21.0986 11.2378 21 11.0143 21V23C10.6491 23 10.3019 22.84 10.0605 22.5597L11.5759 21.2546ZM11.0143 21C10.7866 21 10.5862 21.1017 10.4573 21.2493L11.9636 22.565C11.7261 22.837 11.3839 23 11.0143 23V21ZM10.4549 21.2521L14.4072 16.6929L15.9184 18.0029L11.9661 22.5622L10.4549 21.2521ZM15.9515 16.7331C16.5109 17.4508 17.2711 17.8483 18.065 17.8423L18.0802 19.8422C16.5686 19.8537 15.2526 19.0898 14.3741 17.9627L15.9515 16.7331ZM18.064 17.8423C19.5244 17.8298 20.9493 16.3818 20.9367 14.2961L22.9366 14.284C22.9542 17.1823 20.9133 19.8179 18.0812 19.8422L18.064 17.8423ZM20.9367 14.2963C20.9299 13.2257 20.5247 12.2928 19.9231 11.6623L21.3701 10.2817C22.3347 11.2926 22.9268 12.7195 22.9366 14.2837L20.9367 14.2963ZM19.8373 10.3846C20.2067 9.87553 20.5049 9.29256 20.7043 8.65273L22.6137 9.24791C22.3484 10.0989 21.951 10.8771 21.4559 11.5593L19.8373 10.3846ZM20.7044 8.65254C20.8953 8.04052 21 7.37798 21 6.68427H23C23 7.5795 22.8648 8.44286 22.6136 9.2481L20.7044 8.65254Z" fill="current" mask="url(#path-1-inside-1_463_67821)"/>
<path d="M18.6623 16.6963V15.0408H20.0889V13.606H18.6623V11.9496H17.4266V13.606H16V15.0408H17.4266V16.6963H18.6623Z" fill="#F4A72A"/>
</svg>
