<svg width="15" height="15" viewBox="0 0 15 15" fill="none" xmlns="http://www.w3.org/2000/svg">
<path d="M14.8605 4.53749C14.8605 2.03582 13.1157 0.000271797 10.9724 0.000271797C9.39859 0.000271797 8.04143 1.09637 7.42952 2.66748C6.81857 1.09637 5.46096 0.000271797 3.88858 0.000271797C1.74382 0.000271797 0 2.03582 0 4.53749C0 5.06471 0.0776367 5.57082 0.220494 6.04304C0.382875 6.5797 0.629537 7.07026 0.941918 7.49304C1.07525 7.67415 1.22002 7.84194 1.37621 7.99693L7.30715 14.8703C7.34382 14.9125 7.39143 14.9336 7.43952 14.9336C7.48762 14.9336 7.53572 14.9125 7.57238 14.8703L13.7238 7.73971L13.7234 7.73915C14.1219 7.27248 14.4343 6.70693 14.63 6.07582C14.779 5.59471 14.8605 5.07693 14.8605 4.53749Z" fill="current"/>
</svg>
