<svg width="29" height="29" viewBox="0 0 29 29" fill="none" xmlns="http://www.w3.org/2000/svg">
<path d="M22.5015 23.9645L19.5665 21.0275C18.1185 22.1547 16.3351 22.7654 14.5001 22.7624C12.665 22.7654 10.8817 22.1547 9.43364 21.0275L6.4987 23.9645C8.73363 25.8596 11.5699 26.8977 14.5001 26.8933C17.5507 26.8933 20.3452 25.7903 22.5015 23.9645ZM23.9638 22.5022C25.8589 20.2673 26.897 17.431 26.8925 14.5008C26.8925 11.4502 25.7896 8.65572 23.9638 6.49943L21.0268 9.43437C22.1132 10.8347 22.7617 12.5924 22.7617 14.5008C22.7617 16.4093 22.1132 18.1669 21.0268 19.5673L23.9638 22.5022ZM22.5015 5.03712C20.2665 3.14205 17.4303 2.1039 14.5001 2.10838C11.4495 2.10838 8.65498 3.2113 6.4987 5.03712L9.43364 7.97413C10.8817 6.84693 12.665 6.23624 14.5001 6.23919C16.4085 6.23919 18.1662 6.88773 19.5665 7.97413L22.5015 5.03712ZM5.03639 6.49943C3.14132 8.73436 2.10317 11.5706 2.10764 14.5008C2.10764 17.5514 3.21057 20.3459 5.03639 22.5022L7.9734 19.5673C6.8462 18.1192 6.23551 16.3359 6.23846 14.5008C6.23846 12.5924 6.887 10.8347 7.9734 9.43437L5.03639 6.49943ZM18.5028 19.2306C18.7647 19.0085 19.0078 18.7654 19.2299 18.5036C20.1448 17.4234 20.6963 16.0251 20.6963 14.5008C20.698 13.6001 20.5025 12.71 20.1236 11.8929C19.7446 11.0758 19.1914 10.3516 18.5028 9.77104C17.385 8.82245 15.9661 8.30263 14.5001 8.3046C13.5994 8.30292 12.7093 8.49841 11.8922 8.87734C11.0751 9.25627 10.3509 9.80945 9.7703 10.4981C8.85533 11.5783 8.30386 12.9765 8.30386 14.5008C8.30219 15.4015 8.49768 16.2916 8.87661 17.1087C9.25554 17.9258 9.80872 18.65 10.4973 19.2306C11.5775 20.1456 12.9758 20.697 14.5001 20.697C16.0264 20.697 17.4226 20.1456 18.5028 19.2306ZM14.5001 28.9587C10.6656 28.9587 6.98821 27.4354 4.27684 24.7241C1.56547 22.0127 0.0422363 18.3353 0.0422363 14.5008C0.0422363 10.6664 1.56547 6.98895 4.27684 4.27757C6.98821 1.5662 10.6656 0.0429688 14.5001 0.0429688C18.3345 0.0429688 22.012 1.5662 24.7233 4.27757C27.4347 6.98895 28.9579 10.6664 28.9579 14.5008C28.9579 18.3353 27.4347 22.0127 24.7233 24.7241C22.012 27.4354 18.3345 28.9587 14.5001 28.9587Z" fill="white"/>
</svg>
