<svg width="31" height="29" viewBox="0 0 31 29" fill="none" xmlns="http://www.w3.org/2000/svg">
<path d="M7.91591 0.85766L7.91665 0.857529C8.52458 0.748798 9.5572 0.788404 10.2362 0.956038L10.2395 0.956848C10.8779 1.10986 11.6678 1.44804 12.2436 1.82244L12.2467 1.82444C12.779 2.16499 13.6543 2.9494 14.1212 3.49574C14.2872 3.69703 14.4263 3.85046 14.6031 3.99264C14.7759 4.13165 14.9695 4.24746 15.2251 4.39211L15.2277 4.39361C16.6736 5.20053 18.7451 6.0595 20.3142 6.50321L20.3144 6.50328C21.0047 6.69812 21.4515 6.81387 21.9797 6.88348C22.5 6.95205 23.0889 6.97444 24.0633 6.99926L24.0636 6.99927C25.0766 7.02453 25.6377 7.04944 26.0553 7.11201C26.4495 7.17107 26.7192 7.26419 27.1446 7.45128L27.1452 7.45153C28.7936 8.174 29.8132 9.42711 30.1125 11.0272L30.1127 11.0279C30.5475 13.3339 29.082 15.6475 26.6312 16.3914L26.6311 16.3914C26.2793 16.4983 26.0821 16.5494 25.7615 16.5835C25.4204 16.6197 24.9433 16.6362 24.0345 16.6585C22.3916 16.6974 22.1232 16.7198 21.4788 16.8583L21.4764 16.8588C19.5084 17.2921 17.0953 18.2266 15.2288 19.2641L15.2255 19.2659L15.2256 19.2659C14.9698 19.4105 14.7763 19.5263 14.6034 19.6654C14.4267 19.8076 14.2876 19.9612 14.1215 20.1623C13.6547 20.7086 12.7793 21.4931 12.247 21.8337L12.2447 21.8351L12.2447 21.8351C11.6744 22.2044 10.8885 22.5434 10.2344 22.7081L7.91591 0.85766ZM7.91591 0.85766C5.60246 1.26784 3.60501 2.88266 2.23919 5.57654L2.23916 5.5766M7.91591 0.85766L2.23916 5.5766M2.23916 5.5766C0.324101 9.35268 0.334955 14.3414 2.26241 18.1249C2.90772 19.3858 3.53052 20.2071 4.47824 21.062C5.421 21.9124 6.39318 22.4409 7.47352 22.7076L7.47353 22.7075M2.23916 5.5766L7.47353 22.7075M7.47353 22.7075L7.47633 22.7083M7.47353 22.7075L7.47633 22.7083M7.47633 22.7083C7.92384 22.8215 8.07345 22.8374 8.85503 22.8374M7.47633 22.7083L8.85503 22.8374M8.85503 22.8374C9.64129 22.8374 9.78016 22.8219 10.2343 22.7081L8.85503 22.8374ZM9.66915 3.46521L9.67115 3.46579C10.4838 3.70168 11.2416 4.27385 11.8801 5.03265C12.5222 5.79574 13.0669 6.77425 13.4464 7.87424L13.4466 7.87499C14.4673 10.8492 14.273 14.325 12.9167 17.0429L12.9159 17.0444C12.4358 17.9984 11.8094 18.8067 11.1178 19.3821C10.4313 19.9534 9.64525 20.3229 8.85534 20.3229C7.97235 20.3229 6.91386 19.7673 6.18346 19.0178C4.94746 17.7594 4.11301 15.9008 3.75129 13.7434L3.75128 13.7434L3.75077 13.7402C3.67325 13.2593 3.63769 12.5339 3.63769 11.8307C3.63769 11.1274 3.67326 10.401 3.7507 9.91771L3.75101 9.91583C4.00977 8.33951 4.54465 6.91149 5.2662 5.79149C5.98364 4.67786 6.91183 3.83054 7.97295 3.49188C8.56641 3.30074 9.07076 3.29422 9.66915 3.46521Z" stroke="#515151"/>
<path d="M10.149 7.60451C9.12819 8.32632 8.3628 9.43644 8.04226 10.6411C7.90586 11.1741 7.89997 12.4954 8.04226 13.0171C8.36869 14.2328 9.12819 15.3321 10.149 16.0537C10.3626 16.2036 10.5526 16.3257 10.5762 16.3257C10.6534 16.3257 11.0331 15.4873 11.2232 14.9099C11.8701 12.928 11.8701 10.7296 11.2232 8.74769C11.0331 8.1703 10.6534 7.3322 10.5762 7.3322C10.5526 7.33249 10.3629 7.45458 10.149 7.60451Z" fill="#F4A72A"/>
<path d="M24.217 19.4403L24.2187 19.4403C24.7134 19.4292 25.1693 19.4152 25.5059 19.4011C25.5614 19.3988 25.614 19.3964 25.6632 19.3941C25.535 20.0486 25.3132 21.1872 25.0694 22.4544C24.8828 23.4241 24.7021 24.3311 24.5624 25.0109C24.4925 25.351 24.433 25.633 24.3883 25.8371C24.3659 25.9394 24.3476 26.0202 24.3338 26.0782C24.3217 26.1291 24.3164 26.1476 24.3166 26.1477C24.3167 26.1478 24.3175 26.1457 24.3187 26.1422M24.217 19.4403L24.3195 26.1401C24.3192 26.1409 24.319 26.1416 24.3187 26.1422M24.217 19.4403C23.3305 19.4571 22.8997 19.4667 22.6046 19.4914C22.3312 19.5142 22.184 19.5489 21.8533 19.631M24.217 19.4403L21.8533 19.631M24.3187 26.1422C24.1652 26.5586 23.9167 26.9271 23.5274 27.2912L23.5267 27.2919C22.2433 28.4973 20.1748 28.5067 18.9112 27.3246L24.3187 26.1422ZM21.8533 19.631C21.2494 19.7817 20.4429 20.0319 19.7682 20.2667C19.4311 20.3841 19.1335 20.4952 18.9149 20.5858C18.8427 20.6157 18.7822 20.6421 18.7334 20.6647C18.7067 20.7816 18.6712 20.9464 18.6288 21.1494C18.5419 21.5655 18.4282 22.1319 18.3068 22.7496C17.9153 24.7957 17.8932 24.9995 17.917 25.3458L17.9171 25.3467C17.9672 26.0946 18.2751 26.7293 18.9111 27.3246L21.8533 19.631ZM18.6201 20.7224C18.6149 20.7257 18.6162 20.7253 18.6217 20.7214C18.621 20.7218 18.6205 20.7221 18.6201 20.7224Z" stroke="#515151"/>
</svg>
