<svg width="31" height="29" viewBox="0 0 31 29" fill="none" xmlns="http://www.w3.org/2000/svg">
<path d="M10.8786 19.1991C10.8786 18.3093 10.23 17.4086 8.99079 17.4086L8.41102 17.4084C7.77726 17.4084 7.49384 17.0149 7.49384 16.6249C7.49384 16.276 7.73387 15.8682 8.41102 15.8682H10.0353C10.3024 15.8682 10.5189 15.6363 10.5189 15.3504C10.5189 15.0644 10.3024 14.8325 10.0353 14.8325H9.42794V13.9827C9.42794 13.6967 9.21144 13.4648 8.94443 13.4648C8.67742 13.4648 8.46092 13.6967 8.46092 13.9827V14.8325H8.41106C7.17399 14.8325 6.52686 15.7341 6.52686 16.6249C6.52686 17.529 7.17399 18.4443 8.41106 18.4443H8.99083C9.67057 18.4443 9.91166 18.851 9.91166 19.1991C9.91166 19.591 9.62695 19.9868 8.99083 19.9868H7.36651C7.0995 19.9868 6.883 20.2187 6.883 20.5047C6.883 20.7907 7.0995 21.0225 7.36651 21.0225H8.4609V21.7508C8.4609 22.0368 8.6774 22.2686 8.94441 22.2686C9.21142 22.2686 9.42793 22.0368 9.42793 21.7508V20.9796C9.82683 20.9132 10.191 20.6984 10.4562 20.3727C10.7217 20.047 10.8713 19.6313 10.8787 19.1992L10.8786 19.1991Z" fill="#F4A72A"/>
<path d="M8.70265 27.6767C8.24612 27.7146 6.82817 27.949 6.60261 27.949C6.52037 27.9538 6.43791 27.9421 6.35978 27.9145C6.21084 27.848 6.06427 27.777 5.9203 27.7012V27.7009C5.56587 27.5111 5.16652 27.439 4.77346 27.4942L4.39551 27.5819C4.35255 27.5925 4.30787 27.5941 4.26427 27.5867C4.27161 27.4723 4.27895 27.3639 4.28715 27.2682C4.29924 27.1237 4.33097 26.7404 3.47988 25.823H3.48009C2.42328 24.6969 1.6501 23.3024 1.23262 21.7696C0.235814 18.002 2.19125 14.6475 4.6513 10.9645C4.99342 10.4522 7.22861 7.25438 7.7356 6.4138L7.73582 7.26894V7.26917C7.73582 7.55515 7.95232 7.78703 8.21933 7.78703C8.48634 7.78703 8.70284 7.55515 8.70284 7.26917L8.70263 6.21428H8.74407L10.2947 7.87492C10.4836 8.07651 10.7893 8.07628 10.9779 7.87422C11.1663 7.67239 11.1668 7.34504 10.9783 7.14277L10.1114 6.2143H10.9982C11.5248 7.13348 14.6671 11.7778 15.1106 12.4848L15.6451 11.484C15.282 10.9185 12.251 6.44115 11.7364 5.51889C11.7364 5.51889 13.501 0.731943 13.504 0.723421C13.5617 0.558582 13.5379 0.373634 13.4408 0.231457C13.3436 0.0895107 13.1863 0.00928751 13.022 0.0183012C13.0192 0.01807 13.0168 0.0173764 13.014 0.0173764C12.3779 0.0173764 12.0094 0.428886 11.7403 0.728941C11.4901 1.00798 11.3679 1.12196 11.165 1.12196C10.9785 1.12196 10.8933 1.03133 10.6783 0.752058C10.4495 0.454986 10.1037 0.00581194 9.44641 0.00581194C8.78911 0.00581194 8.44357 0.45524 8.21497 0.752295C7.99998 1.0318 7.91493 1.12196 7.72908 1.12196C7.51129 1.12196 7.37076 0.981862 7.12102 0.713459C6.84106 0.412226 6.45747 0 5.82764 0C5.66359 0.000924744 5.51012 0.0866923 5.41558 0.23026C5.32103 0.374058 5.29729 0.557616 5.3519 0.723378L7.11907 5.51701C6.64268 6.36476 4.21303 9.8402 3.86462 10.3617C1.7406 13.5412 -0.902307 17.4975 0.302383 22.0517C0.764526 23.7534 1.62168 25.3022 2.79377 26.5529C2.9971 26.7573 3.17345 26.9903 3.31829 27.2455C3.31117 27.335 3.30448 27.4346 3.298 27.5412V27.541C3.27901 27.8182 3.3688 28.091 3.54559 28.2942C3.82469 28.5834 4.22377 28.6967 4.60003 28.594L4.97821 28.5064V28.5062C5.1578 28.5013 5.33566 28.5443 5.49582 28.6313C5.65879 28.7168 5.82414 28.7973 5.98775 28.8703C6.37564 29.0432 6.92714 28.9808 7.6302 28.8629C7.96218 28.8072 8.32673 28.7494 8.72028 28.714H8.7205C8.70906 28.6373 8.70301 28.5596 8.70258 28.4819L8.70265 27.6767ZM7.72894 2.15727C8.38641 2.15727 8.73221 1.70784 8.96104 1.41055C9.1756 1.13151 9.26065 1.04111 9.44628 1.04111C9.63213 1.04111 9.71717 1.13127 9.93216 1.41055C10.161 1.70785 10.507 2.15727 11.1651 2.15727H11.1649C11.4902 2.15796 11.8058 2.03959 12.0596 1.82205L10.8225 5.17817L8.03387 5.17794L6.78299 1.7853C7.04827 2.02342 7.38282 2.15497 7.72885 2.15728L7.72894 2.15727Z" fill="#515151"/>
<path d="M21.6314 25.3752H20.5489V24.2609C20.5489 23.4478 19.8511 22.7861 18.9931 22.7861L13.8851 22.7864C13.0271 22.7864 12.3292 23.4478 12.3292 24.2611V25.3752H11.2465C10.3773 25.3752 9.66992 26.0366 9.66992 26.8499V28.4823C9.66992 28.7683 9.88642 29.0002 10.1534 29.0002H22.7247C22.9917 29.0002 23.2082 28.7683 23.2082 28.4823V26.8499C23.2082 26.0366 22.5009 25.3752 21.6314 25.3752V25.3752ZM13.2963 24.2609C13.2963 24.023 13.5659 23.8218 13.8851 23.8218H18.9931C19.3069 23.8218 19.5819 24.0269 19.5819 24.2609V25.3752H13.2963V24.2609ZM22.2415 27.9645H10.6372V26.8499C10.6372 26.6423 10.8874 26.4109 11.2468 26.4109H21.6315C21.9909 26.4109 22.2413 26.6423 22.2413 26.8499L22.2415 27.9645Z" fill="#515151"/>
<path d="M30.6944 22.0735L23.0367 17.5577L23.8569 16.0222L30.2282 19.7734H30.228C30.462 19.9112 30.756 19.8199 30.8849 19.5693C31.0135 19.3187 30.928 19.0038 30.694 18.8658L23.9956 14.9217L23.9958 14.922C23.9123 14.615 23.7187 14.3563 23.4575 14.2021L21.4354 12.9997C21.4464 12.8122 21.4278 12.624 21.3808 12.4432C21.3579 12.3577 21.3287 12.2742 21.294 12.1935L22.0965 10.6906H22.0963C22.2647 10.7352 22.4373 10.7585 22.6109 10.7602C22.8844 10.774 23.1566 10.7098 23.3994 10.5738C23.6423 10.4379 23.8469 10.2354 23.9923 9.98661C24.1756 9.63221 24.2175 9.21374 24.1091 8.82585C23.9354 8.23702 23.5511 7.74598 23.0402 7.45977L21.0632 6.28444C20.7142 6.07291 20.3209 5.95963 19.9199 5.95546C19.6462 5.94159 19.374 6.00586 19.1312 6.1418C18.8883 6.27774 18.6837 6.48049 18.5382 6.72901C18.3552 7.08342 18.3131 7.50189 18.4217 7.88978C18.5188 8.24141 18.6986 8.56045 18.944 8.81612L18.1449 10.3126H18.1447C17.6366 10.3738 17.1857 10.6899 16.9301 11.1641L15.5146 13.8148C15.3037 14.2067 15.2495 14.673 15.3641 15.1083C15.387 15.1934 15.4162 15.2766 15.4509 15.357L14.6419 16.8724C14.4735 16.8278 14.3008 16.8045 14.1275 16.8029C13.8538 16.789 13.5816 16.8532 13.3388 16.9892C13.096 17.1251 12.8913 17.3279 12.7459 17.5766C12.5628 17.9308 12.5209 18.349 12.6295 18.7367C12.8031 19.326 13.1873 19.8176 13.6982 20.1038L15.6752 21.2787H15.6754C16.024 21.4902 16.4173 21.6035 16.8182 21.6079C17.0919 21.6218 17.3641 21.5575 17.6069 21.4216C17.8497 21.2856 18.0543 21.0829 18.2 20.8343C18.3835 20.4802 18.4254 20.0615 18.3166 19.6736C18.2197 19.3219 18.0398 19.0031 17.7946 18.7472L18.6002 17.2381C18.8631 17.2055 19.1144 17.104 19.3321 16.9428L21.3629 18.1503V18.1501C21.6258 18.3068 21.9355 18.347 22.2256 18.2617L30.2282 22.9807H30.228C30.3404 23.0472 30.4727 23.0632 30.5962 23.0251C30.7197 22.9869 30.8237 22.8979 30.8857 22.7775C30.9476 22.6568 30.9623 22.5151 30.9265 22.3828C30.8906 22.2508 30.8071 22.1396 30.6946 22.0735L30.6944 22.0735ZM19.1818 10.4569L19.743 9.40596L21.2041 10.2748L20.6429 11.3258L19.1818 10.4569ZM19.3778 7.24345V7.24322C19.505 7.06358 19.7105 6.96811 19.9198 6.99122C20.1564 6.99631 20.3882 7.06451 20.5939 7.18982L22.5711 8.36562C22.8546 8.51889 23.0719 8.78337 23.1775 9.10423C23.215 9.2256 23.2064 9.35807 23.1529 9.47251C22.923 9.90251 22.2482 9.71109 21.937 9.52614L19.96 8.35034C19.6507 8.16655 19.1471 7.67482 19.3778 7.2432L19.3778 7.24345ZM16.3539 14.3295L17.7695 11.6787C17.8856 11.4651 18.0993 11.3343 18.3301 11.3356C18.4404 11.3356 18.5492 11.3659 18.6456 11.4233C18.6456 11.4233 20.1473 12.3163 20.1486 12.3168V12.3171C20.293 12.4026 20.3997 12.5459 20.4452 12.7156C20.4905 12.8855 20.4713 13.0677 20.3912 13.2221L18.9755 15.8724C18.7916 16.191 18.4086 16.3029 18.0993 16.1281C18.0993 16.1281 16.599 15.2362 16.5964 15.2346V15.2344C16.2965 15.0559 16.1882 14.6511 16.354 14.3295L16.3539 14.3295ZM16.1422 16.1492L16.1666 16.164L17.6039 17.0185L16.9954 18.1582L15.5339 17.2892L16.1422 16.1492ZM17.3531 20.3154C17.1124 20.7422 16.4653 20.5639 16.1448 20.3734L14.1678 19.1985V19.1987C13.8839 19.045 13.6666 18.7801 13.5608 18.4589C13.452 18.0423 13.7849 17.8389 14.1274 17.8389C14.364 17.844 14.5956 17.9124 14.8011 18.0377L16.7783 19.2133H16.7785C17.0621 19.3665 17.2795 19.6312 17.3853 19.9523C17.423 20.0726 17.4114 20.2046 17.3531 20.3153L17.3531 20.3154ZM20.0256 16.1705L21.1702 14.0267L22.9884 15.1079C23.027 15.1304 23.0559 15.1683 23.0684 15.2136C23.081 15.2587 23.076 15.3075 23.0548 15.3488L22.0798 17.175C22.0561 17.22 22.0166 17.2529 21.9697 17.2663C21.9231 17.2795 21.8734 17.2718 21.832 17.245L20.0256 16.1705Z" fill="#515151"/>
</svg>
