<svg width="14" height="15" viewBox="0 0 14 15" fill="none" xmlns="http://www.w3.org/2000/svg">
<path d="M6.23845 5.69609L0.0575287 11.6259C0.0217027 11.661 0.000951212 11.7086 8.4232e-06 11.7591C-0.000462971 11.8101 0.0188702 11.8586 0.053282 11.8942L1.04085 12.9012C1.07621 12.9373 1.12382 12.957 1.17332 12.956C1.22281 12.9551 1.27042 12.9344 1.30389 12.8974L7.12137 6.59645C7.18878 6.52243 7.18737 6.40752 7.11713 6.3359L6.49347 5.69994C6.4237 5.6288 6.31057 5.62687 6.23845 5.69609Z" fill="#515151"/>
<path d="M12.1825 12.7705C12.1448 12.7326 12.0948 12.711 12.0416 12.711H5.92288C5.87055 12.711 5.81917 12.7331 5.78193 12.7705C5.74469 12.809 5.72348 12.8619 5.72348 12.9148V13.6098H5.02534V14.3054H3.96094V15H14.0031V14.3054H12.9396V13.6098H12.241V12.9148C12.241 12.8609 12.2202 12.8095 12.1825 12.7705Z" fill="#F4A72A"/>
<path d="M5.32812 3.78426L8.88197 7.40723L11.3153 4.9259C11.3393 4.90091 11.3667 4.88167 11.3931 4.86101L7.82558 1.2236C7.80578 1.25004 7.78645 1.2779 7.76241 1.30242L5.32812 3.78426Z" fill="#515151"/>
<path d="M11.3898 4.86112C11.3634 4.88179 11.3361 4.90102 11.3121 4.92601L8.87873 7.40734L8.84384 7.44243C8.55205 7.74046 8.55205 8.22356 8.84384 8.52159C9.13611 8.81962 9.61033 8.81962 9.90212 8.52159L12.3703 6.00469C12.6626 5.70666 12.6626 5.22404 12.3703 4.92601C12.1021 4.6525 11.6831 4.63327 11.3898 4.86112Z" fill="#515151"/>
<path d="M6.70258 0.223227L4.23482 2.73966C3.94256 3.03769 3.94256 3.5208 4.23482 3.81883C4.52662 4.11638 5.00084 4.11638 5.29263 3.81883L5.32657 3.78374L7.76086 1.3019C7.7849 1.27739 7.80423 1.24952 7.82403 1.22308C8.04794 0.923612 8.02861 0.496261 7.76086 0.223227C7.46859 -0.0748034 6.99484 -0.0748034 6.70258 0.223227Z" fill="#515151"/>
</svg>
