<svg fill="none" version="1.1" viewBox="0 0 33 33" xmlns="http://www.w3.org/2000/svg">
 <path d="m7.75 0.91602c-1.8119 0-3.5508 0.72073-4.832 2.002-1.2812 1.2812-2.002 3.0201-2.002 4.832v17.5c0 1.8118 0.72069 3.5508 2.002 4.832 1.2789 1.279 3.0139 1.9974 4.8223 2a1.0001 1.0001 0 0 0 0.0097656 0.001953h17.693c1.7605 0 3.4505-0.70046 4.6953-1.9453 1.2449-1.2449 1.9453-2.9349 1.9453-4.6953v-0.19336c0-0.010508-0.001837-0.020747-0.001953-0.03125v-17.469c0-1.8119-0.71873-3.5508-2-4.832-1.2812-1.2813-3.0202-2.002-4.832-2.002h-17.5zm0 2h17.5c1.2822 0 2.5094 0.50936 3.416 1.416a1.0001 1.0001 0 0 0 0.001953 0c0.90668 0.9067 1.4141 2.1357 1.4141 3.418v14.264l-4.8535-5.293c-0.36784-0.40128-0.81403-0.72083-1.3125-0.93945-0.49865-0.21883-1.0379-0.33115-1.582-0.33008-0.54437 0.0011-1.0826 0.11532-1.5801 0.33594-0.4974 0.22071-0.94438 0.54261-1.3105 0.94531l-12.117 13.328c-1.1269-0.098731-2.1878-0.58624-2.9941-1.3926a1.0001 1.0001 0 0 0 0-0.001953c-0.90666-0.90656-1.416-2.1339-1.416-3.416v-17.5c0-1.2823 0.50932-2.5113 1.416-3.418 0.90669-0.90669 2.1357-1.416 3.418-1.416zm3.6465 3.834c-2.5539 0-4.6465 2.0925-4.6465 4.6465 0 2.554 2.0925 4.6445 4.6465 4.6445 2.554 0 4.6445-2.0905 4.6445-4.6445 0-2.5539-2.0905-4.6465-4.6445-4.6465zm0 2c1.4732 0 2.6445 1.1734 2.6445 2.6465 0 1.4732-1.1714 2.6445-2.6445 2.6445-1.473 0-2.6465-1.1714-2.6465-2.6445 0-1.473 1.1734-2.6465 2.6465-2.6465zm10.941 8.7012c0.26649-5.26e-4 0.52969 0.05514 0.77344 0.16211 0.24393 0.10698 0.46262 0.26266 0.64258 0.45898l5.877 6.4102c0.23269 0.25494 0.35909 0.40543 0.39844 0.47461 0.036194 0.063618 0.05037 0.092327 0.052734 0.25977v0.033203c0 1.2821-0.50737 2.5094-1.4141 3.416a1.0001 1.0001 0 0 0-0.001953 0.001953c-0.90656 0.90664-2.1339 1.4141-3.416 1.4141h-15.238l10.912-12.004c0.17903-0.1969 0.39703-0.3548 0.64062-0.46289 0.2435-0.10798 0.50701-0.16354 0.77344-0.16406z" color="#000000" fill="#515151" stroke-linecap="round" stroke-linejoin="round" style="-inkscape-stroke:none"/>
</svg>
