<svg width="13" height="16" viewBox="0 0 13 16" fill="none" xmlns="http://www.w3.org/2000/svg">
<path d="M12.6579 0H0.342105C0.153195 0 0 0.142693 0 0.318725V15.6813C0 15.8573 0.153195 16 0.342105 16H12.6579C12.8468 16 13 15.8573 13 15.6813V0.318725C13 0.142693 12.8468 0 12.6579 0ZM12.3158 15.3626H0.684211V0.63745H12.3158V15.3626Z" fill="white"/>
<path d="M2.22492 5.25899H5.20123C5.39014 5.25899 5.54334 5.1163 5.54334 4.94027V2.16736C5.54334 1.99133 5.39014 1.84863 5.20123 1.84863H2.22492C2.03601 1.84863 1.88281 1.99133 1.88281 2.16736V4.94027C1.88281 5.1163 2.03601 5.25899 2.22492 5.25899ZM2.56702 2.48608H4.85913V4.62154H2.56702V2.48608Z" fill="white"/>
<path d="M2.22492 9.75313H5.20123C5.39014 9.75313 5.54334 9.61044 5.54334 9.43441V8.82883C5.54334 8.6528 5.39014 8.5101 5.20123 8.5101C5.01232 8.5101 4.85913 8.6528 4.85913 8.82883V9.11568H2.56702V6.98022H4.68808C4.87699 6.98022 5.03018 6.83753 5.03018 6.6615C5.03018 6.48547 4.87699 6.34277 4.68808 6.34277H2.22492C2.03601 6.34277 1.88281 6.48547 1.88281 6.6615V9.43441C1.88281 9.61044 2.03601 9.75313 2.22492 9.75313Z" fill="white"/>
<path d="M2.22492 14.215H5.20123C5.39014 14.215 5.54334 14.0724 5.54334 13.8963V11.1234C5.54334 10.9474 5.39014 10.8047 5.20123 10.8047H2.22492C2.03601 10.8047 1.88281 10.9474 1.88281 11.1234V13.8963C1.88281 14.0724 2.03601 14.215 2.22492 14.215ZM2.56702 11.4421H4.85913V13.5776H2.56702V11.4421Z" fill="white"/>
<path d="M9.09992 3.15503H10.8104C10.9994 3.15503 11.1525 3.01234 11.1525 2.8363C11.1525 2.66027 10.9994 2.51758 10.8104 2.51758H9.09992C8.91101 2.51758 8.75781 2.66027 8.75781 2.8363C8.75781 3.01234 8.91101 3.15503 9.09992 3.15503Z" fill="white"/>
<path d="M7.08429 3.15503H7.66587C7.85478 3.15503 8.00798 3.01234 8.00798 2.8363C8.00798 2.66027 7.85478 2.51758 7.66587 2.51758H7.08429C6.89538 2.51758 6.74219 2.66027 6.74219 2.8363C6.74219 3.01234 6.89538 3.15503 7.08429 3.15503Z" fill="white"/>
<path d="M7.08429 4.46265H10.8132C11.0022 4.46265 11.1553 4.31995 11.1553 4.14392C11.1553 3.96789 11.0022 3.8252 10.8132 3.8252H7.08429C6.89538 3.8252 6.74219 3.96789 6.74219 4.14392C6.74219 4.31995 6.89538 4.46265 7.08429 4.46265Z" fill="white"/>
<path d="M10.8104 7.04395H9.09992C8.91101 7.04395 8.75781 7.18664 8.75781 7.36267C8.75781 7.5387 8.91101 7.6814 9.09992 7.6814H10.8104C10.9994 7.6814 11.1525 7.5387 11.1525 7.36267C11.1525 7.18664 10.9994 7.04395 10.8104 7.04395Z" fill="white"/>
<path d="M7.08429 7.6814H7.66587C7.85478 7.6814 8.00798 7.5387 8.00798 7.36267C8.00798 7.18664 7.85478 7.04395 7.66587 7.04395H7.08429C6.89538 7.04395 6.74219 7.18664 6.74219 7.36267C6.74219 7.5387 6.89538 7.6814 7.08429 7.6814Z" fill="white"/>
<path d="M7.08429 8.98804H10.8132C11.0022 8.98804 11.1553 8.84534 11.1553 8.66931C11.1553 8.49328 11.0022 8.35059 10.8132 8.35059H7.08429C6.89538 8.35059 6.74219 8.49328 6.74219 8.66931C6.74219 8.84534 6.89538 8.98804 7.08429 8.98804Z" fill="white"/>
<path d="M10.8104 11.4746H9.09992C8.91101 11.4746 8.75781 11.6173 8.75781 11.7933C8.75781 11.9694 8.91101 12.1121 9.09992 12.1121H10.8104C10.9994 12.1121 11.1525 11.9694 11.1525 11.7933C11.1525 11.6173 10.9994 11.4746 10.8104 11.4746Z" fill="white"/>
<path d="M7.08429 12.1121H7.66587C7.85478 12.1121 8.00798 11.9694 8.00798 11.7933C8.00798 11.6173 7.85478 11.4746 7.66587 11.4746H7.08429C6.89538 11.4746 6.74219 11.6173 6.74219 11.7933C6.74219 11.9694 6.89538 12.1121 7.08429 12.1121Z" fill="white"/>
<path d="M7.08429 13.4187H10.8132C11.0022 13.4187 11.1553 13.276 11.1553 13.1C11.1553 12.9239 11.0022 12.7812 10.8132 12.7812H7.08429C6.89538 12.7812 6.74219 12.9239 6.74219 13.1C6.74219 13.276 6.89538 13.4187 7.08429 13.4187Z" fill="white"/>
<path d="M3.45345 7.53002C3.31691 7.40843 3.10029 7.41298 2.96978 7.54025C2.83923 7.66752 2.84416 7.86927 2.98076 7.9909L3.84762 8.76671C3.91443 8.82895 4.00198 8.86006 4.08952 8.86006C4.17707 8.86006 4.26461 8.82895 4.33143 8.76671L6.36695 6.87029C6.50055 6.74583 6.50055 6.54401 6.36695 6.41952C6.23333 6.29506 6.01677 6.29506 5.88311 6.41952L4.08638 8.09346L3.45345 7.53002Z" fill="white"/>
</svg>
