<svg width="20" height="20" viewBox="0 0 20 20" fill="none" xmlns="http://www.w3.org/2000/svg">
<g clip-path="url(#clip0_491_83523)">
<path d="M17.7778 0H2.22222C1 0 0 1 0 2.22222V17.7778C0 19 1 20 2.22222 20H17.7778C19 20 20 19 20 17.7778V2.22222C20 1 19 0 17.7778 0ZM6.66667 11.6667C6.66667 12.8889 5.66667 13.3333 4.44444 13.3333C3.22222 13.3333 2.22222 12.8889 2.22222 11.6667V10H3.88889V11.6667H5V6.66667H6.66667V11.6667ZM12.2222 9.44444C12.2222 10.3333 11.4444 11.1111 10.5556 11.1111H9.44444V13.3333H7.77778V6.66667H10.5556C11.4444 6.66667 12.2222 7.44444 12.2222 8.33333V9.44444ZM17.7778 8.33333H15V11.6667H16.1111V10H17.7778V11.8889C17.7778 12.6667 17.2222 13.3333 16.3333 13.3333H14.8889C14 13.3333 13.4444 12.5556 13.4444 11.8889V8.22222C13.3333 7.44444 13.8889 6.66667 14.7778 6.66667H16.2222C17.1111 6.66667 17.6667 7.44445 17.6667 8.11111V8.33333M9.44444 8.33333H10.5556V9.44444H9.44444V8.33333Z" fill="#515151"/>
</g>
<defs>
<clipPath id="clip0_491_83523">
<rect width="20" height="20" fill="white"/>
</clipPath>
</defs>
</svg>
