<svg width="18" height="8" viewBox="0 0 18 8" fill="none" xmlns="http://www.w3.org/2000/svg">
<path d="M16.426 2.50566H9.18555V5.08398H11.6611L11.9042 4.65535H11.9606H12.9479L13.436 3.82265C13.436 3.82265 13.8192 4.36347 14.0069 4.65535H14.8322L15.3709 4.02966L15.7303 4.65535H16.426L17.9999 4.02022L16.426 2.50566Z" fill="#F4A72A"/>
<path d="M2.14826 5.09745C1.45363 5.09745 0.890196 4.56131 0.890196 3.89929C0.890196 3.23773 1.45363 2.70161 2.14826 2.70161C2.84289 2.70161 3.40582 3.23773 3.40582 3.89929C3.40582 4.56131 2.84289 5.09745 2.14826 5.09745ZM9.18565 2.17915H7.76472C7.09682 0.889999 5.70658 0.000228405 4.09452 0.000228405C1.83387 0.000228405 0 1.74582 0 3.89929C0 6.05322 1.83387 7.79883 4.09452 7.79883C5.70658 7.79883 7.09682 6.90952 7.76472 5.61942H9.18565V5.08283V2.5045V2.17915Z" fill="#515151"/>
</svg>
