<svg width="19" height="22" viewBox="0 0 19 22" fill="none" xmlns="http://www.w3.org/2000/svg">
<path d="M4.37922 0.0636902C4.02314 0.123793 3.53131 0.304098 3.18364 0.501671C2.74695 0.74634 2.08128 1.42047 1.83969 1.86271C1.26304 2.91046 1.2079 4.13829 1.69553 5.19029C2.19156 6.26361 3.05653 6.98079 4.18856 7.25551C4.51917 7.33714 5.34605 7.35419 5.63017 7.2813L5.81241 7.23847L6.10074 7.5475C6.26195 7.71502 6.65612 8.14 6.98253 8.49635L7.5718 9.14043L4.11216 9.16196L0.652519 9.18349L0.449011 9.31221C0.296435 9.40663 0.207414 9.50553 0.122601 9.67282L0.00390625 9.90045V15.9501V22H7.83886C13.1174 22 15.7586 21.9827 15.9453 21.9527C16.7255 21.8282 17.3189 21.5104 17.9168 20.9049C18.3874 20.4284 18.6206 20.0548 18.8031 19.5096C18.964 19.0115 18.9981 18.7067 18.9981 17.6204C18.9981 16.7875 18.9811 16.5383 18.9133 16.2078C18.8201 15.7483 18.5869 15.2116 18.2986 14.8037L18.1077 14.5332V12.2877C18.1077 9.75445 18.1035 9.73293 17.8236 9.45395C17.7346 9.36805 17.6075 9.26938 17.5353 9.23933C17.4334 9.19649 16.6745 9.17922 13.9698 9.16196L10.5314 9.14043L11.4006 8.19158L12.2655 7.24273L12.4436 7.28557C12.5368 7.30709 12.8378 7.3284 13.105 7.3284C13.8768 7.3284 14.4618 7.15662 15.1062 6.7359C15.8609 6.23782 16.4121 5.44349 16.6327 4.52895C16.7556 4.02234 16.7556 3.26658 16.6285 2.78577C16.0815 0.703283 13.9702 -0.460182 11.9606 0.213945C11.4221 0.398512 11.0534 0.634657 10.5828 1.11144C9.84493 1.85845 9.50169 2.68709 9.50169 3.70905C9.50169 4.86826 10.18 6.13062 11.1255 6.73613C11.2358 6.80901 11.3249 6.87786 11.3249 6.8949C11.3249 6.91195 10.8627 7.4273 10.2989 8.04133L9.27715 9.16196H9.05238H8.82761L7.79745 8.04133C7.22922 7.42304 6.76286 6.90791 6.75865 6.8949C6.75023 6.87764 6.84767 6.80475 6.96636 6.73613C7.44535 6.45266 8.03041 5.74848 8.29769 5.13894C8.59022 4.46907 8.67083 3.48165 8.48858 2.78599C8.12297 1.39468 7.02062 0.347155 5.64677 0.0852184C5.26522 0.0121098 4.74372 0.00358772 4.37922 0.0636902ZM5.83345 1.08139C6.24888 1.21886 6.71104 1.52789 6.99936 1.85419C7.24516 2.12891 7.51666 2.6613 7.61409 3.04344C7.70732 3.4128 7.6947 4.00956 7.58863 4.39596C7.4954 4.73953 7.27063 5.20756 7.18582 5.24187C7.11806 5.26767 6.27435 4.88552 6.15565 4.7781L6.07084 4.69647L6.215 4.4518C6.74492 3.54579 6.46523 2.41664 5.60448 1.98292C5.43906 1.90129 5.34162 1.88424 4.98554 1.88424C4.6082 1.88424 4.53623 1.89702 4.32408 2.00444C4.03155 2.14618 3.76449 2.42942 3.61612 2.75572C3.51426 2.9746 3.50163 3.05197 3.50163 3.47717C3.50163 3.94946 3.50163 3.95372 3.68388 4.32734C3.90865 4.78236 3.90865 4.7781 3.34042 5.03152C2.74695 5.29346 2.78083 5.28919 2.64088 5.06583C2.41611 4.70948 2.28479 4.21566 2.28058 3.73058C2.27638 3.21097 2.33572 2.94051 2.55606 2.46395C2.69602 2.17197 2.79766 2.03024 3.07336 1.75126C3.53972 1.27896 3.96379 1.0686 4.70984 0.944138C4.94302 0.90534 5.50704 0.973965 5.83345 1.08139ZM13.9609 1.07264C14.3637 1.20136 14.8469 1.5234 15.1395 1.85419C15.3855 2.12891 15.6568 2.6613 15.7542 3.04344C15.8432 3.3998 15.8348 3.97076 15.7329 4.37017C15.6481 4.71374 15.4149 5.20734 15.3259 5.24187C15.2582 5.26767 14.41 4.88552 14.2955 4.7781L14.2065 4.69221L14.3126 4.52469C14.5416 4.15982 14.6051 3.93219 14.6051 3.46842C14.6093 3.05623 14.6051 3.02618 14.4481 2.71266C14.1768 2.15447 13.7995 1.90554 13.189 1.87101C12.8922 1.85822 12.7862 1.87101 12.5869 1.94838C12.2518 2.07284 11.9509 2.36057 11.7812 2.71266C11.6499 2.98312 11.6413 3.02192 11.6413 3.47694C11.6413 3.94924 11.6413 3.9535 11.8235 4.32711C12.0483 4.78214 12.0483 4.77788 11.4801 5.03129C10.8822 5.29323 10.9205 5.29323 10.7721 5.05282C10.5516 4.70073 10.4245 4.22418 10.4202 3.73036C10.416 3.21074 10.4712 2.94028 10.6957 2.46373C10.8357 2.17174 10.9373 2.03001 11.213 1.75103C11.6794 1.27873 12.1035 1.06838 12.8495 0.943914C13.0707 0.905342 13.6474 0.973965 13.9609 1.07264ZM5.23976 2.83309C5.41359 2.91472 5.4942 3.03492 5.56196 3.2926C5.64677 3.64043 5.42621 4.15129 5.09139 4.39619L4.95564 4.4906L4.73508 4.25871C4.38741 3.89384 4.28577 3.49017 4.45518 3.12081C4.59535 2.80304 4.92619 2.68283 5.23976 2.83309ZM13.3801 2.83309C13.6642 2.9663 13.7913 3.34396 13.681 3.71757C13.6091 3.97099 13.3927 4.29303 13.2147 4.40874C13.1086 4.48186 13.1044 4.48186 12.935 4.32285C12.5576 3.97929 12.4219 3.52 12.5873 3.13786C12.7357 2.80304 13.0579 2.67857 13.3801 2.83309ZM4.83717 5.39213C4.93903 5.41792 5.04488 5.41366 5.17642 5.3706L5.36731 5.31476L5.62175 5.51233C5.7617 5.61975 6.00751 5.76575 6.16451 5.83011C6.31709 5.89874 6.43578 5.97185 6.42316 5.99337C6.38086 6.062 5.98647 6.2423 5.68132 6.32819C5.29977 6.43113 4.7105 6.44414 4.34999 6.34972C4.21004 6.31115 3.95139 6.21225 3.77755 6.13062C3.47661 5.98463 3.46377 5.97185 3.56563 5.92879C3.96002 5.76553 4.29485 5.57244 4.41775 5.44371C4.50677 5.3493 4.58317 5.30624 4.62547 5.32351C4.65891 5.33629 4.75656 5.36634 4.83717 5.39213ZM12.9689 5.39213C13.0707 5.41792 13.1682 5.41366 13.3123 5.3706L13.5116 5.3105L13.6812 5.46075C13.7703 5.53812 14.0163 5.68838 14.224 5.79132L14.6056 5.97588L14.4572 6.06603C14.0925 6.29366 13.6177 6.41386 13.0878 6.41386C12.685 6.41386 12.3543 6.33649 11.9515 6.14767C11.6548 6.01019 11.6081 5.95884 11.7396 5.91152C11.9898 5.82563 12.435 5.57221 12.5579 5.44349C12.6469 5.34907 12.7233 5.30602 12.7656 5.32328C12.7992 5.33629 12.8925 5.36634 12.9689 5.39213ZM1.57661 10.1666C1.44507 10.2398 1.36469 10.3943 1.36048 10.5703C1.36048 10.682 1.39857 10.7549 1.50464 10.8623L1.6488 11.0083H1.27146H0.894116V10.5575V10.1068H1.28851C1.63596 10.1108 1.66585 10.1151 1.57661 10.1666ZM2.90373 10.1839C2.67055 10.373 2.6535 10.6519 2.86144 10.8623L3.0056 11.0083H2.47147C2.0009 11.004 1.94576 10.9998 2.03478 10.9482C2.28058 10.8107 2.32731 10.4373 2.12801 10.2312L2.00511 10.1068H2.49694C2.97149 10.1065 2.98854 10.1108 2.90373 10.1839ZM4.2902 10.1666C4.15866 10.2398 4.07828 10.3943 4.07407 10.5703C4.07407 10.682 4.11216 10.7549 4.21823 10.8623L4.36239 11.0083H3.82826C3.35769 11.004 3.30255 10.9998 3.39157 10.9482C3.63738 10.8107 3.6841 10.4373 3.4848 10.2312L3.3619 10.1068H3.87499C4.32829 10.1108 4.37922 10.1151 4.2902 10.1666ZM17.1748 10.5573V11.0081H10.9127C5.68929 11.0038 4.66333 10.9953 4.74815 10.948C4.99395 10.8105 5.04068 10.4371 4.84138 10.231L4.71847 10.1065H10.9466H17.1748V10.5573ZM17.1748 12.8331C17.1748 13.3397 17.1664 13.7562 17.1535 13.7562C17.1407 13.7562 17.039 13.7088 16.9287 13.6532C16.8185 13.5974 16.6276 13.52 16.5089 13.4814L16.2843 13.4041V13.1294V12.8546H9.0557H1.82684V15.6025V18.3504H6.78744C10.7263 18.3504 11.748 18.3632 11.748 18.402C11.7522 18.5136 11.8328 19.1019 11.8583 19.1748C11.8796 19.2476 11.8158 19.2521 10.6924 19.2521H9.50103V20.1752V21.0982H9.05592H8.61082V20.1752V19.2521H5.21872H1.82684L1.81843 20.1667L1.80581 21.0769H1.3607H0.915596L0.902974 16.5471C0.898766 14.0567 0.902974 11.9915 0.915596 11.9614C0.928218 11.9228 2.5988 11.9098 9.05592 11.9098H17.175V12.8331H17.1748ZM13.4862 13.8335C12.9562 14.2072 12.6763 14.4776 12.3922 14.9026L12.2438 15.1302H8.55966C5.9269 15.1302 4.84558 15.143 4.78203 15.1775C4.62082 15.2592 4.54043 15.3964 4.54043 15.594C4.54043 15.7442 4.5659 15.8043 4.66333 15.9075L4.78624 16.032H8.3349H11.8836L11.8581 16.1351C11.8029 16.354 11.7478 16.8436 11.7478 17.114V17.406H7.23254H2.71727V15.5812V13.7564L8.15685 13.7607C13.2826 13.7604 13.588 13.7647 13.4862 13.8335ZM16.0257 14.2928C16.1741 14.3314 16.4411 14.4346 16.6236 14.529C17.7853 15.143 18.3491 16.4868 17.9717 17.7491C17.836 18.1956 17.6453 18.5177 17.3019 18.8698C16.9542 19.2261 16.7168 19.3849 16.297 19.5396C15.2626 19.9175 14.071 19.6083 13.3376 18.7711C13.1086 18.5049 12.8373 17.9682 12.7441 17.5989C12.6635 17.2726 12.6635 16.637 12.7441 16.3107C12.9943 15.3276 13.749 14.5588 14.7156 14.2971C15.021 14.2157 15.6867 14.2114 16.0257 14.2928ZM13.5668 20.2611V20.3898L13.3759 20.1794C13.0833 19.8531 13.0663 19.7888 13.3336 19.9734C13.5285 20.1066 13.5668 20.1537 13.5668 20.2611ZM17.5647 19.9691C17.518 20.0377 17.4122 20.1579 17.3273 20.2353L17.1748 20.3855V20.2739C17.1748 20.188 17.2257 20.1236 17.3783 20.0119C17.6199 19.8274 17.675 19.8146 17.5647 19.9691ZM7.67765 20.626V21.0982H5.19746H2.71727V20.626V20.1537H5.19746H7.67765V20.626ZM12.3625 20.3555C12.4303 20.4672 12.5999 20.6775 12.7357 20.8278L12.9901 21.0982L11.7013 21.0897L10.4125 21.0769L10.3999 20.6733C10.3957 20.4501 10.3957 20.2438 10.4083 20.2095C10.4253 20.1667 10.6244 20.1537 11.3326 20.1537H12.2357L12.3625 20.3555ZM16.2547 20.9267C16.2378 20.944 16.1402 20.9783 16.0385 21.0038C15.8266 21.0554 15.8054 21.0296 15.8266 20.7719C15.8392 20.6132 15.8434 20.6087 16.0514 20.5616L16.2633 20.5188L16.2759 20.7076C16.2843 20.8105 16.2759 20.9094 16.2547 20.9267ZM14.7708 20.5659L14.9275 20.5959V20.8193C14.9275 21.0727 14.9402 21.0639 14.6011 20.961C14.4696 20.9224 14.4612 20.9052 14.4612 20.7291C14.4612 20.523 14.4698 20.5188 14.7708 20.5659Z" fill="#515151"/>
<path d="M15.0699 15.2762L14.9258 15.4222V16.9292C14.9258 18.5695 14.9342 18.6253 15.159 18.7283C15.3583 18.8184 15.5576 18.7926 15.6931 18.6554L15.816 18.5309V17.0023C15.816 15.3621 15.8076 15.302 15.5999 15.1905C15.3964 15.0871 15.2309 15.1129 15.0699 15.2762Z" fill="#F4A72A"/>
</svg>
