<svg width="22" height="22" viewBox="0 0 22 22" fill="none" xmlns="http://www.w3.org/2000/svg">
<circle cx="11" cy="11" r="10" fill="white" stroke="#219653" stroke-width="2"/>
<path d="M10.5342 4.86184C10.7528 4.21051 11.5833 3.91051 12.0963 4.46851C12.2018 4.58184 12.3059 4.70451 12.3766 4.81451C12.5823 5.13451 12.6691 5.55651 12.7006 5.96784C12.7328 6.38584 12.7109 6.83518 12.6698 7.24251C12.628 7.65051 12.5663 8.02518 12.5148 8.29784L12.5084 8.33251H13.0761C13.3586 8.33246 13.6377 8.39679 13.8936 8.52095C14.1495 8.6451 14.376 8.82605 14.557 9.05099C14.738 9.27593 14.8692 9.53937 14.9412 9.82268C15.0132 10.106 15.0243 10.4023 14.9738 10.6905L14.5341 13.1978C14.4624 13.607 14.3095 13.9962 14.085 14.3408C13.8606 14.6854 13.5695 14.9779 13.2302 15.1996C12.891 15.4213 12.511 15.5675 12.1144 15.6288C11.7178 15.6902 11.3132 15.6653 10.9263 15.5558L7.32634 14.5378C7.03843 14.4563 6.77811 14.2933 6.57453 14.0669C6.37095 13.8406 6.23215 13.56 6.17369 13.2565L5.94676 12.0798C5.76805 11.1538 6.45076 10.3738 7.17655 10.0765C7.37332 10.0006 7.556 9.89012 7.71655 9.74984C8.81391 8.74051 9.21119 7.93451 9.89262 6.51651C10.1202 6.04318 10.3542 5.39918 10.5342 4.86184V4.86184ZM11.7974 8.58518V8.58384L11.7987 8.57918L11.8032 8.55851C11.8329 8.42936 11.8599 8.29955 11.8842 8.16918C11.9331 7.91051 11.9916 7.55584 12.0301 7.17251C12.0693 6.78784 12.088 6.38318 12.0597 6.02051C12.0314 5.64984 11.9568 5.36384 11.8411 5.18384C11.7777 5.09326 11.7076 5.00789 11.6316 4.92851C11.5036 4.78984 11.2278 4.82184 11.1417 5.08051C10.9598 5.62318 10.7148 6.30051 10.468 6.81384C9.78205 8.24118 9.33912 9.14851 8.14341 10.2485C7.92484 10.4498 7.66512 10.5932 7.41312 10.6965C6.84741 10.9285 6.48291 11.4618 6.57741 11.9492L6.80369 13.1258C6.83885 13.308 6.92225 13.4764 7.04455 13.6122C7.16684 13.748 7.32318 13.8457 7.49605 13.8945L11.0961 14.9125C11.3969 14.9976 11.7114 15.0168 12.0198 14.9691C12.3282 14.9214 12.6236 14.8078 12.8874 14.6354C13.1512 14.463 13.3775 14.2357 13.5521 13.9678C13.7267 13.6999 13.8456 13.3973 13.9015 13.0792L14.3412 10.5712C14.3749 10.379 14.3675 10.1815 14.3195 9.99262C14.2715 9.80375 14.184 9.62812 14.0633 9.47816C13.9427 9.3282 13.7917 9.20757 13.6211 9.1248C13.4505 9.04203 13.2644 8.99915 13.0761 8.99918H12.1086C12.0598 8.99906 12.0117 8.98744 11.9679 8.96519C11.9241 8.94294 11.8857 8.91065 11.8558 8.87075C11.8258 8.83086 11.8049 8.78442 11.7948 8.73494C11.7847 8.68546 11.7856 8.63425 11.7974 8.58518V8.58518Z" stroke="#219653"/>
</svg>
