<svg width="14" height="17" viewBox="0 0 14 17" fill="none" xmlns="http://www.w3.org/2000/svg">
<path d="M1.45031 16.0205H12.1081C12.808 16.0205 13.3938 15.5578 13.5589 14.9329H0C0.165611 15.5578 0.752034 16.0205 1.45031 16.0205Z" fill="white"/>
<mask id="path-2-inside-1_1883_129291" fill="white">
<path d="M9.57287 6.49193H4.06264V4.44748C4.06264 3.69716 4.45574 2.99179 5.1133 2.58918C7.18099 1.32487 9.3497 2.59493 9.57287 4.43127V6.49193ZM7.45522 11.453V12.5913H6.19983V11.453C5.66119 11.1335 5.39892 10.4234 5.87077 9.72488C5.91747 9.65638 5.97883 9.59677 6.04942 9.5518C7.01213 8.94108 8.0297 9.59102 8.0297 10.47C8.0297 10.8872 7.79893 11.2491 7.45522 11.453ZM11.7519 4.74239C11.7519 1.32906 7.98734 -1.25447 4.24834 0.642003C2.79313 1.3803 1.90371 2.85741 1.90371 4.4412V6.49193H0.936651C0.419185 6.49193 0 6.8956 0 7.39338V14.5547H13.655V7.39338C13.655 6.8956 13.2358 6.49193 12.7184 6.49193H11.7519H11.7204V4.74239H11.7519Z"/>
</mask>
<path d="M9.57287 6.49193H10.5729V7.49193H9.57287V6.49193ZM4.06264 6.49193V7.49193H3.06264V6.49193H4.06264ZM5.1133 2.58918L4.59112 1.73635L4.59163 1.73603L5.1133 2.58918ZM9.57287 4.43127L10.5656 4.31063L10.5729 4.37073V4.43127H9.57287ZM7.45522 11.453H6.45522V10.8835L6.94497 10.5929L7.45522 11.453ZM7.45522 12.5913H8.45522V13.5913H7.45522V12.5913ZM6.19983 12.5913V13.5913H5.19983V12.5913H6.19983ZM6.19983 11.453L6.70996 10.5929L7.19983 10.8834V11.453H6.19983ZM5.87077 9.72488L5.0421 9.16513L5.04452 9.16159L5.87077 9.72488ZM6.04942 9.5518L5.51214 8.7084L5.51374 8.70738L6.04942 9.5518ZM4.24834 0.642003L3.79589 -0.249785L3.79599 -0.249836L4.24834 0.642003ZM1.90371 6.49193H2.90371V7.49193H1.90371V6.49193ZM0 14.5547V15.5547H-1V14.5547H0ZM13.655 14.5547H14.655V15.5547H13.655V14.5547ZM11.7204 6.49193V7.49193H10.7204V6.49193H11.7204ZM11.7204 4.74239H10.7204V3.74239H11.7204V4.74239ZM9.57287 7.49193H4.06264V5.49193H9.57287V7.49193ZM3.06264 6.49193V4.44748H5.06264V6.49193H3.06264ZM3.06264 4.44748C3.06264 3.34574 3.63959 2.31895 4.59112 1.73635L5.63548 3.44201C5.27189 3.66463 5.06264 4.04857 5.06264 4.44748H3.06264ZM4.59163 1.73603C7.25588 0.106949 10.2512 1.72361 10.5656 4.31063L8.58017 4.55191C8.44823 3.46625 7.10611 2.54278 5.63497 3.44233L4.59163 1.73603ZM10.5729 4.43127V6.49193H8.57287V4.43127H10.5729ZM8.45522 11.453V12.5913H6.45522V11.453H8.45522ZM7.45522 13.5913H6.19983V11.5913H7.45522V13.5913ZM5.19983 12.5913V11.453H7.19983V12.5913H5.19983ZM5.68969 12.3131C5.20483 12.0255 4.82626 11.5511 4.68454 10.9668C4.53894 10.3664 4.66186 9.72808 5.04211 9.16514L6.69944 10.2846C6.65025 10.3575 6.63416 10.4093 6.62863 10.4374C6.62316 10.4653 6.62527 10.4833 6.62819 10.4954C6.6343 10.5206 6.65618 10.561 6.70996 10.5929L5.68969 12.3131ZM5.04452 9.16159C5.16749 8.98121 5.32713 8.82626 5.51214 8.7084L6.5867 10.3952C6.63054 10.3673 6.66746 10.3316 6.69703 10.2882L5.04452 9.16159ZM5.51374 8.70738C7.09336 7.70532 9.0297 8.74533 9.0297 10.47H7.0297C7.0297 10.4312 7.00803 10.3755 6.93708 10.3384C6.90471 10.3214 6.86371 10.3104 6.81353 10.3128C6.76539 10.3152 6.68788 10.331 6.5851 10.3962L5.51374 8.70738ZM9.0297 10.47C9.0297 11.2732 8.58338 11.9464 7.96547 12.313L6.94497 10.5929C6.97885 10.5728 7.00096 10.5485 7.0134 10.5277C7.02472 10.5088 7.0297 10.4907 7.0297 10.47H9.0297ZM10.7519 4.74239C10.7519 2.11379 7.80943 -0.0429506 4.70069 1.53384L3.79599 -0.249836C8.16525 -2.46598 12.7519 0.54433 12.7519 4.74239H10.7519ZM4.70079 1.53379C3.58255 2.10113 2.90371 3.23287 2.90371 4.4412H0.903713C0.903713 2.48195 2.00372 0.659476 3.79589 -0.249785L4.70079 1.53379ZM2.90371 4.4412V6.49193H0.903713V4.4412H2.90371ZM1.90371 7.49193H0.936651V5.49193H1.90371V7.49193ZM0.936651 7.49193C0.941458 7.49193 0.954512 7.48921 0.96778 7.47644C0.981697 7.46305 1 7.43312 1 7.39338H-1C-1 6.30773 -0.096826 5.49193 0.936651 5.49193V7.49193ZM1 7.39338V14.5547H-1V7.39338H1ZM0 13.5547H13.655V15.5547H0V13.5547ZM12.655 14.5547V7.39338H14.655V14.5547H12.655ZM12.655 7.39338C12.655 7.43312 12.6733 7.46305 12.6872 7.47644C12.7005 7.48921 12.7136 7.49193 12.7184 7.49193V5.49193C13.7518 5.49193 14.655 6.30773 14.655 7.39338H12.655ZM12.7184 7.49193H11.7519V5.49193H12.7184V7.49193ZM11.7519 7.49193H11.7204V5.49193H11.7519V7.49193ZM10.7204 6.49193V4.74239H12.7204V6.49193H10.7204ZM11.7204 3.74239H11.7519V5.74239H11.7204V3.74239Z" fill="white" mask="url(#path-2-inside-1_1883_129291)"/>
</svg>
