<svg width="16" height="19" viewBox="0 0 16 19" fill="none" xmlns="http://www.w3.org/2000/svg">
<path d="M1.6575 18.0234H13.8378C14.6377 18.0234 15.3073 17.5029 15.4959 16.7999H0C0.18927 17.5029 0.859468 18.0234 1.6575 18.0234Z" fill="#515151"/>
<mask id="path-2-inside-1_1948_118438" fill="white">
<path d="M10.9404 7.30342H4.64302V5.00342C4.64302 4.1593 5.09228 3.36577 5.84377 2.91283C8.20685 1.49047 10.6854 2.9193 10.9404 4.98518V7.30342ZM8.52025 12.8846V14.1652H7.08552V12.8846C6.46993 12.5252 6.17019 11.7264 6.70946 10.9405C6.76283 10.8634 6.83295 10.7964 6.91362 10.7458C8.01387 10.0587 9.1768 10.7899 9.1768 11.7787C9.1768 12.2481 8.91306 12.6552 8.52025 12.8846ZM13.4307 5.33519C13.4307 1.49519 9.12839 -1.41128 4.85524 0.722254C3.19215 1.55284 2.17567 3.21459 2.17567 4.99635V7.30342H1.07046C0.479069 7.30342 0 7.75756 0 8.31756V16.374H15.6057V8.31756C15.6057 7.75756 15.1267 7.30342 14.5353 7.30342H13.4307H13.3947V5.33519H13.4307Z"/>
</mask>
<path d="M10.9404 7.30342H11.9404V8.30342H10.9404V7.30342ZM4.64302 7.30342V8.30342H3.64302V7.30342H4.64302ZM5.84377 2.91283L5.32756 2.05636L5.32807 2.05606L5.84377 2.91283ZM10.9404 4.98518L11.9329 4.86265L11.9404 4.92368V4.98518H10.9404ZM8.52025 12.8846H7.52025V12.3106L8.01593 12.0211L8.52025 12.8846ZM8.52025 14.1652H9.52025V15.1652H8.52025V14.1652ZM7.08552 14.1652V15.1652H6.08552V14.1652H7.08552ZM7.08552 12.8846L7.58972 12.021L8.08552 12.3105V12.8846H7.08552ZM6.70946 10.9405L5.8849 10.3747L5.88736 10.3711L6.70946 10.9405ZM6.91362 10.7458L6.38235 9.89857L6.38395 9.89757L6.91362 10.7458ZM4.85524 0.722254L4.40844 -0.172379L4.40854 -0.172428L4.85524 0.722254ZM2.17567 7.30342H3.17567V8.30342H2.17567V7.30342ZM0 16.374V17.374H-1V16.374H0ZM15.6057 16.374H16.6057V17.374H15.6057V16.374ZM13.3947 7.30342V8.30342H12.3947V7.30342H13.3947ZM13.3947 5.33519H12.3947V4.33519H13.3947V5.33519ZM10.9404 8.30342H4.64302V6.30342H10.9404V8.30342ZM3.64302 7.30342V5.00342H5.64302V7.30342H3.64302ZM3.64302 5.00342C3.64302 3.80042 4.28304 2.68592 5.32756 2.05637L6.35998 3.76929C5.90152 4.04561 5.64302 4.51818 5.64302 5.00342H3.64302ZM5.32807 2.05606C8.26895 0.285919 11.5831 2.02966 11.9329 4.86265L9.94795 5.10771C9.78761 3.80893 8.14474 2.69503 6.35947 3.7696L5.32807 2.05606ZM11.9404 4.98518V7.30342H9.94042V4.98518H11.9404ZM9.52025 12.8846V14.1652H7.52025V12.8846H9.52025ZM8.52025 15.1652H7.08552V13.1652H8.52025V15.1652ZM6.08552 14.1652V12.8846H8.08552V14.1652H6.08552ZM6.58132 13.7482C6.05917 13.4433 5.6478 12.9382 5.49345 12.3117C5.33491 11.6682 5.46825 10.9819 5.88491 10.3747L7.534 11.5063C7.4114 11.685 7.42498 11.791 7.43538 11.8332C7.44998 11.8925 7.49627 11.9664 7.58972 12.021L6.58132 13.7482ZM5.88736 10.3711C6.01827 10.1821 6.18755 10.0207 6.38236 9.89857L7.44489 11.593C7.47836 11.572 7.50738 11.5447 7.53155 11.5098L5.88736 10.3711ZM6.38395 9.89757C8.07785 8.83981 10.1768 9.92071 10.1768 11.7787H8.1768C8.1768 11.6933 8.12709 11.5883 8.00002 11.5229C7.89386 11.4682 7.70291 11.4319 7.44329 11.594L6.38395 9.89757ZM10.1768 11.7787C10.1768 12.6418 9.6899 13.3595 9.02457 13.7481L8.01593 12.0211C8.13623 11.9508 8.1768 11.8545 8.1768 11.7787H10.1768ZM12.4307 5.33519C12.4307 2.30209 8.96818 -0.21357 5.30195 1.61694L4.40854 -0.172428C9.2886 -2.60898 14.4307 0.688287 14.4307 5.33519H12.4307ZM5.30205 1.61689C3.97359 2.28035 3.17567 3.5984 3.17567 4.99635H1.17567C1.17567 2.83078 2.41072 0.825332 4.40844 -0.172379L5.30205 1.61689ZM3.17567 4.99635V7.30342H1.17567V4.99635H3.17567ZM2.17567 8.30342H1.07046V6.30342H2.17567V8.30342ZM1.07046 8.30342C1.03339 8.30342 1.0112 8.31697 1.00127 8.32637C0.996423 8.33097 0.996101 8.33303 0.99726 8.33044C0.998806 8.32697 1 8.32176 1 8.31756H-1C-1 7.1552 -0.0217734 6.30342 1.07046 6.30342V8.30342ZM1 8.31756V16.374H-1V8.31756H1ZM0 15.374H15.6057V17.374H0V15.374ZM14.6057 16.374V8.31756H16.6057V16.374H14.6057ZM14.6057 8.31756C14.6057 8.32176 14.6069 8.32697 14.6085 8.33044C14.6096 8.33303 14.6093 8.33097 14.6045 8.32637C14.5945 8.31697 14.5724 8.30342 14.5353 8.30342V6.30342C15.6275 6.30342 16.6057 7.1552 16.6057 8.31756H14.6057ZM14.5353 8.30342H13.4307V6.30342H14.5353V8.30342ZM13.4307 8.30342H13.3947V6.30342H13.4307V8.30342ZM12.3947 7.30342V5.33519H14.3947V7.30342H12.3947ZM13.3947 4.33519H13.4307V6.33519H13.3947V4.33519Z" fill="#515151" mask="url(#path-2-inside-1_1948_118438)"/>
</svg>
