<svg width="14" height="18" viewBox="0 0 14 18" fill="none" xmlns="http://www.w3.org/2000/svg">
<g clip-path="url(#clip0_5_42370)">
<path d="M8.75 17.1004C7.71584 17.1004 6.69181 16.8909 5.73637 16.4838C4.78093 16.0768 3.9128 15.4801 3.18153 14.728C2.45027 13.9758 1.8702 13.0829 1.47445 12.1001C1.07869 11.1174 0.875 10.0641 0.875 9.00039C0.875 7.93668 1.07869 6.88339 1.47445 5.90065C1.8702 4.91792 2.45027 4.02498 3.18153 3.27283C3.9128 2.52067 4.78093 1.92403 5.73637 1.51697C6.69181 1.1099 7.71584 0.900391 8.75 0.900391M13.125 9.00039L9.625 5.40039L13.125 9.00039ZM13.125 9.00039L9.625 12.6004L13.125 9.00039ZM13.125 9.00039H4.375H13.125Z" stroke="#EB5757" stroke-width="2" stroke-linecap="round" stroke-linejoin="round"/>
</g>
<defs>
<clipPath id="clip0_5_42370">
<rect width="14" height="18" fill="white"/>
</clipPath>
</defs>
</svg>
