<svg width="24" height="33" viewBox="0 0 24 33" fill="none" xmlns="http://www.w3.org/2000/svg">
<path d="M16.7037 31.5739H11.5724L10.087 23.4651C7.05419 23.6991 4.6604 26.3262 4.6604 29.5403V32.499H23.6167V29.5403C23.6167 26.3262 21.2229 23.6991 18.1912 23.4651L16.7037 31.5739Z" fill="white"/>
<path d="M12.5295 31.5742H15.7491L14.9502 26.1215H14.9223L15.7068 24.6254H12.5708L13.3553 26.1215H13.3275L12.5295 31.5742Z" fill="white"/>
<path d="M8.21587 9.41324C6.96374 10.1827 5.3441 9.73628 4.62564 8.41306C3.95055 7.17033 4.35418 5.53698 5.52166 4.78576C6.76553 3.98518 8.3903 4.40692 9.13043 5.7076C9.8623 6.99219 9.45148 8.65129 8.21587 9.41324ZM11.3591 8.0439C11.4468 7.96126 11.5315 7.88611 11.6058 7.82816C11.9423 7.56631 12.9962 7.17567 13.2213 7.15743H13.2233C13.3813 7.15743 13.5568 7.2648 13.7643 7.44831C13.7787 7.06841 13.7653 6.68632 13.7219 6.30534L12.5617 6.01666C12.5008 5.70008 12.4151 5.38566 12.3057 5.07659L13.1573 4.20411C13.053 3.96909 12.9384 3.73831 12.8104 3.51295C12.6824 3.28758 12.5431 3.07297 12.3934 2.86585L11.2486 3.22107C11.0411 2.9721 10.8171 2.74353 10.5787 2.5364L10.8945 1.33978C10.4858 1.03607 10.0481 0.780668 9.59187 0.576766L8.7702 1.48037C8.47291 1.37412 8.1694 1.29256 7.86178 1.23676L7.55831 0.0337353C7.06385 -0.0167036 6.56321 -0.0113192 6.06566 0.053071L5.78593 1.25824C5.48141 1.32048 5.17999 1.40845 4.8827 1.52328L4.04243 0.641167C3.81946 0.746338 3.59443 0.864395 3.37766 0.998541C3.16089 1.13161 2.9534 1.27649 2.75624 1.42996L3.09686 2.62224C2.85738 2.83794 2.63546 3.07085 2.4383 3.31875L1.28835 2.99035C0.995185 3.41533 0.749546 3.86926 0.553417 4.34361L1.42257 5.19889C1.32038 5.50689 1.24396 5.82348 1.18925 6.14222L0.0331545 6.45882C-0.0153616 6.97287 -0.0112668 7.49443 0.0496364 8.01277L1.20992 8.3004C1.26979 8.61806 1.35549 8.93143 1.46284 9.24157L0.614304 10.114C0.715465 10.3491 0.830029 10.5787 0.959062 10.803C1.08809 11.0295 1.22745 11.2462 1.37403 11.4512L2.51985 11.0971C2.72836 11.3461 2.95342 11.5746 3.19187 11.7807L2.876 12.9783C3.28477 13.282 3.71936 13.5375 4.17665 13.7403L4.99933 12.8377C5.29766 12.9451 5.59906 13.0245 5.9077 13.0792L6.21123 14.2822C6.43316 14.3048 6.65507 14.3145 6.87907 14.3145L6.87701 14.2769C6.87701 11.3267 8.76913 8.83912 11.3591 8.0439Z" fill="white"/>
<path d="M6.88508 17.0937C6.88508 16.7589 7.13181 16.4852 7.45181 16.4316C7.45284 16.5614 7.45693 16.688 7.46003 16.8179C7.43422 17.0411 7.4136 17.2675 7.4136 17.4993C7.4136 17.7687 7.43526 18.0327 7.46622 18.2946C7.13797 18.2463 6.88508 17.9662 6.88508 17.626V17.0937ZM8.45413 16.6408C8.47374 16.5099 8.50161 16.3822 8.52948 16.2555C9.31916 15.6728 10.3318 14.7649 10.7178 14.0502C10.7178 14.0502 17.1065 15.6063 19.4342 15.7855C19.5003 15.7898 19.5633 15.7919 19.6242 15.793C19.7099 16.0677 19.78 16.351 19.8234 16.6408C19.8647 16.922 19.8936 17.2074 19.8936 17.4993C19.8936 17.7075 19.8812 17.9146 19.8595 18.1164C19.8224 18.4641 19.7522 18.8011 19.6562 19.1273C18.9512 21.5098 16.7452 23.2537 14.1388 23.2537C11.5313 23.2537 9.32635 21.5098 8.62132 19.1273C8.52532 18.8011 8.45512 18.4641 8.41693 18.1164C8.39629 17.9146 8.38392 17.7075 8.38392 17.4993C8.38392 17.2074 8.41284 16.922 8.45413 16.6408ZM20.8918 16.4476C21.1787 16.5271 21.3924 16.7825 21.3924 17.0937V17.626C21.3924 17.9662 21.1385 18.2463 20.8113 18.2946C20.8433 18.0327 20.8629 17.7687 20.8629 17.4993C20.8629 17.2396 20.8402 16.9842 20.8082 16.7331C20.8371 16.6376 20.867 16.5432 20.8918 16.4476ZM5.91577 17.0937V17.626C5.91577 18.5339 6.65489 19.2712 7.56224 19.2712H7.66033C8.15478 21.0773 9.3852 22.5808 11.0058 23.4415C11.9421 23.9373 13.0064 24.2217 14.1388 24.2217C15.2711 24.2217 16.3364 23.9373 17.2717 23.4415C18.8923 22.5808 20.1227 21.0773 20.6172 19.2712H20.7153C21.6237 19.2712 22.3617 18.5339 22.3617 17.626V17.0937C22.3617 16.3071 21.8053 15.6503 21.0662 15.4871C21.092 15.2521 21.1106 15.0117 21.1106 14.7681L21.1075 14.6994C21.1085 14.5256 21.1024 14.3442 21.0807 14.15V14.1489C20.9785 13.0264 20.6038 11.9875 20.0216 11.1043C19.7223 10.6482 19.3651 10.2383 18.9687 9.87662C17.9034 8.90862 16.5254 8.31194 15.009 8.27331L14.9326 8.21105C14.8675 8.137 14.7953 8.12412 14.7478 8.12412C14.6332 8.12412 14.5537 8.20137 14.4897 8.26576H14.468C14.3473 8.1402 14.2368 8.03076 14.1326 7.94061C13.9251 7.75603 13.7496 7.64979 13.5927 7.64979H13.5906C13.3656 7.66696 12.3106 8.05757 11.9731 8.31942C11.8988 8.37737 11.8152 8.45252 11.7274 8.53515C9.13748 9.33145 7.24637 11.818 7.24637 14.7681L7.24742 14.8068L7.2505 14.9023C7.2474 15.1008 7.25359 15.295 7.27217 15.4871C6.50417 15.6266 5.91577 16.2867 5.91577 17.0937Z" fill="white"/>
</svg>
