<svg width="23" height="22" viewBox="0 0 23 22" fill="none" xmlns="http://www.w3.org/2000/svg">
<path d="M3.84962 16.0567C3.99883 16.2075 4.11317 16.3896 4.18448 16.59C4.25579 16.7904 4.28232 17.0041 4.26219 17.216C4.16116 18.1967 3.96962 19.1658 3.69006 20.1108C5.69537 19.6433 6.92013 19.102 7.47644 18.8183C7.79197 18.6574 8.15535 18.6192 8.49706 18.7112C9.47662 18.9741 10.4862 19.1065 11.5 19.1049C17.2442 19.1049 21.5625 15.0421 21.5625 10.4206C21.5625 5.80064 17.2442 1.73643 11.5 1.73643C5.75575 1.73643 1.4375 5.80064 1.4375 10.4206C1.4375 12.5454 2.32444 14.5167 3.84962 16.0567ZM3.14094 21.7087C2.80035 21.7766 2.45865 21.8389 2.116 21.8954C1.8285 21.9417 1.61 21.6406 1.72356 21.3714C1.8512 21.0684 1.96819 20.7608 2.07431 20.4495L2.07862 20.435C2.43512 19.3929 2.7255 18.1945 2.83188 17.0785C1.06806 15.2983 0 12.968 0 10.4206C0 4.82512 5.14912 0.289062 11.5 0.289062C17.8509 0.289062 23 4.82512 23 10.4206C23 16.0162 17.8509 20.5522 11.5 20.5522C10.361 20.5538 9.22672 20.4049 8.12619 20.1093C7.37869 20.49 5.77012 21.1833 3.14094 21.7087Z" fill="white"/>
<path d="M5.75 6.80181C5.75 6.60988 5.82573 6.4258 5.96052 6.29009C6.09531 6.15437 6.27813 6.07812 6.46875 6.07812H16.5312C16.7219 6.07812 16.9047 6.15437 17.0395 6.29009C17.1743 6.4258 17.25 6.60988 17.25 6.80181C17.25 6.99374 17.1743 7.17781 17.0395 7.31353C16.9047 7.44925 16.7219 7.52549 16.5312 7.52549H6.46875C6.27813 7.52549 6.09531 7.44925 5.96052 7.31353C5.82573 7.17781 5.75 6.99374 5.75 6.80181ZM5.75 10.4202C5.75 10.2283 5.82573 10.0442 5.96052 9.90851C6.09531 9.77279 6.27813 9.69655 6.46875 9.69655H16.5312C16.7219 9.69655 16.9047 9.77279 17.0395 9.90851C17.1743 10.0442 17.25 10.2283 17.25 10.4202C17.25 10.6122 17.1743 10.7962 17.0395 10.932C16.9047 11.0677 16.7219 11.1439 16.5312 11.1439H6.46875C6.27813 11.1439 6.09531 11.0677 5.96052 10.932C5.82573 10.7962 5.75 10.6122 5.75 10.4202ZM5.75 14.0387C5.75 13.8467 5.82573 13.6626 5.96052 13.5269C6.09531 13.3912 6.27813 13.315 6.46875 13.315H12.2188C12.4094 13.315 12.5922 13.3912 12.727 13.5269C12.8618 13.6626 12.9375 13.8467 12.9375 14.0387C12.9375 14.2306 12.8618 14.4147 12.727 14.5504C12.5922 14.6861 12.4094 14.7623 12.2188 14.7623H6.46875C6.27813 14.7623 6.09531 14.6861 5.96052 14.5504C5.82573 14.4147 5.75 14.2306 5.75 14.0387Z" fill="white"/>
</svg>
