<svg width="18" height="19" viewBox="0 0 18 19" fill="none" xmlns="http://www.w3.org/2000/svg">
<path d="M0.947368 16.6949L4.34463 13.2906H15.1579C15.6604 13.2906 16.1423 13.0906 16.4977 12.7345C16.853 12.3784 17.0526 11.8955 17.0526 11.392V2.84799C17.0526 2.34443 16.853 1.8615 16.4977 1.50543C16.1423 1.14937 15.6604 0.94933 15.1579 0.94933H2.84211C2.33959 0.94933 1.85766 1.14937 1.50232 1.50543C1.14699 1.8615 0.947368 2.34443 0.947368 2.84799V16.6949ZM0.947368 18.0373H0V2.84799C0 2.09266 0.299435 1.36826 0.832433 0.834157C1.36543 0.300055 2.08833 0 2.84211 0H15.1579C15.9117 0 16.6346 0.300055 17.1676 0.834157C17.7006 1.36826 18 2.09266 18 2.84799V11.392C18 12.1473 17.7006 12.8717 17.1676 13.4058C16.6346 13.9399 15.9117 14.2399 15.1579 14.2399H4.73684L0.947368 18.0373ZM3.78947 3.79732H14.2105V4.74665H3.78947V3.79732ZM3.78947 6.64531H14.2105V7.59464H3.78947V6.64531ZM3.78947 9.4933H11.3684V10.4426H3.78947V9.4933Z" fill="white"/>
</svg>
