<svg width="26" height="22" viewBox="0 0 26 22" fill="none" xmlns="http://www.w3.org/2000/svg">
<path d="M9.12254 14.565C9.12254 13.89 8.57854 13.2067 7.53919 13.2067L7.05293 13.2065C6.52139 13.2065 6.28368 12.908 6.28368 12.6121C6.28368 12.3475 6.48499 12.0381 7.05293 12.0381H8.41526C8.6392 12.0381 8.82079 11.8622 8.82079 11.6452C8.82079 11.4283 8.6392 11.2524 8.41526 11.2524H7.90583V10.6077C7.90583 10.3908 7.72424 10.2148 7.5003 10.2148C7.27636 10.2148 7.09478 10.3908 7.09478 10.6077V11.2524H7.05296C6.01541 11.2524 5.47266 11.9364 5.47266 12.6121C5.47266 13.298 6.01541 13.9924 7.05296 13.9924H7.53922C8.10932 13.9924 8.31152 14.3009 8.31152 14.565C8.31152 14.8623 8.07274 15.1625 7.53922 15.1625H6.17688C5.95294 15.1625 5.77136 15.3385 5.77136 15.5554C5.77136 15.7724 5.95294 15.9483 6.17688 15.9483H7.09476V16.5007C7.09476 16.7177 7.27634 16.8936 7.50029 16.8936C7.72423 16.8936 7.90581 16.7177 7.90581 16.5007V15.9157C8.24037 15.8653 8.5458 15.7024 8.76826 15.4553C8.99094 15.2082 9.1164 14.8928 9.12255 14.565L9.12254 14.565Z" fill="#F4A72A"/>
<path d="M7.299 20.9961C6.9161 21.0248 5.72685 21.2027 5.53767 21.2027C5.46869 21.2064 5.39954 21.1974 5.334 21.1766C5.20909 21.126 5.08616 21.0722 4.96541 21.0147V21.0145C4.66814 20.8705 4.33321 20.8158 4.00355 20.8577L3.68655 20.9242C3.65053 20.9322 3.61305 20.9335 3.57648 20.9279C3.58264 20.841 3.58879 20.7588 3.59567 20.6862C3.60581 20.5766 3.63242 20.2858 2.91861 19.5899H2.91879C2.03242 18.7356 1.38395 17.6777 1.03381 16.5149C0.197779 13.6567 1.83782 11.1119 3.90109 8.31788C4.18803 7.92924 6.0627 5.50332 6.48793 4.86564L6.48811 5.51437V5.51454C6.48811 5.73149 6.66969 5.9074 6.89363 5.9074C7.11757 5.9074 7.29916 5.73149 7.29916 5.51454L7.29898 4.71428H7.33374L8.63429 5.97407C8.7927 6.12701 9.04905 6.12683 9.20726 5.97355C9.36531 5.82044 9.36568 5.5721 9.20763 5.41865L8.48055 4.7143H9.22427C9.666 5.41161 12.3014 8.93488 12.6734 9.47123L13.1217 8.71201C12.8172 8.28302 10.275 4.88639 9.84344 4.18675C9.84344 4.18675 11.3234 0.555267 11.326 0.548802C11.3743 0.423752 11.3544 0.283446 11.2729 0.175588C11.1914 0.0679047 11.0595 0.0070457 10.9217 0.0138836C10.9193 0.0137083 10.9173 0.0131821 10.915 0.0131821C10.3815 0.0131821 10.0724 0.325362 9.84668 0.55299C9.63686 0.764674 9.53439 0.851139 9.36422 0.851139C9.2078 0.851139 9.13629 0.782391 8.95598 0.570527C8.76408 0.345162 8.47407 0.00440905 7.92279 0.00440905C7.37151 0.00440905 7.08171 0.345355 6.88997 0.570706C6.70966 0.782746 6.63833 0.851143 6.48246 0.851143C6.29979 0.851143 6.18193 0.744861 5.97247 0.541244C5.73766 0.312723 5.41595 0 4.8877 0C4.7501 0.00070153 4.62139 0.0657666 4.5421 0.17468C4.4628 0.283768 4.44289 0.423019 4.48869 0.548769L5.97083 4.18532C5.57128 4.82844 3.5335 7.46498 3.24129 7.86062C1.45985 10.2727 -0.756774 13.274 0.253611 16.7289C0.641215 18.0199 1.36012 19.1947 2.34316 20.1436C2.5137 20.2986 2.66161 20.4754 2.78308 20.669C2.77711 20.7369 2.7715 20.8125 2.76606 20.8933V20.8931C2.75013 21.1034 2.82544 21.3104 2.97372 21.4646C3.2078 21.684 3.54252 21.7699 3.85809 21.692L4.17527 21.6256V21.6254C4.32589 21.6217 4.47507 21.6543 4.6094 21.7203C4.74608 21.7852 4.88476 21.8462 5.02198 21.9016C5.34731 22.0328 5.80986 21.9854 6.39952 21.896C6.67796 21.8537 6.98371 21.8099 7.31378 21.7831H7.31396C7.30437 21.7248 7.2993 21.6659 7.29894 21.607L7.299 20.9961ZM6.48234 1.63655C7.03376 1.63655 7.32379 1.2956 7.51571 1.07007C7.69566 0.858387 7.76699 0.78981 7.92268 0.78981C8.07856 0.78981 8.14988 0.858208 8.3302 1.07007C8.5221 1.29561 8.81229 1.63655 9.36427 1.63655H9.36409C9.63691 1.63707 9.90161 1.54728 10.1145 1.38224L9.07693 3.92827L6.73809 3.92809L5.68896 1.35437C5.91145 1.53501 6.19204 1.6348 6.48226 1.63656L6.48234 1.63655Z" fill="#F4A72A"/>
<path d="M18.1416 19.25H17.2337V18.4047C17.2337 17.7878 16.6484 17.2859 15.9288 17.2859L11.6447 17.2861C10.9251 17.2861 10.3398 17.7878 10.3398 18.4048V19.25H9.43167C8.70265 19.25 8.10938 19.7518 8.10938 20.3688V21.6071C8.10938 21.8241 8.29096 22 8.5149 22H19.0586C19.2825 22 19.4641 21.8241 19.4641 21.6071V20.3688C19.4641 19.7518 18.8708 19.25 18.1416 19.25V19.25ZM11.1508 18.4047C11.1508 18.2242 11.3769 18.0716 11.6447 18.0716H15.9288C16.192 18.0716 16.4227 18.2272 16.4227 18.4047V19.25H11.1508V18.4047ZM18.6533 21.2143H8.92066V20.3688C8.92066 20.2113 9.13048 20.0357 9.4319 20.0357H18.1417C18.4431 20.0357 18.6531 20.2113 18.6531 20.3688L18.6533 21.2143Z" fill="#515151"/>
<path d="M25.7438 16.7455L19.3212 13.3197L20.0092 12.1548L25.3528 15.0006H25.3526C25.5489 15.1051 25.7955 15.0359 25.9036 14.8458C26.0115 14.6556 25.9398 14.4168 25.7435 14.3121L20.1255 11.32L20.1257 11.3202C20.0556 11.0873 19.8932 10.891 19.6742 10.774L17.9782 9.8619C17.9874 9.71966 17.9718 9.5769 17.9324 9.43976C17.9132 9.37487 17.8887 9.31155 17.8596 9.25034L18.5327 8.11016H18.5325C18.6737 8.14401 18.8185 8.16172 18.9641 8.16295C19.1935 8.17347 19.4218 8.12472 19.6254 8.02159C19.8291 7.91847 20.0007 7.76483 20.1227 7.57612C20.2764 7.30726 20.3116 6.9898 20.2207 6.69554C20.0749 6.24884 19.7527 5.87633 19.3242 5.6592L17.666 4.76758C17.3733 4.6071 17.0434 4.52116 16.7071 4.51801C16.4776 4.50748 16.2493 4.55624 16.0456 4.65936C15.8419 4.76249 15.6703 4.9163 15.5483 5.10484C15.3948 5.3737 15.3595 5.69116 15.4506 5.98542C15.532 6.25217 15.6828 6.4942 15.8887 6.68816L15.2185 7.8234H15.2183C14.7921 7.86988 14.414 8.10963 14.1996 8.46935L13.0124 10.4803C12.8355 10.7776 12.79 11.1313 12.8862 11.4615C12.9054 11.5261 12.9298 11.5892 12.959 11.6502L12.2804 12.7998C12.1392 12.766 11.9944 12.7483 11.849 12.7471C11.6194 12.7365 11.3911 12.7853 11.1875 12.8884C10.9838 12.9915 10.8122 13.1454 10.6902 13.3341C10.5367 13.6027 10.5016 13.92 10.5926 14.2142C10.7382 14.6612 11.0604 15.0341 11.489 15.2512L13.1471 16.1425H13.1472C13.4396 16.303 13.7695 16.3889 14.1057 16.3923C14.3352 16.4028 14.5635 16.354 14.7672 16.2509C14.9708 16.1478 15.1425 15.994 15.2647 15.8054C15.4185 15.5367 15.4537 15.2191 15.3624 14.9248C15.2811 14.6581 15.1303 14.4162 14.9247 14.2221L15.6003 13.0772C15.8208 13.0525 16.0315 12.9755 16.2142 12.8532L17.9174 13.7693V13.7691C18.1379 13.888 18.3977 13.9185 18.641 13.8538L25.3528 17.4337H25.3526C25.4469 17.4842 25.5579 17.4963 25.6615 17.4674C25.765 17.4384 25.8523 17.3709 25.9042 17.2795C25.9562 17.188 25.9685 17.0805 25.9385 16.9801C25.9084 16.88 25.8383 16.7956 25.744 16.7455L25.7438 16.7455ZM16.0881 7.93292L16.5588 7.13562L17.7842 7.79472L17.3135 8.59202L16.0881 7.93292ZM16.2525 5.4951V5.49492C16.3591 5.35865 16.5315 5.28622 16.7071 5.30375C16.9055 5.30761 17.0999 5.35935 17.2725 5.45441L18.9308 6.3464C19.1685 6.46267 19.3508 6.66331 19.4393 6.90672C19.4708 6.9988 19.4636 7.09929 19.4187 7.18611C19.2259 7.51232 18.6599 7.3671 18.3989 7.2268L16.7408 6.33481C16.4813 6.19538 16.059 5.82235 16.2525 5.49491L16.2525 5.4951ZM13.7163 10.8707L14.9036 8.85979C15.001 8.69774 15.1802 8.59847 15.3737 8.59952C15.4662 8.59952 15.5575 8.6225 15.6384 8.66599C15.6384 8.66599 16.8979 9.3435 16.899 9.34386V9.34404C17.0201 9.40893 17.1095 9.51767 17.1477 9.6464C17.1857 9.77531 17.1696 9.91351 17.1025 10.0307L15.915 12.0412C15.7608 12.2829 15.4396 12.3678 15.1802 12.2352C15.1802 12.2352 13.9218 11.5586 13.9197 11.5573V11.5572C13.6682 11.4218 13.5773 11.1147 13.7164 10.8707L13.7163 10.8707ZM13.5387 12.2512L13.5592 12.2624L14.7647 12.9106L14.2544 13.7753L13.0286 13.116L13.5387 12.2512ZM14.5543 15.4117C14.3525 15.7355 13.8097 15.6003 13.5409 15.4558L11.8828 14.5645V14.5646C11.6447 14.448 11.4624 14.247 11.3737 14.0034C11.2825 13.6874 11.5616 13.533 11.8489 13.533C12.0474 13.5369 12.2416 13.5888 12.414 13.6838L14.0723 14.5756H14.0724C14.3103 14.6919 14.4926 14.8927 14.5813 15.1363C14.613 15.2275 14.6032 15.3277 14.5543 15.4117L14.5543 15.4117ZM16.7958 12.2673L17.7558 10.641L19.2807 11.4613C19.3131 11.4783 19.3374 11.507 19.3479 11.5414C19.3584 11.5756 19.3542 11.6126 19.3364 11.644L18.5187 13.0293C18.4988 13.0635 18.4656 13.0884 18.4263 13.0986C18.3872 13.1086 18.3456 13.1028 18.3108 13.0825L16.7958 12.2673Z" fill="#515151"/>
</svg>
