<svg width="21" height="27" viewBox="0 0 21 27" fill="none" xmlns="http://www.w3.org/2000/svg">
<path d="M12.7558 4.42058H2.83068V3.20018H12.7558V4.42058ZM12.7558 7.18268H1.7089V5.96231H12.7558V7.18268ZM6.37443 9.94481H1.7089V8.72441H6.37443V9.94481ZM6.37443 12.7069H1.62841V11.4865H6.37443V12.7069ZM6.37443 15.469H1.7089V14.2486H6.37443V15.469ZM0.593274 -0.000185013C0.437524 -0.000185013 0.284396 0.0645924 0.174146 0.178892C0.0630205 0.292292 0 0.449797 0 0.609997V18.8566C0 19.0168 0.0630205 19.1743 0.174146 19.2877C0.284396 19.402 0.437524 19.4668 0.593274 19.4668H6.6946V8.2429C6.6946 8.1358 6.73749 8.03048 6.81099 7.95488C6.88361 7.87838 6.98602 7.8361 7.09015 7.8361H14.4647V0.609997C14.4647 0.449797 14.4016 0.292292 14.2914 0.178892C14.1811 0.0645924 14.028 -0.000185013 13.8714 -0.000185013H0.593274Z" fill="#515151"/>
<path d="M8.20446 21.8827H16.5056V23.1022H8.20446V21.8827ZM8.20446 19.1206H19.2513V20.341H8.20446V19.1206ZM8.20446 16.3585H19.2513V17.578H8.20446V16.3585ZM8.20446 13.5955H19.2513V14.8168H8.20446V13.5955ZM9.32623 10.8334H19.2513V12.0547H9.32623V10.8334ZM7.48438 26.083H19.9706V8.65091H7.48438V26.083Z" fill="white"/>
<path d="M19.9734 26.083H7.48726V8.65088H19.9734V26.083ZM14.4654 7.83728H7.09086C6.98673 7.83728 6.88432 7.87956 6.81169 7.95606C6.73819 8.03166 6.69531 8.13698 6.69531 8.24408V19.468V26.4907C6.69531 26.5969 6.73819 26.7022 6.81169 26.7778C6.88432 26.8534 6.98673 26.8975 7.09086 26.8975H20.369C20.4731 26.8975 20.5755 26.8534 20.6499 26.7778C20.7234 26.7022 20.7644 26.5969 20.7644 26.4907V8.24408C20.7644 8.13698 20.7234 8.03166 20.6499 7.95606C20.5755 7.87956 20.4731 7.83728 20.369 7.83728H14.4654Z" fill="#515151"/>
<path d="M9.32812 12.0537H19.2532V10.8324H9.32812V12.0537Z" fill="#F4A72A"/>
<path d="M8.20703 14.8154H19.2539V13.5941H8.20703V14.8154Z" fill="#F4A72A"/>
<path d="M8.20703 17.5781H19.2539V16.3586H8.20703V17.5781Z" fill="#F4A72A"/>
<path d="M8.20703 20.3408H19.2539V19.1204H8.20703V20.3408Z" fill="#F4A72A"/>
<path d="M8.20703 23.1016H16.5082V21.8821H8.20703V23.1016Z" fill="#F4A72A"/>
</svg>
