<svg width="18" height="18" viewBox="0 0 18 18" fill="none" xmlns="http://www.w3.org/2000/svg">
<mask id="path-1-inside-1_283_13999" fill="white">
<path d="M11.1086 15.2691H13.2066L11.1086 17.2454V15.2691ZM11.9496 5.2729L10.8068 6.38775L9.10554 8.04737L7.92396 9.2001L6.43188 10.6557L5.24977 11.8084L4.99372 12.0582L5.26485 12.3222L15.3471 2.4863H15.3477L15.0765 2.2218L14.0092 3.26355V0.384415C14.0092 0.282921 13.9672 0.184063 13.8939 0.112543C13.8206 0.0404987 13.7187 0 13.6152 0H0.394045C0.290548 0 0.188673 0.0404987 0.115363 0.112543C0.0420529 0.184063 0 0.282921 0 0.384415V17.6156C0 17.7171 0.0420529 17.8159 0.115363 17.8875C0.188673 17.959 0.290548 18 0.394045 18H11.2067C11.3102 18 11.4111 17.9595 11.4844 17.8885L12.6994 16.7111L12.7004 16.7095L13.8939 15.54C13.9672 15.4684 14.0092 15.3701 14.0092 15.2691V6.40298L13.2206 7.17181V14.5003H10.7146C10.6111 14.5003 10.5098 14.5413 10.4359 14.6129C10.3626 14.6844 10.3206 14.7832 10.3206 14.8847V17.2312H0.78809V0.76829H13.2206V4.03238L11.9496 5.2729Z"/>
</mask>
<path d="M11.1086 15.2691H10.1086V14.2691H11.1086V15.2691ZM13.2066 15.2691V14.2691H15.7266L13.8923 15.9971L13.2066 15.2691ZM11.1086 17.2454L11.7943 17.9733L10.1086 19.5611V17.2454H11.1086ZM10.8068 6.38775L11.5051 7.10355L11.5051 7.10356L10.8068 6.38775ZM9.10554 8.04737L8.40723 7.33158L8.40724 7.33157L9.10554 8.04737ZM7.92396 9.2001L8.62227 9.9159L8.62226 9.91591L7.92396 9.2001ZM6.43188 10.6557L7.13017 11.3715L7.13002 11.3716L6.43188 10.6557ZM5.24977 11.8084L4.55146 11.0926L4.55162 11.0924L5.24977 11.8084ZM4.99372 12.0582L4.29611 12.7747L3.56097 12.0589L4.29542 11.3424L4.99372 12.0582ZM5.26485 12.3222L5.96315 13.038L5.26553 13.7185L4.56724 13.0387L5.26485 12.3222ZM15.3471 2.4863L14.6488 1.7705L14.9402 1.4863H15.3471V2.4863ZM15.3477 2.4863L16.046 1.77047L17.805 3.4863H15.3477V2.4863ZM15.0765 2.2218L14.3781 1.50618L15.0763 0.824619L15.7748 1.50597L15.0765 2.2218ZM14.0092 3.26355L14.7077 3.97917L13.0092 5.63701V3.26355H14.0092ZM13.8939 0.112543L13.1956 0.828348L13.193 0.825783L13.8939 0.112543ZM0.115363 0.112543L0.816289 0.825787L0.813668 0.828344L0.115363 0.112543ZM11.4844 17.8885L12.1803 18.6066L12.18 18.6069L11.4844 17.8885ZM12.6994 16.7111L13.5228 17.2784L13.4665 17.3601L13.3953 17.4292L12.6994 16.7111ZM12.7004 16.7095L11.877 16.1422L11.9317 16.0628L12.0005 15.9953L12.7004 16.7095ZM13.8939 15.54L13.194 14.8257L13.1956 14.8242L13.8939 15.54ZM14.0092 6.40298L13.3112 5.68695L15.0092 4.03149V6.40298H14.0092ZM13.2206 7.17181H12.2206V6.75013L12.5226 6.45577L13.2206 7.17181ZM13.2206 14.5003H14.2206V15.5003H13.2206V14.5003ZM10.4359 14.6129L9.73761 13.8971L9.74024 13.8945L10.4359 14.6129ZM10.3206 17.2312H11.3206V18.2312H10.3206V17.2312ZM0.78809 17.2312V18.2312H-0.21191V17.2312H0.78809ZM0.78809 0.76829H-0.21191V-0.23171H0.78809V0.76829ZM13.2206 0.76829V-0.23171H14.2206V0.76829H13.2206ZM13.2206 4.03238H14.2206V4.45374L13.9191 4.74804L13.2206 4.03238ZM11.1086 14.2691H13.2066V16.2691H11.1086V14.2691ZM13.8923 15.9971L11.7943 17.9733L10.423 16.5175L12.5209 14.5412L13.8923 15.9971ZM10.1086 17.2454V15.2691H12.1086V17.2454H10.1086ZM12.6479 5.9887L11.5051 7.10355L10.1085 5.67195L11.2513 4.5571L12.6479 5.9887ZM11.5051 7.10356L9.80384 8.76318L8.40724 7.33157L10.1085 5.67195L11.5051 7.10356ZM9.80386 8.76317L8.62227 9.9159L7.22565 8.48431L8.40723 7.33158L9.80386 8.76317ZM8.62226 9.91591L7.13017 11.3715L5.73358 9.93989L7.22566 8.4843L8.62226 9.91591ZM7.13002 11.3716L5.94791 12.5244L4.55162 11.0924L5.73373 9.93974L7.13002 11.3716ZM5.94807 12.5242L5.69203 12.774L4.29542 11.3424L4.55146 11.0926L5.94807 12.5242ZM5.69133 11.3417L5.96246 11.6057L4.56724 13.0387L4.29611 12.7747L5.69133 11.3417ZM4.56654 11.6064L14.6488 1.7705L16.0455 3.2021L5.96315 13.038L4.56654 11.6064ZM15.3471 1.4863H15.3477V3.4863H15.3471V1.4863ZM14.6494 3.20214L14.3783 2.93763L15.7748 1.50597L16.046 1.77047L14.6494 3.20214ZM15.775 2.93742L14.7077 3.97917L13.3108 2.54793L14.3781 1.50618L15.775 2.93742ZM13.0092 3.26355V0.384415H15.0092V3.26355H13.0092ZM13.0092 0.384415C13.0092 0.556259 13.0787 0.714357 13.1956 0.828344L14.5922 -0.603256C14.8557 -0.346233 15.0092 0.00958443 15.0092 0.384415H13.0092ZM13.193 0.825783C13.3128 0.943516 13.4652 1 13.6152 1V-1C13.9722 -1 14.3284 -0.862516 14.5948 -0.600695L13.193 0.825783ZM13.6152 1H0.394045V-1H13.6152V1ZM0.394045 1C0.544066 1 0.696481 0.943516 0.816285 0.825783L-0.585559 -0.600695C-0.319135 -0.862516 0.0370306 -1 0.394045 -1V1ZM0.813668 0.828344C0.930511 0.714357 1 0.556259 1 0.384415H-1C-1 0.00958443 -0.846405 -0.346233 -0.582942 -0.603256L0.813668 0.828344ZM1 0.384415V17.6156H-1V0.384415H1ZM1 17.6156C1 17.4437 0.930511 17.2856 0.813668 17.1717L-0.582942 18.6033C-0.846405 18.3462 -1 17.9904 -1 17.6156H1ZM0.813668 17.1717C0.697161 17.058 0.5472 17 0.394045 17V19C0.033897 19 -0.319815 18.86 -0.582942 18.6033L0.813668 17.1717ZM0.394045 17H11.2067V19H0.394045V17ZM11.2067 17C11.0546 17 10.9048 17.0577 10.7887 17.1701L12.18 18.6069C11.9173 18.8613 11.5659 19 11.2067 19V17ZM10.7884 17.1704L12.0034 15.993L13.3953 17.4292L12.1803 18.6066L10.7884 17.1704ZM11.8759 16.1437L11.877 16.1422L13.5239 17.2769L13.5228 17.2784L11.8759 16.1437ZM12.0005 15.9953L13.194 14.8257L14.5938 16.2542L13.4003 17.4237L12.0005 15.9953ZM13.1956 14.8242C13.0803 14.9366 13.0092 15.0946 13.0092 15.2691H15.0092C15.0092 15.6457 14.854 16.0003 14.5922 16.2558L13.1956 14.8242ZM13.0092 15.2691V6.40298H15.0092V15.2691H13.0092ZM14.7073 7.11901L13.9187 7.88784L12.5226 6.45577L13.3112 5.68695L14.7073 7.11901ZM14.2206 7.17181V14.5003H12.2206V7.17181H14.2206ZM13.2206 15.5003H10.7146V13.5003H13.2206V15.5003ZM10.7146 15.5003C10.8698 15.5003 11.0183 15.441 11.1316 15.3312L9.74024 13.8945C10.0013 13.6417 10.3524 13.5003 10.7146 13.5003V15.5003ZM11.1342 15.3287C11.2511 15.2147 11.3206 15.0566 11.3206 14.8847H9.32055C9.32055 14.5099 9.47415 14.1541 9.73761 13.8971L11.1342 15.3287ZM11.3206 14.8847V17.2312H9.32055V14.8847H11.3206ZM10.3206 18.2312H0.78809V16.2312H10.3206V18.2312ZM-0.21191 17.2312V0.76829H1.78809V17.2312H-0.21191ZM0.78809 -0.23171H13.2206V1.76829H0.78809V-0.23171ZM14.2206 0.76829V4.03238H12.2206V0.76829H14.2206ZM13.9191 4.74804L12.648 5.98855L11.2511 4.55724L12.5222 3.31672L13.9191 4.74804Z" fill="#515151" mask="url(#path-1-inside-1_283_13999)"/>
<path d="M3.04883 3.36462H11.6066V3.24979H3.04883V3.36462Z" stroke="#F4A72A"/>
<path d="M1.96777 5.8877H10.6032L10.721 5.77284H1.96777V5.8877Z" stroke="#F4A72A"/>
<path d="M2.00488 8.70007H7.72086L7.87741 8.54734H2.00488V8.70007Z" stroke="#F4A72A"/>
<mask id="path-6-inside-2_283_13999" fill="white">
<path d="M12.5047 9.20007V8.04734H12.3242L11.1426 9.20007H12.5047Z"/>
</mask>
<path d="M12.5047 9.20007H13.5047V10.2001H12.5047V9.20007ZM12.5047 8.04734V7.04734H13.5047V8.04734H12.5047ZM12.3242 8.04734L11.6258 7.33155L11.9172 7.04734H12.3242V8.04734ZM11.1426 9.20007V10.2001H8.68552L10.4443 8.48428L11.1426 9.20007ZM11.5047 9.20007V8.04734H13.5047V9.20007H11.5047ZM12.5047 9.04734H12.3242V7.04734H12.5047V9.04734ZM13.0225 8.76314L11.8409 9.91586L10.4443 8.48428L11.6258 7.33155L13.0225 8.76314ZM11.1426 8.20007H12.5047V10.2001H11.1426V8.20007Z" fill="#F4A72A" mask="url(#path-6-inside-2_283_13999)"/>
<path d="M12.0046 11.3083V11.1556H9.85383L9.6973 11.3083H12.0046Z" stroke="#F4A72A"/>
<path d="M2.00488 11.3083H5.04674L5.20334 11.1556H2.00488V11.3083Z" stroke="#F4A72A"/>
<mask id="path-10-inside-3_283_13999" fill="white">
<path d="M3.71118 14.4167L3.74947 14.341L4.29173 13.2646H1.50488V14.4167H3.71118Z"/>
</mask>
<path d="M3.74947 14.341L4.64256 14.7909L4.64184 14.7923L3.74947 14.341ZM4.29173 13.2646V12.2646H5.91518L5.18482 13.7144L4.29173 13.2646ZM1.50488 13.2646H0.504883V12.2646H1.50488V13.2646ZM1.50488 14.4167V15.4167H0.504883V14.4167H1.50488ZM2.81881 13.9654L2.85711 13.8897L4.64184 14.7923L4.60354 14.8681L2.81881 13.9654ZM2.85639 13.8911L3.39864 12.8147L5.18482 13.7144L4.64256 14.7909L2.85639 13.8911ZM4.29173 14.2646H1.50488V12.2646H4.29173V14.2646ZM2.50488 13.2646V14.4167H0.504883V13.2646H2.50488ZM1.50488 13.4167H3.71118V15.4167H1.50488V13.4167Z" fill="#F4A72A" mask="url(#path-10-inside-3_283_13999)"/>
<path d="M7.17953 13.7646L7.02353 13.9167H9.27044V13.7646H7.17953Z" stroke="#F4A72A"/>
<path d="M11.1426 9.20007L11.7452 8.61214L11.1426 9.20007Z" fill="#515151"/>
<mask id="path-14-inside-4_283_13999" fill="white">
<path d="M6.13035 13.2172L16.2132 3.38077L15.4979 2.68346L5.41504 12.5199L6.13035 13.2172Z"/>
</mask>
<path d="M6.13035 13.2172L6.82866 13.933L6.13062 14.6139L5.43232 13.9332L6.13035 13.2172ZM16.2132 3.38077L16.9112 2.66472L17.6455 3.38051L16.9115 4.09657L16.2132 3.38077ZM15.4979 2.68346L14.7996 1.96766L15.4976 1.28667L16.1959 1.9674L15.4979 2.68346ZM5.41504 12.5199L4.71701 13.2359L3.98272 12.5201L4.71673 11.8041L5.41504 12.5199ZM5.43205 12.5014L15.5149 2.66497L16.9115 4.09657L6.82866 13.933L5.43205 12.5014ZM15.5151 4.09683L14.7998 3.39951L16.1959 1.9674L16.9112 2.66472L15.5151 4.09683ZM16.1962 3.39926L6.11335 13.2357L4.71673 11.8041L14.7996 1.96766L16.1962 3.39926ZM6.11307 11.8038L6.82838 12.5011L5.43232 13.9332L4.71701 13.2359L6.11307 11.8038Z" fill="#515151" mask="url(#path-14-inside-4_283_13999)"/>
<mask id="path-16-inside-5_283_13999" fill="white">
<path d="M6.60308 13.6279L16.6865 3.79155L16.4159 3.52756L6.33301 13.3639L6.60308 13.6279Z"/>
</mask>
<path d="M6.60308 13.6279L7.30137 14.3437L6.60238 15.0256L5.90408 14.3431L6.60308 13.6279ZM16.6865 3.79155L17.3848 3.07575L18.1185 3.79157L17.3847 4.50737L16.6865 3.79155ZM16.4159 3.52756L15.7176 2.81176L16.4159 2.13052L17.1142 2.81176L16.4159 3.52756ZM6.33301 13.3639L5.63401 14.0791L4.90168 13.3632L5.6347 12.6481L6.33301 13.3639ZM5.9048 12.9121L15.9882 3.07573L17.3847 4.50737L7.30137 14.3437L5.9048 12.9121ZM15.9882 4.50735L15.7176 4.24336L17.1142 2.81176L17.3848 3.07575L15.9882 4.50735ZM17.1142 4.24336L7.03131 14.0797L5.6347 12.6481L15.7176 2.81176L17.1142 4.24336ZM7.03201 12.6488L7.30208 12.9128L5.90408 14.3431L5.63401 14.0791L7.03201 12.6488Z" fill="#515151" mask="url(#path-16-inside-5_283_13999)"/>
<mask id="path-18-inside-6_283_13999" fill="white">
<path d="M4.97696 12.3343C4.94353 12.3012 4.89557 12.2864 4.84867 12.2938C4.80123 12.3017 4.76134 12.3306 4.73978 12.3727L4.29128 13.2646L3.74902 14.341L4.26325 14.8422L5.15107 14.4167L6.2809 13.8751C6.32349 13.8546 6.35367 13.8157 6.36176 13.7699C6.36877 13.7237 6.35421 13.6774 6.32025 13.6442L5.93108 13.2646L4.97696 12.3343Z"/>
</mask>
<path d="M4.84867 12.2938L4.68463 11.3073L4.69358 11.3059L4.84867 12.2938ZM4.73978 12.3727L3.84636 11.9234L3.84986 11.9166L4.73978 12.3727ZM4.29128 13.2646L5.18468 13.7138L5.18437 13.7144L4.29128 13.2646ZM3.74902 14.341L3.05108 15.0572L2.52622 14.5457L2.85593 13.8911L3.74902 14.341ZM4.26325 14.8422L4.69537 15.744L4.06551 16.0458L3.56531 15.5583L4.26325 14.8422ZM5.15107 14.4167L5.58335 15.3185L5.58319 15.3186L5.15107 14.4167ZM6.2809 13.8751L6.71481 14.7761L6.71319 14.7768L6.2809 13.8751ZM6.36176 13.7699L7.35049 13.9197L7.34864 13.9318L7.3465 13.944L6.36176 13.7699ZM6.32025 13.6442L5.62195 14.36L5.62192 14.36L6.32025 13.6442ZM5.93108 13.2646L6.62917 12.5486L6.62941 12.5488L5.93108 13.2646ZM4.27295 13.0445C4.47495 13.2447 4.7499 13.3216 5.00376 13.2817L4.69358 11.3059C5.04123 11.2513 5.41212 11.3576 5.68096 11.6241L4.27295 13.0445ZM5.01271 13.2803C5.27171 13.2372 5.50421 13.0736 5.6297 12.8288L3.84986 11.9166C4.01847 11.5876 4.33076 11.3662 4.68463 11.3073L5.01271 13.2803ZM5.63318 12.8219L5.18468 13.7138L3.39788 12.8153L3.84638 11.9234L5.63318 12.8219ZM5.18437 13.7144L4.64211 14.7909L2.85593 13.8911L3.39819 12.8147L5.18437 13.7144ZM4.44696 13.6249L4.96119 14.126L3.56531 15.5583L3.05108 15.0572L4.44696 13.6249ZM3.83112 13.9404L4.71894 13.5149L5.58319 15.3186L4.69537 15.744L3.83112 13.9404ZM4.71878 13.515L5.84861 12.9734L6.71319 14.7768L5.58335 15.3185L4.71878 13.515ZM5.847 12.9741C5.61081 13.0879 5.42703 13.3129 5.37702 13.5959L7.3465 13.944C7.28032 14.3184 7.03617 14.6213 6.71481 14.7761L5.847 12.9741ZM5.37303 13.6202C5.33376 13.8795 5.41621 14.1593 5.62195 14.36L7.01856 12.9284C7.29221 13.1954 7.40377 13.5678 7.35049 13.9197L5.37303 13.6202ZM5.62192 14.36L5.23275 13.9803L6.62941 12.5488L7.01858 12.9285L5.62192 14.36ZM5.23298 13.9806L4.27886 13.0503L5.67505 11.6183L6.62917 12.5486L5.23298 13.9806Z" fill="#515151" mask="url(#path-18-inside-6_283_13999)"/>
<mask id="path-20-inside-7_283_13999" fill="white">
<path d="M3.44373 14.9468C3.41624 15.0025 3.42702 15.0688 3.47176 15.1124C3.5165 15.1561 3.58441 15.1671 3.64155 15.1403L4.26306 14.8421L3.74884 14.341L3.71054 14.4167L3.44373 14.9468Z"/>
</mask>
<path d="M3.64155 15.1403L4.07414 16.0419L4.06645 16.0455L3.64155 15.1403ZM4.26306 14.8421L4.961 14.126L5.98582 15.1247L4.69563 15.7437L4.26306 14.8421ZM3.74884 14.341L2.85647 13.8897L3.47124 12.6741L4.44677 13.6248L3.74884 14.341ZM3.71054 14.4167L2.81731 13.9671L2.81817 13.9654L3.71054 14.4167ZM4.34059 15.3891C4.50171 15.0624 4.4399 14.6599 4.17006 14.3966L2.77345 15.8282C2.41413 15.4777 2.33076 14.9426 2.54687 14.5045L4.34059 15.3891ZM4.17006 14.3966C3.91102 14.1439 3.52988 14.088 3.21666 14.2351L4.06645 16.0455C3.63895 16.2462 3.12198 16.1682 2.77345 15.8282L4.17006 14.3966ZM3.20898 14.2387L3.83049 13.9405L4.69563 15.7437L4.07413 16.0419L3.20898 14.2387ZM3.56512 15.5583L3.0509 15.0571L4.44677 13.6248L4.961 14.126L3.56512 15.5583ZM4.6412 14.7923L4.6029 14.868L2.81817 13.9654L2.85647 13.8897L4.6412 14.7923ZM4.60377 14.8663L4.33696 15.3964L2.5505 14.4972L2.81731 13.9671L4.60377 14.8663Z" fill="#515151" mask="url(#path-20-inside-7_283_13999)"/>
<mask id="path-22-inside-8_283_13999" fill="white">
<path d="M16.0578 1.2652L15.8718 1.4461L15.5586 1.75215L15.2217 2.0803L16.8313 3.65003L17.1676 3.32187L17.4808 3.01634L17.6668 2.83493C18.1115 2.40109 18.111 1.69852 17.6668 1.2652C17.2226 0.831361 16.5019 0.831361 16.0578 1.2652Z"/>
</mask>
<path d="M15.8718 1.4461L15.1729 0.730884L15.1745 0.729261L15.8718 1.4461ZM15.5586 1.75215L16.2575 2.46736L16.2563 2.46849L15.5586 1.75215ZM15.2217 2.0803L14.5235 2.79622L13.7889 2.07986L14.5239 1.36396L15.2217 2.0803ZM16.8313 3.65003L17.5296 4.3658L16.8314 5.04698L16.1331 4.36595L16.8313 3.65003ZM17.1676 3.32187L16.4693 2.6061L16.4693 2.60607L17.1676 3.32187ZM17.4808 3.01634L16.7825 2.30054L16.7826 2.30049L17.4808 3.01634ZM17.6668 2.83493L18.3651 3.55073L18.3651 3.55078L17.6668 2.83493ZM17.6668 1.2652L16.9685 1.981L16.9681 1.98058L17.6668 1.2652ZM16.755 1.98204L16.569 2.16294L15.1745 0.729261L15.3605 0.548365L16.755 1.98204ZM16.5707 2.16131L16.2575 2.46736L14.8597 1.03693L15.1729 0.730886L16.5707 2.16131ZM16.2563 2.46849L15.9194 2.79665L14.5239 1.36396L14.8608 1.0358L16.2563 2.46849ZM15.9199 1.36438L17.5295 2.93411L16.1331 4.36595L14.5235 2.79622L15.9199 1.36438ZM16.133 2.93426L16.4693 2.6061L17.866 4.03765L17.5296 4.3658L16.133 2.93426ZM16.4693 2.60607L16.7825 2.30054L18.1791 3.73214L17.8659 4.03767L16.4693 2.60607ZM16.7826 2.30049L16.9686 2.11908L18.3651 3.55078L18.1791 3.73219L16.7826 2.30049ZM16.9685 2.11913C16.9929 2.09535 17.0001 2.07163 17.0001 2.05011C17.0001 2.02849 16.9928 2.00469 16.9685 1.981L18.3651 0.549403C19.2112 1.37483 19.2124 2.72414 18.3651 3.55073L16.9685 2.11913ZM16.9681 1.98058C16.9428 1.95589 16.9067 1.93982 16.8623 1.93982C16.8179 1.93982 16.7818 1.95589 16.7565 1.98058L15.359 0.549826C16.1917 -0.263514 17.5328 -0.263514 18.3655 0.549826L16.9681 1.98058Z" fill="#515151" mask="url(#path-22-inside-8_283_13999)"/>
</svg>
