<svg width="11" height="14" viewBox="0 0 11 14" fill="none" xmlns="http://www.w3.org/2000/svg">
<path d="M10.7105 0H0.289474C0.129626 0 0 0.124857 0 0.278884V13.7211C0 13.8751 0.129626 14 0.289474 14H10.7105C10.8704 14 11 13.8751 11 13.7211V0.278884C11 0.124857 10.8704 0 10.7105 0ZM10.4211 13.4422H0.578947V0.557769H10.4211V13.4422Z" fill="white"/>
<path d="M1.88322 4.60159H4.40165C4.56149 4.60159 4.69112 4.47674 4.69112 4.32271V1.89641C4.69112 1.74239 4.56149 1.61753 4.40165 1.61753H1.88322C1.72338 1.61753 1.59375 1.74239 1.59375 1.89641V4.32271C1.59375 4.47674 1.72338 4.60159 1.88322 4.60159ZM2.1727 2.1753H4.11217V4.04382H2.1727V2.1753Z" fill="white"/>
<path d="M1.88322 8.53386H4.40165C4.56149 8.53386 4.69112 8.40901 4.69112 8.25498V7.7251C4.69112 7.57107 4.56149 7.44622 4.40165 7.44622C4.2418 7.44622 4.11217 7.57107 4.11217 7.7251V7.9761H2.1727V6.10757H3.96743C4.12728 6.10757 4.25691 5.98271 4.25691 5.82869C4.25691 5.67466 4.12728 5.5498 3.96743 5.5498H1.88322C1.72338 5.5498 1.59375 5.67466 1.59375 5.82869V8.25498C1.59375 8.40901 1.72338 8.53386 1.88322 8.53386Z" fill="white"/>
<path d="M1.88322 12.4382H4.40165C4.56149 12.4382 4.69112 12.3134 4.69112 12.1594V9.73307C4.69112 9.57904 4.56149 9.45418 4.40165 9.45418H1.88322C1.72338 9.45418 1.59375 9.57904 1.59375 9.73307V12.1594C1.59375 12.3134 1.72338 12.4382 1.88322 12.4382ZM2.1727 10.012H4.11217V11.8805H2.1727V10.012Z" fill="white"/>
<path d="M7.69963 2.76096H9.147C9.30685 2.76096 9.43647 2.6361 9.43647 2.48207C9.43647 2.32804 9.30685 2.20319 9.147 2.20319H7.69963C7.53978 2.20319 7.41016 2.32804 7.41016 2.48207C7.41016 2.6361 7.53978 2.76096 7.69963 2.76096Z" fill="white"/>
<path d="M5.9926 2.76096H6.4847C6.64455 2.76096 6.77418 2.6361 6.77418 2.48207C6.77418 2.32804 6.64455 2.20319 6.4847 2.20319H5.9926C5.83275 2.20319 5.70312 2.32804 5.70312 2.48207C5.70312 2.6361 5.83275 2.76096 5.9926 2.76096Z" fill="white"/>
<path d="M5.9926 3.90438H9.14786C9.30771 3.90438 9.43734 3.77953 9.43734 3.6255C9.43734 3.47147 9.30771 3.34661 9.14786 3.34661H5.9926C5.83275 3.34661 5.70312 3.47147 5.70312 3.6255C5.70312 3.77953 5.83275 3.90438 5.9926 3.90438Z" fill="white"/>
<path d="M9.147 6.16335H7.69963C7.53978 6.16335 7.41016 6.2882 7.41016 6.44223C7.41016 6.59626 7.53978 6.72111 7.69963 6.72111H9.147C9.30685 6.72111 9.43647 6.59626 9.43647 6.44223C9.43647 6.2882 9.30685 6.16335 9.147 6.16335Z" fill="white"/>
<path d="M5.9926 6.72111H6.4847C6.64455 6.72111 6.77418 6.59626 6.77418 6.44223C6.77418 6.2882 6.64455 6.16335 6.4847 6.16335H5.9926C5.83275 6.16335 5.70312 6.2882 5.70312 6.44223C5.70312 6.59626 5.83275 6.72111 5.9926 6.72111Z" fill="white"/>
<path d="M5.9926 7.86454H9.14786C9.30771 7.86454 9.43734 7.73968 9.43734 7.58566C9.43734 7.43163 9.30771 7.30677 9.14786 7.30677H5.9926C5.83275 7.30677 5.70312 7.43163 5.70312 7.58566C5.70312 7.73968 5.83275 7.86454 5.9926 7.86454Z" fill="white"/>
<path d="M9.147 10.0398H7.69963C7.53978 10.0398 7.41016 10.1647 7.41016 10.3187C7.41016 10.4728 7.53978 10.5976 7.69963 10.5976H9.147C9.30685 10.5976 9.43647 10.4728 9.43647 10.3187C9.43647 10.1647 9.30685 10.0398 9.147 10.0398Z" fill="white"/>
<path d="M5.9926 10.5976H6.4847C6.64455 10.5976 6.77418 10.4728 6.77418 10.3187C6.77418 10.1647 6.64455 10.0398 6.4847 10.0398H5.9926C5.83275 10.0398 5.70312 10.1647 5.70312 10.3187C5.70312 10.4728 5.83275 10.5976 5.9926 10.5976Z" fill="white"/>
<path d="M5.9926 11.741H9.14786C9.30771 11.741 9.43734 11.6162 9.43734 11.4622C9.43734 11.3081 9.30771 11.1833 9.14786 11.1833H5.9926C5.83275 11.1833 5.70312 11.3081 5.70312 11.4622C5.70312 11.6162 5.83275 11.741 5.9926 11.741Z" fill="white"/>
<path d="M2.91914 6.5892C2.80361 6.48281 2.62032 6.4868 2.50989 6.59815C2.39942 6.70951 2.40359 6.88605 2.51918 6.99247L3.25267 7.6713C3.30921 7.72577 3.38329 7.75299 3.45736 7.75299C3.53144 7.75299 3.60551 7.72577 3.66205 7.6713L5.38442 6.01194C5.49746 5.90304 5.49746 5.72645 5.38442 5.61751C5.27135 5.50861 5.08811 5.50861 4.97501 5.61751L3.4547 7.08221L2.91914 6.5892Z" fill="white"/>
</svg>
