<svg width="18" height="22" viewBox="0 0 18 22" fill="none" xmlns="http://www.w3.org/2000/svg">
<path d="M0.313104 5.71046C0.313104 2.73672 2.69728 0.317558 5.62801 0.317558C7.50765 0.317558 9.15874 1.31545 10.104 2.81477L10.3735 2.65482C9.37419 1.06251 7.62274 0.000427246 5.62801 0.000427246C2.52492 0.000427246 0 2.56239 0 5.71046C0 8.85854 2.52492 11.4205 5.62801 11.4205C5.92801 11.4205 6.22146 11.3895 6.50891 11.3436C6.89728 13.4257 8.69675 15.002 10.8617 15.002C13.3107 15.002 15.2957 12.9879 15.2957 10.5034C15.2957 8.14845 13.5109 6.21854 11.2402 6.02373C11.2457 5.91912 11.2555 5.81617 11.2555 5.71046C11.2555 4.76737 11.0253 3.87908 10.6238 3.09483L10.3538 3.25422C10.7275 3.99198 10.9429 4.82603 10.9429 5.71046C10.9429 5.81119 10.9326 5.90861 10.9271 6.00768C10.9053 6.00768 10.884 6.00435 10.8617 6.00435C10.7842 6.00435 10.7089 6.0121 10.6326 6.01597C10.6386 5.91469 10.6484 5.81396 10.6484 5.71046C10.6484 4.87972 10.4482 4.09769 10.0996 3.4042L9.0131 4.04679C9.2542 4.55043 9.39327 5.11273 9.39327 5.71046C9.39327 5.90473 9.3742 6.09347 9.34693 6.27943C7.97784 6.78585 6.92619 7.95475 6.56674 9.40648C6.26674 9.48451 5.95256 9.531 5.62801 9.531C3.54819 9.531 1.86219 7.82025 1.86219 5.71046C1.86219 3.60067 3.54819 1.89048 5.62801 1.89048C6.93983 1.89048 8.09292 2.57126 8.76765 3.60402L9.85091 2.96365C8.95801 1.55288 7.40237 0.616421 5.62801 0.616421C2.85601 0.616421 0.607644 2.89723 0.607644 5.71046C0.607644 8.52369 2.85601 10.8045 5.62801 10.8045C5.9051 10.8045 6.17511 10.7763 6.4402 10.732C6.44511 10.8322 6.45001 10.9324 6.46201 11.0303C6.18928 11.0746 5.91219 11.1034 5.62801 11.1034C2.69728 11.1034 0.313104 8.6842 0.313104 5.71046Z" fill="white"/>
<path d="M5.6279 4.43686C6.01299 4.43686 6.35336 4.61618 6.58354 4.89346L7.67935 4.24593C7.22499 3.59174 6.47608 3.1628 5.6279 3.1628C4.24136 3.1628 3.11719 4.30292 3.11719 5.70982C3.11719 7.11671 4.24136 8.25684 5.6279 8.25684C7.01445 8.25684 8.13755 7.11671 8.13755 5.70982C8.13755 5.34619 8.06173 5.00139 7.92646 4.68813L6.82191 5.34012C6.85791 5.45801 6.88192 5.58031 6.88192 5.70982C6.88192 6.41326 6.32118 6.98334 5.6279 6.98334C4.93463 6.98334 4.37227 6.41326 4.37227 5.70982C4.37227 5.00637 4.93463 4.43686 5.6279 4.43686Z" fill="#F4A72A"/>
<path d="M12.8823 2.61288C12.9319 2.64 12.9924 2.63945 13.041 2.60956L13.2079 2.5116C13.233 2.49665 13.2477 2.46899 13.2477 2.43966C13.2472 2.40977 13.2319 2.38265 13.2057 2.36826L12.4481 1.94762L12.5343 1.8956L12.5719 1.84526L12.5632 1.7827L12.4585 1.6056C12.435 1.56742 12.3854 1.55413 12.3472 1.57682L12.2577 1.62995L12.2533 0.76158C12.2528 0.732246 12.2375 0.705679 12.2119 0.691289H12.1317L11.9659 0.789252C11.9157 0.818585 11.8852 0.872828 11.8852 0.930941L11.8906 1.84691L11.847 1.87347L11.8415 1.0051C11.8415 0.975762 11.8263 0.948074 11.8012 0.934238L11.7199 0.934805L11.5535 1.0322C11.5039 1.06209 11.4734 1.11579 11.4734 1.17446L11.4794 2.08988L11.4346 2.11645L11.4297 1.2475C11.4297 1.21872 11.4139 1.1916 11.3888 1.17721L11.3086 1.17778L11.1423 1.27518C11.0926 1.30506 11.0621 1.35932 11.0626 1.41743L11.0665 2.19779C11.0665 2.22657 11.0528 2.25315 11.0277 2.26865L10.3737 2.65439L10.1043 2.81435L9.85116 2.96323L8.7679 3.6036L7.67971 4.24616L6.5839 4.89369L5.79954 5.35694C5.67408 5.4311 5.6337 5.59713 5.7117 5.72166L5.72318 5.7405C5.78754 5.84233 5.91898 5.87499 6.02044 5.81411L6.82227 5.34035L7.92681 4.68836L9.01335 4.04637L10.0999 3.40378L10.3541 3.25379L10.6241 3.0944L11.277 2.70863L11.3555 2.70752L12.0597 3.09884C12.1088 3.12596 12.1693 3.12539 12.2173 3.09716L12.3843 2.99866C12.4099 2.98316 12.4252 2.95604 12.4246 2.92615C12.4246 2.89626 12.4083 2.86971 12.3826 2.85532L11.6245 2.43412L11.667 2.40923L12.4715 2.85532C12.5206 2.88355 12.5806 2.88242 12.6292 2.85364L12.7961 2.75514C12.8217 2.73964 12.8364 2.71195 12.8364 2.68317C12.8364 2.65329 12.8201 2.62561 12.7944 2.61178L12.0368 2.1906L12.0788 2.16568L12.8823 2.61288Z" fill="#F4A72A"/>
<path d="M10.36 17.5566L9.856 16.6163H9.85547L10.36 17.5566Z" fill="white"/>
<path d="M12.5142 20.9815H9.2109L8.25471 15.8874C8.34907 15.8802 8.44288 15.8736 8.53779 15.8736H13.1867C13.2827 15.8736 13.3765 15.8802 13.4698 15.8874L12.5142 20.9815ZM8.29561 15.4269C5.99489 15.4269 4.12891 17.3197 4.12891 19.6553V21.707H17.5967V19.6553C17.5967 17.3197 15.7307 15.4269 13.4283 15.4269H8.29561Z" fill="white"/>
<path d="M9.82422 20.9814H11.8964L11.3831 17.5566H11.3646L11.8691 16.6163H9.85258L10.3566 17.5566H10.338L9.82422 20.9814Z" fill="#F4A72A"/>
</svg>
