<svg width="27" height="33" viewBox="0 0 27 33" fill="none" xmlns="http://www.w3.org/2000/svg">
<path d="M0.469656 8.56471C0.469656 4.10411 4.04592 0.475359 8.44201 0.475359C11.2615 0.475359 13.7381 1.9722 15.156 4.22118L15.5602 3.98125C14.0613 1.59279 11.4341 -0.000337601 8.44201 -0.000337601C3.78738 -0.000337601 0 3.8426 0 8.56471C0 13.2868 3.78738 17.1298 8.44201 17.1298C8.89201 17.1298 9.33219 17.0833 9.76337 17.0144C10.3459 20.1376 13.0451 22.502 16.2925 22.502C19.9661 22.502 22.9435 19.4809 22.9435 15.7542C22.9435 12.2217 20.2664 9.32684 16.8603 9.03461C16.8685 8.87771 16.8832 8.72328 16.8832 8.56471C16.8832 7.15007 16.5379 5.81764 15.9357 4.64126L15.5308 4.88034C16.0912 5.98699 16.4144 7.23807 16.4144 8.56471C16.4144 8.71581 16.3988 8.86193 16.3906 9.01053C16.3579 9.01053 16.326 9.00555 16.2925 9.00555C16.1763 9.00555 16.0634 9.01717 15.9488 9.02298C15.9578 8.87105 15.9726 8.71996 15.9726 8.56471C15.9726 7.3186 15.6723 6.14555 15.1495 5.10532L13.5197 6.0692C13.8813 6.82467 14.0899 7.66811 14.0899 8.56471C14.0899 8.85611 14.0613 9.13923 14.0204 9.41817C11.9668 10.1778 10.3893 11.9312 9.8501 14.1087C9.4001 14.2258 8.92883 14.2955 8.44201 14.2955C5.32229 14.2955 2.79328 11.7294 2.79328 8.56471C2.79328 5.40003 5.32229 2.83475 8.44201 2.83475C10.4097 2.83475 12.1394 3.85592 13.1515 5.40505L14.7764 4.4445C13.437 2.32834 11.1036 0.923653 8.44201 0.923653C4.28401 0.923653 0.911466 4.34486 0.911466 8.56471C0.911466 12.7846 4.28401 16.2058 8.44201 16.2058C8.85765 16.2058 9.26266 16.1634 9.6603 16.097C9.66766 16.2473 9.67502 16.3976 9.69302 16.5445C9.28393 16.6109 8.86829 16.6541 8.44201 16.6541C4.04592 16.6541 0.469656 13.0253 0.469656 8.56471Z" fill="#515151"/>
<path d="M8.4421 6.65578C9.01973 6.65578 9.53028 6.92476 9.87555 7.34068L11.5193 6.36939C10.8377 5.3881 9.71437 4.74468 8.4421 4.74468C6.36228 4.74468 4.67603 6.45487 4.67603 8.56521C4.67603 10.6756 6.36228 12.3857 8.4421 12.3857C10.5219 12.3857 12.2066 10.6756 12.2066 8.56521C12.2066 8.01978 12.0928 7.50257 11.8899 7.03269L10.2331 8.01067C10.2871 8.1875 10.3231 8.37095 10.3231 8.56521C10.3231 9.62038 9.48201 10.4755 8.4421 10.4755C7.40219 10.4755 6.55864 9.62038 6.55864 8.56521C6.55864 7.51004 7.40219 6.65578 8.4421 6.65578Z" fill="#F4A72A"/>
<path d="M19.3232 3.91981C19.3976 3.96049 19.4884 3.95966 19.5612 3.91483L19.8116 3.76788C19.8492 3.74547 19.8713 3.70398 19.8713 3.65998C19.8705 3.61515 19.8476 3.57446 19.8083 3.55288L18.6719 2.92193L18.8011 2.84389L18.8576 2.76837L18.8445 2.67453L18.6874 2.4089C18.6523 2.35161 18.5778 2.33169 18.5205 2.36572L18.3863 2.44542L18.3798 1.14286C18.379 1.09886 18.3561 1.05901 18.3176 1.03742H18.1973L17.9486 1.18437C17.8733 1.22837 17.8275 1.30973 17.8275 1.3969L17.8357 2.77085L17.7703 2.81069L17.7621 1.50813C17.7621 1.46413 17.7391 1.4226 17.7015 1.40185L17.5796 1.4027L17.33 1.54879C17.2556 1.59362 17.2098 1.67418 17.2098 1.76218L17.2188 3.13531L17.1517 3.17516L17.1443 1.87175C17.1443 1.82858 17.1206 1.78789 17.083 1.76631L16.9627 1.76716L16.7131 1.91325C16.6387 1.95809 16.5929 2.03947 16.5937 2.12664L16.5994 3.29717C16.5994 3.34034 16.579 3.38021 16.5413 3.40346L15.5603 3.98208L15.1562 4.22201L14.7765 4.44533L13.1516 5.40588L11.5193 6.36972L9.8756 7.34102L8.69906 8.0359C8.51088 8.14714 8.45031 8.39619 8.56731 8.58298L8.58453 8.61123C8.68107 8.76399 8.87823 8.81297 9.03041 8.72165L10.2332 8.01101L11.89 7.03302L13.5198 6.07004L15.1496 5.10616L15.5309 4.88118L15.9359 4.6421L16.9152 4.06344L17.0331 4.06177L18.0893 4.64874C18.163 4.68942 18.2538 4.68857 18.3258 4.64623L18.5761 4.49847C18.6146 4.47523 18.6375 4.43454 18.6367 4.38971C18.6367 4.34488 18.6122 4.30505 18.5737 4.28347L17.4364 3.65167L17.5002 3.61433L18.7071 4.28347C18.7807 4.32581 18.8707 4.32412 18.9435 4.28095L19.1939 4.1332C19.2323 4.10995 19.2544 4.06842 19.2544 4.02525C19.2544 3.98042 19.2299 3.93891 19.1914 3.91815L18.055 3.28639L18.118 3.24902L19.3232 3.91981Z" fill="#F4A72A"/>
<path d="M15.5373 26.334L14.7813 24.9235H14.7805L15.5373 26.334Z" fill="#515151"/>
<path d="M18.7708 31.4712H13.8159L12.3816 23.8301C12.5231 23.8194 12.6638 23.8094 12.8062 23.8094H19.7796C19.9236 23.8094 20.0643 23.8194 20.2042 23.8301L18.7708 31.4712ZM12.4429 23.1394C8.99184 23.1394 6.19287 25.9786 6.19287 29.482V32.5596H26.3946V29.482C26.3946 25.9786 23.5956 23.1394 20.142 23.1394H12.4429Z" fill="#515151"/>
<path d="M14.7388 31.4717H17.8471L17.0771 26.3344H17.0493L17.8062 24.924H14.7813L15.5373 26.3344H15.5095L14.7388 31.4717Z" fill="#F4A72A"/>
</svg>
