<svg width="18" height="18" viewBox="0 0 18 18" fill="none" xmlns="http://www.w3.org/2000/svg">
<g clip-path="url(#clip0_1880_123221)">
<path d="M8.25 12.375V5.625C8.25 5.51562 8.21484 5.42578 8.14453 5.35547C8.07422 5.28516 7.98438 5.25 7.875 5.25H4.875C4.76562 5.25 4.67578 5.28516 4.60547 5.35547C4.53516 5.42578 4.5 5.51562 4.5 5.625V12.375C4.5 12.4844 4.53516 12.5742 4.60547 12.6445C4.67578 12.7148 4.76562 12.75 4.875 12.75H7.875C7.98438 12.75 8.07422 12.7148 8.14453 12.6445C8.21484 12.5742 8.25 12.4844 8.25 12.375ZM13.5 12.375V5.625C13.5 5.51562 13.4648 5.42578 13.3945 5.35547C13.3242 5.28516 13.2344 5.25 13.125 5.25H10.125C10.0156 5.25 9.92578 5.28516 9.85547 5.35547C9.78516 5.42578 9.75 5.51562 9.75 5.625V12.375C9.75 12.4844 9.78516 12.5742 9.85547 12.6445C9.92578 12.7148 10.0156 12.75 10.125 12.75H13.125C13.2344 12.75 13.3242 12.7148 13.3945 12.6445C13.4648 12.5742 13.5 12.4844 13.5 12.375ZM18 9C18 10.6328 17.5977 12.1387 16.793 13.5176C15.9883 14.8965 14.8965 15.9883 13.5176 16.793C12.1387 17.5977 10.6328 18 9 18C7.36719 18 5.86133 17.5977 4.48242 16.793C3.10352 15.9883 2.01172 14.8965 1.20703 13.5176C0.402344 12.1387 0 10.6328 0 9C0 7.36719 0.402344 5.86133 1.20703 4.48242C2.01172 3.10352 3.10352 2.01172 4.48242 1.20703C5.86133 0.402344 7.36719 0 9 0C10.6328 0 12.1387 0.402344 13.5176 1.20703C14.8965 2.01172 15.9883 3.10352 16.793 4.48242C17.5977 5.86133 18 7.36719 18 9Z" fill="#515151"/>
</g>
<defs>
<clipPath id="clip0_1880_123221">
<rect width="18" height="18" fill="white"/>
</clipPath>
</defs>
</svg>
