<svg width="28" height="22" viewBox="0 0 28 22" fill="none" xmlns="http://www.w3.org/2000/svg">
<path d="M5.96698 0.0583363C5.1347 0.177385 4.4447 0.779133 4.18755 1.61361C4.09441 1.91165 4.07812 2.11751 4.07812 3.01194V4.06302L13.7313 4.07376L23.379 4.08988L23.7458 4.26322C24.4138 4.57739 24.9067 5.21165 25.049 5.95394C25.0818 6.13803 25.1038 8.1596 25.1038 11.5195V16.7979H25.3667C26.4564 16.7979 27.3707 16.2561 27.8033 15.3509L27.9784 14.9824L27.9947 8.61487C28.0056 4.01947 27.9947 2.15512 27.951 1.92212C27.7704 0.97934 26.9381 0.214996 25.925 0.058054C25.4816 -0.0120735 6.45412 -0.0120754 5.96698 0.0583363Z" fill="white"/>
<path d="M3.03886 5.25516C1.68086 5.43387 0.624286 6.29577 0.153143 7.61238L0 8.04616V13.5736V19.101L0.126 19.5074C0.492857 20.6617 1.36886 21.5072 2.57914 21.8702C2.88571 21.9624 3.41143 21.9732 11.6354 21.9893C17.8063 22 20.5057 21.9893 20.8343 21.946C22.0226 21.7888 23.008 21.1059 23.5171 20.0763C23.9223 19.269 23.9003 19.6049 23.9003 13.6004C23.9003 8.3114 23.9003 8.19744 23.7854 7.80184C23.3966 6.40379 22.2689 5.43359 20.8286 5.25487C20.3031 5.19012 3.53171 5.19012 3.03886 5.25516ZM21.4366 6.59382C22.0443 6.88649 22.4989 7.43932 22.674 8.09479C22.718 8.26276 22.7506 8.65837 22.7506 9.11364V9.86158H11.9311H1.11143L1.13343 9.05963C1.15543 8.42564 1.18257 8.19801 1.27571 7.9486C1.51114 7.30924 2.05886 6.76716 2.72686 6.52341L3.06629 6.3987L12.0734 6.40945L21.0806 6.42019L21.4366 6.59382ZM22.7506 15.7413C22.7506 17.7301 22.7286 18.8411 22.6903 19.0309C22.5534 19.6866 22.0223 20.3478 21.398 20.6348L21.0803 20.7813L12.1226 20.7974C3.51514 20.8081 3.14829 20.8028 2.83629 20.7106C1.982 20.4451 1.336 19.7353 1.18257 18.8898C1.14429 18.6839 1.12229 17.5132 1.12229 15.6492V12.7337H11.9363H22.7503V15.7413H22.7506Z" fill="white"/>
<path d="M15.9981 13.9258C14.7826 14.137 13.9009 15.3456 14.0926 16.5324C14.2569 17.5402 15.0455 18.3207 16.0638 18.4833C16.7372 18.5862 17.5204 18.3314 18.0129 17.8436L18.2646 17.5999L18.0346 17.3558C17.7061 16.9981 17.5801 16.6893 17.5801 16.2015C17.5746 15.8656 17.6021 15.7409 17.7224 15.4971C17.8044 15.3345 17.9578 15.1179 18.0618 15.015C18.2424 14.8417 18.2478 14.8253 18.1658 14.7006C18.0398 14.5165 17.5252 14.1641 17.1966 14.0394C16.8521 13.915 16.3484 13.8661 15.9981 13.9258Z" fill="white"/>
<path d="M19.9131 14.5654C19.5517 14.6954 19.2671 14.9177 19.0425 15.2483C18.8071 15.5896 18.7359 15.8769 18.7634 16.3375C18.8071 16.9661 19.1522 17.4811 19.7271 17.7573C19.9899 17.8874 20.1048 17.9092 20.4771 17.9092C21.0519 17.9038 21.3914 17.7627 21.7585 17.3617C22.3828 16.6842 22.3828 15.7196 21.7585 15.0424C21.2928 14.5328 20.5482 14.3434 19.9131 14.5654Z" fill="white"/>
<path d="M3.47656 16.2018V16.7979H7.85685H12.2371V16.2018V15.6057H7.85713H3.47656V16.2018Z" fill="white"/>
</svg>
