<svg width="23" height="18" viewBox="0 0 23 18" fill="none" xmlns="http://www.w3.org/2000/svg">
<path d="M4.90264 0.0423145C4.21897 0.139718 3.65219 0.632057 3.44096 1.31481C3.36445 1.55866 3.35107 1.7271 3.35107 2.4589V3.31887L11.2804 3.32766L19.2053 3.34085L19.5067 3.48267C20.0554 3.73972 20.4603 4.25867 20.5771 4.86599C20.6041 5.01661 20.6222 6.67062 20.6222 9.41967V13.7383H20.8381C21.7332 13.7383 22.4843 13.295 22.8396 12.5544L22.9835 12.2529L22.9968 7.04311C23.0057 3.28324 22.9968 1.75787 22.9609 1.56723C22.8126 0.795862 22.1289 0.17049 21.2967 0.0420837C20.9325 -0.0152941 5.30279 -0.015295 4.90264 0.0423145Z" fill="#515151"/>
<path d="M2.4962 4.2955C1.3807 4.44172 0.512806 5.14691 0.125796 6.22414L0 6.57905V11.1015V15.6239L0.1035 15.9564C0.404847 16.9008 1.12442 17.5926 2.11858 17.8897C2.37041 17.9651 2.80224 17.9739 9.55767 17.9871C14.6266 17.9959 16.844 17.9871 17.1139 17.9517C18.09 17.823 18.8994 17.2643 19.3176 16.4219C19.6504 15.7614 19.6324 16.0362 19.6324 11.1235C19.6324 6.79607 19.6324 6.70283 19.538 6.37915C19.2186 5.23529 18.2923 4.44149 17.1092 4.29527C16.6776 4.24229 2.90105 4.24229 2.4962 4.2955ZM17.6086 5.39077C18.1078 5.63023 18.4812 6.08254 18.6251 6.61884C18.6612 6.75627 18.688 7.07995 18.688 7.45244V8.06439H9.80058H0.912959L0.931031 7.40825C0.949102 6.88954 0.971398 6.70329 1.04791 6.49923C1.2413 5.97612 1.6912 5.53259 2.23992 5.33316L2.51873 5.23113L9.91746 5.23992L17.3162 5.24871L17.6086 5.39077ZM18.688 12.8751C18.688 14.5023 18.6699 15.4113 18.6384 15.5666C18.526 16.1031 18.0897 16.644 17.5769 16.8788L17.3159 16.9987L9.95782 17.0119C2.88744 17.0207 2.58609 17.0163 2.32981 16.9408C1.62807 16.7236 1.09743 16.1429 0.971398 15.4511C0.939949 15.2827 0.921877 14.3248 0.921877 12.7997V10.4143H9.80481H18.6877V12.8751H18.688Z" fill="#515151"/>
<path d="M13.1424 11.3894C12.144 11.5622 11.4197 12.551 11.5772 13.5221C11.7122 14.3466 12.3599 14.9852 13.1964 15.1182C13.7495 15.2024 14.3928 14.994 14.7974 14.5949L15.0042 14.3955L14.8153 14.1958C14.5454 13.9031 14.4419 13.6505 14.4419 13.2514C14.4374 12.9765 14.46 12.8745 14.5588 12.675C14.6261 12.542 14.7522 12.3648 14.8376 12.2806C14.9859 12.1387 14.9904 12.1253 14.923 12.0233C14.8195 11.8727 14.3968 11.5844 14.1269 11.4824C13.8439 11.3806 13.4301 11.3405 13.1424 11.3894Z" fill="#F4A72A"/>
<path d="M16.3582 11.9126C16.0613 12.019 15.8275 12.2009 15.643 12.4713C15.4497 12.7506 15.3912 12.9856 15.4137 13.3625C15.4497 13.8768 15.7332 14.2982 16.2054 14.5242C16.4213 14.6306 16.5156 14.6484 16.8214 14.6484C17.2936 14.644 17.5725 14.5286 17.874 14.2005C18.3868 13.6462 18.3868 12.857 17.874 12.3029C17.4915 11.886 16.8799 11.731 16.3582 11.9126Z" fill="#515151"/>
<path d="M2.85596 13.2506V13.7383H6.45405H10.0521V13.2506V12.7629H6.45428H2.85596V13.2506Z" fill="#515151"/>
</svg>
