<svg width="64" height="25" viewBox="0 0 64 25" fill="none" xmlns="http://www.w3.org/2000/svg">
<path d="M16.9591 2.77739C17.0401 4.63272 18.6487 11.715 18.6487 11.715C19.2409 13.1495 19.7444 11.715 19.7444 11.715C21.6917 5.89687 17.7151 2.52609 17.7151 2.52609C16.7082 1.9349 16.9599 2.77739 16.9599 2.77739M40.0213 1.76453C40.0213 1.76453 41.9686 3.11727 40.0213 3.36857C40.0213 3.36857 32.756 4.2119 27.3493 9.26764C27.3493 9.26764 19.2477 16.3499 16.2047 24.1052C16.2047 24.1052 15.1893 24.1052 15.5221 22.5889C15.8549 21.0726 17.8841 14.4128 26.9192 6.2359C26.9192 6.2359 35.6206 -1.68887 40.0127 1.76368" fill="#FF4800"/>
<path d="M3.05835 12.9874C3.39913 13.0595 3.74681 13.094 4.09515 13.0904C5.74635 13.0904 6.86507 12.0256 6.86507 10.6729C6.86507 9.46069 6.00576 9.02454 4.88789 9.02454C4.39893 9.02454 4.02859 9.05436 3.79221 9.1208L3.05835 12.9874ZM2.13333 7.72376C2.82197 7.55339 3.85877 7.45117 4.864 7.45117C5.93067 7.45117 7.04 7.67265 7.78923 8.26469C8.448 8.7758 8.83371 9.51436 8.83371 10.5272C8.83371 11.8731 8.19712 12.9746 7.38304 13.6177C6.47253 14.3418 5.16864 14.697 3.81355 14.697C3.40651 14.697 3.05067 14.6459 2.74688 14.6161L1.91744 18.918H0L2.13333 7.72376ZM14.08 12.1082C13.8803 12.0571 13.6209 12.0273 13.2727 12.0273C11.4586 12.0273 10.0361 14.0675 10.0361 15.9458C10.0361 16.8037 10.362 17.5132 11.2307 17.5132C12.1634 17.5132 13.2821 16.3675 13.667 14.2762L14.08 12.1082ZM13.2864 18.9171C13.2864 18.429 13.353 17.7714 13.4195 17.0771H13.3897C12.5747 18.5781 11.4714 19.1028 10.4286 19.1028C8.95488 19.1028 7.99232 17.9571 7.99232 16.2917C7.99232 13.4806 9.95499 10.4957 13.7907 10.4957C14.6388 10.5006 15.4818 10.6277 16.2935 10.8731L15.4342 15.1613C15.197 16.3735 15.0639 17.9332 15.0929 18.9094L13.2864 18.9171ZM27.4825 15.6562C27.4825 16.7875 28.0747 17.5857 29.0893 17.5857C30.563 17.5857 31.5409 15.5523 31.5409 13.9184C31.5409 13.0666 31.1569 12.0256 29.9708 12.0256C28.3921 12.0256 27.4825 14.1178 27.4825 15.6545M33.5701 13.9022C33.5701 16.7134 31.6228 19.0985 28.8154 19.0985C26.7332 19.0985 25.4532 17.664 25.4532 15.7056C25.4532 12.9184 27.4005 10.5093 30.208 10.5093C32.4224 10.5093 33.5701 12.0989 33.5701 13.9099M33.9405 18.9162L35.0071 13.2463L35.4296 10.6959H37.1917L37.0065 12.1594H37.0364C37.7993 11.0656 38.8506 10.5034 39.9974 10.5034C41.1921 10.5034 42.0932 11.2129 42.0932 12.7659C42.0825 13.2202 42.0328 13.6728 41.9447 14.1186L41.0402 18.9162H39.0656L39.9471 14.2737C39.9983 13.9704 40.0495 13.616 40.0495 13.2906C40.0495 12.6032 39.7901 12.098 39.0127 12.098C38.1167 12.098 36.969 13.185 36.6131 15.1068L35.9023 18.906L33.9405 18.9162ZM47.3378 11.9737C46.1005 11.9737 45.2941 13.0751 45.0569 14.0658C47.0861 14.0879 48.3891 13.8145 48.3891 12.8238C48.3891 12.2991 47.9667 11.9737 47.3378 11.9737ZM49.2186 18.4426C48.4036 18.8643 47.3003 19.1002 46.3172 19.1002C44.0286 19.1002 42.9329 17.7032 42.9329 15.6928C42.9329 13.2088 44.7548 10.5034 47.5981 10.5034C49.2194 10.5034 50.2571 11.4344 50.2571 12.8247C50.2571 14.9313 48.0427 15.6042 44.858 15.5378C44.8282 15.8257 44.8947 16.3897 45.0799 16.7048C45.3982 17.2585 45.9904 17.5567 46.7695 17.5567C47.5598 17.5624 48.3398 17.3771 49.0428 17.0166L49.2186 18.4426ZM54.9956 11.9737C53.7668 11.9737 52.9519 13.0751 52.7147 14.0658C54.7439 14.0879 56.0469 13.8145 56.0469 12.8238C56.0469 12.2991 55.6245 11.9737 54.9956 11.9737ZM56.8764 18.4426C56.0614 18.8643 54.9649 19.1002 53.975 19.1002C51.6941 19.1002 50.5907 17.7032 50.5907 15.6928C50.5907 13.2088 52.4203 10.5034 55.2636 10.5034C56.8849 10.5034 57.9226 11.4344 57.9226 12.8247C57.9226 14.9313 55.7005 15.6042 52.5235 15.5378C52.4868 15.8257 52.5534 16.3897 52.7386 16.7048C53.0645 17.2585 53.6567 17.5567 54.4341 17.5567C55.3668 17.5567 56.1067 17.3199 56.7006 17.0166L56.8764 18.4426ZM58.0241 18.9154L58.9944 13.8511C59.2094 12.6841 59.3357 11.4191 59.4091 10.6942H61.12L60.9348 12.4166H60.986C61.5492 11.3152 62.4367 10.5017 63.546 10.5017C63.7013 10.5017 63.8498 10.5238 63.9898 10.5238L63.5972 12.4456C63.4948 12.4311 63.36 12.4311 63.2269 12.4311C61.8189 12.4311 60.9229 13.8503 60.6054 15.6025L59.9757 18.9145L58.0241 18.9154Z" fill="#333333"/>
</svg>
