<svg width="94" height="23" viewBox="0 0 94 23" fill="none" xmlns="http://www.w3.org/2000/svg">
<path fill-rule="evenodd" clip-rule="evenodd" d="M8.20151 5.41406H14.6248C18.0736 5.41406 19.3718 7.17737 19.1712 9.7679C18.8396 14.0447 16.2795 16.4109 12.8839 16.4109H11.1694C10.7035 16.4109 10.3901 16.7223 10.2641 17.5663L9.53625 22.4727C9.48816 22.7909 9.32236 22.9751 9.07365 23.0002H5.03795C4.65826 23.0002 4.52395 22.7072 4.62344 22.0725L7.08399 6.34344C7.18016 5.71381 7.52171 5.41406 8.20151 5.41406Z" fill="#009EE3"/>
<path fill-rule="evenodd" clip-rule="evenodd" d="M36.0884 5.12109C38.2555 5.12109 40.2551 6.30835 39.9815 9.26729C39.6499 12.7839 37.7846 14.7297 34.8416 14.7381H32.2699C31.9002 14.7381 31.7211 15.0428 31.625 15.6674L31.1275 18.8608C31.0529 19.3431 30.8075 19.5809 30.4461 19.5809H28.0535C27.6722 19.5809 27.5395 19.3347 27.6241 18.7838L29.5988 5.98516C29.6966 5.35553 29.9304 5.12109 30.3565 5.12109H36.0835H36.0884ZM32.192 11.9734H34.1402C35.3589 11.9265 36.168 11.0741 36.2493 9.53689C36.299 8.58742 35.664 7.90755 34.6542 7.91257L32.8204 7.92095L32.192 11.9734ZM46.4861 18.6013C46.705 18.4003 46.9271 18.2965 46.8956 18.5443L46.8177 19.1371C46.7779 19.4469 46.8989 19.611 47.1841 19.611H49.3098C49.6679 19.611 49.842 19.4653 49.9299 18.906L51.2397 10.6036C51.306 10.1866 51.2049 9.98232 50.8915 9.98232H48.5537C48.3431 9.98232 48.2403 10.1012 48.1856 10.4261L48.0994 10.9368C48.0546 11.2031 47.9336 11.25 47.8208 10.982C47.4245 10.0342 46.4131 9.6089 45.0021 9.64239C41.7242 9.71105 39.514 12.2246 39.2769 15.4464C39.0945 17.9381 40.862 19.8957 43.1932 19.8957C44.8844 19.8957 45.6405 19.3933 46.4927 18.6063L46.4861 18.6013ZM44.7053 17.3236C43.2943 17.3236 42.3111 16.1865 42.515 14.7933C42.719 13.4001 44.0388 12.2631 45.4498 12.2631C46.8608 12.2631 47.844 13.4001 47.6401 14.7933C47.4361 16.1865 46.118 17.3236 44.7053 17.3236ZM55.3998 9.95553H53.2443C52.7999 9.95553 52.6192 10.2904 52.7602 10.7024L55.4363 18.6163L52.8116 22.3824C52.591 22.6972 52.7618 22.9836 53.0719 22.9836H55.4943C55.6355 23 55.7784 22.9752 55.906 22.9119C56.0335 22.8487 56.1404 22.7498 56.2139 22.6269L64.4445 10.7041C64.6981 10.3373 64.5788 9.95218 64.1626 9.95218H61.8695C61.4765 9.95218 61.319 10.1096 61.0935 10.4395L57.6614 15.4631L56.1277 10.4278C56.0381 10.123 55.8143 9.95553 55.4014 9.95553H55.3998Z" fill="#113984"/>
<path fill-rule="evenodd" clip-rule="evenodd" d="M73.0067 5.12249C75.1738 5.12249 77.1734 6.30975 76.8998 9.26869C76.5682 12.7853 74.7029 14.7311 71.7598 14.7395H69.1899C68.8201 14.7395 68.641 15.0442 68.5449 15.6688L68.0475 18.8622C67.9729 19.3445 67.7275 19.5823 67.366 19.5823H64.9734C64.5921 19.5823 64.4594 19.3361 64.544 18.7852L66.5221 5.98321C66.6199 5.35358 66.8537 5.11914 67.2798 5.11914H73.0067V5.12249ZM69.1103 11.9748H71.0585C72.2772 11.9279 73.0863 11.0755 73.1675 9.53829C73.2173 8.58882 72.5822 7.90895 71.5725 7.91397L69.7387 7.92235L69.1103 11.9748ZM83.4044 18.6027C83.6232 18.4017 83.8454 18.2979 83.8139 18.5457L83.736 19.1385C83.6962 19.4483 83.8172 19.6124 84.1024 19.6124H86.228C86.5862 19.6124 86.7603 19.4667 86.8481 18.9074L88.158 10.605C88.2243 10.188 88.1232 9.98372 87.8098 9.98372H85.4753C85.2647 9.98372 85.1619 10.1026 85.1072 10.4275L85.021 10.9382C84.9762 11.2045 84.8552 11.2514 84.7424 10.9834C84.3461 10.0356 83.3347 9.6103 81.9237 9.64379C78.6457 9.71245 76.4356 12.226 76.1985 15.4478C76.0161 17.9395 77.7836 19.8971 80.1148 19.8971C81.806 19.8971 82.5621 19.3947 83.4143 18.6077L83.4044 18.6027ZM81.6253 17.325C80.2143 17.325 79.231 16.1879 79.435 14.7947C79.6389 13.4015 80.9587 12.2645 82.3697 12.2645C83.7807 12.2645 84.764 13.4015 84.56 14.7947C84.3561 16.1879 83.0363 17.325 81.6253 17.325ZM91.4293 19.6258H88.9754C88.9327 19.6277 88.8902 19.6201 88.8507 19.6035C88.8113 19.5869 88.776 19.5617 88.7473 19.5297C88.7186 19.4977 88.6973 19.4597 88.6849 19.4184C88.6724 19.3771 88.6692 19.3336 88.6753 19.2909L90.8308 5.49927C90.8514 5.40514 90.9029 5.32082 90.9769 5.26001C91.051 5.1992 91.1432 5.16549 91.2387 5.16436H93.6926C93.7353 5.16243 93.7778 5.17004 93.8173 5.18666C93.8567 5.20327 93.892 5.22848 93.9207 5.26047C93.9494 5.29247 93.9707 5.33046 93.9831 5.37174C93.9956 5.41302 93.9988 5.45657 93.9927 5.49927L91.8372 19.2909C91.8173 19.3856 91.7661 19.4707 91.692 19.5322C91.6178 19.5937 91.5252 19.6279 91.4293 19.6292V19.6258Z" fill="#009EE3"/>
<path fill-rule="evenodd" clip-rule="evenodd" d="M4.18465 0H10.6146C12.4252 0 14.574 0.0586094 16.0099 1.33964C16.9699 2.19534 17.4739 3.55675 17.3579 5.02366C16.9633 9.98202 14.0268 12.7601 10.0873 12.7601H6.91712C6.37659 12.7601 6.02011 13.1218 5.86757 14.0997L4.98217 19.7932C4.92414 20.1616 4.76662 20.3793 4.48475 20.4061H0.517034C0.0776499 20.4061 -0.0782086 20.0712 0.0361971 19.3311L2.88805 1.08176C3.00245 0.348306 3.40205 0 4.18465 0Z" fill="#113984"/>
<path fill-rule="evenodd" clip-rule="evenodd" d="M5.96094 13.522L7.08344 6.34317C7.18127 5.71353 7.52282 5.41211 8.20263 5.41211H14.6259C15.6887 5.41211 16.5493 5.57957 17.2224 5.88936C16.5775 10.3035 13.7505 12.755 10.0497 12.755H6.88447C6.46001 12.7567 6.1483 12.971 5.96094 13.522Z" fill="#172C70"/>
</svg>
