<svg width="24" height="38" viewBox="0 0 24 38" fill="none" xmlns="http://www.w3.org/2000/svg">
<path d="M19.2 2.375C19.8365 2.375 20.447 2.62522 20.8971 3.07062C21.3471 3.51602 21.6 4.12011 21.6 4.75V33.25C21.6 33.8799 21.3471 34.484 20.8971 34.9294C20.447 35.3748 19.8365 35.625 19.2 35.625H4.8C4.16348 35.625 3.55303 35.3748 3.10294 34.9294C2.65286 34.484 2.4 33.8799 2.4 33.25V4.75C2.4 4.12011 2.65286 3.51602 3.10294 3.07062C3.55303 2.62522 4.16348 2.375 4.8 2.375H19.2ZM4.8 0C3.52696 0 2.30606 0.500445 1.40589 1.39124C0.505713 2.28204 0 3.49022 0 4.75V33.25C0 34.5098 0.505713 35.718 1.40589 36.6088C2.30606 37.4996 3.52696 38 4.8 38H19.2C20.473 38 21.6939 37.4996 22.5941 36.6088C23.4943 35.718 24 34.5098 24 33.25V4.75C24 3.49022 23.4943 2.28204 22.5941 1.39124C21.6939 0.500445 20.473 0 19.2 0L4.8 0Z" fill="#515151"/>
<path d="M11.9996 33.25C12.6361 33.25 13.2466 32.9998 13.6967 32.5544C14.1468 32.109 14.3996 31.5049 14.3996 30.875C14.3996 30.2451 14.1468 29.641 13.6967 29.1956C13.2466 28.7502 12.6361 28.5 11.9996 28.5C11.3631 28.5 10.7526 28.7502 10.3026 29.1956C9.85247 29.641 9.59961 30.2451 9.59961 30.875C9.59961 31.5049 9.85247 32.109 10.3026 32.5544C10.7526 32.9998 11.3631 33.25 11.9996 33.25Z" fill="#F4A72A"/>
</svg>
