<svg width="95" height="95" viewBox="0 0 95 95" fill="none" xmlns="http://www.w3.org/2000/svg">
<mask id="path-1-inside-1_1879_115073" fill="white">
<path d="M67.7153 40.1731L65.7681 44.3828C65.6897 44.537 65.5601 44.6533 65.393 44.7194C65.2225 44.7792 65.0384 44.776 64.8713 44.7131L62.5967 43.8133H62.5932L62.5558 43.8008V43.7975L62.4023 43.741C62.259 43.6875 62.0341 43.6089 61.7305 43.5113C61.127 43.3131 60.2369 43.0425 59.1355 42.772C56.9359 42.2308 53.8905 41.696 50.6509 41.696C47.5067 41.696 44.3012 42.2025 41.8698 42.7374C39.4349 43.2691 37.7606 43.8228 37.6549 43.8605L37.6412 43.8668L35.3189 44.6596C34.9642 44.7792 34.5754 44.6125 34.4459 44.2916L32.7238 39.9971C32.5942 39.673 32.7681 39.3112 33.1227 39.1917L35.4519 38.3956L35.4451 38.3988C35.5406 38.3642 37.3615 37.7475 40.1442 37.1245C42.9303 36.4985 46.6747 35.8662 50.6544 35.863C54.5658 35.8693 58.0715 36.4796 60.6427 37.1089C63.2106 37.7287 64.8781 38.3767 65.0486 38.4428L65.0759 38.4491L67.3538 39.352C67.5243 39.415 67.6539 39.5377 67.7221 39.6919C67.7869 39.8492 67.7835 40.019 67.7153 40.1731ZM7.7819 63.6593C7.43066 63.9487 6.93623 64.1343 6.38038 64.1343C5.82452 64.1343 5.3301 63.9487 4.97885 63.6593C4.63102 63.3699 4.4297 62.9955 4.4297 62.5833C4.4297 62.1712 4.63102 61.7968 4.97885 61.5105C5.3301 61.2242 5.82452 61.0353 6.38038 61.0353C6.93623 61.0353 7.43066 61.2242 7.7819 61.5105C8.12974 61.7968 8.32756 62.1712 8.32756 62.5833C8.32756 62.9955 8.12974 63.3699 7.7819 63.6593ZM85.6254 71.3453H93.5199C93.9189 71.3453 94.2872 71.2037 94.5634 70.9457C94.843 70.6909 95 70.3448 95 69.9829V51.3704C95 51.0086 94.843 50.6625 94.5634 50.4077C94.2872 50.1497 93.9189 50.0081 93.5199 50.0081H86.4063C85.4651 48.1896 84.2681 46.4624 82.8563 44.8484C83.1223 44.2696 86.4097 37.1623 88.8446 32.7325C89.8403 32.1914 77.881 26.5504 68.0598 34.957C62.7229 32.9308 56.6596 31.7761 50.2246 31.7761C28.8634 31.7761 11.5467 44.4049 11.5467 59.9815C11.5467 60.4062 11.5671 60.8246 11.591 61.2462C11.3898 61.9164 10.9091 62.5361 10.193 63.0394C9.88607 63.2502 9.52799 63.4296 9.14946 63.59C9.30633 63.2817 9.3949 62.942 9.3949 62.5833C9.3949 61.8692 9.03687 61.2242 8.49124 60.7743C7.9388 60.3244 7.1954 60.0538 6.38038 60.0538C5.56535 60.0538 4.81846 60.3244 4.26602 60.7743C3.72039 61.2242 3.36236 61.8692 3.36236 62.5833C3.36236 62.942 3.45443 63.2817 3.6113 63.59C3.23277 63.4296 2.87477 63.2502 2.57127 63.0394C1.61301 62.3662 1.06734 61.4883 1.06734 60.5445H0C0 61.8533 0.76725 63.0143 1.9267 63.8229C3.08956 64.6346 4.65825 65.1159 6.38038 65.119C8.1025 65.1159 9.6746 64.6346 10.8341 63.8229C11.1921 63.5744 11.4956 63.2849 11.765 62.9734C12.5937 68.7025 15.7754 73.9189 20.5939 78.1001L19.1105 91.9306C19.0355 92.6542 19.5231 93.3212 20.2767 93.5226L25.6034 94.9414C26.3468 95.1396 27.1413 94.8219 27.496 94.1864L32.5976 85.0814C37.8867 87.0603 43.8749 88.1835 50.2246 88.1835C56.1822 88.1835 61.8261 87.1987 66.8663 85.4432L71.7632 94.1864C72.1213 94.8219 72.9158 95.1396 73.6592 94.9414L78.9859 93.5226C79.7396 93.3212 80.2305 92.6542 80.1487 91.9306L78.7676 79.0094C81.5913 76.7599 83.9135 74.1736 85.6254 71.3453Z"/>
</mask>
<path d="M65.7681 44.3828L67.1295 45.0125L67.1178 45.038L67.105 45.063L65.7681 44.3828ZM65.393 44.7194L65.9445 46.1143L65.9171 46.1252L65.8892 46.1349L65.393 44.7194ZM64.8713 44.7131L64.3427 46.1169L64.3311 46.1125L64.3195 46.1079L64.8713 44.7131ZM62.5967 43.8133V42.3133H62.8826L63.1485 42.4185L62.5967 43.8133ZM62.5932 43.8133V45.3133H62.3478L62.1152 45.2351L62.5932 43.8133ZM62.5558 43.8008L62.0777 45.2225L61.0558 44.8789V43.8008H62.5558ZM62.5558 43.7975L63.0741 42.3899L64.0558 42.7514V43.7975H62.5558ZM62.4023 43.741L61.8839 45.1486L61.8775 45.1462L62.4023 43.741ZM61.7305 43.5113L61.2716 44.9394L61.2626 44.9365L61.7305 43.5113ZM59.1355 42.772L58.7776 44.2286L58.7771 44.2285L59.1355 42.772ZM41.8698 42.7374L42.192 44.2024L42.1898 44.2029L41.8698 42.7374ZM37.6549 43.8605L37.0265 42.4984L37.0873 42.4704L37.1504 42.4479L37.6549 43.8605ZM37.6412 43.8668L38.2695 45.2289L38.1992 45.2613L38.1258 45.2864L37.6412 43.8668ZM35.3189 44.6596L35.8035 46.0792L35.798 46.0811L35.3189 44.6596ZM34.4459 44.2916L33.055 44.8532L33.0536 44.8498L34.4459 44.2916ZM32.7238 39.9971L31.3316 40.5554L31.331 40.5541L32.7238 39.9971ZM33.1227 39.1917L33.6079 40.6111L33.6019 40.6131L33.1227 39.1917ZM35.4519 38.3956L34.9668 36.9762L36.0928 39.7518L35.4519 38.3956ZM35.4451 38.3988L35.9562 39.8091L34.8042 37.0426L35.4451 38.3988ZM40.1442 37.1245L40.4731 38.5881L40.4719 38.5883L40.1442 37.1245ZM50.6544 35.863L50.6532 34.363L50.6568 34.363L50.6544 35.863ZM60.6427 37.1089L60.2908 38.567L60.2862 38.5659L60.6427 37.1089ZM65.0486 38.4428L64.7115 39.9044L64.6068 39.8802L64.5067 39.8414L65.0486 38.4428ZM65.0759 38.4491L65.413 36.9874L65.5234 37.0129L65.6287 37.0546L65.0759 38.4491ZM67.3538 39.352L66.8345 40.7593L66.8177 40.7531L66.801 40.7465L67.3538 39.352ZM67.7221 39.6919L69.0939 39.085L69.1017 39.1027L69.1091 39.1206L67.7221 39.6919ZM7.7819 63.6593L8.74138 64.8123L8.73583 64.8169L7.7819 63.6593ZM4.97885 63.6593L4.02492 64.8169L4.01939 64.8123L4.97885 63.6593ZM4.97885 61.5105L4.02558 60.3523L4.03114 60.3478L4.97885 61.5105ZM7.7819 61.5105L8.72962 60.3478L8.73516 60.3523L7.7819 61.5105ZM94.5634 70.9457L93.5396 69.8495L93.5463 69.8432L93.553 69.837L94.5634 70.9457ZM94.5634 50.4077L93.553 51.5163L93.5463 51.5102L93.5396 51.5039L94.5634 50.4077ZM86.4063 50.0081V51.5081H85.4937L85.0742 50.6976L86.4063 50.0081ZM82.8563 44.8484L81.7273 45.836L81.0877 45.1049L81.4933 44.2222L82.8563 44.8484ZM88.8446 32.7325L87.5301 32.01L87.7419 31.6246L88.1283 31.4146L88.8446 32.7325ZM68.0598 34.957L69.0352 36.0965L68.3593 36.6751L67.5274 36.3593L68.0598 34.957ZM11.591 61.2462L13.0886 61.1614L13.1035 61.4249L13.0277 61.6776L11.591 61.2462ZM10.193 63.0394L11.0556 64.2666L11.0489 64.2713L11.0422 64.2759L10.193 63.0394ZM9.14946 63.59L9.73487 64.9711L5.94691 66.5767L7.81254 62.9098L9.14946 63.59ZM8.49124 60.7743L9.43846 59.6112L9.44551 59.617L8.49124 60.7743ZM4.26602 60.7743L3.31173 59.617L3.31881 59.6112L4.26602 60.7743ZM3.6113 63.59L4.94821 62.9098L6.81385 66.5767L3.02588 64.9711L3.6113 63.59ZM2.57127 63.0394L1.71559 64.2715L1.70893 64.2668L2.57127 63.0394ZM1.06734 60.5445V59.0445H2.56734V60.5445H1.06734ZM0 60.5445H-1.5V59.0445H0V60.5445ZM1.9267 63.8229L2.78472 62.5925L2.78526 62.5929L1.9267 63.8229ZM6.38038 65.119L6.38312 66.619L6.37764 66.619L6.38038 65.119ZM10.8341 63.8229L9.97379 62.5941L9.97872 62.5907L10.8341 63.8229ZM11.765 62.9734L10.6305 61.9921L12.7794 59.5077L13.2496 62.7587L11.765 62.9734ZM20.5939 78.1001L21.577 76.9672L22.169 77.4808L22.0854 78.2601L20.5939 78.1001ZM19.1105 91.9306L17.6185 91.7759L17.6191 91.7706L19.1105 91.9306ZM20.2767 93.5226L19.8907 94.972L19.8896 94.9717L20.2767 93.5226ZM25.6034 94.9414L25.9895 93.4919L25.9899 93.492L25.6034 94.9414ZM27.496 94.1864L26.1862 93.4554L26.1874 93.4531L27.496 94.1864ZM32.5976 85.0814L31.289 84.3482L31.918 83.2256L33.1232 83.6765L32.5976 85.0814ZM66.8663 85.4432L66.3729 84.0267L67.5604 83.613L68.175 84.7102L66.8663 85.4432ZM71.7632 94.1864L70.4563 94.9227L70.4545 94.9193L71.7632 94.1864ZM73.6592 94.9414L73.2728 93.492L73.2732 93.4919L73.6592 94.9414ZM78.9859 93.5226L79.3731 94.9717L79.372 94.972L78.9859 93.5226ZM80.1487 91.9306L78.6582 92.0992L78.6572 92.09L80.1487 91.9306ZM78.7676 79.0094L77.2761 79.1688L77.1886 78.3496L77.833 77.8362L78.7676 79.0094ZM69.0767 40.8029L67.1295 45.0125L64.4067 43.7531L66.3539 39.5434L69.0767 40.8029ZM67.105 45.063C66.854 45.5565 66.4377 45.9193 65.9445 46.1143L64.8414 43.3245C64.6824 43.3874 64.5254 43.5175 64.4312 43.7026L67.105 45.063ZM65.8892 46.1349C65.3825 46.3126 64.8356 46.3025 64.3427 46.1169L65.3999 43.3093C65.2412 43.2496 65.0624 43.2458 64.8967 43.3039L65.8892 46.1349ZM64.3195 46.1079L62.045 45.2082L63.1485 42.4185L65.423 43.3183L64.3195 46.1079ZM62.5967 45.3133H62.5932V42.3133H62.5967V45.3133ZM62.1152 45.2351L62.0777 45.2225L63.0338 42.379L63.0713 42.3916L62.1152 45.2351ZM61.0558 43.8008V43.7975H64.0558V43.8008H61.0558ZM62.0375 45.2051L61.8839 45.1486L62.9206 42.3334L63.0741 42.3899L62.0375 45.2051ZM61.8775 45.1462C61.7613 45.1028 61.5591 45.0318 61.2716 44.9394L62.1895 42.0833C62.509 42.1859 62.7568 42.2722 62.927 42.3358L61.8775 45.1462ZM61.2626 44.9365C60.6894 44.7482 59.8364 44.4887 58.7776 44.2286L59.4933 41.3153C60.6375 41.5963 61.5645 41.878 62.1985 42.0862L61.2626 44.9365ZM58.7771 44.2285C56.6566 43.7068 53.7359 43.196 50.6509 43.196V40.196C54.0452 40.196 57.2153 40.7548 59.4938 41.3154L58.7771 44.2285ZM50.6509 43.196C47.6519 43.196 44.5609 43.6813 42.192 44.2024L41.5475 41.2724C44.0415 40.7238 47.3616 40.196 50.6509 40.196V43.196ZM42.1898 44.2029C41.0076 44.461 40.0109 44.7243 39.2996 44.9268C38.9442 45.028 38.661 45.1138 38.4626 45.1757C38.2553 45.2404 38.1553 45.2746 38.1593 45.2731L37.1504 42.4479C37.3194 42.3875 39.0556 41.8166 41.5497 41.2719L42.1898 44.2029ZM38.2832 45.2226L38.2695 45.2289L37.0129 42.5047L37.0265 42.4984L38.2832 45.2226ZM38.1258 45.2864L35.8035 46.0792L34.8342 43.2401L37.1566 42.4473L38.1258 45.2864ZM35.798 46.0811C34.7702 46.4275 33.5124 45.986 33.055 44.8532L35.8367 43.7299C35.6385 43.239 35.1582 43.1309 34.8397 43.2382L35.798 46.0811ZM33.0536 44.8498L31.3316 40.5554L34.116 39.4388L35.8381 43.7333L33.0536 44.8498ZM31.331 40.5541C30.8565 39.3675 31.5389 38.1427 32.6436 37.7703L33.6019 40.6131C33.9973 40.4798 34.3319 39.9786 34.1166 39.4401L31.331 40.5541ZM32.6376 37.7723L34.9668 36.9762L35.937 39.815L33.6079 40.6111L32.6376 37.7723ZM36.0928 39.7518L36.0859 39.755L34.8042 37.0426L34.811 37.0394L36.0928 39.7518ZM34.934 36.9886C35.0925 36.9311 36.975 36.2969 39.8165 35.6608L40.4719 38.5883C39.1149 38.8921 37.9943 39.1939 37.2048 39.4229C36.8101 39.5374 36.4989 39.6334 36.2831 39.7021C36.0587 39.7735 35.9506 39.8111 35.9562 39.8091L34.934 36.9886ZM39.8153 35.661C42.6634 35.021 46.5248 34.3663 50.6532 34.363L50.6556 37.363C46.8247 37.366 43.1971 37.9759 40.4731 38.5881L39.8153 35.661ZM50.6568 34.363C54.7175 34.3695 58.3453 35.0024 60.9993 35.6519L60.2862 38.5659C57.7977 37.9569 54.4142 37.3691 50.652 37.363L50.6568 34.363ZM60.9947 35.6507C63.6487 36.2913 65.383 36.9636 65.5906 37.0441L64.5067 39.8414C64.3733 39.7897 62.7725 39.166 60.2908 38.567L60.9947 35.6507ZM65.3857 36.9811L65.413 36.9874L64.7388 39.9107L64.7115 39.9044L65.3857 36.9811ZM65.6287 37.0546L67.9066 37.9576L66.801 40.7465L64.5232 39.8435L65.6287 37.0546ZM67.8731 37.9448C68.4134 38.1442 68.8568 38.5492 69.0939 39.085L66.3504 40.2987C66.451 40.5262 66.6352 40.6858 66.8345 40.7593L67.8731 37.9448ZM69.1091 39.1206C69.332 39.6619 69.3183 40.2573 69.087 40.78L66.3435 39.5663C66.2487 39.7807 66.2418 40.0364 66.3352 40.2631L69.1091 39.1206ZM8.73583 64.8169C8.1008 65.3402 7.26413 65.6343 6.38038 65.6343V62.6343C6.60834 62.6343 6.76052 62.5573 6.82798 62.5017L8.73583 64.8169ZM6.38038 65.6343C5.49663 65.6343 4.65996 65.3402 4.02493 64.8169L5.93278 62.5017C6.00024 62.5573 6.15242 62.6343 6.38038 62.6343V65.6343ZM4.01939 64.8123C3.39827 64.2955 2.9297 63.5238 2.9297 62.5833H5.9297C5.9297 62.5634 5.92715 62.5423 5.9221 62.522C5.91711 62.502 5.91077 62.4871 5.90605 62.478C5.89669 62.4599 5.8986 62.4732 5.93831 62.5063L4.01939 64.8123ZM2.9297 62.5833C2.9297 61.6436 3.39776 60.8691 4.0256 60.3523L5.93211 62.6686C5.89559 62.6987 5.89532 62.7098 5.90547 62.6902C5.91055 62.6804 5.91703 62.6651 5.92207 62.6448C5.92716 62.6244 5.9297 62.6033 5.9297 62.5833H2.9297ZM4.03114 60.3478C4.65833 59.8365 5.49005 59.5353 6.38038 59.5353V62.5353C6.15899 62.5353 6.00186 62.6118 5.92656 62.6731L4.03114 60.3478ZM6.38038 59.5353C7.2707 59.5353 8.10242 59.8365 8.72961 60.3478L6.8342 62.6731C6.75889 62.6118 6.60176 62.5353 6.38038 62.5353V59.5353ZM8.73516 60.3523C9.37 60.8748 9.82756 61.6514 9.82756 62.5833H6.82756C6.82756 62.6011 6.82979 62.6207 6.8346 62.6402C6.83937 62.6596 6.84564 62.6748 6.85092 62.6851C6.86164 62.706 6.8629 62.6968 6.82865 62.6686L8.73516 60.3523ZM9.82756 62.5833C9.82756 63.5161 9.36946 64.2896 8.74136 64.8123L6.82244 62.5063C6.85989 62.4751 6.86028 62.4637 6.85034 62.4831C6.84542 62.4927 6.83928 62.5074 6.83456 62.5266C6.8298 62.546 6.82756 62.5656 6.82756 62.5833H9.82756ZM85.6254 69.8453H93.5199V72.8453H85.6254V69.8453ZM93.5199 69.8453C93.5309 69.8453 93.5386 69.8443 93.5435 69.8434C93.5483 69.8425 93.5506 69.8417 93.5508 69.8416C93.551 69.8415 93.5497 69.842 93.5473 69.8435C93.5448 69.845 93.5421 69.847 93.5396 69.8495L95.5873 72.0419C95.0183 72.5733 94.2781 72.8453 93.5199 72.8453V69.8453ZM93.553 69.837C93.5369 69.8517 93.5 69.9014 93.5 69.9829H96.5C96.5 70.7881 96.1491 71.53 95.5738 72.0544L93.553 69.837ZM93.5 69.9829V51.3704H96.5V69.9829H93.5ZM93.5 51.3704C93.5 51.4519 93.5369 51.5017 93.553 51.5163L95.5738 49.299C96.1491 49.8234 96.5 50.5653 96.5 51.3704H93.5ZM93.5396 51.5039C93.5421 51.5063 93.5448 51.5083 93.5473 51.5099C93.5497 51.5113 93.551 51.5119 93.5508 51.5118C93.5506 51.5117 93.5483 51.5108 93.5435 51.51C93.5386 51.5091 93.5309 51.5081 93.5199 51.5081V48.5081C94.2781 48.5081 95.0183 48.7801 95.5873 49.3114L93.5396 51.5039ZM93.5199 51.5081H86.4063V48.5081H93.5199V51.5081ZM85.0742 50.6976C84.1933 48.9957 83.0669 47.3675 81.7273 45.836L83.9853 43.8609C85.4693 45.5574 86.737 47.3836 87.7385 49.3186L85.0742 50.6976ZM81.4933 44.2222C81.7567 43.649 85.0654 36.4941 87.5301 32.01L90.1591 33.4551C87.7541 37.8305 84.488 44.8901 84.2193 45.4747L81.4933 44.2222ZM88.1283 31.4146C87.8945 31.5417 87.5595 31.8245 87.4414 32.3191C87.334 32.7691 87.4752 33.1174 87.5477 33.2591C87.6749 33.5078 87.8263 33.5931 87.7358 33.5246C87.6286 33.4436 87.335 33.2687 86.8204 33.0539C85.8229 32.6376 84.2568 32.1799 82.3529 31.9813C78.559 31.5854 73.5578 32.2254 69.0352 36.0965L67.0844 33.8174C72.383 29.282 78.2721 28.5392 82.6642 28.9975C84.8533 29.2259 86.7042 29.7546 87.9759 30.2854C88.5959 30.5442 89.15 30.833 89.5446 31.1313C89.7049 31.2524 90.0208 31.5062 90.2186 31.8928C90.3264 32.1036 90.4794 32.5132 90.3594 33.0157C90.2288 33.5629 89.8569 33.8896 89.5608 34.0505L88.1283 31.4146ZM67.5274 36.3593C62.3643 34.3991 56.4817 33.2761 50.2246 33.2761V30.2761C56.8375 30.2761 63.0816 31.4625 68.5922 33.5546L67.5274 36.3593ZM50.2246 33.2761C39.8276 33.2761 30.4754 36.3516 23.7591 41.2495C17.0414 46.1484 13.0467 52.7895 13.0467 59.9815H10.0467C10.0467 51.5968 14.7104 44.1353 21.9914 38.8256C29.2737 33.515 39.2605 30.2761 50.2246 30.2761V33.2761ZM13.0467 59.9815C13.0467 60.3613 13.065 60.7442 13.0886 61.1614L10.0934 61.331C10.0693 60.9051 10.0467 60.4511 10.0467 59.9815H13.0467ZM13.0277 61.6776C12.7086 62.7402 11.98 63.6168 11.0556 64.2666L9.33039 61.8123C9.8382 61.4553 10.071 61.0925 10.1544 60.8149L13.0277 61.6776ZM11.0422 64.2759C10.6209 64.5652 10.1625 64.7898 9.73487 64.9711L8.56405 62.209C8.8935 62.0693 9.15123 61.9352 9.34377 61.803L11.0422 64.2759ZM7.81254 62.9098C7.86965 62.7976 7.8949 62.6897 7.8949 62.5833H10.8949C10.8949 63.1943 10.743 63.7658 10.4864 64.2702L7.81254 62.9098ZM7.8949 62.5833C7.8949 62.3901 7.79759 62.1465 7.53697 61.9316L9.44551 59.617C10.2761 60.3019 10.8949 61.3483 10.8949 62.5833H7.8949ZM7.54404 61.9374C7.27143 61.7154 6.86646 61.5538 6.38038 61.5538V58.5538C7.52435 58.5538 8.60616 58.9334 9.43845 59.6112L7.54404 61.9374ZM6.38038 61.5538C5.89265 61.5538 5.48461 61.7164 5.21322 61.9374L3.31881 59.6112C4.15231 58.9324 5.23805 58.5538 6.38038 58.5538V61.5538ZM5.22029 61.9316C4.95967 62.1465 4.86236 62.3901 4.86236 62.5833H1.86236C1.86236 61.3483 2.48112 60.3019 3.31175 59.617L5.22029 61.9316ZM4.86236 62.5833C4.86236 62.6801 4.88635 62.7882 4.94821 62.9098L2.27438 64.2702C2.0225 63.7751 1.86236 63.2039 1.86236 62.5833H4.86236ZM3.02588 64.9711C2.59929 64.7902 2.13735 64.5644 1.7156 64.2715L3.42693 61.8074C3.61219 61.9361 3.86625 62.0689 4.19671 62.209L3.02588 64.9711ZM1.70893 64.2668C0.482141 63.4048 -0.432663 62.1178 -0.432663 60.5445H2.56734C2.56734 60.8588 2.74389 61.3275 3.43361 61.8121L1.70893 64.2668ZM1.06734 62.0445H0V59.0445H1.06734V62.0445ZM1.5 60.5445C1.5 61.2265 1.90089 61.9762 2.78472 62.5925L1.06868 65.0533C-0.366388 64.0525 -1.5 62.4801 -1.5 60.5445H1.5ZM2.78526 62.5929C3.66601 63.2077 4.92692 63.6164 6.38312 63.619L6.37764 66.619C4.38959 66.6154 2.51311 66.0615 1.06814 65.0529L2.78526 62.5929ZM6.37764 63.619C7.83501 63.6163 9.09813 63.2071 9.9738 62.5941L11.6943 65.0517C10.2511 66.0621 8.36999 66.6154 6.38312 66.619L6.37764 63.619ZM9.97872 62.5907C10.2132 62.4279 10.4253 62.2294 10.6305 61.9921L12.8995 63.9547C12.5659 64.3403 12.171 64.7208 11.6894 65.0551L9.97872 62.5907ZM13.2496 62.7587C14.0169 68.064 16.9741 72.973 21.577 76.9672L19.6109 79.233C14.5767 74.8647 11.1704 69.3411 10.2805 63.1881L13.2496 62.7587ZM22.0854 78.2601L20.6019 92.0906L17.6191 91.7706L19.1025 77.9401L22.0854 78.2601ZM20.6025 92.0853C20.6035 92.0752 20.6026 92.0628 20.5994 92.0514C20.5964 92.0408 20.5929 92.036 20.5932 92.0363C20.5932 92.0363 20.61 92.059 20.6639 92.0734L19.8896 94.9717C18.4977 94.5999 17.4598 93.307 17.6185 91.7759L20.6025 92.0853ZM20.6628 92.0731L25.9895 93.4919L25.2174 96.3909L19.8907 94.972L20.6628 92.0731ZM25.9899 93.492C26.0405 93.5055 26.0947 93.5013 26.1393 93.4834C26.1841 93.4656 26.1911 93.4466 26.1862 93.4554L28.8058 94.9173C28.0914 96.1975 26.5721 96.7521 25.217 96.3908L25.9899 93.492ZM26.1874 93.4531L31.289 84.3482L33.9062 85.8146L28.8046 94.9196L26.1874 93.4531ZM33.1232 83.6765C38.2405 85.5912 44.0504 86.6835 50.2246 86.6835V89.6835C43.6995 89.6835 37.5329 88.5295 32.0719 86.4863L33.1232 83.6765ZM50.2246 86.6835C56.0182 86.6835 61.495 85.7256 66.3729 84.0267L67.3596 86.8597C62.1571 88.6718 56.3461 89.6835 50.2246 89.6835V86.6835ZM68.175 84.7102L73.0719 93.4534L70.4545 94.9193L65.5575 86.1762L68.175 84.7102ZM73.07 93.4501C73.0669 93.4445 73.0764 93.4649 73.1222 93.4832C73.168 93.5014 73.2224 93.5055 73.2728 93.492L74.0457 96.3908C72.6888 96.7526 71.1737 96.1959 70.4563 94.9227L73.07 93.4501ZM73.2732 93.4919L78.5999 92.0731L79.372 94.972L74.0453 96.3909L73.2732 93.4919ZM78.5988 92.0734C78.654 92.0586 78.6711 92.0352 78.6703 92.0364C78.6699 92.0369 78.6654 92.0433 78.6618 92.0566C78.6578 92.0707 78.6567 92.0862 78.6582 92.0992L81.6392 91.762C81.8142 93.3095 80.7576 94.6018 79.3731 94.9717L78.5988 92.0734ZM78.6572 92.09L77.2761 79.1688L80.2592 78.85L81.6402 91.7712L78.6572 92.09ZM77.833 77.8362C80.5328 75.6853 82.7315 73.2297 84.3422 70.5686L86.9087 72.122C85.0955 75.1176 82.6497 77.8345 79.7023 80.1826L77.833 77.8362Z" fill="#515151" mask="url(#path-1-inside-1_1879_115073)"/>
<mask id="path-3-inside-2_1879_115073" fill="white">
<path d="M63.1247 42.6593L64.782 43.3105L66.2006 40.2587L64.5398 39.6044L64.4513 39.5697L64.2228 39.488C64.025 39.4156 63.7454 39.315 63.3908 39.1986C62.678 38.9658 61.6652 38.6574 60.4137 38.3491C57.9141 37.7324 54.4697 37.1252 50.6503 37.1189C46.8309 37.122 43.1856 37.7325 40.4643 38.3397C37.7532 38.95 35.9628 39.5571 35.9287 39.5697L35.9219 39.573L34.2305 40.1487L35.482 43.2697L37.1734 42.6907L37.187 42.6845C37.3882 42.6185 39.073 42.0646 41.559 41.5172C44.0586 40.9666 47.3459 40.4412 50.6503 40.4412C54.0502 40.4412 57.2013 41.0013 59.4861 41.5613C60.6285 41.8444 61.5527 42.1213 62.1835 42.3289C62.5007 42.4327 62.7427 42.5177 62.9064 42.5775L63.0735 42.6405L63.0872 42.6435L63.1213 42.6561V42.6593H63.1247Z"/>
</mask>
<path d="M64.782 43.3105L66.1422 43.9429L65.5471 45.2229L64.2334 44.7066L64.782 43.3105ZM66.2006 40.2587L66.7504 38.8631L68.2322 39.4469L67.5608 40.891L66.2006 40.2587ZM64.5398 39.6044L65.0872 38.2079L65.0896 38.2088L64.5398 39.6044ZM64.4513 39.5697L64.9565 38.1574L64.9777 38.165L64.9986 38.1732L64.4513 39.5697ZM64.2228 39.488L63.7175 40.9004L63.7074 40.8967L64.2228 39.488ZM63.3908 39.1986L63.8565 37.7727L63.8585 37.7734L63.3908 39.1986ZM60.4137 38.3491L60.0549 39.8055L60.0544 39.8054L60.4137 38.3491ZM50.6503 37.1189L50.6491 35.6189L50.6528 35.6189L50.6503 37.1189ZM40.4643 38.3397L40.1349 36.8763L40.1377 36.8757L40.4643 38.3397ZM35.9287 39.5697L35.2879 38.2135L35.3475 38.1853L35.4094 38.1625L35.9287 39.5697ZM35.9219 39.573L36.5628 40.9292L36.4858 40.9655L36.4053 40.9929L35.9219 39.573ZM34.2305 40.1487L32.8382 40.707L32.2494 39.2386L33.7471 38.7287L34.2305 40.1487ZM35.482 43.2697L35.9678 44.6888L34.62 45.1502L34.0897 43.828L35.482 43.2697ZM37.1734 42.6907L37.789 44.0585L37.7253 44.0872L37.6592 44.1098L37.1734 42.6907ZM37.187 42.6845L36.5714 41.3167L36.6437 41.2841L36.7191 41.2594L37.187 42.6845ZM41.559 41.5172L41.8816 42.9821L41.8815 42.9821L41.559 41.5172ZM59.4861 41.5613L59.8432 40.1044L59.8469 40.1053L59.4861 41.5613ZM62.1835 42.3289L61.7169 43.7545L61.7146 43.7537L62.1835 42.3289ZM62.9064 42.5775L63.4209 41.1685L63.4281 41.1711L63.4352 41.1738L62.9064 42.5775ZM63.0735 42.6405L62.7443 44.1039L62.6424 44.0809L62.5447 44.0441L63.0735 42.6405ZM63.0872 42.6435L63.4165 41.1801L63.5134 41.2019L63.6065 41.2363L63.0872 42.6435ZM63.1213 42.6561L63.6407 41.2489L64.6213 41.6108V42.6561H63.1213ZM63.1213 42.6593V44.1593H61.6213V42.6593H63.1213ZM63.6732 41.2633L65.3305 41.9145L64.2334 44.7066L62.5761 44.0554L63.6732 41.2633ZM63.4217 42.6782L64.8404 39.6264L67.5608 40.891L66.1422 43.9429L63.4217 42.6782ZM65.6508 41.6543L63.99 41.0001L65.0896 38.2088L66.7504 38.8631L65.6508 41.6543ZM63.9925 41.001L63.9039 40.9663L64.9986 38.1732L65.0872 38.2079L63.9925 41.001ZM63.946 40.9821L63.7176 40.9004L64.7281 38.0757L64.9565 38.1574L63.946 40.9821ZM63.7074 40.8967C63.5181 40.8274 63.2557 40.733 62.923 40.6238L63.8585 37.7734C64.2351 37.897 64.5319 38.0039 64.7382 38.0793L63.7074 40.8967ZM62.925 40.6244C62.2399 40.4006 61.2634 40.1032 60.0549 39.8055L60.7725 36.8926C62.0671 37.2115 63.1162 37.5309 63.8565 37.7727L62.925 40.6244ZM60.0544 39.8054C57.6371 39.2091 54.316 38.6249 50.6478 38.6189L50.6528 35.6189C54.6233 35.6254 58.191 36.2558 60.773 36.8927L60.0544 39.8054ZM50.6515 38.6189C46.9806 38.6219 43.4517 39.21 40.791 39.8037L40.1377 36.8757C42.9195 36.255 46.6813 35.6221 50.6491 35.6189L50.6515 38.6189ZM40.7938 39.8031C38.1373 40.4011 36.4114 40.9905 36.448 40.977L35.4094 38.1625C35.5143 38.1238 37.3692 37.499 40.1349 36.8763L40.7938 39.8031ZM36.5696 40.9259L36.5628 40.9292L35.281 38.2168L35.2879 38.2135L36.5696 40.9259ZM36.4053 40.9929L34.7138 41.5687L33.7471 38.7287L35.4385 38.153L36.4053 40.9929ZM35.6227 39.5904L36.8742 42.7114L34.0897 43.828L32.8382 40.707L35.6227 39.5904ZM34.9962 41.8505L36.6876 41.2715L37.6592 44.1098L35.9678 44.6888L34.9962 41.8505ZM36.5578 41.3228L36.5714 41.3167L37.8026 44.0524L37.789 44.0585L36.5578 41.3228ZM36.7191 41.2594C36.9474 41.1844 38.6839 40.6144 41.2364 40.0523L41.8815 42.9821C39.4621 43.5149 37.8291 44.0525 37.655 44.1097L36.7191 41.2594ZM41.2363 40.0523C43.7984 39.488 47.2004 38.9412 50.6503 38.9412V41.9412C47.4913 41.9412 44.3188 42.4453 41.8816 42.9821L41.2363 40.0523ZM50.6503 38.9412C54.2059 38.9412 57.4817 39.5256 59.8431 40.1044L59.129 43.0181C56.9208 42.4769 53.8945 41.9412 50.6503 41.9412V38.9412ZM59.8469 40.1053C61.0263 40.3977 61.9866 40.6849 62.6525 40.9041L61.7146 43.7537C61.1187 43.5576 60.2306 43.2912 59.1252 43.0172L59.8469 40.1053ZM62.6502 40.9034C62.9826 41.0122 63.2406 41.1026 63.4209 41.1685L62.3918 43.9865C62.2448 43.9328 62.0188 43.8533 61.7169 43.7545L62.6502 40.9034ZM63.4352 41.1738L63.6024 41.2368L62.5447 44.0441L62.3775 43.9812L63.4352 41.1738ZM63.4028 41.177L63.4165 41.1801L62.7579 44.1069L62.7443 44.1039L63.4028 41.177ZM63.6065 41.2363L63.6407 41.2489L62.602 44.0634L62.5679 44.0508L63.6065 41.2363ZM64.6213 42.6561V42.6593H61.6213V42.6561H64.6213ZM63.1213 41.1593H63.1247V44.1593H63.1213V41.1593Z" fill="#F4A72A" mask="url(#path-3-inside-2_1879_115073)"/>
<path d="M43.7383 24.4547C43.7383 27.7194 46.6253 30.4658 50.3133 30.4658C54.0018 30.4658 56.8916 27.719 56.8916 24.4547C56.8916 21.1937 54.002 18.4467 50.3133 18.4467C46.625 18.4467 43.7383 21.1933 43.7383 24.4547Z" stroke="#F4A72A" stroke-width="1.5"/>
<path d="M64.6699 13.8239C64.6699 17.0887 67.5536 19.832 71.2416 19.832C74.9337 19.832 77.8199 17.0881 77.8199 13.8239C77.8199 10.5628 74.9335 7.81602 71.2416 7.81602C67.5538 7.81602 64.6699 10.5622 64.6699 13.8239Z" stroke="#F4A72A" stroke-width="1.5"/>
<path d="M46.5273 4.18106C46.5273 6.01964 48.1653 7.6123 50.3129 7.6123C52.4636 7.6123 54.0984 6.02003 54.0984 4.18106C54.0984 2.34208 52.4636 0.749805 50.3129 0.749805C48.1653 0.749805 46.5273 2.34247 46.5273 4.18106Z" stroke="#F4A72A" stroke-width="1.5"/>
</svg>
