<svg width="14" height="16" viewBox="0 0 14 16" fill="none" xmlns="http://www.w3.org/2000/svg">
<path d="M13.1254 9.74375C12.47 8.36289 11.1252 7.50849 9.60736 7.32897L7.33055 2.53187L7.6532 2.37873C7.90991 2.25689 8.10529 2.03296 8.19635 1.75621C8.28741 1.47945 8.26669 1.17254 8.13876 0.902991C8.01083 0.633442 7.78615 0.423335 7.51417 0.31889C7.24218 0.214445 6.94516 0.224218 6.68845 0.34606L0.88081 3.10249C0.624097 3.22433 0.428719 3.44826 0.337658 3.72502C0.246597 4.00177 0.267312 4.30868 0.395246 4.57823C0.52318 4.84778 0.747853 5.05789 1.01984 5.16233C1.29183 5.26678 1.58885 5.257 1.84556 5.13516L2.16821 4.98203L4.44502 9.77913C3.62434 11.0686 3.43594 12.6507 4.09133 14.0315L7.96309 12.1939L9.24942 14.9041C9.42629 15.2768 9.86139 15.4439 10.2163 15.2754C10.5712 15.107 10.7169 14.6643 10.54 14.2916L9.25367 11.5814L13.1254 9.74375Z" fill="#515151"/>
</svg>
