<svg width="18" height="18" viewBox="0 0 18 18" fill="none" xmlns="http://www.w3.org/2000/svg">
<g clip-path="url(#clip0_1879_110184)">
<path d="M9 0C7.21997 0 5.47991 0.527841 3.99987 1.51677C2.51983 2.50571 1.36628 3.91131 0.685088 5.55585C0.00389955 7.20038 -0.17433 9.00998 0.172936 10.7558C0.520203 12.5016 1.37737 14.1053 2.63604 15.364C3.89472 16.6226 5.49836 17.4798 7.24419 17.8271C8.99002 18.1743 10.7996 17.9961 12.4442 17.3149C14.0887 16.6337 15.4943 15.4802 16.4832 14.0001C17.4722 12.5201 18 10.78 18 9C18 6.61305 17.0518 4.32387 15.364 2.63604C13.6761 0.948211 11.387 0 9 0ZM13.7874 9.57536L6.07307 13.4325C5.97504 13.4815 5.86611 13.5046 5.75663 13.4996C5.64715 13.4947 5.54076 13.4618 5.44756 13.4042C5.35435 13.3465 5.27743 13.266 5.2241 13.1703C5.17078 13.0745 5.14281 12.9667 5.14286 12.8571V5.14286C5.14292 5.03332 5.17097 4.92561 5.22434 4.82996C5.27771 4.73431 5.35464 4.65388 5.44783 4.5963C5.54102 4.53873 5.64737 4.50592 5.75679 4.50099C5.86622 4.49607 5.97509 4.51918 6.07307 4.56814L13.7874 8.42528C13.894 8.47873 13.9837 8.56079 14.0463 8.66229C14.109 8.76379 14.1422 8.88072 14.1422 9C14.1422 9.11928 14.109 9.23621 14.0463 9.33771C13.9837 9.43921 13.894 9.52127 13.7874 9.57471V9.57536Z" fill="#219653"/>
</g>
<defs>
<clipPath id="clip0_1879_110184">
<rect width="18" height="18" fill="white"/>
</clipPath>
</defs>
</svg>
