<svg width="20" height="20" viewBox="0 0 20 20" fill="none" xmlns="http://www.w3.org/2000/svg">
<g clip-path="url(#clip0_491_83514)">
<path d="M17.7778 0H2.22222C1 0 0 1 0 2.22222V17.7778C0 19 1 20 2.22222 20H17.7778C19 20 20 19 20 17.7778V2.22222C20 1 19 0 17.7778 0ZM6.66667 9.44444C6.66667 10.3333 5.88889 11.1111 5 11.1111H3.88889V13.3333H2.22222V6.66667H5C5.88889 6.66667 6.66667 7.44444 6.66667 8.33333V9.44444ZM12.2222 13.3333H10.5556L9.44444 10.5556V13.3333H7.77778V6.66667H9.44444L10.5556 9.44444V6.66667H12.2222V13.3333ZM17.7778 8.33333H15V11.6667H16.1111V10H17.7778V11.8889C17.7778 12.6667 17.2222 13.3333 16.3333 13.3333H14.8889C14 13.3333 13.4444 12.5556 13.4444 11.8889V8.22222C13.3333 7.44444 13.8889 6.66667 14.7778 6.66667H16.2222C17.1111 6.66667 17.6667 7.44445 17.6667 8.11111V8.33333H17.7778ZM3.88889 8.33333H5V9.44444H3.88889V8.33333Z" fill="#515151"/>
</g>
<defs>
<clipPath id="clip0_491_83514">
<rect width="20" height="20" fill="white"/>
</clipPath>
</defs>
</svg>
