<svg width="22" height="22" viewBox="0 0 22 22" fill="none" xmlns="http://www.w3.org/2000/svg">
<path d="M21.0682 16.5357L20.6788 16.1462C20.6787 16.1461 20.6785 16.1459 20.6784 16.1457C20.6782 16.1455 20.678 16.1454 20.6778 16.1453L7.07917 2.54651C6.06206 1.52951 1.91509 0.274827 1.09397 0.0336194C0.802795 -0.0518567 0.489236 0.0284357 0.27538 0.242843L0.241852 0.276482C0.0282167 0.490448 -0.0516345 0.803897 0.0335107 1.09407C0.274829 1.91509 1.5294 6.06206 2.54651 7.07917L16.5356 21.0682C17.1364 21.6691 17.9353 22 18.7851 22C19.6348 22 20.4336 21.6691 21.0349 21.0678L21.068 21.0346C21.6689 20.4337 21.9999 19.6349 21.9999 18.7851C21.9999 17.9353 21.669 17.1366 21.0682 16.5357ZM18.9235 16.7306L18.217 17.4371L5.77033 4.99046L6.47686 4.28393L18.9235 16.7306ZM4.28382 6.47686L4.99035 5.77033L17.4371 18.217L16.7306 18.9235L4.28382 6.47686ZM5.15777 3.26329L3.2634 5.15766C2.90551 4.41352 2.46776 3.25833 2.07435 2.07424C3.25855 2.46754 4.41375 2.90529 5.15777 3.26329ZM19.8979 19.8652L19.8647 19.8984C19.5764 20.1868 19.1929 20.3456 18.7852 20.3456C18.4709 20.3456 18.1716 20.2504 17.9187 20.0752L20.0753 17.9186C20.2505 18.1715 20.3457 18.4709 20.3457 18.7851C20.3456 19.1929 20.1868 19.5764 19.8979 19.8652Z" fill="white"/>
</svg>
