<svg width="24" height="22" viewBox="0 0 24 22" fill="none" xmlns="http://www.w3.org/2000/svg">
<path d="M23.3909 9.48273H21.0526V8.48449C21.0526 8.1427 20.7799 7.86575 20.4435 7.86575H19.4283C19.2432 7.07476 18.9423 6.32608 18.5298 5.62996L19.2577 4.87839C19.4909 4.63766 19.4909 4.2514 19.2577 4.01059L17.5517 2.24866C17.4372 2.13036 17.2807 2.06378 17.1174 2.06378C16.9541 2.06378 16.7976 2.13044 16.6831 2.24858L15.9661 2.98909C15.2965 2.56818 14.5763 2.26038 13.8152 2.0698V1.00937C13.8152 0.667573 13.5426 0.390625 13.2061 0.390625H10.794C10.4575 0.390625 10.1849 0.667573 10.1849 1.00937V2.06989C9.42392 2.26038 8.70351 2.56818 8.03362 2.98925L7.3172 2.24932C7.20268 2.13102 7.04625 2.06444 6.88292 2.06444H6.88284C6.71959 2.06444 6.56309 2.13102 6.44865 2.24924L4.7425 4.01067C4.50924 4.2514 4.50924 4.63774 4.74242 4.87847L5.47029 5.62996C5.05787 6.326 4.75704 7.07459 4.57178 7.86567H3.55655C3.22006 7.86567 2.94741 8.14262 2.94741 8.48441V9.48265H0.609137C0.27265 9.48265 0 9.7596 0 10.1014V20.9912C0 21.333 0.27265 21.61 0.609137 21.61H23.3909C23.7274 21.61 24 21.333 24 20.9912V10.1014C24 9.75968 23.7274 9.48273 23.3909 9.48273ZM4.16569 9.10323H5.06891C5.36585 9.10323 5.61957 8.88569 5.66944 8.58828C5.83245 7.61537 6.19517 6.71143 6.74729 5.90171C6.91395 5.65743 6.88601 5.32735 6.68085 5.11549L6.03119 4.4447L6.88276 3.56551L7.51781 4.22145C7.72824 4.43859 8.06278 4.46804 8.30684 4.29067C9.08857 3.72192 9.96093 3.34853 10.8995 3.1809C11.1907 3.12884 11.4031 2.87186 11.4031 2.57148V1.62811H12.597V2.5714C12.597 2.87177 12.8093 3.12868 13.1004 3.18081C14.0394 3.3487 14.9116 3.72209 15.6928 4.29042C15.9366 4.46796 16.2714 4.43843 16.4817 4.22137L17.1174 3.56493L17.969 4.44445L17.3191 5.11549C17.1139 5.32735 17.086 5.65751 17.2526 5.90179C17.8051 6.7116 18.1677 7.61545 18.3303 8.58819C18.3801 8.8856 18.6338 9.10332 18.9309 9.10332H19.8343V9.48281H15.2374C15.1138 7.75438 13.7097 6.38672 12.0001 6.38672C10.2904 6.38672 8.88617 7.75438 8.76264 9.48281H4.16569V9.10323ZM9.98546 9.48273C10.104 8.43764 10.9619 7.62411 12.0004 7.62411C13.0383 7.62411 13.896 8.43764 14.0145 9.48273H9.98546ZM22.7817 20.3725H1.21827V10.7201H22.7817V20.3725Z" fill="white"/>
<path d="M3.28931 13.4426H4.62941C4.9659 13.4426 5.23855 13.1656 5.23855 12.8238C5.23855 12.482 4.9659 12.2051 4.62941 12.2051H3.28931C2.95283 12.2051 2.68018 12.482 2.68018 12.8238C2.68018 13.1655 2.95283 13.4426 3.28931 13.4426Z" fill="white"/>
<path d="M7.30958 13.4426H8.64968C8.98617 13.4426 9.25882 13.1656 9.25882 12.8238C9.25882 12.482 8.98617 12.2051 8.64968 12.2051H7.30958C6.97309 12.2051 6.70044 12.482 6.70044 12.8238C6.70044 13.1655 6.97309 13.4426 7.30958 13.4426Z" fill="white"/>
<path d="M11.3298 13.4426H12.6699C13.0064 13.4426 13.2791 13.1656 13.2791 12.8238C13.2791 12.482 13.0064 12.2051 12.6699 12.2051H11.3298C10.9934 12.2051 10.7207 12.482 10.7207 12.8238C10.7207 13.1655 10.9934 13.4426 11.3298 13.4426Z" fill="white"/>
<path d="M15.3503 13.4426H16.6904C17.0269 13.4426 17.2996 13.1656 17.2996 12.8238C17.2996 12.482 17.0269 12.2051 16.6904 12.2051H15.3503C15.0139 12.2051 14.7412 12.482 14.7412 12.8238C14.7412 13.1655 15.0139 13.4426 15.3503 13.4426Z" fill="white"/>
<path d="M19.3706 13.4426H20.7107C21.0472 13.4426 21.3198 13.1656 21.3198 12.8238C21.3198 12.482 21.0472 12.2051 20.7107 12.2051H19.3706C19.0341 12.2051 18.7615 12.482 18.7615 12.8238C18.7615 13.1655 19.0341 13.4426 19.3706 13.4426Z" fill="white"/>
<path d="M3.28931 18.8869H4.62941C4.9659 18.8869 5.23855 18.6099 5.23855 18.2682C5.23855 17.9264 4.9659 17.6494 4.62941 17.6494H3.28931C2.95283 17.6494 2.68018 17.9264 2.68018 18.2682C2.68018 18.6099 2.95283 18.8869 3.28931 18.8869Z" fill="white"/>
<path d="M16.6903 17.6494H7.28931C6.95283 17.6494 6.68018 17.9264 6.68018 18.2682C6.68018 18.6099 6.95283 18.8869 7.28931 18.8869H16.6903C17.0268 18.8869 17.2995 18.6099 17.2995 18.2682C17.2995 17.9264 17.0268 17.6494 16.6903 17.6494Z" fill="white"/>
<path d="M20.7107 17.6494H19.3706C19.0341 17.6494 18.7615 17.9264 18.7615 18.2682C18.7615 18.6099 19.0341 18.8869 19.3706 18.8869H20.7107C21.0472 18.8869 21.3198 18.6099 21.3198 18.2682C21.3198 17.9264 21.0472 17.6494 20.7107 17.6494Z" fill="white"/>
<path d="M4.69043 15.5465C4.69043 15.8883 4.96308 16.1652 5.29957 16.1652H6.63967C6.97616 16.1652 7.24881 15.8883 7.24881 15.5465C7.24881 15.2047 6.97616 14.9277 6.63967 14.9277H5.29957C4.96308 14.9277 4.69043 15.2047 4.69043 15.5465Z" fill="white"/>
<path d="M8.71069 15.5465C8.71069 15.8883 8.98334 16.1652 9.31983 16.1652H10.6599C10.9964 16.1652 11.2691 15.8883 11.2691 15.5465C11.2691 15.2047 10.9964 14.9277 10.6599 14.9277H9.31983C8.98334 14.9277 8.71069 15.2047 8.71069 15.5465Z" fill="white"/>
<path d="M12.731 15.5465C12.731 15.8883 13.0036 16.1652 13.3401 16.1652H14.6802C15.0167 16.1652 15.2893 15.8883 15.2893 15.5465C15.2893 15.2047 15.0167 14.9277 14.6802 14.9277H13.3401C13.0036 14.9277 12.731 15.2047 12.731 15.5465Z" fill="white"/>
<path d="M16.7512 15.5465C16.7512 15.8883 17.0239 16.1652 17.3604 16.1652H18.7005C19.0369 16.1652 19.3096 15.8883 19.3096 15.5465C19.3096 15.2047 19.0369 14.9277 18.7005 14.9277H17.3604C17.0239 14.9277 16.7512 15.2047 16.7512 15.5465Z" fill="white"/>
</svg>
