<svg width="24" height="22" viewBox="0 0 24 22" fill="none" xmlns="http://www.w3.org/2000/svg">
<path d="M23.6242 17.9334H22.3966V2.43728C22.3966 1.11591 21.5538 0.0410156 20.5177 0.0410156H3.48225C2.44617 0.0410156 1.60336 1.11597 1.60336 2.43728V17.9334H0.375797C0.168281 17.9334 0 18.1479 0 18.4126V19.5628C0 20.8842 0.842859 21.9591 1.87889 21.9591H4.98534C5.19286 21.9591 5.36114 21.7446 5.36114 21.4798C5.36114 21.2151 5.19291 21.0006 4.98534 21.0006H1.87889C1.25723 21.0006 0.751547 20.3556 0.751547 19.5628V18.8918H9.21919V20.074C9.21919 20.3388 9.38742 20.5533 9.59498 20.5533H14.405C14.6125 20.5533 14.7808 20.3388 14.7808 20.074V18.8918H23.2485V19.5628C23.2485 20.3556 22.7428 21.0006 22.1211 21.0006H6.58875C6.38123 21.0006 6.21295 21.2151 6.21295 21.4798C6.21295 21.7446 6.38119 21.9591 6.58875 21.9591H22.1211C23.1572 21.9591 24 20.8842 24 19.5628V18.4126C24 18.1479 23.8318 17.9334 23.6242 17.9334ZM14.0292 19.5948H9.97078V18.8918H14.0292V19.5948ZM21.6451 3.10828H20.2171C20.0096 3.10828 19.8413 3.32278 19.8413 3.58756C19.8413 3.85228 20.0095 4.06684 20.2171 4.06684H21.6451V17.9334H2.35491V4.06684H18.5136C18.7211 4.06684 18.8894 3.85234 18.8894 3.58756C18.8894 3.32284 18.7211 3.10828 18.5136 3.10828H2.35491V2.43734C2.35491 1.64456 2.86059 0.99957 3.48225 0.99957H20.5177C21.1394 0.99957 21.6451 1.64456 21.6451 2.43734V3.10828Z" fill="white"/>
<path d="M12.8017 1.57422H11.1983C10.9908 1.57422 10.8225 1.78872 10.8225 2.0535C10.8225 2.31827 10.9907 2.53277 11.1983 2.53277H12.8017C13.0092 2.53277 13.1775 2.31827 13.1775 2.0535C13.1775 1.78872 13.0092 1.57422 12.8017 1.57422Z" fill="white"/>
<path d="M15.2066 5.18457H13.4028C13.1953 5.18457 13.027 5.39907 13.027 5.66385V6.37568L8.72665 8.37966H6.53848C5.91682 8.37966 5.41113 9.02465 5.41113 9.81743V11.9901C5.41113 12.7828 5.91682 13.4278 6.53848 13.4278H6.91226L7.6323 16.4124C7.68082 16.6135 7.82651 16.7507 7.99146 16.7507H8.59273C8.80024 16.7507 8.96852 16.5362 8.96852 16.2714V13.5406L13.027 15.4318V16.1436C13.027 16.4083 13.1952 16.6229 13.4028 16.6229H15.2065C15.414 16.6229 15.5823 16.4084 15.5823 16.1436V5.66379C15.5824 5.39907 15.4141 5.18457 15.2066 5.18457ZM8.21702 15.5763L7.69868 13.4278H8.21702V15.5763ZM8.41741 12.4693H7.18985H6.53848C6.33124 12.4693 6.16268 12.2543 6.16268 11.9901V9.81743C6.16268 9.55313 6.33124 9.33815 6.53848 9.33815H8.41737V12.4693H8.41741ZM13.027 14.4112L9.16896 12.6135V9.19396L13.027 7.39617V14.4112ZM14.8308 15.6644H13.7786V6.14307H14.8308V15.6644Z" fill="white"/>
<path d="M18.3131 10.4248H16.9102C16.7027 10.4248 16.5344 10.6393 16.5344 10.9041C16.5344 11.1688 16.7027 11.3834 16.9102 11.3834H18.3131C18.5207 11.3834 18.6889 11.1689 18.6889 10.9041C18.6889 10.6393 18.5207 10.4248 18.3131 10.4248Z" fill="white"/>
<path d="M18.4014 6.2525C18.2685 6.04918 18.0315 6.02174 17.8721 6.19117L16.6696 7.4692C16.5102 7.63863 16.4887 7.94083 16.6215 8.14421C16.6959 8.25792 16.8028 8.31662 16.9104 8.31662C16.9953 8.31662 17.0806 8.28022 17.1508 8.20555L18.3533 6.92751C18.5127 6.75809 18.5343 6.45583 18.4014 6.2525Z" fill="white"/>
<path d="M18.3533 14.8813L17.1508 13.6033C16.9914 13.4338 16.7544 13.4614 16.6215 13.6646C16.4887 13.868 16.5102 14.1702 16.6696 14.3396L17.8721 15.6177C17.9424 15.6924 18.0277 15.7288 18.1125 15.7288C18.2201 15.7288 18.327 15.6701 18.4013 15.5564C18.5343 15.353 18.5127 15.0508 18.3533 14.8813Z" fill="white"/>
</svg>
