<svg width="23" height="22" viewBox="0 0 23 22" fill="none" xmlns="http://www.w3.org/2000/svg">
<mask id="path-1-inside-1_542_103676" fill="white">
<path d="M3.4941 3.95798C4.3313 3.95798 5.0213 4.6537 5.0213 5.51866C5.0213 6.38362 4.3405 7.06994 3.4941 7.06994C2.6477 7.06994 1.9669 6.37422 1.9669 5.50926C1.9669 4.6443 2.6569 3.95798 3.4941 3.95798ZM7.5145 3.95798C8.3517 3.95798 9.0417 4.6537 9.0417 5.51866C9.0417 6.38362 8.3609 7.07934 7.5145 7.07934C6.6681 7.07934 5.9873 6.38362 5.9873 5.51866C5.9873 4.6537 6.6773 3.95798 7.5145 3.95798ZM5.4445 0.0844727C6.2817 0.0844727 6.9717 0.780199 6.9717 1.64516C6.9717 2.51011 6.2909 3.19644 5.4445 3.19644C4.5981 3.19644 3.9173 2.50071 3.9173 1.63575C3.9173 0.770797 4.6073 0.0844727 5.4445 0.0844727ZM9.5569 0.0844727C10.3941 0.0844727 11.0841 0.780199 11.0841 1.64516C11.0841 2.51011 10.4033 3.19644 9.5569 3.19644C8.7105 3.19644 8.0297 2.50071 8.0297 1.63575C8.0297 0.770797 8.7197 0.0844727 9.5569 0.0844727ZM13.4577 0.0844727C14.2949 0.0844727 14.9849 0.780199 14.9849 1.64516C14.9849 2.51011 14.3041 3.19644 13.4577 3.19644C12.6113 3.19644 11.9305 2.50071 11.9305 1.63575C11.9305 0.770797 12.6205 0.0844727 13.4577 0.0844727ZM17.3401 0.0844727C18.1773 0.0844727 18.8673 0.780199 18.8673 1.64516C18.8673 2.51011 18.1865 3.19644 17.3401 3.19644C16.4937 3.19644 15.8221 2.50071 15.8221 1.64516C15.8221 0.789601 16.5029 0.0844727 17.3401 0.0844727ZM15.4633 3.95798C16.3005 3.95798 16.9905 4.6537 16.9905 5.51866C16.9905 6.38362 16.3097 7.07934 15.4633 7.07934C14.6261 7.07934 13.9361 6.38362 13.9361 5.51866C13.9361 4.6537 14.6169 3.95798 15.4633 3.95798ZM11.3233 3.95798C12.1605 3.95798 12.8505 4.6537 12.8505 5.51866C12.8505 6.37422 12.1697 7.07934 11.3233 7.07934C10.4769 7.07934 9.7961 6.38362 9.7961 5.51866C9.7961 4.6537 10.4769 3.95798 11.3233 3.95798ZM19.4653 3.95798C20.3025 3.95798 20.9925 4.6537 20.9925 5.51866C20.9925 6.37422 20.3117 7.07934 19.4653 7.07934C18.6189 7.07934 17.9381 6.38362 17.9381 5.51866C17.9473 4.6537 18.6281 3.95798 19.4653 3.95798ZM3.5033 3.99558C4.3313 3.99558 5.0029 4.68191 5.0029 5.52806C5.0029 6.37422 4.3313 7.06054 3.5033 7.06054C2.6753 7.06054 2.0037 6.37422 2.0037 5.52806C2.0037 4.68191 2.6753 3.99558 3.5033 3.99558ZM5.1961 7.3614H3.4849H1.7645C0.7249 7.3614 0.0625 8.23575 0.0625 9.34516V14.3845C0.0625 15.2964 1.2309 15.2964 1.2309 14.3845V9.66481C1.2309 9.55199 1.3229 9.47678 1.4149 9.47678C1.5253 9.47678 1.5989 9.55199 1.5989 9.66481V21.1161C1.5989 21.5862 1.9669 21.9717 2.4361 21.9717C2.8961 21.9717 3.2733 21.5956 3.2733 21.1161V15.4187C3.2733 15.3058 3.3653 15.2306 3.4573 15.2306H3.4941C3.6045 15.2306 3.6781 15.3246 3.6781 15.4187V21.1161C3.6781 21.5862 4.0461 21.9717 4.5153 21.9717C4.9753 21.9717 5.3525 21.5956 5.3525 21.1161V9.65541C5.3525 9.54259 5.4445 9.46738 5.5365 9.46738C5.6469 9.46738 5.7205 9.56139 5.7205 9.65541V14.3939C5.7205 15.3058 6.8889 15.3058 6.8889 14.3939V9.35456C6.9165 8.23575 6.2633 7.3614 5.1961 7.3614ZM13.0345 7.3614H11.3141H9.5937C8.5541 7.3614 7.8917 8.23575 7.8917 9.34516V14.3845C7.8917 15.2964 9.0601 15.2964 9.0601 14.3845V9.66481C9.0601 9.55199 9.1521 9.47678 9.2441 9.47678C9.3545 9.47678 9.4281 9.55199 9.4281 9.66481V21.1161C9.4281 21.5862 9.7961 21.9717 10.2653 21.9717C10.7253 21.9717 11.1025 21.5956 11.1025 21.1161V15.4187C11.1025 15.3058 11.1945 15.2306 11.2865 15.2306H11.3233C11.4337 15.2306 11.5073 15.3246 11.5073 15.4187V21.1161C11.5073 21.5862 11.8753 21.9717 12.3445 21.9717C12.8045 21.9717 13.1817 21.5956 13.1817 21.1161V9.65541C13.1817 9.54259 13.2737 9.46738 13.3657 9.46738C13.4761 9.46738 13.5497 9.56139 13.5497 9.65541V14.3939C13.5497 15.3058 14.7181 15.3058 14.7181 14.3939V9.35456C14.7549 8.23575 14.1017 7.3614 13.0345 7.3614ZM21.2225 7.3614H19.5021H17.7817C16.7421 7.3614 16.0797 8.23575 16.0797 9.34516V14.3845C16.0797 15.2964 17.2481 15.2964 17.2481 14.3845V9.66481C17.2481 9.55199 17.3401 9.47678 17.4321 9.47678C17.5425 9.47678 17.6161 9.55199 17.6161 9.66481V21.1161C17.6161 21.5862 17.9841 21.9717 18.4533 21.9717C18.9133 21.9717 19.2905 21.5956 19.2905 21.1161V15.4187C19.2905 15.3058 19.3825 15.2306 19.4745 15.2306H19.5113C19.6217 15.2306 19.6953 15.3246 19.6953 15.4187V21.1161C19.6953 21.5862 20.0633 21.9717 20.5325 21.9717C20.9925 21.9717 21.3697 21.5956 21.3697 21.1161V9.65541C21.3697 9.54259 21.4617 9.46738 21.5537 9.46738C21.6641 9.46738 21.7377 9.56139 21.7377 9.65541V14.3939C21.7377 15.3058 22.9061 15.3058 22.9061 14.3939V9.35456C22.9429 8.23575 22.2897 7.3614 21.2225 7.3614Z"/>
</mask>
<path d="M3.4941 3.95798C4.3313 3.95798 5.0213 4.6537 5.0213 5.51866C5.0213 6.38362 4.3405 7.06994 3.4941 7.06994C2.6477 7.06994 1.9669 6.37422 1.9669 5.50926C1.9669 4.6443 2.6569 3.95798 3.4941 3.95798ZM7.5145 3.95798C8.3517 3.95798 9.0417 4.6537 9.0417 5.51866C9.0417 6.38362 8.3609 7.07934 7.5145 7.07934C6.6681 7.07934 5.9873 6.38362 5.9873 5.51866C5.9873 4.6537 6.6773 3.95798 7.5145 3.95798ZM5.4445 0.0844727C6.2817 0.0844727 6.9717 0.780199 6.9717 1.64516C6.9717 2.51011 6.2909 3.19644 5.4445 3.19644C4.5981 3.19644 3.9173 2.50071 3.9173 1.63575C3.9173 0.770797 4.6073 0.0844727 5.4445 0.0844727ZM9.5569 0.0844727C10.3941 0.0844727 11.0841 0.780199 11.0841 1.64516C11.0841 2.51011 10.4033 3.19644 9.5569 3.19644C8.7105 3.19644 8.0297 2.50071 8.0297 1.63575C8.0297 0.770797 8.7197 0.0844727 9.5569 0.0844727ZM13.4577 0.0844727C14.2949 0.0844727 14.9849 0.780199 14.9849 1.64516C14.9849 2.51011 14.3041 3.19644 13.4577 3.19644C12.6113 3.19644 11.9305 2.50071 11.9305 1.63575C11.9305 0.770797 12.6205 0.0844727 13.4577 0.0844727ZM17.3401 0.0844727C18.1773 0.0844727 18.8673 0.780199 18.8673 1.64516C18.8673 2.51011 18.1865 3.19644 17.3401 3.19644C16.4937 3.19644 15.8221 2.50071 15.8221 1.64516C15.8221 0.789601 16.5029 0.0844727 17.3401 0.0844727ZM15.4633 3.95798C16.3005 3.95798 16.9905 4.6537 16.9905 5.51866C16.9905 6.38362 16.3097 7.07934 15.4633 7.07934C14.6261 7.07934 13.9361 6.38362 13.9361 5.51866C13.9361 4.6537 14.6169 3.95798 15.4633 3.95798ZM11.3233 3.95798C12.1605 3.95798 12.8505 4.6537 12.8505 5.51866C12.8505 6.37422 12.1697 7.07934 11.3233 7.07934C10.4769 7.07934 9.7961 6.38362 9.7961 5.51866C9.7961 4.6537 10.4769 3.95798 11.3233 3.95798ZM19.4653 3.95798C20.3025 3.95798 20.9925 4.6537 20.9925 5.51866C20.9925 6.37422 20.3117 7.07934 19.4653 7.07934C18.6189 7.07934 17.9381 6.38362 17.9381 5.51866C17.9473 4.6537 18.6281 3.95798 19.4653 3.95798ZM3.5033 3.99558C4.3313 3.99558 5.0029 4.68191 5.0029 5.52806C5.0029 6.37422 4.3313 7.06054 3.5033 7.06054C2.6753 7.06054 2.0037 6.37422 2.0037 5.52806C2.0037 4.68191 2.6753 3.99558 3.5033 3.99558ZM5.1961 7.3614H3.4849H1.7645C0.7249 7.3614 0.0625 8.23575 0.0625 9.34516V14.3845C0.0625 15.2964 1.2309 15.2964 1.2309 14.3845V9.66481C1.2309 9.55199 1.3229 9.47678 1.4149 9.47678C1.5253 9.47678 1.5989 9.55199 1.5989 9.66481V21.1161C1.5989 21.5862 1.9669 21.9717 2.4361 21.9717C2.8961 21.9717 3.2733 21.5956 3.2733 21.1161V15.4187C3.2733 15.3058 3.3653 15.2306 3.4573 15.2306H3.4941C3.6045 15.2306 3.6781 15.3246 3.6781 15.4187V21.1161C3.6781 21.5862 4.0461 21.9717 4.5153 21.9717C4.9753 21.9717 5.3525 21.5956 5.3525 21.1161V9.65541C5.3525 9.54259 5.4445 9.46738 5.5365 9.46738C5.6469 9.46738 5.7205 9.56139 5.7205 9.65541V14.3939C5.7205 15.3058 6.8889 15.3058 6.8889 14.3939V9.35456C6.9165 8.23575 6.2633 7.3614 5.1961 7.3614ZM13.0345 7.3614H11.3141H9.5937C8.5541 7.3614 7.8917 8.23575 7.8917 9.34516V14.3845C7.8917 15.2964 9.0601 15.2964 9.0601 14.3845V9.66481C9.0601 9.55199 9.1521 9.47678 9.2441 9.47678C9.3545 9.47678 9.4281 9.55199 9.4281 9.66481V21.1161C9.4281 21.5862 9.7961 21.9717 10.2653 21.9717C10.7253 21.9717 11.1025 21.5956 11.1025 21.1161V15.4187C11.1025 15.3058 11.1945 15.2306 11.2865 15.2306H11.3233C11.4337 15.2306 11.5073 15.3246 11.5073 15.4187V21.1161C11.5073 21.5862 11.8753 21.9717 12.3445 21.9717C12.8045 21.9717 13.1817 21.5956 13.1817 21.1161V9.65541C13.1817 9.54259 13.2737 9.46738 13.3657 9.46738C13.4761 9.46738 13.5497 9.56139 13.5497 9.65541V14.3939C13.5497 15.3058 14.7181 15.3058 14.7181 14.3939V9.35456C14.7549 8.23575 14.1017 7.3614 13.0345 7.3614ZM21.2225 7.3614H19.5021H17.7817C16.7421 7.3614 16.0797 8.23575 16.0797 9.34516V14.3845C16.0797 15.2964 17.2481 15.2964 17.2481 14.3845V9.66481C17.2481 9.55199 17.3401 9.47678 17.4321 9.47678C17.5425 9.47678 17.6161 9.55199 17.6161 9.66481V21.1161C17.6161 21.5862 17.9841 21.9717 18.4533 21.9717C18.9133 21.9717 19.2905 21.5956 19.2905 21.1161V15.4187C19.2905 15.3058 19.3825 15.2306 19.4745 15.2306H19.5113C19.6217 15.2306 19.6953 15.3246 19.6953 15.4187V21.1161C19.6953 21.5862 20.0633 21.9717 20.5325 21.9717C20.9925 21.9717 21.3697 21.5956 21.3697 21.1161V9.65541C21.3697 9.54259 21.4617 9.46738 21.5537 9.46738C21.6641 9.46738 21.7377 9.56139 21.7377 9.65541V14.3939C21.7377 15.3058 22.9061 15.3058 22.9061 14.3939V9.35456C22.9429 8.23575 22.2897 7.3614 21.2225 7.3614Z" stroke="#515151" stroke-width="2" mask="url(#path-1-inside-1_542_103676)"/>
</svg>
