<svg width="18" height="18" viewBox="0 0 18 18" fill="none" xmlns="http://www.w3.org/2000/svg">
<mask id="path-1-inside-1_283_13910" fill="white">
<path d="M17.9556 4.78769L17.9223 4.7304L16.7993 3.38044C16.7332 3.26633 16.7762 3.099 16.8978 3.05704C17.0682 2.99717 17.2301 2.89175 17.369 2.73926C17.8375 2.22395 17.8584 1.37601 17.4112 0.86121C16.9852 0.322362 16.2505 0.308548 15.7828 0.825904C15.6448 0.97891 15.5459 1.16058 15.4869 1.35452C15.4447 1.49218 15.2979 1.53517 15.2025 1.45329L14.083 0.0982418L14.0347 0.0578136C13.9641 -0.0204802 13.851 -0.019453 13.7778 0.0619116L12.4791 1.49832C12.3984 1.50446 12.3194 1.45279 12.2946 1.35402C12.1845 0.913938 11.8668 0.533718 11.3286 0.413974C11.2736 0.401692 11.2146 0.400667 11.1592 0.411925C10.0571 0.636062 9.77308 1.95734 10.3654 2.67427C10.491 2.82625 10.6419 2.9337 10.8038 2.99665C10.8912 3.03042 10.9298 3.13329 10.9142 3.2295L9.60849 4.6741C9.53218 4.75751 9.52907 4.89363 9.59918 4.97704L10.7798 6.39708L10.8007 6.41602L10.8078 6.42472C10.9081 6.546 11.0828 6.48151 11.1197 6.3152C11.2279 5.83571 11.5718 5.4074 12.146 5.27691C12.2533 5.26769 12.3611 5.27588 12.4667 5.30147C12.7085 5.37771 12.8998 5.51078 13.0426 5.67812C13.1815 5.85057 13.2884 6.07725 13.343 6.35973C13.3607 6.48152 13.3634 6.60638 13.3505 6.72971C13.2112 7.38574 12.8248 7.76237 12.4046 7.86523C12.2595 7.90053 12.1956 8.09961 12.2963 8.21986L12.303 8.22856L12.319 8.25362L13.4952 9.67776C13.5648 9.76271 13.6829 9.76374 13.7583 9.68033L15.0685 8.24033C15.1523 8.22651 15.2398 8.27667 15.2651 8.3785C15.313 8.56835 15.399 8.74694 15.525 8.8979C16.1196 9.61329 17.2758 9.34513 17.5194 8.08526C17.5323 8.02129 17.5341 7.95324 17.5256 7.88979C17.4458 7.26446 17.1308 6.88118 16.7554 6.73483C16.6706 6.70157 16.6285 6.60791 16.6383 6.5158L17.9405 5.08398C18.0141 5.00364 18.0194 4.87315 17.9556 4.78769Z"/>
</mask>
<path d="M17.9223 4.7304L18.5373 4.21879L18.5803 4.27047L18.6141 4.32861L17.9223 4.7304ZM16.7993 3.38044L16.1843 3.89205L16.141 3.84002L16.1071 3.78146L16.7993 3.38044ZM16.8978 3.05704L17.163 3.8118L17.1588 3.81326L16.8978 3.05704ZM17.369 2.73926L17.9609 3.27744L17.9605 3.27791L17.369 2.73926ZM17.4112 0.86121L16.8072 1.38588L16.7951 1.37187L16.7836 1.35731L17.4112 0.86121ZM15.7828 0.825904L15.1887 0.290131L15.1894 0.289451L15.7828 0.825904ZM15.4869 1.35452L16.2523 1.58739L16.2518 1.58875L15.4869 1.35452ZM15.2025 1.45329L14.6814 2.06035L14.6294 2.01568L14.5857 1.96281L15.2025 1.45329ZM14.083 0.0982418L14.5962 -0.515506L14.6528 -0.46817L14.6998 -0.411277L14.083 0.0982418ZM14.0347 0.0578136L13.5216 0.671561L13.4782 0.635311L13.4404 0.593327L14.0347 0.0578136ZM13.7778 0.0619116L14.3725 0.597004L14.3712 0.598424L13.7778 0.0619116ZM12.4791 1.49832L13.0726 2.03483L12.8583 2.27179L12.5398 2.29602L12.4791 1.49832ZM12.2946 1.35402L11.5187 1.5492L11.5185 1.54807L12.2946 1.35402ZM11.3286 0.413974L11.1549 1.19488L11.1543 1.19476L11.3286 0.413974ZM11.1592 0.411925L10.9998 -0.372027L11 -0.372086L11.1592 0.411925ZM10.3654 2.67427L10.9821 2.16473L10.9821 2.16473L10.3654 2.67427ZM10.8038 2.99665L10.5155 3.74288L10.514 3.74231L10.8038 2.99665ZM10.9142 3.2295L11.704 3.35698L11.6663 3.59048L11.5077 3.76594L10.9142 3.2295ZM9.60849 4.6741L10.202 5.21056L10.1987 5.21412L9.60849 4.6741ZM9.59918 4.97704L10.2116 4.46232L10.2143 4.46558L9.59918 4.97704ZM10.7798 6.39708L10.2418 6.98913L10.2004 6.95153L10.1647 6.90854L10.7798 6.39708ZM10.8007 6.41602L11.3387 5.82398L11.3826 5.86387L11.4201 5.90979L10.8007 6.41602ZM10.8078 6.42472L10.1912 6.93449L10.1883 6.93095L10.8078 6.42472ZM11.1197 6.3152L10.3386 6.14225L10.3393 6.13901L11.1197 6.3152ZM12.146 5.27691L11.9686 4.4968L12.0225 4.48456L12.0776 4.47983L12.146 5.27691ZM12.4667 5.30147L12.6551 4.52397L12.6814 4.53035L12.7073 4.5385L12.4667 5.30147ZM13.0426 5.67812L13.6511 5.15866L13.6585 5.1674L13.6657 5.17635L13.0426 5.67812ZM13.343 6.35973L14.1285 6.20798L14.132 6.2261L14.1346 6.24437L13.343 6.35973ZM13.3505 6.72971L14.1462 6.81272L14.1418 6.85465L14.1331 6.89589L13.3505 6.72971ZM12.4046 7.86523L12.5948 8.64228L12.5938 8.64254L12.4046 7.86523ZM12.2963 8.21986L12.9097 7.7062L12.9206 7.71929L12.931 7.73283L12.2963 8.21986ZM12.303 8.22856L12.9377 7.74153L12.9591 7.76944L12.978 7.79912L12.303 8.22856ZM12.319 8.25362L11.7021 8.76306L11.6706 8.72486L11.644 8.68305L12.319 8.25362ZM13.4952 9.67776L14.112 9.16832L14.1138 9.17048L13.4952 9.67776ZM13.7583 9.68033L13.1649 9.14376L13.1666 9.14195L13.7583 9.68033ZM15.0685 8.24033L14.4767 7.70195L14.6639 7.49619L14.9384 7.45097L15.0685 8.24033ZM15.2651 8.3785L14.4894 8.57428L14.4886 8.57132L15.2651 8.3785ZM15.525 8.8979L16.1392 8.38525L16.1403 8.38658L15.525 8.8979ZM17.5194 8.08526L16.7339 7.93339L16.7351 7.9275L17.5194 8.08526ZM17.5256 7.88979L16.7326 7.99515L16.7321 7.99114L17.5256 7.88979ZM16.7554 6.73483L16.4648 7.48018L16.4631 7.47952L16.7554 6.73483ZM16.6383 6.5158L15.8427 6.43149L15.8703 6.17118L16.0464 5.97753L16.6383 6.5158ZM17.9405 5.08398L17.3486 4.54572L17.3508 4.54338L17.9405 5.08398ZM17.2638 5.18948L17.2305 5.13218L18.6141 4.32861L18.6473 4.3859L17.2638 5.18948ZM17.3073 5.242L16.1843 3.89205L17.4144 2.86884L18.5373 4.21879L17.3073 5.242ZM16.1071 3.78146C15.9542 3.51757 15.9376 3.2194 16.0095 2.97002C16.0821 2.71821 16.2765 2.42519 16.6368 2.30082L17.1588 3.81326C17.3976 3.73085 17.5096 3.54248 17.5469 3.41335C17.5834 3.28665 17.5783 3.1292 17.4916 2.97942L16.1071 3.78146ZM16.6326 2.30229C16.6737 2.28784 16.7247 2.25859 16.7775 2.20061L17.9605 3.27791C17.7356 3.52491 17.4627 3.7065 17.163 3.81179L16.6326 2.30229ZM16.7771 2.20108C16.9843 1.97325 16.9776 1.58191 16.8072 1.38588L18.0151 0.336544C18.7393 1.17011 18.6908 2.47465 17.9609 3.27744L16.7771 2.20108ZM16.7836 1.35731C16.7129 1.26795 16.6435 1.24829 16.596 1.24731C16.5466 1.24628 16.4642 1.2651 16.3763 1.36236L15.1894 0.289451C15.9752 -0.579971 17.2934 -0.577808 18.0388 0.365113L16.7836 1.35731ZM16.3769 1.36168C16.3228 1.42175 16.2794 1.4981 16.2523 1.58739L14.7215 1.12165C14.8124 0.823052 14.9669 0.536069 15.1887 0.290131L16.3769 1.36168ZM16.2518 1.58875C16.0612 2.21125 15.2663 2.56232 14.6814 2.06035L15.7235 0.846239C15.5526 0.69955 15.3192 0.659067 15.1148 0.726239C14.9093 0.793796 14.773 0.953449 14.722 1.12029L16.2518 1.58875ZM14.5857 1.96281L13.4663 0.60776L14.6998 -0.411277L15.8192 0.943776L14.5857 1.96281ZM13.5699 0.71199L13.5216 0.671561L14.5478 -0.555934L14.5962 -0.515506L13.5699 0.71199ZM13.4404 0.593327C13.554 0.719402 13.7261 0.802576 13.9183 0.799913C14.1092 0.79727 14.2697 0.711218 14.3725 0.597003L13.1831 -0.47318C13.5595 -0.891499 14.2263 -0.924696 14.629 -0.477699L13.4404 0.593327ZM14.3712 0.598424L13.0726 2.03483L11.8857 0.961808L13.1844 -0.474601L14.3712 0.598424ZM12.5398 2.29602C12.0499 2.33327 11.6334 2.00496 11.5187 1.5492L13.0704 1.15884C13.0054 0.900609 12.7469 0.675648 12.4185 0.700624L12.5398 2.29602ZM11.5185 1.54807C11.4735 1.36818 11.3649 1.24161 11.1549 1.19488L11.5024 -0.366931C12.3687 -0.174175 12.8956 0.459694 13.0707 1.15997L11.5185 1.54807ZM11.1543 1.19476C11.205 1.20605 11.2596 1.20785 11.3183 1.19594L11 -0.372086C11.1696 -0.406513 11.3423 -0.40267 11.5029 -0.366809L11.1543 1.19476ZM11.3186 1.19588C11.0905 1.24228 10.9534 1.38787 10.893 1.5887C10.8253 1.81382 10.8773 2.03786 10.9821 2.16473L9.74866 3.18381C9.26116 2.59375 9.15903 1.79869 9.36077 1.12789C9.56981 0.432828 10.1258 -0.19429 10.9998 -0.372027L11.3186 1.19588ZM10.9821 2.16473C11.024 2.2154 11.0638 2.2394 11.0936 2.25099L10.514 3.74231C10.2199 3.62801 9.95792 3.4371 9.74866 3.1838L10.9821 2.16473ZM11.0921 2.25042C11.6557 2.46818 11.7558 3.03631 11.704 3.35698L10.1245 3.10201C10.1096 3.19437 10.1171 3.30304 10.1664 3.41421C10.2183 3.531 10.3285 3.67065 10.5155 3.74288L11.0921 2.25042ZM11.5077 3.76594L10.202 5.21055L9.015 4.13766L10.3208 2.69305L11.5077 3.76594ZM10.1987 5.21412C10.3032 5.09996 10.3453 4.96526 10.3486 4.84819C10.3519 4.73214 10.318 4.58888 10.2116 4.46233L8.98674 5.49175C8.65176 5.09317 8.6779 4.50609 9.01825 4.13409L10.1987 5.21412ZM10.2143 4.46558L11.395 5.88563L10.1647 6.90854L8.98402 5.4885L10.2143 4.46558ZM11.3179 5.80504L11.3387 5.82398L10.2626 7.00807L10.2418 6.98913L11.3179 5.80504ZM11.4201 5.90979L11.4272 5.91849L10.1883 6.93095L10.1812 6.92225L11.4201 5.90979ZM11.4243 5.91495C11.2567 5.71219 10.9697 5.63456 10.7182 5.72451C10.493 5.805 10.3732 5.98604 10.3386 6.14225L11.9007 6.48815C11.8293 6.81067 11.6037 7.10711 11.2569 7.23111C10.8836 7.36455 10.4591 7.25852 10.1912 6.93448L11.4243 5.91495ZM10.3393 6.13901C10.506 5.40084 11.0541 4.70466 11.9686 4.4968L12.3233 6.05701C12.0895 6.11013 11.9499 6.27058 11.9 6.49139L10.3393 6.13901ZM12.0776 4.47983C12.2712 4.46322 12.4657 4.47808 12.6551 4.52397L12.2783 6.07897C12.2565 6.07368 12.2354 6.07217 12.2143 6.07398L12.0776 4.47983ZM12.7073 4.5385C13.0939 4.66039 13.412 4.87869 13.6511 5.15866L12.4342 6.19757C12.3875 6.14288 12.3232 6.09504 12.2261 6.06444L12.7073 4.5385ZM13.6657 5.17635C13.8951 5.46123 14.0519 5.81161 14.1285 6.20798L12.5575 6.51148C12.5249 6.3429 12.4679 6.2399 12.4196 6.17988L13.6657 5.17635ZM14.1346 6.24437C14.1619 6.43161 14.166 6.62311 14.1462 6.81272L12.5549 6.64669C12.5608 6.58965 12.5596 6.53142 12.5514 6.47509L14.1346 6.24437ZM14.1331 6.89589C13.9429 7.79141 13.3694 8.45266 12.5948 8.64228L12.2144 7.08817C12.2801 7.07208 12.4795 6.98007 12.568 6.56352L14.1331 6.89589ZM12.5938 8.64254C12.8458 8.58119 12.9773 8.39256 13.0222 8.24814C13.0681 8.10054 13.0609 7.88681 12.9097 7.7062L11.683 8.73352C11.4311 8.43266 11.4054 8.05926 11.4943 7.77324C11.5823 7.49039 11.8182 7.18457 12.2154 7.08791L12.5938 8.64254ZM12.931 7.73283L12.9377 7.74153L11.6684 8.71559L11.6617 8.70689L12.931 7.73283ZM12.978 7.79912L12.9939 7.82418L11.644 8.68305L11.628 8.65799L12.978 7.79912ZM12.9358 7.74418L14.112 9.16832L12.8783 10.1872L11.7021 8.76306L12.9358 7.74418ZM14.1138 9.17048C14.0033 9.03583 13.8293 8.94408 13.6321 8.94222C13.4371 8.94037 13.2711 9.02637 13.1649 9.14376L14.3517 10.2169C13.9644 10.6451 13.2715 10.6666 12.8766 10.185L14.1138 9.17048ZM13.1666 9.14195L14.4767 7.70195L15.6602 8.77871L14.35 10.2187L13.1666 9.14195ZM14.9384 7.45097C15.4387 7.36854 15.9169 7.68408 16.0415 8.18568L14.4886 8.57132C14.5626 8.86926 14.8659 9.08448 15.1985 9.02968L14.9384 7.45097ZM16.0407 8.18272C16.0623 8.2683 16.0977 8.3356 16.1392 8.38525L14.9109 9.41054C14.7003 9.15828 14.5636 8.86841 14.4894 8.57428L16.0407 8.18272ZM16.1403 8.38658C16.2285 8.49277 16.3196 8.50119 16.3942 8.47559C16.4678 8.45035 16.6559 8.33736 16.734 7.9334L18.3049 8.23712C18.1394 9.09303 17.6275 9.74406 16.9134 9.98902C16.2004 10.2336 15.4161 10.0184 14.9098 9.40922L16.1403 8.38658ZM16.7351 7.9275C16.7323 7.94168 16.7312 7.95339 16.7309 7.96293C16.7306 7.97248 16.731 7.98302 16.7326 7.99514L18.3187 7.78443C18.3384 7.93255 18.3346 8.08959 18.3037 8.24302L16.7351 7.9275ZM16.7321 7.99114C16.6814 7.59414 16.5134 7.49913 16.4648 7.48018L17.046 5.98948C17.7481 6.26323 18.2102 6.93478 18.3192 7.78844L16.7321 7.99114ZM16.4631 7.47952C15.9547 7.27998 15.8061 6.77752 15.8427 6.43149L17.4338 6.6001C17.451 6.43829 17.3866 6.12315 17.0477 5.99014L16.4631 7.47952ZM16.0464 5.97753L17.3486 4.54572L18.5323 5.62225L17.2301 7.05406L16.0464 5.97753ZM17.3508 4.54338C17.2482 4.65531 17.2059 4.78638 17.2005 4.89957C17.1951 5.01198 17.2242 5.14552 17.3148 5.26672L18.5963 4.30867C18.8886 4.69959 18.8658 5.25851 18.5302 5.62459L17.3508 4.54338Z" fill="#F4A72A" mask="url(#path-1-inside-1_283_13910)"/>
<mask id="path-3-inside-2_283_13910" fill="white">
<path d="M11.9899 17.9872H12.0001L12.0267 17.9918L13.7318 18C13.8338 18.0005 13.9155 17.9028 13.9159 17.783L13.9235 15.6952C13.9731 15.6164 14.0641 15.578 14.1462 15.6276C14.2979 15.7192 14.4692 15.7714 14.6506 15.7714C15.5096 15.773 16.1437 14.6252 15.5247 13.549C15.4932 13.4953 15.4524 13.4461 15.4072 13.4088C14.9604 13.0419 14.5029 13.0383 14.1511 13.2497C14.0712 13.2967 13.9842 13.266 13.9328 13.1944L13.9403 11.1198C13.9408 11.0032 13.8631 10.908 13.7655 10.9029L13.7069 10.8896L12.0839 10.8885C11.9672 10.8645 11.8927 10.7125 11.9508 10.5825C12.0307 10.3993 12.0773 10.1916 12.0782 9.9705C12.0808 9.22389 11.5653 8.61903 10.9339 8.63439C10.3012 8.61494 9.78341 9.21724 9.78296 9.96385C9.78296 10.1849 9.82733 10.3932 9.90853 10.5764C9.96532 10.7069 9.89036 10.8588 9.77278 10.8824L8.14977 10.8742L8.09119 10.886C8.02153 10.8896 7.96295 10.9402 7.93456 11.0113C7.94388 11.0441 7.95055 11.0789 7.95055 11.1152L7.94743 13.2573L7.84582 13.2343C7.79923 13.2573 7.74692 13.2614 7.69634 13.2307L7.66484 13.2148C7.60982 13.2154 7.55389 13.22 7.49577 13.2297L7.48069 13.2317L7.46604 13.2292C7.40215 13.2153 7.34493 13.2031 7.28991 13.2031C6.76947 13.2046 6.33864 13.6677 6.27342 14.27C6.26765 14.3222 6.26367 14.3739 6.26367 14.4287C6.26367 14.6446 6.31378 14.8754 6.42204 15.1093C6.44511 15.1599 6.46863 15.2106 6.49747 15.2623C6.52276 15.3052 6.55558 15.3447 6.59241 15.3738C6.83111 15.5688 7.06629 15.6476 7.28458 15.6481C7.34315 15.6476 7.40039 15.642 7.4563 15.6312L7.47094 15.6287L7.48602 15.6307C7.53305 15.6399 7.56987 15.6486 7.60448 15.6532C7.63332 15.6394 7.66214 15.6261 7.6901 15.6087C7.74955 15.5734 7.81303 15.5852 7.86272 15.623L7.94344 15.6046L7.94036 17.7789C7.94036 17.8066 7.93682 17.8342 7.93105 17.8603C7.96078 17.9319 8.02155 17.9836 8.09431 17.9836L9.79982 17.9847L9.82555 17.9806H9.83621C9.9813 17.9811 10.0621 17.7912 9.98396 17.6454C9.75857 17.2232 9.72974 16.6409 10.0465 16.0728C10.1149 15.9766 10.1947 15.8932 10.2835 15.8231C10.4982 15.6747 10.7143 15.6082 10.9183 15.6051C11.122 15.6087 11.3381 15.6778 11.5524 15.8267C11.6402 15.8973 11.7201 15.9813 11.7884 16.078C12.1026 16.648 12.0702 17.2299 11.843 17.651C11.7654 17.7963 11.8448 17.9872 11.9899 17.9872Z"/>
</mask>
<path d="M12.0001 17.9872V17.1872H12.0691L12.137 17.199L12.0001 17.9872ZM12.0267 17.9918L12.0229 18.7918L11.9558 18.7915L11.8897 18.78L12.0267 17.9918ZM13.7318 18L13.7356 17.2L13.7358 17.2L13.7318 18ZM13.9159 17.783L14.7159 17.7859L14.7159 17.786L13.9159 17.783ZM13.9235 15.6952L13.1235 15.6923L13.1243 15.4627L13.2468 15.2685L13.9235 15.6952ZM14.1462 15.6276L13.7327 16.3125L13.7322 16.3122L14.1462 15.6276ZM14.6506 15.7714V14.9714L14.6521 14.9714L14.6506 15.7714ZM15.5247 13.549L16.2149 13.1444L16.2182 13.1501L15.5247 13.549ZM15.4072 13.4088L15.9149 12.7905L15.9164 12.7918L15.4072 13.4088ZM14.1511 13.2497L14.563 13.9355L14.5573 13.9388L14.1511 13.2497ZM13.9328 13.1944L13.2831 13.6611L13.1318 13.4507L13.1328 13.1915L13.9328 13.1944ZM13.9403 11.1198L13.1403 11.1169L13.1403 11.1168L13.9403 11.1198ZM13.7655 10.9029L13.7236 11.7018L13.6553 11.6982L13.5885 11.683L13.7655 10.9029ZM13.7069 10.8896L13.7074 10.0896L13.7968 10.0896L13.884 10.1094L13.7069 10.8896ZM12.0839 10.8885L12.0834 11.6885L12.0021 11.6885L11.9224 11.6721L12.0839 10.8885ZM11.9508 10.5825L12.6842 10.9022L12.6811 10.9091L11.9508 10.5825ZM12.0782 9.9705L12.8782 9.97335L12.8782 9.97371L12.0782 9.9705ZM10.9339 8.63439L10.9533 9.43415L10.9313 9.43469L10.9093 9.43401L10.9339 8.63439ZM9.78296 9.96385H8.98296L8.98296 9.96338L9.78296 9.96385ZM9.90853 10.5764L10.6399 10.2522L10.6421 10.2571L9.90853 10.5764ZM9.77278 10.8824L9.92983 11.6668L9.85007 11.6828L9.76874 11.6824L9.77278 10.8824ZM8.14977 10.8742L7.99188 10.0899L8.07204 10.0738L8.15381 10.0742L8.14977 10.8742ZM8.09119 10.886L8.24908 11.6703L8.19122 11.6819L8.13228 11.6849L8.09119 10.886ZM7.93456 11.0113L7.16509 11.2303L7.09048 10.968L7.19157 10.7147L7.93456 11.0113ZM7.95055 11.1152H8.75055L8.75055 11.1164L7.95055 11.1152ZM7.94743 13.2573L8.74743 13.2585L8.74597 14.2587L7.77053 14.0375L7.94743 13.2573ZM7.84582 13.2343L7.49133 12.5171L7.74584 12.3913L8.02272 12.4541L7.84582 13.2343ZM7.69634 13.2307L8.05622 12.5162L8.08445 12.5304L8.11146 12.5468L7.69634 13.2307ZM7.66484 13.2148L7.6574 12.4149L7.85143 12.4131L8.02472 12.5004L7.66484 13.2148ZM7.49577 13.2297L7.62776 14.0187L7.61565 14.0208L7.60348 14.0224L7.49577 13.2297ZM7.48069 13.2317L7.58841 14.0245L7.46494 14.0412L7.34222 14.0197L7.48069 13.2317ZM7.46604 13.2292L7.32758 14.0171L7.31221 14.0144L7.29695 14.0111L7.46604 13.2292ZM7.28991 13.2031L7.28755 12.4031H7.28991V13.2031ZM6.27342 14.27L7.06877 14.3562L7.06858 14.3579L6.27342 14.27ZM6.42204 15.1093L7.14804 14.7732L7.15009 14.7777L6.42204 15.1093ZM6.49747 15.2623L5.80796 15.6679L5.80333 15.6601L5.79887 15.6521L6.49747 15.2623ZM6.59241 15.3738L7.08918 14.7466L7.09848 14.7542L6.59241 15.3738ZM7.28458 15.6481L7.29157 16.4481L7.28271 16.4481L7.28458 15.6481ZM7.4563 15.6312L7.30526 14.8455L7.31783 14.8433L7.4563 15.6312ZM7.47094 15.6287L7.33248 14.8407L7.45519 14.8192L7.57866 14.8359L7.47094 15.6287ZM7.48602 15.6307L7.59374 14.838L7.61687 14.8411L7.63978 14.8456L7.48602 15.6307ZM7.60448 15.6532L7.95013 16.3747L7.73519 16.4777L7.49895 16.4462L7.60448 15.6532ZM7.6901 15.6087L7.26735 14.9295L7.27443 14.9251L7.28159 14.9209L7.6901 15.6087ZM7.86272 15.623L8.04065 16.403L7.67563 16.4863L7.37783 16.2593L7.86272 15.623ZM7.94344 15.6046L7.76551 14.8247L8.74486 14.6012L8.74344 15.6058L7.94344 15.6046ZM7.94036 17.7789H7.14036L7.14036 17.7778L7.94036 17.7789ZM7.93105 17.8603L7.19213 18.1669L7.09547 17.9339L7.1499 17.6877L7.93105 17.8603ZM8.09431 17.9836V17.1836L8.09479 17.1836L8.09431 17.9836ZM9.79982 17.9847L9.92561 18.7747L9.86287 18.7847L9.79934 18.7847L9.79982 17.9847ZM9.82555 17.9806L9.69976 17.1905L9.76227 17.1806H9.82555V17.9806ZM9.83621 17.9806V17.1806L9.83903 17.1806L9.83621 17.9806ZM9.98396 17.6454L9.2787 18.023L9.27824 18.0222L9.98396 17.6454ZM10.0465 16.0728L9.34785 15.6832L9.36907 15.6451L9.39429 15.6096L10.0465 16.0728ZM10.2835 15.8231L9.78751 15.1954L9.80759 15.1795L9.82864 15.165L10.2835 15.8231ZM10.9183 15.6051L10.9063 14.8052L10.9194 14.805L10.9324 14.8052L10.9183 15.6051ZM11.5524 15.8267L12.0089 15.1697L12.0318 15.1857L12.0536 15.2032L11.5524 15.8267ZM11.7884 16.078L12.4418 15.6164L12.4676 15.6528L12.4891 15.6919L11.7884 16.078ZM11.843 17.651L11.1374 17.274L11.1389 17.2712L11.843 17.651ZM11.9899 17.1872H12.0001V18.7872H11.9899V17.1872ZM12.137 17.199L12.1636 17.2036L11.8897 18.78L11.8631 18.7754L12.137 17.199ZM12.0305 17.1918L13.7356 17.2L13.7279 18.8L12.0229 18.7918L12.0305 17.1918ZM13.7358 17.2C13.5159 17.1989 13.3471 17.3064 13.2508 17.4204C13.1565 17.532 13.1164 17.6618 13.1159 17.7801L14.7159 17.786C14.7143 18.2089 14.3994 18.8034 13.7278 18.8L13.7358 17.2ZM13.1159 17.7801L13.1235 15.6923L14.7234 15.6981L14.7159 17.7859L13.1159 17.7801ZM13.2468 15.2685C13.4509 14.9447 13.9911 14.599 14.5601 14.9431L13.7322 16.3122C13.8991 16.4131 14.1017 16.431 14.2787 16.3712C14.439 16.317 14.5423 16.2136 14.6002 16.1219L13.2468 15.2685ZM14.5596 14.9427C14.597 14.9653 14.6266 14.9714 14.6506 14.9714V16.5714C14.3118 16.5714 13.9988 16.4732 13.7327 16.3125L14.5596 14.9427ZM14.6521 14.9714C14.6983 14.9715 14.8223 14.9374 14.9117 14.7376C14.9936 14.5546 15.0155 14.2682 14.8312 13.9478L16.2182 13.1501C16.6529 13.906 16.6673 14.7316 16.3721 15.3911C16.0845 16.0339 15.4619 16.5729 14.6492 16.5714L14.6521 14.9714ZM14.8346 13.9536C14.841 13.9645 14.8484 13.9752 14.8574 13.986C14.8664 13.9967 14.8794 14.0105 14.8979 14.0258L15.9164 12.7918C16.0412 12.8948 16.141 13.0184 16.2148 13.1444L14.8346 13.9536ZM14.8995 14.027C14.7803 13.9292 14.7009 13.9119 14.6679 13.9088C14.6355 13.9057 14.6028 13.9116 14.563 13.9354L13.7391 12.5639C14.4045 12.1642 15.2285 12.2269 15.9149 12.7905L14.8995 14.027ZM14.5573 13.9388C14.0407 14.2434 13.5175 13.9875 13.2831 13.6611L14.5825 12.7276C14.5176 12.6373 14.4079 12.5415 14.2482 12.4965C14.0761 12.448 13.8927 12.4733 13.7448 12.5605L14.5573 13.9388ZM13.1328 13.1915L13.1403 11.1169L14.7403 11.1227L14.7328 13.1973L13.1328 13.1915ZM13.1403 11.1168C13.1396 11.3083 13.286 11.6788 13.7236 11.7018L13.8074 10.104C14.4403 10.1371 14.7419 10.698 14.7403 11.1229L13.1403 11.1168ZM13.5885 11.683L13.5299 11.6697L13.884 10.1094L13.9426 10.1227L13.5885 11.683ZM13.7064 11.6896L12.0834 11.6885L12.0844 10.0885L13.7074 10.0896L13.7064 11.6896ZM11.9224 11.6721C11.5639 11.5982 11.332 11.3456 11.2232 11.1056C11.1109 10.8579 11.0901 10.5477 11.2205 10.256L12.6811 10.9091C12.7535 10.7474 12.7408 10.5781 12.6804 10.4449C12.6235 10.3194 12.4873 10.1549 12.2454 10.105L11.9224 11.6721ZM11.2175 10.2628C11.2545 10.178 11.2777 10.0778 11.2782 9.96729L12.8782 9.97371C12.8768 10.3054 12.8069 10.6207 12.6842 10.9022L11.2175 10.2628ZM11.2782 9.96765C11.2789 9.77672 11.2128 9.62674 11.1358 9.53664C11.0606 9.4487 10.9936 9.43317 10.9533 9.43415L10.9145 7.83462C12.1253 7.80518 12.8819 8.91688 12.8782 9.97335L11.2782 9.96765ZM10.9093 9.43401C10.8683 9.43275 10.8017 9.44802 10.7267 9.53482C10.6497 9.62397 10.5831 9.77326 10.583 9.96433L8.98296 9.96338C8.98359 8.90683 9.7451 7.79747 10.9585 7.83476L10.9093 9.43401ZM10.583 9.96385C10.583 10.0781 10.6059 10.1755 10.6399 10.2522L9.17714 10.9005C9.04877 10.6109 8.98296 10.2917 8.98296 9.96385H10.583ZM10.6421 10.2571C10.7688 10.5484 10.7463 10.8573 10.6328 11.1039C10.5225 11.3436 10.2891 11.5949 9.92983 11.6668L9.61573 10.098C9.37401 10.1463 9.23688 10.3099 9.17927 10.4351C9.11849 10.5672 9.10501 10.7348 9.17499 10.8956L10.6421 10.2571ZM9.76874 11.6824L8.14573 11.6742L8.15381 10.0742L9.77682 10.0824L9.76874 11.6824ZM8.30766 11.6585L8.24908 11.6703L7.9333 10.1017L7.99188 10.0899L8.30766 11.6585ZM8.13228 11.6849C8.45185 11.6685 8.62183 11.4475 8.67754 11.308L7.19157 10.7147C7.30408 10.4329 7.59122 10.1106 8.05011 10.087L8.13228 11.6849ZM8.70402 10.7924C8.72614 10.8702 8.75055 10.9818 8.75055 11.1152H7.15055C7.15055 11.176 7.16161 11.218 7.16509 11.2303L8.70402 10.7924ZM8.75055 11.1164L8.74743 13.2585L7.14743 13.2562L7.15055 11.1141L8.75055 11.1164ZM7.77053 14.0375L7.66892 14.0145L8.02272 12.4541L8.12433 12.4771L7.77053 14.0375ZM8.20031 13.9515C7.9605 14.07 7.61146 14.115 7.28121 13.9146L8.11146 12.5468C8.01277 12.4869 7.89442 12.4523 7.77048 12.4527C7.6521 12.453 7.55673 12.4848 7.49133 12.5171L8.20031 13.9515ZM7.33645 13.9452L7.30495 13.9293L8.02472 12.5004L8.05622 12.5162L7.33645 13.9452ZM7.67228 14.0148C7.6576 14.0149 7.64336 14.0161 7.62776 14.0187L7.36378 12.4407C7.46442 12.4238 7.56204 12.4158 7.6574 12.4149L7.67228 14.0148ZM7.60348 14.0224L7.58841 14.0245L7.37297 12.439L7.38805 12.437L7.60348 14.0224ZM7.34222 14.0197L7.32758 14.0171L7.60451 12.4412L7.61915 12.4438L7.34222 14.0197ZM7.29695 14.0111C7.28889 14.0093 7.28217 14.0079 7.2758 14.0065C7.26953 14.0052 7.26435 14.0041 7.25987 14.0032C7.25065 14.0013 7.24631 14.0006 7.2449 14.0003C7.24361 14.0001 7.24726 14.0008 7.25451 14.0015C7.26188 14.0022 7.27403 14.0031 7.28991 14.0031V12.4031C7.4463 12.4031 7.59042 12.4376 7.63514 12.4472L7.29695 14.0111ZM7.29227 14.0031C7.27977 14.0031 7.24341 14.0068 7.19214 14.061C7.13874 14.1175 7.08375 14.2178 7.06877 14.3562L5.47807 14.1839C5.57427 13.2956 6.24992 12.4061 7.28755 12.4031L7.29227 14.0031ZM7.06858 14.3579C7.06474 14.3927 7.06367 14.4131 7.06367 14.4287H5.46367C5.46367 14.3347 5.47057 14.2518 5.47826 14.1822L7.06858 14.3579ZM7.06367 14.4287C7.06367 14.5199 7.08474 14.6365 7.14802 14.7732L5.69605 15.4453C5.54282 15.1143 5.46367 14.7694 5.46367 14.4287H7.06367ZM7.15009 14.7777C7.17249 14.8269 7.18447 14.8516 7.19608 14.8724L5.79887 15.6521C5.7528 15.5695 5.71773 15.493 5.69398 15.4408L7.15009 14.7777ZM7.18699 14.8566C7.17745 14.8404 7.16583 14.8236 7.15132 14.8065C7.137 14.7895 7.1168 14.7686 7.08912 14.7467L6.09569 16.0009C5.96995 15.9013 5.87525 15.7823 5.80796 15.6679L7.18699 14.8566ZM7.09848 14.7542C7.1587 14.8034 7.20347 14.8258 7.2308 14.8362C7.25727 14.8463 7.27488 14.8481 7.28646 14.8481L7.28271 16.4481C6.85843 16.4471 6.4492 16.2898 6.08634 15.9934L7.09848 14.7542ZM7.27759 14.8481C7.28941 14.848 7.29839 14.8469 7.30528 14.8456L7.60731 16.4169C7.50239 16.437 7.39689 16.4472 7.29157 16.4481L7.27759 14.8481ZM7.31783 14.8433L7.33248 14.8407L7.6094 16.4166L7.59476 16.4192L7.31783 14.8433ZM7.57866 14.8359L7.59374 14.838L7.3783 16.4234L7.36322 16.4214L7.57866 14.8359ZM7.63978 14.8456C7.65536 14.8487 7.66946 14.8516 7.68074 14.8539C7.69321 14.8564 7.70023 14.8579 7.70754 14.8594C7.72219 14.8623 7.71939 14.8615 7.71001 14.8602L7.49895 16.4462C7.43245 16.4374 7.33655 16.4166 7.33226 16.4158L7.63978 14.8456ZM7.25883 14.9317C7.26306 14.9297 7.26743 14.9276 7.27059 14.9261C7.27407 14.9245 7.27674 14.9232 7.27916 14.922C7.28403 14.9197 7.28608 14.9187 7.28678 14.9183C7.2882 14.9176 7.28004 14.9216 7.26735 14.9295L8.11285 16.2879C8.03874 16.334 7.96283 16.3686 7.95013 16.3747L7.25883 14.9317ZM7.28159 14.9209C7.67739 14.6858 8.09436 14.7938 8.34761 14.9867L7.37783 16.2593C7.44997 16.3143 7.55589 16.3685 7.69208 16.3836C7.8359 16.3995 7.97937 16.3673 8.0986 16.2965L7.28159 14.9209ZM7.68478 14.8431L7.76551 14.8247L8.12137 16.3846L8.04065 16.403L7.68478 14.8431ZM8.74344 15.6058L8.74036 17.7801L7.14036 17.7778L7.14344 15.6035L8.74344 15.6058ZM8.74036 17.7789C8.74036 17.8736 8.72839 17.9597 8.7122 18.0329L7.1499 17.6877C7.14524 17.7087 7.14036 17.7395 7.14036 17.7789H8.74036ZM8.66996 17.5537C8.61436 17.4197 8.43503 17.1836 8.09431 17.1836V18.7836C7.60806 18.7836 7.30719 18.4442 7.19213 18.1669L8.66996 17.5537ZM8.09479 17.1836L9.8003 17.1847L9.79934 18.7847L8.09383 18.7836L8.09479 17.1836ZM9.67403 17.1946L9.69976 17.1905L9.95134 18.7706L9.92561 18.7747L9.67403 17.1946ZM9.82555 17.1806H9.83621V18.7806H9.82555V17.1806ZM9.83903 17.1806C9.51485 17.1794 9.32516 17.3994 9.26024 17.5486C9.19626 17.6956 9.19631 17.8691 9.2787 18.023L10.6892 17.2678C10.8497 17.5675 10.8484 17.9088 10.7273 18.1871C10.6053 18.4675 10.3027 18.7822 9.83339 18.7806L9.83903 17.1806ZM9.27824 18.0222C8.92101 17.353 8.90236 16.4819 9.34785 15.6832L10.7452 16.4625C10.5571 16.7998 10.5961 17.0934 10.6897 17.2686L9.27824 18.0222ZM9.39429 15.6096C9.50689 15.4511 9.63946 15.3124 9.78751 15.1954L10.7794 16.4509C10.75 16.4741 10.7228 16.5022 10.6988 16.5361L9.39429 15.6096ZM9.82864 15.165C10.1617 14.9348 10.5299 14.8109 10.9063 14.8052L10.9304 16.405C10.8987 16.4055 10.8347 16.4146 10.7383 16.4813L9.82864 15.165ZM10.9324 14.8052C11.3129 14.8119 11.6805 14.9416 12.0089 15.1697L11.0959 16.4837C10.9956 16.414 10.9311 16.4055 10.9043 16.405L10.9324 14.8052ZM12.0536 15.2032C12.1982 15.3195 12.3297 15.4576 12.4418 15.6164L11.135 16.5396C11.1105 16.5049 11.0822 16.4752 11.0512 16.4502L12.0536 15.2032ZM12.4891 15.6919C12.931 16.4938 12.9067 17.3642 12.5471 18.0308L11.1389 17.2712C11.2337 17.0956 11.2741 16.8022 11.0878 16.4641L12.4891 15.6919ZM12.5486 18.028C12.6305 17.8748 12.6304 17.7033 12.5681 17.558C12.5047 17.4105 12.3165 17.1872 11.9899 17.1872V18.7872C11.5182 18.7872 11.2177 18.4685 11.0978 18.1892C10.9789 17.9121 10.9779 17.5725 11.1374 17.274L12.5486 18.028Z" fill="#515151" mask="url(#path-3-inside-2_283_13910)"/>
<path d="M6.44459 10.3811C6.47136 10.2495 6.4857 10.1123 6.4857 9.97152V9.96845C6.4857 9.77997 6.45516 9.61094 6.41959 9.46617L6.41916 9.46442C6.23932 8.74654 5.65601 8.13049 4.87223 8.13049H4.86363L4.86363 8.13058L4.84706 8.13094L4.82517 8.13055L4.81811 8.13043V8.13049C4.03435 8.13049 3.45092 8.74654 3.27155 9.46469L3.27119 9.46617L3.27119 9.46617C3.2359 9.60978 3.20461 9.77915 3.20461 9.96793V9.97152V9.97255V9.97867V10.3787H3.24536C3.24552 10.3795 3.24569 10.3803 3.24585 10.3811L2.40426 10.3793V10.3726L2.26504 10.379L2.24212 10.3789L2.24321 8.69091L2.24328 8.57845L2.18473 8.48242C2.05999 8.27783 1.74344 8.08184 1.41594 8.27784L1.41549 8.27811C1.32118 8.33473 1.22161 8.36319 1.11979 8.36233L1.11832 8.36232C0.879991 8.36119 0.631593 8.19894 0.49381 7.88747C0.359998 7.58498 0.348885 7.16497 0.596255 6.73847C0.606624 6.72135 0.617102 6.71066 0.622278 6.70647L0.622934 6.70594C0.950078 6.43995 1.2245 6.46685 1.42067 6.5854L1.62756 6.24306M6.44459 10.3811L3.83932 3.58925M6.44459 10.3811L7.28609 10.3793M1.62756 6.24306L1.41949 6.58468C1.71717 6.76599 2.02566 6.62312 2.16948 6.42435L2.24533 6.31951L2.24542 6.19011L2.24661 4.28691L3.70242 4.29423L3.74253 4.29443L3.78188 4.28667C3.99166 4.24527 4.13241 4.09696 4.20046 3.94908C4.2702 3.79755 4.28417 3.60747 4.20568 3.42869M1.62756 6.24306C1.59502 6.2234 1.56157 6.20556 1.52731 6.18966M1.62756 6.24306C1.70653 6.29116 1.79395 6.26099 1.84542 6.18986L1.84672 4.11532L1.52731 6.18966M4.20568 3.42869C4.20559 3.42848 4.20549 3.42826 4.2054 3.42805L3.83932 3.58925M4.20568 3.42869C4.20573 3.42881 4.20578 3.42892 4.20583 3.42903L3.83932 3.58925M4.20568 3.42869C4.14777 3.29608 4.11378 3.14311 4.11375 2.97644M3.83932 3.58925C3.75901 3.40554 3.71375 3.19778 3.71375 2.9762M4.11375 2.97644L3.71375 2.9762M4.11375 2.97644C4.1141 2.38479 4.5105 2.03604 4.85195 2.04655L4.86296 2.04688L4.87396 2.04662C5.21707 2.03829 5.61176 2.38986 5.6094 2.9815M4.11375 2.97644C4.11375 2.97636 4.11375 2.97628 4.11375 2.9762H3.71375M3.71375 2.9762L5.6094 2.9815M5.6094 2.9815C5.6094 2.98132 5.6094 2.98114 5.6094 2.98095L6.00939 2.98337C6.0125 2.23625 5.49696 1.63138 4.86426 1.64674L5.6094 2.9815ZM1.52731 6.18966L1.44542 6.18961L1.44544 6.15599C1.12543 6.04078 0.744761 6.09136 0.370592 6.39558C0.324449 6.43294 0.283643 6.48155 0.251698 6.53528C-0.372125 7.60735 0.257433 8.75822 1.11641 8.76232L1.52731 6.18966Z" stroke="#515151" stroke-width="0.8"/>
<mask id="path-6-inside-3_283_13910" fill="white">
<path d="M6.51435 13.3227C6.72599 13.1047 7.00286 12.9706 7.30679 12.9696V13.074V12.9696C7.38044 12.9696 7.44521 12.9845 7.5051 12.9962C7.56633 12.987 7.62711 12.9814 7.68834 12.9809C7.71851 12.9809 7.74868 12.9824 7.77886 12.9855L7.78107 11.0962C7.78107 11.0368 7.74425 10.9938 7.70121 10.9877L7.69545 10.9862L7.68124 10.9856L7.66793 10.98L7.64085 10.9739L6.01031 10.9769L6.0019 10.9754C5.87456 10.9488 5.7867 10.8275 5.77516 10.6858L5.77074 10.6576C5.77074 10.6131 5.77959 10.5676 5.79778 10.5241H5.79691L5.80047 10.5128L5.80268 10.5097C5.875 10.3414 5.91715 10.1531 5.91715 9.95197V9.94889C5.91715 9.83069 5.89807 9.71656 5.86923 9.60193C5.74189 9.09481 5.35277 8.72585 4.88956 8.72585L4.8656 8.72637H4.86296H4.86027L4.83545 8.72585C4.6176 8.72585 4.41749 8.80928 4.25155 8.94898C4.0652 9.10557 3.92279 9.33327 3.85535 9.60193C3.83894 9.66692 3.82739 9.73244 3.81896 9.79845C3.81274 9.84809 3.80743 9.89721 3.80743 9.94787V9.94837V9.95197C3.80743 10.1531 3.84957 10.3414 3.92234 10.5092L3.92455 10.5133L3.92632 10.5184L3.9281 10.5251L3.92767 10.5256C3.94497 10.5681 3.95427 10.6136 3.95427 10.6581L3.94985 10.6832C3.93876 10.8265 3.8509 10.9488 3.72268 10.9754L3.71471 10.9769L2.08416 10.9739L2.07129 10.9769L2.05708 10.98L2.04334 10.9856L2.02956 10.9862C1.98387 10.9882 1.94348 11.0338 1.94304 11.0962L1.94616 13.2091L1.92484 13.2393C1.87382 13.3094 1.7984 13.3544 1.71543 13.3544C1.67373 13.3544 1.63112 13.3432 1.59207 13.3196C1.4532 13.2367 1.29792 13.1891 1.13153 13.1891C0.912352 13.1891 0.673205 13.271 0.432727 13.4685C0.396345 13.4977 0.362197 13.5371 0.337794 13.5806C0.172743 13.8651 0.103516 14.1502 0.103516 14.4137C0.103516 15.0912 0.564521 15.6372 1.12889 15.6383H1.13067C1.29616 15.6383 1.45232 15.5917 1.59164 15.5078C1.62935 15.4853 1.67065 15.474 1.71058 15.474C1.80198 15.474 1.88225 15.5287 1.93195 15.6086L1.95014 15.6372L1.95283 17.7589C1.95283 17.8218 1.99539 17.8689 2.04287 17.8689L3.74174 17.8658L3.76882 17.8612H3.77545H3.78525C3.81275 17.8607 3.83047 17.8495 3.84556 17.8315C3.8602 17.8121 3.87 17.7845 3.87 17.7548L3.85401 17.6898C3.73466 17.4677 3.66587 17.2041 3.66587 16.9217C3.66587 16.6259 3.74218 16.3097 3.91211 16.0021L3.91567 15.9965L3.91878 15.9919C3.99332 15.888 4.07984 15.7974 4.17568 15.7212L4.17789 15.7196L4.1801 15.7176C4.40771 15.56 4.64067 15.4863 4.86119 15.4817H4.86162H4.86383C5.08434 15.4863 5.31682 15.56 5.54444 15.7176L5.54669 15.7191L5.54933 15.7212C5.64517 15.7974 5.73126 15.888 5.80579 15.9919L5.80935 15.997L5.81242 16.0021C5.98236 16.3097 6.05915 16.6259 6.0587 16.9222C6.0587 17.2042 5.99037 17.4677 5.87057 17.6903L5.85415 17.7548C5.85415 17.7845 5.86389 17.8121 5.87898 17.8315C5.89406 17.8495 5.91183 17.8607 5.93933 17.8612H5.95576L5.96195 17.8622L5.98236 17.8658L7.68124 17.8689C7.72915 17.8689 7.77218 17.8218 7.77218 17.7589L7.77487 15.843C7.73671 15.8486 7.69724 15.8527 7.65598 15.8527H7.65507C7.58496 15.8522 7.52994 15.8342 7.48335 15.825C7.42346 15.8358 7.36358 15.843 7.30146 15.843C7.053 15.843 6.789 15.7519 6.53077 15.5503L6.50148 15.5298C6.44691 15.4843 6.39856 15.4274 6.3604 15.3614C6.26324 15.1936 6.19621 15.0227 6.15273 14.8533C6.13942 14.8001 6.12922 14.7473 6.12079 14.6946C6.10527 14.5984 6.09462 14.5027 6.09462 14.4091C6.09462 13.9757 6.25701 13.5867 6.51435 13.3227Z"/>
</mask>
<path d="M7.30679 12.9696L7.3041 12.1696L8.10679 12.1669V12.9696H7.30679ZM7.30679 12.9696H6.50679V12.1696H7.30679V12.9696ZM7.5051 12.9962L7.62412 13.7873L7.48696 13.808L7.35086 13.7812L7.5051 12.9962ZM7.68834 12.9809L7.68166 12.1809H7.68834V12.9809ZM7.77886 12.9855L8.57886 12.9864L8.57782 13.8709L7.69786 13.7814L7.77886 12.9855ZM7.78107 11.0962H8.58107L8.58107 11.0971L7.78107 11.0962ZM7.70121 10.9877L7.58821 11.7797L7.54189 11.7731L7.49665 11.7611L7.70121 10.9877ZM7.69545 10.9862L7.72496 10.1867L7.81394 10.19L7.90001 10.2128L7.69545 10.9862ZM7.68124 10.9856L7.65172 11.7851L7.50502 11.7797L7.36979 11.7225L7.68124 10.9856ZM7.66793 10.98L7.84501 10.1999L7.91411 10.2155L7.97938 10.2431L7.66793 10.98ZM7.64085 10.9739L7.63935 10.1739L7.72976 10.1737L7.81793 10.1937L7.64085 10.9739ZM6.01031 10.9769L6.01181 11.7769L5.93911 11.7771L5.86757 11.7641L6.01031 10.9769ZM6.0019 10.9754L5.85917 11.7626L5.84869 11.7607L5.83826 11.7585L6.0019 10.9754ZM5.77516 10.6858L6.56549 10.5617L6.57011 10.5912L6.57253 10.6209L5.77516 10.6858ZM5.77074 10.6576L4.98042 10.7817L4.97074 10.72V10.6576H5.77074ZM5.79778 10.5241V9.72406H6.9995L6.53583 10.8327L5.79778 10.5241ZM5.79691 10.5241V11.3241H4.70513L5.03409 10.283L5.79691 10.5241ZM5.80047 10.5128L5.03764 10.2718L5.07621 10.1497L5.15093 10.0458L5.80047 10.5128ZM5.80268 10.5097L6.53773 10.8255L6.50323 10.9058L6.45221 10.9768L5.80268 10.5097ZM5.86923 9.60193L5.09341 9.79712L5.09332 9.79676L5.86923 9.60193ZM4.88956 8.72585L4.87205 7.92604L4.88081 7.92585H4.88956V8.72585ZM4.8656 8.72637L4.88312 9.52618L4.87436 9.52637H4.8656V8.72637ZM4.86027 8.72637V9.52637H4.85182L4.84337 9.52619L4.86027 8.72637ZM4.83545 8.72585V7.92585H4.8439L4.85235 7.92603L4.83545 8.72585ZM4.25155 8.94898L4.76678 9.56097L4.76621 9.56145L4.25155 8.94898ZM3.85535 9.60193L4.63128 9.79671L4.63099 9.79786L3.85535 9.60193ZM3.81896 9.79845L3.02514 9.69911L3.0254 9.69711L3.81896 9.79845ZM3.92234 10.5092L3.21819 10.8889L3.20195 10.8588L3.18834 10.8274L3.92234 10.5092ZM3.92455 10.5133L4.62869 10.1336L4.65927 10.1903L4.68038 10.2512L3.92455 10.5133ZM3.92632 10.5184L4.68216 10.2563L4.69169 10.2838L4.69919 10.3119L3.92632 10.5184ZM3.9281 10.5251L4.70097 10.3185L4.80739 10.7167L4.54497 11.0345L3.9281 10.5251ZM3.92767 10.5256L3.18679 10.8274L3.00645 10.3848L3.3108 10.0162L3.92767 10.5256ZM3.95427 10.6581H4.75427V10.7281L4.74211 10.7971L3.95427 10.6581ZM3.94985 10.6832L3.15224 10.6215L3.15524 10.5826L3.16201 10.5443L3.94985 10.6832ZM3.72268 10.9754L3.88525 11.7588L3.8729 11.7612L3.72268 10.9754ZM3.71471 10.9769L3.86493 11.7627L3.78975 11.7771L3.7132 11.7769L3.71471 10.9769ZM2.08416 10.9739L1.89832 10.1958L1.9907 10.1737L2.08567 10.1739L2.08416 10.9739ZM2.07129 10.9769L2.25712 11.7551L2.24878 11.7571L2.24038 11.7589L2.07129 10.9769ZM2.05708 10.98L1.75403 10.2396L1.81918 10.213L1.88798 10.1981L2.05708 10.98ZM2.04334 10.9856L2.34639 11.726L2.21532 11.7797L2.07379 11.7851L2.04334 10.9856ZM2.02956 10.9862L1.99377 10.187L1.99912 10.1867L2.02956 10.9862ZM1.94304 11.0962L1.14301 11.0974L1.14306 11.0905L1.94304 11.0962ZM1.94616 13.2091L2.74616 13.2079L2.74653 13.4626L2.59961 13.6706L1.94616 13.2091ZM1.92484 13.2393L2.57836 13.7008L2.57166 13.7101L1.92484 13.2393ZM1.59207 13.3196L2.00213 12.6327L2.00513 12.6345L1.59207 13.3196ZM0.432727 13.4685L0.940541 14.0868L0.933138 14.0927L0.432727 13.4685ZM0.337794 13.5806L1.03557 13.9721L1.02979 13.982L0.337794 13.5806ZM1.12889 15.6383V16.4383L1.12744 16.4383L1.12889 15.6383ZM1.59164 15.5078L1.17884 14.8225L1.18155 14.8209L1.59164 15.5078ZM1.93195 15.6086L1.25656 16.0374L1.25278 16.0313L1.93195 15.6086ZM1.95014 15.6372L2.6255 15.2084L2.74985 15.4042L2.75014 15.6362L1.95014 15.6372ZM1.95283 17.7589L2.75283 17.7578V17.7589H1.95283ZM2.04287 17.8689L2.04431 18.6689H2.04287V17.8689ZM3.74174 17.8658L3.87635 18.6544L3.81025 18.6657L3.74319 18.6658L3.74174 17.8658ZM3.76882 17.8612L3.63421 17.0726L3.70104 17.0612H3.76882V17.8612ZM3.78525 17.8612L3.80012 18.6611L3.79269 18.6612H3.78525V17.8612ZM3.84556 17.8315L4.48465 18.3127L4.47151 18.3302L4.45744 18.3469L3.84556 17.8315ZM3.87 17.7548L4.64683 17.5637L4.67 17.6578V17.7548H3.87ZM3.85401 17.6898L4.5587 17.3111L4.60665 17.4003L4.63085 17.4987L3.85401 17.6898ZM3.91211 16.0021L3.21189 15.6152L3.22288 15.5953L3.23499 15.5761L3.91211 16.0021ZM3.91567 15.9965L3.23854 15.5704L3.24591 15.5587L3.25368 15.5473L3.91567 15.9965ZM3.91878 15.9919L3.2568 15.5427L3.26269 15.534L3.2688 15.5255L3.91878 15.9919ZM4.17568 15.7212L3.67761 15.0951L3.69897 15.0781L3.72145 15.0626L4.17568 15.7212ZM4.17789 15.7196L4.72182 16.3063L4.67956 16.3455L4.63212 16.3782L4.17789 15.7196ZM4.1801 15.7176L3.63617 15.131L3.67789 15.0923L3.72466 15.0599L4.1801 15.7176ZM4.86119 15.4817L4.84448 14.6818L4.85283 14.6817H4.86119V15.4817ZM4.86383 15.4817V14.6817H4.87218L4.88053 14.6818L4.86383 15.4817ZM5.54444 15.7176L5.09615 16.3803L5.089 16.3753L5.54444 15.7176ZM5.54669 15.7191L5.99494 15.0565L6.01638 15.071L6.03683 15.0868L5.54669 15.7191ZM5.54933 15.7212L6.03951 15.0888L6.04741 15.0951L5.54933 15.7212ZM5.80579 15.9919L6.45586 15.5254L6.46314 15.5359L5.80579 15.9919ZM5.80935 15.997L6.46669 15.541L6.48165 15.5626L6.49517 15.5851L5.80935 15.997ZM5.81242 16.0021L6.49824 15.5902L6.50567 15.6026L6.51265 15.6152L5.81242 16.0021ZM6.0587 16.9222H5.2587L5.25871 16.921L6.0587 16.9222ZM5.87057 17.6903L5.09531 17.4929L5.11955 17.3977L5.16611 17.3112L5.87057 17.6903ZM5.85415 17.7548H5.05415V17.6545L5.07889 17.5574L5.85415 17.7548ZM5.87898 17.8315L5.2671 18.3469L5.25674 18.3346L5.24688 18.3219L5.87898 17.8315ZM5.93933 17.8612V18.6612H5.93189L5.92445 18.6611L5.93933 17.8612ZM5.95576 17.8612V17.0612H6.02145L6.08626 17.0719L5.95576 17.8612ZM5.96195 17.8622L6.09246 17.0729L6.10086 17.0744L5.96195 17.8622ZM5.98236 17.8658L5.98091 18.6658L5.91166 18.6657L5.84345 18.6537L5.98236 17.8658ZM7.68124 17.8689V18.6689L7.67979 18.6689L7.68124 17.8689ZM7.77218 17.7589H6.97218L6.97218 17.7577L7.77218 17.7589ZM7.77487 15.843L7.65812 15.0515L8.57617 14.9161L8.57487 15.8441L7.77487 15.843ZM7.65507 15.8527V16.6527L7.64923 16.6527L7.65507 15.8527ZM7.48335 15.825L7.34208 15.0376L7.49055 15.011L7.63852 15.0402L7.48335 15.825ZM6.53077 15.5503L6.98895 14.8945L7.00637 14.9066L7.02311 14.9197L6.53077 15.5503ZM6.50148 15.5298L6.0433 16.1856L6.01521 16.166L5.9889 16.144L6.50148 15.5298ZM6.3604 15.3614L7.05276 14.9606L7.05302 14.9611L6.3604 15.3614ZM6.15273 14.8533L5.37784 15.0522L5.37663 15.0474L6.15273 14.8533ZM6.12079 14.6946L6.91057 14.5672L6.91075 14.5683L6.12079 14.6946ZM5.94036 12.7654C6.28065 12.4149 6.756 12.1715 7.3041 12.1696L7.30948 13.7696C7.24973 13.7698 7.17133 13.7945 7.08834 13.8799L5.94036 12.7654ZM8.10679 12.9696V13.074H6.50679V12.9696H8.10679ZM6.50679 13.074V12.9696H8.10679V13.074H6.50679ZM7.30679 12.1696C7.47637 12.1696 7.6299 12.2054 7.65935 12.2112L7.35086 13.7812C7.34155 13.7794 7.33223 13.7775 7.32524 13.7761C7.31762 13.7746 7.31178 13.7734 7.3063 13.7723C7.29543 13.7702 7.28979 13.7693 7.28659 13.7688C7.28084 13.7678 7.28977 13.7696 7.30679 13.7696V12.1696ZM7.38609 12.2051C7.47691 12.1915 7.57585 12.1818 7.68166 12.1809L7.69503 13.7809C7.67837 13.781 7.65575 13.7826 7.62412 13.7873L7.38609 12.2051ZM7.68834 12.1809C7.74556 12.1809 7.80277 12.1838 7.85985 12.1896L7.69786 13.7814C7.6946 13.781 7.69147 13.7809 7.68834 13.7809V12.1809ZM6.97886 12.9845L6.98107 11.0952L8.58107 11.0971L8.57886 12.9864L6.97886 12.9845ZM6.98107 11.0962C6.98107 11.3501 7.15844 11.7183 7.58821 11.7797L7.81421 10.1957C8.33005 10.2693 8.58107 10.7236 8.58107 11.0962H6.98107ZM7.49665 11.7611L7.49089 11.7596L7.90001 10.2128L7.90577 10.2143L7.49665 11.7611ZM7.66593 11.7856L7.65172 11.7851L7.71075 10.1862L7.72496 10.1867L7.66593 11.7856ZM7.36979 11.7225L7.35649 11.7169L7.97938 10.2431L7.99268 10.2488L7.36979 11.7225ZM7.49085 11.7602L7.46377 11.754L7.81793 10.1937L7.84501 10.1999L7.49085 11.7602ZM7.64236 11.7739L6.01181 11.7769L6.0088 10.1769L7.63935 10.1739L7.64236 11.7739ZM5.86757 11.7641L5.85917 11.7626L6.14463 10.1883L6.15304 10.1898L5.86757 11.7641ZM5.83826 11.7585C5.27745 11.6413 5.01023 11.1492 4.9778 10.7507L6.57253 10.6209C6.56316 10.5059 6.47167 10.2563 6.16554 10.1923L5.83826 11.7585ZM4.98484 10.8098L4.98042 10.7817L6.56107 10.5336L6.56549 10.5617L4.98484 10.8098ZM4.97074 10.6576C4.97074 10.5075 5.00051 10.357 5.05972 10.2154L6.53583 10.8327C6.55866 10.7781 6.57074 10.7187 6.57074 10.6576H4.97074ZM5.79778 11.3241H5.79691V9.72406H5.79778V11.3241ZM5.03409 10.283L5.03764 10.2718L6.56329 10.7539L6.55974 10.7651L5.03409 10.283ZM5.15093 10.0458L5.15314 10.0427L6.45221 10.9768L6.45 10.9798L5.15093 10.0458ZM5.06762 10.194C5.09886 10.1213 5.11715 10.0401 5.11715 9.95197H6.71715C6.71715 10.266 6.65113 10.5615 6.53773 10.8255L5.06762 10.194ZM5.11715 9.95197V9.94889H6.71715V9.95197H5.11715ZM5.11715 9.94889C5.11715 9.91721 5.11218 9.87175 5.09341 9.79712L6.64505 9.40674C6.68395 9.56136 6.71715 9.74416 6.71715 9.94889H5.11715ZM5.09332 9.79676C5.0646 9.6824 5.01159 9.60604 4.96704 9.56552C4.92557 9.52779 4.89944 9.52585 4.88956 9.52585V7.92585C5.8169 7.92585 6.4546 8.64828 6.64514 9.4071L5.09332 9.79676ZM4.90708 9.52566L4.88312 9.52618L4.84809 7.92656L4.87205 7.92604L4.90708 9.52566ZM4.8656 9.52637H4.86296V7.92637H4.8656V9.52637ZM4.86296 9.52637H4.86027V7.92637H4.86296V9.52637ZM4.84337 9.52619L4.81854 9.52567L4.85235 7.92603L4.87718 7.92655L4.84337 9.52619ZM4.83545 9.52585C4.83023 9.52585 4.82435 9.52658 4.81537 9.53009C4.80554 9.53393 4.78869 9.54253 4.76678 9.56097L3.73632 8.33698C4.02601 8.0931 4.40393 7.92585 4.83545 7.92585V9.52585ZM4.76621 9.56145C4.71722 9.60262 4.66052 9.6802 4.63128 9.79671L3.07943 9.40715C3.18506 8.98634 3.41319 8.60851 3.73689 8.3365L4.76621 9.56145ZM4.63099 9.79786C4.62399 9.82557 4.61776 9.85867 4.61251 9.89979L3.0254 9.69711C3.03701 9.60621 3.05388 9.50827 3.07971 9.406L4.63099 9.79786ZM4.61276 9.89779C4.6101 9.91912 4.60876 9.93145 4.608 9.94039C4.6073 9.94866 4.60743 9.95037 4.60743 9.94787H3.00743C3.00743 9.84439 3.01831 9.75373 3.02515 9.69911L4.61276 9.89779ZM4.60743 9.94787V9.94837H3.00743V9.94787H4.60743ZM4.60743 9.94837V9.95197H3.00743V9.94837H4.60743ZM4.60743 9.95197C4.60743 10.0403 4.62576 10.1205 4.65633 10.191L3.18834 10.8274C3.07338 10.5622 3.00743 10.2659 3.00743 9.95197H4.60743ZM4.62648 10.1295L4.62869 10.1336L3.2204 10.893L3.21819 10.8889L4.62648 10.1295ZM4.68038 10.2512L4.68216 10.2563L3.17049 10.7806L3.16871 10.7755L4.68038 10.2512ZM4.69919 10.3119L4.70097 10.3185L3.15523 10.7317L3.15345 10.725L4.69919 10.3119ZM4.54497 11.0345L4.54454 11.035L3.3108 10.0162L3.31123 10.0157L4.54497 11.0345ZM4.66854 10.2238C4.72259 10.3564 4.75427 10.5042 4.75427 10.6581H3.15427C3.15427 10.723 3.16735 10.7797 3.18679 10.8274L4.66854 10.2238ZM4.74211 10.7971L4.7377 10.8221L3.16201 10.5443L3.16643 10.5192L4.74211 10.7971ZM4.74747 10.7449C4.71664 11.1432 4.4515 11.6412 3.88523 11.7587L3.56012 10.1921C3.25031 10.2564 3.16088 10.5098 3.15224 10.6215L4.74747 10.7449ZM3.8729 11.7612L3.86493 11.7627L3.56448 10.1912L3.57245 10.1897L3.8729 11.7612ZM3.7132 11.7769L2.08265 11.7739L2.08567 10.1739L3.71621 10.1769L3.7132 11.7769ZM2.26999 11.752L2.25712 11.7551L1.88546 10.1988L1.89832 10.1958L2.26999 11.752ZM2.24038 11.7589L2.22617 11.7619L1.88798 10.1981L1.9022 10.195L2.24038 11.7589ZM2.36013 11.7204L2.34639 11.726L1.7403 10.2453L1.75403 10.2396L2.36013 11.7204ZM2.07379 11.7851L2.06001 11.7856L1.99912 10.1867L2.0129 10.1862L2.07379 11.7851ZM2.06536 11.7854C2.56041 11.7632 2.74133 11.3391 2.74302 11.1019L1.14306 11.0905C1.14563 10.7284 1.40732 10.2132 1.99377 10.187L2.06536 11.7854ZM2.74304 11.095L2.74616 13.2079L1.14616 13.2103L1.14304 11.0974L2.74304 11.095ZM2.59961 13.6706L2.5783 13.7008L1.27138 12.7778L1.2927 12.7476L2.59961 13.6706ZM2.57166 13.7101C2.40046 13.9453 2.10183 14.1544 1.71543 14.1544V12.5544C1.49497 12.5544 1.34717 12.6735 1.27801 12.7685L2.57166 13.7101ZM1.71543 14.1544C1.52868 14.1544 1.34319 14.1037 1.17902 14.0047L2.00513 12.6345C1.91905 12.5826 1.81877 12.5544 1.71543 12.5544V14.1544ZM1.18202 14.0065C1.16755 13.9979 1.15682 13.9938 1.14991 13.9918C1.14334 13.9899 1.13767 13.9891 1.13153 13.9891V12.3891C1.45569 12.3891 1.7513 12.483 2.00213 12.6327L1.18202 14.0065ZM1.13153 13.9891C1.12326 13.9891 1.106 13.9904 1.07766 14.0013C1.04857 14.0125 1.00196 14.0363 0.940505 14.0867L-0.0750506 12.8504C0.286979 12.553 0.701047 12.3891 1.13153 12.3891V13.9891ZM0.933138 14.0927C0.955974 14.0744 0.974415 14.056 0.989653 14.0381C1.00493 14.0202 1.02065 13.9985 1.03549 13.972L-0.359906 13.1892C-0.283884 13.0537 -0.181895 12.9359 -0.0676834 12.8444L0.933138 14.0927ZM1.02979 13.982C0.934248 14.1467 0.903516 14.2936 0.903516 14.4137H-0.696484C-0.696484 14.0067 -0.588763 13.5835 -0.3542 13.1792L1.02979 13.982ZM0.903516 14.4137C0.903516 14.5733 0.958113 14.6948 1.01728 14.7653C1.0753 14.8344 1.11887 14.8382 1.13034 14.8383L1.12744 16.4383C-0.00223044 16.4362 -0.696484 15.3973 -0.696484 14.4137H0.903516ZM1.12889 14.8383H1.13067V16.4383H1.12889V14.8383ZM1.13067 14.8383C1.13776 14.8383 1.14395 14.8373 1.15037 14.8355C1.15701 14.8336 1.16652 14.8299 1.17884 14.8225L2.00444 16.1931C1.74848 16.3472 1.45066 16.4383 1.13067 16.4383V14.8383ZM1.18155 14.8209C1.33849 14.7272 1.52081 14.674 1.71058 14.674V16.274C1.82048 16.274 1.92021 16.2433 2.00174 16.1947L1.18155 14.8209ZM1.71058 14.674C2.14043 14.674 2.45152 14.9294 2.61111 15.1858L1.25278 16.0313C1.31298 16.1281 1.46352 16.274 1.71058 16.274V14.674ZM2.6073 15.1797L2.6255 15.2084L1.27479 16.0661L1.25659 16.0374L2.6073 15.1797ZM2.75014 15.6362L2.75283 17.7578L1.15283 17.7599L1.15014 15.6382L2.75014 15.6362ZM2.75283 17.7589C2.75283 17.5127 2.55915 17.0689 2.04287 17.0689V18.6689C1.43164 18.6689 1.15283 18.1309 1.15283 17.7589H2.75283ZM2.04142 17.0689L3.7403 17.0658L3.74319 18.6658L2.04431 18.6689L2.04142 17.0689ZM3.60713 17.0772L3.63421 17.0726L3.90343 18.6498L3.87635 18.6544L3.60713 17.0772ZM3.76882 17.0612H3.77545V18.6612H3.76882V17.0612ZM3.77545 17.0612H3.78525V18.6612H3.77545V17.0612ZM3.77037 17.0613C3.67282 17.0632 3.56003 17.086 3.4487 17.1443C3.34175 17.2004 3.27228 17.2703 3.23368 17.3162L4.45744 18.3469C4.32359 18.5058 4.10101 18.6555 3.80012 18.6611L3.77037 17.0613ZM3.20647 17.3503C3.11278 17.4748 3.07 17.6174 3.07 17.7548H4.67C4.67 17.9515 4.60762 18.1494 4.48465 18.3127L3.20647 17.3503ZM3.09316 17.9459L3.07717 17.8809L4.63085 17.4987L4.64683 17.5637L3.09316 17.9459ZM3.14932 18.0685C2.96611 17.7276 2.86587 17.3336 2.86587 16.9217H4.46587C4.46587 17.0747 4.5032 17.2078 4.5587 17.3111L3.14932 18.0685ZM2.86587 16.9217C2.86587 16.4874 2.97807 16.0384 3.21189 15.6152L4.61233 16.389C4.50629 16.5809 4.46587 16.7644 4.46587 16.9217H2.86587ZM3.23499 15.5761L3.23854 15.5704L4.59279 16.4225L4.58924 16.4281L3.23499 15.5761ZM3.25368 15.5473L3.2568 15.5427L4.58077 16.4411L4.57765 16.4457L3.25368 15.5473ZM3.2688 15.5255C3.38604 15.3621 3.52357 15.2177 3.67761 15.0951L4.67376 16.3472C4.63612 16.3771 4.60061 16.4139 4.56877 16.4583L3.2688 15.5255ZM3.72145 15.0626L3.72366 15.0611L4.63212 16.3782L4.62991 16.3797L3.72145 15.0626ZM3.63396 15.133L3.63617 15.131L4.72403 16.3042L4.72182 16.3063L3.63396 15.133ZM3.72466 15.0599C4.0689 14.8215 4.45241 14.69 4.84448 14.6818L4.87789 16.2815C4.82894 16.2825 4.74652 16.2984 4.63554 16.3753L3.72466 15.0599ZM4.86119 14.6817H4.86162V16.2817H4.86119V14.6817ZM4.86162 14.6817H4.86383V16.2817H4.86162V14.6817ZM4.88053 14.6818C5.27294 14.69 5.65594 14.8217 5.99987 15.0599L5.089 16.3753C4.97771 16.2982 4.89574 16.2825 4.84712 16.2815L4.88053 14.6818ZM5.99269 15.055L5.99494 15.0565L5.09843 16.3817L5.09618 16.3802L5.99269 15.055ZM6.03683 15.0868L6.03947 15.0889L5.05919 16.3534L5.05655 16.3514L6.03683 15.0868ZM6.04741 15.0951C6.2025 15.2185 6.33934 15.3632 6.45578 15.5255L5.15581 16.4583C5.12317 16.4128 5.08784 16.3763 5.05126 16.3472L6.04741 15.0951ZM6.46314 15.5359L6.46669 15.541L5.152 16.4529L5.14845 16.4478L6.46314 15.5359ZM6.49517 15.5851L6.49824 15.5902L5.12661 16.414L5.12353 16.4089L6.49517 15.5851ZM6.51265 15.6152C6.7461 16.0377 6.85936 16.4871 6.8587 16.9234L5.25871 16.921C5.25894 16.7648 5.21861 16.5816 5.1122 16.389L6.51265 15.6152ZM6.8587 16.9222C6.8587 17.333 6.75919 17.7272 6.57504 18.0694L5.16611 17.3112C5.22154 17.2082 5.2587 17.0754 5.2587 16.9222H6.8587ZM6.64583 17.8877L6.62941 17.9522L5.07889 17.5574L5.09531 17.4929L6.64583 17.8877ZM6.65415 17.7548C6.65415 17.6185 6.61171 17.4709 6.51107 17.3412L5.24688 18.3219C5.11608 18.1533 5.05415 17.9505 5.05415 17.7548H6.65415ZM6.49086 17.3162C6.45198 17.27 6.38241 17.2001 6.27553 17.1441C6.16435 17.0859 6.05172 17.0632 5.95421 17.0613L5.92445 18.6611C5.62406 18.6555 5.40132 18.5063 5.2671 18.3469L6.49086 17.3162ZM5.93933 17.0612H5.95576V18.6612H5.93933V17.0612ZM6.08626 17.0719L6.09245 17.0729L5.83145 18.6515L5.82525 18.6505L6.08626 17.0719ZM6.10086 17.0744L6.12126 17.078L5.84345 18.6537L5.82305 18.6501L6.10086 17.0744ZM5.98381 17.0658L7.68268 17.0689L7.67979 18.6689L5.98091 18.6658L5.98381 17.0658ZM7.68124 17.0689C7.17243 17.0689 6.97218 17.5044 6.97218 17.7589H8.57218C8.57218 18.1392 8.28588 18.6689 7.68124 18.6689V17.0689ZM6.97218 17.7577L6.97487 15.8418L8.57487 15.8441L8.57218 17.76L6.97218 17.7577ZM7.89162 16.6344C7.83073 16.6434 7.74964 16.6527 7.65598 16.6527V15.0527C7.64483 15.0527 7.6427 15.0538 7.65812 15.0515L7.89162 16.6344ZM7.65598 16.6527H7.65507V15.0527H7.65598V16.6527ZM7.64923 16.6527C7.5466 16.6519 7.46166 16.6383 7.40283 16.6264C7.37507 16.6209 7.35047 16.6151 7.3385 16.6123C7.32215 16.6085 7.324 16.609 7.32818 16.6098L7.63852 15.0402C7.65353 15.0432 7.66678 15.0461 7.67682 15.0484C7.68649 15.0505 7.69596 15.0527 7.70146 15.054C7.70803 15.0556 7.71156 15.0564 7.7146 15.0571C7.71735 15.0577 7.71823 15.0578 7.71795 15.0578C7.7158 15.0574 7.69343 15.0529 7.6609 15.0527L7.64923 16.6527ZM7.62463 16.6125C7.53478 16.6286 7.42532 16.643 7.30146 16.643V15.043C7.30183 15.043 7.31213 15.043 7.34208 15.0376L7.62463 16.6125ZM7.30146 16.643C6.84875 16.643 6.41548 16.4752 6.03843 16.1808L7.02311 14.9197C7.16252 15.0285 7.25724 15.043 7.30146 15.043V16.643ZM6.07259 16.2061L6.0433 16.1856L6.95966 14.874L6.98895 14.8945L6.07259 16.2061ZM5.9889 16.144C5.86196 16.0381 5.75277 15.9088 5.66778 15.7618L7.05302 14.9611C7.04435 14.9461 7.03185 14.9304 7.01407 14.9156L5.9889 16.144ZM5.66805 15.7622C5.53236 15.5278 5.43851 15.2885 5.37785 15.0522L6.9276 14.6544C6.95391 14.7568 6.99411 14.8593 7.05276 14.9606L5.66805 15.7622ZM5.37663 15.0474C5.35648 14.9668 5.342 14.8908 5.33083 14.821L6.91075 14.5683C6.91645 14.6039 6.92235 14.6333 6.92882 14.6592L5.37663 15.0474ZM5.33102 14.8221C5.31173 14.7027 5.29462 14.5611 5.29462 14.4091H6.89462C6.89462 14.4444 6.8988 14.4942 6.91057 14.5672L5.33102 14.8221ZM5.29462 14.4091C5.29462 13.7792 5.53021 13.1863 5.94143 12.7643L7.08727 13.8811C6.98381 13.9872 6.89462 14.1721 6.89462 14.4091H5.29462Z" fill="#515151" mask="url(#path-6-inside-3_283_13910)"/>
</svg>
