<svg width="27" height="22" viewBox="0 0 27 22" fill="none" xmlns="http://www.w3.org/2000/svg">
<path d="M25.8093 10.3379C25.3083 9.93565 24.7469 9.61003 24.1606 9.35008C23.6597 9.12843 22.9359 8.99435 22.5891 8.53192C21.923 7.64261 23.4148 6.31003 23.7285 5.48366C24.1827 4.28789 24.4001 2.84858 23.7478 1.68291C22.8643 0.104056 20.8551 -0.399427 19.3194 0.336643C19.7487 0.733409 20.1175 1.19585 20.4093 1.71575C21.345 3.38764 21.3726 5.50555 20.4863 7.83963C20.2964 8.34311 19.9771 8.80281 19.6414 9.29261C19.4735 9.53615 19.1983 9.93565 19.0469 10.2257C19.1955 10.2886 19.3799 10.3543 19.5093 10.4008C19.7239 10.4774 19.9441 10.5541 20.1671 10.6526C21.0698 11.0521 21.8872 11.5419 22.5946 12.1083C23.0047 12.4366 23.8964 13.1508 24.3753 14.1906C25.4625 14.0237 26.5414 13.6488 26.8909 12.7486C26.968 12.5488 26.9982 12.3354 26.9982 12.122C27.001 11.3832 26.3542 10.7757 25.8093 10.3379Z" fill="current"/>
<path d="M21.5752 13.3669C20.9477 12.8634 20.2431 12.453 19.5055 12.1273C18.878 11.8482 17.9697 11.6813 17.5321 11.0985C16.6982 9.98206 18.5697 8.30744 18.9633 7.27037C19.533 5.76813 19.8055 3.96216 18.9881 2.50097C17.9532 0.651216 15.6908 -0.0219178 13.8248 0.645744C14.3395 1.11092 14.7771 1.65818 15.1184 2.26564C15.7156 3.33281 15.9853 4.56415 15.9248 5.93231C15.878 6.99127 15.6303 8.11589 15.1899 9.27336C14.9752 9.83704 14.6092 10.3679 14.2211 10.9316C13.9789 11.2845 13.7284 11.6485 13.5523 11.9714C13.4587 12.1465 13.4064 12.2696 13.3789 12.349C13.5826 12.4694 13.9817 12.6089 14.2156 12.691C14.4633 12.7786 14.722 12.8689 14.9752 12.9811C16.0211 13.4435 16.9679 14.0099 17.7853 14.6666C18.1872 14.9868 18.7734 15.4848 19.2468 16.1032C19.7505 16.7572 20.0477 17.4385 20.1358 18.139C21.3743 17.901 22.5358 17.4221 22.9376 16.3905C23.034 16.1388 23.0725 15.8706 23.0725 15.6052C23.0725 14.6776 22.2606 13.9142 21.5752 13.3669Z" fill="current"/>
<path d="M18.5426 18.5797C18.5426 17.4825 17.5793 16.5767 16.7674 15.9255C16.0215 15.329 15.1876 14.8419 14.3151 14.4561C13.572 14.1277 12.4931 13.928 11.9757 13.2384C10.9848 11.9168 13.2059 9.93022 13.6738 8.70162C14.3481 6.92301 14.6729 4.78047 13.7041 3.04838C12.0885 0.161569 7.9463 -0.309077 5.68392 2.09067C4.47566 3.37401 4.21144 5.05684 4.48392 6.74241C4.64905 7.75759 4.96006 8.75908 5.43621 9.67301C5.84355 10.4556 6.97749 11.3887 6.97749 12.2862C6.97749 13.9772 4.62428 14.2673 3.45731 14.9049C2.18851 15.5999 0.424285 16.771 0.113276 18.3061C-0.376632 19.7837 1.33805 20.8454 2.4775 21.2175C5.3619 22.1561 8.65639 22.0466 11.6564 21.8989C13.5802 21.8031 17.5078 21.7648 18.383 19.5128C18.4986 19.2145 18.5426 18.8971 18.5426 18.5797Z" fill="current"/>
</svg>
