<svg width="28" height="25" viewBox="0 0 28 25" fill="none" xmlns="http://www.w3.org/2000/svg">
<g clip-path="url(#clip0_1931_104052)">
<path d="M5.6 13.8889C2.506 13.8889 0 16.375 0 19.4444C0 22.5139 2.506 25 5.6 25C8.694 25 11.2 22.5139 11.2 19.4444C11.2 16.375 8.694 13.8889 5.6 13.8889ZM5.6 22.2222C4.06 22.2222 2.8 20.9722 2.8 19.4444C2.8 17.9167 4.06 16.6667 5.6 16.6667C7.14 16.6667 8.4 17.9167 8.4 19.4444C8.4 20.9722 7.14 22.2222 5.6 22.2222ZM5.6 0C2.506 0 0 2.48611 0 5.55556C0 8.625 2.506 11.1111 5.6 11.1111C8.694 11.1111 11.2 8.625 11.2 5.55556C11.2 2.48611 8.694 0 5.6 0ZM14 2.77778H28V5.55556H14V2.77778ZM14 22.2222V19.4444H28V22.2222H14ZM14 11.1111H28V13.8889H14V11.1111Z" fill="#515151"/>
</g>
<defs>
<clipPath id="clip0_1931_104052">
<rect width="28" height="25" fill="white"/>
</clipPath>
</defs>
</svg>
