<svg width="473" height="244" viewBox="0 0 473 244" fill="none" xmlns="http://www.w3.org/2000/svg">
<g clip-path="url(#clip0_1963_125085)">
<path d="M351.682 90.9782C351.682 90.9782 355.982 88.2778 362.724 96.2848C369.466 104.292 372.253 109.026 372.253 109.026C372.253 109.026 373.973 110.683 375.401 109.398C376.83 108.113 378.573 104.652 381.345 105.035C384.117 105.418 385.468 107.753 385.399 111.314C385.33 114.876 385.576 122.694 385.599 123.396C385.622 124.097 386.267 125.064 387.426 124.309C388.586 123.555 394.936 116.863 398.89 119.368C402.845 121.874 400.541 131.75 400.318 132.865C400.096 133.979 400.418 134.38 401.086 134.592C401.754 134.805 403.636 132.399 405.54 130.554C407.444 128.708 410.086 126.821 412.205 128.413C414.324 130.005 415.898 137.175 408.511 149.61L404.595 155.2L396.31 155.494C378.511 155.3 370.741 151.143 369.773 149.009C368.806 146.874 372.153 145.836 375.148 145.3C378.143 144.763 381.759 144.51 381.805 143.938C381.851 143.366 381.491 142.959 380.116 142.647C378.742 142.334 366.095 139.699 364.843 135.884C363.592 132.069 374.181 130.524 375.593 130.046C377.006 129.569 376.108 128.696 375.302 128.384C374.495 128.071 365.389 124.557 361.165 123.077C356.942 121.597 354.738 119.74 355.506 117.576C356.274 115.412 361.058 115.76 363.185 115.318C365.312 114.876 364.099 112.959 364.099 112.959C364.099 112.959 359.737 109.009 353.18 100.896C346.622 92.7824 351.782 90.9252 351.782 90.9252" fill="#EBEBEB"/>
<path d="M406.062 156.249C401.217 150.306 392.379 139.846 384.847 130.843C377.314 121.839 370.511 113.679 365.65 107.753L359.876 100.731L358.34 98.8205L357.926 98.3252C357.833 98.2132 357.78 98.1602 357.78 98.1602L357.902 98.337C358.002 98.455 358.133 98.626 358.294 98.8382L359.83 100.766C361.158 102.441 363.109 104.852 365.535 107.842C370.38 113.791 377.16 121.957 384.693 130.967C392.226 139.976 401.087 150.424 405.97 156.32" fill="#E0E0E0"/>
<path d="M379.148 109.958C379.08 110.103 379.031 110.253 379.002 110.406C378.918 110.695 378.818 111.114 378.695 111.633C378.457 112.67 378.181 114.109 377.927 115.707C377.674 117.305 377.428 118.702 377.252 119.787C377.167 120.276 377.09 120.689 377.037 121.025C376.997 121.175 376.976 121.327 376.975 121.479C377.056 121.339 377.111 121.19 377.136 121.037C377.213 120.748 377.313 120.329 377.428 119.811C377.651 118.767 377.912 117.322 378.196 115.73C378.48 114.138 378.726 112.741 378.91 111.65L379.14 110.418C379.169 110.266 379.172 110.111 379.148 109.958Z" fill="#E0E0E0"/>
<path d="M376.211 121.651C376.211 121.598 372.372 121.026 367.626 120.365C362.881 119.705 359.011 119.221 359.003 119.274C358.996 119.328 362.843 119.905 367.58 120.56C372.318 121.214 376.196 121.704 376.211 121.651Z" fill="#E0E0E0"/>
<path d="M388.594 135.082C388.39 135.065 388.184 135.065 387.979 135.082L386.336 135.218C384.939 135.33 383.019 135.477 380.884 135.583C378.75 135.689 376.822 135.737 375.425 135.76H373.766C373.563 135.75 373.359 135.761 373.16 135.796C373.36 135.823 373.563 135.836 373.766 135.837C374.158 135.837 374.726 135.837 375.425 135.837C376.83 135.837 378.765 135.837 380.907 135.719C383.05 135.601 384.969 135.448 386.359 135.3C387.05 135.224 387.611 135.159 387.995 135.1C388.195 135.108 388.395 135.102 388.594 135.082Z" fill="#E0E0E0"/>
<path d="M394.273 124.952C394.168 125.073 394.078 125.201 394.005 125.335L393.337 126.397C392.791 127.293 392.047 128.543 391.24 129.934C390.434 131.326 389.705 132.582 389.213 133.472L388.63 134.557C388.545 134.688 388.483 134.827 388.445 134.97C388.558 134.851 388.651 134.723 388.722 134.587L389.382 133.525C389.927 132.629 390.672 131.379 391.478 129.987C392.285 128.596 393.014 127.346 393.506 126.45C393.736 126.025 393.936 125.66 394.089 125.365C394.174 125.234 394.236 125.095 394.273 124.952Z" fill="#E0E0E0"/>
<path d="M407.164 135.748C407.029 135.9 406.913 136.062 406.819 136.232L405.959 137.594C405.252 138.743 404.285 140.335 403.225 142.104C402.165 143.873 401.236 145.477 400.56 146.644C400.246 147.198 399.985 147.664 399.793 148.03C399.684 148.196 399.596 148.37 399.532 148.549C399.667 148.394 399.782 148.23 399.877 148.059L400.737 146.703C401.444 145.524 402.411 143.956 403.471 142.187C404.53 140.418 405.467 138.814 406.135 137.647L406.903 136.267C407.009 136.1 407.096 135.926 407.164 135.748Z" fill="#E0E0E0"/>
<path d="M399.602 148.201C399.346 148.186 399.089 148.186 398.834 148.201L396.737 148.313C394.964 148.407 392.514 148.525 389.827 148.602C387.139 148.678 384.667 148.702 382.916 148.708H380.812C380.557 148.691 380.3 148.691 380.044 148.708C380.298 148.74 380.555 148.757 380.812 148.761C381.304 148.761 382.025 148.802 382.916 148.814C384.69 148.814 387.147 148.814 389.827 148.767C392.507 148.72 394.987 148.543 396.737 148.419L398.826 148.242C399.086 148.244 399.345 148.231 399.602 148.201Z" fill="#E0E0E0"/>
<path d="M419.322 113.466C419.284 114.438 419.356 115.411 419.537 116.373C420.005 119.122 421.177 121.773 422.985 124.174L423.062 124.067H422.9L422.977 124.174L444.477 153.46L444.608 153.643L444.761 153.466L467.49 125.618L468.611 124.244L468.787 124.032H468.457L468.611 124.244C470.333 121.974 471.494 119.48 472.036 116.886C472.311 115.622 472.426 114.34 472.381 113.059L472.243 111.167C472.12 110.542 471.997 109.922 471.882 109.303C470.662 104.554 467.391 100.26 462.599 97.1159C460.361 95.692 457.838 94.5551 455.127 93.7491L454.137 93.4661L453.645 93.3246L453.139 93.2185L451.134 92.8175C449.811 92.6223 448.472 92.4982 447.126 92.4461C445.829 92.3927 444.528 92.4104 443.233 92.4992C442.596 92.5404 441.974 92.6466 441.352 92.7114L440.431 92.8293C440.131 92.8765 439.832 92.9473 439.532 93.0062L437.774 93.3718L436.107 93.8612C435.831 93.9437 435.555 94.0145 435.286 94.1029L434.518 94.4036L432.982 94.9932C429.475 96.5566 426.46 98.6947 424.152 101.255C422.434 103.188 421.137 105.323 420.313 107.576C420.014 108.396 419.788 109.232 419.637 110.076C419.493 110.689 419.406 111.31 419.376 111.933C419.376 112.428 419.376 112.812 419.322 113.083C419.268 113.354 419.322 113.472 419.322 113.472C419.322 113.472 419.322 113.336 419.322 113.083C419.322 112.829 419.368 112.434 419.407 111.939C419.453 111.318 419.55 110.699 419.698 110.088C419.864 109.249 420.1 108.42 420.405 107.605C421.24 105.374 422.536 103.259 424.244 101.343C426.561 98.8095 429.576 96.6979 433.074 95.1583L434.61 94.5687L435.378 94.2798C435.639 94.1855 435.916 94.1206 436.192 94.0381L437.843 93.5546L439.586 93.2008C439.878 93.1418 440.169 93.0711 440.469 93.0239L441.383 92.9119C441.997 92.847 442.611 92.7468 443.241 92.7055C444.518 92.6215 445.801 92.6077 447.08 92.6642C448.411 92.7163 449.735 92.8405 451.042 93.0357L453.023 93.4366L453.522 93.5428L454.006 93.6784L454.981 93.9614C457.669 94.7547 460.172 95.8778 462.391 97.2869C467.128 100.402 470.354 104.656 471.544 109.356C471.659 109.946 471.782 110.577 471.897 111.19C472.012 111.803 471.989 112.434 472.028 113.065C472.072 114.33 471.958 115.596 471.69 116.845C471.152 119.402 470.007 121.863 468.311 124.103L468.15 124.315H468.465L468.311 124.103C467.958 124.539 467.544 125.005 467.198 125.477L444.485 153.342H444.769C435.724 141.125 428.176 130.936 423.138 124.109L423.054 124.215H423.223L423.146 124.109C421.335 121.726 420.141 119.097 419.629 116.367C419.453 115.429 419.407 114.698 419.361 114.215C419.361 113.973 419.361 113.79 419.361 113.661C419.361 113.531 419.322 113.466 419.322 113.466Z" fill="#E0E0E0"/>
<path d="M428.964 113.207C428.972 113.139 428.972 113.069 428.964 113.001C428.964 112.847 428.964 112.647 429.026 112.411C429.026 112.276 429.026 112.128 429.026 111.963C429.026 111.798 429.095 111.615 429.133 111.421C429.212 110.973 429.33 110.53 429.487 110.094C429.88 108.891 430.507 107.74 431.345 106.68C433.323 104.126 436.398 102.18 440.041 101.179C443.685 100.177 447.669 100.181 451.309 101.191C452.054 101.394 452.78 101.637 453.482 101.916C454.191 102.214 454.874 102.549 455.525 102.918C456.188 103.298 456.819 103.71 457.414 104.151C458.001 104.613 458.548 105.106 459.049 105.625C460.085 106.699 460.892 107.893 461.437 109.162C462.578 111.778 462.578 114.607 461.437 117.222C460.907 118.493 460.108 119.689 459.072 120.76C458.576 121.283 458.035 121.779 457.452 122.246C456.858 122.688 456.23 123.101 455.571 123.484C454.92 123.855 454.238 124.192 453.528 124.492C452.873 124.758 452.196 124.991 451.501 125.188C447.863 126.209 443.877 126.227 440.224 125.24C436.571 124.252 433.478 122.321 431.475 119.776C430.624 118.721 429.989 117.571 429.594 116.368C429.432 115.933 429.311 115.489 429.233 115.041C429.233 114.846 429.149 114.669 429.118 114.504V114.05C429.118 113.797 429.072 113.59 429.057 113.461C429.065 113.39 429.065 113.319 429.057 113.248C429.046 113.319 429.046 113.39 429.057 113.461C429.057 113.614 429.057 113.814 429.057 114.05V114.504C429.057 114.669 429.118 114.852 429.149 115.047C429.219 115.5 429.329 115.949 429.479 116.391C429.859 117.61 430.48 118.778 431.322 119.852C433.331 122.454 436.461 124.436 440.171 125.453C443.881 126.471 447.938 126.46 451.639 125.424C453.181 125.009 454.629 124.412 455.932 123.655C456.611 123.269 457.255 122.847 457.859 122.393C458.441 121.915 458.979 121.407 459.471 120.872C460.527 119.781 461.346 118.567 461.898 117.276C462.45 115.94 462.74 114.549 462.758 113.148C462.733 111.746 462.433 110.354 461.867 109.021C461.31 107.733 460.486 106.522 459.425 105.436C458.911 104.905 458.352 104.401 457.751 103.927C457.141 103.479 456.495 103.062 455.816 102.677C455.15 102.302 454.452 101.961 453.728 101.656C453.007 101.382 452.263 101.145 451.501 100.949C447.793 99.9272 443.737 99.9326 440.034 100.964C436.331 101.995 433.214 103.988 431.222 106.598C430.391 107.678 429.778 108.849 429.402 110.07C429.253 110.51 429.148 110.957 429.087 111.409C429.087 111.609 429.011 111.786 428.995 111.957C428.98 112.128 428.995 112.27 428.995 112.405C428.995 112.665 428.995 112.871 428.995 113.024C428.978 113.085 428.968 113.146 428.964 113.207Z" fill="#E0E0E0"/>
<path d="M446.108 119.239L455.883 114.009L453.502 111.391L446.953 114.899L438.475 106.627L435.212 108.602L446.108 119.239Z" fill="#E0E0E0"/>
<path fill-rule="evenodd" clip-rule="evenodd" d="M172.709 22.3288C169.852 22.6025 167.055 23.1676 164.393 24.0092L158.288 20.0823L147.8 26.2144L151.101 31.7804C149.337 33.526 147.881 35.4432 146.771 37.482L138.839 38.0186L137.065 48.0421L144.528 50.1824C144.879 52.3891 145.618 54.5491 146.724 56.6034L141.603 61.3203L149.589 69.3804L156.837 66.8392C159.109 68.1962 161.606 69.3146 164.262 70.1646L164.961 76.2554L178.015 77.6174L180.802 71.8863C183.664 71.6003 186.464 71.0213 189.126 70.1646L195.268 74.0915L205.757 67.9594L202.448 62.3934C204.217 60.65 205.673 58.7324 206.779 56.6918L214.711 56.1553L216.484 46.1317L209.028 43.9855C208.668 41.7935 207.93 39.6481 206.832 37.6058L211.931 32.8948L203.953 24.8346L196.697 27.3759C194.424 26.0197 191.927 24.9014 189.271 24.0505L188.573 17.9597L175.519 16.5977L172.732 22.3288H172.709ZM176.61 36.1612C179.529 36.2336 182.347 36.998 184.678 38.3497C187.008 39.7013 188.737 41.5739 189.626 43.7102C190.515 45.8465 190.521 48.1418 189.643 50.2808C188.766 52.4198 187.047 54.2977 184.723 55.6566C182.4 57.0155 179.585 57.7887 176.667 57.8701C173.748 57.9514 170.868 57.3369 168.422 56.111C165.976 54.8851 164.085 53.1078 163.007 51.0233C161.93 48.9387 161.719 46.6492 162.404 44.469C163.168 42.0417 164.998 39.8906 167.585 38.3776C170.172 36.8645 173.359 36.0818 176.61 36.1612Z" fill="#F5F5F5"/>
<path fill-rule="evenodd" clip-rule="evenodd" d="M291.674 54.3981C289.827 54.5789 288.02 54.9477 286.299 55.4947L282.337 52.9417L275.526 56.9216L277.668 60.536C276.522 61.6692 275.577 62.9144 274.858 64.2388L269.706 64.5867L268.562 71.0725L273.399 72.464C273.636 73.8821 274.117 75.2699 274.827 76.5914L271.503 79.6338L276.67 84.905L281.377 83.26C282.852 84.1396 284.474 84.8634 286.199 85.4121L286.652 89.3684L295.099 90.2529L296.911 86.5324C298.758 86.355 300.566 85.9881 302.286 85.4416L306.248 87.9946L313.059 84.0147L310.909 80.4003C312.058 79.2686 313.003 78.0231 313.719 76.6975L318.872 76.3496L320.023 69.8343L315.178 68.4487C314.946 67.0306 314.468 65.6426 313.758 64.3214L317.129 61.2612L311.946 56.0313L307.239 57.6763C305.765 56.797 304.146 56.0714 302.424 55.5183L301.971 51.562L293.486 50.707L291.674 54.4216V54.3981ZM294.223 63.378C296.128 63.4197 297.969 63.9137 299.492 64.792C301.016 65.6703 302.148 66.8896 302.732 68.2822C303.316 69.6748 303.323 71.1721 302.753 72.5681C302.182 73.964 301.063 75.1899 299.548 76.077C298.033 76.964 296.197 77.4687 294.293 77.5214C292.389 77.5741 290.51 77.1723 288.916 76.3714C287.322 75.5704 286.09 74.4096 285.39 73.0489C284.691 71.6881 284.557 70.1943 285.009 68.773C285.509 67.1998 286.697 65.806 288.374 64.8241C290.051 63.8423 292.115 63.3318 294.223 63.378Z" fill="#EBEBEB"/>
<path d="M220.52 102.004C219.391 102.389 218.353 102.915 217.448 103.561C214.908 105.307 213.232 107.673 212.703 110.259C212.327 112.046 212.506 113.876 213.225 115.601C214.061 117.588 215.575 119.368 217.609 120.754C218.699 121.509 219.935 122.13 221.272 122.594C222.656 123.1 224.136 123.432 225.657 123.578C228.873 123.919 232.147 123.455 234.994 122.256C237.842 121.058 240.111 119.187 241.467 116.922C242.128 115.86 242.561 114.723 242.749 113.555C242.954 112.437 242.936 111.302 242.695 110.188C242.264 108.127 241.124 106.191 239.394 104.581C237.886 103.188 235.97 102.089 233.804 101.373C230.673 100.321 227.165 100.133 223.875 100.843C222.68 101.092 221.546 101.49 220.52 102.022C220.566 102.093 221.694 101.556 223.96 101.12C227.171 100.524 230.55 100.771 233.558 101.821C235.603 102.535 237.402 103.608 238.81 104.952C240.433 106.496 241.493 108.344 241.881 110.306C242.306 112.473 241.887 114.689 240.676 116.674C239.384 118.804 237.24 120.562 234.557 121.692C231.873 122.821 228.79 123.263 225.756 122.953C224.316 122.82 222.914 122.509 221.602 122.034C220.329 121.602 219.153 121.019 218.116 120.306C216.291 119.086 214.892 117.534 214.047 115.793C213.202 114.051 212.938 112.175 213.279 110.335C213.756 107.834 215.304 105.525 217.678 103.773C219.375 102.511 220.581 102.069 220.52 102.004Z" fill="#EBEBEB"/>
<path d="M204.68 92.8183C204.651 92.6869 204.613 92.557 204.565 92.4291C204.465 92.1402 204.334 91.7511 204.165 91.2499L202.507 86.6214L202.445 86.7393L214.608 81.6862L214.347 81.6509L219.853 86.474L219.953 86.5624L220.098 86.5329C223.011 85.9919 226.003 85.748 228.998 85.8077H229.167L229.251 85.6957C230.518 83.9268 231.893 82.0577 233.329 80.0884L232.975 80.2004L246.244 83.1957L246.006 82.9303C245.837 84.9174 245.66 87.099 245.476 89.3395V89.5046L245.66 89.5871C248.202 90.7756 250.526 92.2191 252.571 93.8796L252.725 94.0034L252.94 93.9562L260.979 92.1874L260.541 92.0518L267.214 101.415L267.299 101.038L261.041 105.289L260.856 105.413L260.91 105.595C261.611 107.81 261.923 110.086 261.839 112.364V112.553L262.062 112.647L269.372 115.766L269.172 115.395L265.302 125.589L265.732 125.359L257.393 124.964H257.132L257.002 125.135C255.46 127.086 253.588 128.87 251.435 130.442C251.381 130.589 251.542 130.118 251.312 130.772V130.807V130.855V130.955L251.389 131.149L251.535 131.533L251.819 132.311L252.402 133.856C252.786 134.888 253.17 135.914 253.546 136.934L253.754 136.556L241.629 141.668L242.144 141.733L236.607 136.934L236.5 136.792L236.254 136.839C233.359 137.388 230.382 137.64 227.401 137.588H227.147L227.032 137.753C225.655 139.652 224.304 141.525 222.978 143.372L223.446 143.225L210.17 140.277L210.446 140.583C210.615 138.414 210.784 136.273 210.946 134.18V133.997L210.746 133.909C208.187 132.728 205.845 131.291 203.781 129.634L203.628 129.51L203.413 129.557L195.389 131.326L195.796 131.456L189.115 122.158L189.046 122.464L195.289 118.201L195.427 118.107L195.389 117.971C194.66 115.742 194.324 113.448 194.391 111.15V111.02L194.245 110.955L186.927 107.859L187.042 108.084C188.516 104.127 189.776 100.76 190.881 97.8772L190.682 97.9774L199.028 98.3312H199.113L199.159 98.2781C200.311 96.7825 201.654 95.3783 203.167 94.086L204.304 93.1426C204.439 93.0433 204.564 92.9369 204.68 92.8242C204.531 92.9086 204.389 93.0012 204.258 93.1013C203.981 93.2959 203.574 93.5907 203.06 94.0093C201.495 95.2827 200.108 96.6778 198.921 98.172L199.044 98.119L190.705 97.6885H190.559L190.513 97.8065C189.399 100.684 188.102 104.045 186.581 107.989L186.528 108.137L186.704 108.207L193.999 111.344L193.853 111.15C193.769 113.487 194.092 115.823 194.813 118.095L194.913 117.859L188.639 122.105L188.44 122.234L188.57 122.411L195.197 131.733L195.335 131.922L195.604 131.863L203.643 130.094L203.275 130.017C205.376 131.717 207.765 133.193 210.377 134.404L210.193 134.139C210.024 136.234 209.85 138.368 209.671 140.542V140.784L209.97 140.849L223.239 143.832L223.554 143.903L223.707 143.685L227.769 138.072L227.401 138.237C230.456 138.296 233.509 138.042 236.477 137.482L236.062 137.382L241.598 142.187L241.821 142.382L242.113 142.258L254.245 137.152L254.545 137.028L254.445 136.774C254.066 135.756 253.685 134.732 253.301 133.703L252.725 132.152L252.433 131.379L252.287 130.99L252.218 130.796L252.18 130.701V130.648V130.613C251.949 131.267 252.118 130.796 252.064 130.937C254.274 129.318 256.193 127.48 257.77 125.471L257.378 125.631L265.725 126.02H266.062L266.155 125.772L269.994 115.578L270.086 115.33L269.794 115.206L262.484 112.099L262.691 112.382C262.768 110.037 262.435 107.695 261.701 105.418L261.57 105.725C263.743 104.245 265.878 102.777 267.828 101.468L268.059 101.303L267.913 101.091L261.24 91.7864L261.094 91.5801L260.803 91.6449L252.778 93.4138L253.147 93.4904C251.034 91.8006 248.641 90.3317 246.029 89.1213L246.198 89.369C246.367 87.1343 246.536 84.9468 246.689 82.9657V82.7593L246.428 82.7004L233.144 79.7523L232.914 79.6992L232.799 79.8643C231.378 81.8336 230.019 83.7322 228.76 85.4834L229.013 85.3773C225.971 85.3248 222.934 85.5866 219.983 86.1556L220.229 86.2145L214.67 81.4268L214.555 81.3266L214.401 81.3914L202.315 86.5506L202.215 86.5919V86.6744C202.983 88.6497 203.582 90.1768 203.996 91.2322L204.465 92.4114C204.52 92.5518 204.592 92.688 204.68 92.8183Z" fill="#EBEBEB"/>
<path d="M172.171 103.478L184.219 66.6856L135.191 66.0605L172.171 103.478Z" fill="#EBEBEB"/>
<path d="M149.989 73.1971L166.828 90.2383L77.0791 142.53L60.2402 125.488L149.989 73.1971Z" fill="#EBEBEB"/>
<path d="M84.4621 197.523L78.2347 208.366C78.2347 208.366 90.5205 216.868 89.5991 218.979L61.7871 210.459L70.5868 193.26L84.4621 197.523Z" fill="#F4A72A"/>
<path opacity="0.5" d="M84.4621 197.523L78.2347 208.366C78.2347 208.366 90.5205 216.868 89.5991 218.979L61.7871 210.459L70.5868 193.26L84.4621 197.523Z" fill="black"/>
<path d="M61.7848 210.452L62.76 208.725L89.0668 217.569C89.0668 217.569 90.088 218.359 89.6043 218.99L61.7848 210.452Z" fill="#263238"/>
<path d="M35.4885 212.894L27.6871 223.123C27.6871 223.123 38.606 232.64 37.4082 234.668L11.04 223.772L22.3352 207.428L35.4885 212.894Z" fill="#F4A72A"/>
<path opacity="0.5" d="M35.4885 212.894L27.6871 223.123C27.6871 223.123 38.606 232.64 37.4082 234.668L11.04 223.772L22.3352 207.428L35.4885 212.894Z" fill="black"/>
<path d="M11.0406 223.742L12.2845 222.133L37.0864 233.182C37.0864 233.182 37.9847 234.061 37.4089 234.639L11.0406 223.742Z" fill="#263238"/>
<path d="M69.5053 69.4389L86.5978 70.4648L87.166 63.1181C87.166 63.1181 94.0768 63.0415 95.0903 57.8705C96.1039 52.6995 97.1328 40.6831 97.1328 40.6831C93.5295 39.0042 89.4078 38.0944 85.1935 38.0478C80.9792 38.0011 76.8252 38.8193 73.1603 40.4178L72.0546 40.9012L69.5053 69.4389Z" fill="#FFBE9D"/>
<path d="M87.1875 63.0413C84.0641 62.7508 81.1239 61.7533 78.741 60.1758C78.741 60.1758 80.2307 64.2442 87.0493 64.5036L87.1875 63.0413Z" fill="#EB996E"/>
<path d="M71.8984 46.3501C71.7909 46.297 67.4527 44.7935 66.9536 48.3548C66.4545 51.9161 71.2074 51.5623 71.2304 51.4621C71.2535 51.3619 71.8984 46.3501 71.8984 46.3501Z" fill="#FFBE9D"/>
<path d="M70.0044 49.993C70.0044 49.993 69.92 50.0284 69.7741 50.0696C69.575 50.1157 69.3604 50.1009 69.1752 50.0284C68.8893 49.8605 68.6672 49.6369 68.5321 49.3807C68.397 49.1246 68.354 48.8453 68.4073 48.572C68.4356 48.2667 68.5537 47.9704 68.7528 47.7053C68.8127 47.598 68.9053 47.5033 69.023 47.4294C69.1406 47.3555 69.2797 47.3045 69.4285 47.2807C69.5245 47.2699 69.6223 47.2851 69.7051 47.3239C69.7879 47.3627 69.8503 47.4225 69.8816 47.493C69.9277 47.5932 69.8816 47.664 69.8816 47.6699C69.8816 47.6758 69.9891 47.6227 69.9737 47.4694C69.9598 47.3795 69.9055 47.2961 69.8202 47.2336C69.764 47.1903 69.6969 47.1565 69.6228 47.1341C69.5488 47.1118 69.4696 47.1015 69.3902 47.1038C69.1958 47.1179 69.0093 47.1696 68.8481 47.2542C68.6869 47.3387 68.5564 47.4534 68.4687 47.5873C68.2274 47.8784 68.0825 48.2104 68.0464 48.5543C67.9804 48.8694 68.037 49.1925 68.2091 49.4831C68.3813 49.7736 68.6612 50.0187 69.0139 50.1876C69.136 50.2292 69.2691 50.2482 69.4024 50.2431C69.5358 50.2379 69.6657 50.2088 69.7818 50.1581C69.9891 50.0814 70.0198 50.0048 70.0044 49.993Z" fill="#EB996E"/>
<path d="M94.2233 48.8203C94.1888 49.0129 94.0581 49.1875 93.8589 49.3075C93.6597 49.4274 93.4076 49.4832 93.1559 49.463C93.032 49.4579 92.9107 49.4336 92.7994 49.3916C92.688 49.3496 92.5889 49.2908 92.5078 49.2186C92.4268 49.1465 92.3656 49.0626 92.3278 48.9718C92.2901 48.8811 92.2766 48.7854 92.2881 48.6906C92.319 48.4975 92.4473 48.3213 92.6454 48.2001C92.8436 48.0788 93.0958 48.022 93.3478 48.042C93.4724 48.048 93.5941 48.0729 93.7058 48.1155C93.8176 48.158 93.9172 48.2173 93.9987 48.2898C94.0803 48.3623 94.1421 48.4466 94.1807 48.5377C94.2193 48.6288 94.2337 48.7249 94.2233 48.8203Z" fill="#263238"/>
<path d="M94.5262 47.8299C94.388 47.9124 93.7583 47.4171 92.6987 47.311C91.6391 47.2049 90.8252 47.5174 90.7331 47.4054C90.6409 47.2933 90.8406 47.1931 91.2015 47.0457C91.6957 46.8576 92.2528 46.7897 92.7986 46.8511C93.3378 46.908 93.8401 47.0936 94.2344 47.3818C94.5185 47.6058 94.5876 47.7945 94.5262 47.8299Z" fill="#263238"/>
<path d="M84.1373 47.9243C84.1028 48.1168 83.9722 48.2915 83.773 48.4114C83.5738 48.5314 83.3218 48.5871 83.07 48.567C82.9465 48.561 82.8258 48.5362 82.715 48.4939C82.6041 48.4517 82.5054 48.3929 82.4246 48.3209C82.3438 48.249 82.2825 48.1653 82.2443 48.075C82.2061 47.9846 82.1919 47.8892 82.2024 47.7946C82.2351 47.6021 82.3638 47.4268 82.5615 47.3058C82.7592 47.1848 83.0103 47.1275 83.262 47.146C83.3865 47.1519 83.5082 47.1769 83.6199 47.2194C83.7317 47.262 83.8313 47.3213 83.9128 47.3937C83.9943 47.4662 84.0562 47.5505 84.0948 47.6416C84.1333 47.7327 84.1478 47.8288 84.1373 47.9243Z" fill="#263238"/>
<path d="M84.3043 46.8741C84.1661 46.9626 83.5365 46.4673 82.4768 46.3553C81.4172 46.2432 80.6109 46.5616 80.5111 46.4555C80.4113 46.3494 80.6186 46.2432 80.9872 46.0958C81.4766 45.9028 82.0326 45.8327 82.5767 45.8954C83.1173 45.9527 83.6202 46.1406 84.0125 46.4319C84.2967 46.656 84.3734 46.8388 84.3043 46.8741Z" fill="#263238"/>
<path d="M86.9834 53.1831C87.555 53.116 88.1348 53.1001 88.7111 53.136C88.9799 53.136 89.2409 53.136 89.31 52.9945C89.363 52.797 89.3389 52.5919 89.2409 52.4048C89.0873 51.886 88.9184 51.3376 88.7418 50.7716C88.2557 49.3818 87.9167 47.964 87.7282 46.5322C88.3585 47.8877 88.8463 49.2797 89.1872 50.6949L89.6479 52.3341C89.7736 52.5967 89.7736 52.8851 89.6479 53.1478C89.5964 53.2154 89.5253 53.2729 89.44 53.3159C89.3548 53.3589 89.2577 53.3861 89.1565 53.3954C89.0063 53.4132 88.8536 53.4132 88.7034 53.3954C88.1207 53.3811 87.5427 53.3098 86.9834 53.1831Z" fill="#263238"/>
<path d="M83.832 53.4077C84.0009 53.4077 83.832 54.2804 84.6997 54.9997C85.5674 55.719 86.7652 55.7485 86.7499 55.8723C86.7345 55.9961 86.4504 56.0138 85.9436 55.9667C85.2843 55.903 84.6753 55.6629 84.2236 55.2886C83.7883 54.9291 83.5539 54.4527 83.571 53.962C83.594 53.5964 83.7552 53.3959 83.832 53.4077Z" fill="#263238"/>
<path d="M85.1463 43.7849C85.0004 43.9912 83.9869 43.7849 82.7506 43.7849C81.5144 43.7849 80.4471 43.9146 80.3549 43.7023C80.3012 43.6021 80.5085 43.4134 80.9461 43.2483C81.5197 43.043 82.149 42.946 82.7813 42.9653C83.4141 42.9775 84.0346 43.1026 84.5935 43.3309C85.0081 43.496 85.2308 43.6905 85.1463 43.7849Z" fill="#263238"/>
<path d="M94.5581 45.4831C94.3431 45.6423 93.6597 45.3829 92.8074 45.2767C91.955 45.1706 91.1949 45.2296 91.0643 45.0232C91.0106 44.923 91.1565 44.752 91.502 44.6164C91.9653 44.4534 92.4828 44.404 92.984 44.4748C93.4888 44.5329 93.9566 44.7125 94.3201 44.9878C94.5888 45.206 94.6579 45.4006 94.5581 45.4831Z" fill="#263238"/>
<path d="M101.017 37.7647C101.121 37.4481 101.119 37.1166 101.013 36.8005C100.907 36.4843 100.7 36.1936 100.411 35.9546C100.106 35.7301 99.707 35.5957 99.2854 35.5752C98.8638 35.5547 98.4463 35.6494 98.107 35.8426C98.2089 35.6329 98.2525 35.4092 98.235 35.1858C98.2176 34.9624 98.1395 34.7443 98.0057 34.5455C97.8719 34.3467 97.6854 34.1716 97.4582 34.0314C97.231 33.8913 96.9681 33.7892 96.6864 33.7317C95.596 33.5608 94.5364 34.0973 93.4307 34.2034C92.3467 34.2568 91.2694 34.0396 90.3593 33.5843C89.4148 33.1716 88.5625 32.6409 87.6027 32.2518C85.5782 31.4225 83.2092 31.2403 81.0107 31.7449C78.8122 32.2495 76.962 33.4 75.8621 34.9464C75.1357 34.7201 74.3366 34.67 73.572 34.8028C72.8074 34.9356 72.1141 35.245 71.5852 35.6893C70.5402 36.598 69.9735 37.7731 69.9957 38.9853C69.9959 39.7944 70.1118 40.6011 70.3413 41.3909C70.3413 41.4558 70.3413 41.5206 70.3029 41.5914C69.8498 44.4451 69.6579 47.8355 71.232 48.0241C73.9886 48.3543 74.0577 44.2918 74.0577 44.2918C77.6282 43.6551 77.0831 39.622 78.0352 39.1268C78.9873 38.6315 81.0145 37.4463 87.5873 40.99C90.0575 42.1813 92.9539 42.7445 95.8648 42.5996H96.0491H96.0952H96.1566C96.8191 42.5447 97.4667 42.4114 98.0762 42.2046C98.7952 41.9826 99.4032 41.5901 99.8116 41.0843C100.007 40.83 100.103 40.5376 100.086 40.2425C100.07 39.9473 99.9426 39.6622 99.7194 39.4216C100.354 38.9786 100.805 38.4026 101.017 37.7647Z" fill="#263238"/>
<path d="M87.1875 67.6171L86.4273 88.1831L69.7648 60.6419L70.1795 58.0889L87.1875 67.6171Z" fill="#EBEBEB"/>
<path d="M76.137 129.085C76.7436 129.239 111.458 156.179 110.691 161.019C109.923 165.86 85.2208 201.703 85.2208 201.703L67.5601 195.034L84.092 163.62L83.877 161.668L63.6747 148.962L64.7574 128.537L76.137 129.085Z" fill="#263238"/>
<path d="M68.6641 134.397C68.2571 134.863 62.2524 177.186 60.6399 179.374C59.0274 181.561 34.9014 217.699 34.9014 217.699L16.9872 212.156L38.8558 172.446L36.368 134.863L37.7117 124.25L64.7634 128.537L68.6641 134.397Z" fill="#263238"/>
<path d="M60.9479 178.654C61.0056 178.516 61.0442 178.374 61.0631 178.23C61.1322 177.923 61.2166 177.516 61.3241 177.009C61.5391 175.913 61.8463 174.386 62.2148 172.511C62.9289 168.672 63.9118 163.43 65.0021 157.64C66.0925 151.85 66.9832 146.591 67.6743 142.758C67.9891 140.872 68.2502 139.339 68.4421 138.242L68.6264 137.01C68.6454 136.866 68.6454 136.722 68.6264 136.579C68.6264 136.579 68.5803 136.726 68.5112 137.004C68.4421 137.281 68.3577 137.717 68.2502 138.224L67.3671 142.729C66.6453 146.561 65.6625 151.803 64.5798 157.599C63.4971 163.395 62.5911 168.643 61.9077 172.481C61.5852 174.362 61.3241 175.895 61.1398 176.992C61.063 177.505 60.9939 177.917 60.9479 178.224C60.9291 178.367 60.9291 178.511 60.9479 178.654Z" fill="#455A64"/>
<path d="M39.3085 171.231C39.5351 172.37 39.8844 173.492 40.3528 174.586C40.7016 175.706 41.1743 176.801 41.7656 177.859C41.5309 176.727 41.1739 175.613 40.6983 174.527C40.3629 173.399 39.8978 172.296 39.3085 171.231Z" fill="#455A64"/>
<path d="M36.5981 180.819C36.9994 180.515 37.3316 180.162 37.581 179.775C38.9181 177.946 39.4992 175.849 39.2473 173.761C39.2283 173.33 39.1141 172.906 38.9094 172.505C39.3327 175.394 38.5244 178.312 36.6058 180.819H36.5981Z" fill="#455A64"/>
<path d="M89.8401 159.05C87.6912 159.7 85.9285 160.934 84.8873 162.517C84.9795 162.564 85.8395 161.603 87.1909 160.654C88.5424 159.704 89.9245 159.126 89.8401 159.05Z" fill="#455A64"/>
<path d="M87.1484 157.8C86.4304 158.18 85.845 158.691 85.4438 159.286C84.9286 159.829 84.5938 160.46 84.4686 161.125C84.9414 160.582 85.3746 160.019 85.7663 159.439C86.266 158.913 86.7274 158.365 87.1484 157.8Z" fill="#455A64"/>
<path d="M84.7516 96.054L80.321 112.953L76.7121 136.537C76.7121 136.537 61.8311 134.939 55.4886 133.401C48.1325 131.632 32.1304 130.087 32.1304 130.087L34.8332 132.139C29.105 130.906 25.4577 126.714 25.4577 126.714C35.317 119.692 43.7634 105.211 43.7634 105.211L51.2654 76.6025C51.2654 76.6025 52.4018 72.5695 53.0929 70.7711C53.7839 68.9728 65.1712 63.1886 66.753 62.4575L67.7436 62.0978L68.0584 59.8042L69.2332 59.2617L81.5496 67.8643C83.9505 69.5346 85.4764 71.8194 85.8419 74.2911C86.3626 77.8631 86.5422 81.4596 86.3795 85.0517C86.2336 88.442 84.7516 96.054 84.7516 96.054Z" fill="#F4A72A"/>
<path d="M76.2932 66.7921C76.2932 66.7921 82.8046 69.4749 83.9334 71.7508C85.0621 74.0267 81.7066 98.9795 81.7066 98.9795L105.103 99.3214L105.195 110.023C105.195 110.023 68.0387 112.281 66.5875 110.736C64.6371 108.649 62.3642 89.1505 62.3642 89.1505L61.5196 75.1175C61.5196 75.1175 63.6466 64.4218 76.2932 66.7921Z" fill="#F4A72A"/>
<g opacity="0.3">
<path opacity="0.3" d="M80.3207 112.953C77.2943 113.68 74.1017 113.907 70.9528 113.619C67.6588 113.389 64.3033 112.004 63.0593 109.645C62.1072 107.847 62.5064 105.812 62.3606 103.873C62.23 102.18 61.6925 100.529 61.3547 98.8609C61.0168 97.1922 62.1225 94.1439 62.8904 92.5225C62.8904 92.5225 63.7197 104.103 66.0847 108.967C66.3478 109.646 66.8468 110.258 67.5282 110.736C68.3652 111.255 69.517 111.325 70.5997 111.384C73.5866 111.626 80.7891 111.225 80.7891 111.225" fill="black"/>
</g>
<path d="M61.5371 76.6504C61.5272 76.7367 61.5272 76.8235 61.5371 76.9098C61.5371 77.0867 61.5371 77.3343 61.5755 77.6527C61.5755 78.3249 61.6753 79.286 61.7521 80.5183C61.8289 81.7506 61.9441 83.2895 62.067 85.0525C62.1898 86.8154 62.2819 88.8378 62.566 91.0548C62.8502 93.2718 63.1189 95.701 63.4798 98.3071C63.8407 100.913 64.2477 103.696 64.9004 106.603C65.0538 107.346 65.2692 108.081 65.5453 108.802C65.8645 109.558 66.4491 110.231 67.2346 110.748C68.0417 111.283 69.0795 111.566 70.1448 111.544C71.1737 111.544 72.2103 111.544 73.2162 111.544C77.3934 111.462 81.7087 111.302 86.1316 111.114C92.7735 110.837 99.1852 110.524 105.151 110.194H105.32V110.064C105.32 106.261 105.267 102.682 105.236 99.3744V99.2505H105.075L82.4919 98.8791L76.1802 98.7965H74.5139C74.1376 98.7965 73.9457 98.7965 73.9457 98.7965C73.9457 98.7965 74.1376 98.7965 74.5139 98.826L76.1725 98.8791L82.4919 99.0324L105.067 99.51L104.906 99.3862C104.906 102.688 104.906 106.267 104.952 110.07L105.128 109.929C99.1467 110.241 92.7428 110.559 86.1086 110.837C81.6934 111.019 77.378 111.19 73.2086 111.273C72.1643 111.273 71.1354 111.302 70.1371 111.273C69.154 111.301 68.1936 111.042 67.4496 110.548C66.7161 110.066 66.1712 109.437 65.8755 108.732C65.6052 108.023 65.3924 107.302 65.2382 106.574C64.5855 103.679 64.1709 100.896 63.7793 98.3189C63.3877 95.7423 63.0882 93.2954 62.8195 91.0784C62.5507 88.8614 62.4202 86.8449 62.2666 85.082C62.113 83.319 61.9901 81.8037 61.8903 80.5537C61.7905 79.3037 61.6984 78.3603 61.637 77.694C61.637 77.3756 61.5832 77.1044 61.5602 76.9452C61.5675 76.8466 61.5598 76.7476 61.5371 76.6504Z" fill="#263238"/>
<path d="M100.588 109.864C100.769 108.138 100.823 106.405 100.749 104.675C100.8 102.943 100.723 101.211 100.519 99.4863C100.338 101.212 100.284 102.944 100.358 104.675C100.308 106.406 100.384 108.139 100.588 109.864Z" fill="#263238"/>
<path d="M103.062 101.114C103.108 101.114 102.878 100.89 102.432 101.008C102.302 101.043 102.188 101.106 102.103 101.19C102.019 101.273 101.968 101.374 101.956 101.48C101.936 101.611 101.97 101.744 102.055 101.86C102.139 101.976 102.268 102.069 102.424 102.125C102.581 102.181 102.756 102.198 102.926 102.173C103.095 102.148 103.25 102.083 103.369 101.987C103.468 101.917 103.541 101.828 103.582 101.73C103.622 101.632 103.628 101.527 103.599 101.427C103.492 101.085 103.185 101.014 103.177 101.049C103.169 101.085 103.323 101.208 103.331 101.45C103.333 101.514 103.317 101.577 103.284 101.635C103.25 101.693 103.201 101.745 103.139 101.786C103.064 101.834 102.974 101.865 102.878 101.876C102.782 101.888 102.684 101.879 102.594 101.851C102.509 101.818 102.437 101.767 102.387 101.705C102.337 101.642 102.31 101.571 102.309 101.497C102.311 101.436 102.335 101.375 102.376 101.323C102.418 101.27 102.477 101.226 102.547 101.197C102.816 101.073 103.039 101.149 103.062 101.114Z" fill="#263238"/>
<path d="M51.1562 79.0557C51.1562 79.0557 38.978 91.2785 37.496 94.6039C36.0141 97.9294 37.1582 102.717 39.6383 105.005C42.1185 107.293 44.115 106.361 44.115 106.361L51.1562 79.0557Z" fill="#F4A72A"/>
<path d="M44.5376 105.382C45.5298 105.657 46.5607 105.841 47.6091 105.93C48.6303 106.115 49.6774 106.202 50.7266 106.19C49.7348 105.914 48.7037 105.73 47.6551 105.641C46.6339 105.457 45.5868 105.369 44.5376 105.382Z" fill="#263238"/>
<path d="M42.2344 114.386C42.097 114.591 41.9864 114.806 41.9042 115.028C41.7199 115.453 41.4435 116.054 41.0826 116.797C40.1369 118.733 39.0447 120.625 37.8115 122.464C36.5696 124.297 35.2062 126.08 33.7265 127.805C33.1583 128.472 32.69 128.985 32.3598 129.368C32.172 129.55 32.0123 129.748 31.8837 129.958C32.1081 129.802 32.309 129.628 32.4826 129.439C32.8435 129.091 33.3503 128.578 33.9493 127.923C35.5059 126.229 36.9117 124.456 38.1571 122.617C39.4028 120.771 40.4655 118.855 41.336 116.886C41.6662 116.131 41.9119 115.512 42.0501 115.081C42.1513 114.857 42.2133 114.623 42.2344 114.386Z" fill="#263238"/>
<g opacity="0.3">
<path opacity="0.3" d="M41.3906 115.836C39.4556 118.477 37.4745 121.143 34.5413 123.188C33.4316 123.835 32.4263 124.582 31.5466 125.411C30.7788 126.29 30.4179 127.516 31.1704 128.418C31.2826 128.587 31.4587 128.725 31.6754 128.814C31.8921 128.904 32.139 128.94 32.3836 128.92C32.7045 128.825 32.9749 128.651 33.1514 128.424C36.8244 124.792 39.568 120.659 41.237 116.243" fill="black"/>
</g>
<g opacity="0.3">
<path opacity="0.3" d="M42.9993 106.314C41.333 105.394 40.7494 103.649 40.9952 102.08C41.2409 100.512 42.1777 99.0733 43.0146 97.6405C45.5446 93.3562 47.5273 88.8935 48.9348 84.3151L50.125 80.9248L44.105 105.099L42.9993 106.314Z" fill="black"/>
</g>
<path d="M73.125 65.7065C72.4067 65.0892 71.6373 64.5082 70.8215 63.9671C70.1016 63.3417 69.3323 62.751 68.5179 62.1982C69.0306 62.933 69.7062 63.5934 70.5143 64.1499C71.2516 64.7884 72.1368 65.3162 73.125 65.7065Z" fill="#263238"/>
<path d="M74.3523 67.8057C74.3523 67.8587 75.0587 68.0238 76.1337 68.4307C78.9554 69.5056 81.2283 71.2738 82.5914 73.4542C83.1135 74.2856 83.3593 74.8398 83.3593 74.828C83.3615 74.6897 83.3329 74.5521 83.2748 74.4212C83.1564 74.0609 83.0024 73.7081 82.8141 73.3658C81.5451 71.0753 79.1861 69.2428 76.2182 68.242C75.7757 68.0929 75.3187 67.9707 74.8514 67.8764C74.6913 67.8317 74.5226 67.8078 74.3523 67.8057Z" fill="#263238"/>
<path d="M41.6599 108.749C41.7374 108.677 41.802 108.598 41.8519 108.513L42.3356 107.812C42.7733 107.157 43.3645 106.267 44.094 105.182C44.8618 102.505 45.9291 98.6017 47.1039 94.2562C48.1943 90.1348 49.1388 86.4261 49.9066 83.7256L50.6745 80.524C50.7512 80.1761 50.8204 79.8872 50.8741 79.6513C50.9059 79.5511 50.9188 79.4478 50.9125 79.3447C50.8609 79.4397 50.8223 79.5385 50.7973 79.6395C50.7282 79.8695 50.6361 80.1584 50.5286 80.5063C50.2982 81.2964 49.9834 82.3695 49.6071 83.6843C48.8393 86.4084 47.8411 90.1112 46.72 94.1972C45.5452 98.5427 44.5163 102.452 43.8329 105.146C43.1496 106.249 42.5967 107.151 42.1897 107.817L41.7597 108.543C41.7177 108.609 41.6842 108.678 41.6599 108.749Z" fill="#263238"/>
<path d="M82.1049 98.9726C82.2028 98.683 82.2645 98.3868 82.2892 98.0882C82.3737 97.4632 82.4889 96.6436 82.6271 95.659C82.9035 93.613 83.2567 90.7769 83.6176 87.6519C83.9785 84.527 84.2856 81.685 84.4929 79.6272C84.5851 78.6425 84.6542 77.823 84.7156 77.198C84.751 76.8999 84.751 76.5999 84.7156 76.3018C84.6282 76.5928 84.5692 76.8884 84.539 77.1862C84.4545 77.8112 84.3394 78.6308 84.1935 79.6154C83.9248 81.6614 83.5715 84.4916 83.2106 87.6225C82.8498 90.7533 82.5426 93.5894 82.3353 95.6413C82.2431 96.626 82.1741 97.4455 82.1126 98.0764C82.083 98.3747 82.0804 98.6741 82.1049 98.9726Z" fill="#263238"/>
<path d="M104.804 100.571C104.804 100.571 109.856 97.6226 111.085 97.4516C112.03 97.316 117.658 97.3926 120.246 97.4516C120.729 97.4484 121.195 97.5912 121.543 97.8493C121.89 98.1074 122.092 98.4601 122.104 98.8313C122.111 98.8783 122.111 98.9258 122.104 98.9728C122.039 99.2081 121.89 99.4247 121.673 99.5978C121.456 99.771 121.179 99.8936 120.875 99.9516C121.268 100.048 121.61 100.238 121.855 100.493C122.099 100.748 122.231 101.056 122.234 101.373C122.234 102.493 120.491 102.729 120.491 102.729L120.745 102.906C120.963 103.076 121.119 103.288 121.195 103.519C121.271 103.751 121.264 103.994 121.177 104.223C121.089 104.453 120.923 104.66 120.696 104.823C120.468 104.986 120.188 105.1 119.885 105.152L119.117 105.294C119.412 105.385 119.667 105.538 119.856 105.735C120.044 105.932 120.158 106.165 120.184 106.408C120.184 107.882 115.823 108.177 115.823 108.177C115.823 108.177 105.126 109.48 104.896 109.421C104.666 109.362 104.804 100.571 104.804 100.571Z" fill="#FFBE9D"/>
<path d="M119.254 95.6827C119.208 96.172 119.055 97.2098 117.98 97.6756L112.014 97.4987C112.014 97.4987 116.452 96.3194 117.089 95.7298C117.336 95.4883 117.623 95.2723 117.941 95.0871C118.074 95.0187 118.229 94.9805 118.388 94.9768C118.548 94.9732 118.705 95.0044 118.843 95.0667C118.98 95.129 119.092 95.2199 119.165 95.329C119.237 95.438 119.269 95.5606 119.254 95.6827Z" fill="#FFBE9D"/>
<path d="M114.821 97.452C115.711 97.6137 116.629 97.6635 117.54 97.5994C118.45 97.6407 119.364 97.5912 120.258 97.452C119.364 97.2982 118.445 97.2485 117.532 97.3045C116.624 97.2695 115.714 97.319 114.821 97.452Z" fill="#EB996E"/>
<path d="M116.159 100.01C116.917 100.198 117.718 100.26 118.509 100.193C119.297 100.216 120.082 100.109 120.812 99.8807C120.034 99.8158 119.249 99.8158 118.471 99.8807C117.696 99.8569 116.921 99.9004 116.159 100.01Z" fill="#EB996E"/>
<path d="M113.127 99.6802C113.035 99.7274 113.127 99.975 113.488 100.14C113.849 100.305 114.172 100.287 114.179 100.205C114.187 100.122 113.964 100.022 113.703 99.8925C113.442 99.7627 113.22 99.6448 113.127 99.6802Z" fill="#EB996E"/>
<path d="M115.511 102.912C117.217 103.065 118.944 103.021 120.633 102.782C119.786 102.653 118.919 102.623 118.061 102.694C117.201 102.669 116.342 102.742 115.511 102.912Z" fill="#EB996E"/>
<path d="M112.108 101.686C112.062 101.686 111.969 101.768 111.939 101.945C111.906 102.186 111.997 102.427 112.192 102.618C112.386 102.808 112.67 102.933 112.983 102.965C113.213 102.965 113.352 102.965 113.352 102.9C113.352 102.835 112.837 102.77 112.499 102.434C112.161 102.098 112.2 101.703 112.108 101.686Z" fill="#EB996E"/>
<path d="M114.604 105.748C115.372 105.82 116.15 105.796 116.907 105.677C117.697 105.656 118.475 105.532 119.211 105.311C118.443 105.239 117.665 105.263 116.907 105.382C116.119 105.407 115.341 105.53 114.604 105.748Z" fill="#EB996E"/>
<path d="M111.273 104.304C111.227 104.304 111.15 104.398 111.158 104.581C111.188 104.797 111.3 105.002 111.48 105.17C111.911 105.577 112.402 105.725 112.456 105.666C112.509 105.607 112.141 105.33 111.78 104.988C111.419 104.646 111.335 104.321 111.273 104.304Z" fill="#EB996E"/>
<path d="M36.8534 132.375C35.7977 132.297 34.7805 132.03 33.8831 131.596C32.9858 131.162 32.2332 130.573 31.6857 129.875C31.5628 129.716 31.4553 129.498 31.6165 129.362C31.6792 129.323 31.7515 129.293 31.8292 129.274C31.907 129.256 31.9887 129.25 32.0696 129.256C33.7399 129.247 35.3989 129.466 36.9686 129.905C37.0607 129.921 37.1474 129.952 37.2228 129.996C37.2983 130.039 37.3608 130.095 37.4062 130.158C37.4479 130.258 37.4479 130.365 37.4062 130.465C37.1989 131.084 36.9916 131.703 36.7766 132.328" fill="#F4A72A"/>
<g opacity="0.4">
<path opacity="0.4" d="M36.8534 132.375C35.7977 132.297 34.7805 132.03 33.8831 131.596C32.9858 131.162 32.2332 130.573 31.6857 129.875C31.5628 129.716 31.4553 129.498 31.6165 129.362C31.6792 129.323 31.7515 129.293 31.8292 129.274C31.907 129.256 31.9887 129.25 32.0696 129.256C33.7399 129.247 35.3989 129.466 36.9686 129.905C37.0607 129.921 37.1474 129.952 37.2228 129.996C37.2983 130.039 37.3608 130.095 37.4062 130.158C37.4479 130.258 37.4479 130.365 37.4062 130.465C37.1989 131.084 36.9916 131.703 36.7766 132.328" fill="black"/>
</g>
<path d="M87.1869 67.6172C87.1869 67.6172 89.6441 73.9438 88.9684 73.5842C88.2926 73.2245 86.826 72.228 86.826 72.228L87.1869 67.6172Z" fill="#EBEBEB"/>
<path d="M87.0525 70.5361L88.3886 73.0007C88.5221 73.2558 88.61 73.5235 88.6497 73.7967C88.7648 74.4866 88.8877 75.7484 88.3579 75.8368C88.0895 75.8484 87.8213 75.8136 87.5728 75.7351C87.3243 75.6565 87.1019 75.5361 86.922 75.3828L87.0525 70.5361Z" fill="#263238"/>
<path d="M45.432 70.9248C45.432 70.9248 58.5547 66.992 65.8264 70.4649C73.098 73.9378 74.4187 79.4802 78.7494 79.4802C87.1959 79.4802 86.9195 74.9047 86.9195 74.9047L88.7162 75.3234C88.7162 76.2609 90.6666 82.9884 81.8055 83.808C72.9444 84.6276 69.1665 75.3293 61.1655 75.3234C56.16 75.3883 51.2806 76.5391 47.0906 78.6429L41.3394 75.854L45.432 70.9248Z" fill="#263238"/>
<path d="M79.0859 83.7259C76.8226 82.6905 75.0496 81.1265 74.0257 79.2625C71.9832 75.6481 67.6065 71.5267 63.9515 70.489C60.2965 69.4512 51.8424 68.7201 45.999 71.6682L42.2596 75.5479L47.1124 77.9712C49.8415 76.8705 52.7104 75.9873 55.674 75.3356C61.7094 74.0444 65.3797 75.5066 68.8888 78.0538C69.1038 78.213 69.3111 78.3722 69.4801 78.5255C71.176 79.9136 73.0372 81.177 75.0393 82.299C76.7824 83.2012 78.3181 83.7259 79.0859 83.7259Z" fill="#455A64"/>
<path d="M350.906 28.8144C358.693 29.7402 364.398 24.6871 366.218 20.2473C367.899 16.1199 368.698 11.8216 371.055 7.86524C374.357 2.38177 383.095 -0.153595 390.935 0.353478C398.775 0.860551 406.684 3.8912 413.625 6.72727L411.705 39.746C411.705 39.746 396.602 27.364 389.338 27.1635C377.221 26.792 377.881 42.0809 366.118 44.3391C366.118 44.3391 349.624 47.7707 338.475 36.7154C331.403 29.693 330.796 21.1671 330.796 21.1671C330.796 21.1671 336.217 27.0751 350.906 28.8144Z" fill="#F4A72A"/>
<path d="M413.964 1.2793C413.857 1.2793 411.738 36.3499 409.234 79.6104C406.731 122.871 404.781 157.953 404.888 157.959C404.996 157.965 407.108 122.894 409.618 79.6221C412.129 36.3499 414.072 1.28519 413.964 1.2793Z" fill="#263238"/>
<g opacity="0.2">
<path opacity="0.2" d="M372.406 17.959C371.087 21.4478 369.16 24.7837 366.678 27.8764C364.436 30.571 361.034 32.841 356.957 33.4955C356.211 33.5726 355.479 33.7171 354.776 33.9259C354.426 34.0353 354.121 34.2152 353.892 34.4465C353.664 34.6779 353.521 34.9523 353.479 35.2407C353.479 36.1075 354.607 36.6735 355.621 37.0568C357.029 37.65 358.535 38.0942 360.098 38.3775C361.633 38.6016 362.908 38.7313 363.991 37.7879C365.038 36.9995 365.979 36.1324 366.801 35.1995C370.356 30.5474 372.114 23.8965 372.406 18.637" fill="black"/>
</g>
<path d="M361.851 39.1676C361.851 39.1676 361.973 39.1264 362.196 39.0143C362.518 38.8529 362.829 38.6777 363.125 38.4896C364.219 37.7948 365.185 36.9895 365.997 36.0957C367.2 34.769 368.168 33.3256 368.877 31.8033C369.738 29.9462 370.448 28.0499 371.003 26.1252C372.058 22.6374 372.724 19.0868 372.992 15.5121C373.092 14.1441 373.107 13.0357 373.107 12.2692C373.107 11.9095 373.107 11.6206 373.107 11.3847C373.12 11.2828 373.12 11.1801 373.107 11.0781C373.073 11.1781 373.057 11.2814 373.061 11.3847C373.061 11.6206 373.061 11.9095 373.015 12.2633C372.969 13.0298 372.915 14.1383 372.777 15.5003C372.428 19.0537 371.73 22.5819 370.689 26.0545C370.125 27.9692 369.417 29.8571 368.569 31.7089C367.873 33.2122 366.934 34.6424 365.774 35.966C364.994 36.8573 364.073 37.6713 363.033 38.3893C362.288 38.9141 361.828 39.1499 361.851 39.1676Z" fill="#263238"/>
<path d="M460.914 164.929L358.044 177.859V164.929H460.914Z" fill="#E0E0E0"/>
<path d="M341.07 194.145L238.193 207.075V194.145H341.07Z" fill="#E0E0E0"/>
<path d="M222.039 222.086L119.162 235.016V222.086H222.039Z" fill="#E0E0E0"/>
<path d="M358.044 155.247H460.914V164.935H358.044V155.247Z" fill="#F4A72A"/>
<g opacity="0.3">
<path opacity="0.3" d="M358.044 155.247H390.148V164.935H358.044V155.247Z" fill="black"/>
</g>
<path d="M238.2 184.457H341.07V194.145H238.2V184.457Z" fill="#F4A72A"/>
<g opacity="0.3">
<path opacity="0.3" d="M238.193 184.457H270.297V194.144H238.193V184.457Z" fill="black"/>
</g>
<path d="M119.161 212.399H222.031V222.087H119.161V212.399Z" fill="#F4A72A"/>
<g opacity="0.3">
<path opacity="0.3" d="M119.161 212.399H151.266V222.087H119.161V212.399Z" fill="black"/>
</g>
<path d="M0.138031 234.64H103.008V244.327H0.138031V234.64Z" fill="#F4A72A"/>
<g opacity="0.3">
<path opacity="0.3" d="M0.138153 234.64H32.2422V244.327H0.138153V234.64Z" fill="black"/>
</g>
<path d="M63.5312 199.386C63.5297 199.811 63.3645 200.225 63.0565 200.577C62.7484 200.929 62.3113 201.204 61.8005 201.365C61.2896 201.527 60.7279 201.568 60.1862 201.485C59.6445 201.401 59.1472 201.196 58.7571 200.896C58.3669 200.596 58.1015 200.213 57.9943 199.797C57.887 199.381 57.9428 198.95 58.1546 198.558C58.3664 198.166 58.7246 197.831 59.1841 197.596C59.6436 197.36 60.1837 197.234 60.7361 197.234C61.1039 197.234 61.468 197.29 61.8076 197.398C62.1472 197.507 62.4557 197.665 62.7153 197.865C62.975 198.065 63.1807 198.302 63.3207 198.563C63.4607 198.824 63.5322 199.104 63.5312 199.386Z" fill="#EBEBEB"/>
</g>
<defs>
<clipPath id="clip0_1963_125085">
<rect width="473" height="244" fill="white" transform="matrix(-1 0 0 1 473 0)"/>
</clipPath>
</defs>
</svg>
