<svg width="29" height="29" viewBox="0 0 29 29" fill="none" xmlns="http://www.w3.org/2000/svg">
<path d="M13.0156 10.2603L10.6953 17.3325H8.82617L11.9961 8.80127H13.1855L13.0156 10.2603ZM14.9434 17.3325L12.6172 10.2603L12.4297 8.80127H13.6309L16.8184 17.3325H14.9434ZM14.8379 14.1567V15.5337H10.332V14.1567H14.8379Z" fill="#F4A72A"/>
<path d="M23.7183 20.2937C23.7891 20.5791 23.744 20.8827 23.5931 21.1377C23.4422 21.3928 23.1978 21.5784 22.9135 21.6538L18.366 22.8589C18.0818 22.9342 17.7811 22.893 17.5301 22.7445C17.2791 22.596 17.0983 22.3522 17.0274 22.0669L15.8948 17.5007C15.8297 17.2173 15.878 16.9179 16.0294 16.6669C16.1808 16.416 16.4231 16.2337 16.7042 16.1592C16.9852 16.0847 17.2825 16.124 17.532 16.2687C17.7815 16.4134 17.9633 16.6519 18.0382 16.9327L18.5263 18.9007L19.429 17.3752C21.4483 13.9624 20.3338 9.46938 16.975 7.48193C13.6161 5.49449 9.14138 6.68036 7.12205 10.0931C5.10272 13.5058 6.21723 17.9989 9.57608 19.9863C9.82716 20.1349 10.008 20.3787 10.0788 20.6642C10.1496 20.9496 10.1046 21.2533 9.95362 21.5084C9.80268 21.7635 9.55817 21.9491 9.2739 22.0245C8.98962 22.0998 8.68887 22.0587 8.43779 21.9101C4.03379 19.3042 2.581 13.4474 5.22867 8.97278C7.87634 4.49812 13.7093 2.95231 18.1133 5.55818C22.5173 8.16404 23.9701 14.0208 21.3224 18.4955L20.4197 20.021L22.3797 19.5016C22.6639 19.4263 22.9646 19.4675 23.2156 19.616C23.4667 19.7645 23.6475 20.0083 23.7183 20.2937Z" fill="#515151"/>
</svg>
