<svg width="23" height="22" viewBox="0 0 23 22" fill="none" xmlns="http://www.w3.org/2000/svg">
<path d="M18.0248 15.0642C18.0794 15.2847 18.0446 15.5192 17.928 15.7163C17.8114 15.9133 17.6226 16.0568 17.403 16.115L13.8895 17.0461C13.6699 17.1043 13.4376 17.0725 13.2436 16.9577C13.0497 16.843 12.91 16.6546 12.8553 16.4341L11.9802 12.9063C11.9299 12.6873 11.9672 12.4559 12.0842 12.2621C12.2012 12.0682 12.3884 11.9273 12.6055 11.8698C12.8227 11.8122 13.0523 11.8426 13.2451 11.9544C13.4379 12.0662 13.5783 12.2504 13.6362 12.4674L14.0134 13.9879L14.7108 12.8093C16.2709 10.1725 15.4099 6.70113 12.8147 5.1656C10.2196 3.63007 6.76238 4.54629 5.20221 7.18303C3.64205 9.81977 4.50314 13.2912 7.09824 14.8267C7.29223 14.9415 7.43194 15.1299 7.48664 15.3504C7.54135 15.5709 7.50656 15.8056 7.38994 16.0027C7.27331 16.1998 7.0844 16.3432 6.86477 16.4014C6.64513 16.4596 6.41276 16.4278 6.21878 16.313C2.81618 14.2997 1.69373 9.77464 3.73936 6.31745C5.78499 2.86026 10.2916 1.66595 13.6942 3.67928C17.0968 5.69261 18.2193 10.2177 16.1736 13.6749L15.4762 14.8535L16.9905 14.4522C17.2101 14.394 17.4424 14.4258 17.6364 14.5406C17.8303 14.6553 17.97 14.8437 18.0248 15.0642Z" fill="white"/>
<path d="M7.97656 7.30078H8.85156L10.4961 11.6875L12.1367 7.30078H13.0117L10.8398 12.9883H10.1445L7.97656 7.30078ZM7.57812 7.30078H8.41016L8.55469 11.0977V12.9883H7.57812V7.30078ZM12.5781 7.30078H13.4141V12.9883H12.4336V11.0977L12.5781 7.30078Z" fill="white"/>
</svg>
