<svg width="18" height="13" viewBox="0 0 18 13" fill="none" xmlns="http://www.w3.org/2000/svg">
<g clip-path="url(#clip0_1878_108031)">
<path d="M7.19749 1.31758C7.22589 1.30494 7.25698 1.29972 7.2879 1.3024C7.31882 1.30508 7.34857 1.31557 7.37443 1.33292C7.40029 1.35026 7.42142 1.3739 7.43588 1.40166C7.45035 1.42942 7.45768 1.46041 7.45721 1.49178V2.99068C7.45721 3.16307 7.52493 3.3284 7.64549 3.4503C7.76605 3.5722 7.92957 3.64068 8.10006 3.64068C8.95763 3.64068 10.6882 3.64718 12.3429 4.70928C13.6081 5.52048 14.9015 6.99728 15.6793 9.74808C14.3679 8.47018 12.8701 7.77728 11.5586 7.40938C10.7526 7.18427 9.92414 7.05084 9.08878 7.01158C8.74684 6.99639 8.40434 6.99987 8.06278 7.02198H8.04606L8.03963 7.02328H8.03835L8.10006 7.67068L8.03578 7.02328C7.8771 7.0394 7.73001 7.11459 7.62309 7.23423C7.51617 7.35387 7.45704 7.50943 7.45721 7.67068V9.16958C7.45721 9.30998 7.31578 9.39838 7.19749 9.34378L2.0752 5.53088C2.05782 5.51784 2.0398 5.50569 2.0212 5.49448C1.99325 5.47749 1.97012 5.45348 1.95406 5.42478C1.938 5.39607 1.92955 5.36366 1.92955 5.33068C1.92955 5.2977 1.938 5.26528 1.95406 5.23658C1.97012 5.20788 1.99325 5.18387 2.0212 5.16688C2.0398 5.15567 2.05782 5.14353 2.0752 5.13048L7.19749 1.31758ZM8.74292 8.30248C8.83035 8.30248 8.92678 8.30638 9.02963 8.31028C9.58763 8.33628 10.3591 8.42208 11.2153 8.66258C12.9202 9.14098 14.9388 10.2252 16.2811 12.6666C16.3537 12.7984 16.4693 12.9005 16.6082 12.9555C16.7471 13.0106 16.9006 13.015 17.0424 12.9681C17.1842 12.9213 17.3055 12.826 17.3855 12.6986C17.4654 12.5713 17.499 12.4198 17.4806 12.2701C16.8841 7.44708 15.0558 4.90948 13.0321 3.61208C11.4313 2.58508 9.78306 2.38748 8.74292 2.34978V1.49178C8.74304 1.22407 8.67169 0.961289 8.53639 0.731168C8.4011 0.501046 8.20688 0.312117 7.97423 0.184315C7.74158 0.0565131 7.47913 -0.00542262 7.21456 0.00504342C6.94999 0.0155095 6.69313 0.097989 6.47106 0.243779L1.33592 4.06578C1.12362 4.19977 0.948541 4.38618 0.82716 4.60747C0.705778 4.82876 0.64209 5.07764 0.64209 5.33068C0.64209 5.58372 0.705778 5.8326 0.82716 6.05389C0.948541 6.27518 1.12362 6.46159 1.33592 6.59558L6.47106 10.4176C6.69313 10.5634 6.94999 10.6458 7.21456 10.6563C7.47913 10.6668 7.74158 10.6048 7.97423 10.477C8.20688 10.3492 8.4011 10.1603 8.53639 9.93019C8.67169 9.70007 8.74304 9.43729 8.74292 9.16958V8.30248Z" fill="#515151"/>
</g>
<defs>
<clipPath id="clip0_1878_108031">
<rect width="18" height="13" fill="white"/>
</clipPath>
</defs>
</svg>
