<svg width="23" height="22" viewBox="0 0 23 22" fill="none" xmlns="http://www.w3.org/2000/svg">
<path d="M18.1186 17.9437H10.1144C10.112 17.6391 10.1073 17.2959 10.105 17.0664H17.8256C20.135 17.0664 22.0129 15.2391 22.0129 12.9937V12.4868H23.0023V13.1959C23.0023 15.8209 20.8196 17.9437 18.1186 17.9437ZM22.3295 11.1687H20.7774V11.1664H15.8702C14.6276 11.1664 13.6195 10.1846 13.6195 8.97775C13.6195 7.76866 14.6276 6.78911 15.8702 6.78911H20.7774V6.78684H22.3295V6.78911H23.0023V11.1664H22.3295V11.1687ZM16.025 7.74593C15.3239 7.74593 14.7566 8.2982 14.7566 8.97548C14.7566 9.65502 15.3239 10.205 16.025 10.205C16.7236 10.205 17.2887 9.65502 17.2887 8.97548C17.2887 8.29593 16.7213 7.74593 16.025 7.74593ZM22.0129 4.95957C22.0129 2.71411 20.1326 0.889112 17.8232 0.889112H8.18246C5.87308 0.889112 3.99275 2.71411 3.99275 4.95957V12.9937C3.99275 13.4959 4.09123 13.9777 4.26472 14.4209C3.89428 14.4277 3.53322 14.4437 3.18623 14.4709C3.069 14.0641 3.00336 13.6391 3.00336 13.1959V4.75502C3.00336 2.13229 5.18613 0.0072937 7.8847 0.0072937H18.1186C20.8172 0.0072937 23.0023 2.13457 23.0023 4.75502V5.46638H22.0129V4.95957ZM9.07573 16.5073C9.07573 17.2141 7.05004 17.7846 4.55076 17.7846C2.05147 17.7846 0.0257821 17.2118 0.0257821 16.5073C0.0257821 15.8027 2.05147 15.23 4.55076 15.23C7.05004 15.23 9.07573 15.8005 9.07573 16.5073ZM0.0656393 17.2664C0.0890848 17.3096 0.171144 17.4209 0.171144 17.4209L0.351674 17.5755L0.672877 17.7573L1.13006 17.9346L1.76544 18.105L2.4266 18.2277L3.42069 18.3437L4.4476 18.3755L5.39948 18.3505L6.29979 18.2755L7.17899 18.1368L7.84016 17.9732L8.30438 17.8096L8.56931 17.6823L8.89051 17.455L9.05698 17.1982C9.05698 17.1982 9.07339 18.6437 9.07339 18.6505C9.07339 19.3573 7.0477 19.9277 4.54841 19.9277C2.04913 19.9277 0.0234375 19.355 0.0234375 18.6505C0.0234375 18.6323 0.0304711 17.1664 0.0304711 17.1664C0.0304711 17.1664 0.0586057 17.2527 0.0656393 17.2664ZM0.0656393 19.33C0.0890848 19.3732 0.171144 19.4846 0.171144 19.4846L0.354019 19.6368L0.675221 19.8187L1.13241 19.9959L1.76778 20.1664L2.42894 20.2891L3.42303 20.405L4.44994 20.4368L5.40183 20.4118L6.30213 20.3391L7.18134 20.1982L7.8425 20.0346L8.30672 19.8709L8.57165 19.7437L8.89286 19.5164L9.05932 19.2596C9.05932 19.2596 9.07573 20.705 9.07573 20.7118C9.07573 21.4164 7.05004 21.9891 4.55076 21.9891C2.05147 21.9891 0.0257821 21.4164 0.0257821 20.7118C0.0257821 20.6937 0.0328157 19.2277 0.0328157 19.2277C0.0328157 19.2277 0.0586057 19.3164 0.0656393 19.33ZM15.8702 12.4868H21.469V12.9937C21.469 14.9505 19.8349 16.5368 17.8256 16.5368H9.73689C9.98307 16.3596 10.1214 16.1709 10.1214 15.9687C10.1214 15.1323 7.78154 14.4527 4.84851 14.4187C4.64923 13.9823 4.53903 13.5005 4.53903 12.9914V4.95957C4.53903 3.00502 6.17084 1.41638 8.18246 1.41638H17.8256C19.8372 1.41638 21.469 3.00502 21.469 4.95957V5.46638H15.8702C13.8821 5.46638 12.262 7.04139 12.262 8.97548C12.262 10.9096 13.8821 12.4868 15.8702 12.4868Z" fill="#515151"/>
</svg>
