<svg width="441" height="235" viewBox="0 0 441 235" fill="none" xmlns="http://www.w3.org/2000/svg">
<path d="M50.9621 234.358C50.9621 234.358 -9.31463 170.176 32.9518 110.305C48.7233 87.9636 88.9875 75.4187 126 85.5963C147.863 91.6072 181.019 90.7201 213.416 37.7308C257.596 -34.5311 440.999 -1.67294 405.2 124.935C390.12 178.265 446.324 180.692 418.484 234.474L50.9621 234.358Z" fill="#FEFEFE"/>
<path d="M377.288 105.783L245.994 215.836L176.916 156.874C163.985 168.281 144.018 185.89 123.93 203.559C110.202 215.634 99.0877 225.39 90.0789 233.288L27.3359 233.214C44.7352 218.372 114.791 156.69 161.988 115.005L176.419 102.259L246.25 161.864L348.746 75.9484L377.288 105.783Z" fill="#E0E0E0"/>
<path d="M332.125 62.4129L394.656 125.257L412.32 53.4666L332.125 62.4129Z" fill="#E0E0E0"/>
<path d="M127.138 194.829C126.905 189.076 126.401 184.069 125.799 180.579C124.838 175.014 123.974 171.813 123.964 171.779C123.837 171.29 122.01 169.309 117.946 169.37C113.882 169.431 114.268 172.028 114.268 172.028C114.267 172.115 114.279 172.197 114.297 172.259C114.336 172.393 118.066 185.945 117.905 203.441C117.902 203.687 117.875 204.111 117.892 204.394C117.892 204.395 127.309 204.638 127.311 204.394C127.64 202.865 127.48 198.628 127.138 194.829Z" fill="#B7D3F3"/>
<path d="M128.322 203.355C128.319 203.598 128.191 203.794 128.034 203.794H128.031C127.874 203.791 127.749 203.595 127.747 203.355H119.677C119.674 203.598 119.546 203.794 119.389 203.794H119.385C119.226 203.791 119.099 203.588 119.101 203.343C119.148 198.334 118.863 193.657 118.432 189.528C117.359 179.234 115.376 172.354 115.347 172.259C115.33 172.197 115.318 172.115 115.318 172.028C115.318 172.028 114.933 169.432 118.996 169.37C123.06 169.309 124.888 171.29 125.015 171.779C125.022 171.805 125.512 173.617 126.163 176.877C126.378 177.956 126.611 179.194 126.85 180.579C127.452 184.069 127.956 189.076 128.189 194.829C128.53 198.628 128.651 201.826 128.322 203.355Z" fill="#D2E3FC"/>
<path d="M118.505 203.794H150.145C150.145 203.794 149.408 200.807 131.084 201.251C118.117 201.567 118.505 203.794 118.505 203.794Z" fill="#C5DCF8"/>
<path d="M115.93 235C119.598 216.392 118.655 204.974 118.65 204.83C118.641 204.543 119.168 204.284 119.452 204.274C119.739 204.269 121.005 204.188 121.151 204.434C121.343 204.755 122.082 218.823 116.614 235H115.93Z" fill="#B7D3F3"/>
<path d="M145.472 235C141.804 216.392 142.748 204.974 142.753 204.83C142.761 204.543 142.234 204.284 141.951 204.274C141.664 204.269 140.398 204.188 140.252 204.434C140.06 204.755 139.32 218.823 144.789 235H145.472Z" fill="#B7D3F3"/>
<path d="M151.327 235C147.659 216.392 148.603 204.974 148.608 204.83C148.616 204.543 148.089 204.284 147.806 204.274C147.519 204.269 146.254 204.188 146.107 204.434C145.915 204.755 145.176 218.823 150.644 235H151.327Z" fill="#B7D3F3"/>
<path d="M121.824 235C125.493 216.392 124.55 204.974 124.545 204.83C124.536 204.543 125.063 204.284 125.346 204.274C125.633 204.269 126.899 204.188 127.046 204.434C127.238 204.755 127.977 218.823 122.509 235H121.824Z" fill="#B7D3F3"/>
<path d="M150.163 204.748H118.523C118.167 204.748 117.875 204.456 117.875 204.098V203.672C117.875 203.315 118.167 203.022 118.523 203.022H150.163C150.519 203.022 150.811 203.315 150.811 203.672V204.098C150.811 204.456 150.519 204.748 150.163 204.748Z" fill="#B7D3F3"/>
<path d="M149.052 176.118L159.569 173.836L160.189 175.348C160.189 175.348 148.584 182.268 147.497 181.929C146.41 181.59 149.052 176.118 149.052 176.118Z" fill="#FFB27D"/>
<path d="M139.491 223.778C139.227 224.081 139.194 224.418 139.324 224.779C139.324 224.781 139.326 224.782 139.327 224.784C139.567 225.451 140.364 226.197 141.29 226.941C141.408 227.036 141.513 227.125 141.605 227.205C141.628 227.225 141.653 227.247 141.675 227.268C141.693 227.285 141.712 227.302 141.73 227.317C142.592 228.114 142.268 228.296 143.817 229.913C145.585 231.756 146.802 231.789 147.147 231.622C147.441 231.478 146.845 230.501 146.187 229.403C146.155 229.35 146.123 229.296 146.09 229.243C146.003 229.096 145.915 228.949 145.828 228.802C145.056 227.48 145.255 226.859 145.437 224.893C145.587 223.294 147.919 215.961 147.919 215.961L144.533 215.377C144.533 215.377 143.512 221.216 142.389 222.114C141.788 222.594 141.115 222.601 140.538 222.955C140.496 222.98 140.456 223.005 140.418 223.032C140.089 223.249 139.756 223.474 139.491 223.778Z" fill="#FFB27D"/>
<path d="M139.491 223.778C139.227 224.081 139.194 224.418 139.324 224.779C139.324 224.781 139.326 224.782 139.327 224.784C139.622 225.451 140.398 226.192 141.293 226.934C141.41 227.031 141.513 227.121 141.605 227.205C141.628 227.225 141.653 227.247 141.675 227.268C141.693 227.285 141.712 227.302 141.73 227.317C142.592 228.114 142.268 228.296 143.817 229.913C145.585 231.756 146.802 231.789 147.147 231.622C147.441 231.478 146.845 230.501 146.187 229.403C145.843 229.276 144.244 228.627 143.035 227.076C141.972 225.716 141.263 223.967 140.538 222.955C140.496 222.98 140.456 223.005 140.418 223.032C140.089 223.249 139.756 223.474 139.491 223.778Z" fill="#1C468A"/>
<path d="M166.799 221.658C167.008 222.706 168.498 222.531 170.164 222.123C171.828 221.715 171.433 222.2 173.802 221.937C176.172 221.675 176.89 220.79 176.962 220.437C177.027 220.123 175.857 220.013 174.599 219.868C174.443 219.851 174.283 219.831 174.124 219.811C172.707 219.632 171.668 218.716 170.381 217.963C169.16 217.25 167.34 214.344 167.34 214.344L164.09 214.602C164.09 214.602 165.796 217.198 166.456 218.326C166.843 218.989 166.823 219.868 166.774 220.544C166.749 220.913 166.726 221.289 166.799 221.658Z" fill="#FFB27D"/>
<path d="M170.164 222.123C171.828 221.715 171.433 222.2 173.802 221.937C176.172 221.675 176.89 220.79 176.962 220.437C177.027 220.123 175.857 220.013 174.599 219.868L174.588 219.893C174.588 219.893 173.167 220.902 171.195 220.948C169.587 220.989 167.885 220.526 166.774 220.544C166.749 220.913 166.726 221.289 166.799 221.658C167.008 222.706 168.498 222.531 170.164 222.123Z" fill="#1C468A"/>
<path d="M159.57 173.836C159.57 173.836 160.346 171.935 161.198 171.858C162.048 171.78 164.759 171.354 164.953 171.741C165.146 172.129 164.953 173.525 164.371 174.03C163.79 174.535 160.191 175.348 160.191 175.348L159.57 173.836Z" fill="#FFB27D"/>
<path d="M154.347 200.839L147.344 219.724C147.344 219.724 146.269 219.827 145.237 219.53C144.288 219.256 143.199 218.536 143.199 218.536C143.199 218.536 144.937 200.403 148.123 196.632C151.308 192.86 154.347 200.839 154.347 200.839Z" fill="#163560"/>
<path d="M126.646 193.199C126.646 193.199 146.769 186.381 151.258 187.831C155.747 189.283 169.221 216.145 169.221 216.145C169.221 216.145 168.917 216.549 168.087 216.862C167.315 217.152 165.446 217.134 165.446 217.134C165.446 217.134 153.284 206.689 151.837 203.644C150.389 200.596 149.811 197.696 148.362 197.985C146.915 198.276 129.686 205.094 125.777 201.032C121.868 196.971 122.89 191.694 122.89 191.694L126.646 193.199Z" fill="#1C468A"/>
<path d="M138.118 145.123C137.249 144.629 136.206 144.573 135.477 144.617C135.665 144.423 136.034 144.351 136.034 144.351C135.582 144.284 134.573 144.734 134.573 144.734C128.283 142.306 127.295 151.585 127.427 153.74C127.558 155.895 127.574 158.376 124.434 160.311C118.257 164.115 123.469 170.756 123.469 170.756C123.518 170.784 126.343 175.585 126.343 175.585C126.185 173.843 134.207 164.651 138.392 161.898C139.411 160.394 139.773 157.74 139.8 157.531C139.625 159.636 139.264 160.817 138.943 161.482C142.488 158.214 140.423 146.436 138.118 145.123Z" fill="#B5453C"/>
<path d="M138.144 162.035C138.165 162.043 136.123 163.106 134.588 162.685C133.143 162.29 132.199 160.414 132.219 160.409C132.831 160.287 133.007 159.445 132.994 155.827L133.271 155.88L137.921 156.802C137.921 156.802 137.815 158.269 137.812 159.651C137.809 160.81 137.879 161.911 138.144 162.035Z" fill="#FFB27D"/>
<path d="M137.923 156.802C137.923 156.802 137.818 158.269 137.815 159.651C135.212 159.577 133.837 157.198 133.273 155.88L137.923 156.802Z" fill="#ED975D"/>
<path d="M132.789 155.374C132.789 155.374 131.426 153.214 131.099 151.368C130.865 150.051 131.535 145.165 136.434 145.87C136.434 145.87 137.857 146.01 139.195 146.916C140.259 147.634 141.795 149.189 140.077 153.451L139.632 154.891L132.789 155.374Z" fill="#B5453C"/>
<path d="M138.793 158.111C138.793 158.111 132.636 158.212 132.632 154.37C132.627 150.528 131.83 147.953 135.761 147.726C139.691 147.499 140.456 148.964 140.769 150.245C141.083 151.528 140.394 157.985 138.793 158.111Z" fill="#FFB27D"/>
<path d="M138.564 147.632C138.564 147.632 136.878 152.14 134.291 152.806C131.704 153.473 130.582 152.778 130.582 152.778C130.582 152.778 132.566 151.199 132.978 148.442C132.978 148.442 137.292 145.485 138.564 147.632Z" fill="#B5453C"/>
<path d="M138.145 147.998C138.145 147.998 139.403 149.004 139.71 149.983C140.017 150.962 140.155 152.975 140.742 152.906C140.742 152.906 142.011 149.843 140.584 148.11C139.071 146.271 138.145 147.998 138.145 147.998Z" fill="#B5453C"/>
<path d="M124.436 178.63C123.829 176.078 125.894 171.128 128.051 167.03C130.007 163.315 132.038 160.301 132.221 160.41C137.381 163.478 137.847 160.927 137.847 160.927H137.847C137.849 160.927 142.534 161.551 143.861 163.839C145.507 166.679 147.286 174.617 149.054 176.119C148.782 176.951 148.898 177.393 149.185 178.424C149.247 178.645 149.315 178.855 149.39 179.054C149.657 179.779 149.989 180.369 150.277 180.878C149.379 181.426 147.645 182.465 146.367 181.719C144.42 180.576 142.899 177.099 142.044 175.714C142.041 175.709 142.039 175.704 142.036 175.699C140.176 186.243 142.704 188.643 141.424 189.754C140.073 190.929 138.142 189.196 133.895 191.041C131.11 192.252 127.244 194.001 124.641 194.307C123.277 194.467 122.258 194.228 121.926 193.306C120.961 190.621 125.594 183.494 124.436 178.63Z" fill="#1C468A"/>
<path d="M137.422 155.782C137.422 155.782 137.537 156.269 138.749 156.194C138.749 156.194 139.767 156.132 139.735 155.595C139.735 155.595 138.748 155.214 137.422 155.782Z" fill="white"/>
<path d="M121.926 193.306C122.258 194.228 123.277 194.467 124.641 194.307C126.443 193.52 134.223 190.499 134.137 188.453C134.007 185.424 132.64 185.327 133.606 181.587C134.381 178.584 127.191 173.001 126.045 171.787C123.888 175.885 123.829 176.078 124.436 178.63C125.594 183.494 120.961 190.621 121.926 193.306Z" fill="#163560"/>
<path d="M121.046 182.376C122.426 180.435 123.863 179.409 124.809 178.893C124.591 178.33 130.613 170.934 130.613 169.788C130.613 168.627 132.219 160.409 132.219 160.409C132.219 160.409 127.202 160.72 125.465 163.147C123.292 166.183 118.78 177.866 121.046 182.376Z" fill="#1C468A"/>
<path d="M124.808 178.893L134.835 181.514L133.894 183.207C133.894 183.207 121.692 183.121 121.045 182.376C120.399 181.633 124.808 178.893 124.808 178.893Z" fill="#FFB27D"/>
<path d="M142.043 175.714C142.898 177.099 144.419 180.575 146.367 181.718C147.644 182.465 149.378 181.426 150.277 180.878C149.988 180.368 149.656 179.779 149.389 179.054C148.673 179.219 147.799 179.428 147.234 179.598C146.136 179.931 142.043 175.714 142.043 175.714Z" fill="#163560"/>
<path d="M134.836 181.514C134.836 181.514 137.984 180.62 138.734 180.829C139.484 181.038 142.053 182.744 141.693 183.207C141.331 183.669 139.068 182.929 138.026 183.07C136.984 183.21 136.179 183.725 135.429 183.613C134.679 183.502 133.895 183.207 133.895 183.207L134.836 181.514Z" fill="#FFB27D"/>
<path d="M134.836 181.514C134.836 181.514 136.376 180.721 136.815 180.27C136.87 180.213 136.963 180.225 137.006 180.291C137.123 180.477 137.233 180.836 136.693 181.192C135.915 181.705 134.836 181.514 134.836 181.514Z" fill="#FFB27D"/>
<path d="M149.385 185.953H134.695C134.695 185.305 135.22 184.779 135.866 184.779H149.385V185.953Z" fill="#F4A72A"/>
<path d="M149.346 169.922H172.057L166.61 185.953H143.75L149.346 169.922Z" fill="#ED7D2B"/>
<path d="M172.393 169.924L166.944 185.952H144.086L149.68 169.924H172.393Z" fill="#F4A72A"/>
<path d="M160.146 177.789C160.004 178.402 159.394 178.898 158.783 178.898C158.171 178.898 157.791 178.402 157.931 177.789C158.073 177.178 158.683 176.68 159.294 176.68C159.906 176.68 160.287 177.178 160.146 177.789Z" fill="#F9DDBF"/>
<path d="M172.392 169.924L166.943 185.952H151.805C161.832 182.524 164.502 172.067 164.95 169.924H172.392Z" fill="#ED893E"/>
<path d="M106.454 235C106.742 235 106.987 234.798 107.036 234.521L109.889 218.322L113.992 195.022L115.139 188.508L112.217 188.424L111.71 192.207L108.149 218.785L106.039 234.539C106.006 234.783 106.201 235 106.454 235Z" fill="#95C0F4"/>
<path d="M111.711 192.206C113.604 193.043 113.993 195.021 113.993 195.021L115.14 188.508L112.218 188.424L111.711 192.206Z" fill="#78ACEA"/>
<path d="M179.145 235C178.858 235 178.613 234.798 178.563 234.521L175.712 218.322L171.608 195.022L170.461 188.508L173.382 188.424L173.889 192.207L177.451 218.785L179.56 234.539C179.593 234.783 179.398 235 179.145 235Z" fill="#95C0F4"/>
<path d="M173.889 192.206C171.997 193.043 171.608 195.021 171.608 195.021L170.461 188.508L173.382 188.424L173.889 192.206Z" fill="#78ACEA"/>
<path d="M104.505 191.065H179.344C180.324 191.065 181.126 190.262 181.126 189.28V187.736C181.126 186.754 180.324 185.95 179.344 185.95H104.505C103.525 185.95 102.723 186.754 102.723 187.736V189.28C102.723 190.262 103.525 191.065 104.505 191.065Z" fill="#78ACEA"/>
<path d="M440.5 234.845H0.49955C0.224764 234.845 0 234.621 0 234.345V234.173C0 233.899 0.224764 233.674 0.49955 233.674H440.5C440.775 233.674 441 233.899 441 234.173V234.345C441 234.621 440.775 234.845 440.5 234.845Z" fill="#2E3552"/>
<path d="M290.393 183.224C290.393 183.224 288.451 185.636 289.059 185.965C289.665 186.294 291.269 186.909 291.647 186.521C292.026 186.134 292.144 183.29 292.144 183.29L290.393 183.224Z" fill="#FFB27D"/>
<path d="M290.473 183.263C290.473 183.263 289.679 183.539 289.368 183.953C289.056 184.366 288.365 184.998 288.534 185.171C288.704 185.347 289.694 184.575 289.694 184.575L290.473 183.263Z" fill="#FFB27D"/>
<path d="M297.734 151.009C297.734 151.009 295.546 171.419 295.351 172C295.31 172.126 295.138 172.772 294.896 173.701C294.551 175.029 294.064 176.937 293.602 178.751C292.907 181.491 292.268 184.021 292.268 184.021L290.367 183.392C290.367 183.392 290.269 173.474 290.758 171.19C291.248 168.906 292.81 154.873 293.601 152.985C294.388 151.097 297.734 151.009 297.734 151.009Z" fill="#AEC3FF"/>
<path d="M293.183 199.952L281.25 196.816C279.697 196.407 278.758 194.799 279.165 193.244L280.523 188.062C280.929 186.506 282.533 185.566 284.087 185.975L296.021 189.111C297.575 189.518 298.512 191.126 298.105 192.683L296.748 197.863C296.341 199.42 294.737 200.359 293.183 199.952Z" fill="#A02E2E"/>
<path d="M292.9 188.275L288.636 187.154L288.93 186.037C288.98 185.845 289.178 185.729 289.37 185.779L290.44 186.06L292.404 186.576L292.935 186.715C292.971 186.725 293.003 186.74 293.035 186.758C293.165 186.84 293.233 187.001 293.193 187.158L292.9 188.275ZM282.097 188.472L280.724 193.713C280.459 194.729 280.763 195.765 281.436 196.478C281.658 196.715 281.922 196.918 282.22 197.07C282.22 197.07 282.22 197.07 282.222 197.07V197.071C282.407 197.166 282.605 197.243 282.817 197.298L294.729 200.429C296.288 200.839 297.898 199.896 298.307 198.334L299.679 193.092C300.088 191.53 299.147 189.916 297.588 189.507L293.487 188.429L293.778 187.311C293.915 186.793 293.603 186.264 293.088 186.129L292.64 186.01L290.143 185.355L289.523 185.191C289.275 185.126 289.015 185.163 288.791 185.293C288.568 185.424 288.408 185.634 288.343 185.883L288.051 187.001L285.675 186.376C285.58 186.351 285.486 186.332 285.393 186.317H285.391H285.39C284.436 186.164 283.489 186.503 282.84 187.163V187.164C282.492 187.517 282.23 187.961 282.097 188.472Z" fill="#BC3F3F"/>
<path d="M291.529 186.575C291.529 186.575 292.059 185.681 291.861 185.369C291.662 185.056 290.947 186.296 290.947 186.296C290.947 186.296 291.435 185.232 291.254 185.056C291.07 184.881 290.322 186.104 290.322 186.104C290.322 186.104 290.788 185.069 290.625 185.034C290.462 184.999 289.906 185.905 289.906 185.905C289.906 185.905 290.195 185.13 289.931 185.168C289.668 185.205 289.098 185.91 289.098 185.91L291.529 186.575Z" fill="#FFB27D"/>
<path d="M294.893 173.701C294.548 175.029 294.061 176.937 293.6 178.751C293.303 177.913 292.924 176.578 292.686 174.747C292.246 171.371 293.598 164.173 293.598 164.173L294.893 173.701Z" fill="#9DB0F4"/>
<path d="M319.928 182.383C319.928 182.383 322.044 184.106 322.306 184.644C322.566 185.182 323.225 187.173 323.19 187.815C323.155 188.458 321.569 186.346 321.102 186.176C320.637 186.005 321.589 187.043 321.482 187.265C321.375 187.487 320.382 186.76 320.003 186.523C319.625 186.286 319.36 184.675 318.794 183.798C318.231 182.923 319.928 182.383 319.928 182.383Z" fill="#FFB27D"/>
<path d="M292.164 233.946H302.712C303.467 233.433 302.509 228.413 302.509 228.413C302.509 228.413 299.629 227.317 299.132 229.544C298.634 231.767 295.466 232.474 293.788 232.746C292.641 232.933 292.277 233.565 292.164 233.946Z" fill="#233862"/>
<path d="M307.809 233.946H318.358C319.114 233.433 318.153 228.413 318.153 228.413C318.153 228.413 315.275 227.317 314.777 229.544C314.278 231.767 311.11 232.474 309.434 232.746C308.285 232.933 307.924 233.565 307.809 233.946Z" fill="#233862"/>
<path d="M295.004 182.726C295.004 182.726 295.477 188.653 296.034 195.778C296.791 205.456 298.836 229.452 298.836 229.452C298.836 229.452 300.174 230.596 303.141 229.97C303.141 229.97 305.665 221.692 306.421 212.244C306.432 212.089 306.444 211.934 306.456 211.776C307.159 202.159 308.251 181.905 308.251 181.905L295.004 182.726Z" fill="#2B478B"/>
<path d="M294.84 180.677C294.84 180.677 295.475 188.653 296.032 195.778L306.418 212.244C306.43 212.089 306.442 211.933 306.453 211.776C307.157 202.158 308.249 181.905 308.249 181.905L294.84 180.677Z" fill="#233862"/>
<path d="M297.867 180.677C297.867 180.677 305.4 199.465 307.808 206.587C309.524 211.659 314.361 229.455 314.361 229.455C314.361 229.455 316.465 230.097 318.233 228.857C318.233 228.857 320.033 210.675 316.397 205.548C314.468 202.828 315.918 177.276 308.098 177.057C300.277 176.838 297.867 180.677 297.867 180.677Z" fill="#2B478B"/>
<path d="M312.223 182.383C309.083 184.159 295.625 184.119 295.003 182.726C293.611 179.613 293.261 163.801 293.918 158.951C293.918 158.951 294.258 151.496 295.003 151.826C299.972 149.537 308.017 151.615 308.017 151.615C310.187 152.255 310.002 157.222 310.607 164.197C310.683 165.095 310.77 166.031 310.867 167C311.295 171.307 311.919 176.254 312.864 181.473C312.928 181.817 312.689 182.121 312.223 182.383Z" fill="#AEC3FF"/>
<path d="M304.299 150.776C304.215 152.109 302.479 151.959 300.394 151.481C298.308 151.005 299.063 149.772 299.063 149.772C299.063 149.772 299.093 148.825 299.225 147.689C299.273 147.276 299.333 146.837 299.413 146.411C299.45 146.204 299.49 145.996 299.536 145.799C299.81 144.625 303.705 145.758 303.678 146.073C303.602 146.925 304.217 149.729 304.299 150.776Z" fill="#FFB27D"/>
<path d="M299.829 153.103L299.664 151.261L301.973 151.698L301.085 153.342L299.829 153.103Z" fill="#233862"/>
<path d="M299.115 148.905L297.734 151.009C297.734 151.009 297.734 152.302 298.933 153.241L300.821 151.48C300.821 151.48 299.6 151.014 299.115 148.905Z" fill="#9DB0F4"/>
<path d="M300.82 151.48C300.82 151.48 301.21 152.886 301.966 153.531C301.966 153.531 304.914 152.738 305.616 151.224L304.082 149.239C304.082 149.239 304.007 150.741 300.82 151.48Z" fill="#9DB0F4"/>
<path d="M303.702 146.737C303.702 146.737 301.826 147.986 299.227 147.689C299.275 147.276 299.335 146.837 299.415 146.411C299.927 146.287 300.357 146.209 300.357 146.209L303.702 146.737Z" fill="#E2915A"/>
<path d="M304.893 145.317C303.976 147.844 300.629 147.199 299.206 146.793C298.804 146.68 298.555 146.585 298.555 146.585C298.115 146.384 297.978 145.614 298.018 144.642C298.093 142.717 298.852 140.001 299.287 139.346C299.943 138.36 301.035 137.359 304.281 138.754C307.527 140.149 306.068 142.077 304.893 145.317Z" fill="#FFB27D"/>
<path d="M307.399 144.019C306.375 144.856 304.174 146.404 304.174 146.404C304.174 146.404 304.419 146.114 304.718 145.278C304.753 145.183 304.763 145.044 304.758 144.897C304.746 144.488 304.844 144.079 305.059 143.73C305.193 143.511 305.241 143.285 305.073 143.125C304.794 142.861 304.319 143.103 304.007 143.317C303.802 143.457 303.534 143.466 303.322 143.335C303.32 143.334 303.319 143.334 303.317 143.332C302.443 142.782 303.409 141.815 302.698 141.011C301.985 140.208 298.907 140.098 299.03 139.595C297.98 139 298.642 136.805 298.662 136.688C298.662 136.688 300.169 136.822 302.053 136.35C303.582 135.966 305.268 136.95 305.8 137.354C305.8 137.258 305.785 137.124 305.715 136.98C305.715 136.98 305.946 137.209 305.943 137.476C305.966 137.5 305.976 137.516 305.97 137.522C305.97 137.522 306.273 137.515 306.452 137.633C306.452 137.633 306.322 137.592 306.26 137.67C306.252 137.679 306.243 137.684 306.233 137.69C308.279 139.139 308.249 143.322 307.399 144.019Z" fill="#233862"/>
<path d="M300.054 144.951C300.054 144.951 299.889 145.27 299.062 145.006C299.062 145.006 298.367 144.784 298.482 144.416C298.482 144.416 299.232 144.324 300.054 144.951Z" fill="white"/>
<path d="M299.829 153.104C299.829 153.104 297.985 176.439 298.012 178.384C298.037 180.328 300.055 182.383 300.055 182.383C300.055 182.383 301.66 180.621 301.974 178.761C302.287 176.902 301.085 153.343 301.085 153.343L299.829 153.104Z" fill="#2A4E96"/>
<path d="M308.02 151.615C308.02 151.615 310.994 152.329 313.347 156.856C315.7 161.383 317.557 170.515 318.679 172.924C319.803 175.335 320.573 182.925 320.573 182.925L318.794 183.798C318.794 183.798 314.502 176.02 313.867 173.469C313.524 172.089 308.275 161.041 308.275 161.041L308.02 151.615Z" fill="#AEC3FF"/>
<path d="M312.224 182.383C312.224 182.383 312.224 182.383 312.222 182.383C306.62 181.576 308.226 162.999 308.664 162.925C309.104 162.852 310.715 166.247 310.715 166.247L310.868 167C311.297 171.307 311.921 176.254 312.866 181.473C312.929 181.817 312.691 182.121 312.224 182.383Z" fill="#9DB0F4"/>
<path d="M382.118 222.965C382.118 222.965 384.451 225.098 383.995 226.613C383.54 228.129 381.434 229.139 381.151 230.992C380.866 232.843 379.729 233.854 378.705 233.854C377.681 233.854 373.823 233.854 373.823 233.854C373.823 233.854 373.069 232.551 374.888 232.158C376.709 231.766 377.396 229.589 377.283 227.567C377.169 225.548 377.453 222.853 377.453 222.853L381.321 221.956L382.118 222.965Z" fill="#233862"/>
<path d="M353.504 228.481C353.504 228.481 353.922 233.336 352.897 233.84L339.793 233.814C339.793 233.814 339.793 232.298 341.897 231.961C344.003 231.625 347.7 230.39 348.327 227.639C348.952 224.889 353.504 228.481 353.504 228.481Z" fill="#233862"/>
<path d="M342.438 159.916C342.438 159.916 343.128 168.425 343.941 178.653C345.045 192.546 346.373 209.611 346.504 212.844C346.731 218.457 347.643 227.437 347.643 227.437C347.643 227.437 349.804 229.57 354.128 228.672C354.128 228.672 357.983 215.853 359.083 202.289C359.1 202.067 359.116 201.843 359.135 201.619C360.159 187.811 361.751 158.737 361.751 158.737L342.438 159.916Z" fill="#2A4E96"/>
<path d="M342.438 159.917C342.438 159.917 343.128 168.425 343.941 178.653L359.083 202.289C359.1 202.067 359.116 201.843 359.135 201.619C360.159 187.811 361.751 158.737 361.751 158.737L342.438 159.917Z" fill="#233862"/>
<path d="M345.594 160.927C345.594 160.927 358.053 191.741 366.244 206.222C374.438 220.703 376.997 224.744 376.997 224.744C376.997 224.744 381.691 222.891 382.118 221.628C382.118 221.628 378.985 193.672 373.499 186.857C370.4 183.007 367.725 174.463 367.858 170.42C368.09 163.448 365.477 155.369 365.477 155.369L345.594 160.927Z" fill="#2A4E96"/>
<path d="M335.647 161.38C335.647 161.38 333.321 164.536 333.15 165.378C332.978 166.22 332.778 169.227 333.056 170.107C333.335 170.988 334.785 167.481 335.372 167.077C335.959 166.672 335.005 168.457 335.234 168.727C335.462 169 336.583 167.631 337.025 167.165C337.467 166.697 337.258 164.362 337.73 162.94C338.2 161.519 335.647 161.38 335.647 161.38Z" fill="#FFB27D"/>
<path d="M345.906 115.514C345.906 115.514 342.763 144.836 342.483 145.671C342.421 145.853 342.174 146.782 341.828 148.117C341.332 150.023 340.634 152.765 339.97 155.369C338.97 159.307 337.889 162.712 337.889 162.712C337.889 162.712 337.414 163.019 336.27 162.92C335.488 162.854 335.066 162.185 335.066 162.185C335.066 162.185 335.181 147.789 335.883 144.508C336.587 141.226 338.831 121.068 339.967 118.354C341.099 115.641 345.906 115.514 345.906 115.514Z" fill="white"/>
<path d="M341.825 148.117C341.33 150.023 340.631 152.765 339.968 155.369C339.541 154.165 338.997 152.247 338.654 149.619C338.022 144.766 339.964 134.429 339.964 134.429L341.825 148.117Z" fill="#DCEAFF"/>
<path d="M366.722 160.59C362.21 163.139 342.878 163.082 341.982 161.081C339.983 156.61 339.481 133.893 340.425 126.925C340.425 126.925 340.914 116.216 341.982 116.687C349.124 113.401 360.681 116.386 360.681 116.386C363.797 117.305 363.53 124.441 364.399 134.461C364.511 135.751 364.636 137.097 364.774 138.487C365.389 144.675 366.285 151.784 367.644 159.282C367.735 159.775 367.392 160.212 366.722 160.59Z" fill="white"/>
<path d="M355.34 115.182C355.22 117.096 352.727 116.879 349.727 116.194C346.731 115.511 347.817 113.738 347.817 113.738C347.817 113.738 347.86 112.377 348.05 110.746C348.118 110.155 348.205 109.523 348.318 108.912C348.372 108.611 348.43 108.317 348.499 108.032C348.89 106.346 354.486 107.973 354.446 108.426C354.338 109.65 355.222 113.677 355.34 115.182Z" fill="#FFB27D"/>
<path d="M348.916 118.525L348.68 115.878L351.998 116.505L350.721 118.869L348.916 118.525Z" fill="#233862"/>
<path d="M347.889 112.492L345.906 115.514C345.906 115.514 345.906 117.373 347.627 118.722L350.338 116.192C350.338 116.192 348.586 115.522 347.889 112.492Z" fill="#DCEAFF"/>
<path d="M350.336 116.193C350.336 116.193 350.898 118.212 351.983 119.14C351.983 119.14 356.217 117.999 357.227 115.827L355.021 112.973C355.021 112.973 354.915 115.132 350.336 116.193Z" fill="#DCEAFF"/>
<path d="M354.479 109.378C354.479 109.378 351.784 111.172 348.051 110.746C348.119 110.155 348.206 109.523 348.319 108.912C349.056 108.731 349.673 108.619 349.673 108.619L354.479 109.378Z" fill="#E2915A"/>
<path d="M356.19 107.338C354.873 110.97 350.066 110.043 348.02 109.46C347.443 109.296 347.086 109.159 347.086 109.159C346.454 108.872 346.257 107.766 346.314 106.369C346.422 103.604 347.513 99.6998 348.136 98.7592C349.078 97.3442 350.648 95.9058 355.31 97.9089C359.973 99.9136 357.879 102.684 356.19 107.338Z" fill="#FFB27D"/>
<path d="M359.792 105.472C358.32 106.675 355.159 108.9 355.159 108.9C355.159 108.9 355.51 108.484 355.941 107.283C355.989 107.147 356.004 106.947 355.997 106.736C355.981 106.147 356.122 105.56 356.431 105.057C356.622 104.745 356.693 104.419 356.449 104.189C356.049 103.809 355.367 104.159 354.92 104.466C354.625 104.668 354.238 104.68 353.935 104.491C353.933 104.489 353.931 104.488 353.928 104.486C352.671 103.698 354.06 102.308 353.038 101.153C352.014 100 347.592 99.8417 347.77 99.1183C346.26 98.2629 347.212 95.1088 347.238 94.9417C347.238 94.9417 349.406 95.1338 352.111 94.4572C354.308 93.9042 356.729 95.3176 357.496 95.9007C357.496 95.7603 357.473 95.5665 357.373 95.3627C357.373 95.3627 357.706 95.6918 357.7 96.0761C357.733 96.1095 357.748 96.1329 357.738 96.1379C357.738 96.1379 358.175 96.1295 358.43 96.2999C358.43 96.2999 358.243 96.2398 358.155 96.3517C358.143 96.3651 358.131 96.3735 358.116 96.3818C361.056 98.4617 361.013 104.473 359.792 105.472Z" fill="#BC3F3F"/>
<path d="M349.237 106.813C349.237 106.813 349 107.27 347.811 106.89C347.811 106.89 346.814 106.573 346.979 106.045C346.979 106.045 348.057 105.913 349.237 106.813Z" fill="white"/>
<path d="M348.916 118.525C348.916 118.525 346.268 152.05 346.305 154.843C346.342 157.636 349.24 160.59 349.24 160.59C349.24 160.59 351.547 158.057 351.998 155.386C352.449 152.713 350.72 118.869 350.72 118.869L348.916 118.525Z" fill="#2A4E96"/>
<path d="M366.719 160.59C366.717 160.59 366.717 160.59 366.716 160.59C358.667 159.429 360.973 132.74 361.605 132.635C362.237 132.53 364.551 137.406 364.551 137.406L364.771 138.487C365.387 144.675 366.282 151.784 367.641 159.282C367.733 159.775 367.389 160.212 366.719 160.59Z" fill="#DCEAFF"/>
<path d="M390.378 180.47L373.359 185.432C371.144 186.077 368.805 184.791 368.16 182.57L366.014 175.181C365.37 172.963 366.654 170.619 368.87 169.972L385.887 165.01C388.103 164.364 390.443 165.652 391.086 167.87L393.234 175.26C393.878 177.48 392.594 179.824 390.378 180.47Z" fill="#A02E2E"/>
<path d="M381.426 166.288L375.347 168.062L374.884 166.467C374.805 166.193 374.964 165.904 375.237 165.824L376.764 165.379L379.564 164.561L380.321 164.342C380.373 164.327 380.424 164.32 380.474 164.322C380.696 164.325 380.898 164.472 380.963 164.694L381.426 166.288ZM368.257 174.523L370.428 181.997C370.848 183.444 371.987 184.496 373.341 184.879C373.791 185.006 374.263 185.059 374.743 185.028C374.745 185.028 374.745 185.028 374.745 185.028H374.747C375.045 185.008 375.347 184.958 375.647 184.869L392.635 179.916C394.859 179.267 396.148 176.915 395.501 174.686L393.33 167.212C392.683 164.983 390.335 163.692 388.111 164.34L382.262 166.046L381.8 164.45C381.586 163.714 380.813 163.289 380.077 163.503L379.435 163.69L375.877 164.728L374.994 164.987C374.64 165.089 374.345 165.327 374.165 165.653C373.986 165.979 373.945 166.357 374.048 166.711L374.512 168.306L371.122 169.294C370.988 169.332 370.858 169.377 370.732 169.429L370.73 169.431H370.728C369.439 169.948 368.522 171.066 368.209 172.359V172.361C368.041 173.053 368.046 173.793 368.257 174.523Z" fill="#BC3F3F"/>
<path d="M376.328 161.517C376.328 161.517 375.801 165.937 376.79 165.874C377.778 165.81 380.199 165.336 380.365 164.574C380.53 163.812 378.51 160.26 378.51 160.26L376.328 161.517Z" fill="#FFB27D"/>
<path d="M376.455 161.505C376.455 161.505 375.698 162.448 375.633 163.189C375.568 163.931 375.206 165.227 375.546 165.311C375.885 165.395 376.505 163.697 376.505 163.697L376.455 161.505Z" fill="#FFB27D"/>
<path d="M360.684 116.387C360.684 116.387 364.957 117.412 368.337 123.916C371.715 130.42 374.385 143.538 375.999 147.001C377.611 150.463 378.84 160.852 378.84 160.852C378.84 160.852 378.588 161.368 377.718 161.557C377.044 161.703 376.35 161.646 376.35 161.646C376.35 161.646 369.996 151.447 369.084 147.783C368.59 145.8 361.049 129.929 361.049 129.929L360.684 116.387Z" fill="white"/>
<path d="M79.1793 229.622L78.5391 224.999L81.2292 222.747L82.0766 228.867L79.1793 229.622Z" fill="#FFB27D"/>
<path d="M88.1139 233.75H77.1461C77.1461 233.75 76.8833 232.075 77.4561 230.805C78.0052 229.586 78.8594 228.832 78.9372 227.898C79.6342 228.618 80.4917 229.081 82.0773 228.867C82.2717 229.183 83.3315 230.872 83.9804 231.338C84.6972 231.854 87.8931 231.671 88.1139 233.75Z" fill="#233862"/>
<path d="M85.9083 167.214C85.191 172.994 84.6044 178.446 84.1267 183.524C81.5743 210.59 82.0752 227.133 82.0752 227.133C82.0752 227.133 81.8908 227.623 80.3082 227.629C79.4138 227.634 78.5378 227.439 78.5378 227.439C78.5378 227.439 72.8228 209.765 73.264 199.708C73.3165 198.498 73.4583 197.399 73.71 196.452C75.081 191.306 68.6367 171.628 75.6419 164.299C82.6458 156.971 86.2381 164.561 85.9083 167.214Z" fill="#F4A72A"/>
<path d="M85.9083 167.214C85.191 172.994 84.6044 178.445 84.1267 183.524L73.264 199.708C73.3165 198.498 73.4583 197.399 73.71 196.451C75.081 191.306 68.6367 171.627 75.6419 164.298C82.6458 156.971 86.2381 164.561 85.9083 167.214Z" fill="#F4A72A"/>
<path d="M94.5395 112.071C94.5395 112.071 94.2752 110.749 93.9776 109.742C93.8459 109.296 94.7639 106.366 95.3992 106.006C96.0346 105.646 97.6894 107.619 97.2212 109.132C96.9806 109.911 96.5854 112.443 96.5854 112.443L94.5395 112.071Z" fill="#FFB27D"/>
<path d="M94.5403 112.071C94.5403 112.071 94.195 111.304 93.883 111.18C93.5711 111.057 93.2367 109.804 93.0078 109.308C93.0078 109.308 93.2289 108.983 93.6159 109.401C93.852 109.655 94.3782 110.404 94.3782 110.404L94.5403 112.071Z" fill="#FFB27D"/>
<path d="M49.263 116.513C49.1958 116.652 49.1023 116.901 49.0191 117.135C49.0178 117.071 49.0167 117.008 49.0161 116.946C49.0117 116.482 47.278 113.949 46.5653 113.79C45.8524 113.631 44.8463 116.004 45.7367 117.315C46.194 117.988 47.3115 120.294 47.3115 120.294L49.159 119.338C49.159 119.338 49.2655 118.505 49.5275 118.294C49.7894 118.084 49.7434 116.789 49.8173 116.246C49.8173 116.246 49.511 116 49.263 116.513Z" fill="#FFB27D"/>
<path d="M60.7872 228.236C60.6321 226.756 60.5938 222.858 60.5938 222.858C60.5938 222.858 64.5573 221.588 64.4114 222.46C63.6943 226.746 63.889 228.867 63.889 228.867L62.2862 229.826L60.7872 228.236Z" fill="#FFB27D"/>
<path d="M82.6003 166.938C82.6003 166.938 67.2883 208.993 64.2742 227.235C64.2742 227.235 63.5759 227.716 62.2733 227.556C60.796 227.375 60.3912 226.346 60.3912 226.346C60.3912 226.346 57.625 204.482 63.123 196.893C66.9003 191.677 61.4938 168.774 70.2915 166.938C79.0893 165.102 82.6003 166.938 82.6003 166.938Z" fill="#F4A72A"/>
<path d="M79.8782 126.483C79.8781 126.482 79.8781 126.482 79.8781 126.482C79.8754 126.463 79.8711 126.447 79.8654 126.428C79.7759 126.057 79.6782 125.693 79.5729 125.332C79.5728 125.331 79.5728 125.331 79.5728 125.331C79.2523 124.225 78.871 123.172 78.4596 122.242C78.2227 121.709 77.9774 121.214 77.7263 120.775C77.688 120.706 77.6504 120.645 77.6144 120.579L77.6126 120.578C77.0208 119.58 76.4126 118.892 75.8638 118.68C74.8627 118.292 73.7491 118.399 72.9824 118.56C73.1506 118.324 73.5323 118.192 73.5323 118.192C73.0416 118.19 72.0423 118.827 72.0423 118.827C64.9899 117.247 65.4021 127.242 65.8823 129.507C66.3608 131.773 64.0902 132.874 60.888 135.193C54.7768 139.615 54.879 144.304 54.879 144.304C54.9342 144.328 54.9944 144.354 55.0568 144.386C55.3027 143.78 55.8243 142.63 56.371 142.388C56.3555 142.441 55.9108 143.93 55.7846 144.762C56.7155 145.277 58.0037 146.072 59.4025 146.971C59.4025 146.971 59.4025 146.971 59.4043 146.972C61.276 148.172 63.3417 149.553 64.9971 150.674C64.9184 150.218 64.8405 149.567 64.9562 149.199L65.4836 150.836L65.5528 151.05C66.6093 151.767 67.4428 152.342 67.866 152.636C67.9094 152.666 67.9479 152.692 67.9824 152.716C68.1061 152.799 68.1723 152.846 68.1723 152.846C68.0317 152.268 68.6483 150.76 69.6831 148.858C69.754 148.726 69.8292 148.591 69.9059 148.454C70.24 147.853 70.613 147.219 71.0145 146.566C71.1591 146.331 71.3053 146.095 71.4571 145.855C71.4569 145.853 71.4584 145.853 71.4584 145.853C71.5798 145.659 71.7027 145.467 71.8299 145.272L71.8311 145.27C72.131 144.805 72.4412 144.338 72.7576 143.87C73.5773 142.657 74.4452 141.452 75.3029 140.348C76.5483 138.739 77.7703 137.341 78.7936 136.425C78.8271 136.357 78.8588 136.287 78.8873 136.215C79.0475 135.842 79.1704 135.428 79.2656 135.005C79.2953 134.88 79.3217 134.751 79.3448 134.625C79.5999 133.28 79.6049 131.945 79.6016 131.629C79.6835 132.927 79.651 133.908 79.5641 134.648C79.5444 134.812 79.5231 134.962 79.4984 135.102H79.4987C79.4442 135.42 79.3814 135.68 79.3135 135.898C79.4811 135.689 79.6285 135.462 79.7585 135.211C79.8437 135.049 79.9214 134.877 79.9901 134.698C80.8155 132.586 80.5934 129.437 79.8782 126.483Z" fill="#163560"/>
<path d="M78.5552 136.611C78.5789 136.618 76.5808 138.066 74.8859 137.862C73.2918 137.672 71.9954 135.831 72.0159 135.824C72.6455 135.598 72.6998 134.676 72.1162 130.84L72.4182 130.854L77.4949 131.098C77.4949 131.098 77.6135 132.67 77.8277 134.135C78.007 135.365 78.2546 136.521 78.5552 136.611Z" fill="#FFB27D"/>
<path d="M77.4947 131.098C77.4947 131.098 77.6132 132.67 77.8275 134.135C75.0563 134.468 73.2232 132.164 72.418 130.854L77.4947 131.098Z" fill="#ED975D"/>
<path d="M71.8294 130.393C71.8294 130.393 70.0435 128.318 69.4057 126.412C68.9503 125.052 68.8916 119.766 74.1984 119.738C74.1984 119.738 75.7298 119.661 77.2906 120.409C78.5322 121.006 80.405 122.411 79.2558 127.202L79.0095 128.801L71.8294 130.393Z" fill="#163560"/>
<path d="M86.5509 166.131C86.5509 166.131 79.9446 170.064 71.6501 168.042C71.5524 168.017 64.8203 166.941 64.8203 166.941C64.9359 166.624 65.8059 161.413 65.9198 161.123C67.3913 157.317 70.0806 136.668 72.3276 135.649C72.9013 136.275 74.541 136.703 75.9445 136.579C77.5605 136.436 78.1016 135.736 77.9675 134.984C79.7558 135.831 81.1299 136.618 81.1299 136.618C82.7645 139.072 86.5509 166.131 86.5509 166.131Z" fill="white"/>
<path d="M78.6224 132.348C78.6224 132.348 72.1092 133.429 71.4998 129.354C70.8904 125.281 69.6393 122.676 73.772 121.813C77.9048 120.951 78.947 122.384 79.4806 123.694C80.0142 125.005 80.301 131.962 78.6224 132.348Z" fill="#FFB27D"/>
<path d="M76.7286 121.27C76.7286 121.27 75.6507 126.317 73.0121 127.433C70.3736 128.549 69.0742 127.989 69.0742 127.989C69.0742 127.989 70.93 126.001 70.9327 123.012C70.9327 123.012 75.0423 119.196 76.7286 121.27Z" fill="#163560"/>
<path d="M76.3438 121.724C76.3438 121.724 77.8372 122.592 78.3168 123.581C78.7963 124.57 79.2598 126.686 79.8704 126.52C79.8704 126.52 80.7348 123.07 78.9484 121.456C77.0541 119.747 76.3438 121.724 76.3438 121.724Z" fill="#163560"/>
<path d="M96.6308 112.164C96.366 112.071 95.9755 111.85 95.4665 111.804C95.0129 111.763 94.443 111.912 94.443 111.912C94.443 111.912 92.6056 123.356 92.469 123.962C92.3326 124.569 84.5872 133.311 82.499 133.276C80.6133 133.245 78.3794 134.703 77.9648 134.984C77.9648 134.984 82.3563 144.287 82.5752 146.035C82.8135 147.936 85.0868 177.222 85.0868 177.222C85.0868 177.222 84.9516 178.584 87.4922 177.852C90.0326 177.119 90.668 176.514 90.668 176.514C90.668 176.514 88.3344 153.458 87.8448 146.289C87.7791 145.327 87.6222 144.434 87.399 143.613C87.1837 142.821 87.3534 141.974 87.8361 141.31C91.048 136.892 96.1204 129.735 96.403 128.213C96.8182 125.977 96.6308 112.164 96.6308 112.164Z" fill="#2B478B"/>
<path d="M69.9225 233.75H58.9548C58.9548 233.75 58.6918 232.075 59.2647 230.805C59.8136 229.586 60.668 228.832 60.7459 227.898C61.4428 228.618 62.3004 229.081 63.8861 228.867C64.0803 229.183 65.1401 230.872 65.7891 231.338C66.5057 231.854 69.7018 231.671 69.9225 233.75Z" fill="#233862"/>
<path d="M77.4569 146.939C77.0875 144.66 72.3681 135.509 72.3681 135.509C72.3681 135.509 69.3846 134.615 67.4209 135.328C65.4574 136.04 55.2978 130.293 54.9722 129.763C54.6465 129.235 49.205 119.076 49.205 119.076C49.205 119.076 48.7538 118.814 48.0308 119.191C47.3157 119.564 47.3125 120.294 47.3125 120.294C47.3125 120.294 51.5122 133.084 52.6295 135.064C53.3033 136.257 58.9677 140.412 63.3595 143.523C64.198 144.116 64.6384 145.128 64.5006 146.147C63.9102 150.521 63.7598 152.985 63.0807 160.49C62.5173 166.716 62.3017 178.771 62.3017 178.771C62.3017 178.771 67.2162 180.476 70.608 180.701C73.9998 180.928 74.7389 177.345 74.7389 177.345C74.7389 177.345 77.8369 149.283 77.4569 146.939Z" fill="#2B478B"/>
<path d="M76.4883 130.333C76.4883 130.333 77.2796 130.799 78.2139 130.659C78.8538 130.562 78.9992 129.802 78.9992 129.802C78.9992 129.802 78.5543 129.661 77.8444 129.805C77.1344 129.947 76.4883 130.333 76.4883 130.333Z" fill="white"/>
<path d="M284.522 52.6649C284.522 52.6649 281.476 47.2386 284.522 46.1343C287.57 45.03 288.949 46.0491 289.094 47.2837C289.239 48.52 287.933 53.3916 287.933 53.3916L284.522 52.6649Z" fill="#FFB27D"/>
<path d="M286.962 87.3708C281.406 88.3749 276.297 88.8393 271.685 88.9429C267.309 89.0415 263.382 88.8143 259.944 88.4133C259.02 88.3081 258.133 88.1878 257.281 88.0591C248.285 86.6925 243.316 84.2685 243.316 84.2685C243.316 84.2685 251.537 67.0274 258.178 67.689C265.968 68.4675 279.169 75.4725 280.481 73.5078C281.958 71.2943 283.195 52.3124 283.195 52.3124C286.649 49.9435 288.711 52.4411 288.711 52.4411C288.711 52.4411 295.459 85.8355 286.962 87.3708Z" fill="#F4A72A"/>
<path d="M286.962 87.3708C281.407 88.3749 276.298 88.8393 271.686 88.9429C267.309 89.0415 263.382 88.8143 259.944 88.4133C257.871 81.8093 256.381 75.0632 260.549 79.1312C267.902 86.3033 286.962 87.3708 286.962 87.3708Z" fill="#F4A72A"/>
<path d="M242.693 226.572C242.693 226.572 242.103 233.426 243.549 234.138L262.054 234.101C262.054 234.101 262.054 231.961 259.081 231.485C256.109 231.011 250.887 229.267 250.003 225.384C249.12 221.5 242.693 226.572 242.693 226.572Z" fill="#233862"/>
<path d="M256.281 143.621C256.189 148.102 255.974 152.724 255.554 156.879C253.555 176.593 252.853 200.413 252.566 205.005C252.067 212.976 250.497 225.711 250.497 225.711C250.497 225.711 247.379 228.676 241.301 227.261C241.301 227.261 236.267 208.919 235.142 189.605C235.125 189.288 235.108 188.969 235.092 188.651C234.962 186.097 234.825 183.178 234.685 180.029C233.759 158.941 232.754 127.614 232.754 127.614L255.974 122.151C255.974 122.151 256.509 132.448 256.281 143.621Z" fill="#2A4E96"/>
<path d="M256.281 143.621C250.395 153.794 239.178 172.536 234.685 180.029C233.759 158.941 232.754 127.615 232.754 127.615L255.974 122.152C255.974 122.152 256.509 132.448 256.281 143.621Z" fill="#233862"/>
<path d="M197.484 123.914C197.484 123.914 193.706 128.367 193.366 129.601C193.025 130.836 192.42 135.283 192.745 136.619C193.069 137.956 195.582 132.892 196.495 132.353C197.409 131.811 195.81 134.366 196.122 134.792C196.434 135.218 198.238 133.302 198.941 132.652C199.645 132.003 199.575 128.512 200.42 126.447C201.266 124.382 197.484 123.914 197.484 123.914Z" fill="#FFB27D"/>
<path d="M196.598 218.783C196.598 218.783 193.303 221.794 193.947 223.934C194.589 226.074 197.562 227.501 197.963 230.115C198.365 232.731 199.971 234.158 201.417 234.158C202.864 234.158 208.311 234.158 208.311 234.158C208.311 234.158 209.375 232.317 206.804 231.763C204.234 231.208 203.264 228.134 203.426 225.282C203.586 222.429 203.184 218.625 203.184 218.625L197.722 217.357L196.598 218.783Z" fill="#233862"/>
<path d="M252.315 128.093C252.315 128.093 230.577 174.693 219.009 195.14C207.442 215.587 203.827 221.292 203.827 221.292C203.827 221.292 197.2 218.678 196.598 216.894C196.598 216.894 201.021 177.42 208.768 167.797C213.145 162.361 218.287 146.044 218.527 140.337C218.769 134.63 223.846 121.011 223.846 121.011L252.315 128.093Z" fill="#2A4E96"/>
<path d="M258.669 130.289C258.669 130.289 250.026 136.08 237.79 135.542C232.421 135.308 221.772 133.783 220.053 129.504C219.649 128.498 219.944 127.224 220.55 125.267C222.122 120.182 225.784 110.497 224.678 89.0246C224.575 87.0281 224.631 85.1487 224.821 83.3912C225.974 72.8144 232.023 66.5511 237.87 64.5046C252.13 59.5094 256.884 66.4292 256.884 66.4292C256.884 66.4292 263.186 71.4327 264.137 81.8742C266.036 102.761 258.669 130.289 258.669 130.289Z" fill="#F4A72A"/>
<path d="M242.047 63.3048C242.047 63.3048 248.59 67.291 255.686 66.1633C255.686 66.1633 257.09 65.8058 256.4 64.1569C256.832 62.8237 256.78 62.944 257.03 61.955C257.652 59.6762 257.842 58.3614 257.842 58.3614L253.815 54.1213L250 50.0683C248.947 59.7547 242.047 63.3048 242.047 63.3048Z" fill="#FFB27D"/>
<path d="M249.391 53.7422C249.391 53.7422 251.582 59.6112 257.031 61.9551C257.653 59.6763 258.058 57.294 258.058 57.294L253.816 54.1215L249.391 53.7422Z" fill="#ED985F"/>
<path d="M262.362 58.1579C262.362 58.1579 249.873 59.7216 248.996 52.0316C248.119 44.3417 245.917 39.3649 253.854 38.0417C261.79 36.7169 263.678 39.4818 264.603 41.9794C265.529 44.4753 265.589 57.5531 262.362 58.1579Z" fill="#FFB27D"/>
<path d="M245.054 36.7918C244.945 36.6581 244.69 36.5429 244.113 36.4894C244.113 36.4894 244.587 36.2171 245.205 36.2254C245.355 35.4235 245.837 34.0135 247.235 33.7195C247.235 33.7195 246.476 34.0887 246.348 34.9424C248.012 33.3536 251.493 32.2827 260.977 33.3954C273.478 34.8622 269.042 42.7476 267.382 43.6447C265.723 44.5419 261.738 41.7586 258.705 41.8839C255.672 42.0109 254.93 46.3662 253.883 46.9292C252.834 47.4906 253.277 46.4431 251.913 45.7631C250.548 45.0815 250.329 47.3803 250.674 48.8939C251.018 50.4075 249.037 52.312 249.037 52.312C249.037 52.312 249.037 52.312 247.188 50.1586C245.339 48.0068 243.855 39.129 244.802 37.2846C244.885 37.1226 244.969 36.9572 245.054 36.7918Z" fill="#2C3A64"/>
<path d="M283.195 49.0644L261.993 49.2549L261.848 46.059L282.984 44.4167L283.195 49.0644Z" fill="#2A4E96"/>
<path d="M299.2 49.599L276.115 49.9331L275.852 44.1226L298.87 42.335L299.2 49.599Z" fill="#2A4E96"/>
<path d="M314.767 50.0552L295.3 50.0786L294.945 42.235L314.332 40.4674L314.767 50.0552Z" fill="#233862"/>
<path d="M315.044 51.3782C315.645 51.3514 316.11 50.8419 316.081 50.2404L315.625 40.1632C315.598 39.5617 315.089 39.0956 314.489 39.1223C313.887 39.1507 313.424 39.6603 313.45 40.2617L313.907 50.339C313.934 50.9405 314.444 51.4066 315.044 51.3782Z" fill="#233862"/>
<path d="M261.927 49.9366C261.393 49.9599 260.941 49.5473 260.916 49.0127L260.798 46.3981C260.773 45.8619 261.186 45.4091 261.72 45.3841C262.255 45.3607 262.707 45.775 262.73 46.3096L262.849 48.9241C262.874 49.4587 262.46 49.9115 261.927 49.9366Z" fill="#2A4E96"/>
<path d="M220.551 125.268C222.123 120.182 225.785 110.497 224.679 89.0247C224.576 87.0283 224.633 85.1488 224.823 83.3913H224.824C229.516 82.987 236.691 88.0691 236.691 88.0691C236.691 88.0691 232.273 115.057 220.551 125.268Z" fill="#F4A72A"/>
<path d="M242.047 63.3048C242.047 63.3048 230.013 65.3764 223.737 73.053C217.461 80.7296 207.365 91.5536 204.979 95.3443C202.591 99.135 195.965 124.931 195.965 124.931C195.965 124.931 196.403 125.76 198.231 126.243C199.98 126.706 201.249 125.989 201.249 125.989C201.249 125.989 210.028 110.935 213.332 103.414C214.705 100.289 238.447 87.915 247.372 89.198C250.877 89.7009 242.047 63.3048 242.047 63.3048Z" fill="#F4A72A"/>
<path d="M283.07 43.5013C283.07 43.5013 285.658 45.0884 287.207 44.4168C288.754 43.7452 288.618 43.1321 288.618 43.1321C288.618 43.1321 283.941 41.8307 283.07 43.5013Z" fill="#FFB27D"/>
<path d="M253.725 71.7136C253.725 71.7136 248.444 105.12 210.976 114.846L206.895 122.914L214.064 124.13C214.064 124.13 256.721 111.747 256.146 71.1238L253.725 71.7136Z" fill="#BC3F3F"/>
<path d="M252.905 66.3824L251.176 66.5511V69.0604L253.724 71.7134L256.146 71.1236V67.642L254.404 66.3824H252.905Z" fill="#A02E2E"/>
<path d="M246.12 59.7398C246.12 59.7398 244.446 60.1174 240.617 63.3049C240.617 63.3049 244.424 71.3992 252.454 72.3682C252.454 72.3682 252.326 68.6126 252.906 66.3823C252.906 66.3823 246.541 64.0985 246.12 59.7398Z" fill="#F4A72A"/>
<path d="M252.906 66.3824C252.906 66.3824 256.825 68.4673 257.115 71.7134C257.115 71.7134 258.612 69.336 258.179 67.6905C257.743 66.0432 256.401 64.1571 256.401 64.1571C256.401 64.1571 256.534 66.1401 252.906 66.3824Z" fill="#F4A72A"/>
</svg>
