<svg width="21" height="21" viewBox="0 0 21 21" fill="none" xmlns="http://www.w3.org/2000/svg">
<mask id="path-1-inside-1_1878_103216" fill="white">
<path d="M8.80902 14.641C5.47663 14.641 2.7743 11.9399 2.7743 8.60629C2.7743 5.27268 5.47663 2.57157 8.80902 2.57157C12.1426 2.57157 14.8444 5.27268 14.8444 8.60629C14.8444 11.9399 12.1426 14.641 8.80902 14.641ZM8.69169 0.0232201C3.95191 0.0232201 0.109863 3.86651 0.109863 8.60629C0.109863 13.3461 3.95191 17.1887 8.69169 17.1887C10.4492 17.1887 12.0803 16.6601 13.4412 15.7538L18.2042 20.4453L20.4067 18.2441L15.6749 13.5844C16.6783 12.1795 17.2747 10.4641 17.2747 8.60629C17.2747 3.86651 13.4327 0.0232201 8.69169 0.0232201Z"/>
</mask>
<path d="M13.4412 15.7538L12.887 14.9215L13.5637 14.4708L14.143 15.0414L13.4412 15.7538ZM18.2042 20.4453L18.9111 21.1526L18.2094 21.854L17.5025 21.1577L18.2042 20.4453ZM20.4067 18.2441L21.1083 17.5316L21.8266 18.2389L21.1136 18.9514L20.4067 18.2441ZM15.6749 13.5844L14.9732 14.2969L14.3649 13.6979L14.8611 13.0032L15.6749 13.5844ZM8.80902 15.641C4.92448 15.641 1.7743 12.4923 1.7743 8.60629H3.7743C3.7743 11.3875 6.02878 13.641 8.80902 13.641V15.641ZM1.7743 8.60629C1.7743 4.72026 4.92448 1.57157 8.80902 1.57157V3.57157C6.02878 3.57157 3.7743 5.82509 3.7743 8.60629H1.7743ZM8.80902 1.57157C12.6948 1.57157 15.8444 4.72026 15.8444 8.60629H13.8444C13.8444 5.82509 11.5905 3.57157 8.80902 3.57157V1.57157ZM15.8444 8.60629C15.8444 12.4923 12.6948 15.641 8.80902 15.641V13.641C11.5905 13.641 13.8444 11.3875 13.8444 8.60629H15.8444ZM8.69169 1.02322C4.50439 1.02322 1.10986 4.41861 1.10986 8.60629H-0.890137C-0.890137 3.31441 3.39944 -0.97678 8.69169 -0.97678V1.02322ZM1.10986 8.60629C1.10986 12.7939 4.50429 16.1887 8.69169 16.1887V18.1887C3.39954 18.1887 -0.890137 13.8983 -0.890137 8.60629H1.10986ZM8.69169 16.1887C10.2454 16.1887 11.6846 15.7222 12.887 14.9215L13.9955 16.5862C12.476 17.5981 10.6531 18.1887 8.69169 18.1887V16.1887ZM14.143 15.0414L18.906 19.7329L17.5025 21.1577L12.7395 16.4663L14.143 15.0414ZM17.4973 19.738L19.6998 17.5368L21.1136 18.9514L18.9111 21.1526L17.4973 19.738ZM19.705 18.9566L14.9732 14.2969L16.3765 12.8719L21.1083 17.5316L19.705 18.9566ZM14.8611 13.0032C15.7491 11.7598 16.2747 10.246 16.2747 8.60629H18.2747C18.2747 10.6821 17.6075 12.5991 16.4886 14.1656L14.8611 13.0032ZM16.2747 8.60629C16.2747 4.4187 12.8803 1.02322 8.69169 1.02322V-0.97678C13.9851 -0.97678 18.2747 3.31432 18.2747 8.60629H16.2747Z" fill="#515151" mask="url(#path-1-inside-1_1878_103216)"/>
</svg>
