<svg width="18" height="18" version="1.1" viewBox="0 0 4.7625 4.7625" xmlns="http://www.w3.org/2000/svg">
 <path d="m4.5946 4.1202-0.02-0.02-0.48427 0.48154 0.0118 0.0116 0.12843 0.1276c0.0822 0.0819 0.25738 0.0405 0.39117-0.0924 0.13367-0.13308 0.17531-0.30717 0.0929-0.38894l-0.11997-0.11932z" fill="#515151" stroke-width=".26794"/>
 <path d="m4.4546 3.9802-0.48414 0.48126 0.11835 0.1161 0.48427-0.48153-0.0138-0.0137-4e-4 2.7e-4z" fill="#f4a72a" stroke-width=".26794"/>
 <path d="m1.911 3.1912c-0.73253 0-1.3266-0.59056-1.3266-1.3194 0-0.72884 0.59403-1.3194 1.3266-1.3194 0.7328 0 1.3267 0.59056 1.3267 1.3194 0 0.72884-0.5939 1.3194-1.3267 1.3194zm-0.025792-3.196c-1.0419 0-1.8865 0.84027-1.8865 1.8766 0 1.0363 0.84456 1.8764 1.8865 1.8764 0.38635 0 0.74489-0.11555 1.0441-0.31369l1.047 1.0257 0.48414-0.48124-1.0402-1.0188c0.22058-0.30717 0.35169-0.68221 0.35169-1.0884 0-1.0363-0.84456-1.8766-1.8867-1.8766z" fill="#515151" stroke-width=".26794"/>
</svg>
