<svg width="18" height="19" viewBox="0 0 18 19" fill="none" xmlns="http://www.w3.org/2000/svg">
<g clip-path="url(#clip0_5_18986)">
<path fill-rule="evenodd" clip-rule="evenodd" d="M9.14497 1.44512C9.1022 1.43162 9.0562 1.43162 9.01343 1.44512L1.93805 3.69797C1.89473 3.71084 1.85668 3.7368 1.82932 3.77215C1.80197 3.80749 1.78671 3.85041 1.78574 3.89476V8.14262C1.78574 12.7298 4.60343 16.1158 9.02036 17.7512C9.05838 17.7647 9.10002 17.7647 9.13805 17.7512C13.555 16.1158 16.3727 12.7298 16.3727 8.14262V3.89476C16.3717 3.85041 16.3564 3.80749 16.3291 3.77215C16.3017 3.7368 16.2637 3.71084 16.2204 3.69797L9.14497 1.44512ZM8.61882 0.244044C8.9181 0.149121 9.2403 0.149121 9.53959 0.244044L16.615 2.4969C16.9163 2.59279 17.1791 2.77962 17.3656 3.03069C17.5521 3.28175 17.6529 3.58419 17.6534 3.89476V8.14262C17.6534 13.3473 14.4204 17.1405 9.58805 18.9319C9.25428 19.0473 8.89028 19.0473 8.55651 18.9319C3.73805 17.1201 0.498047 13.3269 0.498047 8.14262V3.89476C0.498628 3.58419 0.599378 3.28175 0.785892 3.03069C0.972406 2.77962 1.23513 2.59279 1.53651 2.4969L8.61882 0.244044ZM9.9342 9.5744C10.1919 9.42941 10.4065 9.22112 10.5571 8.97005C10.7076 8.71898 10.7888 8.4338 10.7927 8.14262C10.8076 7.91309 10.7743 7.683 10.6949 7.46657C10.6155 7.25013 10.4918 7.05194 10.3312 6.88423C10.1706 6.71652 9.97667 6.58285 9.76134 6.49147C9.54601 6.40009 9.31385 6.35295 9.0792 6.35295C8.84455 6.35295 8.6124 6.40009 8.39706 6.49147C8.18173 6.58285 7.98779 6.71652 7.82722 6.88423C7.66665 7.05194 7.54286 7.25013 7.46348 7.46657C7.38411 7.683 7.35085 7.91309 7.36574 8.14262C7.36598 8.43727 7.44546 8.72665 7.59618 8.98159C7.74689 9.23653 7.96351 9.44803 8.2242 9.59476V11.9223C8.2135 12.0386 8.22766 12.1559 8.26577 12.2667C8.30387 12.3774 8.3651 12.4791 8.44553 12.5654C8.52597 12.6517 8.62385 12.7206 8.73295 12.7677C8.84205 12.8148 8.95997 12.8392 9.0792 12.8392C9.19843 12.8392 9.31635 12.8148 9.42545 12.7677C9.53455 12.7206 9.63243 12.6517 9.71287 12.5654C9.7933 12.4791 9.85453 12.3774 9.89263 12.2667C9.93074 12.1559 9.9449 12.0386 9.9342 11.9223V9.5744Z" fill="#A8A8AD"/>
</g>
<defs>
<clipPath id="clip0_5_18986">
<rect width="18" height="19" fill="white"/>
</clipPath>
</defs>
</svg>
