<svg width="19" height="19" viewBox="0 0 19 19" fill="none" xmlns="http://www.w3.org/2000/svg">
<path d="M17.225 1.77688C16.9329 1.48476 16.5862 1.25304 16.2045 1.09494C15.8229 0.936841 15.4139 0.855469 15.0008 0.855469C14.5877 0.855469 14.1787 0.936841 13.797 1.09494C13.4154 1.25304 13.0687 1.48476 12.7766 1.77688L6.17659 8.37688C6.09953 8.45362 6.04478 8.54984 6.01819 8.65528L4.81818 13.4553C4.79317 13.5557 4.79457 13.6609 4.82225 13.7607C4.84993 13.8604 4.90295 13.9513 4.97614 14.0245C5.04934 14.0977 5.14023 14.1507 5.23998 14.1784C5.33972 14.2061 5.44494 14.2075 5.54538 14.1825L10.3454 12.9825C10.4511 12.9564 10.5478 12.9021 10.625 12.8253L17.225 6.22528C17.5171 5.93322 17.7488 5.58647 17.9069 5.20484C18.065 4.8232 18.1464 4.41417 18.1464 4.00108C18.1464 3.588 18.065 3.17896 17.9069 2.79733C17.7488 2.4157 17.5171 2.06895 17.225 1.77688ZM15.533 9.61288C15.7397 11.1071 15.472 12.6285 14.7675 13.9623C14.063 15.2962 12.9574 16.3751 11.6067 17.0467C10.256 17.7183 8.72851 17.9488 7.2398 17.7055C5.7511 17.4622 4.3764 16.7575 3.30977 15.6909C2.24313 14.6243 1.53844 13.2496 1.29518 11.7609C1.05191 10.2722 1.28236 8.74465 1.95399 7.39398C2.62562 6.0433 3.7045 4.93768 5.03833 4.23319C6.37216 3.5287 7.89357 3.26093 9.38778 3.46768L10.4126 2.44288C8.63124 2.00374 6.75509 2.15987 5.07084 2.88744C3.38659 3.615 1.98686 4.87398 1.08552 6.472C0.184191 8.07002 -0.169168 9.91919 0.0794404 11.7369C0.328049 13.5547 1.16495 15.2411 2.46227 16.5384C3.75958 17.8357 5.44596 18.6726 7.26372 18.9212C9.08148 19.1698 10.9307 18.8165 12.5287 17.9151C14.1267 17.0138 15.3857 15.6141 16.1132 13.9298C16.8408 12.2456 16.9969 10.3694 16.5578 8.58808L15.533 9.61288Z" fill="#515151"/>
</svg>
