<svg width="23" height="22" viewBox="0 0 23 22" fill="none" xmlns="http://www.w3.org/2000/svg">
<path d="M22.9979 16.1746L22.9366 15.4381C22.913 15.175 22.6868 14.9789 22.4276 15.0029L21.7159 15.065C21.5556 14.4768 21.2776 13.9124 20.8817 13.4198L21.3388 12.8698C21.5085 12.6689 21.4802 12.3676 21.2823 12.1955L20.7261 11.7172C20.5282 11.545 20.2313 11.5737 20.0616 11.7746L19.6091 12.3198C19.0624 12.0042 18.4686 11.8176 17.8653 11.7555L17.804 11.0524C17.7804 10.7894 17.5542 10.5933 17.295 10.6172L16.5692 10.6794C16.3099 10.7033 16.1167 10.9329 16.1403 11.1959L16.2015 11.8989C15.6171 12.0616 15.061 12.3485 14.5708 12.755L14.0429 12.3055C13.845 12.1333 13.5481 12.162 13.3784 12.3629L12.9071 12.9272C12.7374 13.1281 12.7657 13.4294 12.9636 13.6016L13.4915 14.0511C13.1804 14.6107 12.9966 15.2133 12.9401 15.8303L12.2472 15.8924C11.988 15.9163 11.7948 16.1459 11.8184 16.4089L11.8796 17.1455C11.9032 17.4085 12.1294 17.6046 12.3886 17.5807L13.0815 17.5185C13.2464 18.1116 13.5292 18.6711 13.9298 19.1637L13.4774 19.7089C13.3077 19.9098 13.336 20.2111 13.5339 20.3833L14.0901 20.8616C14.288 21.0337 14.585 21.005 14.7546 20.8042L15.2118 20.2542C15.7585 20.565 16.3477 20.7468 16.9509 20.8089L17.0122 21.5311C17.0358 21.7942 17.262 21.9903 17.5212 21.9663L18.247 21.9042C18.5063 21.8803 18.6995 21.6507 18.6759 21.3876L18.6147 20.6607C19.1944 20.4933 19.7411 20.2111 20.2265 19.8094L20.778 20.2829C20.9759 20.455 21.2729 20.4263 21.4425 20.2255L21.9138 19.6611C22.0835 19.4603 22.0552 19.1589 21.8573 18.9868L21.3058 18.5133C21.6122 17.9633 21.796 17.3655 21.8573 16.7581L22.5737 16.6959C22.8282 16.6672 23.0167 16.4376 22.9979 16.1746ZM19.2651 17.8772C18.4026 18.9198 16.8661 19.0537 15.8386 18.1737C14.8112 17.2985 14.6792 15.7394 15.5464 14.6968C16.4136 13.6542 17.9454 13.5203 18.9729 14.4003C19.9956 15.2803 20.1276 16.8346 19.2651 17.8772Z" fill="white"/>
<path d="M11.8793 13.5971L11.4269 12.7075C12.1103 12.1623 12.657 11.4879 13.0529 10.7371L14.0002 11.0431C14.3443 11.1531 14.7119 10.9618 14.825 10.6079L15.1314 9.62749C15.2398 9.27836 15.0513 8.90531 14.7025 8.79053L13.7504 8.48444C13.8494 7.6427 13.7834 6.77705 13.5336 5.93053L14.4244 5.46184C14.7449 5.29444 14.8722 4.8927 14.7072 4.56271L14.2406 3.64923C14.0757 3.32401 13.6797 3.19488 13.3545 3.36227L12.4638 3.83097C11.9312 3.13749 11.2713 2.58271 10.5361 2.17618L10.8377 1.2101C10.9461 0.860966 10.7576 0.487923 10.4088 0.37314L9.44266 0.0622708C9.0986 -0.0477292 8.73098 0.143575 8.61787 0.497488L8.31623 1.45879C7.482 1.35357 6.62422 1.42053 5.79 1.66923L5.33754 0.779662C5.17258 0.454445 4.77668 0.325314 4.45147 0.492705L3.55127 0.966184C3.23077 1.13358 3.10352 1.53531 3.26848 1.86531L3.71623 2.74531C3.03754 3.30488 2.4861 3.97923 2.08549 4.7301L1.16172 4.43357C0.81766 4.32357 0.450037 4.51488 0.336922 4.86879L0.03057 5.84923C-0.0778316 6.19836 0.110693 6.5714 0.459463 6.68618L1.37852 6.9827C1.27483 7.83401 1.34082 8.71401 1.59061 9.56531L0.737537 10.0149C0.417045 10.1823 0.289791 10.584 0.45475 10.914L0.921349 11.8275C1.08631 12.1527 1.48221 12.2818 1.80741 12.1144L2.66049 11.6649C3.2025 12.3631 3.87176 12.9275 4.61643 13.334L4.32422 14.2666C4.21582 14.6157 4.40434 14.9888 4.75311 15.1036L5.7193 15.4144C6.06336 15.5244 6.43098 15.3331 6.54409 14.9792L6.83631 14.0418C7.67053 14.1423 8.53303 14.0705 9.37196 13.8123L9.81971 14.6923C9.98467 15.0175 10.3806 15.1466 10.7058 14.9792L11.606 14.5057C11.9218 14.324 12.0443 13.9223 11.8793 13.5971ZM8.75926 7.10227C9.11746 7.80531 8.84881 8.66618 8.15598 9.02966C7.46315 9.39314 6.61479 9.12053 6.25659 8.41749C5.8984 7.71444 6.16705 6.85357 6.85987 6.4901C7.5527 6.12662 8.40106 6.39923 8.75926 7.10227ZM5.65332 3.96488C6.05864 3.74966 6.48282 3.61097 6.91172 3.54401L6.85516 4.84966C6.61479 4.90705 6.37914 4.99314 6.15291 5.1127C4.94635 5.74401 4.35721 7.11184 4.62586 8.39836L3.56541 8.94836C2.99983 7.03053 3.83877 4.91662 5.65332 3.96488ZM9.50393 11.5118C7.67996 12.4684 5.48364 11.9375 4.27237 10.3497L5.33754 9.7901C6.21418 10.7562 7.65639 11.0527 8.86295 10.4214C9.09389 10.2971 9.30598 10.1488 9.48979 9.97662L10.5974 10.6892C10.2863 11.0097 9.9234 11.2918 9.50393 11.5118ZM10.3193 8.64705C10.5408 7.9201 10.4937 7.11184 10.1213 6.38488C9.74901 5.65314 9.11745 5.14618 8.40106 4.91184L8.45762 3.58227C9.6359 3.84053 10.7011 4.61053 11.2996 5.78227C11.8935 6.94444 11.9076 8.25488 11.4457 9.37401L10.3193 8.64705Z" fill="white"/>
</svg>
