<svg width="20" height="17" viewBox="0 0 20 17" fill="none" xmlns="http://www.w3.org/2000/svg">
<path d="M12.4789 0.605071L12.4789 0.605088L19.3541 6.37234C19.5487 6.53566 19.5486 6.82157 19.3541 6.98478L12.4789 12.7526L12.4789 12.7526C12.1756 13.0071 11.75 12.7716 11.75 12.4464V9.11035V8.60332L11.243 8.6104C9.71326 8.63178 8.37626 8.73999 7.26013 8.98518C6.14645 9.22983 5.21467 9.61889 4.53162 10.2301C3.1104 11.5018 2.97524 13.5134 3.876 16.3118L4.35195 16.1586L3.87601 16.3118C3.88859 16.3509 3.88332 16.3723 3.87717 16.3871C3.86884 16.407 3.8485 16.4355 3.80914 16.4605C3.7269 16.5127 3.62507 16.5147 3.54373 16.4572L3.2552 16.8656L3.54372 16.4572C1.9324 15.3187 0.5 13.1474 0.5 11.0168C0.5 9.64588 0.794539 8.58042 1.30262 7.74521C1.81042 6.91047 2.55184 6.27233 3.49951 5.78817C5.41695 4.80857 8.1278 4.48375 11.2556 4.44897L11.75 4.44347V3.949V0.911279C11.75 0.586188 12.1758 0.350756 12.4789 0.605071Z" stroke="#515151"/>
</svg>
