<svg width="34" height="27" viewBox="0 0 34 27" fill="none" xmlns="http://www.w3.org/2000/svg">
<g clip-path="url(#clip0_1904_103282)">
<path d="M7.55556 9.14286C6.79666 9.14286 6.16667 8.51474 6.16667 7.71429C6.16667 6.91384 6.79666 6.28571 7.55556 6.28571C8.31446 6.28571 8.94444 6.91384 8.94444 7.71429C8.94444 8.51474 8.31446 9.14286 7.55556 9.14286ZM12.3056 7.71429C12.3056 7.17901 12.723 6.76786 13.2222 6.76786H26.4444C26.9436 6.76786 27.3611 7.17902 27.3611 7.71429C27.3611 8.24956 26.9436 8.66071 26.4444 8.66071H13.2222C12.723 8.66071 12.3056 8.24956 12.3056 7.71429ZM12.3056 13.5C12.3056 12.9647 12.723 12.5536 13.2222 12.5536H26.4444C26.9436 12.5536 27.3611 12.9647 27.3611 13.5C27.3611 14.0353 26.9436 14.4464 26.4444 14.4464H13.2222C12.723 14.4464 12.3056 14.0353 12.3056 13.5ZM12.3056 19.2857C12.3056 18.7504 12.723 18.3393 13.2222 18.3393H26.4444C26.9436 18.3393 27.3611 18.7504 27.3611 19.2857C27.3611 19.821 26.9436 20.2321 26.4444 20.2321H13.2222C12.723 20.2321 12.3056 19.821 12.3056 19.2857ZM7.55556 12.0714C8.31446 12.0714 8.94444 12.6996 8.94444 13.5C8.94444 14.3004 8.31446 14.9286 7.55556 14.9286C6.79666 14.9286 6.16667 14.3004 6.16667 13.5C6.16667 12.6996 6.79666 12.0714 7.55556 12.0714ZM7.55556 20.7143C6.79666 20.7143 6.16667 20.0862 6.16667 19.2857C6.16667 18.4853 6.79666 17.8571 7.55556 17.8571C8.31446 17.8571 8.94444 18.4853 8.94444 19.2857C8.94444 20.0862 8.31446 20.7143 7.55556 20.7143ZM0.5 3.85714C0.5 1.99297 1.97704 0.5 3.77778 0.5H30.2222C32.0203 0.5 33.5 1.99322 33.5 3.85714V23.1429C33.5 25.004 32.02 26.5 30.2222 26.5H3.77778C1.97729 26.5 0.5 25.0043 0.5 23.1429V3.85714ZM2.33333 3.85714V23.1429C2.33333 23.9387 2.96928 24.6071 3.77778 24.6071H30.2222C31.0276 24.6071 31.6667 23.9395 31.6667 23.1429V3.85714C31.6667 3.05726 31.0268 2.39286 30.2222 2.39286H3.77778C2.97008 2.39286 2.33333 3.05808 2.33333 3.85714Z" stroke="#F4A72A"/>
</g>
<defs>
<clipPath id="clip0_1904_103282">
<rect width="34" height="27" fill="white"/>
</clipPath>
</defs>
</svg>
