<svg width="18" height="18" viewBox="0 0 18 18" fill="none" xmlns="http://www.w3.org/2000/svg">
<g clip-path="url(#clip0_1879_102556)">
<path d="M6.075 8.1C6.37337 8.1 6.65952 7.98147 6.87049 7.77049C7.08147 7.55952 7.2 7.27337 7.2 6.975C7.2 6.67663 7.08147 6.39048 6.87049 6.1795C6.65952 5.96853 6.37337 5.85 6.075 5.85C5.77663 5.85 5.49048 5.96853 5.2795 6.1795C5.06853 6.39048 4.95 6.67663 4.95 6.975C4.95 7.27337 5.06853 7.55952 5.2795 7.77049C5.49048 7.98147 5.77663 8.1 6.075 8.1ZM13.05 6.975C13.05 7.27337 12.9315 7.55952 12.7205 7.77049C12.5095 7.98147 12.2234 8.1 11.925 8.1C11.6266 8.1 11.3405 7.98147 11.1295 7.77049C10.9185 7.55952 10.8 7.27337 10.8 6.975C10.8 6.67663 10.9185 6.39048 11.1295 6.1795C11.3405 5.96853 11.6266 5.85 11.925 5.85C12.2234 5.85 12.5095 5.96853 12.7205 6.1795C12.9315 6.39048 13.05 6.67663 13.05 6.975ZM6.5034 13.8064C7.27403 14.2069 8.13162 14.4108 9 14.4C9.86832 14.4108 10.7259 14.2069 11.4965 13.8065C12.267 13.4062 12.9268 12.8217 13.4172 12.105C13.4952 11.9779 13.5195 11.825 13.4848 11.68C13.45 11.535 13.3591 11.4097 13.232 11.3317C13.1049 11.2537 12.952 11.2294 12.807 11.2641C12.662 11.2988 12.5367 11.3897 12.4587 11.5168C12.0693 12.0698 11.5506 12.5191 10.9477 12.8255C10.3449 13.132 9.67619 13.2863 9 13.275C8.32379 13.2861 7.65512 13.1317 7.05223 12.8252C6.44933 12.5188 5.93048 12.0696 5.54085 11.5168C5.46286 11.3897 5.33756 11.2988 5.19254 11.2641C5.04751 11.2294 4.89463 11.2537 4.76752 11.3317C4.64042 11.4097 4.5495 11.535 4.51478 11.68C4.48005 11.825 4.50436 11.9779 4.58235 12.105C5.07282 12.8217 5.73271 13.4061 6.5034 13.8064ZM9 0C4.0293 0 0 4.0293 0 9C0 13.9707 4.0293 18 9 18C13.9707 18 18 13.9707 18 9C18 4.0293 13.9707 0 9 0ZM1.125 9C1.125 4.65075 4.65075 1.125 9 1.125C13.3492 1.125 16.875 4.65075 16.875 9C16.875 13.3492 13.3492 16.875 9 16.875C4.65075 16.875 1.125 13.3492 1.125 9Z" fill="#010101" fill-opacity="0.5"/>
</g>
<defs>
<clipPath id="clip0_1879_102556">
<rect width="18" height="18" fill="white"/>
</clipPath>
</defs>
</svg>
