<svg width="24" height="22" viewBox="0 0 24 22" fill="none" xmlns="http://www.w3.org/2000/svg">
<path d="M7.5 5.3516V17.3146L9.53722 17.7062L9.53749 17.7063L11.3889 18.0611V4.60449L9.53749 4.95997L9.53739 4.95999L7.5 5.3516Z" stroke="#F4A72A"/>
<path d="M21.7104 0.555494L21.71 0.555635L12.5 3.98271V18.0165L21.71 21.4444L21.7104 21.4445C21.957 21.5365 22.22 21.5074 22.4136 21.4061C22.6086 21.304 22.6785 21.1655 22.6785 21.053V0.946138C22.6785 0.834356 22.6089 0.696024 22.4137 0.593868C22.2201 0.492548 21.957 0.463509 21.7104 0.555494Z" stroke="#F4A72A"/>
<path d="M5.45774 4.88544H1.44548C0.821475 4.88544 0.5 5.27943 0.5 5.5627V16.4371C0.5 16.7208 0.822003 17.1152 1.44548 17.1152H5.45774C5.91197 17.1152 6.23602 16.8855 6.35061 16.6507C6.38635 16.5757 6.40279 16.5048 6.40279 16.4371V5.5627C6.40279 5.49603 6.38643 5.42505 6.35051 5.34972C6.23613 5.11475 5.91255 4.88544 5.45774 4.88544Z" stroke="#F4A72A"/>
</svg>
