<svg width="19" height="19" viewBox="0 0 19 19" fill="none" xmlns="http://www.w3.org/2000/svg">
<path d="M4.31273 4.56604C3.19073 5.68504 -1.71427 12.681 2.52373 16.918C6.75973 21.156 13.7537 16.25 14.8777 15.129C15.9987 14.01 14.5427 10.734 11.6257 7.81704C8.70673 4.89804 5.43473 3.44104 4.31273 4.56604ZM13.5767 14.156C13.2447 14.484 10.6817 13.699 8.21273 11.228C5.74573 8.75904 4.95673 6.19504 5.28873 5.86504C5.61673 5.53304 8.18273 6.32204 10.6487 8.79104C13.1197 11.258 13.9067 13.824 13.5767 14.156ZM14.4347 5.98204L16.3387 4.07604C16.5262 3.88853 16.6316 3.63421 16.6316 3.36904C16.6316 3.10386 16.5262 2.84955 16.3387 2.66204C16.1512 2.47453 15.8969 2.36919 15.6317 2.36919C15.3666 2.36919 15.1122 2.47453 14.9247 2.66204L13.0207 4.56804C12.8332 4.75555 12.7279 5.00986 12.7279 5.27504C12.7279 5.40634 12.7537 5.53636 12.804 5.65766C12.8542 5.77897 12.9279 5.88919 13.0207 5.98204C13.1136 6.07488 13.2238 6.14853 13.3451 6.19878C13.4664 6.24903 13.5964 6.27489 13.7277 6.27489C13.9929 6.27489 14.2472 6.16955 14.4347 5.98204ZM10.1247 3.80004C10.2395 3.86387 10.3657 3.90446 10.4962 3.9195C10.6267 3.93455 10.7588 3.92375 10.8851 3.88772C11.0114 3.85169 11.1293 3.79114 11.2322 3.70952C11.3351 3.6279 11.4209 3.52682 11.4847 3.41204L12.5717 1.48604C12.7006 1.25424 12.7322 0.98073 12.6594 0.725681C12.5866 0.470631 12.4155 0.254933 12.1837 0.126038C11.9519 -0.00285715 11.6784 -0.0343913 11.4234 0.0383728C11.1683 0.111137 10.9526 0.282239 10.8237 0.514038L9.73673 2.44004C9.6729 2.55481 9.63231 2.68103 9.61726 2.8115C9.60222 2.94196 9.61302 3.07411 9.64905 3.2004C9.68508 3.32669 9.74563 3.44464 9.82725 3.54753C9.90886 3.65042 10.0099 3.73622 10.1247 3.80004ZM18.8727 6.81604C18.809 6.70116 18.7233 6.59998 18.6204 6.51829C18.5175 6.4366 18.3995 6.376 18.2732 6.33996C18.1469 6.30392 18.0147 6.29315 17.8842 6.30826C17.7537 6.32338 17.6275 6.36408 17.5127 6.42804L15.5727 7.48904C15.458 7.55286 15.3569 7.63866 15.2753 7.74155C15.1936 7.84444 15.1331 7.96239 15.0971 8.08868C15.061 8.21497 15.0502 8.34712 15.0653 8.47758C15.0803 8.60804 15.1209 8.73426 15.1847 8.84904C15.2485 8.96381 15.3344 9.06489 15.4372 9.14651C15.5401 9.22812 15.6581 9.28867 15.7844 9.3247C15.9107 9.36073 16.0428 9.37153 16.1733 9.35649C16.3037 9.34145 16.43 9.30086 16.5447 9.23704L18.4847 8.17604C18.5995 8.11222 18.7006 8.02642 18.7822 7.92353C18.8638 7.82064 18.9244 7.70269 18.9604 7.5764C18.9964 7.45011 19.0072 7.31796 18.9922 7.1875C18.9771 7.05703 18.9366 6.93081 18.8727 6.81604Z" fill="#F4A72A"/>
</svg>
