<svg width="25" height="17" viewBox="0 0 25 17" fill="none" xmlns="http://www.w3.org/2000/svg">
<path d="M13.5881 16.9034C13.8872 17.0566 14.2499 17.026 14.5212 16.8227L24.6373 9.25319C24.8656 9.08217 25 8.81353 25 8.52553C25.0008 8.23753 24.8664 7.96808 24.6389 7.79624L14.5228 0.177542C14.2531 -0.0249443 13.8896 -0.0571957 13.5881 0.0960827C13.2883 0.249359 13.0974 0.564772 13.0974 0.90521V3.95142H0.892477C0.657033 3.95142 0.427123 4.04823 0.26088 4.21684C0.0946378 4.38544 0 4.61858 0 4.85737V12.1421C0 12.3801 0.0946378 12.614 0.26088 12.7834C0.427123 12.952 0.657033 13.048 0.892477 13.048H13.0974V16.0942C13.0974 16.4347 13.2867 16.7493 13.5881 16.9034Z" fill="#010101" fill-opacity="0.5"/>
</svg>
