<svg width="31" height="31" viewBox="0 0 31 31" fill="none" xmlns="http://www.w3.org/2000/svg">
<mask id="path-1-inside-1_1904_103388" fill="white">
<path d="M15.7835 21.9318C15.9988 22.04 16.26 22.0183 16.4552 21.8748L23.7389 16.5317C23.9032 16.4109 24 16.2213 24 16.018C24.0006 15.8147 23.9038 15.6245 23.74 15.5032L16.4564 10.1253C16.2622 9.98239 16.0005 9.95963 15.7835 10.0678C15.5676 10.176 15.4301 10.3987 15.4301 10.639V12.7892H6.64258C6.47306 12.7892 6.30753 12.8576 6.18783 12.9766C6.06814 13.0956 6 13.2602 6 13.4287V18.5709C6 18.7389 6.06814 18.904 6.18783 19.0236C6.30753 19.1426 6.47306 19.2104 6.64258 19.2104H15.4301V21.3606C15.4301 21.6009 15.5664 21.823 15.7835 21.9318Z"/>
</mask>
<path d="M16.4552 21.8748L15.8631 21.069L15.8637 21.0685L16.4552 21.8748ZM23.7389 16.5317L24.3308 17.3376L24.3304 17.338L23.7389 16.5317ZM24 16.018H23L23 16.0152L24 16.018ZM23.74 15.5032L24.334 14.6988L24.3351 14.6996L23.74 15.5032ZM16.4564 10.1253L17.0493 9.32003L17.0504 9.32085L16.4564 10.1253ZM15.7835 10.0678L15.3354 9.17379L15.3373 9.17285L15.7835 10.0678ZM15.4301 12.7892H16.4301V13.7892H15.4301V12.7892ZM6.18783 19.0236L5.48274 19.7327L5.48105 19.731L6.18783 19.0236ZM15.4301 19.2104V18.2104H16.4301V19.2104H15.4301ZM16.2324 21.0382C16.1119 20.9777 15.9708 20.9899 15.8631 21.069L17.0474 22.6807C16.5491 23.0468 15.8857 23.1023 15.3345 22.8253L16.2324 21.0382ZM15.8637 21.0685L23.1474 15.7254L24.3304 17.338L17.0467 22.6812L15.8637 21.0685ZM23.1469 15.7257C23.0573 15.7915 23 15.8999 23 16.018H25C25 16.5427 24.7492 17.0303 24.3308 17.3376L23.1469 15.7257ZM23 16.0152C22.9997 16.1346 23.0571 16.2419 23.1449 16.3069L24.3351 14.6996C24.7505 15.0072 25.0015 15.4948 25 16.0208L23 16.0152ZM23.146 16.3077L15.8624 10.9298L17.0504 9.32085L24.334 14.6988L23.146 16.3077ZM15.8635 10.9306C15.972 11.0105 16.1115 11.0217 16.2296 10.9628L15.3373 9.17285C15.8895 8.8976 16.5525 8.95429 17.0493 9.32003L15.8635 10.9306ZM16.2315 10.9618C16.353 10.9009 16.4301 10.7781 16.4301 10.639H14.4301C14.4301 10.0192 14.7821 9.4511 15.3355 9.1738L16.2315 10.9618ZM16.4301 10.639V12.7892H14.4301V10.639H16.4301ZM15.4301 13.7892H6.64258V11.7892H15.4301V13.7892ZM6.64258 13.7892C6.73688 13.7892 6.82496 13.7533 6.89293 13.6857L5.48274 12.2675C5.7901 11.9619 6.20925 11.7892 6.64258 11.7892V13.7892ZM6.89293 13.6857C6.96271 13.6163 7 13.5254 7 13.4287H5C5 12.995 5.17356 12.5749 5.48274 12.2675L6.89293 13.6857ZM7 13.4287V18.5709H5V13.4287H7ZM7 18.5709C7 18.4737 6.96283 18.3843 6.89462 18.3162L5.48105 19.731C5.17344 19.4237 5 19.004 5 18.5709H7ZM6.89293 18.3145C6.82331 18.2453 6.73455 18.2104 6.64258 18.2104V20.2104C6.21158 20.2104 5.79174 20.04 5.48274 19.7327L6.89293 18.3145ZM6.64258 18.2104H15.4301V20.2104H6.64258V18.2104ZM16.4301 19.2104V21.3606H14.4301V19.2104H16.4301ZM16.4301 21.3606C16.4301 21.2226 16.3529 21.0986 16.2315 21.0378L15.3355 22.8258C14.7799 22.5474 14.4301 21.9793 14.4301 21.3606H16.4301Z" fill="#515151" mask="url(#path-1-inside-1_1904_103388)"/>
</svg>
