<svg width="28" height="28" viewBox="0 0 28 28" fill="none" xmlns="http://www.w3.org/2000/svg">
<g clip-path="url(#clip0_1985_109923)">
<path d="M3.11111 2.61111H2.61111V3.11111V9.33333V9.83333H3.11111H9.33333H9.83333V9.33333V3.11111V2.61111H9.33333H3.11111ZM24.8889 9.83333H25.3889V9.33333V3.11111V2.61111H24.8889H18.6667H18.1667V3.11111V9.33333V9.83333H18.6667H24.8889ZM3.11111 18.1667H2.61111V18.6667V24.8889V25.3889H3.11111H9.33333H9.83333V24.8889V18.6667V18.1667H9.33333H3.11111ZM20.2222 20.7222H20.7222V20.2222V17.6111H22.8333V20.2222V20.7222H23.3333H25.9444V22.8333H23.3333H22.8333V23.3333V25.9444H20.7222V23.3333V22.8333H20.2222H17.6111V20.7222H20.2222ZM10.8889 11.9444H1.55556C1.27561 11.9444 1.00712 11.8332 0.809165 11.6353C0.61121 11.4373 0.5 11.1688 0.5 10.8889V1.55556C0.5 1.2756 0.61121 1.00712 0.809165 0.809165C1.00712 0.61121 1.2756 0.5 1.55556 0.5H10.8889C11.1688 0.5 11.4373 0.61121 11.6353 0.809165C11.8332 1.00712 11.9444 1.27561 11.9444 1.55556V10.8889C11.9444 11.1688 11.8332 11.4373 11.6353 11.6353C11.4373 11.8332 11.1688 11.9444 10.8889 11.9444ZM17.1111 0.5H26.4444C26.7244 0.5 26.9929 0.61121 27.1908 0.809165C27.3888 1.00712 27.5 1.2756 27.5 1.55556V10.8889C27.5 11.1688 27.3888 11.4373 27.1908 11.6353C26.9929 11.8332 26.7244 11.9444 26.4444 11.9444H17.1111C16.8312 11.9444 16.5627 11.8332 16.3647 11.6353C16.1668 11.4373 16.0556 11.1688 16.0556 10.8889V1.55556C16.0556 1.27561 16.1668 1.00712 16.3647 0.809165C16.5627 0.61121 16.8312 0.5 17.1111 0.5ZM11.6353 27.1908C11.4373 27.3888 11.1688 27.5 10.8889 27.5H1.55556C1.2756 27.5 1.00712 27.3888 0.809165 27.1908C0.61121 26.9929 0.5 26.7244 0.5 26.4444V17.1111C0.5 16.8312 0.61121 16.5627 0.809165 16.3647C1.00712 16.1668 1.27561 16.0556 1.55556 16.0556H10.8889C11.1688 16.0556 11.4373 16.1668 11.6353 16.3647C11.8332 16.5627 11.9444 16.8312 11.9444 17.1111V26.4444C11.9444 26.7244 11.8332 26.9929 11.6353 27.1908Z" stroke="#515151"/>
</g>
<defs>
<clipPath id="clip0_1985_109923">
<rect width="28" height="28" fill="white"/>
</clipPath>
</defs>
</svg>
