<svg width="18" height="18" viewBox="0 0 18 18" fill="none" xmlns="http://www.w3.org/2000/svg">
<path d="M17.7739 6.47679C17.716 6.31002 17.5738 6.19187 17.4063 6.17218L11.7944 5.49771L9.28497 0.257097C9.20887 0.100174 9.05376 -0.0001297 8.88693 -0.0001297C8.71893 -0.0001297 8.56439 0.100174 8.48946 0.257097L5.97356 5.51003L0.378632 6.39433C0.212973 6.42017 0.0742361 6.54326 0.0221386 6.71003C-0.0305443 6.87803 0.012779 7.06387 0.131023 7.18818L4.13609 11.3845L3.44068 17.1919C3.41961 17.3666 3.49513 17.5408 3.63386 17.6386C3.77317 17.7365 3.95522 17.7445 4.10098 17.6577L9.00224 14.7568L13.8778 17.6017C14.0247 17.6873 14.2056 17.6786 14.3443 17.5789C14.483 17.4799 14.5574 17.3057 14.5351 17.1309L13.7987 11.2645L17.6791 6.95924C17.795 6.83001 17.8313 6.64356 17.7739 6.47679Z" fill="current"/>
</svg>
