<svg width="18" height="16" viewBox="0 0 18 16" fill="none" xmlns="http://www.w3.org/2000/svg">
<g clip-path="url(#clip0_1879_111220)">
<path d="M3.51198 0.292427C3.33331 0.110271 3.094 0.00947816 2.84561 0.0117566C2.59721 0.0140349 2.3596 0.119203 2.18396 0.304608C2.00831 0.490014 1.90867 0.740823 1.90652 1.00302C1.90436 1.26521 1.99985 1.51781 2.17242 1.70641L8.7291 8.62832C8.77647 8.69032 8.82858 8.74632 8.88826 8.79532L15.4345 15.7062C15.5225 15.7991 15.6269 15.8729 15.7419 15.9232C15.8568 15.9735 15.98 15.9994 16.1045 15.9994C16.2289 15.9995 16.3521 15.9737 16.4671 15.9234C16.5821 15.8732 16.6866 15.7996 16.7746 15.7067C16.8626 15.6139 16.9324 15.5037 16.9801 15.3823C17.0277 15.261 17.0523 15.1309 17.0523 14.9996C17.0524 14.8682 17.0279 14.7382 16.9803 14.6168C16.9328 14.4954 16.863 14.3852 16.775 14.2923L16.1356 13.6173C17.4445 11.8875 18.1036 9.70918 17.9869 7.49877C17.8701 5.28836 16.9857 3.20089 15.5027 1.63541C15.4153 1.5399 15.3108 1.46372 15.1952 1.41131C15.0796 1.3589 14.9553 1.33132 14.8295 1.33016C14.7038 1.32901 14.579 1.35431 14.4626 1.40459C14.3462 1.45487 14.2404 1.52912 14.1514 1.62302C14.0625 1.71691 13.9921 1.82856 13.9445 1.95145C13.8969 2.07435 13.8729 2.20602 13.874 2.3388C13.8751 2.47158 13.9012 2.6028 13.9509 2.7248C14.0005 2.8468 14.0727 2.95715 14.1632 3.04939C15.2908 4.23983 15.9744 5.81927 16.0888 7.49838C16.2031 9.1775 15.7404 10.8439 14.7856 12.1923L13.4261 10.7573C14.0281 9.79557 14.297 8.64388 14.1872 7.49703C14.0774 6.35017 13.5957 5.27854 12.8236 4.46338C12.6457 4.2756 12.4044 4.17011 12.1529 4.17011C11.9013 4.17011 11.66 4.2756 11.4821 4.46338C11.3042 4.65115 11.2043 4.90582 11.2043 5.17137C11.2043 5.43691 11.3042 5.69159 11.4821 5.87936C11.8981 6.31795 12.1749 6.88191 12.2745 7.49352C12.3741 8.10513 12.2916 8.73429 12.0382 9.29431L10.1511 7.30234C10.1455 7.29626 10.1398 7.29026 10.134 7.28434L3.51198 0.293427V0.292427ZM3.06767 6.18635C3.1325 5.93002 3.0982 5.65701 2.97232 5.42738C2.84645 5.19774 2.6393 5.03029 2.39647 4.96187C2.15363 4.89344 1.89498 4.92965 1.67743 5.06251C1.45988 5.19538 1.30125 5.41403 1.23642 5.67036C0.849307 7.19643 0.849583 8.80318 1.23722 10.3291C1.62486 11.855 2.3862 13.2464 3.44472 14.3633C3.53274 14.4561 3.63722 14.5297 3.7522 14.5799C3.86718 14.6302 3.99041 14.656 4.11484 14.6559C4.23928 14.6559 4.36248 14.63 4.47743 14.5797C4.59237 14.5294 4.69681 14.4557 4.78476 14.3628C4.87272 14.2698 4.94248 14.1596 4.99006 14.0382C5.03764 13.9168 5.0621 13.7868 5.06206 13.6554C5.06202 13.5241 5.03746 13.394 4.9898 13.2727C4.94214 13.1513 4.87231 13.0411 4.78429 12.9483C3.96079 12.0796 3.36857 10.9972 3.06723 9.81021C2.76588 8.62318 2.76603 7.3733 3.06767 6.18635ZM7.01059 9.49931C6.95137 9.37981 6.86985 9.27418 6.77095 9.1888C6.67205 9.10341 6.55781 9.04002 6.4351 9.00244C6.31239 8.96486 6.18375 8.95388 6.05691 8.97014C5.93008 8.9864 5.80767 9.02958 5.69705 9.09707C5.58643 9.16457 5.48989 9.25498 5.41323 9.36288C5.33657 9.47078 5.28139 9.59393 5.25099 9.72492C5.22059 9.85592 5.21561 9.99205 5.23635 10.1251C5.25708 10.2582 5.30311 10.3855 5.37165 10.4993C5.57439 10.8703 5.82639 11.2193 6.12481 11.5343C6.30348 11.7164 6.54279 11.8172 6.79118 11.815C7.03958 11.8127 7.27719 11.7075 7.45284 11.5221C7.62848 11.3367 7.72812 11.0859 7.73028 10.8237C7.73243 10.5615 7.63695 10.3089 7.46438 10.1203C7.28343 9.92931 7.1328 9.72031 7.01154 9.49831L7.01059 9.49931Z" fill="white"/>
</g>
<defs>
<clipPath id="clip0_1879_111220">
<rect width="18" height="16" fill="white"/>
</clipPath>
</defs>
</svg>
