<svg width="31" height="25" viewBox="0 0 31 25" fill="none" xmlns="http://www.w3.org/2000/svg">
<g clip-path="url(#clip0_1931_104070)">
<path d="M10.075 25C9.42917 25 8.88047 24.7719 8.4289 24.3156C7.9763 23.8604 7.75 23.3073 7.75 22.6562V4.6875H2.325C1.67917 4.6875 1.13047 4.45937 0.6789 4.00312C0.2263 3.54792 0 2.99479 0 2.34375C0 1.69271 0.2263 1.13958 0.6789 0.684375C1.13047 0.228125 1.67917 0 2.325 0H17.825C18.4708 0 19.0195 0.228125 19.4711 0.684375C19.9237 1.13958 20.15 1.69271 20.15 2.34375C20.15 2.99479 19.9237 3.54792 19.4711 4.00312C19.0195 4.45937 18.4708 4.6875 17.825 4.6875H12.4V22.6562C12.4 23.3073 12.1737 23.8604 11.7211 24.3156C11.2695 24.7719 10.7208 25 10.075 25ZM24.025 25C23.3792 25 22.8305 24.7719 22.3789 24.3156C21.9263 23.8604 21.7 23.3073 21.7 22.6562V12.5H19.375C18.7292 12.5 18.1805 12.2719 17.7289 11.8156C17.2763 11.3604 17.05 10.8073 17.05 10.1562C17.05 9.50521 17.2763 8.95208 17.7289 8.49687C18.1805 8.04062 18.7292 7.8125 19.375 7.8125H28.675C29.3208 7.8125 29.8695 8.04062 30.3211 8.49687C30.7737 8.95208 31 9.50521 31 10.1562C31 10.8073 30.7737 11.3604 30.3211 11.8156C29.8695 12.2719 29.3208 12.5 28.675 12.5H26.35V22.6562C26.35 23.3073 26.1237 23.8604 25.6711 24.3156C25.2195 24.7719 24.6708 25 24.025 25Z" fill="#515151"/>
</g>
<defs>
<clipPath id="clip0_1931_104070">
<rect width="31" height="25" fill="white"/>
</clipPath>
</defs>
</svg>
