<svg width="36" height="38" viewBox="0 0 36 38" fill="none" xmlns="http://www.w3.org/2000/svg">
<path d="M5.265 0C2.35721 0 0 2.30388 0 5.14583V32.8537C0 35.6956 2.35721 37.9995 5.265 37.9995H20.7647L17.2708 34.5846C15.8473 33.1935 15.8473 30.9377 17.2708 29.5466C18.6942 28.1553 21.0022 28.1553 22.4255 29.5466L24.705 31.7743L31.8476 24.7934C32.0198 24.6251 32.205 24.4771 32.4 24.3496V5.14583C32.4 2.30386 30.0427 0 27.135 0H5.265ZM10.53 10.6875C10.53 11.7806 9.62338 12.6667 8.505 12.6667C7.38662 12.6667 6.48 11.7806 6.48 10.6875C6.48 9.59443 7.38662 8.70833 8.505 8.70833C9.62338 8.70833 10.53 9.59443 10.53 10.6875ZM8.505 20.9788C7.38662 20.9788 6.48 20.0928 6.48 18.9997C6.48 17.9067 7.38662 17.0205 8.505 17.0205C9.62338 17.0205 10.53 17.9067 10.53 18.9997C10.53 20.0928 9.62338 20.9788 8.505 20.9788ZM8.505 29.2917C7.38662 29.2917 6.48 28.4056 6.48 27.3125C6.48 26.2194 7.38662 25.3333 8.505 25.3333C9.62338 25.3333 10.53 26.2194 10.53 27.3125C10.53 28.4056 9.62338 29.2917 8.505 29.2917ZM14.175 9.5H24.705C25.376 9.5 25.92 10.0317 25.92 10.6875C25.92 11.3433 25.376 11.875 24.705 11.875H14.175C13.504 11.875 12.96 11.3433 12.96 10.6875C12.96 10.0317 13.504 9.5 14.175 9.5ZM12.96 18.9997C12.96 18.3439 13.504 17.8122 14.175 17.8122H24.705C25.376 17.8122 25.92 18.3439 25.92 18.9997C25.92 19.6555 25.376 20.1872 24.705 20.1872H14.175C13.504 20.1872 12.96 19.6555 12.96 18.9997ZM14.175 26.125H24.705C25.376 26.125 25.92 26.6567 25.92 27.3125C25.92 27.9683 25.376 28.5 24.705 28.5H14.175C13.504 28.5 12.96 27.9683 12.96 27.3125C12.96 26.6567 13.504 26.125 14.175 26.125Z" fill="#515151"/>
<path d="M25.5638 37.6521L35.2838 28.1521C35.7583 27.6883 35.7583 26.9366 35.2838 26.4728C34.8093 26.0091 34.0401 26.0091 33.5656 26.4728L24.7047 35.133L20.707 31.2258C20.2325 30.7621 19.4632 30.7621 18.9887 31.2258C18.5142 31.6896 18.5142 32.4415 18.9887 32.9053L23.8456 37.6521C24.0734 37.8749 24.3825 38 24.7047 38C25.0269 38 25.336 37.8749 25.5638 37.6521Z" fill="#F4A72A"/>
</svg>
