<svg width="34" height="34" viewBox="0 0 34 34" fill="none" xmlns="http://www.w3.org/2000/svg">
<path d="M16.3155 0.152084C15.481 0.470054 14.6759 1.21468 14.3244 2.01327C14.1487 2.40871 14.1269 2.54824 14.1269 3.28515C14.1269 4.03748 14.1196 4.11496 13.9879 4.15351C13.8635 4.18435 13.8562 4.24677 13.8853 4.71969C13.922 5.27044 14.1782 6.0147 14.3611 6.12338C14.4197 6.1623 14.5147 6.39472 14.5733 6.64292C14.9025 7.96143 15.6858 8.69027 16.8645 8.76003C17.5674 8.79895 18.1091 8.60508 18.5555 8.14722C18.8629 7.82925 19.2508 7.06921 19.3315 6.62714C19.361 6.4799 19.4268 6.37122 19.5072 6.34809C19.7121 6.29375 19.9245 5.86709 20.0708 5.22344C20.1879 4.68077 20.1879 4.63413 20.0708 4.41677C19.9609 4.21519 19.9536 4.12193 20.0268 3.67252C20.2098 2.5945 19.9464 1.50878 19.4487 1.24515C19.3242 1.17539 19.0827 0.973812 18.9142 0.787657C18.2921 0.113531 17.1574 -0.165886 16.3155 0.152084Z" fill="#515151"/>
<path d="M14.347 9.05481C14.1055 9.19434 13.4979 9.49689 12.9929 9.7216C11.5875 10.3498 11.3092 10.7298 11.163 12.2419C11.1262 12.6142 11.0898 13.281 11.0898 13.7153V14.5143H17.0189H22.9482V13.7157C22.9482 12.3663 22.8311 11.5134 22.575 10.9703C22.2967 10.3656 22.0918 10.1949 21.0815 9.7451C20.6424 9.55123 20.0421 9.25639 19.742 9.08602C19.4491 8.91529 19.1784 8.77576 19.149 8.77576C19.1199 8.77576 18.8197 9.69846 18.4756 10.8308C18.1387 11.9632 17.8458 12.8859 17.824 12.8859C17.8022 12.8859 17.6777 12.5679 17.5533 12.1802L17.3117 11.4745L17.502 11.1411C18.007 10.2184 17.824 9.70654 16.9898 9.70654C16.2869 9.70654 16.0821 10.2804 16.5066 11.0713L16.7191 11.4745L16.4921 12.1879C16.3676 12.5756 16.2432 12.8705 16.2138 12.8315C16.1625 12.7772 14.9695 8.91529 14.9695 8.81432C14.9692 8.72913 14.7571 8.80661 14.347 9.05481Z" fill="#515151"/>
<path d="M16.6146 16.9571C16.4975 17.0735 16.4316 17.2362 16.4316 17.3834C16.4316 17.6624 16.7099 18.0039 16.9439 18.0039C17.5074 18.0039 17.8003 17.3525 17.4198 16.9571C17.3099 16.833 17.1564 16.7632 17.017 16.7632C16.8784 16.7632 16.7245 16.833 16.6146 16.9571Z" fill="#F4A72A"/>
<path d="M16.587 18.8259C16.3087 19.1983 16.4408 19.7178 16.8431 19.8184C17.4216 19.9734 17.8389 19.2522 17.4216 18.8179C17.1724 18.5465 16.7918 18.5546 16.587 18.8259Z" fill="#F4A72A"/>
<path d="M5.26182 19.6169C4.41996 19.9349 3.65124 20.656 3.28524 21.4781C3.05823 21.9822 2.97782 22.7577 3.09497 23.2229C3.16082 23.4788 3.15354 23.5254 3.05095 23.564C2.9851 23.5952 2.90469 23.6492 2.87523 23.6958C2.70679 23.9594 2.9851 25.2467 3.27797 25.557C3.36565 25.6499 3.4828 25.8981 3.53409 26.1155C3.68035 26.7125 3.91464 27.1623 4.28064 27.55C5.24692 28.5737 7.00376 28.4573 7.78704 27.3018C8.02133 26.9684 8.30692 26.2392 8.30692 25.9991C8.30692 25.9135 8.37277 25.836 8.48263 25.8052C8.59978 25.774 8.70237 25.6422 8.80461 25.394C9.11931 24.6031 9.19244 24.0446 9.00216 23.8195C8.90685 23.7109 8.90685 23.618 8.97305 23.2302C9.01707 22.982 9.0389 22.4937 9.02435 22.1522C8.98761 21.4234 8.79005 20.9424 8.43134 20.7177C8.29964 20.6325 8.05807 20.4228 7.88963 20.2525C7.22384 19.5703 6.0964 19.2989 5.26182 19.6169Z" fill="#515151"/>
<path d="M27.3038 19.6092C26.5646 19.8963 25.7227 20.6718 25.4007 21.3775C25.1373 21.9359 25.042 22.5796 25.1446 23.0679C25.2177 23.4402 25.2105 23.4711 25.0566 23.6029C24.9249 23.7039 24.8881 23.8045 24.8954 24.0681C24.9027 24.541 25.1151 25.2467 25.32 25.5026C25.4153 25.6267 25.5321 25.8749 25.5761 26.0534C25.869 27.2011 26.5715 27.992 27.4865 28.2013C28.7675 28.4962 29.8876 27.7361 30.3122 26.2858C30.3926 25.999 30.4806 25.836 30.5756 25.8129C30.9049 25.7196 31.3149 24.0835 31.0733 23.781C31.0074 23.6958 31.0074 23.525 31.066 23.0132C31.2123 21.8886 30.978 20.989 30.4657 20.6787C30.334 20.6013 30.0703 20.3839 29.88 20.1981C29.3896 19.7175 28.965 19.5313 28.2549 19.5001C27.8234 19.4774 27.5745 19.5086 27.3038 19.6092Z" fill="#515151"/>
<path d="M16.587 20.6872C16.3822 20.9662 16.3894 21.2688 16.6161 21.4935C16.8722 21.7494 17.2091 21.734 17.4361 21.4626C17.641 21.199 17.6483 20.9585 17.4507 20.6872C17.3336 20.5322 17.2382 20.4856 17.0188 20.4856C16.7995 20.4856 16.7041 20.5318 16.587 20.6872Z" fill="#F4A72A"/>
<path d="M16.7614 22.3622C16.4027 22.5792 16.3296 22.967 16.5857 23.3084C16.7028 23.4634 16.7982 23.51 17.0175 23.51C17.6324 23.51 17.8154 22.6259 17.2591 22.3545C17.0394 22.2458 16.9444 22.2535 16.7614 22.3622Z" fill="#F4A72A"/>
<path d="M15.2985 23.3627C14.9398 23.5797 14.8667 23.9674 15.1228 24.3166C15.24 24.4716 15.3349 24.5182 15.5547 24.5182C16.0596 24.5182 16.3085 23.952 15.9792 23.5566C15.7817 23.3238 15.5034 23.2463 15.2985 23.3627Z" fill="#F4A72A"/>
<path d="M18.3366 23.3315C18.278 23.3546 18.1536 23.4479 18.0656 23.5331C17.6996 23.8819 17.9779 24.5178 18.4829 24.5178C18.9878 24.5178 19.2367 23.9516 18.9074 23.5562C18.7244 23.3546 18.5123 23.2694 18.3366 23.3315Z" fill="#F4A72A"/>
<path d="M13.8182 24.3629C13.2838 24.588 13.4817 25.5261 14.0598 25.5261C14.3745 25.5261 14.6746 25.239 14.6746 24.9445C14.6746 24.704 14.3087 24.2855 14.1111 24.2932C14.038 24.2932 13.9063 24.324 13.8182 24.3629Z" fill="#F4A72A"/>
<path d="M19.6833 24.3784C19.5149 24.4635 19.3613 24.7507 19.3613 24.9754C19.3613 25.0528 19.4272 25.2082 19.5149 25.3242C19.8368 25.7585 20.5397 25.4791 20.5324 24.9133C20.5252 24.6805 20.4153 24.5021 20.1883 24.3784C19.998 24.27 19.8881 24.27 19.6833 24.3784Z" fill="#F4A72A"/>
<path d="M12.3552 25.3711C12.0111 25.5184 11.9307 26.0846 12.209 26.3636C12.4433 26.5964 12.802 26.5887 13.029 26.3405C13.2706 26.0846 13.2633 25.7974 12.9999 25.5184C12.7798 25.286 12.6336 25.2547 12.3552 25.3711Z" fill="#F4A72A"/>
<path d="M21.1464 25.3866C20.8022 25.5573 20.7364 26.0534 21.0074 26.3405C21.4614 26.8292 22.1858 26.2939 21.9519 25.6425C21.9006 25.5107 21.5491 25.2937 21.3956 25.3014C21.3439 25.3014 21.2268 25.34 21.1464 25.3866Z" fill="#F4A72A"/>
<path d="M3.21958 28.5659C2.86087 28.7675 2.26786 29.0543 1.90914 29.2096C0.877012 29.6517 0.576869 29.923 0.313464 30.6599C0.174484 31.0476 0.0427811 32.4278 0.0351562 33.5293V33.9791H5.96454H11.8939V33.0175C11.8939 31.2029 11.6669 30.288 11.1034 29.7915C10.9571 29.6674 10.5911 29.4504 10.2833 29.3186C9.98319 29.1868 9.36107 28.8843 8.90705 28.6518C8.45302 28.4113 8.07247 28.2333 8.06519 28.2487C8.05791 28.2641 7.94077 28.6287 7.81634 29.055C6.97449 31.8778 6.82095 32.3584 6.76965 32.2968C6.74054 32.2659 6.62339 31.9479 6.50625 31.5988L6.30142 30.9705L6.53571 30.4818C6.94572 29.6366 6.80639 29.2412 6.06713 29.1868C5.23983 29.1248 5.01316 29.6054 5.45956 30.4972L5.69385 30.9547L5.48902 31.5518C5.23289 32.3272 5.1816 32.4282 5.13031 32.2729C5.10847 32.2108 4.82288 31.2646 4.486 30.1789L3.87844 28.2013L3.21958 28.5659Z" fill="#515151"/>
<path d="M29.5356 30.2178C29.2063 31.3267 28.9135 32.2652 28.884 32.296C28.8473 32.3272 28.7156 32.0324 28.5839 31.6447C28.3714 31.0164 28.3568 30.9081 28.4449 30.7682C28.8622 30.0702 28.9207 29.5896 28.6133 29.3337C28.2328 29.0157 27.3909 29.1864 27.2956 29.5973C27.2443 29.8143 27.3687 30.2641 27.5957 30.6441L27.7569 30.9077L27.5299 31.6289C27.4055 32.0243 27.2883 32.35 27.2665 32.35C27.237 32.35 26.9445 31.435 26.6149 30.3104C26.2784 29.1938 25.9928 28.263 25.9782 28.2476C25.9637 28.2322 25.6268 28.3871 25.239 28.6041C24.8439 28.8211 24.2436 29.1159 23.9067 29.2555C23.5629 29.395 23.1529 29.6201 22.9917 29.7519C22.3769 30.2483 22.1426 31.1479 22.1426 33.0168V33.9784H28.072H34.001V33.6836C33.9937 32.784 33.8474 31.0858 33.7448 30.7212C33.5691 30.1165 33.0496 29.5966 32.3173 29.2944C32.0171 29.1703 31.4023 28.8758 30.9483 28.6353L30.1359 28.1932L29.5356 30.2178Z" fill="#515151"/>
</svg>
