<svg width="24" height="20" viewBox="0 0 24 20" fill="none" xmlns="http://www.w3.org/2000/svg">
<path d="M19.9617 4.41789L19.9639 4.41592C20.1061 4.28713 20.2827 4.08043 20.2948 3.80493C20.3017 3.65052 20.2538 3.49997 20.1556 3.37797C20.0634 3.26335 19.9469 3.19827 19.8472 3.16205C19.6542 3.09198 19.4439 3.09907 19.2641 3.13438C19.0746 3.1716 18.8745 3.24851 18.6799 3.3645L18.6798 3.36438L18.6701 3.3705L6.24224 11.1689L1.00302 9.51916L0.995846 9.5169L0.98861 9.51486C0.738723 9.44436 0.59899 9.36085 0.533578 9.30098C0.518805 9.28746 0.509705 9.27724 0.504254 9.27014C0.514207 9.24783 0.544193 9.19618 0.630997 9.11969C0.758573 9.00728 0.973466 8.87437 1.30175 8.74244L22.5635 0.597899L22.5766 0.592876L22.5894 0.587125C22.9349 0.432034 23.1786 0.506137 23.3062 0.630092C23.4407 0.760748 23.592 1.08882 23.4311 1.72804L23.4289 1.73676L23.427 1.74556L19.8051 18.6855L19.8047 18.6871C19.6926 19.2204 19.5042 19.4047 19.3746 19.4632C19.2449 19.5216 18.9948 19.5353 18.565 19.3056L13.0798 15.2793L12.7403 15.0302L12.437 15.3223L9.78716 17.8745L9.78712 17.8744L9.7817 17.8798C9.70042 17.9606 9.63558 18.024 9.57755 18.0753L9.88698 13.4329L19.9617 4.41789ZM0.496864 9.25783C0.497089 9.25785 0.497927 9.25928 0.498699 9.26207C0.497025 9.2592 0.496639 9.25781 0.496864 9.25783Z" stroke="white"/>
</svg>
