<svg width="19" height="19" viewBox="0 0 19 19" fill="none" xmlns="http://www.w3.org/2000/svg">
<path d="M1.94531 2.90559C1.94531 2.65298 2.04512 2.41072 2.22279 2.23209C2.40046 2.05347 2.64142 1.95312 2.89268 1.95312H16.1558C16.4071 1.95312 16.6481 2.05347 16.8257 2.23209C17.0034 2.41072 17.1032 2.65298 17.1032 2.90559V4.81051C17.1032 5.06312 17.0034 5.30538 16.8257 5.484C16.6481 5.66262 16.4071 5.76297 16.1558 5.76297H2.89268C2.64142 5.76297 2.40046 5.66262 2.22279 5.484C2.04512 5.30538 1.94531 5.06312 1.94531 4.81051V2.90559Z" stroke="#515151" stroke-width="2" stroke-linecap="round" stroke-linejoin="round"/>
<path d="M1.94922 10.5247C1.94922 10.2721 2.04903 10.0299 2.2267 9.85124C2.40436 9.67261 2.64533 9.57227 2.89659 9.57227H8.5808C8.83206 9.57227 9.07302 9.67261 9.25069 9.85124C9.42835 10.0299 9.52817 10.2721 9.52817 10.5247V16.2395C9.52817 16.4921 9.42835 16.7344 9.25069 16.913C9.07302 17.0916 8.83206 17.192 8.5808 17.192H2.89659C2.64533 17.192 2.40436 17.0916 2.2267 16.913C2.04903 16.7344 1.94922 16.4921 1.94922 16.2395V10.5247Z" stroke="#515151" stroke-width="2" stroke-linecap="round" stroke-linejoin="round"/>
<path d="M13.3164 10.5247C13.3164 10.2721 13.4162 10.0299 13.5939 9.85124C13.7715 9.67261 14.0125 9.57227 14.2638 9.57227H16.1585C16.4098 9.57227 16.6507 9.67261 16.8284 9.85124C17.0061 10.0299 17.1059 10.2721 17.1059 10.5247V16.2395C17.1059 16.4921 17.0061 16.7344 16.8284 16.913C16.6507 17.0916 16.4098 17.192 16.1585 17.192H14.2638C14.0125 17.192 13.7715 17.0916 13.5939 16.913C13.4162 16.7344 13.3164 16.4921 13.3164 16.2395V10.5247Z" stroke="#F4A72A" stroke-width="2" stroke-linecap="round" stroke-linejoin="round"/>
</svg>
