<svg width="19" height="19" viewBox="0 0 19 19" fill="none" xmlns="http://www.w3.org/2000/svg">
<path d="M18.4863 1.37723L13.0577 0.0200886C12.9191 -0.0143149 12.7731 -0.00434672 12.6404 0.0485886L6.05829 2.68145L0.843464 1.37723C0.743409 1.35217 0.638957 1.35024 0.538046 1.3716C0.437135 1.39296 0.342422 1.43705 0.261105 1.5005C0.179789 1.56396 0.114008 1.64512 0.068764 1.73782C0.0235199 1.83051 2.71154e-06 1.9323 0 2.03545V16.964C3.97672e-06 17.1153 0.050555 17.2622 0.143623 17.3815C0.236692 17.5007 0.36694 17.5855 0.513679 17.6222L5.94225 18.9794C5.9962 18.9927 6.05156 18.9996 6.10714 18.9997C6.19364 18.9998 6.27933 18.9832 6.35957 18.9509L12.9417 16.318L18.1572 17.6222C18.2572 17.6472 18.3616 17.649 18.4624 17.6276C18.5632 17.6062 18.6579 17.5621 18.7391 17.4986C18.8203 17.4352 18.8861 17.3541 18.9313 17.2614C18.9765 17.1688 19 17.0671 19 16.964V2.03545C19 1.88417 18.9494 1.73724 18.8564 1.61798C18.7633 1.49873 18.6331 1.41399 18.4863 1.37723ZM17.6429 6.10687H13.5714V1.54687L17.6429 2.56473V6.10687ZM5.42857 11.5354H1.35714V7.46402H5.42857V11.5354ZM6.78571 6.10687V3.85198L12.2143 1.68055V6.10687H6.78571ZM12.2143 7.46402V11.5354H6.78571V7.46402H12.2143ZM6.78571 12.8926H12.2143V15.1475L6.78571 17.3189V12.8926ZM13.5714 7.46402H17.6429V11.5354H13.5714V7.46402ZM5.42857 3.92187V6.10687H1.35714V2.90402L5.42857 3.92187ZM1.35714 12.8926H5.42857V17.4526L1.35714 16.4347V12.8926ZM13.5714 15.0769V12.8926H17.6429V16.0954L13.5714 15.0769Z" fill="current"/>
</svg>
