<svg width="17" height="3" viewBox="0 0 17 3" fill="none" xmlns="http://www.w3.org/2000/svg">
<path fill-rule="evenodd" clip-rule="evenodd" d="M1.88889 0C1.38792 0 0.907478 0.158036 0.553243 0.43934C0.199007 0.720645 0 1.10218 0 1.5C0 1.89782 0.199007 2.27936 0.553243 2.56066C0.907478 2.84196 1.38792 3 1.88889 3C2.38985 3 2.8703 2.84196 3.22453 2.56066C3.57877 2.27936 3.77778 1.89782 3.77778 1.5C3.77778 1.10218 3.57877 0.720645 3.22453 0.43934C2.8703 0.158036 2.38985 0 1.88889 0ZM8.5 0C7.99904 0 7.51859 0.158036 7.16435 0.43934C6.81012 0.720645 6.61111 1.10218 6.61111 1.5C6.61111 1.89782 6.81012 2.27936 7.16435 2.56066C7.51859 2.84196 7.99904 3 8.5 3C9.00096 3 9.48141 2.84196 9.83565 2.56066C10.1899 2.27936 10.3889 1.89782 10.3889 1.5C10.3889 1.10218 10.1899 0.720645 9.83565 0.43934C9.48141 0.158036 9.00096 0 8.5 0ZM15.1111 0C14.6101 0 14.1297 0.158036 13.7755 0.43934C13.4212 0.720645 13.2222 1.10218 13.2222 1.5C13.2222 1.89782 13.4212 2.27936 13.7755 2.56066C14.1297 2.84196 14.6101 3 15.1111 3C15.6121 3 16.0925 2.84196 16.4468 2.56066C16.801 2.27936 17 1.89782 17 1.5C17 1.10218 16.801 0.720645 16.4468 0.43934C16.0925 0.158036 15.6121 0 15.1111 0Z" fill="#515151"/>
</svg>
