<svg width="8" height="11" viewBox="0 0 8 11" fill="none" xmlns="http://www.w3.org/2000/svg">
<g clip-path="url(#clip0_1934_102200)">
<path d="M0 0.229492H8M0 10.7712H8M1.11111 10.7712V8.02116L2.38044 7.23558C2.67104 7.0558 2.91153 6.80148 3.0785 6.49739C3.24548 6.19329 3.33324 5.84979 3.33324 5.50033C3.33324 5.15086 3.24548 4.80736 3.0785 4.50326C2.91153 4.19917 2.67104 3.94485 2.38044 3.76508L1.11111 2.97949V0.229492M6.88889 0.229492V2.97949L5.61956 3.76508C5.32907 3.94494 5.08868 4.19929 4.92179 4.50337C4.7549 4.80745 4.66718 5.15091 4.66718 5.50033C4.66718 5.84974 4.7549 6.1932 4.92179 6.49728C5.08868 6.80136 5.32907 7.05571 5.61956 7.23558L6.88889 8.02116V10.7712" stroke="#F4A72A"/>
</g>
<defs>
<clipPath id="clip0_1934_102200">
<rect width="8" height="11" fill="white"/>
</clipPath>
</defs>
</svg>
