<svg width="24" height="20" viewBox="0 0 24 20" fill="none" xmlns="http://www.w3.org/2000/svg">
<mask id="path-1-inside-1_98_11016" fill="white">
<path d="M7.54909 19.9997C9.39179 20.0116 11.2185 19.6482 12.9231 18.9305C14.6278 18.2128 16.1766 17.1551 17.4796 15.8189C18.7826 14.4826 19.8139 12.8943 20.5137 11.1461C21.2136 9.39797 21.568 7.52469 21.5564 5.63496V4.9749C22.5116 4.25721 23.3383 3.37528 24 2.36821C23.1006 2.77163 22.1488 3.03918 21.1745 3.16252C22.2075 2.5313 22.9826 1.53772 23.3564 0.365645C22.3937 0.957957 21.338 1.37435 20.2364 1.59627C19.4945 0.785586 18.5127 0.248239 17.4431 0.0673704C16.3734 -0.113498 15.2754 0.0721963 14.319 0.595721C13.3626 1.11924 12.6011 1.95142 12.1523 2.96347C11.7035 3.97552 11.5925 5.11105 11.8364 6.19434C9.8793 6.09582 7.96441 5.57569 6.21639 4.66781C4.46837 3.75992 2.9264 2.48465 1.69091 0.92502C1.06792 2.0339 0.879084 3.34412 1.16265 4.59041C1.44621 5.83669 2.18098 6.92591 3.21818 7.63752C2.45303 7.60726 1.70558 7.39263 1.03636 7.01102V7.06696C1.02956 8.2258 1.41024 9.35203 2.11495 10.2579C2.81966 11.1638 3.80582 11.7947 4.90909 12.0454C4.19742 12.2417 3.45196 12.2723 2.72727 12.1349C3.04667 13.1232 3.65638 13.986 4.47278 14.6049C5.28917 15.2238 6.27228 15.5685 7.28727 15.5918C5.55187 17.0244 3.39501 17.813 1.16727 17.8293C0.776676 17.8177 0.386997 17.7841 0 17.7287C2.25486 19.2019 4.8755 19.9787 7.54909 19.9662"/>
</mask>
<path d="M21.5564 5.63496H20.5563L20.5564 5.64109L21.5564 5.63496ZM21.5564 4.9749L20.9557 4.17542L20.5564 4.47544V4.9749H21.5564ZM24 2.36821L24.8357 2.91732L26.7175 0.0533913L23.5908 1.45578L24 2.36821ZM21.1745 3.16252L20.6531 2.30922L21.3001 4.1546L21.1745 3.16252ZM23.3564 0.365645L24.3091 0.669447L25.1279 -1.89844L22.8323 -0.486061L23.3564 0.365645ZM20.2364 1.59627L19.4987 2.27139L19.88 2.68814L20.4338 2.57658L20.2364 1.59627ZM11.8364 6.19434L11.7861 7.19307L13.1011 7.25927L12.8119 5.9747L11.8364 6.19434ZM1.69091 0.92502L2.47476 0.304074L1.54919 -0.864324L0.819082 0.435207L1.69091 0.92502ZM3.21818 7.63752L3.17866 8.63674L6.64184 8.77372L3.78392 6.81294L3.21818 7.63752ZM1.03636 7.01102L1.53172 6.14233L0.0363635 5.28964V7.01102H1.03636ZM1.03636 7.06696L2.03636 7.07283V7.06696H1.03636ZM4.90909 12.0454L5.17499 13.0094L5.13066 11.0703L4.90909 12.0454ZM2.72727 12.1349L2.91352 11.1524L1.25735 10.8384L1.77573 12.4424L2.72727 12.1349ZM7.28727 15.5918L7.92389 16.363L9.99445 14.6538L7.31024 14.5921L7.28727 15.5918ZM1.16727 17.8293L1.13761 18.8289L1.15611 18.8295L1.17462 18.8293L1.16727 17.8293ZM0 17.7287L0.141912 16.7388L-0.546976 18.5658L0 17.7287ZM7.54264 20.9997C9.5213 21.0125 11.4821 20.6222 13.3111 19.8521L12.5351 18.0088C10.9548 18.6742 9.26228 19.0107 7.55554 18.9997L7.54264 20.9997ZM13.3111 19.8521C15.1401 19.0821 16.8001 17.948 18.1955 16.517L16.7636 15.1207C15.553 16.3622 14.1155 17.3435 12.5351 18.0088L13.3111 19.8521ZM18.1955 16.517C19.5909 15.086 20.694 13.3866 21.4421 11.5178L19.5854 10.7745C18.9338 12.4021 17.9743 13.8792 16.7636 15.1207L18.1955 16.517ZM21.4421 11.5178C22.1902 9.64906 22.5687 7.64745 22.5563 5.62883L20.5564 5.64109C20.5672 7.40192 20.2369 9.14687 19.5854 10.7745L21.4421 11.5178ZM22.5564 5.63496V4.9749H20.5564V5.63496H22.5564ZM22.1571 5.77438C23.2053 4.98681 24.1113 4.01993 24.8357 2.91732L23.1643 1.81909C22.5653 2.73062 21.8179 3.52761 20.9557 4.17542L22.1571 5.77438ZM23.5908 1.45578C22.7811 1.81894 21.9249 2.05955 21.049 2.17044L21.3001 4.1546C22.3728 4.01881 23.4201 3.72431 24.4092 3.28063L23.5908 1.45578ZM21.696 4.01582C22.9377 3.25702 23.8636 2.0665 24.3091 0.669447L22.4036 0.0618429C22.1016 1.00895 21.4773 1.80558 20.6531 2.30922L21.696 4.01582ZM22.8323 -0.486061C21.9695 0.0448401 21.0242 0.417465 20.0389 0.615964L20.4338 2.57658C21.6517 2.33123 22.8179 1.87107 23.8804 1.21735L22.8323 -0.486061ZM20.9741 0.921155C20.0839 -0.0515551 18.9022 -0.700108 17.6098 -0.918634L17.2763 1.05337C18.1233 1.19659 18.905 1.62273 19.4987 2.27139L20.9741 0.921155ZM17.6098 -0.918634C16.3172 -1.1372 14.9914 -0.912371 13.8388 -0.281461L14.7991 1.4729C15.5594 1.05676 16.4296 0.910202 17.2763 1.05337L17.6098 -0.918634ZM13.8388 -0.281461C12.6867 0.349188 11.7744 1.34875 11.2381 2.5581L13.0665 3.36884C13.4277 2.55408 14.0384 1.8893 14.7991 1.4729L13.8388 -0.281461ZM11.2381 2.5581C10.702 3.76712 10.5699 5.12183 10.8608 6.41397L12.8119 5.9747C12.6151 5.10026 12.705 4.18393 13.0665 3.36884L11.2381 2.5581ZM11.8866 5.1956C10.0736 5.10434 8.2987 4.62248 6.67731 3.78036L5.75547 5.55525C7.63012 6.5289 9.68498 7.08731 11.7861 7.19307L11.8866 5.1956ZM6.67731 3.78036C5.05583 2.93821 3.62354 1.75423 2.47476 0.304074L0.907057 1.54597C2.22927 3.21506 3.8809 4.58164 5.75547 5.55525L6.67731 3.78036ZM0.819082 0.435207C0.0739557 1.76147 -0.150717 3.32547 0.187568 4.81226L2.13773 4.36855C1.90888 3.36277 2.06188 2.30633 2.56274 1.41483L0.819082 0.435207ZM0.187568 4.81226C0.525931 6.2994 1.40417 7.60569 2.65244 8.46211L3.78392 6.81294C2.95778 6.24614 2.36649 5.37399 2.13773 4.36855L0.187568 4.81226ZM3.2577 6.63831C2.65377 6.61442 2.06253 6.44502 1.53172 6.14233L0.541009 7.87971C1.34863 8.34025 2.25229 8.6001 3.17866 8.63674L3.2577 6.63831ZM0.0363635 7.01102V7.06696H2.03636V7.01102H0.0363635ZM0.0363807 7.06109C0.0282787 8.44198 0.481702 9.78704 1.32564 10.8719L2.90425 9.64394C2.33878 8.91702 2.03085 8.00962 2.03635 7.07283L0.0363807 7.06109ZM1.32564 10.8719C2.16996 11.9573 3.35545 12.7179 4.68752 13.0205L5.13066 11.0703C4.2562 10.8716 3.46935 10.3704 2.90425 9.64394L1.32564 10.8719ZM4.64319 11.0814C4.07871 11.2371 3.48792 11.2613 2.91352 11.1524L2.54102 13.1174C3.41599 13.2833 4.31613 13.2463 5.17499 13.0094L4.64319 11.0814ZM1.77573 12.4424C2.15718 13.6227 2.88669 14.6573 3.86865 15.4018L5.0769 13.808C4.42608 13.3146 3.93617 12.6237 3.67881 11.8274L1.77573 12.4424ZM3.86865 15.4018C4.85099 16.1465 6.03704 16.5634 7.26431 16.5916L7.31024 14.5921C6.50752 14.5737 5.72736 14.3011 5.0769 13.808L3.86865 15.4018ZM6.65066 14.8207C5.09053 16.1086 3.15533 16.8147 1.15993 16.8294L1.17462 18.8293C3.63469 18.8113 6.0132 17.9403 7.92389 16.363L6.65066 14.8207ZM1.19694 16.8298C0.843929 16.8193 0.491724 16.7889 0.141912 16.7388L-0.141912 18.7185C0.28227 18.7793 0.709424 18.8162 1.13761 18.8289L1.19694 16.8298ZM-0.546976 18.5658C1.87056 20.1454 4.68277 20.9796 7.55377 20.9661L7.54441 18.9662C5.06822 18.9778 2.63916 18.2585 0.546976 16.8915L-0.546976 18.5658Z" fill="white" mask="url(#path-1-inside-1_98_11016)"/>
</svg>
