<svg width="38" height="19" viewBox="0 0 38 19" fill="none" xmlns="http://www.w3.org/2000/svg">
<path d="M0 0V3.8H7.6V7.6H3.8C2.79218 7.6 1.82563 8.00036 1.11299 8.71299C0.400356 9.42563 0 10.3922 0 11.4V19H11.4V15.2H3.8V11.4H7.6C8.60782 11.4 9.57437 10.9996 10.287 10.287C10.9996 9.57437 11.4 8.60782 11.4 7.6V3.8C11.4 2.79218 10.9996 1.82563 10.287 1.11299C9.57437 0.400356 8.60782 0 7.6 0H0ZM13.3 0V19H17.1V11.4H22.8V7.6H17.1V3.8H24.7V0H13.3ZM30.4 0C29.3922 0 28.4256 0.400356 27.713 1.11299C27.0004 1.82563 26.6 2.79218 26.6 3.8V19H30.4V13.3H34.2V19H38V3.8C38 2.79218 37.5996 1.82563 36.887 1.11299C36.1744 0.400356 35.2078 0 34.2 0H30.4ZM30.4 3.8H34.2V9.5H30.4V3.8Z" fill="#515151"/>
</svg>
