<svg width="13" height="15" viewBox="0 0 13 15" fill="none" xmlns="http://www.w3.org/2000/svg">
<path d="M8.21078 0.055477C7.39828 -0.168452 6.76344 0.430477 6.53703 0.988691C6.27703 1.63155 6.04628 2.08262 5.77219 2.62155C5.57439 3.00824 5.3819 3.39756 5.19478 3.78941C4.68019 4.87155 4.16778 5.56369 3.79403 5.98048C3.65816 6.13404 3.51155 6.27797 3.35528 6.41119C3.3198 6.44133 3.28331 6.47027 3.24586 6.49798L3.22853 6.51083L1.20053 7.69262C0.761494 7.94878 0.427834 8.34982 0.258224 8.82523C0.0886146 9.30065 0.0939152 9.81998 0.273194 10.2919L0.836528 11.7748C0.952193 12.0794 1.13649 12.354 1.37544 12.5777C1.61439 12.8014 1.90171 12.9683 2.21561 13.0658L8.01794 14.868C8.36129 14.9747 8.7227 15.0126 9.08104 14.9796C9.43939 14.9466 9.78749 14.8433 10.105 14.6757C10.4225 14.5081 10.7031 14.2796 10.9303 14.0036C11.1575 13.7275 11.3268 13.4095 11.4283 13.068L12.9059 8.08905C13.0007 7.76948 13.0189 7.43247 12.959 7.10475C12.8991 6.77703 12.7628 6.46762 12.561 6.20108C12.3591 5.93455 12.0971 5.71822 11.796 5.56926C11.4948 5.42031 11.1627 5.34283 10.8259 5.34298H9.32661C9.39811 5.09976 9.47069 4.82976 9.53786 4.55012C9.67978 3.94798 9.80111 3.26119 9.78919 2.68798C9.77944 2.15548 9.72419 1.59619 9.50319 1.12155C9.26594 0.61262 8.85103 0.23012 8.21186 0.0544055L8.21078 0.055477ZM3.22528 6.51405L3.22311 6.51512L3.22528 6.51405Z" fill="#219653"/>
</svg>
