<svg width="79" height="23" viewBox="0 0 79 23" fill="none" xmlns="http://www.w3.org/2000/svg">
<path d="M5.27364 22.8862V21.3639C5.27364 20.7802 4.92541 20.3997 4.32854 20.3997C4.03015 20.3997 3.70685 20.5012 3.483 20.8311C3.309 20.552 3.06035 20.3997 2.68732 20.3997C2.43855 20.3997 2.19001 20.4758 1.99098 20.7549V20.4505H1.46875V22.8862H1.99098V21.5414C1.99098 21.1102 2.21482 20.9071 2.56305 20.9071C2.91105 20.9071 3.08527 21.1355 3.08527 21.5414V22.8862H3.6075V21.5414C3.6075 21.1102 3.85604 20.9071 4.17934 20.9071C4.52757 20.9071 4.70157 21.1355 4.70157 21.5414V22.8862H5.27364ZM13.0075 20.4505H12.162V19.7147H11.6398V20.4505H11.1673V20.9324H11.6397V22.0489C11.6397 22.6072 11.8636 22.9369 12.4604 22.9369C12.6843 22.9369 12.9328 22.8609 13.107 22.7594L12.9577 22.3026C12.8085 22.4041 12.6345 22.4295 12.5102 22.4295C12.2615 22.4295 12.162 22.2773 12.162 22.0235V20.9324H13.0075V20.4505ZM17.434 20.3996C17.1357 20.3996 16.9367 20.552 16.8124 20.7549V20.4505H16.2901V22.8862H16.8124V21.5161C16.8124 21.1102 16.9864 20.8818 17.3097 20.8818C17.4091 20.8818 17.5335 20.9072 17.633 20.9326L17.7822 20.4252C17.6827 20.3997 17.5335 20.3997 17.434 20.3997V20.3996ZM10.7446 20.6534C10.4958 20.4758 10.1477 20.3997 9.77465 20.3997C9.17788 20.3997 8.78004 20.7042 8.78004 21.1862C8.78004 21.5923 9.07842 21.8205 9.60065 21.8967L9.8493 21.9221C10.1229 21.9728 10.2721 22.0489 10.2721 22.1758C10.2721 22.3534 10.0731 22.4803 9.72492 22.4803C9.3768 22.4803 9.10323 22.3534 8.92911 22.2266L8.68046 22.6325C8.95404 22.8354 9.32707 22.9369 9.69999 22.9369C10.3963 22.9369 10.7943 22.6072 10.7943 22.1504C10.7943 21.7191 10.471 21.4907 9.97357 21.4146L9.72492 21.3892C9.50107 21.3638 9.32707 21.3132 9.32707 21.1609C9.32707 20.9833 9.50107 20.8818 9.77465 20.8818C10.0731 20.8818 10.3715 21.0086 10.5207 21.0848L10.7446 20.6534ZM24.6209 20.3997C24.3225 20.3997 24.1235 20.552 23.9991 20.7549V20.4505H23.4769V22.8862H23.9991V21.5161C23.9991 21.1102 24.1733 20.8818 24.4965 20.8818C24.596 20.8818 24.7204 20.9072 24.8199 20.9326L24.9691 20.4252C24.8696 20.3997 24.7204 20.3997 24.6209 20.3997ZM17.9563 21.6683C17.9563 22.4041 18.4536 22.9369 19.2246 22.9369C19.5727 22.9369 19.8213 22.8609 20.07 22.6579L19.8213 22.2266C19.6224 22.3788 19.4235 22.4548 19.1996 22.4548C18.7769 22.4548 18.4785 22.1504 18.4785 21.6683C18.4785 21.2117 18.7769 20.9071 19.1996 20.8818C19.4235 20.8818 19.6224 20.9579 19.8213 21.1102L20.07 20.6789C19.8213 20.4758 19.5727 20.3997 19.2246 20.3997C18.4536 20.3997 17.9563 20.9326 17.9563 21.6683ZM22.7807 21.6683V20.4505H22.2585V20.7549C22.0844 20.5266 21.8357 20.3997 21.5124 20.3997C20.841 20.3997 20.3188 20.9326 20.3188 21.6683C20.3188 22.4041 20.841 22.9369 21.5124 22.9369C21.8605 22.9369 22.1093 22.8101 22.2585 22.5817V22.8862H22.7807V21.6683ZM20.8658 21.6683C20.8658 21.237 21.1394 20.8818 21.5869 20.8818C22.0097 20.8818 22.3082 21.2117 22.3082 21.6683C22.3082 22.0997 22.0097 22.4548 21.5869 22.4548C21.1394 22.4294 20.8658 22.0997 20.8658 21.6683ZM14.624 20.3997C13.9276 20.3997 13.4302 20.9071 13.4302 21.6683C13.4302 22.4295 13.9275 22.9369 14.6488 22.9369C14.9969 22.9369 15.3451 22.8354 15.6187 22.6072L15.3699 22.2266C15.171 22.3788 14.9224 22.4803 14.6737 22.4803C14.3504 22.4803 14.0271 22.328 13.9525 21.8966H15.7182V21.6937C15.7431 20.9071 15.2954 20.3997 14.6239 20.3997H14.624ZM14.624 20.8564C14.9472 20.8564 15.1711 21.0595 15.2208 21.4401H13.9774C14.0271 21.1102 14.251 20.8564 14.624 20.8564ZM27.5802 21.6683V19.4863H27.058V20.7549C26.8839 20.5266 26.6352 20.3997 26.3119 20.3997C25.6405 20.3997 25.1183 20.9326 25.1183 21.6683C25.1183 22.4041 25.6405 22.9369 26.3119 22.9369C26.6601 22.9369 26.9088 22.8101 27.058 22.5817V22.8862H27.5802V21.6683ZM25.6654 21.6683C25.6654 21.237 25.9389 20.8818 26.3866 20.8818C26.8093 20.8818 27.1077 21.2117 27.1077 21.6683C27.1077 22.0997 26.8093 22.4548 26.3866 22.4548C25.9389 22.4294 25.6654 22.0997 25.6654 21.6683ZM8.20797 21.6683V20.4505H7.68574V20.7549C7.51163 20.5266 7.26297 20.3997 6.93967 20.3997C6.26825 20.3997 5.74602 20.9326 5.74602 21.6683C5.74602 22.4041 6.26825 22.9369 6.93967 22.9369C7.2879 22.9369 7.53655 22.8101 7.68574 22.5817V22.8862H8.20797V21.6683ZM6.26825 21.6683C6.26825 21.237 6.54182 20.8818 6.9894 20.8818C7.41217 20.8818 7.71066 21.2117 7.71066 21.6683C7.71066 22.0997 7.41217 22.4548 6.9894 22.4548C6.54182 22.4294 6.26825 22.0997 6.26825 21.6683Z" fill="black"/>
<path d="M10.5703 1.9541H18.4037V16.3148H10.5703V1.9541Z" fill="#FF5F00"/>
<path d="M11.0663 9.134C11.0663 6.21624 12.4092 3.62822 14.4732 1.95361C12.9563 0.735769 11.0415 0 8.95262 0C4.0037 0 0 4.08487 0 9.134C0 14.183 4.0037 18.268 8.9525 18.268C11.0414 18.268 12.9562 17.5322 14.4732 16.3143C12.4092 14.6651 11.0663 12.0518 11.0663 9.134Z" fill="#EB001B"/>
<path d="M28.9732 9.134C28.9732 14.183 24.9695 18.268 20.0206 18.268C17.9317 18.268 16.0169 17.5322 14.5 16.3143C16.5889 14.6398 17.9069 12.0518 17.9069 9.134C17.9069 6.21624 16.564 3.62822 14.5 1.95361C16.0168 0.735769 17.9317 0 20.0206 0C24.9695 0 28.9733 4.1103 28.9733 9.134H28.9732Z" fill="#F79E1B"/>
<path d="M58.7214 8.13957C58.6974 9.94328 60.4052 10.9498 61.6916 11.5482C63.0133 12.1622 63.4572 12.556 63.452 13.1051C63.4421 13.9454 62.3977 14.3163 61.4204 14.3307C59.7153 14.3559 58.7238 13.8912 57.9357 13.5397L57.3214 16.2837C58.1122 16.6315 59.5765 16.9349 61.0949 16.9482C64.6591 16.9482 66.991 15.2686 67.0036 12.6644C67.0175 9.35922 62.2149 9.17628 62.2477 7.69898C62.2591 7.25103 62.7068 6.773 63.6879 6.65146C64.1735 6.59006 65.5141 6.54307 67.0339 7.21124L67.6305 4.55642C66.8131 4.2723 65.7626 4.00024 64.4547 4.00024C61.1 4.00024 58.7404 5.70277 58.7214 8.13957ZM73.3625 4.22892C72.7116 4.22892 72.1632 4.59135 71.9184 5.14753L66.8271 16.7532H70.3887L71.0974 14.8833H75.4497L75.8608 16.7532H79L76.2606 4.22892H73.3625ZM73.8607 7.61221L74.8886 12.3152H72.0736L73.8607 7.61221ZM54.4031 4.22907L51.5957 16.7531H54.9896L57.7957 4.22876H54.4031V4.22907ZM49.3823 4.22876L45.8497 12.7535L44.4207 5.50527C44.253 4.69614 43.5909 4.22892 42.8556 4.22892H37.0809L37 4.5926C38.1855 4.83819 39.5325 5.2343 40.3485 5.65813C40.8479 5.91704 40.9903 6.14336 41.1544 6.75859L43.8609 16.7532H47.4475L52.9462 4.22892H49.3823" fill="url(#paint0_linear_542_106984)"/>
<defs>
<linearGradient id="paint0_linear_542_106984" x1="56.3091" y1="17.208" x2="56.6669" y2="3.90926" gradientUnits="userSpaceOnUse">
<stop stop-color="#222357"/>
<stop offset="1" stop-color="#254AA5"/>
</linearGradient>
</defs>
</svg>
