<svg width="18" height="18" viewBox="0 0 18 18" fill="none" xmlns="http://www.w3.org/2000/svg">
<g clip-path="url(#clip0_1878_106034)">
<path fill-rule="evenodd" clip-rule="evenodd" d="M0.642857 4.92429H4.23L9.19285 0L10.2857 0.45V17.1643L9.19285 17.5886L4.23 12.6386H0.642857L0 11.9957V5.56714L0.642857 4.92429ZM4.95 11.5714L8.99999 15.6086V2.00571L4.95 6.01714L4.5 6.21H1.28571V11.3529H4.5L4.95 11.5714ZM18 8.78143C18.0033 10.8568 17.2863 12.869 15.9711 14.4746L15.0557 13.5617C16.1325 12.2013 16.7171 10.5164 16.7143 8.78143C16.7143 6.98143 16.0971 5.32414 15.0634 4.01143L15.9788 3.09857C17.2889 4.70247 18.003 6.71053 18 8.78143ZM15.4286 8.78143C15.431 10.1748 14.9787 11.5308 14.1403 12.6437L13.2197 11.7231C13.8224 10.8607 14.1447 9.83356 14.1428 8.78143C14.1447 7.73347 13.8247 6.71022 13.2261 5.85L14.1467 4.92943C14.9516 6.003 15.4286 7.33629 15.4286 8.78143ZM12.8571 8.78143C12.8571 9.51943 12.6514 10.2086 12.2914 10.7949L11.3413 9.846C11.4932 9.51388 11.5724 9.15312 11.5735 8.78791C11.5746 8.4227 11.4976 8.06147 11.3477 7.72843L12.2978 6.77829C12.6527 7.362 12.8571 8.04857 12.8571 8.78143Z" fill="#515151"/>
</g>
<defs>
<clipPath id="clip0_1878_106034">
<rect width="18" height="18" fill="white"/>
</clipPath>
</defs>
</svg>
