<svg width="23" height="22" viewBox="0 0 23 22" fill="none" xmlns="http://www.w3.org/2000/svg">
<path d="M18.1186 17.9437H10.1144C10.112 17.6391 10.1073 17.296 10.105 17.0664H17.8256C20.135 17.0664 22.0129 15.2391 22.0129 12.9937V12.4869H23.0023V13.196C23.0023 15.821 20.8196 17.9437 18.1186 17.9437ZM22.3295 11.1687H20.7774V11.1664H15.8702C14.6276 11.1664 13.6195 10.1846 13.6195 8.97778C13.6195 7.76869 14.6276 6.78914 15.8702 6.78914H20.7774V6.78687H22.3295V6.78914H23.0023V11.1664H22.3295V11.1687ZM16.025 7.74596C15.3239 7.74596 14.7566 8.29823 14.7566 8.97551C14.7566 9.65505 15.3239 10.2051 16.025 10.2051C16.7236 10.2051 17.2887 9.65505 17.2887 8.97551C17.2887 8.29596 16.7213 7.74596 16.025 7.74596ZM22.0129 4.9596C22.0129 2.71414 20.1326 0.889142 17.8232 0.889142H8.18246C5.87308 0.889142 3.99275 2.71414 3.99275 4.9596V12.9937C3.99275 13.496 4.09123 13.9778 4.26472 14.421C3.89428 14.4278 3.53322 14.4437 3.18623 14.471C3.069 14.0641 3.00336 13.6391 3.00336 13.196V4.75505C3.00336 2.13232 5.18613 0.00732422 7.8847 0.00732422H18.1186C20.8172 0.00732422 23.0023 2.1346 23.0023 4.75505V5.46642H22.0129V4.9596ZM9.07573 16.5073C9.07573 17.2141 7.05004 17.7846 4.55076 17.7846C2.05147 17.7846 0.0257821 17.2119 0.0257821 16.5073C0.0257821 15.8028 2.05147 15.2301 4.55076 15.2301C7.05004 15.2301 9.07573 15.8005 9.07573 16.5073ZM0.0656393 17.2664C0.0890848 17.3096 0.171144 17.421 0.171144 17.421L0.351674 17.5755L0.672877 17.7573L1.13006 17.9346L1.76544 18.1051L2.4266 18.2278L3.42069 18.3437L4.4476 18.3755L5.39948 18.3505L6.29979 18.2755L7.17899 18.1369L7.84016 17.9732L8.30438 17.8096L8.56931 17.6823L8.89051 17.4551L9.05698 17.1982C9.05698 17.1982 9.07339 18.6437 9.07339 18.6505C9.07339 19.3573 7.0477 19.9278 4.54841 19.9278C2.04913 19.9278 0.0234375 19.3551 0.0234375 18.6505C0.0234375 18.6323 0.0304711 17.1664 0.0304711 17.1664C0.0304711 17.1664 0.0586057 17.2528 0.0656393 17.2664ZM0.0656393 19.3301C0.0890848 19.3732 0.171144 19.4846 0.171144 19.4846L0.354019 19.6369L0.675221 19.8187L1.13241 19.996L1.76778 20.1664L2.42894 20.2891L3.42303 20.4051L4.44994 20.4369L5.40183 20.4119L6.30213 20.3391L7.18134 20.1982L7.8425 20.0346L8.30672 19.871L8.57165 19.7437L8.89286 19.5164L9.05932 19.2596C9.05932 19.2596 9.07573 20.7051 9.07573 20.7119C9.07573 21.4164 7.05004 21.9891 4.55076 21.9891C2.05147 21.9891 0.0257821 21.4164 0.0257821 20.7119C0.0257821 20.6937 0.0328157 19.2278 0.0328157 19.2278C0.0328157 19.2278 0.0586057 19.3164 0.0656393 19.3301ZM15.8702 12.4869H21.469V12.9937C21.469 14.9505 19.8349 16.5369 17.8256 16.5369H9.73689C9.98307 16.3596 10.1214 16.171 10.1214 15.9687C10.1214 15.1323 7.78154 14.4528 4.84851 14.4187C4.64923 13.9823 4.53903 13.5005 4.53903 12.9914V4.9596C4.53903 3.00505 6.17084 1.41642 8.18246 1.41642H17.8256C19.8372 1.41642 21.469 3.00505 21.469 4.9596V5.46642H15.8702C13.8821 5.46642 12.262 7.04142 12.262 8.97551C12.262 10.9096 13.8821 12.4869 15.8702 12.4869Z" fill="#515151"/>
</svg>
