<svg width="22" height="22" viewBox="0 0 22 22" fill="none" xmlns="http://www.w3.org/2000/svg">
<mask id="path-1-inside-1_1878_105849" fill="white">
<path d="M21.0685 16.5357L20.679 16.1462C20.6789 16.1461 20.6787 16.1459 20.6786 16.1457C20.6785 16.1455 20.6783 16.1454 20.678 16.1453L7.07941 2.54651C6.0623 1.52951 1.91533 0.274827 1.09421 0.0336194C0.80304 -0.0518567 0.48948 0.0284357 0.275625 0.242843L0.242096 0.276482C0.0284609 0.490448 -0.0513903 0.803897 0.0337549 1.09407C0.275073 1.91509 1.52964 6.06206 2.54675 7.07917L16.5358 21.0682C17.1367 21.6691 17.9355 22 18.7853 22C19.635 22 20.4339 21.6691 21.0352 21.0678L21.0683 21.0346C21.6691 20.4337 22.0001 19.6349 22.0001 18.7851C22.0001 17.9353 21.6692 17.1366 21.0685 16.5357ZM18.9237 16.7306L18.2172 17.4371L5.77058 4.99046L6.47711 4.28393L18.9237 16.7306ZM4.28407 6.47686L4.9906 5.77033L17.4373 18.217L16.7308 18.9235L4.28407 6.47686ZM5.15802 3.26329L3.26365 5.15766C2.90575 4.41352 2.468 3.25833 2.07459 2.07424C3.2588 2.46754 4.41399 2.90529 5.15802 3.26329ZM19.8982 19.8652L19.865 19.8984C19.5767 20.1868 19.1932 20.3456 18.7854 20.3456C18.4711 20.3456 18.1719 20.2504 17.919 20.0752L20.0755 17.9186C20.2508 18.1715 20.346 18.4709 20.346 18.7851C20.3458 19.1929 20.187 19.5764 19.8982 19.8652Z"/>
</mask>
<path d="M21.0685 16.5357L20.679 16.1462C20.6789 16.1461 20.6787 16.1459 20.6786 16.1457C20.6785 16.1455 20.6783 16.1454 20.678 16.1453L7.07941 2.54651C6.0623 1.52951 1.91533 0.274827 1.09421 0.0336194C0.80304 -0.0518567 0.48948 0.0284357 0.275625 0.242843L0.242096 0.276482C0.0284609 0.490448 -0.0513903 0.803897 0.0337549 1.09407C0.275073 1.91509 1.52964 6.06206 2.54675 7.07917L16.5358 21.0682C17.1367 21.6691 17.9355 22 18.7853 22C19.635 22 20.4339 21.6691 21.0352 21.0678L21.0683 21.0346C21.6691 20.4337 22.0001 19.6349 22.0001 18.7851C22.0001 17.9353 21.6692 17.1366 21.0685 16.5357ZM18.9237 16.7306L18.2172 17.4371L5.77058 4.99046L6.47711 4.28393L18.9237 16.7306ZM4.28407 6.47686L4.9906 5.77033L17.4373 18.217L16.7308 18.9235L4.28407 6.47686ZM5.15802 3.26329L3.26365 5.15766C2.90575 4.41352 2.468 3.25833 2.07459 2.07424C3.2588 2.46754 4.41399 2.90529 5.15802 3.26329ZM19.8982 19.8652L19.865 19.8984C19.5767 20.1868 19.1932 20.3456 18.7854 20.3456C18.4711 20.3456 18.1719 20.2504 17.919 20.0752L20.0755 17.9186C20.2508 18.1715 20.346 18.4709 20.346 18.7851C20.3458 19.1929 20.187 19.5764 19.8982 19.8652Z" stroke="#515151" stroke-width="2" mask="url(#path-1-inside-1_1878_105849)"/>
</svg>
